<svg xmlns="http://www.w3.org/2000/svg" viewBox="0 0 256 170" preserveAspectRatio="xMidYMid meet">
<defs><linearGradient id="g2" gradientUnits="userSpaceOnUse" x1="42.30" y1="37.02" x2="72.30" y2="37.02"><stop offset="0.0%" stop-color="#c41909"/><stop offset="3.8%" stop-color="#cd1b09"/><stop offset="14.6%" stop-color="#c81a09"/><stop offset="30.9%" stop-color="#b51708"/><stop offset="50.0%" stop-color="#971407"/><stop offset="69.1%" stop-color="#730f05"/><stop offset="85.4%" stop-color="#6f0e05"/><stop offset="96.2%" stop-color="#6f0e05"/><stop offset="100.0%" stop-color="#6f0e05"/></linearGradient><linearGradient id="g4" gradientUnits="userSpaceOnUse" x1="77.65" y1="19.35" x2="107.65" y2="19.35"><stop offset="0.0%" stop-color="#c41909"/><stop offset="3.8%" stop-color="#cd1b09"/><stop offset="14.6%" stop-color="#c81a09"/><stop offset="30.9%" stop-color="#b51708"/><stop offset="50.0%" stop-color="#971407"/><stop offset="69.1%" stop-color="#730f05"/><stop offset="85.4%" stop-color="#6f0e05"/><stop offset="96.2%" stop-color="#6f0e05"/><stop offset="100.0%" stop-color="#6f0e05"/></linearGradient><linearGradient id="g6" gradientUnits="userSpaceOnUse" x1="113.00" y1="37.02" x2="143.00" y2="37.02"><stop offset="0.0%" stop-color="#c41909"/><stop offset="3.8%" stop-color="#cd1b09"/><stop offset="14.6%" stop-color="#c81a09"/><stop offset="30.9%" stop-color="#b51708"/><stop offset="50.0%" stop-color="#971407"/><stop offset="69.1%" stop-color="#730f05"/><stop offset="85.4%" stop-color="#6f0e05"/><stop offset="96.2%" stop-color="#6f0e05"/><stop offset="100.0%" stop-color="#6f0e05"/></linearGradient><linearGradient id="g8" gradientUnits="userSpaceOnUse" x1="148.35" y1="54.69" x2="178.35" y2="54.69"><stop offset="0.0%" stop-color="#c41909"/><stop offset="3.8%" stop-color="#cd1b09"/><stop offset="14.6%" stop-color="#c81a09"/><stop offset="30.9%" stop-color="#b51708"/><stop offset="50.0%" stop-color="#971407"/><stop offset="69.1%" stop-color="#730f05"/><stop offset="85.4%" stop-color="#6f0e05"/><stop offset="96.2%" stop-color="#6f0e05"/><stop offset="100.0%" stop-color="#6f0e05"/></linearGradient><linearGradient id="g10" gradientUnits="userSpaceOnUse" x1="77.65" y1="54.69" x2="107.65" y2="54.69"><stop offset="0.0%" stop-color="#c41909"/><stop offset="3.8%" stop-color="#cd1b09"/><stop offset="14.6%" stop-color="#c81a09"/><stop offset="30.9%" stop-color="#b51708"/><stop offset="50.0%" stop-color="#971407"/><stop offset="69.1%" stop-color="#730f05"/><stop offset="85.4%" stop-color="#6f0e05"/><stop offset="96.2%" stop-color="#6f0e05"/><stop offset="100.0%" stop-color="#6f0e05"/></linearGradient><linearGradient id="g13" gradientUnits="userSpaceOnUse" x1="183.70" y1="72.37" x2="213.70" y2="72.37"><stop offset="0.0%" stop-color="#c41909"/><stop offset="3.8%" stop-color="#cd1b09"/><stop offset="14.6%" stop-color="#c81a09"/><stop offset="30.9%" stop-color="#b51708"/><stop offset="50.0%" stop-color="#971407"/><stop offset="69.1%" stop-color="#730f05"/><stop offset="85.4%" stop-color="#6f0e05"/><stop offset="96.2%" stop-color="#6f0e05"/><stop offset="100.0%" stop-color="#6f0e05"/></linearGradient><linearGradient id="g15" gradientUnits="userSpaceOnUse" x1="113.00" y1="72.37" x2="143.00" y2="72.37"><stop offset="0.0%" stop-color="#c41909"/><stop offset="3.8%" stop-color="#cd1b09"/><stop offset="14.6%" stop-color="#c81a09"/><stop offset="30.9%" stop-color="#b51708"/><stop offset="50.0%" stop-color="#971407"/><stop offset="69.1%" stop-color="#730f05"/><stop offset="85.4%" stop-color="#6f0e05"/><stop offset="96.2%" stop-color="#6f0e05"/><stop offset="100.0%" stop-color="#6f0e05"/></linearGradient><linearGradient id="g17" gradientUnits="userSpaceOnUse" x1="148.35" y1="90.04" x2="178.35" y2="90.04"><stop offset="0.0%" stop-color="#c41909"/><stop offset="3.8%" stop-color="#cd1b09"/><stop offset="14.6%" stop-color="#c81a09"/><stop offset="30.9%" stop-color="#b51708"/><stop offset="50.0%" stop-color="#971407"/><stop offset="69.1%" stop-color="#730f05"/><stop offset="85.4%" stop-color="#6f0e05"/><stop offset="96.2%" stop-color="#6f0e05"/><stop offset="100.0%" stop-color="#6f0e05"/></linearGradient></defs>
<g stroke-linejoin="round">
<path d="M 21.95 93.30 L 163.35 164.00 L 163.35 112.05 L 21.95 41.35 Z" fill="#ab1608" fill-rule="evenodd" stroke="#ab1608" stroke-width="0.8"/>
<path d="M 80.42 19.35 L 80.66 19.52 L 80.75 19.58 L 80.42 19.34 Z M 81.42 19.99 L 81.64 20.10 L 81.00 19.73 Z M 82.26 20.42 L 82.64 20.59 L 81.98 20.27 Z M 83.89 21.10 L 83.01 20.76 L 83.17 20.82 Z M 85.15 21.51 L 85.25 21.54 L 84.08 21.17 L 84.13 21.19 Z M 86.22 21.79 L 86.48 21.84 L 85.55 21.61 Z M 87.33 22.03 L 87.78 22.10 L 86.92 21.94 Z M 45.31 37.20 L 45.40 37.25 L 45.08 37.02 L 45.07 37.02 Z M 69.53 37.02 L 69.53 37.02 L 69.07 37.33 L 69.29 37.20 Z M 46.08 37.66 L 46.30 37.78 L 45.65 37.40 Z M 68.11 37.88 L 68.53 37.66 L 68.73 37.53 Z M 46.62 37.95 L 46.91 38.10 L 47.31 38.27 Z M 67.82 38.03 L 66.80 38.49 L 67.69 38.10 Z M 47.82 38.50 L 48.53 38.77 L 47.65 38.42 Z M 65.68 38.91 L 65.82 38.86 L 66.79 38.50 L 66.80 38.49 Z M 49.80 39.18 L 49.88 39.20 L 48.73 38.84 L 48.78 38.86 Z M 64.51 39.26 L 64.80 39.18 L 65.34 39.02 Z M 50.26 39.30 L 50.87 39.47 L 51.13 39.52 Z M 63.73 39.47 L 64.08 39.38 L 63.22 39.57 Z M 51.98 39.70 L 52.44 39.78 L 51.55 39.61 Z M 61.72 39.85 L 62.62 39.70 L 62.82 39.66 Z M 52.88 39.85 L 53.13 39.89 L 53.93 39.99 Z M 61.47 39.89 L 61.51 39.89 L 60.16 40.05 L 60.30 40.04 Z M 55.55 40.14 L 54.20 40.02 L 54.30 40.04 L 55.49 40.13 Z M 59.11 40.13 L 59.82 40.08 L 58.84 40.15 Z M 55.92 40.15 L 56.70 40.18 L 56.92 40.18 Z M 57.44 40.18 L 57.91 40.18 L 58.31 40.17 Z M 80.75 54.93 L 80.42 54.69 L 80.42 54.70 L 80.66 54.87 Z M 81.64 55.45 L 81.00 55.07 L 81.42 55.34 Z M 82.64 55.94 L 81.99 55.63 L 82.26 55.77 Z M 83.17 56.17 L 83.84 56.43 L 83.00 56.10 Z M 85.25 56.88 L 84.09 56.52 L 84.13 56.54 L 85.15 56.86 Z M 86.22 57.14 L 86.48 57.19 L 85.55 56.96 Z M 87.79 57.45 L 86.92 57.29 L 87.33 57.38 Z M 92.05 7.52 L 92.07 7.52 L 92.09 7.52 L 92.24 7.52 L 93.25 7.52 L 93.45 7.53 L 93.58 7.53 L 93.68 7.54 L 93.88 7.55 L 94.46 7.57 L 94.80 7.60 L 95.07 7.62 L 95.33 7.64 L 95.65 7.67 L 96.10 7.72 L 92.65 6.00 L 89.21 7.72 L 89.33 7.71 L 89.65 7.67 L 90.32 7.61 L 90.60 7.59 L 90.70 7.58 L 90.84 7.57 Z M 104.88 19.34 L 104.88 19.34 L 104.41 19.66 L 104.64 19.52 Z M 103.88 19.99 L 104.09 19.86 L 103.46 20.20 Z M 103.16 20.36 L 102.44 20.69 L 102.23 20.78 L 102.44 20.69 L 103.04 20.42 Z M 102.13 20.83 L 101.05 21.23 L 101.17 21.19 Z M 100.15 21.51 L 100.66 21.35 L 99.86 21.59 Z M 99.08 21.79 L 99.42 21.70 L 98.56 21.90 Z M 97.97 22.03 L 98.17 21.98 L 97.07 22.18 Z M 89.20 22.31 L 88.24 22.18 L 88.48 22.22 Z M 96.82 22.22 L 96.86 22.21 L 95.53 22.37 L 95.65 22.36 Z M 89.65 22.36 L 90.84 22.46 L 90.93 22.46 L 89.57 22.35 Z M 94.46 22.46 L 95.14 22.41 L 94.17 22.47 Z M 92.05 22.51 L 92.27 22.51 L 91.19 22.47 Z M 93.67 22.49 L 92.78 22.51 L 93.25 22.51 Z M 115.77 37.02 L 116.01 37.20 L 116.10 37.25 L 115.77 37.02 Z M 116.77 37.66 L 116.99 37.78 L 116.34 37.40 Z M 104.41 55.01 L 104.64 54.87 L 104.88 54.70 L 104.88 54.69 Z M 103.88 55.34 L 104.11 55.20 L 103.45 55.56 Z M 102.15 56.17 L 103.04 55.77 L 103.16 55.71 Z M 101.05 56.58 L 101.17 56.54 L 102.14 56.17 L 102.15 56.17 Z M 100.15 56.86 L 100.66 56.70 L 99.86 56.93 Z M 99.42 57.05 L 98.60 57.24 L 99.08 57.14 Z M 98.14 57.34 L 97.10 57.52 L 97.97 57.38 Z M 88.48 57.57 L 89.23 57.66 L 88.22 57.52 Z M 95.53 57.72 L 95.65 57.71 L 96.82 57.57 L 96.86 57.56 Z M 89.57 57.70 L 89.65 57.71 L 90.84 57.81 L 90.91 57.81 Z M 94.46 57.81 L 95.14 57.75 L 94.16 57.82 Z M 92.05 57.86 L 92.30 57.86 L 91.25 57.83 Z M 93.25 57.86 L 93.70 57.84 L 92.73 57.86 Z M 120.56 47.86 L 120.50 47.84 L 119.48 47.52 L 118.52 47.16 L 117.61 46.76 L 116.77 46.32 L 116.01 45.85 L 115.32 45.36 L 114.72 44.83 L 114.20 44.29 L 113.77 43.72 L 113.44 43.14 L 113.20 42.55 L 113.05 41.95 L 113.00 41.35 L 113.00 36.53 L 113.00 32.69 L 113.02 32.53 L 113.01 32.41 L 113.04 32.28 L 113.05 32.09 L 113.12 31.82 L 113.14 31.66 L 113.17 31.59 L 113.20 31.49 L 113.38 31.03 L 113.42 30.93 L 113.43 30.92 L 113.44 30.90 L 113.77 30.32 L 113.82 30.26 L 113.84 30.21 L 113.95 30.08 L 114.20 29.75 L 114.33 29.62 L 114.41 29.52 L 114.54 29.40 L 114.72 29.21 L 114.96 29.00 L 115.11 28.86 L 115.21 28.78 L 115.32 28.68 L 115.80 28.34 L 115.93 28.24 L 115.97 28.22 L 116.01 28.19 L 116.77 27.72 L 116.84 27.68 L 116.88 27.66 L 117.06 27.57 L 117.61 27.28 L 117.80 27.20 L 117.94 27.13 L 118.17 27.04 L 118.52 26.88 L 118.87 26.75 L 119.09 26.66 L 119.26 26.60 L 119.48 26.52 L 120.14 26.31 L 120.34 26.24 L 120.40 26.23 L 120.50 26.20 L 121.57 25.92 L 121.61 25.91 L 121.66 25.89 L 121.91 25.84 L 122.68 25.68 L 122.91 25.64 L 123.05 25.61 L 123.32 25.57 L 123.83 25.49 L 124.23 25.44 L 124.48 25.40 L 124.69 25.38 L 125.00 25.34 L 125.67 25.29 L 125.95 25.26 L 126.05 25.26 L 126.19 25.25 L 127.40 25.20 L 127.42 25.20 L 127.44 25.20 L 127.61 25.20 L 128.60 25.20 L 128.78 25.20 L 128.93 25.21 L 129.24 25.22 L 129.81 25.25 L 130.19 25.28 L 130.42 25.29 L 130.64 25.31 L 131.00 25.34 L 131.45 25.40 L 107.24 13.30 L 107.26 13.34 L 107.31 13.44 L 107.36 13.59 L 107.45 13.81 L 107.51 14.04 L 107.55 14.18 L 107.57 14.27 L 107.60 14.41 L 107.63 14.78 L 107.65 14.92 L 107.64 14.96 L 107.65 15.02 L 107.65 23.68 L 107.60 24.28 L 107.45 24.88 L 107.21 25.47 L 106.88 26.05 L 106.45 26.61 L 106.42 26.65 L 105.93 27.16 L 105.33 27.68 L 104.64 28.18 L 103.88 28.65 L 103.04 29.08 L 102.14 29.48 L 101.17 29.85 L 100.15 30.17 L 99.08 30.45 L 97.97 30.69 L 96.82 30.88 L 95.65 31.02 L 94.46 31.12 L 93.25 31.17 L 92.05 31.17 L 90.84 31.12 L 89.65 31.02 L 88.48 30.88 L 87.33 30.69 L 86.22 30.45 L 85.15 30.17 L 84.13 29.85 L 83.17 29.48 L 82.26 29.08 L 81.42 28.65 L 80.66 28.18 L 79.97 27.68 L 79.37 27.16 L 78.85 26.61 L 78.42 26.05 L 78.09 25.47 L 77.85 24.88 L 77.70 24.28 L 77.65 23.68 L 77.65 15.02 L 77.67 14.85 L 77.66 14.73 L 77.69 14.61 L 77.70 14.41 L 77.77 14.14 L 77.79 13.99 L 77.82 13.91 L 77.85 13.81 L 78.04 13.35 L 78.06 13.30 L 53.86 25.39 L 54.00 25.38 L 54.30 25.34 L 54.97 25.29 L 55.25 25.26 L 55.35 25.26 L 55.49 25.25 L 56.70 25.20 L 56.72 25.20 L 56.74 25.20 L 56.91 25.20 L 57.91 25.20 L 58.08 25.20 L 58.24 25.21 L 58.55 25.22 L 59.11 25.25 L 59.49 25.28 L 59.72 25.29 L 59.95 25.31 L 60.30 25.34 L 60.88 25.41 L 61.18 25.45 L 61.32 25.47 L 61.47 25.49 L 62.49 25.66 L 62.61 25.68 L 62.62 25.68 L 62.62 25.68 L 63.73 25.92 L 63.85 25.95 L 63.98 25.98 L 64.27 26.06 L 64.80 26.20 L 65.08 26.29 L 65.28 26.34 L 65.49 26.41 L 65.82 26.52 L 66.27 26.69 L 66.50 26.77 L 66.62 26.82 L 66.79 26.88 L 67.56 27.22 L 67.64 27.26 L 67.65 27.26 L 67.69 27.28 L 68.53 27.72 L 68.60 27.76 L 68.67 27.80 L 68.87 27.93 L 69.29 28.19 L 69.45 28.30 L 69.59 28.39 L 69.75 28.52 L 69.98 28.68 L 70.21 28.89 L 70.38 29.02 L 70.47 29.11 L 70.58 29.21 L 70.93 29.57 L 71.05 29.69 L 71.07 29.72 L 71.10 29.75 L 71.53 30.32 L 71.55 30.35 L 71.58 30.39 L 71.66 30.54 L 71.86 30.90 L 71.92 31.02 L 71.96 31.11 L 72.01 31.25 L 72.11 31.49 L 72.16 31.71 L 72.20 31.85 L 72.22 31.95 L 72.25 32.09 L 72.28 32.45 L 72.30 32.60 L 72.30 32.64 L 72.30 32.69 L 72.30 41.35 L 72.25 41.95 L 72.11 42.55 L 71.86 43.14 L 71.53 43.72 L 71.10 44.29 L 70.58 44.83 L 69.98 45.36 L 69.29 45.85 L 68.53 46.32 L 67.69 46.76 L 66.79 47.16 L 65.82 47.52 L 64.80 47.84 L 63.73 48.12 L 62.62 48.36 L 61.47 48.55 L 60.30 48.70 L 59.11 48.79 L 57.91 48.84 L 56.70 48.84 L 55.49 48.79 L 54.30 48.70 L 53.13 48.55 L 51.98 48.36 L 50.87 48.12 L 49.80 47.84 L 48.78 47.52 L 47.82 47.16 L 46.91 46.76 L 46.08 46.32 L 45.31 45.85 L 44.63 45.36 L 44.02 44.83 L 43.50 44.29 L 43.08 43.72 L 42.74 43.14 L 42.50 42.55 L 42.35 41.95 L 42.30 41.35 L 42.30 32.69 L 42.32 32.52 L 42.31 32.41 L 42.34 32.28 L 42.35 32.09 L 42.42 31.82 L 42.45 31.66 L 42.47 31.59 L 42.50 31.49 L 42.69 31.02 L 42.71 30.97 L 21.95 41.35 L 163.35 112.05 L 234.05 76.70 L 213.29 66.32 L 213.31 66.37 L 213.36 66.46 L 213.41 66.60 L 213.50 66.84 L 213.56 67.07 L 213.60 67.20 L 213.61 67.30 L 213.65 67.44 L 213.68 67.80 L 213.69 67.95 L 213.69 67.99 L 213.70 68.04 L 213.70 76.70 L 213.65 77.30 L 213.50 77.90 L 213.26 78.49 L 212.92 79.07 L 212.50 79.64 L 211.98 80.18 L 211.37 80.71 L 210.69 81.20 L 209.92 81.67 L 209.09 82.11 L 208.18 82.51 L 207.22 82.87 L 206.20 83.19 L 205.13 83.47 L 204.02 83.71 L 202.87 83.90 L 201.70 84.05 L 200.51 84.14 L 199.30 84.19 L 198.09 84.19 L 196.89 84.14 L 195.70 84.05 L 194.53 83.90 L 193.38 83.71 L 192.27 83.47 L 191.20 83.19 L 190.18 82.87 L 189.21 82.51 L 188.31 82.11 L 187.47 81.67 L 186.71 81.20 L 186.02 80.71 L 185.42 80.18 L 184.90 79.64 L 184.47 79.07 L 184.14 78.49 L 183.90 77.90 L 183.75 77.30 L 183.70 76.70 L 183.70 68.04 L 183.71 67.88 L 183.71 67.76 L 183.74 67.62 L 183.75 67.44 L 183.82 67.17 L 183.84 67.02 L 183.87 66.94 L 183.90 66.84 L 184.09 66.37 L 184.12 66.28 L 184.13 66.27 L 184.14 66.25 L 184.47 65.67 L 184.52 65.61 L 184.54 65.56 L 184.65 65.43 L 184.90 65.10 L 185.03 64.96 L 185.11 64.87 L 185.23 64.75 L 185.42 64.56 L 185.67 64.34 L 185.81 64.21 L 185.90 64.14 L 186.02 64.03 L 186.48 63.70 L 186.63 63.59 L 186.67 63.56 L 186.71 63.53 L 187.47 63.07 L 187.53 63.04 L 187.58 63.01 L 187.79 62.90 L 188.31 62.63 L 188.50 62.55 L 188.63 62.48 L 188.85 62.39 L 189.21 62.23 L 189.58 62.09 L 189.79 62.01 L 189.95 61.95 L 190.18 61.87 L 190.79 61.68 L 191.04 61.59 L 191.12 61.57 L 191.20 61.55 L 192.27 61.27 L 192.31 61.26 L 192.36 61.24 L 192.61 61.19 L 193.38 61.03 L 193.60 60.99 L 193.75 60.96 L 194.02 60.92 L 194.53 60.84 L 194.92 60.79 L 195.18 60.75 L 195.39 60.73 L 195.70 60.69 L 196.33 60.64 L 196.65 60.61 L 196.77 60.61 L 196.89 60.60 L 198.09 60.55 L 198.12 60.55 L 198.14 60.55 L 198.30 60.55 L 199.30 60.55 L 199.47 60.55 L 199.63 60.55 L 199.98 60.58 L 200.51 60.60 L 200.86 60.62 L 201.12 60.64 L 201.35 60.66 L 201.70 60.69 L 202.15 60.75 L 177.94 48.65 L 177.96 48.70 L 178.01 48.79 L 178.06 48.93 L 178.15 49.16 L 178.21 49.39 L 178.25 49.52 L 178.26 49.62 L 178.30 49.76 L 178.33 50.14 L 178.34 50.27 L 178.34 50.31 L 178.35 50.37 L 178.35 59.02 L 178.30 59.63 L 178.15 60.23 L 177.91 60.82 L 177.57 61.40 L 177.15 61.96 L 176.63 62.51 L 176.03 63.03 L 175.34 63.53 L 174.57 64.00 L 173.74 64.43 L 172.83 64.83 L 171.87 65.19 L 170.85 65.52 L 169.78 65.80 L 168.67 66.03 L 167.52 66.23 L 166.35 66.37 L 165.16 66.47 L 163.95 66.52 L 162.75 66.52 L 161.54 66.47 L 160.35 66.37 L 159.18 66.23 L 158.03 66.03 L 156.92 65.80 L 155.85 65.52 L 154.83 65.19 L 153.86 64.83 L 152.96 64.43 L 152.12 64.00 L 151.36 63.53 L 150.67 63.03 L 150.07 62.51 L 149.55 61.96 L 149.12 61.40 L 148.79 60.82 L 148.55 60.23 L 148.40 59.63 L 148.35 59.02 L 148.35 50.37 L 148.37 50.20 L 148.36 50.09 L 148.38 49.96 L 148.40 49.76 L 148.47 49.48 L 148.49 49.34 L 148.52 49.27 L 148.55 49.16 L 148.74 48.69 L 148.77 48.60 L 148.78 48.59 L 148.79 48.57 L 149.12 47.99 L 149.16 47.94 L 149.19 47.89 L 149.31 47.74 L 149.55 47.43 L 149.68 47.30 L 149.76 47.20 L 149.88 47.08 L 150.07 46.88 L 150.32 46.66 L 150.46 46.53 L 150.55 46.46 L 150.67 46.36 L 151.13 46.03 L 151.28 45.91 L 151.32 45.89 L 151.36 45.86 L 152.12 45.39 L 152.20 45.35 L 152.23 45.33 L 152.38 45.26 L 152.96 44.96 L 153.16 44.87 L 153.29 44.80 L 153.50 44.72 L 153.86 44.56 L 154.24 44.42 L 154.44 44.33 L 154.61 44.28 L 154.83 44.19 L 155.43 44.00 L 155.69 43.92 L 155.76 43.90 L 155.85 43.87 L 156.92 43.59 L 156.98 43.58 L 157.01 43.57 L 157.20 43.53 L 158.03 43.35 L 158.23 43.32 L 158.40 43.29 L 158.68 43.24 L 159.18 43.16 L 159.59 43.11 L 159.83 43.08 L 160.03 43.06 L 160.35 43.02 L 161.02 42.96 L 161.30 42.94 L 161.40 42.93 L 161.54 42.92 L 162.75 42.87 L 162.79 42.87 L 163.95 42.87 L 164.16 42.88 L 164.28 42.88 L 164.56 42.90 L 165.16 42.92 L 165.54 42.95 L 165.77 42.97 L 165.99 42.99 L 166.35 43.02 L 166.80 43.07 L 142.59 30.97 L 142.61 31.02 L 142.66 31.11 L 142.71 31.26 L 142.80 31.49 L 142.86 31.71 L 142.90 31.85 L 142.91 31.95 L 142.95 32.09 L 142.98 32.45 L 143.00 32.60 L 142.99 32.64 L 143.00 32.69 L 143.00 41.35 L 142.95 41.95 L 142.80 42.55 L 142.56 43.14 L 142.23 43.72 L 141.80 44.29 L 141.28 44.83 L 140.68 45.36 L 139.99 45.85 L 139.23 46.32 L 138.39 46.76 L 137.49 47.16 L 136.52 47.52 L 135.50 47.84 L 134.43 48.12 L 133.32 48.36 L 132.17 48.55 L 131.00 48.70 L 129.81 48.79 L 128.60 48.84 L 127.40 48.84 L 126.19 48.79 L 125.00 48.70 L 123.83 48.55 L 122.68 48.36 L 121.57 48.12 L 120.56 47.86 Z M 151.36 98.88 L 150.67 98.38 L 150.07 97.86 L 149.55 97.31 L 149.12 96.75 L 148.79 96.17 L 148.55 95.58 L 148.40 94.98 L 148.35 94.37 L 148.35 89.55 L 148.35 85.71 L 148.37 85.55 L 148.36 85.43 L 148.38 85.31 L 148.40 85.11 L 148.47 84.83 L 148.49 84.69 L 148.52 84.62 L 148.55 84.51 L 148.74 84.04 L 148.77 83.95 L 148.78 83.94 L 148.79 83.92 L 149.12 83.34 L 149.16 83.29 L 149.19 83.24 L 149.31 83.09 L 149.55 82.78 L 149.68 82.64 L 149.76 82.55 L 149.88 82.42 L 150.07 82.23 L 150.32 82.01 L 150.46 81.88 L 150.55 81.81 L 150.67 81.71 L 151.13 81.38 L 151.28 81.26 L 151.32 81.24 L 151.36 81.21 L 152.12 80.74 L 152.19 80.71 L 152.23 80.68 L 152.41 80.59 L 152.96 80.31 L 153.15 80.22 L 153.29 80.15 L 153.52 80.06 L 153.86 79.91 L 154.22 79.77 L 154.44 79.68 L 154.61 79.62 L 154.83 79.54 L 155.43 79.35 L 155.69 79.27 L 155.76 79.25 L 155.85 79.22 L 156.92 78.94 L 156.96 78.93 L 157.01 78.92 L 157.28 78.86 L 158.03 78.70 L 158.23 78.67 L 158.40 78.64 L 158.71 78.59 L 159.18 78.51 L 159.56 78.46 L 159.83 78.42 L 160.04 78.41 L 160.35 78.37 L 161.02 78.31 L 161.30 78.29 L 161.40 78.28 L 161.54 78.27 L 162.75 78.22 L 162.76 78.22 L 162.79 78.22 L 162.95 78.22 L 163.95 78.22 L 164.13 78.23 L 164.28 78.23 L 164.59 78.25 L 165.16 78.27 L 165.54 78.30 L 165.77 78.31 L 165.99 78.34 L 166.35 78.37 L 166.92 78.44 L 167.23 78.47 L 167.37 78.49 L 167.52 78.51 L 168.51 78.68 L 168.65 78.70 L 168.67 78.70 L 168.70 78.71 L 169.78 78.94 L 169.90 78.97 L 170.02 79.00 L 170.31 79.08 L 170.85 79.22 L 171.14 79.31 L 171.33 79.36 L 171.53 79.44 L 171.87 79.54 L 172.31 79.71 L 172.55 79.79 L 172.67 79.84 L 172.83 79.91 L 173.53 80.21 L 173.69 80.28 L 173.71 80.29 L 173.74 80.31 L 174.57 80.74 L 174.65 80.79 L 174.72 80.82 L 174.90 80.94 L 175.34 81.21 L 175.51 81.34 L 175.63 81.41 L 175.77 81.52 L 176.03 81.71 L 176.28 81.93 L 176.43 82.05 L 176.50 82.12 L 176.63 82.23 L 176.99 82.61 L 177.09 82.72 L 177.11 82.74 L 177.15 82.78 L 177.57 83.34 L 177.60 83.38 L 177.62 83.42 L 177.69 83.54 L 177.91 83.92 L 177.96 84.05 L 178.01 84.14 L 178.06 84.28 L 178.15 84.51 L 178.21 84.74 L 178.25 84.88 L 178.26 84.97 L 178.30 85.11 L 178.33 85.49 L 178.34 85.62 L 178.34 85.66 L 178.35 85.71 L 178.35 94.37 L 178.30 94.98 L 178.15 95.58 L 177.91 96.17 L 177.57 96.75 L 177.15 97.31 L 176.63 97.86 L 176.03 98.38 L 175.34 98.88 L 174.57 99.34 L 173.74 99.78 L 172.83 100.18 L 171.87 100.54 L 170.85 100.87 L 169.78 101.15 L 168.67 101.38 L 167.52 101.58 L 166.35 101.72 L 165.16 101.82 L 163.95 101.87 L 162.75 101.87 L 161.54 101.82 L 160.35 101.72 L 159.18 101.58 L 158.03 101.38 L 156.92 101.15 L 155.91 100.88 L 155.90 100.88 L 155.85 100.87 L 154.83 100.54 L 153.86 100.18 L 152.96 99.78 L 152.12 99.34 Z M 141.28 80.18 L 140.68 80.71 L 139.99 81.20 L 139.23 81.67 L 138.39 82.11 L 137.49 82.51 L 136.52 82.87 L 135.50 83.19 L 134.43 83.47 L 133.32 83.71 L 132.17 83.90 L 131.00 84.05 L 129.81 84.14 L 128.60 84.19 L 127.40 84.19 L 126.19 84.14 L 125.00 84.05 L 123.83 83.90 L 122.68 83.71 L 121.57 83.47 L 120.50 83.19 L 119.48 82.87 L 118.52 82.51 L 117.61 82.11 L 116.77 81.67 L 116.01 81.20 L 115.32 80.71 L 114.72 80.18 L 114.20 79.64 L 113.77 79.07 L 113.44 78.49 L 113.20 77.90 L 113.05 77.30 L 113.00 76.70 L 113.00 68.04 L 113.02 67.88 L 113.01 67.76 L 113.04 67.63 L 113.05 67.44 L 113.12 67.17 L 113.14 67.02 L 113.17 66.94 L 113.20 66.84 L 113.39 66.38 L 113.42 66.28 L 113.43 66.27 L 113.44 66.25 L 113.77 65.67 L 113.82 65.61 L 113.84 65.56 L 113.95 65.43 L 114.20 65.10 L 114.33 64.96 L 114.41 64.87 L 114.53 64.76 L 114.72 64.56 L 114.97 64.34 L 115.11 64.21 L 115.20 64.14 L 115.32 64.03 L 115.80 63.69 L 115.93 63.59 L 115.97 63.57 L 116.01 63.53 L 116.77 63.07 L 116.84 63.03 L 116.88 63.01 L 117.07 62.91 L 117.61 62.63 L 117.81 62.55 L 117.94 62.48 L 118.16 62.39 L 118.52 62.23 L 118.88 62.10 L 119.09 62.01 L 119.26 61.95 L 119.48 61.87 L 120.10 61.67 L 120.34 61.59 L 120.42 61.57 L 120.50 61.55 L 121.57 61.27 L 121.61 61.26 L 121.66 61.24 L 121.91 61.19 L 122.68 61.03 L 122.91 60.99 L 123.05 60.96 L 123.32 60.92 L 123.83 60.84 L 124.23 60.79 L 124.48 60.75 L 124.69 60.73 L 125.00 60.69 L 125.63 60.64 L 125.95 60.61 L 126.07 60.61 L 126.19 60.60 L 127.40 60.55 L 127.42 60.55 L 127.44 60.55 L 127.61 60.55 L 128.60 60.55 L 128.78 60.55 L 128.93 60.55 L 129.02 60.56 L 129.28 60.57 L 129.81 60.60 L 130.16 60.62 L 130.42 60.64 L 130.65 60.66 L 131.00 60.69 L 131.57 60.76 L 131.88 60.80 L 132.01 60.82 L 132.17 60.84 L 133.31 61.03 L 133.32 61.03 L 134.43 61.27 L 134.57 61.30 L 134.68 61.33 L 134.94 61.40 L 135.50 61.55 L 135.77 61.63 L 135.98 61.69 L 136.20 61.77 L 136.52 61.87 L 136.95 62.03 L 137.20 62.12 L 137.32 62.17 L 137.49 62.23 L 138.19 62.54 L 138.34 62.61 L 138.36 62.62 L 138.39 62.63 L 139.23 63.07 L 139.30 63.11 L 139.37 63.15 L 139.56 63.27 L 139.99 63.53 L 140.16 63.66 L 140.28 63.74 L 140.42 63.85 L 140.68 64.03 L 140.93 64.25 L 141.08 64.37 L 141.16 64.45 L 141.28 64.56 L 141.64 64.93 L 141.75 65.04 L 141.77 65.07 L 141.80 65.10 L 142.23 65.67 L 142.25 65.71 L 142.28 65.74 L 142.34 65.87 L 142.56 66.25 L 142.61 66.37 L 142.66 66.46 L 142.71 66.61 L 142.80 66.84 L 142.86 67.06 L 142.90 67.20 L 142.91 67.30 L 142.95 67.44 L 142.98 67.80 L 143.00 67.95 L 142.99 67.99 L 143.00 68.04 L 143.00 76.70 L 142.95 77.30 L 142.80 77.90 L 142.56 78.49 L 142.23 79.07 L 141.80 79.64 L 141.76 79.67 Z M 104.02 45.47 L 104.17 45.57 L 104.64 45.86 L 104.81 45.98 L 104.94 46.06 L 105.08 46.18 L 105.33 46.36 L 105.58 46.58 L 105.73 46.70 L 105.81 46.77 L 105.93 46.88 L 106.27 47.24 L 106.40 47.37 L 106.42 47.40 L 106.45 47.43 L 106.88 47.99 L 106.90 48.03 L 106.93 48.07 L 107.00 48.20 L 107.21 48.57 L 107.26 48.70 L 107.31 48.79 L 107.36 48.93 L 107.45 49.16 L 107.51 49.39 L 107.55 49.52 L 107.57 49.62 L 107.60 49.76 L 107.63 50.13 L 107.65 50.27 L 107.64 50.31 L 107.65 50.37 L 107.65 59.02 L 107.60 59.63 L 107.45 60.23 L 107.21 60.82 L 106.88 61.40 L 106.45 61.96 L 105.93 62.51 L 105.33 63.03 L 104.64 63.53 L 103.88 64.00 L 103.04 64.43 L 102.14 64.83 L 101.17 65.19 L 100.15 65.52 L 99.08 65.80 L 97.97 66.03 L 96.82 66.23 L 95.65 66.37 L 94.46 66.47 L 93.25 66.52 L 92.05 66.52 L 90.84 66.47 L 89.65 66.37 L 88.48 66.23 L 87.33 66.03 L 86.22 65.80 L 85.15 65.52 L 84.13 65.19 L 83.17 64.83 L 82.26 64.43 L 81.42 64.00 L 80.66 63.53 L 79.97 63.03 L 79.37 62.51 L 78.85 61.96 L 78.42 61.40 L 78.09 60.82 L 77.85 60.23 L 77.70 59.63 L 77.65 59.02 L 77.65 50.37 L 77.67 50.20 L 77.66 50.09 L 77.69 49.96 L 77.70 49.76 L 77.77 49.49 L 77.79 49.34 L 77.82 49.26 L 77.85 49.16 L 78.04 48.70 L 78.07 48.60 L 78.08 48.59 L 78.09 48.57 L 78.42 47.99 L 78.47 47.93 L 78.50 47.89 L 78.61 47.75 L 78.85 47.43 L 78.98 47.29 L 79.06 47.20 L 79.18 47.08 L 79.37 46.88 L 79.62 46.66 L 79.76 46.53 L 79.85 46.46 L 79.97 46.36 L 80.45 46.01 L 80.58 45.91 L 80.62 45.89 L 80.66 45.86 L 81.42 45.39 L 81.50 45.35 L 81.53 45.33 L 81.68 45.26 L 82.26 44.96 L 82.46 44.87 L 82.59 44.80 L 82.80 44.72 L 83.17 44.56 L 83.54 44.41 L 83.75 44.33 L 83.90 44.28 L 84.13 44.19 L 84.74 44.00 L 84.99 43.92 L 85.07 43.90 L 85.15 43.87 L 86.22 43.59 L 86.28 43.58 L 86.31 43.57 L 86.50 43.53 L 87.33 43.35 L 87.54 43.32 L 87.70 43.29 L 87.98 43.24 L 88.48 43.16 L 88.90 43.11 L 89.13 43.08 L 89.33 43.06 L 89.65 43.02 L 90.32 42.96 L 90.60 42.94 L 90.70 42.93 L 90.84 42.92 L 92.05 42.87 L 92.09 42.87 L 93.25 42.87 L 93.46 42.88 L 93.58 42.88 L 93.86 42.90 L 94.46 42.92 L 94.84 42.95 L 95.07 42.97 L 95.29 42.99 L 95.65 43.02 L 96.26 43.09 L 96.53 43.12 L 96.64 43.14 L 96.82 43.16 L 97.83 43.33 L 97.96 43.35 L 97.97 43.35 L 98.00 43.36 L 99.08 43.59 L 99.22 43.63 L 99.33 43.65 L 99.58 43.72 L 100.15 43.87 L 100.44 43.96 L 100.63 44.02 L 100.84 44.09 L 101.17 44.19 L 101.59 44.35 L 101.86 44.44 L 101.97 44.50 L 102.14 44.56 L 102.84 44.87 L 102.99 44.93 L 103.01 44.94 L 103.04 44.96 L 103.88 45.39 L 103.97 45.45 Z M 115.77 72.37 L 115.77 72.37 L 116.01 72.54 L 116.09 72.59 Z M 116.99 73.12 L 116.37 72.76 L 116.77 73.01 Z M 117.61 38.10 L 118.01 38.27 L 117.32 37.95 Z M 137.50 38.49 L 138.39 38.10 L 138.51 38.04 Z M 119.23 38.77 L 118.34 38.42 L 118.52 38.50 Z M 137.50 38.49 L 136.38 38.91 L 136.52 38.86 L 137.49 38.50 Z M 119.43 38.84 L 119.48 38.86 L 120.50 39.18 L 120.58 39.21 Z M 135.50 39.18 L 136.04 39.01 L 135.21 39.26 Z M 121.83 39.52 L 120.95 39.30 L 121.57 39.47 Z M 134.77 39.38 L 133.93 39.57 L 134.43 39.47 Z M 122.68 39.70 L 123.13 39.78 L 122.25 39.61 Z M 133.51 39.66 L 132.43 39.85 L 133.32 39.70 Z M 124.63 39.99 L 123.58 39.85 L 123.83 39.89 Z M 130.86 40.05 L 131.00 40.04 L 132.17 39.89 L 132.21 39.89 Z M 125.00 40.04 L 126.19 40.13 L 126.25 40.14 L 124.90 40.02 Z M 130.52 40.08 L 129.54 40.15 L 129.81 40.13 Z M 127.40 40.18 L 127.62 40.18 L 126.62 40.15 Z M 128.60 40.18 L 129.01 40.17 L 128.13 40.18 Z M 118.01 73.62 L 117.32 73.30 L 117.61 73.45 Z M 137.79 73.71 L 137.58 73.81 L 137.79 73.71 L 138.39 73.45 L 138.51 73.39 Z M 119.23 74.12 L 118.34 73.77 L 118.52 73.85 Z M 137.48 73.85 L 136.38 74.25 L 136.52 74.21 Z M 120.60 74.56 L 119.43 74.19 L 119.48 74.21 L 120.50 74.53 Z M 135.19 74.61 L 135.50 74.53 L 136.06 74.36 Z M 120.92 74.64 L 121.57 74.81 L 121.81 74.86 Z M 134.78 74.72 L 133.93 74.92 L 134.43 74.81 Z M 123.13 75.12 L 122.28 74.97 L 122.68 75.05 Z M 133.51 75.01 L 132.43 75.20 L 133.32 75.05 Z M 123.59 75.20 L 123.83 75.24 L 124.55 75.33 Z M 130.88 75.40 L 131.00 75.39 L 132.17 75.24 L 132.21 75.24 Z M 126.28 75.49 L 124.92 75.38 L 125.00 75.39 L 126.19 75.48 Z M 129.51 75.50 L 129.81 75.48 L 130.49 75.43 Z M 126.54 75.50 L 127.40 75.53 L 127.62 75.53 Z M 129.02 75.52 L 128.13 75.53 L 128.60 75.53 Z M 139.76 37.34 L 139.99 37.20 L 140.23 37.02 L 140.23 37.02 Z M 139.44 37.53 L 138.81 37.88 L 139.23 37.66 Z M 151.36 54.87 L 151.45 54.92 L 151.12 54.69 L 151.12 54.70 Z M 152.34 55.45 L 151.70 55.08 L 152.12 55.34 Z M 153.35 55.95 L 152.68 55.63 L 152.96 55.77 Z M 153.69 56.10 L 153.86 56.17 L 154.53 56.42 Z M 155.95 56.88 L 154.80 56.52 L 154.83 56.54 L 155.85 56.86 Z M 157.18 57.20 L 156.24 56.96 L 156.92 57.14 Z M 170.12 57.05 L 169.30 57.24 L 169.78 57.14 Z M 158.49 57.45 L 157.62 57.29 L 158.03 57.38 Z M 167.80 57.52 L 168.67 57.38 L 168.84 57.34 Z M 158.92 57.52 L 159.18 57.57 L 159.93 57.66 Z M 167.52 57.57 L 167.56 57.56 L 166.23 57.72 L 166.35 57.71 Z M 161.54 57.81 L 161.60 57.81 L 160.27 57.70 L 160.35 57.71 Z M 165.84 57.75 L 164.85 57.82 L 165.16 57.81 Z M 161.95 57.83 L 162.75 57.86 L 163.00 57.86 Z M 163.43 57.86 L 163.95 57.86 L 164.40 57.84 Z M 140.23 72.37 L 140.23 72.37 L 139.76 72.68 L 139.99 72.54 Z M 139.44 72.88 L 138.81 73.23 L 139.23 73.01 Z M 151.36 90.22 L 151.45 90.27 L 151.12 90.04 L 151.12 90.04 Z M 152.12 90.69 L 152.34 90.80 L 151.70 90.43 Z M 153.35 91.30 L 152.68 90.98 L 152.96 91.12 Z M 154.58 91.79 L 153.69 91.45 L 153.86 91.52 Z M 154.83 91.89 L 155.85 92.21 L 155.95 92.23 L 154.78 91.87 Z M 156.92 92.49 L 157.19 92.55 L 156.24 92.31 Z M 169.78 92.49 L 170.12 92.40 L 169.28 92.60 Z M 158.48 92.80 L 157.60 92.63 L 158.03 92.73 Z M 168.86 92.69 L 167.77 92.88 L 168.67 92.73 Z M 159.18 92.92 L 159.91 93.01 L 158.94 92.88 Z M 166.35 93.06 L 167.52 92.92 L 167.56 92.91 L 166.23 93.07 Z M 160.35 93.06 L 161.54 93.16 L 161.60 93.16 L 160.27 93.05 Z M 165.84 93.10 L 164.85 93.17 L 165.16 93.16 Z M 163.00 93.21 L 161.95 93.17 L 162.75 93.21 Z M 163.95 93.21 L 164.40 93.19 L 163.43 93.21 Z M 175.34 54.87 L 175.58 54.70 L 175.58 54.69 L 175.10 55.02 Z M 174.81 55.20 L 174.15 55.56 L 174.57 55.34 Z M 172.84 56.17 L 173.74 55.77 L 173.86 55.71 Z M 171.74 56.58 L 171.87 56.54 L 172.83 56.17 L 172.84 56.17 Z M 171.37 56.69 L 170.56 56.93 L 170.85 56.86 Z M 186.79 72.59 L 186.47 72.37 L 186.47 72.37 L 186.71 72.54 Z M 210.46 72.68 L 210.69 72.54 L 210.93 72.37 L 210.93 72.37 Z M 187.47 73.01 L 187.69 73.13 L 187.08 72.77 Z M 209.92 73.01 L 210.14 72.88 L 209.51 73.23 Z M 188.01 73.29 L 188.31 73.45 L 188.72 73.63 Z M 208.32 73.79 L 209.09 73.45 L 209.21 73.39 Z M 189.04 73.77 L 189.21 73.85 L 189.93 74.12 Z M 207.22 74.21 L 208.13 73.87 L 207.08 74.25 Z M 191.29 74.56 L 190.13 74.19 L 190.18 74.21 L 191.20 74.53 Z M 205.89 74.61 L 206.20 74.53 L 206.76 74.36 Z M 191.63 74.65 L 192.27 74.81 L 192.51 74.86 Z M 204.62 74.92 L 205.13 74.81 L 205.48 74.72 Z M 193.38 75.05 L 193.82 75.12 L 192.98 74.97 Z M 204.02 75.05 L 204.21 75.01 L 203.12 75.20 Z M 194.29 75.20 L 194.53 75.24 L 195.25 75.33 Z M 202.87 75.24 L 202.91 75.24 L 201.58 75.40 L 201.70 75.39 Z M 196.89 75.48 L 196.97 75.49 L 195.62 75.38 L 195.70 75.39 Z M 200.51 75.48 L 201.18 75.43 L 200.21 75.50 Z M 198.09 75.53 L 198.32 75.53 L 197.24 75.50 Z M 198.83 75.53 L 199.30 75.53 L 199.72 75.52 Z M 175.34 90.22 L 175.58 90.04 L 175.58 90.04 L 175.10 90.37 Z M 174.81 90.55 L 174.17 90.90 L 174.57 90.69 Z M 173.85 91.06 L 172.84 91.52 L 173.74 91.12 Z M 171.72 91.93 L 171.87 91.89 L 172.83 91.52 L 172.84 91.52 Z M 171.40 92.03 L 170.56 92.28 L 170.85 92.21 Z" fill="#ff220c" fill-rule="evenodd" stroke="#ff220c" stroke-width="0.8"/>
<path d="M 42.35 41.95 L 42.50 42.55 L 42.74 43.14 L 43.08 43.72 L 43.50 44.29 L 44.02 44.83 L 44.63 45.36 L 45.31 45.85 L 46.08 46.32 L 46.91 46.76 L 47.82 47.16 L 48.78 47.52 L 49.80 47.84 L 50.87 48.12 L 51.98 48.36 L 53.13 48.55 L 54.30 48.70 L 55.49 48.79 L 56.70 48.84 L 57.91 48.84 L 59.11 48.79 L 60.30 48.70 L 61.47 48.55 L 62.62 48.36 L 63.73 48.12 L 64.80 47.84 L 65.82 47.52 L 66.79 47.16 L 67.69 46.76 L 68.53 46.32 L 69.29 45.85 L 69.98 45.36 L 70.58 44.83 L 71.10 44.29 L 71.53 43.72 L 71.86 43.14 L 72.11 42.55 L 72.25 41.95 L 72.30 41.35 L 72.30 32.69 L 72.25 33.29 L 72.24 33.32 L 72.24 33.34 L 72.21 33.47 L 72.11 33.89 L 72.06 34.00 L 72.04 34.09 L 71.96 34.24 L 71.86 34.48 L 71.75 34.68 L 71.69 34.81 L 71.61 34.92 L 71.53 35.06 L 71.30 35.37 L 71.19 35.52 L 71.15 35.56 L 71.10 35.63 L 70.58 36.17 L 70.57 36.19 L 70.56 36.19 L 70.49 36.25 L 69.98 36.70 L 69.87 36.77 L 69.80 36.84 L 69.61 36.96 L 69.29 37.20 L 69.07 37.33 L 68.91 37.44 L 68.73 37.53 L 68.53 37.66 L 68.11 37.88 L 67.91 37.99 L 67.82 38.03 L 67.69 38.10 L 66.80 38.49 L 66.79 38.50 L 65.82 38.86 L 65.68 38.91 L 65.59 38.94 L 65.34 39.02 L 64.80 39.18 L 64.51 39.26 L 64.31 39.32 L 64.08 39.38 L 63.73 39.47 L 63.22 39.57 L 62.95 39.64 L 62.82 39.66 L 62.62 39.70 L 61.72 39.85 L 61.54 39.88 L 61.51 39.89 L 61.47 39.89 L 60.30 40.04 L 60.16 40.05 L 60.09 40.06 L 59.82 40.08 L 59.11 40.13 L 58.84 40.15 L 58.61 40.16 L 58.31 40.17 L 57.91 40.18 L 57.44 40.18 L 57.12 40.19 L 56.92 40.18 L 56.70 40.18 L 55.92 40.15 L 55.62 40.14 L 55.55 40.14 L 55.49 40.13 L 54.30 40.04 L 54.20 40.02 L 54.15 40.02 L 53.93 39.99 L 53.13 39.89 L 52.88 39.85 L 52.70 39.83 L 52.44 39.78 L 51.98 39.70 L 51.55 39.61 L 51.30 39.56 L 51.13 39.52 L 50.87 39.47 L 50.26 39.30 L 49.97 39.23 L 49.88 39.20 L 49.80 39.18 L 48.78 38.86 L 48.73 38.84 L 48.70 38.83 L 48.53 38.77 L 47.82 38.50 L 47.65 38.42 L 47.52 38.37 L 47.31 38.27 L 46.91 38.10 L 46.62 37.95 L 46.44 37.86 L 46.30 37.78 L 46.08 37.66 L 45.65 37.40 L 45.46 37.29 L 45.40 37.25 L 45.31 37.20 L 44.63 36.70 L 44.62 36.69 L 44.60 36.68 L 44.53 36.61 L 44.02 36.17 L 43.94 36.09 L 43.87 36.03 L 43.76 35.90 L 43.50 35.63 L 43.37 35.45 L 43.27 35.34 L 43.20 35.23 L 43.08 35.06 L 42.91 34.78 L 42.81 34.63 L 42.79 34.57 L 42.74 34.48 L 42.50 33.90 L 42.50 33.89 L 42.35 33.29 L 42.35 33.22 L 42.33 33.16 L 42.33 33.00 L 42.30 32.69 L 42.30 41.35 Z" fill="url(#g2)" fill-rule="evenodd" stroke="url(#g2)" stroke-width="0.8"/>
<path d="M 69.80 36.84 L 70.56 36.19 L 71.19 35.52 L 71.69 34.81 L 72.04 34.09 L 72.24 33.34 L 72.30 32.60 L 72.20 31.85 L 71.96 31.11 L 71.58 30.39 L 71.05 29.69 L 70.38 29.02 L 69.59 28.39 L 68.67 27.80 L 67.64 27.26 L 66.50 26.77 L 65.28 26.34 L 63.98 25.98 L 62.61 25.68 L 61.18 25.45 L 59.72 25.29 L 58.24 25.21 L 56.74 25.20 L 55.25 25.26 L 53.78 25.40 L 52.35 25.61 L 50.96 25.89 L 49.64 26.24 L 48.40 26.66 L 47.24 27.13 L 46.18 27.66 L 45.23 28.24 L 44.41 28.86 L 43.71 29.52 L 43.15 30.21 L 42.72 30.93 L 42.45 31.66 L 42.31 32.41 L 42.33 33.16 L 42.50 33.90 L 42.81 34.63 L 43.27 35.34 L 43.87 36.03 L 44.60 36.68 L 45.46 37.29 L 46.44 37.86 L 47.52 38.37 L 48.70 38.83 L 49.97 39.23 L 51.30 39.56 L 52.70 39.83 L 54.15 40.02 L 55.62 40.14 L 57.12 40.19 L 58.61 40.16 L 60.09 40.06 L 61.54 39.88 L 62.95 39.64 L 64.31 39.32 L 65.59 38.94 L 66.80 38.49 L 67.91 37.99 L 68.91 37.44 Z" fill="#ff220c" fill-rule="evenodd" stroke="#ff220c" stroke-width="0.8"/>
<path d="M 77.70 24.28 L 77.85 24.88 L 78.09 25.47 L 78.42 26.05 L 78.85 26.61 L 79.37 27.16 L 79.97 27.68 L 80.66 28.18 L 81.42 28.65 L 82.26 29.08 L 83.17 29.48 L 84.13 29.85 L 85.15 30.17 L 86.22 30.45 L 87.33 30.69 L 88.48 30.88 L 89.65 31.02 L 90.84 31.12 L 92.05 31.17 L 93.25 31.17 L 94.46 31.12 L 95.65 31.02 L 96.82 30.88 L 97.97 30.69 L 99.08 30.45 L 100.15 30.17 L 101.17 29.85 L 102.14 29.48 L 103.04 29.08 L 103.88 28.65 L 104.64 28.18 L 105.33 27.68 L 105.93 27.16 L 106.45 26.61 L 106.88 26.05 L 107.21 25.47 L 107.45 24.88 L 107.60 24.28 L 107.65 23.68 L 107.65 15.02 L 107.60 15.62 L 107.59 15.65 L 107.59 15.67 L 107.56 15.77 L 107.45 16.22 L 107.41 16.33 L 107.39 16.41 L 107.31 16.56 L 107.21 16.81 L 107.10 17.00 L 107.04 17.14 L 106.96 17.25 L 106.88 17.39 L 106.65 17.69 L 106.54 17.84 L 106.50 17.89 L 106.45 17.95 L 105.93 18.50 L 105.92 18.51 L 105.91 18.52 L 105.84 18.58 L 105.33 19.02 L 105.22 19.10 L 105.15 19.16 L 104.97 19.28 L 104.64 19.52 L 104.41 19.66 L 104.26 19.76 L 104.09 19.86 L 103.88 19.99 L 103.46 20.20 L 103.26 20.32 L 103.16 20.36 L 103.04 20.42 L 102.23 20.78 L 102.15 20.82 L 102.14 20.82 L 102.13 20.83 L 101.17 21.19 L 101.05 21.23 L 100.94 21.26 L 100.66 21.35 L 100.15 21.51 L 99.86 21.59 L 99.66 21.65 L 99.42 21.70 L 99.08 21.79 L 98.56 21.90 L 98.30 21.96 L 98.17 21.98 L 97.97 22.03 L 97.07 22.18 L 96.89 22.21 L 96.86 22.21 L 96.82 22.22 L 95.65 22.36 L 95.53 22.37 L 95.44 22.38 L 95.14 22.41 L 94.46 22.46 L 94.17 22.47 L 93.96 22.49 L 93.67 22.49 L 93.25 22.51 L 92.78 22.51 L 92.46 22.51 L 92.27 22.51 L 92.05 22.51 L 91.19 22.47 L 90.97 22.47 L 90.93 22.46 L 90.84 22.46 L 89.65 22.36 L 89.57 22.35 L 89.50 22.35 L 89.20 22.31 L 88.48 22.22 L 88.24 22.18 L 88.05 22.15 L 87.78 22.10 L 87.33 22.03 L 86.92 21.94 L 86.65 21.89 L 86.48 21.84 L 86.22 21.79 L 85.55 21.61 L 85.31 21.56 L 85.25 21.54 L 85.15 21.51 L 84.13 21.19 L 84.08 21.17 L 84.05 21.16 L 83.89 21.10 L 83.17 20.82 L 83.01 20.76 L 82.87 20.70 L 82.64 20.59 L 82.26 20.42 L 81.98 20.27 L 81.78 20.18 L 81.64 20.10 L 81.42 19.99 L 81.00 19.73 L 80.81 19.62 L 80.75 19.58 L 80.66 19.52 L 79.97 19.02 L 79.96 19.01 L 79.95 19.00 L 79.92 18.97 L 79.37 18.50 L 79.28 18.41 L 79.22 18.35 L 79.11 18.22 L 78.85 17.95 L 78.72 17.78 L 78.62 17.67 L 78.55 17.55 L 78.42 17.39 L 78.26 17.11 L 78.16 16.96 L 78.14 16.89 L 78.09 16.81 L 77.87 16.27 L 77.85 16.23 L 77.85 16.22 L 77.85 16.22 L 77.70 15.62 L 77.69 15.54 L 77.68 15.48 L 77.68 15.34 L 77.65 15.02 L 77.65 23.68 Z" fill="url(#g4)" fill-rule="evenodd" stroke="url(#g4)" stroke-width="0.8"/>
<path d="M 105.15 19.16 L 105.91 18.52 L 106.54 17.84 L 107.04 17.14 L 107.39 16.41 L 107.59 15.67 L 107.65 14.92 L 107.55 14.18 L 107.31 13.44 L 106.93 12.72 L 106.40 12.02 L 105.73 11.35 L 104.94 10.71 L 104.02 10.12 L 102.99 9.58 L 101.86 9.10 L 100.63 8.67 L 99.33 8.30 L 97.96 8.00 L 96.53 7.77 L 95.07 7.62 L 93.58 7.53 L 92.09 7.52 L 90.60 7.59 L 89.13 7.73 L 87.70 7.94 L 86.31 8.22 L 84.99 8.57 L 83.75 8.98 L 82.59 9.46 L 81.53 9.98 L 80.58 10.56 L 79.76 11.19 L 79.06 11.85 L 78.50 12.54 L 78.07 13.26 L 77.79 13.99 L 77.66 14.73 L 77.68 15.48 L 77.85 16.23 L 78.16 16.96 L 78.62 17.67 L 79.22 18.35 L 79.95 19.00 L 80.81 19.62 L 81.78 20.18 L 82.87 20.70 L 84.05 21.16 L 85.31 21.56 L 86.65 21.89 L 88.05 22.15 L 89.50 22.35 L 90.97 22.47 L 92.46 22.51 L 93.96 22.49 L 95.44 22.38 L 96.89 22.21 L 98.30 21.96 L 99.66 21.65 L 100.94 21.26 L 102.15 20.82 L 103.26 20.32 L 104.26 19.76 Z" fill="#ff220c" fill-rule="evenodd" stroke="#ff220c" stroke-width="0.8"/>
<path d="M 113.05 41.95 L 113.20 42.55 L 113.44 43.14 L 113.77 43.72 L 114.20 44.29 L 114.72 44.83 L 115.32 45.36 L 116.01 45.85 L 116.77 46.32 L 117.61 46.76 L 118.52 47.16 L 119.48 47.52 L 120.50 47.84 L 121.57 48.12 L 122.68 48.36 L 123.83 48.55 L 125.00 48.70 L 126.19 48.79 L 127.40 48.84 L 128.60 48.84 L 129.81 48.79 L 131.00 48.70 L 132.17 48.55 L 133.32 48.36 L 134.43 48.12 L 135.50 47.84 L 136.52 47.52 L 137.49 47.16 L 138.39 46.76 L 139.23 46.32 L 139.99 45.85 L 140.68 45.36 L 141.28 44.83 L 141.80 44.29 L 142.23 43.72 L 142.56 43.14 L 142.80 42.55 L 142.95 41.95 L 143.00 41.35 L 143.00 32.69 L 142.95 33.29 L 142.94 33.33 L 142.94 33.34 L 142.91 33.45 L 142.80 33.89 L 142.76 34.00 L 142.74 34.09 L 142.66 34.23 L 142.56 34.48 L 142.44 34.69 L 142.38 34.81 L 142.32 34.91 L 142.23 35.06 L 141.99 35.38 L 141.89 35.52 L 141.85 35.56 L 141.80 35.63 L 141.28 36.17 L 141.26 36.19 L 141.26 36.19 L 141.22 36.22 L 140.68 36.70 L 140.57 36.78 L 140.50 36.84 L 140.31 36.96 L 139.99 37.20 L 139.76 37.34 L 139.61 37.44 L 139.44 37.53 L 139.23 37.66 L 138.81 37.88 L 138.60 37.99 L 138.51 38.04 L 138.39 38.10 L 137.50 38.49 L 137.49 38.50 L 136.52 38.86 L 136.38 38.91 L 136.29 38.94 L 136.04 39.01 L 135.50 39.18 L 135.21 39.26 L 135.01 39.32 L 134.77 39.38 L 134.43 39.47 L 133.93 39.57 L 133.65 39.64 L 133.51 39.66 L 133.32 39.70 L 132.43 39.85 L 132.24 39.88 L 132.21 39.89 L 132.17 39.89 L 131.00 40.04 L 130.86 40.05 L 130.79 40.06 L 130.52 40.08 L 129.81 40.13 L 129.54 40.15 L 129.31 40.16 L 129.01 40.17 L 128.60 40.18 L 128.13 40.18 L 127.81 40.19 L 127.62 40.18 L 127.40 40.18 L 126.62 40.15 L 126.32 40.14 L 126.25 40.14 L 126.19 40.13 L 125.00 40.04 L 124.90 40.02 L 124.84 40.02 L 124.63 39.99 L 123.83 39.89 L 123.58 39.85 L 123.40 39.83 L 123.13 39.78 L 122.68 39.70 L 122.25 39.61 L 122.00 39.56 L 121.83 39.52 L 121.57 39.47 L 120.95 39.30 L 120.66 39.23 L 120.58 39.21 L 120.50 39.18 L 119.48 38.86 L 119.43 38.84 L 119.40 38.83 L 119.23 38.77 L 118.52 38.50 L 118.34 38.42 L 118.22 38.37 L 118.01 38.27 L 117.61 38.10 L 117.32 37.95 L 117.13 37.86 L 116.99 37.78 L 116.77 37.66 L 116.34 37.40 L 116.16 37.29 L 116.10 37.25 L 116.01 37.20 L 115.32 36.70 L 115.31 36.69 L 115.30 36.68 L 115.23 36.61 L 114.72 36.17 L 114.64 36.09 L 114.57 36.03 L 114.45 35.89 L 114.20 35.63 L 114.07 35.46 L 113.97 35.34 L 113.90 35.23 L 113.77 35.06 L 113.60 34.77 L 113.51 34.63 L 113.49 34.57 L 113.44 34.48 L 113.21 33.94 L 113.20 33.90 L 113.20 33.90 L 113.20 33.89 L 113.05 33.29 L 113.05 33.21 L 113.03 33.16 L 113.03 33.01 L 113.00 32.69 L 113.00 41.35 Z" fill="url(#g6)" fill-rule="evenodd" stroke="url(#g6)" stroke-width="0.8"/>
<path d="M 140.50 36.84 L 141.26 36.19 L 141.89 35.52 L 142.38 34.81 L 142.74 34.09 L 142.94 33.34 L 143.00 32.60 L 142.90 31.85 L 142.66 31.11 L 142.28 30.39 L 141.75 29.69 L 141.08 29.02 L 140.28 28.39 L 139.37 27.80 L 138.34 27.26 L 137.20 26.77 L 135.98 26.34 L 134.68 25.98 L 133.31 25.68 L 131.88 25.45 L 130.42 25.29 L 128.93 25.21 L 127.44 25.20 L 125.95 25.26 L 124.48 25.40 L 123.05 25.61 L 121.66 25.89 L 120.34 26.24 L 119.09 26.66 L 117.94 27.13 L 116.88 27.66 L 115.93 28.24 L 115.11 28.86 L 114.41 29.52 L 113.84 30.21 L 113.42 30.93 L 113.14 31.66 L 113.01 32.41 L 113.03 33.16 L 113.20 33.90 L 113.51 34.63 L 113.97 35.34 L 114.57 36.03 L 115.30 36.68 L 116.16 37.29 L 117.13 37.86 L 118.22 38.37 L 119.40 38.83 L 120.66 39.23 L 122.00 39.56 L 123.40 39.83 L 124.84 40.02 L 126.32 40.14 L 127.81 40.19 L 129.31 40.16 L 130.79 40.06 L 132.24 39.88 L 133.65 39.64 L 135.01 39.32 L 136.29 38.94 L 137.50 38.49 L 138.60 37.99 L 139.61 37.44 Z" fill="#ff220c" fill-rule="evenodd" stroke="#ff220c" stroke-width="0.8"/>
<path d="M 148.40 59.63 L 148.55 60.23 L 148.79 60.82 L 149.12 61.40 L 149.55 61.96 L 150.07 62.51 L 150.67 63.03 L 151.36 63.53 L 152.12 64.00 L 152.96 64.43 L 153.86 64.83 L 154.83 65.19 L 155.85 65.52 L 156.92 65.80 L 158.03 66.03 L 159.18 66.23 L 160.35 66.37 L 161.54 66.47 L 162.75 66.52 L 163.95 66.52 L 165.16 66.47 L 166.35 66.37 L 167.52 66.23 L 168.67 66.03 L 169.78 65.80 L 170.85 65.52 L 171.87 65.19 L 172.83 64.83 L 173.74 64.43 L 174.57 64.00 L 175.34 63.53 L 176.03 63.03 L 176.63 62.51 L 177.15 61.96 L 177.57 61.40 L 177.91 60.82 L 178.15 60.23 L 178.30 59.63 L 178.35 59.02 L 178.35 50.37 L 178.30 50.97 L 178.29 51.00 L 178.29 51.02 L 178.26 51.12 L 178.15 51.57 L 178.11 51.68 L 178.09 51.76 L 178.02 51.90 L 177.91 52.16 L 177.79 52.36 L 177.73 52.49 L 177.67 52.58 L 177.57 52.74 L 177.33 53.06 L 177.24 53.19 L 177.20 53.24 L 177.15 53.30 L 176.63 53.85 L 176.62 53.86 L 176.61 53.87 L 176.54 53.93 L 176.03 54.37 L 175.92 54.45 L 175.84 54.51 L 175.66 54.63 L 175.34 54.87 L 175.10 55.02 L 174.96 55.11 L 174.81 55.20 L 174.57 55.34 L 174.15 55.56 L 173.95 55.67 L 173.86 55.71 L 173.74 55.77 L 172.84 56.17 L 172.83 56.17 L 171.87 56.54 L 171.74 56.58 L 171.64 56.61 L 171.37 56.69 L 170.85 56.86 L 170.56 56.93 L 170.36 56.99 L 170.12 57.05 L 169.78 57.14 L 169.30 57.24 L 169.00 57.31 L 168.84 57.34 L 168.67 57.38 L 167.80 57.52 L 167.59 57.56 L 167.56 57.56 L 167.52 57.57 L 166.35 57.71 L 166.23 57.72 L 166.14 57.73 L 165.84 57.75 L 165.16 57.81 L 164.85 57.82 L 164.66 57.84 L 164.40 57.84 L 163.95 57.86 L 163.43 57.86 L 163.16 57.86 L 163.00 57.86 L 162.75 57.86 L 161.95 57.83 L 161.67 57.82 L 161.60 57.81 L 161.54 57.81 L 160.35 57.71 L 160.27 57.70 L 160.19 57.70 L 159.93 57.66 L 159.18 57.57 L 158.92 57.52 L 158.75 57.50 L 158.49 57.45 L 158.03 57.38 L 157.62 57.29 L 157.35 57.24 L 157.18 57.20 L 156.92 57.14 L 156.24 56.96 L 156.01 56.91 L 155.95 56.88 L 155.85 56.86 L 154.83 56.54 L 154.80 56.52 L 154.75 56.51 L 154.53 56.42 L 153.86 56.17 L 153.69 56.10 L 153.57 56.05 L 153.35 55.95 L 152.96 55.77 L 152.68 55.63 L 152.48 55.53 L 152.34 55.45 L 152.12 55.34 L 151.70 55.08 L 151.51 54.97 L 151.45 54.92 L 151.36 54.87 L 150.67 54.37 L 150.66 54.36 L 150.65 54.35 L 150.57 54.29 L 150.07 53.85 L 149.99 53.77 L 149.92 53.70 L 149.79 53.55 L 149.55 53.30 L 149.42 53.13 L 149.32 53.02 L 149.25 52.90 L 149.12 52.74 L 148.96 52.45 L 148.86 52.31 L 148.84 52.24 L 148.79 52.16 L 148.56 51.61 L 148.55 51.58 L 148.55 51.57 L 148.55 51.57 L 148.40 50.97 L 148.39 50.89 L 148.38 50.83 L 148.38 50.68 L 148.35 50.37 L 148.35 59.02 Z" fill="url(#g8)" fill-rule="evenodd" stroke="url(#g8)" stroke-width="0.8"/>
<path d="M 175.84 54.51 L 176.61 53.87 L 177.24 53.19 L 177.73 52.49 L 178.09 51.76 L 178.29 51.02 L 178.34 50.27 L 178.25 49.52 L 178.01 48.79 L 177.62 48.07 L 177.09 47.37 L 176.43 46.70 L 175.63 46.06 L 174.72 45.47 L 173.69 44.93 L 172.55 44.44 L 171.33 44.02 L 170.02 43.65 L 168.65 43.35 L 167.23 43.12 L 165.77 42.97 L 164.28 42.88 L 162.79 42.87 L 161.30 42.94 L 159.83 43.08 L 158.40 43.29 L 157.01 43.57 L 155.69 43.92 L 154.44 44.33 L 153.29 44.80 L 152.23 45.33 L 151.28 45.91 L 150.46 46.53 L 149.76 47.20 L 149.19 47.89 L 148.77 48.60 L 148.49 49.34 L 148.36 50.09 L 148.38 50.83 L 148.55 51.58 L 148.86 52.31 L 149.32 53.02 L 149.92 53.70 L 150.65 54.35 L 151.51 54.97 L 152.48 55.53 L 153.57 56.05 L 154.75 56.51 L 156.01 56.91 L 157.35 57.24 L 158.75 57.50 L 160.19 57.70 L 161.67 57.82 L 163.16 57.86 L 164.66 57.84 L 166.14 57.73 L 167.59 57.56 L 169.00 57.31 L 170.36 56.99 L 171.64 56.61 L 172.84 56.17 L 173.95 55.67 L 174.96 55.11 Z" fill="#ff220c" fill-rule="evenodd" stroke="#ff220c" stroke-width="0.8"/>
<path d="M 77.70 59.63 L 77.85 60.23 L 78.09 60.82 L 78.42 61.40 L 78.85 61.96 L 79.37 62.51 L 79.97 63.03 L 80.66 63.53 L 81.42 64.00 L 82.26 64.43 L 83.17 64.83 L 84.13 65.19 L 85.15 65.52 L 86.22 65.80 L 87.33 66.03 L 88.48 66.23 L 89.65 66.37 L 90.84 66.47 L 92.05 66.52 L 93.25 66.52 L 94.46 66.47 L 95.65 66.37 L 96.82 66.23 L 97.97 66.03 L 99.08 65.80 L 100.15 65.52 L 101.17 65.19 L 102.14 64.83 L 103.04 64.43 L 103.88 64.00 L 104.64 63.53 L 105.33 63.03 L 105.93 62.51 L 106.45 61.96 L 106.88 61.40 L 107.21 60.82 L 107.45 60.23 L 107.60 59.63 L 107.65 59.02 L 107.65 50.37 L 107.60 50.97 L 107.59 51.00 L 107.59 51.02 L 107.56 51.12 L 107.45 51.57 L 107.41 51.68 L 107.39 51.76 L 107.31 51.91 L 107.21 52.16 L 107.10 52.35 L 107.04 52.49 L 106.96 52.59 L 106.88 52.74 L 106.64 53.05 L 106.54 53.19 L 106.50 53.24 L 106.45 53.30 L 105.93 53.85 L 105.92 53.86 L 105.91 53.87 L 105.84 53.93 L 105.33 54.37 L 105.23 54.45 L 105.15 54.51 L 104.95 54.64 L 104.64 54.87 L 104.41 55.01 L 104.26 55.11 L 104.11 55.20 L 103.88 55.34 L 103.45 55.56 L 103.26 55.67 L 103.16 55.71 L 103.04 55.77 L 102.15 56.17 L 102.14 56.17 L 101.17 56.54 L 101.05 56.58 L 100.94 56.61 L 100.66 56.70 L 100.15 56.86 L 99.86 56.93 L 99.66 56.99 L 99.42 57.05 L 99.08 57.14 L 98.60 57.24 L 98.30 57.31 L 98.14 57.34 L 97.97 57.38 L 97.10 57.52 L 96.89 57.56 L 96.86 57.56 L 96.82 57.57 L 95.65 57.71 L 95.53 57.72 L 95.44 57.73 L 95.14 57.75 L 94.46 57.81 L 94.16 57.82 L 93.96 57.84 L 93.70 57.84 L 93.25 57.86 L 92.73 57.86 L 92.46 57.86 L 92.30 57.86 L 92.05 57.86 L 91.25 57.83 L 90.97 57.82 L 90.91 57.81 L 90.84 57.81 L 89.65 57.71 L 89.57 57.70 L 89.50 57.70 L 89.23 57.66 L 88.48 57.57 L 88.22 57.52 L 88.05 57.50 L 87.79 57.45 L 87.33 57.38 L 86.92 57.29 L 86.65 57.24 L 86.48 57.19 L 86.22 57.14 L 85.55 56.96 L 85.31 56.91 L 85.25 56.88 L 85.15 56.86 L 84.13 56.54 L 84.09 56.52 L 84.05 56.51 L 83.84 56.43 L 83.17 56.17 L 83.00 56.10 L 82.87 56.05 L 82.64 55.94 L 82.26 55.77 L 81.99 55.63 L 81.78 55.53 L 81.64 55.45 L 81.42 55.34 L 81.00 55.07 L 80.81 54.97 L 80.75 54.93 L 80.66 54.87 L 79.97 54.37 L 79.97 54.36 L 79.95 54.35 L 79.88 54.29 L 79.37 53.85 L 79.29 53.77 L 79.22 53.70 L 79.10 53.56 L 78.85 53.30 L 78.72 53.13 L 78.62 53.02 L 78.55 52.91 L 78.42 52.74 L 78.26 52.45 L 78.16 52.31 L 78.14 52.24 L 78.09 52.16 L 77.87 51.61 L 77.85 51.58 L 77.85 51.57 L 77.85 51.57 L 77.70 50.97 L 77.69 50.89 L 77.68 50.83 L 77.68 50.69 L 77.65 50.37 L 77.65 59.02 Z" fill="url(#g10)" fill-rule="evenodd" stroke="url(#g10)" stroke-width="0.8"/>
<path d="M 105.15 54.51 L 105.91 53.87 L 106.54 53.19 L 107.04 52.49 L 107.39 51.76 L 107.59 51.02 L 107.65 50.27 L 107.55 49.52 L 107.31 48.79 L 106.93 48.07 L 106.40 47.37 L 105.73 46.70 L 104.94 46.06 L 104.02 45.47 L 102.99 44.93 L 101.86 44.44 L 100.63 44.02 L 99.33 43.65 L 97.96 43.35 L 96.53 43.12 L 95.07 42.97 L 93.58 42.88 L 92.09 42.87 L 90.60 42.94 L 89.13 43.08 L 87.70 43.29 L 86.31 43.57 L 84.99 43.92 L 83.75 44.33 L 82.59 44.80 L 81.53 45.33 L 80.58 45.91 L 79.76 46.53 L 79.06 47.20 L 78.50 47.89 L 78.07 48.60 L 77.79 49.34 L 77.66 50.09 L 77.68 50.83 L 77.85 51.58 L 78.16 52.31 L 78.62 53.02 L 79.22 53.70 L 79.95 54.35 L 80.81 54.97 L 81.78 55.53 L 82.87 56.05 L 84.05 56.51 L 85.31 56.91 L 86.65 57.24 L 88.05 57.50 L 89.50 57.70 L 90.97 57.82 L 92.46 57.86 L 93.96 57.84 L 95.44 57.73 L 96.89 57.56 L 98.30 57.31 L 99.66 56.99 L 100.94 56.61 L 102.15 56.17 L 103.26 55.67 L 104.26 55.11 Z" fill="#ff220c" fill-rule="evenodd" stroke="#ff220c" stroke-width="0.8"/>
<path d="M 234.05 76.70 L 163.35 112.05 L 163.35 164.00 L 234.05 128.65 Z" fill="#791005" fill-rule="evenodd" stroke="#791005" stroke-width="0.8"/>
<path d="M 183.75 77.30 L 183.90 77.90 L 184.14 78.49 L 184.47 79.07 L 184.90 79.64 L 185.42 80.18 L 186.02 80.71 L 186.71 81.20 L 187.47 81.67 L 188.31 82.11 L 189.21 82.51 L 190.18 82.87 L 191.20 83.19 L 192.27 83.47 L 193.38 83.71 L 194.53 83.90 L 195.70 84.05 L 196.89 84.14 L 198.09 84.19 L 199.30 84.19 L 200.51 84.14 L 201.70 84.05 L 202.87 83.90 L 204.02 83.71 L 205.13 83.47 L 206.20 83.19 L 207.22 82.87 L 208.18 82.51 L 209.09 82.11 L 209.92 81.67 L 210.69 81.20 L 211.37 80.71 L 211.98 80.18 L 212.50 79.64 L 212.92 79.07 L 213.26 78.49 L 213.50 77.90 L 213.65 77.30 L 213.70 76.70 L 213.70 68.04 L 213.65 68.64 L 213.64 68.67 L 213.64 68.69 L 213.61 68.81 L 213.50 69.24 L 213.46 69.36 L 213.43 69.43 L 213.37 69.57 L 213.26 69.83 L 213.14 70.04 L 213.08 70.16 L 213.01 70.26 L 212.92 70.41 L 212.69 70.72 L 212.59 70.87 L 212.54 70.91 L 212.50 70.98 L 211.98 71.52 L 211.97 71.53 L 211.96 71.54 L 211.85 71.63 L 211.37 72.05 L 211.27 72.12 L 211.19 72.19 L 211.01 72.31 L 210.69 72.54 L 210.46 72.68 L 210.31 72.79 L 210.14 72.88 L 209.92 73.01 L 209.51 73.23 L 209.30 73.34 L 209.21 73.39 L 209.09 73.45 L 208.32 73.79 L 208.19 73.84 L 208.18 73.85 L 208.13 73.87 L 207.22 74.21 L 207.08 74.25 L 206.99 74.29 L 206.76 74.36 L 206.20 74.53 L 205.89 74.61 L 205.71 74.67 L 205.48 74.72 L 205.13 74.81 L 204.62 74.92 L 204.35 74.98 L 204.21 75.01 L 204.02 75.05 L 203.12 75.20 L 202.94 75.23 L 202.91 75.24 L 202.87 75.24 L 201.70 75.39 L 201.58 75.40 L 201.49 75.41 L 201.18 75.43 L 200.51 75.48 L 200.21 75.50 L 200.00 75.51 L 199.72 75.52 L 199.30 75.53 L 198.83 75.53 L 198.51 75.54 L 198.32 75.53 L 198.09 75.53 L 197.24 75.50 L 197.02 75.49 L 196.97 75.49 L 196.89 75.48 L 195.70 75.39 L 195.62 75.38 L 195.54 75.37 L 195.25 75.33 L 194.53 75.24 L 194.29 75.20 L 194.10 75.18 L 193.82 75.12 L 193.38 75.05 L 192.98 74.97 L 192.70 74.91 L 192.51 74.86 L 192.27 74.81 L 191.63 74.65 L 191.36 74.58 L 191.29 74.56 L 191.20 74.53 L 190.18 74.21 L 190.13 74.19 L 190.10 74.18 L 189.93 74.12 L 189.21 73.85 L 189.04 73.77 L 188.92 73.72 L 188.72 73.63 L 188.31 73.45 L 188.01 73.29 L 187.83 73.21 L 187.69 73.13 L 187.47 73.01 L 187.08 72.77 L 186.86 72.64 L 186.79 72.59 L 186.71 72.54 L 186.02 72.05 L 186.01 72.04 L 186.00 72.03 L 185.92 71.96 L 185.42 71.52 L 185.34 71.44 L 185.27 71.38 L 185.14 71.23 L 184.90 70.98 L 184.77 70.81 L 184.67 70.69 L 184.59 70.57 L 184.47 70.41 L 184.31 70.13 L 184.21 69.98 L 184.18 69.92 L 184.14 69.83 L 183.92 69.31 L 183.90 69.25 L 183.90 69.24 L 183.90 69.24 L 183.75 68.64 L 183.74 68.57 L 183.73 68.51 L 183.73 68.35 L 183.70 68.04 L 183.70 76.70 Z" fill="url(#g13)" fill-rule="evenodd" stroke="url(#g13)" stroke-width="0.8"/>
<path d="M 211.19 72.19 L 211.96 71.54 L 212.59 70.87 L 213.08 70.16 L 213.43 69.43 L 213.64 68.69 L 213.69 67.95 L 213.60 67.20 L 213.36 66.46 L 212.97 65.74 L 212.44 65.04 L 211.78 64.37 L 210.98 63.74 L 210.07 63.15 L 209.03 62.61 L 207.90 62.12 L 206.68 61.69 L 205.37 61.33 L 204.00 61.03 L 202.58 60.80 L 201.12 60.64 L 199.63 60.55 L 198.14 60.55 L 196.65 60.61 L 195.18 60.75 L 193.75 60.96 L 192.36 61.24 L 191.04 61.59 L 189.79 62.01 L 188.63 62.48 L 187.58 63.01 L 186.63 63.59 L 185.81 64.21 L 185.11 64.87 L 184.54 65.56 L 184.12 66.28 L 183.84 67.02 L 183.71 67.76 L 183.73 68.51 L 183.90 69.25 L 184.21 69.98 L 184.67 70.69 L 185.27 71.38 L 186.00 72.03 L 186.86 72.64 L 187.83 73.21 L 188.92 73.72 L 190.10 74.18 L 191.36 74.58 L 192.70 74.91 L 194.10 75.18 L 195.54 75.37 L 197.02 75.49 L 198.51 75.54 L 200.00 75.51 L 201.49 75.41 L 202.94 75.23 L 204.35 74.98 L 205.71 74.67 L 206.99 74.29 L 208.19 73.84 L 209.30 73.34 L 210.31 72.79 Z" fill="#ff220c" fill-rule="evenodd" stroke="#ff220c" stroke-width="0.8"/>
<path d="M 113.05 77.30 L 113.20 77.90 L 113.44 78.49 L 113.77 79.07 L 114.20 79.64 L 114.72 80.18 L 115.32 80.71 L 116.01 81.20 L 116.77 81.67 L 117.61 82.11 L 118.52 82.51 L 119.48 82.87 L 120.50 83.19 L 121.57 83.47 L 122.68 83.71 L 123.83 83.90 L 125.00 84.05 L 126.19 84.14 L 127.40 84.19 L 128.60 84.19 L 129.81 84.14 L 131.00 84.05 L 132.17 83.90 L 133.32 83.71 L 134.43 83.47 L 135.50 83.19 L 136.52 82.87 L 137.49 82.51 L 138.39 82.11 L 139.23 81.67 L 139.99 81.20 L 140.68 80.71 L 141.28 80.18 L 141.80 79.64 L 142.23 79.07 L 142.56 78.49 L 142.80 77.90 L 142.95 77.30 L 143.00 76.70 L 143.00 68.04 L 142.95 68.64 L 142.94 68.67 L 142.94 68.69 L 142.91 68.79 L 142.80 69.24 L 142.76 69.35 L 142.74 69.43 L 142.66 69.58 L 142.56 69.83 L 142.44 70.04 L 142.38 70.16 L 142.32 70.26 L 142.23 70.41 L 141.99 70.73 L 141.89 70.87 L 141.85 70.91 L 141.80 70.98 L 141.28 71.52 L 141.27 71.53 L 141.26 71.54 L 141.19 71.61 L 140.68 72.05 L 140.57 72.12 L 140.50 72.19 L 140.31 72.31 L 139.99 72.54 L 139.76 72.68 L 139.61 72.79 L 139.44 72.88 L 139.23 73.01 L 138.81 73.23 L 138.60 73.34 L 138.51 73.39 L 138.39 73.45 L 137.58 73.81 L 137.50 73.84 L 137.49 73.85 L 137.48 73.85 L 136.52 74.21 L 136.38 74.25 L 136.29 74.29 L 136.06 74.36 L 135.50 74.53 L 135.19 74.61 L 135.01 74.67 L 134.78 74.72 L 134.43 74.81 L 133.93 74.92 L 133.65 74.98 L 133.51 75.01 L 133.32 75.05 L 132.43 75.20 L 132.24 75.23 L 132.21 75.24 L 132.17 75.24 L 131.00 75.39 L 130.88 75.40 L 130.79 75.41 L 130.49 75.43 L 129.81 75.48 L 129.51 75.50 L 129.31 75.51 L 129.02 75.52 L 128.60 75.53 L 128.13 75.53 L 127.81 75.54 L 127.62 75.53 L 127.40 75.53 L 126.54 75.50 L 126.32 75.49 L 126.28 75.49 L 126.19 75.48 L 125.00 75.39 L 124.92 75.38 L 124.84 75.37 L 124.55 75.33 L 123.83 75.24 L 123.59 75.20 L 123.40 75.18 L 123.13 75.12 L 122.68 75.05 L 122.28 74.97 L 122.00 74.91 L 121.81 74.86 L 121.57 74.81 L 120.92 74.64 L 120.66 74.58 L 120.60 74.56 L 120.50 74.53 L 119.48 74.21 L 119.43 74.19 L 119.40 74.18 L 119.23 74.12 L 118.52 73.85 L 118.34 73.77 L 118.22 73.72 L 118.01 73.62 L 117.61 73.45 L 117.32 73.30 L 117.13 73.21 L 116.99 73.12 L 116.77 73.01 L 116.37 72.76 L 116.16 72.64 L 116.09 72.59 L 116.01 72.54 L 115.32 72.05 L 115.31 72.04 L 115.30 72.03 L 115.23 71.96 L 114.72 71.52 L 114.64 71.44 L 114.57 71.38 L 114.45 71.24 L 114.20 70.98 L 114.07 70.81 L 113.97 70.69 L 113.90 70.58 L 113.77 70.41 L 113.60 70.11 L 113.51 69.98 L 113.49 69.92 L 113.44 69.83 L 113.22 69.30 L 113.20 69.25 L 113.20 69.24 L 113.20 69.24 L 113.05 68.64 L 113.05 68.56 L 113.03 68.51 L 113.03 68.36 L 113.00 68.04 L 113.00 76.70 Z" fill="url(#g15)" fill-rule="evenodd" stroke="url(#g15)" stroke-width="0.8"/>
<path d="M 140.50 72.19 L 141.26 71.54 L 141.89 70.87 L 142.38 70.16 L 142.74 69.43 L 142.94 68.69 L 143.00 67.95 L 142.90 67.20 L 142.66 66.46 L 142.28 65.74 L 141.75 65.04 L 141.08 64.37 L 140.28 63.74 L 139.37 63.15 L 138.34 62.61 L 137.20 62.12 L 135.98 61.69 L 134.68 61.33 L 133.31 61.03 L 131.88 60.80 L 130.42 60.64 L 128.93 60.55 L 127.44 60.55 L 125.95 60.61 L 124.48 60.75 L 123.05 60.96 L 121.66 61.24 L 120.34 61.59 L 119.09 62.01 L 117.94 62.48 L 116.88 63.01 L 115.93 63.59 L 115.11 64.21 L 114.41 64.87 L 113.84 65.56 L 113.42 66.28 L 113.14 67.02 L 113.01 67.76 L 113.03 68.51 L 113.20 69.25 L 113.51 69.98 L 113.97 70.69 L 114.57 71.38 L 115.30 72.03 L 116.16 72.64 L 117.13 73.21 L 118.22 73.72 L 119.40 74.18 L 120.66 74.58 L 122.00 74.91 L 123.40 75.18 L 124.84 75.37 L 126.32 75.49 L 127.81 75.54 L 129.31 75.51 L 130.79 75.41 L 132.24 75.23 L 133.65 74.98 L 135.01 74.67 L 136.29 74.29 L 137.50 73.84 L 138.60 73.34 L 139.61 72.79 Z" fill="#ff220c" fill-rule="evenodd" stroke="#ff220c" stroke-width="0.8"/>
<path d="M 148.40 94.98 L 148.55 95.58 L 148.79 96.17 L 149.12 96.75 L 149.55 97.31 L 150.07 97.86 L 150.67 98.38 L 151.36 98.88 L 152.12 99.34 L 152.96 99.78 L 153.86 100.18 L 154.83 100.54 L 155.85 100.87 L 156.92 101.15 L 158.03 101.38 L 159.18 101.58 L 160.35 101.72 L 161.54 101.82 L 162.75 101.87 L 163.95 101.87 L 165.16 101.82 L 166.35 101.72 L 167.52 101.58 L 168.67 101.38 L 169.78 101.15 L 170.85 100.87 L 171.87 100.54 L 172.83 100.18 L 173.74 99.78 L 174.57 99.34 L 175.34 98.88 L 176.03 98.38 L 176.63 97.86 L 177.15 97.31 L 177.57 96.75 L 177.91 96.17 L 178.15 95.58 L 178.30 94.98 L 178.35 94.37 L 178.35 85.71 L 178.30 86.32 L 178.29 86.35 L 178.29 86.37 L 178.26 86.47 L 178.15 86.92 L 178.11 87.03 L 178.09 87.11 L 178.02 87.25 L 177.91 87.51 L 177.79 87.71 L 177.73 87.83 L 177.66 87.93 L 177.57 88.09 L 177.34 88.40 L 177.24 88.54 L 177.19 88.59 L 177.15 88.65 L 176.63 89.20 L 176.62 89.21 L 176.61 89.22 L 176.54 89.28 L 176.03 89.72 L 175.92 89.80 L 175.84 89.86 L 175.66 89.98 L 175.34 90.22 L 175.10 90.37 L 174.96 90.46 L 174.81 90.55 L 174.57 90.69 L 174.17 90.90 L 173.95 91.02 L 173.85 91.06 L 173.74 91.12 L 172.84 91.52 L 172.83 91.52 L 171.87 91.89 L 171.72 91.93 L 171.64 91.96 L 171.40 92.03 L 170.85 92.21 L 170.56 92.28 L 170.36 92.34 L 170.12 92.40 L 169.78 92.49 L 169.28 92.60 L 169.00 92.66 L 168.86 92.69 L 168.67 92.73 L 167.77 92.88 L 167.59 92.91 L 167.56 92.91 L 167.52 92.92 L 166.35 93.06 L 166.23 93.07 L 166.14 93.08 L 165.84 93.10 L 165.16 93.16 L 164.85 93.17 L 164.66 93.18 L 164.40 93.19 L 163.95 93.21 L 163.43 93.21 L 163.16 93.21 L 163.00 93.21 L 162.75 93.21 L 161.95 93.17 L 161.67 93.17 L 161.60 93.16 L 161.54 93.16 L 160.35 93.06 L 160.27 93.05 L 160.19 93.05 L 159.91 93.01 L 159.18 92.92 L 158.94 92.88 L 158.75 92.85 L 158.48 92.80 L 158.03 92.73 L 157.60 92.63 L 157.35 92.59 L 157.19 92.55 L 156.92 92.49 L 156.24 92.31 L 156.01 92.25 L 155.95 92.23 L 155.85 92.21 L 154.83 91.89 L 154.78 91.87 L 154.75 91.86 L 154.58 91.79 L 153.86 91.52 L 153.69 91.45 L 153.57 91.40 L 153.35 91.30 L 152.96 91.12 L 152.68 90.98 L 152.48 90.88 L 152.34 90.80 L 152.12 90.69 L 151.70 90.43 L 151.51 90.32 L 151.45 90.27 L 151.36 90.22 L 150.67 89.72 L 150.66 89.71 L 150.65 89.70 L 150.57 89.64 L 150.07 89.20 L 149.99 89.12 L 149.92 89.05 L 149.79 88.90 L 149.55 88.65 L 149.43 88.49 L 149.32 88.37 L 149.24 88.25 L 149.12 88.09 L 148.96 87.81 L 148.86 87.66 L 148.84 87.59 L 148.79 87.51 L 148.56 86.96 L 148.55 86.92 L 148.55 86.92 L 148.55 86.92 L 148.40 86.32 L 148.39 86.24 L 148.38 86.18 L 148.38 86.03 L 148.35 85.71 L 148.35 94.37 Z" fill="url(#g17)" fill-rule="evenodd" stroke="url(#g17)" stroke-width="0.8"/>
<path d="M 174.96 90.46 L 175.84 89.86 L 176.61 89.22 L 177.24 88.54 L 177.73 87.83 L 178.09 87.11 L 178.29 86.37 L 178.34 85.62 L 178.25 84.88 L 178.01 84.14 L 177.62 83.42 L 177.09 82.72 L 176.43 82.05 L 175.63 81.41 L 174.72 80.82 L 173.69 80.28 L 172.55 79.79 L 171.33 79.36 L 170.02 79.00 L 168.65 78.70 L 167.23 78.47 L 165.77 78.31 L 164.28 78.23 L 162.79 78.22 L 161.30 78.29 L 159.83 78.42 L 158.40 78.64 L 157.01 78.92 L 155.69 79.27 L 154.44 79.68 L 153.29 80.15 L 152.23 80.68 L 151.28 81.26 L 150.46 81.88 L 149.76 82.55 L 149.19 83.24 L 148.77 83.95 L 148.49 84.69 L 148.36 85.43 L 148.38 86.18 L 148.55 86.92 L 148.86 87.66 L 149.32 88.37 L 149.92 89.05 L 150.65 89.70 L 151.51 90.32 L 152.48 90.88 L 153.57 91.40 L 154.75 91.86 L 156.01 92.25 L 157.35 92.59 L 158.75 92.85 L 160.19 93.05 L 161.67 93.17 L 163.16 93.21 L 164.66 93.18 L 166.14 93.08 L 167.59 92.91 L 169.00 92.66 L 170.36 92.34 L 171.64 91.96 L 172.84 91.52 L 173.95 91.02 Z" fill="#ff220c" fill-rule="evenodd" stroke="#ff220c" stroke-width="0.8"/>
</g>
<g stroke="black" fill="none" stroke-linecap="round">
<path d="M 209.30 82.00 A 15.00 7.50 180.00 0 0 213.70 76.75" stroke-width="2.00"/>
<path d="M 183.70 76.71 A 15.00 7.50 180.00 0 0 209.30 82.00" stroke-width="2.00"/>
<path d="M 209.30 73.34 A 15.00 7.50 -180.00 0 0 188.09 62.74 A 15.00 7.50 -180.00 0 0 209.30 73.34" stroke-width="2.00"/>
<line x1="213.70" y1="76.70" x2="213.70" y2="68.04" stroke-width="2.00"/>
<line x1="183.70" y1="76.70" x2="183.70" y2="68.04" stroke-width="2.00"/>
<path d="M 209.30 82.00 A 15.00 7.50 180.00 0 0 213.70 76.75" stroke-width="2.00"/>
<path d="M 183.70 76.71 A 15.00 7.50 180.00 0 0 209.30 82.00" stroke-width="2.00"/>
<path d="M 209.30 73.34 A 15.00 7.50 -180.00 0 0 188.09 62.74 A 15.00 7.50 -180.00 0 0 209.30 73.34" stroke-width="2.00"/>
<path d="M 209.30 73.34 A 15.00 7.50 -180.00 0 0 188.09 62.74 A 15.00 7.50 -180.00 0 0 209.30 73.34" stroke-width="2.00"/>
<path d="M 173.95 64.33 A 15.00 7.50 -180.00 0 0 178.35 59.07" stroke-width="2.00"/>
<path d="M 148.35 59.04 A 15.00 7.50 -180.00 0 0 173.95 64.33" stroke-width="2.00"/>
<path d="M 173.95 55.67 A 15.00 7.50 180.00 0 0 152.74 45.06 A 15.00 7.50 180.00 0 0 173.95 55.67" stroke-width="2.00"/>
<line x1="178.35" y1="59.02" x2="178.35" y2="50.37" stroke-width="2.00"/>
<line x1="148.35" y1="59.02" x2="148.35" y2="50.37" stroke-width="2.00"/>
<path d="M 173.95 64.33 A 15.00 7.50 -180.00 0 0 178.35 59.07" stroke-width="2.00"/>
<path d="M 148.35 59.04 A 15.00 7.50 -180.00 0 0 173.95 64.33" stroke-width="2.00"/>
<path d="M 173.95 55.67 A 15.00 7.50 180.00 0 0 152.74 45.06 A 15.00 7.50 180.00 0 0 173.95 55.67" stroke-width="2.00"/>
<path d="M 173.95 55.67 A 15.00 7.50 180.00 0 0 152.74 45.06 A 15.00 7.50 180.00 0 0 173.95 55.67" stroke-width="2.00"/>
<path d="M 138.60 46.65 A 15.00 7.50 180.00 0 0 143.00 41.40" stroke-width="2.00"/>
<path d="M 113.00 41.37 A 15.00 7.50 180.00 0 0 138.60 46.65" stroke-width="2.00"/>
<path d="M 138.60 37.99 A 15.00 7.50 -180.00 0 0 117.40 27.39 A 15.00 7.50 -180.00 0 0 138.60 37.99" stroke-width="2.00"/>
<line x1="143.00" y1="41.35" x2="143.00" y2="32.69" stroke-width="2.00"/>
<line x1="113.00" y1="41.35" x2="113.00" y2="32.69" stroke-width="2.00"/>
<path d="M 138.60 46.65 A 15.00 7.50 180.00 0 0 143.00 41.40" stroke-width="2.00"/>
<path d="M 113.00 41.37 A 15.00 7.50 180.00 0 0 138.60 46.65" stroke-width="2.00"/>
<path d="M 138.60 37.99 A 15.00 7.50 -180.00 0 0 117.40 27.39 A 15.00 7.50 -180.00 0 0 138.60 37.99" stroke-width="2.00"/>
<path d="M 138.60 37.99 A 15.00 7.50 -180.00 0 0 117.40 27.39 A 15.00 7.50 -180.00 0 0 138.60 37.99" stroke-width="2.00"/>
<path d="M 103.26 28.98 A 15.00 7.50 -180.00 0 0 107.65 23.72" stroke-width="2.00"/>
<path d="M 77.65 23.69 A 15.00 7.50 -180.00 0 0 103.26 28.98" stroke-width="2.00"/>
<path d="M 103.26 20.32 A 15.00 7.50 180.00 0 0 82.05 9.71 A 15.00 7.50 180.00 0 0 103.26 20.32" stroke-width="2.00"/>
<line x1="107.65" y1="23.67" x2="107.65" y2="15.02" stroke-width="2.00"/>
<line x1="77.65" y1="23.67" x2="77.65" y2="15.02" stroke-width="2.00"/>
<path d="M 103.26 28.98 A 15.00 7.50 -180.00 0 0 107.65 23.72" stroke-width="2.00"/>
<path d="M 77.65 23.69 A 15.00 7.50 -180.00 0 0 103.26 28.98" stroke-width="2.00"/>
<path d="M 103.26 20.32 A 15.00 7.50 180.00 0 0 82.05 9.71 A 15.00 7.50 180.00 0 0 103.26 20.32" stroke-width="2.00"/>
<path d="M 103.26 20.32 A 15.00 7.50 180.00 0 0 82.05 9.71 A 15.00 7.50 180.00 0 0 103.26 20.32" stroke-width="2.00"/>
<path d="M 173.95 99.68 A 15.00 7.50 180.00 0 0 178.35 94.42" stroke-width="2.00"/>
<path d="M 148.35 94.39 A 15.00 7.50 180.00 0 0 173.95 99.68" stroke-width="2.00"/>
<path d="M 173.95 91.02 A 15.00 7.50 -180.00 0 0 152.74 80.41 A 15.00 7.50 -180.00 0 0 173.95 91.02" stroke-width="2.00"/>
<line x1="178.35" y1="94.37" x2="178.35" y2="85.71" stroke-width="2.00"/>
<line x1="148.35" y1="94.37" x2="148.35" y2="85.71" stroke-width="2.00"/>
<path d="M 173.95 99.68 A 15.00 7.50 180.00 0 0 178.35 94.42" stroke-width="2.00"/>
<path d="M 148.35 94.39 A 15.00 7.50 180.00 0 0 173.95 99.68" stroke-width="2.00"/>
<path d="M 173.95 91.02 A 15.00 7.50 -180.00 0 0 152.74 80.41 A 15.00 7.50 -180.00 0 0 173.95 91.02" stroke-width="2.00"/>
<path d="M 173.95 91.02 A 15.00 7.50 -180.00 0 0 152.74 80.41 A 15.00 7.50 -180.00 0 0 173.95 91.02" stroke-width="2.00"/>
<path d="M 138.60 82.00 A 15.00 7.50 -180.00 0 0 143.00 76.75" stroke-width="2.00"/>
<path d="M 113.00 76.71 A 15.00 7.50 -180.00 0 0 138.60 82.00" stroke-width="2.00"/>
<path d="M 138.60 73.34 A 15.00 7.50 -180.00 0 0 117.40 62.74 A 15.00 7.50 -180.00 0 0 138.60 73.34" stroke-width="2.00"/>
<line x1="143.00" y1="76.70" x2="143.00" y2="68.04" stroke-width="2.00"/>
<line x1="113.00" y1="76.70" x2="113.00" y2="68.04" stroke-width="2.00"/>
<path d="M 138.60 82.00 A 15.00 7.50 -180.00 0 0 143.00 76.75" stroke-width="2.00"/>
<path d="M 113.00 76.71 A 15.00 7.50 -180.00 0 0 138.60 82.00" stroke-width="2.00"/>
<path d="M 138.60 73.34 A 15.00 7.50 -180.00 0 0 117.40 62.74 A 15.00 7.50 -180.00 0 0 138.60 73.34" stroke-width="2.00"/>
<path d="M 138.60 73.34 A 15.00 7.50 -180.00 0 0 117.40 62.74 A 15.00 7.50 -180.00 0 0 138.60 73.34" stroke-width="2.00"/>
<path d="M 103.26 64.33 A 15.00 7.50 180.00 0 0 107.65 59.07" stroke-width="2.00"/>
<path d="M 77.65 59.04 A 15.00 7.50 180.00 0 0 103.26 64.33" stroke-width="2.00"/>
<path d="M 103.26 55.67 A 15.00 7.50 180.00 0 0 82.05 45.06 A 15.00 7.50 180.00 0 0 103.26 55.67" stroke-width="2.00"/>
<line x1="107.65" y1="59.02" x2="107.65" y2="50.37" stroke-width="2.00"/>
<line x1="77.65" y1="59.02" x2="77.65" y2="50.37" stroke-width="2.00"/>
<path d="M 103.26 64.33 A 15.00 7.50 180.00 0 0 107.65 59.07" stroke-width="2.00"/>
<path d="M 77.65 59.04 A 15.00 7.50 180.00 0 0 103.26 64.33" stroke-width="2.00"/>
<path d="M 103.26 55.67 A 15.00 7.50 180.00 0 0 82.05 45.06 A 15.00 7.50 180.00 0 0 103.26 55.67" stroke-width="2.00"/>
<path d="M 103.26 55.67 A 15.00 7.50 180.00 0 0 82.05 45.06 A 15.00 7.50 180.00 0 0 103.26 55.67" stroke-width="2.00"/>
<path d="M 67.91 46.65 A 15.00 7.50 -180.00 0 0 72.30 41.40" stroke-width="2.00"/>
<path d="M 42.30 41.37 A 15.00 7.50 -180.00 0 0 67.91 46.65" stroke-width="2.00"/>
<path d="M 67.91 37.99 A 15.00 7.50 -180.00 0 0 46.70 27.39 A 15.00 7.50 -180.00 0 0 67.91 37.99" stroke-width="2.00"/>
<line x1="72.30" y1="41.35" x2="72.30" y2="32.69" stroke-width="2.00"/>
<line x1="42.30" y1="41.35" x2="42.30" y2="32.69" stroke-width="2.00"/>
<path d="M 67.91 46.65 A 15.00 7.50 -180.00 0 0 72.30 41.40" stroke-width="2.00"/>
<path d="M 42.30 41.37 A 15.00 7.50 -180.00 0 0 67.91 46.65" stroke-width="2.00"/>
<path d="M 67.91 37.99 A 15.00 7.50 -180.00 0 0 46.70 27.39 A 15.00 7.50 -180.00 0 0 67.91 37.99" stroke-width="2.00"/>
<path d="M 67.91 37.99 A 15.00 7.50 -180.00 0 0 46.70 27.39 A 15.00 7.50 -180.00 0 0 67.91 37.99" stroke-width="2.00"/>
<line x1="163.35" y1="112.05" x2="234.05" y2="76.70" stroke-width="2.00"/>
<line x1="92.65" y1="6.00" x2="89.27" y2="7.69" stroke-width="2.00"/>
<line x1="77.98" y1="13.33" x2="53.92" y2="25.37" stroke-width="2.00"/>
<line x1="42.64" y1="31.01" x2="21.95" y2="41.35" stroke-width="2.00"/>
<line x1="163.35" y1="164.00" x2="234.05" y2="128.65" stroke-width="2.00"/>
<line x1="163.35" y1="112.05" x2="21.95" y2="41.35" stroke-width="2.00"/>
<line x1="234.05" y1="76.70" x2="213.42" y2="66.38" stroke-width="2.00"/>
<line x1="201.98" y1="60.66" x2="177.98" y2="48.66" stroke-width="2.00"/>
<line x1="166.72" y1="43.04" x2="142.72" y2="31.04" stroke-width="2.00"/>
<line x1="131.28" y1="25.32" x2="107.28" y2="13.31" stroke-width="2.00"/>
<line x1="96.03" y1="7.69" x2="92.65" y2="6.00" stroke-width="2.00"/>
<line x1="163.35" y1="112.05" x2="163.35" y2="164.00" stroke-width="2.00"/>
<line x1="21.95" y1="41.35" x2="21.95" y2="93.30" stroke-width="2.00"/>
<line x1="234.05" y1="76.70" x2="234.05" y2="128.65" stroke-width="2.00"/>
<line x1="21.95" y1="93.30" x2="163.35" y2="164.00" stroke-width="2.00"/>
</g>
</svg>