<svg xmlns="http://www.w3.org/2000/svg" viewBox="0 0 256 170" preserveAspectRatio="xMidYMid meet">
<defs><linearGradient id="g2" gradientUnits="userSpaceOnUse" x1="72.30" y1="37.02" x2="42.30" y2="37.02"><stop offset="0.0%" stop-color="#c41909"/><stop offset="3.8%" stop-color="#cd1b09"/><stop offset="14.6%" stop-color="#c81a09"/><stop offset="30.9%" stop-color="#b51708"/><stop offset="50.0%" stop-color="#971407"/><stop offset="69.1%" stop-color="#730f05"/><stop offset="85.4%" stop-color="#6f0e05"/><stop offset="96.2%" stop-color="#6f0e05"/><stop offset="100.0%" stop-color="#6f0e05"/></linearGradient><linearGradient id="g3" gradientUnits="userSpaceOnUse" x1="42.30" y1="37.02" x2="72.30" y2="37.02"><stop offset="0.0%" stop-color="#c41909"/><stop offset="3.8%" stop-color="#cd1b09"/><stop offset="14.6%" stop-color="#c81a09"/><stop offset="30.9%" stop-color="#b51708"/><stop offset="50.0%" stop-color="#971407"/><stop offset="69.1%" stop-color="#730f05"/><stop offset="85.4%" stop-color="#6f0e05"/><stop offset="96.2%" stop-color="#6f0e05"/><stop offset="100.0%" stop-color="#6f0e05"/></linearGradient><linearGradient id="g5" gradientUnits="userSpaceOnUse" x1="107.65" y1="54.69" x2="77.65" y2="54.69"><stop offset="0.0%" stop-color="#c41909"/><stop offset="3.8%" stop-color="#cd1b09"/><stop offset="14.6%" stop-color="#c81a09"/><stop offset="30.9%" stop-color="#b51708"/><stop offset="50.0%" stop-color="#971407"/><stop offset="69.1%" stop-color="#730f05"/><stop offset="85.4%" stop-color="#6f0e05"/><stop offset="96.2%" stop-color="#6f0e05"/><stop offset="100.0%" stop-color="#6f0e05"/></linearGradient><linearGradient id="g6" gradientUnits="userSpaceOnUse" x1="107.65" y1="19.35" x2="77.65" y2="19.35"><stop offset="0.0%" stop-color="#c41909"/><stop offset="3.8%" stop-color="#cd1b09"/><stop offset="14.6%" stop-color="#c81a09"/><stop offset="30.9%" stop-color="#b51708"/><stop offset="50.0%" stop-color="#971407"/><stop offset="69.1%" stop-color="#730f05"/><stop offset="85.4%" stop-color="#6f0e05"/><stop offset="96.2%" stop-color="#6f0e05"/><stop offset="100.0%" stop-color="#6f0e05"/></linearGradient><linearGradient id="g7" gradientUnits="userSpaceOnUse" x1="77.65" y1="19.35" x2="107.65" y2="19.35"><stop offset="0.0%" stop-color="#c41909"/><stop offset="3.8%" stop-color="#cd1b09"/><stop offset="14.6%" stop-color="#c81a09"/><stop offset="30.9%" stop-color="#b51708"/><stop offset="50.0%" stop-color="#971407"/><stop offset="69.1%" stop-color="#730f05"/><stop offset="85.4%" stop-color="#6f0e05"/><stop offset="96.2%" stop-color="#6f0e05"/><stop offset="100.0%" stop-color="#6f0e05"/></linearGradient><linearGradient id="g9" gradientUnits="userSpaceOnUse" x1="143.00" y1="37.02" x2="113.00" y2="37.02"><stop offset="0.0%" stop-color="#c41909"/><stop offset="3.8%" stop-color="#cd1b09"/><stop offset="14.6%" stop-color="#c81a09"/><stop offset="30.9%" stop-color="#b51708"/><stop offset="50.0%" stop-color="#971407"/><stop offset="69.1%" stop-color="#730f05"/><stop offset="85.4%" stop-color="#6f0e05"/><stop offset="96.2%" stop-color="#6f0e05"/><stop offset="100.0%" stop-color="#6f0e05"/></linearGradient><linearGradient id="g10" gradientUnits="userSpaceOnUse" x1="113.00" y1="37.02" x2="143.00" y2="37.02"><stop offset="0.0%" stop-color="#c41909"/><stop offset="3.8%" stop-color="#cd1b09"/><stop offset="14.6%" stop-color="#c81a09"/><stop offset="30.9%" stop-color="#b51708"/><stop offset="50.0%" stop-color="#971407"/><stop offset="69.1%" stop-color="#730f05"/><stop offset="85.4%" stop-color="#6f0e05"/><stop offset="96.2%" stop-color="#6f0e05"/><stop offset="100.0%" stop-color="#6f0e05"/></linearGradient><linearGradient id="g12" gradientUnits="userSpaceOnUse" x1="178.35" y1="54.69" x2="148.35" y2="54.69"><stop offset="0.0%" stop-color="#c41909"/><stop offset="3.8%" stop-color="#cd1b09"/><stop offset="14.6%" stop-color="#c81a09"/><stop offset="30.9%" stop-color="#b51708"/><stop offset="50.0%" stop-color="#971407"/><stop offset="69.1%" stop-color="#730f05"/><stop offset="85.4%" stop-color="#6f0e05"/><stop offset="96.2%" stop-color="#6f0e05"/><stop offset="100.0%" stop-color="#6f0e05"/></linearGradient><linearGradient id="g13" gradientUnits="userSpaceOnUse" x1="148.35" y1="54.69" x2="178.35" y2="54.69"><stop offset="0.0%" stop-color="#c41909"/><stop offset="3.8%" stop-color="#cd1b09"/><stop offset="14.6%" stop-color="#c81a09"/><stop offset="30.9%" stop-color="#b51708"/><stop offset="50.0%" stop-color="#971407"/><stop offset="69.1%" stop-color="#730f05"/><stop offset="85.4%" stop-color="#6f0e05"/><stop offset="96.2%" stop-color="#6f0e05"/><stop offset="100.0%" stop-color="#6f0e05"/></linearGradient><linearGradient id="g15" gradientUnits="userSpaceOnUse" x1="77.65" y1="54.69" x2="107.65" y2="54.69"><stop offset="0.0%" stop-color="#c41909"/><stop offset="3.8%" stop-color="#cd1b09"/><stop offset="14.6%" stop-color="#c81a09"/><stop offset="30.9%" stop-color="#b51708"/><stop offset="50.0%" stop-color="#971407"/><stop offset="69.1%" stop-color="#730f05"/><stop offset="85.4%" stop-color="#6f0e05"/><stop offset="96.2%" stop-color="#6f0e05"/><stop offset="100.0%" stop-color="#6f0e05"/></linearGradient><linearGradient id="g17" gradientUnits="userSpaceOnUse" x1="213.70" y1="72.37" x2="183.70" y2="72.37"><stop offset="0.0%" stop-color="#c41909"/><stop offset="3.8%" stop-color="#cd1b09"/><stop offset="14.6%" stop-color="#c81a09"/><stop offset="30.9%" stop-color="#b51708"/><stop offset="50.0%" stop-color="#971407"/><stop offset="69.1%" stop-color="#730f05"/><stop offset="85.4%" stop-color="#6f0e05"/><stop offset="96.2%" stop-color="#6f0e05"/><stop offset="100.0%" stop-color="#6f0e05"/></linearGradient><linearGradient id="g18" gradientUnits="userSpaceOnUse" x1="143.00" y1="72.37" x2="113.00" y2="72.37"><stop offset="0.0%" stop-color="#c41909"/><stop offset="3.8%" stop-color="#cd1b09"/><stop offset="14.6%" stop-color="#c81a09"/><stop offset="30.9%" stop-color="#b51708"/><stop offset="50.0%" stop-color="#971407"/><stop offset="69.1%" stop-color="#730f05"/><stop offset="85.4%" stop-color="#6f0e05"/><stop offset="96.2%" stop-color="#6f0e05"/><stop offset="100.0%" stop-color="#6f0e05"/></linearGradient><linearGradient id="g20" gradientUnits="userSpaceOnUse" x1="183.70" y1="72.37" x2="213.70" y2="72.37"><stop offset="0.0%" stop-color="#c41909"/><stop offset="3.8%" stop-color="#cd1b09"/><stop offset="14.6%" stop-color="#c81a09"/><stop offset="30.9%" stop-color="#b51708"/><stop offset="50.0%" stop-color="#971407"/><stop offset="69.1%" stop-color="#730f05"/><stop offset="85.4%" stop-color="#6f0e05"/><stop offset="96.2%" stop-color="#6f0e05"/><stop offset="100.0%" stop-color="#6f0e05"/></linearGradient><linearGradient id="g22" gradientUnits="userSpaceOnUse" x1="113.00" y1="72.37" x2="143.00" y2="72.37"><stop offset="0.0%" stop-color="#c41909"/><stop offset="3.8%" stop-color="#cd1b09"/><stop offset="14.6%" stop-color="#c81a09"/><stop offset="30.9%" stop-color="#b51708"/><stop offset="50.0%" stop-color="#971407"/><stop offset="69.1%" stop-color="#730f05"/><stop offset="85.4%" stop-color="#6f0e05"/><stop offset="96.2%" stop-color="#6f0e05"/><stop offset="100.0%" stop-color="#6f0e05"/></linearGradient><linearGradient id="g24" gradientUnits="userSpaceOnUse" x1="178.35" y1="90.04" x2="148.35" y2="90.04"><stop offset="0.0%" stop-color="#c41909"/><stop offset="3.8%" stop-color="#cd1b09"/><stop offset="14.6%" stop-color="#c81a09"/><stop offset="30.9%" stop-color="#b51708"/><stop offset="50.0%" stop-color="#971407"/><stop offset="69.1%" stop-color="#730f05"/><stop offset="85.4%" stop-color="#6f0e05"/><stop offset="96.2%" stop-color="#6f0e05"/><stop offset="100.0%" stop-color="#6f0e05"/></linearGradient><linearGradient id="g25" gradientUnits="userSpaceOnUse" x1="148.35" y1="90.04" x2="178.35" y2="90.04"><stop offset="0.0%" stop-color="#c41909"/><stop offset="3.8%" stop-color="#cd1b09"/><stop offset="14.6%" stop-color="#c81a09"/><stop offset="30.9%" stop-color="#b51708"/><stop offset="50.0%" stop-color="#971407"/><stop offset="69.1%" stop-color="#730f05"/><stop offset="85.4%" stop-color="#6f0e05"/><stop offset="96.2%" stop-color="#6f0e05"/><stop offset="100.0%" stop-color="#6f0e05"/></linearGradient></defs>
<g stroke-linejoin="round">
<path d="M 21.95 93.30 L 163.35 164.00 L 163.35 112.05 L 21.95 41.35 L 21.95 93.30 Z" fill="#ab1608" fill-rule="evenodd" stroke="#ab1608" stroke-width="0.8"/>
<path d="M 96.10 7.72 L 92.65 6.00 L 89.21 7.72 A 15.00 7.50 180.00 0 1 96.10 7.72 Z M 113.00 41.35 L 113.00 36.53 L 113.00 32.69 A 15.00 7.50 -180.00 0 1 131.45 25.40 L 107.24 13.30 A 15.00 7.50 180.00 0 1 107.65 15.02 L 107.65 23.68 A 15.00 7.50 -180.00 0 1 77.65 23.68 L 77.65 15.02 A 15.00 7.50 180.00 0 1 78.06 13.30 L 53.86 25.39 A 15.00 7.50 -180.00 0 1 72.30 32.69 L 72.30 41.35 A 15.00 7.50 -180.00 0 1 56.70 48.84 A 15.00 7.50 -180.00 0 1 42.30 41.35 L 42.30 32.69 A 15.00 7.50 -180.00 0 1 42.71 30.97 L 21.95 41.35 L 163.35 112.05 L 234.05 76.70 L 213.29 66.32 A 15.00 7.50 -180.00 0 1 213.70 68.04 L 213.70 76.70 A 15.00 7.50 180.00 0 1 198.09 84.19 A 15.00 7.50 180.00 0 1 183.70 76.70 L 183.70 68.04 A 15.00 7.50 -180.00 0 1 202.15 60.75 L 177.94 48.65 A 15.00 7.50 180.00 0 1 178.35 50.37 L 178.35 59.02 A 15.00 7.50 -180.00 0 1 148.35 59.02 L 148.35 50.37 A 15.00 7.50 180.00 0 1 166.80 43.07 L 142.59 30.97 A 15.00 7.50 -180.00 0 1 143.00 32.69 L 143.00 41.35 A 15.00 7.50 180.00 0 1 127.40 48.84 A 15.00 7.50 180.00 0 1 113.00 41.35 Z M 148.35 94.37 L 148.35 89.55 L 148.35 85.71 A 15.00 7.50 180.00 0 1 148.40 85.11 A 15.00 7.50 -180.00 0 1 178.30 85.11 A 15.00 7.50 180.00 0 1 178.35 85.71 L 178.35 94.37 A 15.00 7.50 180.00 0 1 148.35 94.37 Z M 113.00 76.70 L 113.00 68.04 A 15.00 7.50 180.00 0 1 113.05 67.44 A 15.00 7.50 -180.00 0 1 142.95 67.44 A 15.00 7.50 180.00 0 1 143.00 68.04 L 143.00 76.70 A 15.00 7.50 -180.00 0 1 127.40 84.19 A 15.00 7.50 -180.00 0 1 113.00 76.70 Z M 107.60 49.76 A 15.00 7.50 -180.00 0 1 107.65 50.37 L 107.65 59.02 A 15.00 7.50 180.00 0 1 77.65 59.02 L 77.65 50.37 A 15.00 7.50 -180.00 0 1 77.70 49.76 A 15.00 7.50 180.00 0 1 107.60 49.76 Z" fill="#ff220c" fill-rule="evenodd" stroke="#ff220c" stroke-width="0.8"/>
<path d="M 69.90 29.70 L 69.99 29.69 L 70.08 29.68 L 70.17 29.66 L 70.25 29.63 L 70.33 29.59 L 70.40 29.55 L 70.47 29.49 L 70.54 29.43 L 70.60 29.37 L 70.65 29.30 A 15.00 7.50 -180.00 0 0 69.75 28.52 L 69.90 28.64 L 69.90 29.70 L 69.90 29.70 Z" fill="url(#g2)" fill-rule="evenodd" stroke="url(#g2)" stroke-width="0.8"/>
<path d="M 72.30 41.35 L 72.30 32.69 A 15.00 7.50 -180.00 0 1 57.12 40.19 A 15.00 7.50 -180.00 0 1 42.30 32.69 L 42.30 41.35 A 15.00 7.50 -180.00 0 0 57.91 48.84 A 15.00 7.50 -180.00 0 0 72.30 41.35 Z" fill="url(#g3)" fill-rule="evenodd" stroke="url(#g3)" stroke-width="0.8"/>
<path d="M 70.65 29.30 L 70.65 29.30 L 70.60 29.37 L 70.54 29.43 L 70.47 29.49 L 70.40 29.55 L 70.33 29.59 L 70.25 29.63 L 70.17 29.66 L 70.08 29.68 L 69.99 29.69 L 69.90 29.70 L 69.90 28.64 A 15.00 7.50 -180.00 0 0 68.41 27.66 L 67.80 27.66 L 67.80 27.60 L 67.81 27.51 L 67.82 27.42 L 67.84 27.36 A 15.00 7.50 -180.00 0 0 45.46 37.29 A 15.00 7.50 -180.00 0 0 70.65 29.30 Z" fill="#ff220c" fill-rule="evenodd" stroke="#ff220c" stroke-width="0.8"/>
<path d="M 104.05 47.37 L 105.25 47.37 L 105.34 47.37 L 105.43 47.35 L 105.51 47.33 L 105.60 47.30 L 105.68 47.27 L 105.75 47.22 L 105.82 47.17 L 105.89 47.11 L 105.95 47.04 L 106.00 46.97 A 15.00 7.50 180.00 0 0 105.09 46.18 L 105.25 46.32 L 105.25 47.37 L 104.05 47.37 L 104.05 47.37 L 104.05 47.37 Z" fill="url(#g5)" fill-rule="evenodd" stroke="url(#g5)" stroke-width="0.8"/>
<path d="M 105.25 12.02 L 105.34 12.02 L 105.43 12.01 L 105.51 11.98 L 105.60 11.95 L 105.68 11.92 L 105.75 11.87 L 105.82 11.82 L 105.89 11.76 L 105.95 11.69 L 106.00 11.62 A 15.00 7.50 180.00 0 0 105.09 10.83 L 105.25 10.97 L 105.25 12.02 L 105.25 12.02 Z" fill="url(#g6)" fill-rule="evenodd" stroke="url(#g6)" stroke-width="0.8"/>
<path d="M 107.65 23.68 L 107.65 15.02 A 15.00 7.50 180.00 0 1 77.65 15.02 L 77.65 23.68 A 15.00 7.50 -180.00 0 0 107.65 23.68 Z" fill="url(#g7)" fill-rule="evenodd" stroke="url(#g7)" stroke-width="0.8"/>
<path d="M 106.00 11.62 L 106.00 11.62 L 105.95 11.69 L 105.89 11.76 L 105.82 11.82 L 105.75 11.87 L 105.68 11.92 L 105.60 11.95 L 105.51 11.98 L 105.43 12.01 L 105.34 12.02 L 105.25 12.02 L 105.25 10.97 A 15.00 7.50 180.00 0 0 103.76 9.99 L 103.15 9.99 L 103.15 9.92 L 103.16 9.84 L 103.17 9.75 L 103.19 9.69 A 15.00 7.50 180.00 0 0 80.81 19.62 A 15.00 7.50 180.00 0 0 106.00 11.62 Z" fill="#ff220c" fill-rule="evenodd" stroke="#ff220c" stroke-width="0.8"/>
<path d="M 140.60 29.70 L 140.69 29.69 L 140.78 29.68 L 140.86 29.66 L 140.95 29.63 L 141.03 29.59 L 141.10 29.55 L 141.17 29.49 L 141.24 29.43 L 141.30 29.37 L 141.35 29.30 A 15.00 7.50 -180.00 0 0 140.15 28.30 A 15.00 7.50 -180.00 0 1 140.60 28.64 L 140.60 29.70 L 140.60 29.70 Z" fill="url(#g9)" fill-rule="evenodd" stroke="url(#g9)" stroke-width="0.8"/>
<path d="M 143.00 41.35 L 143.00 32.69 A 15.00 7.50 -180.00 0 1 127.81 40.19 A 15.00 7.50 -180.00 0 1 113.00 32.69 L 113.00 41.35 A 15.00 7.50 180.00 0 0 128.60 48.84 A 15.00 7.50 180.00 0 0 143.00 41.35 Z" fill="url(#g10)" fill-rule="evenodd" stroke="url(#g10)" stroke-width="0.8"/>
<path d="M 141.35 29.30 L 141.35 29.30 L 141.30 29.37 L 141.24 29.43 L 141.17 29.49 L 141.10 29.55 L 141.03 29.59 L 140.95 29.63 L 140.86 29.66 L 140.78 29.68 L 140.69 29.69 L 140.60 29.70 L 140.60 28.64 A 15.00 7.50 -180.00 0 0 139.11 27.66 L 138.50 27.66 L 138.50 27.60 L 138.51 27.51 L 138.52 27.42 L 138.53 27.36 A 15.00 7.50 -180.00 0 0 116.16 37.29 A 15.00 7.50 -180.00 0 0 141.35 29.30 Z" fill="#ff220c" fill-rule="evenodd" stroke="#ff220c" stroke-width="0.8"/>
<path d="M 176.04 47.37 L 176.13 47.35 L 176.21 47.33 L 176.30 47.30 L 176.38 47.27 L 176.45 47.22 L 176.52 47.17 L 176.59 47.11 L 176.65 47.04 L 176.70 46.97 A 15.00 7.50 180.00 0 0 174.89 45.58 A 15.00 7.50 180.00 0 1 175.95 46.32 L 175.95 47.37 L 176.04 47.37 Z" fill="url(#g12)" fill-rule="evenodd" stroke="url(#g12)" stroke-width="0.8"/>
<path d="M 178.35 59.02 L 178.35 50.37 A 15.00 7.50 180.00 0 1 163.16 57.86 A 15.00 7.50 180.00 0 1 148.35 50.37 L 148.35 59.02 A 15.00 7.50 -180.00 0 0 178.35 59.02 Z" fill="url(#g13)" fill-rule="evenodd" stroke="url(#g13)" stroke-width="0.8"/>
<path d="M 176.70 46.97 L 176.70 46.97 L 176.65 47.04 L 176.59 47.11 L 176.52 47.17 L 176.45 47.22 L 176.38 47.27 L 176.30 47.30 L 176.21 47.33 L 176.13 47.35 L 176.04 47.37 L 175.95 47.37 L 175.95 46.32 A 15.00 7.50 180.00 0 0 174.46 45.34 L 173.85 45.34 L 173.85 45.27 L 173.86 45.18 L 173.87 45.10 L 173.88 45.04 A 15.00 7.50 180.00 0 0 151.51 54.97 A 15.00 7.50 180.00 0 0 176.70 46.97 Z" fill="#ff220c" fill-rule="evenodd" stroke="#ff220c" stroke-width="0.8"/>
<path d="M 107.65 59.02 L 107.65 50.37 A 15.00 7.50 180.00 0 1 77.68 50.69 L 77.65 50.37 L 77.65 59.02 A 15.00 7.50 180.00 0 0 107.65 59.02 Z" fill="url(#g15)" fill-rule="evenodd" stroke="url(#g15)" stroke-width="0.8"/>
<path d="M 106.00 46.97 L 106.00 46.97 L 105.95 47.04 L 105.89 47.11 L 105.82 47.17 L 105.75 47.22 L 105.68 47.27 L 105.60 47.30 L 105.51 47.33 L 105.43 47.35 L 105.34 47.37 L 105.25 47.37 L 105.25 46.32 A 15.00 7.50 180.00 0 0 103.76 45.34 L 103.15 45.34 L 103.15 45.27 L 103.16 45.18 L 103.17 45.10 L 103.19 45.04 A 15.00 7.50 180.00 0 0 80.81 54.97 A 15.00 7.50 180.00 0 0 106.00 46.97 Z" fill="#ff220c" fill-rule="evenodd" stroke="#ff220c" stroke-width="0.8"/>
<path d="M 210.10 65.05 L 211.30 65.05 L 211.39 65.04 L 211.48 65.03 L 211.56 65.01 L 211.65 64.98 L 211.73 64.94 L 211.80 64.90 L 211.87 64.84 L 211.94 64.78 L 212.00 64.72 L 212.05 64.65 A 15.00 7.50 -180.00 0 0 210.07 63.15 A 15.00 7.50 -180.00 0 1 211.30 63.99 L 211.30 65.05 L 210.10 65.05 L 210.10 65.05 L 210.10 65.05 Z" fill="url(#g17)" fill-rule="evenodd" stroke="url(#g17)" stroke-width="0.8"/>
<path d="M 139.40 65.05 L 140.60 65.05 L 140.69 65.04 L 140.78 65.03 L 140.86 65.01 L 140.95 64.98 L 141.03 64.94 L 141.10 64.90 L 141.17 64.84 L 141.24 64.78 L 141.30 64.72 L 141.35 64.65 A 15.00 7.50 -180.00 0 0 139.37 63.15 A 15.00 7.50 -180.00 0 1 140.60 63.99 L 140.60 65.05 L 139.40 65.05 L 139.40 65.05 L 139.40 65.05 Z" fill="url(#g18)" fill-rule="evenodd" stroke="url(#g18)" stroke-width="0.8"/>
<path d="M 234.05 76.70 L 163.35 112.05 L 163.35 164.00 L 234.05 128.65 L 234.05 76.70 Z" fill="#791005" fill-rule="evenodd" stroke="#791005" stroke-width="0.8"/>
<path d="M 213.70 76.70 L 213.70 68.04 A 15.00 7.50 -180.00 0 1 183.70 68.04 L 183.70 76.70 A 15.00 7.50 180.00 0 0 199.30 84.19 A 15.00 7.50 180.00 0 0 213.70 76.70 Z" fill="url(#g20)" fill-rule="evenodd" stroke="url(#g20)" stroke-width="0.8"/>
<path d="M 212.05 64.64 L 212.05 64.65 L 212.00 64.72 L 211.94 64.78 L 211.87 64.84 L 211.80 64.89 L 211.72 64.94 L 211.65 64.98 L 211.56 65.01 L 211.48 65.03 L 211.39 65.04 L 211.30 65.05 L 211.30 63.99 A 15.00 7.50 -180.00 0 0 209.81 63.01 L 209.20 63.01 L 209.20 62.95 L 209.21 62.86 L 209.22 62.77 L 209.23 62.71 A 15.00 7.50 -180.00 0 0 186.86 72.64 A 15.00 7.50 -180.00 0 0 212.05 64.64 Z" fill="#ff220c" fill-rule="evenodd" stroke="#ff220c" stroke-width="0.8"/>
<path d="M 143.00 76.70 L 143.00 68.04 A 15.00 7.50 -180.00 0 1 113.03 68.36 L 113.00 68.04 L 113.00 76.70 A 15.00 7.50 -180.00 0 0 128.60 84.19 A 15.00 7.50 -180.00 0 0 143.00 76.70 Z" fill="url(#g22)" fill-rule="evenodd" stroke="url(#g22)" stroke-width="0.8"/>
<path d="M 141.35 64.64 L 141.35 64.65 L 141.30 64.72 L 141.24 64.78 L 141.17 64.84 L 141.10 64.89 L 141.03 64.94 L 140.95 64.98 L 140.86 65.01 L 140.78 65.03 L 140.69 65.04 L 140.60 65.05 L 140.60 63.99 A 15.00 7.50 -180.00 0 0 139.11 63.01 L 138.50 63.01 L 138.50 62.95 L 138.51 62.86 L 138.52 62.77 L 138.53 62.71 A 15.00 7.50 -180.00 0 0 116.16 72.64 A 15.00 7.50 -180.00 0 0 141.35 64.64 Z" fill="#ff220c" fill-rule="evenodd" stroke="#ff220c" stroke-width="0.8"/>
<path d="M 173.86 80.53 L 173.85 80.62 L 173.85 81.82 L 173.86 81.91 L 173.87 82.00 L 173.89 82.08 L 173.92 82.17 L 173.96 82.25 L 174.00 82.32 L 174.06 82.39 L 174.12 82.46 L 174.18 82.52 L 174.25 82.57 L 174.33 82.62 L 174.41 82.65 L 174.49 82.68 L 174.58 82.70 L 174.66 82.72 L 174.75 82.72 L 175.95 82.72 L 176.04 82.72 L 176.13 82.70 L 176.21 82.68 L 176.30 82.65 L 176.38 82.62 L 176.45 82.57 L 176.52 82.52 L 176.59 82.46 L 176.65 82.39 L 176.70 82.32 A 15.00 7.50 -180.00 0 0 173.89 80.38 L 173.87 80.45 L 173.86 80.53 Z" fill="url(#g24)" fill-rule="evenodd" stroke="url(#g24)" stroke-width="0.8"/>
<path d="M 178.35 94.37 L 178.35 85.71 A 15.00 7.50 -180.00 0 1 148.38 86.03 L 148.35 85.71 L 148.35 94.37 A 15.00 7.50 180.00 0 0 178.35 94.37 Z" fill="url(#g25)" fill-rule="evenodd" stroke="url(#g25)" stroke-width="0.8"/>
<path d="M 176.70 82.32 L 176.70 82.32 L 176.65 82.39 L 176.59 82.46 L 176.52 82.52 L 176.45 82.57 L 176.38 82.62 L 176.30 82.65 L 176.21 82.68 L 176.13 82.70 L 176.04 82.72 L 175.95 82.72 L 174.75 82.72 L 174.66 82.72 L 174.58 82.70 L 174.49 82.68 L 174.41 82.65 L 174.33 82.62 L 174.25 82.57 L 174.18 82.52 L 174.12 82.46 L 174.06 82.39 L 174.00 82.32 L 173.96 82.25 L 173.92 82.17 L 173.89 82.08 L 173.87 82.00 L 173.86 81.91 L 173.85 81.82 L 173.85 80.62 L 173.86 80.53 L 173.87 80.45 L 173.88 80.39 A 15.00 7.50 -180.00 0 0 151.51 90.32 A 15.00 7.50 -180.00 0 0 176.70 82.32 Z" fill="#ff220c" fill-rule="evenodd" stroke="#ff220c" stroke-width="0.8"/>
</g>
<g stroke="black" fill="none" stroke-linecap="round">
<line x1="213.70" y1="68.04" x2="213.70" y2="76.70" stroke-width="2.00"/>
<line x1="183.70" y1="68.04" x2="183.70" y2="76.70" stroke-width="2.00"/>
<line x1="178.35" y1="50.37" x2="178.35" y2="59.02" stroke-width="2.00"/>
<line x1="178.35" y1="85.71" x2="178.35" y2="94.37" stroke-width="2.00"/>
<line x1="148.35" y1="50.37" x2="148.35" y2="59.02" stroke-width="2.00"/>
<line x1="148.35" y1="85.71" x2="148.35" y2="94.37" stroke-width="2.00"/>
<line x1="143.00" y1="32.69" x2="143.00" y2="41.35" stroke-width="2.00"/>
<line x1="143.00" y1="68.04" x2="143.00" y2="76.70" stroke-width="2.00"/>
<line x1="113.00" y1="32.69" x2="113.00" y2="41.35" stroke-width="2.00"/>
<line x1="113.00" y1="68.04" x2="113.00" y2="76.70" stroke-width="2.00"/>
<line x1="107.65" y1="15.02" x2="107.65" y2="23.67" stroke-width="2.00"/>
<line x1="107.65" y1="50.37" x2="107.65" y2="59.02" stroke-width="2.00"/>
<line x1="77.65" y1="15.02" x2="77.65" y2="23.67" stroke-width="2.00"/>
<line x1="77.65" y1="50.37" x2="77.65" y2="59.02" stroke-width="2.00"/>
<line x1="72.30" y1="32.69" x2="72.30" y2="41.35" stroke-width="2.00"/>
<line x1="42.30" y1="32.69" x2="42.30" y2="41.35" stroke-width="2.00"/>
<line x1="163.35" y1="112.05" x2="234.05" y2="76.70" stroke-width="2.00"/>
<line x1="21.95" y1="41.35" x2="42.64" y2="31.01" stroke-width="2.00"/>
<line x1="53.92" y1="25.37" x2="77.98" y2="13.33" stroke-width="2.00"/>
<line x1="89.27" y1="7.69" x2="92.65" y2="6.00" stroke-width="2.00"/>
<line x1="163.35" y1="164.00" x2="234.05" y2="128.65" stroke-width="2.00"/>
<line x1="21.95" y1="41.35" x2="163.35" y2="112.05" stroke-width="2.00"/>
<line x1="92.65" y1="6.00" x2="96.03" y2="7.69" stroke-width="2.00"/>
<line x1="107.28" y1="13.31" x2="131.28" y2="25.32" stroke-width="2.00"/>
<line x1="142.72" y1="31.04" x2="166.72" y2="43.04" stroke-width="2.00"/>
<line x1="177.98" y1="48.66" x2="201.98" y2="60.66" stroke-width="2.00"/>
<line x1="213.42" y1="66.38" x2="234.05" y2="76.70" stroke-width="2.00"/>
<line x1="163.35" y1="112.05" x2="163.35" y2="164.00" stroke-width="2.00"/>
<line x1="21.95" y1="41.35" x2="21.95" y2="93.30" stroke-width="2.00"/>
<line x1="234.05" y1="76.70" x2="234.05" y2="128.65" stroke-width="2.00"/>
<line x1="21.95" y1="93.30" x2="163.35" y2="164.00" stroke-width="2.00"/>
<path d="M 213.70 76.75 A 15.00 7.50 180.00 0 1 183.70 76.71" stroke-width="2.00"/>
<path d="M 209.30 73.34 A 15.00 7.50 -180.00 0 0 188.09 62.74 A 15.00 7.50 -180.00 0 0 209.30 73.34" stroke-width="2.00"/>
<path d="M 178.35 59.07 A 15.00 7.50 -180.00 0 1 148.35 59.04" stroke-width="2.00"/>
<path d="M 173.95 55.67 A 15.00 7.50 180.00 0 0 152.74 45.06 A 15.00 7.50 180.00 0 0 173.95 55.67" stroke-width="2.00"/>
<path d="M 143.00 41.40 A 15.00 7.50 180.00 0 1 113.00 41.37" stroke-width="2.00"/>
<path d="M 138.60 37.99 A 15.00 7.50 -180.00 0 0 117.40 27.39 A 15.00 7.50 -180.00 0 0 138.60 37.99" stroke-width="2.00"/>
<path d="M 107.65 23.72 A 15.00 7.50 -180.00 0 1 77.65 23.69" stroke-width="2.00"/>
<path d="M 103.26 20.32 A 15.00 7.50 180.00 0 0 82.05 9.71 A 15.00 7.50 180.00 0 0 103.26 20.32" stroke-width="2.00"/>
<path d="M 178.35 94.42 A 15.00 7.50 180.00 0 1 148.35 94.39" stroke-width="2.00"/>
<path d="M 173.95 91.02 A 15.00 7.50 -180.00 0 0 152.74 80.41 A 15.00 7.50 -180.00 0 0 173.95 91.02" stroke-width="2.00"/>
<path d="M 143.00 76.75 A 15.00 7.50 -180.00 0 1 113.00 76.71" stroke-width="2.00"/>
<path d="M 138.60 73.34 A 15.00 7.50 -180.00 0 0 117.40 62.74 A 15.00 7.50 -180.00 0 0 138.60 73.34" stroke-width="2.00"/>
<path d="M 107.65 59.07 A 15.00 7.50 180.00 0 1 77.65 59.04" stroke-width="2.00"/>
<path d="M 103.26 55.67 A 15.00 7.50 180.00 0 0 82.05 45.06 A 15.00 7.50 180.00 0 0 103.26 55.67" stroke-width="2.00"/>
<path d="M 72.30 41.40 A 15.00 7.50 -180.00 0 1 42.30 41.37" stroke-width="2.00"/>
<path d="M 67.91 37.99 A 15.00 7.50 -180.00 0 0 46.70 27.39 A 15.00 7.50 -180.00 0 0 67.91 37.99" stroke-width="2.00"/>
</g>
</svg>