<svg xmlns="http://www.w3.org/2000/svg" viewBox="0 0 256 170" preserveAspectRatio="xMidYMid meet">
<defs><linearGradient id="g2" gradientUnits="userSpaceOnUse" x1="42.30" y1="37.02" x2="72.30" y2="37.02"><stop offset="0.0%" stop-color="#c41909"/><stop offset="3.8%" stop-color="#cd1b09"/><stop offset="14.6%" stop-color="#c81a09"/><stop offset="30.9%" stop-color="#b51708"/><stop offset="50.0%" stop-color="#971407"/><stop offset="69.1%" stop-color="#730f05"/><stop offset="85.4%" stop-color="#6f0e05"/><stop offset="96.2%" stop-color="#6f0e05"/><stop offset="100.0%" stop-color="#6f0e05"/></linearGradient><linearGradient id="g4" gradientUnits="userSpaceOnUse" x1="77.65" y1="19.35" x2="107.65" y2="19.35"><stop offset="0.0%" stop-color="#c41909"/><stop offset="3.8%" stop-color="#cd1b09"/><stop offset="14.6%" stop-color="#c81a09"/><stop offset="30.9%" stop-color="#b51708"/><stop offset="50.0%" stop-color="#971407"/><stop offset="69.1%" stop-color="#730f05"/><stop offset="85.4%" stop-color="#6f0e05"/><stop offset="96.2%" stop-color="#6f0e05"/><stop offset="100.0%" stop-color="#6f0e05"/></linearGradient><linearGradient id="g6" gradientUnits="userSpaceOnUse" x1="113.00" y1="37.02" x2="143.00" y2="37.02"><stop offset="0.0%" stop-color="#c41909"/><stop offset="3.8%" stop-color="#cd1b09"/><stop offset="14.6%" stop-color="#c81a09"/><stop offset="30.9%" stop-color="#b51708"/><stop offset="50.0%" stop-color="#971407"/><stop offset="69.1%" stop-color="#730f05"/><stop offset="85.4%" stop-color="#6f0e05"/><stop offset="96.2%" stop-color="#6f0e05"/><stop offset="100.0%" stop-color="#6f0e05"/></linearGradient><linearGradient id="g8" gradientUnits="userSpaceOnUse" x1="148.35" y1="54.69" x2="178.35" y2="54.69"><stop offset="0.0%" stop-color="#c41909"/><stop offset="3.8%" stop-color="#cd1b09"/><stop offset="14.6%" stop-color="#c81a09"/><stop offset="30.9%" stop-color="#b51708"/><stop offset="50.0%" stop-color="#971407"/><stop offset="69.1%" stop-color="#730f05"/><stop offset="85.4%" stop-color="#6f0e05"/><stop offset="96.2%" stop-color="#6f0e05"/><stop offset="100.0%" stop-color="#6f0e05"/></linearGradient><linearGradient id="g10" gradientUnits="userSpaceOnUse" x1="77.65" y1="54.69" x2="107.65" y2="54.69"><stop offset="0.0%" stop-color="#c41909"/><stop offset="3.8%" stop-color="#cd1b09"/><stop offset="14.6%" stop-color="#c81a09"/><stop offset="30.9%" stop-color="#b51708"/><stop offset="50.0%" stop-color="#971407"/><stop offset="69.1%" stop-color="#730f05"/><stop offset="85.4%" stop-color="#6f0e05"/><stop offset="96.2%" stop-color="#6f0e05"/><stop offset="100.0%" stop-color="#6f0e05"/></linearGradient><linearGradient id="g13" gradientUnits="userSpaceOnUse" x1="183.70" y1="72.37" x2="213.70" y2="72.37"><stop offset="0.0%" stop-color="#c41909"/><stop offset="3.8%" stop-color="#cd1b09"/><stop offset="14.6%" stop-color="#c81a09"/><stop offset="30.9%" stop-color="#b51708"/><stop offset="50.0%" stop-color="#971407"/><stop offset="69.1%" stop-color="#730f05"/><stop offset="85.4%" stop-color="#6f0e05"/><stop offset="96.2%" stop-color="#6f0e05"/><stop offset="100.0%" stop-color="#6f0e05"/></linearGradient><linearGradient id="g15" gradientUnits="userSpaceOnUse" x1="113.00" y1="72.37" x2="143.00" y2="72.37"><stop offset="0.0%" stop-color="#c41909"/><stop offset="3.8%" stop-color="#cd1b09"/><stop offset="14.6%" stop-color="#c81a09"/><stop offset="30.9%" stop-color="#b51708"/><stop offset="50.0%" stop-color="#971407"/><stop offset="69.1%" stop-color="#730f05"/><stop offset="85.4%" stop-color="#6f0e05"/><stop offset="96.2%" stop-color="#6f0e05"/><stop offset="100.0%" stop-color="#6f0e05"/></linearGradient><linearGradient id="g17" gradientUnits="userSpaceOnUse" x1="148.35" y1="90.04" x2="178.35" y2="90.04"><stop offset="0.0%" stop-color="#c41909"/><stop offset="3.8%" stop-color="#cd1b09"/><stop offset="14.6%" stop-color="#c81a09"/><stop offset="30.9%" stop-color="#b51708"/><stop offset="50.0%" stop-color="#971407"/><stop offset="69.1%" stop-color="#730f05"/><stop offset="85.4%" stop-color="#6f0e05"/><stop offset="96.2%" stop-color="#6f0e05"/><stop offset="100.0%" stop-color="#6f0e05"/></linearGradient></defs>
<g stroke-linejoin="round">
<path d="M 163.35 164.00 L 163.35 112.05 L 21.95 41.35 L 21.95 93.30 L 163.35 164.00 Z" fill="#ab1608" fill-rule="evenodd" stroke="#ab1608" stroke-width="0.8"/>
<path d="M 113.00 41.35 L 113.00 36.53 L 113.00 32.69 A 15.00 7.50 -180.00 0 1 127.61 25.20 A 15.00 7.50 -180.00 0 1 131.45 25.40 L 107.24 13.30 A 15.00 7.50 180.00 0 1 107.65 15.02 L 107.65 23.68 A 15.00 7.50 -180.00 0 1 93.25 31.17 A 15.00 7.50 -180.00 0 1 77.70 24.28 A 15.00 7.50 -180.00 0 1 77.65 23.68 L 77.65 15.02 A 15.00 7.50 180.00 0 1 78.06 13.30 L 53.86 25.39 A 15.00 7.50 -180.00 0 1 71.86 30.90 A 15.00 7.50 -180.00 0 1 72.30 32.69 L 72.30 41.35 A 15.00 7.50 -180.00 0 1 57.91 48.84 A 15.00 7.50 -180.00 0 1 42.35 41.95 A 15.00 7.50 -180.00 0 1 42.30 41.35 L 42.30 32.69 A 15.00 7.50 -180.00 0 1 42.71 30.97 L 21.95 41.35 L 163.35 112.05 L 234.05 76.70 L 213.29 66.32 A 15.00 7.50 -180.00 0 1 213.70 68.04 L 213.70 76.70 A 15.00 7.50 180.00 0 1 199.30 84.19 A 15.00 7.50 180.00 0 1 183.75 77.30 A 15.00 7.50 180.00 0 1 183.70 76.70 L 183.70 68.04 A 15.00 7.50 -180.00 0 1 198.30 60.55 A 15.00 7.50 -180.00 0 1 202.15 60.75 L 177.94 48.65 A 15.00 7.50 180.00 0 1 178.35 50.37 L 178.35 59.02 A 15.00 7.50 -180.00 0 1 163.95 66.52 A 15.00 7.50 -180.00 0 1 148.40 59.63 A 15.00 7.50 -180.00 0 1 148.35 59.02 L 148.35 50.37 A 15.00 7.50 180.00 0 1 162.79 42.87 A 15.00 7.50 180.00 0 1 166.80 43.07 L 142.59 30.97 A 15.00 7.50 -180.00 0 1 143.00 32.69 L 143.00 41.35 A 15.00 7.50 180.00 0 1 128.60 48.84 A 15.00 7.50 180.00 0 1 113.05 41.95 A 15.00 7.50 180.00 0 1 113.00 41.35 Z M 148.35 89.55 L 148.35 85.71 L 148.37 85.92 A 15.00 7.50 180.00 0 1 148.36 85.11 A 15.00 7.50 -180.00 0 1 164.28 78.23 A 15.00 7.50 -180.00 0 1 178.30 85.11 A 15.00 7.50 180.00 0 1 178.33 85.92 L 178.35 85.71 L 178.35 94.37 A 15.00 7.50 180.00 0 1 163.95 101.87 A 15.00 7.50 180.00 0 1 148.40 94.98 A 15.00 7.50 180.00 0 1 148.35 94.37 L 148.35 89.55 Z M 113.00 76.70 L 113.00 68.04 L 113.02 68.25 A 15.00 7.50 180.00 0 1 113.01 67.44 A 15.00 7.50 -180.00 0 1 129.02 60.56 A 15.00 7.50 -180.00 0 1 142.95 67.44 A 15.00 7.50 180.00 0 1 142.98 68.25 L 143.00 68.04 L 143.00 76.70 A 15.00 7.50 -180.00 0 1 128.60 84.19 A 15.00 7.50 -180.00 0 1 113.05 77.30 A 15.00 7.50 -180.00 0 1 113.00 76.70 Z M 107.60 49.76 A 15.00 7.50 -180.00 0 1 107.63 50.57 L 107.65 50.37 L 107.65 59.02 A 15.00 7.50 180.00 0 1 93.25 66.52 A 15.00 7.50 180.00 0 1 77.70 59.63 A 15.00 7.50 180.00 0 1 77.65 59.02 L 77.65 50.37 L 77.67 50.57 A 15.00 7.50 -180.00 0 1 77.66 49.76 A 15.00 7.50 180.00 0 1 93.58 42.88 A 15.00 7.50 180.00 0 1 107.60 49.76 Z" fill="#ff220c" fill-rule="evenodd" stroke="#ff220c" stroke-width="0.8"/>
<path d="M 72.30 41.35 L 72.30 32.69 A 15.00 7.50 -180.00 0 1 57.44 40.18 A 15.00 7.50 -180.00 0 1 42.33 33.00 A 15.00 7.50 -180.00 0 1 42.30 32.69 L 42.30 41.35 A 15.00 7.50 -180.00 0 0 56.70 48.84 A 15.00 7.50 -180.00 0 0 72.25 41.95 A 15.00 7.50 -180.00 0 0 72.30 41.35 Z" fill="url(#g2)" fill-rule="evenodd" stroke="url(#g2)" stroke-width="0.8"/>
<path d="M 70.65 29.30 L 70.65 29.30 L 70.60 29.37 L 70.54 29.43 L 70.47 29.49 L 70.40 29.55 L 70.33 29.59 L 70.25 29.63 L 70.17 29.66 L 70.08 29.68 L 69.99 29.69 L 69.90 29.70 L 69.90 28.64 A 15.00 7.50 -180.00 0 0 68.41 27.66 L 67.80 27.66 L 67.80 27.60 L 67.81 27.51 L 67.82 27.42 L 67.84 27.36 A 15.00 7.50 -180.00 0 0 47.24 27.13 A 15.00 7.50 -180.00 0 0 45.46 37.29 A 15.00 7.50 -180.00 0 0 65.59 38.94 A 15.00 7.50 -180.00 0 0 70.65 29.30 Z" fill="#ff220c" fill-rule="evenodd" stroke="#ff220c" stroke-width="0.8"/>
<path d="M 107.65 23.68 L 107.65 15.02 A 15.00 7.50 180.00 0 1 92.78 22.51 A 15.00 7.50 180.00 0 1 77.68 15.34 A 15.00 7.50 180.00 0 1 77.65 15.02 L 77.65 23.68 A 15.00 7.50 -180.00 0 0 92.05 31.17 A 15.00 7.50 -180.00 0 0 107.60 24.28 A 15.00 7.50 -180.00 0 0 107.65 23.68 Z" fill="url(#g4)" fill-rule="evenodd" stroke="url(#g4)" stroke-width="0.8"/>
<path d="M 106.00 11.62 L 106.00 11.62 L 105.95 11.69 L 105.89 11.76 L 105.82 11.82 L 105.75 11.87 L 105.68 11.92 L 105.60 11.95 L 105.51 11.98 L 105.43 12.01 L 105.34 12.02 L 105.25 12.02 L 105.25 10.97 A 15.00 7.50 180.00 0 0 103.76 9.99 L 103.15 9.99 L 103.15 9.92 L 103.16 9.84 L 103.17 9.75 L 103.19 9.69 A 15.00 7.50 180.00 0 0 82.59 9.46 A 15.00 7.50 180.00 0 0 80.81 19.62 A 15.00 7.50 180.00 0 0 100.94 21.26 A 15.00 7.50 180.00 0 0 106.00 11.62 Z" fill="#ff220c" fill-rule="evenodd" stroke="#ff220c" stroke-width="0.8"/>
<path d="M 143.00 41.35 L 143.00 32.69 A 15.00 7.50 -180.00 0 1 128.13 40.18 A 15.00 7.50 -180.00 0 1 113.03 33.01 A 15.00 7.50 -180.00 0 1 113.00 32.69 L 113.00 41.35 A 15.00 7.50 180.00 0 0 127.40 48.84 A 15.00 7.50 180.00 0 0 142.95 41.95 A 15.00 7.50 180.00 0 0 143.00 41.35 Z" fill="url(#g6)" fill-rule="evenodd" stroke="url(#g6)" stroke-width="0.8"/>
<path d="M 141.35 29.30 L 141.35 29.30 L 141.30 29.37 L 141.24 29.43 L 141.17 29.49 L 141.10 29.55 L 141.03 29.59 L 140.95 29.63 L 140.86 29.66 L 140.78 29.68 L 140.69 29.69 L 140.60 29.70 L 140.60 28.64 A 15.00 7.50 -180.00 0 0 139.11 27.66 L 138.50 27.66 L 138.50 27.60 L 138.51 27.51 L 138.52 27.42 L 138.53 27.36 A 15.00 7.50 -180.00 0 0 117.94 27.13 A 15.00 7.50 -180.00 0 0 116.16 37.29 A 15.00 7.50 -180.00 0 0 136.29 38.94 A 15.00 7.50 -180.00 0 0 141.35 29.30 Z" fill="#ff220c" fill-rule="evenodd" stroke="#ff220c" stroke-width="0.8"/>
<path d="M 178.35 59.02 L 178.35 50.37 A 15.00 7.50 180.00 0 1 163.43 57.86 A 15.00 7.50 180.00 0 1 148.38 50.68 A 15.00 7.50 180.00 0 1 148.35 50.37 L 148.35 59.02 A 15.00 7.50 -180.00 0 0 162.75 66.52 A 15.00 7.50 -180.00 0 0 178.30 59.63 A 15.00 7.50 -180.00 0 0 178.35 59.02 Z" fill="url(#g8)" fill-rule="evenodd" stroke="url(#g8)" stroke-width="0.8"/>
<path d="M 176.70 46.97 L 176.70 46.97 L 176.65 47.04 L 176.59 47.11 L 176.52 47.17 L 176.45 47.22 L 176.38 47.27 L 176.30 47.30 L 176.21 47.33 L 176.13 47.35 L 176.04 47.37 L 175.95 47.37 L 175.95 46.32 A 15.00 7.50 180.00 0 0 174.46 45.34 L 173.85 45.34 L 173.85 45.27 L 173.86 45.18 L 173.87 45.10 L 173.88 45.04 A 15.00 7.50 180.00 0 0 153.29 44.80 A 15.00 7.50 180.00 0 0 151.51 54.97 A 15.00 7.50 180.00 0 0 171.64 56.61 A 15.00 7.50 180.00 0 0 176.70 46.97 Z" fill="#ff220c" fill-rule="evenodd" stroke="#ff220c" stroke-width="0.8"/>
<path d="M 107.65 59.02 L 107.65 50.37 A 15.00 7.50 180.00 0 1 92.73 57.86 A 15.00 7.50 180.00 0 1 77.68 50.69 L 77.65 50.37 L 77.65 59.02 A 15.00 7.50 180.00 0 0 92.05 66.52 A 15.00 7.50 180.00 0 0 107.60 59.63 A 15.00 7.50 180.00 0 0 107.65 59.02 Z" fill="url(#g10)" fill-rule="evenodd" stroke="url(#g10)" stroke-width="0.8"/>
<path d="M 106.00 46.97 L 106.00 46.97 L 105.95 47.04 L 105.89 47.11 L 105.82 47.17 L 105.75 47.22 L 105.68 47.27 L 105.63 47.29 L 105.63 47.29 L 105.55 47.21 L 105.55 47.20 L 105.44 47.10 L 105.43 47.10 L 105.31 47.00 L 105.31 46.99 L 105.25 46.94 L 105.25 46.32 A 15.00 7.50 180.00 0 0 103.76 45.34 L 103.15 45.34 L 103.15 45.27 L 103.16 45.18 L 103.17 45.10 L 103.19 45.04 A 15.00 7.50 180.00 0 0 82.59 44.80 A 15.00 7.50 180.00 0 0 80.81 54.97 A 15.00 7.50 180.00 0 0 100.94 56.61 A 15.00 7.50 180.00 0 0 106.00 46.97 Z" fill="#ff220c" fill-rule="evenodd" stroke="#ff220c" stroke-width="0.8"/>
<path d="M 163.35 112.05 L 163.35 164.00 L 234.05 128.65 L 234.05 76.70 L 163.35 112.05 Z" fill="#791005" fill-rule="evenodd" stroke="#791005" stroke-width="0.8"/>
<path d="M 213.70 76.70 L 213.70 68.04 A 15.00 7.50 -180.00 0 1 198.83 75.53 A 15.00 7.50 -180.00 0 1 183.73 68.35 A 15.00 7.50 -180.00 0 1 183.70 68.04 L 183.70 76.70 A 15.00 7.50 180.00 0 0 198.09 84.19 A 15.00 7.50 180.00 0 0 213.65 77.30 A 15.00 7.50 180.00 0 0 213.70 76.70 Z" fill="url(#g13)" fill-rule="evenodd" stroke="url(#g13)" stroke-width="0.8"/>
<path d="M 212.05 64.64 L 212.05 64.65 L 212.00 64.72 L 211.94 64.78 L 211.87 64.84 L 211.80 64.89 L 211.72 64.94 L 211.68 64.96 L 211.64 64.92 L 211.62 64.91 L 211.54 64.83 L 211.53 64.83 L 211.50 64.79 L 211.49 64.79 L 211.48 64.78 L 211.47 64.77 L 211.39 64.69 L 211.39 64.69 L 211.34 64.65 L 211.33 64.65 L 211.31 64.62 L 211.30 64.62 L 211.30 63.99 A 15.00 7.50 -180.00 0 0 209.81 63.01 L 209.20 63.01 L 209.20 62.95 L 209.21 62.86 L 209.22 62.77 L 209.23 62.71 A 15.00 7.50 -180.00 0 0 188.63 62.48 A 15.00 7.50 -180.00 0 0 186.86 72.64 A 15.00 7.50 -180.00 0 0 206.99 74.29 A 15.00 7.50 -180.00 0 0 212.05 64.64 Z" fill="#ff220c" fill-rule="evenodd" stroke="#ff220c" stroke-width="0.8"/>
<path d="M 143.00 76.70 L 143.00 68.04 A 15.00 7.50 -180.00 0 1 128.13 75.53 A 15.00 7.50 -180.00 0 1 113.03 68.36 L 113.00 68.04 L 113.00 76.70 A 15.00 7.50 -180.00 0 0 127.40 84.19 A 15.00 7.50 -180.00 0 0 142.95 77.30 A 15.00 7.50 -180.00 0 0 143.00 76.70 Z" fill="url(#g15)" fill-rule="evenodd" stroke="url(#g15)" stroke-width="0.8"/>
<path d="M 141.35 64.64 L 141.35 64.65 L 141.30 64.72 L 141.24 64.78 L 141.17 64.84 L 141.10 64.89 L 141.03 64.94 L 140.98 64.96 L 140.90 64.89 L 140.90 64.88 L 140.79 64.78 L 140.78 64.77 L 140.66 64.67 L 140.66 64.67 L 140.60 64.62 L 140.60 63.99 A 15.00 7.50 -180.00 0 0 139.11 63.01 L 138.50 63.01 L 138.50 62.95 L 138.51 62.86 L 138.52 62.77 L 138.53 62.71 A 15.00 7.50 -180.00 0 0 117.94 62.48 A 15.00 7.50 -180.00 0 0 116.16 72.64 A 15.00 7.50 -180.00 0 0 136.29 74.29 A 15.00 7.50 -180.00 0 0 141.35 64.64 Z" fill="#ff220c" fill-rule="evenodd" stroke="#ff220c" stroke-width="0.8"/>
<path d="M 178.35 94.37 L 178.35 85.71 A 15.00 7.50 -180.00 0 1 163.43 93.21 A 15.00 7.50 -180.00 0 1 148.38 86.03 L 148.35 85.71 L 148.35 94.37 A 15.00 7.50 180.00 0 0 162.75 101.87 A 15.00 7.50 180.00 0 0 178.30 94.98 A 15.00 7.50 180.00 0 0 178.35 94.37 Z" fill="url(#g17)" fill-rule="evenodd" stroke="url(#g17)" stroke-width="0.8"/>
<path d="M 176.70 82.32 L 176.70 82.32 L 176.65 82.39 L 176.59 82.46 L 176.52 82.52 L 176.45 82.57 L 176.38 82.62 L 176.33 82.64 L 176.25 82.56 L 176.25 82.55 L 176.13 82.45 L 176.13 82.45 L 176.01 82.35 L 176.01 82.34 L 175.89 82.24 L 175.88 82.23 L 175.76 82.13 L 175.75 82.13 L 175.63 82.03 L 175.62 82.02 L 175.49 81.92 L 175.48 81.92 L 175.35 81.82 L 175.34 81.82 L 175.20 81.72 L 175.19 81.72 L 175.05 81.62 L 175.05 81.62 L 174.90 81.52 L 174.89 81.52 L 174.75 81.42 L 174.74 81.42 L 174.59 81.33 L 174.58 81.32 L 174.42 81.23 L 174.41 81.23 L 174.25 81.14 L 174.25 81.13 L 174.08 81.04 L 174.08 81.04 L 173.91 80.95 L 173.90 80.95 L 173.85 80.92 L 173.85 80.62 L 173.86 80.53 L 173.87 80.45 L 173.88 80.39 A 15.00 7.50 -180.00 0 0 153.29 80.15 A 15.00 7.50 -180.00 0 0 151.51 90.32 A 15.00 7.50 -180.00 0 0 171.64 91.96 A 15.00 7.50 -180.00 0 0 176.70 82.32 Z" fill="#ff220c" fill-rule="evenodd" stroke="#ff220c" stroke-width="0.8"/>
<path d="M 76.22 15.91 L 76.30 15.97 L 76.37 16.04 L 76.43 16.11 L 76.49 16.19 L 76.54 16.27 L 76.58 16.36 L 76.61 16.45 L 76.64 16.54 L 76.65 16.64 L 76.65 16.73 L 76.65 15.12 L 75.21 15.84 L 75.30 15.80 L 75.39 15.77 L 75.48 15.75 L 75.58 15.74 L 75.67 15.73 L 75.77 15.74 L 75.87 15.76 L 75.96 15.78 L 76.05 15.82 L 76.14 15.86 L 76.22 15.91 Z" fill="#000000" fill-rule="evenodd" stroke="#000000" stroke-width="0.8"/>
<path d="M 61.09 23.89 L 61.06 23.80 L 61.04 23.70 L 61.03 23.61 L 61.03 23.51 L 61.04 23.41 L 61.05 23.32 L 61.08 23.22 L 61.12 23.13 L 61.16 23.05 L 61.21 22.96 L 61.27 22.89 L 61.34 22.82 L 61.41 22.76 L 61.49 22.70 L 61.58 22.65 L 58.46 24.21 L 58.65 24.22 L 58.66 24.22 L 58.92 24.23 L 58.93 24.23 L 59.19 24.25 L 59.20 24.25 L 59.45 24.27 L 59.46 24.27 L 59.72 24.29 L 59.73 24.29 L 59.99 24.31 L 60.00 24.31 L 60.26 24.33 L 60.26 24.34 L 60.52 24.36 L 60.53 24.36 L 60.78 24.39 L 60.80 24.39 L 61.05 24.42 L 61.06 24.42 L 61.31 24.46 L 61.32 24.46 L 61.57 24.49 L 61.58 24.49 L 61.83 24.53 L 61.84 24.53 L 61.87 24.54 L 61.78 24.52 L 61.68 24.49 L 61.59 24.45 L 61.51 24.40 L 61.43 24.35 L 61.35 24.29 L 61.28 24.22 L 61.22 24.14 L 61.17 24.06 L 61.12 23.98 L 61.09 23.89 Z" fill="#000000" fill-rule="evenodd" stroke="#000000" stroke-width="0.8"/>
<path d="M 40.95 33.64 L 41.02 33.71 L 41.08 33.78 L 41.14 33.86 L 41.19 33.94 L 41.23 34.03 L 41.26 34.12 L 41.29 34.22 L 41.30 34.31 L 41.30 34.41 L 41.30 32.79 L 39.86 33.52 L 39.95 33.48 L 40.04 33.45 L 40.13 33.42 L 40.23 33.41 L 40.33 33.41 L 40.42 33.42 L 40.52 33.43 L 40.61 33.46 L 40.70 33.49 L 40.79 33.53 L 40.87 33.59 L 40.95 33.64 Z" fill="#000000" fill-rule="evenodd" stroke="#000000" stroke-width="0.8"/>
<path d="M 43.92 38.00 L 44.01 37.97 L 44.10 37.95 L 44.20 37.93 L 44.30 37.93 L 44.39 37.93 L 44.49 37.94 L 44.59 37.97 L 44.68 38.00 L 44.77 38.04 L 44.85 38.09 L 44.78 38.04 L 44.76 38.03 L 44.61 37.93 L 44.59 37.92 L 44.44 37.81 L 44.43 37.80 L 44.28 37.69 L 44.27 37.68 L 44.12 37.57 L 44.11 37.56 L 43.97 37.45 L 43.95 37.44 L 43.81 37.33 L 43.80 37.31 L 43.67 37.20 L 43.65 37.19 L 43.52 37.08 L 43.51 37.06 L 43.38 36.95 L 43.37 36.93 L 43.30 36.87 L 43.30 38.92 L 43.31 38.83 L 43.32 38.73 L 43.35 38.64 A 15.00 7.50 -180.00 0 1 43.42 38.46 L 43.47 38.37 L 43.53 38.29 L 43.59 38.22 L 43.67 38.16 L 43.74 38.10 A 15.00 7.50 -180.00 0 1 43.92 38.00 Z" fill="#000000" fill-rule="evenodd" stroke="#000000" stroke-width="0.8"/>
<path d="M 70.86 38.10 L 70.94 38.16 L 71.01 38.22 L 71.07 38.29 L 71.13 38.37 L 71.18 38.46 A 15.00 7.50 -180.00 0 1 71.26 38.64 L 71.28 38.73 L 71.29 38.83 L 71.30 38.93 L 71.30 36.87 L 71.24 36.93 L 71.22 36.95 L 71.10 37.06 L 71.08 37.08 L 70.95 37.19 L 70.94 37.20 L 70.80 37.31 L 70.79 37.33 L 70.65 37.44 L 70.64 37.45 L 70.50 37.56 L 70.48 37.57 L 70.34 37.68 L 70.32 37.69 L 70.17 37.80 L 70.16 37.81 L 70.01 37.92 L 70.00 37.93 L 69.84 38.03 L 69.83 38.04 L 69.75 38.09 L 69.84 38.04 L 69.93 38.00 L 70.02 37.97 L 70.11 37.94 L 70.21 37.93 L 70.31 37.93 L 70.41 37.93 L 70.50 37.95 L 70.60 37.97 L 70.69 38.00 A 15.00 7.50 -180.00 0 1 70.86 38.10 Z" fill="#000000" fill-rule="evenodd" stroke="#000000" stroke-width="0.8"/>
<path d="M 79.27 20.33 L 79.36 20.30 L 79.45 20.27 L 79.55 20.26 L 79.64 20.25 L 79.74 20.25 L 79.84 20.27 L 79.93 20.29 L 80.03 20.32 L 80.11 20.36 L 80.20 20.41 L 80.13 20.37 L 80.11 20.36 L 79.96 20.25 L 79.94 20.24 L 79.79 20.14 L 79.78 20.13 L 79.63 20.02 L 79.61 20.01 L 79.47 19.90 L 79.46 19.89 L 79.31 19.78 L 79.30 19.76 L 79.16 19.65 L 79.15 19.64 L 79.02 19.53 L 79.00 19.52 L 78.87 19.40 L 78.86 19.39 L 78.73 19.27 L 78.72 19.26 L 78.65 19.20 L 78.65 21.24 L 78.66 21.15 L 78.67 21.06 L 78.70 20.96 A 15.00 7.50 -180.00 0 1 78.77 20.78 L 78.82 20.70 L 78.88 20.62 L 78.94 20.55 L 79.02 20.48 L 79.09 20.42 A 15.00 7.50 -180.00 0 1 79.27 20.33 Z" fill="#000000" fill-rule="evenodd" stroke="#000000" stroke-width="0.8"/>
<path d="M 79.27 55.68 L 79.36 55.65 L 79.45 55.62 L 79.55 55.61 L 79.64 55.60 L 79.74 55.60 L 79.84 55.62 L 79.93 55.64 L 80.03 55.67 L 80.11 55.71 L 80.20 55.76 L 80.13 55.72 L 80.11 55.71 L 79.96 55.60 L 79.94 55.59 L 79.79 55.48 L 79.78 55.48 L 79.63 55.37 L 79.61 55.36 L 79.47 55.25 L 79.46 55.24 L 79.31 55.12 L 79.30 55.11 L 79.16 55.00 L 79.15 54.99 L 79.02 54.88 L 79.00 54.86 L 78.87 54.75 L 78.86 54.74 L 78.73 54.62 L 78.72 54.61 L 78.65 54.55 L 78.65 56.59 L 78.66 56.50 L 78.67 56.41 L 78.70 56.31 A 15.00 7.50 180.00 0 1 78.77 56.13 L 78.82 56.05 L 78.88 55.97 L 78.94 55.90 L 79.02 55.83 L 79.09 55.77 A 15.00 7.50 180.00 0 1 79.27 55.68 Z" fill="#000000" fill-rule="evenodd" stroke="#000000" stroke-width="0.8"/>
<path d="M 109.16 15.86 L 109.25 15.82 L 109.34 15.78 L 109.44 15.76 L 109.53 15.74 L 109.63 15.73 L 109.72 15.74 L 109.82 15.75 L 109.92 15.77 L 110.01 15.80 L 110.09 15.84 L 108.65 15.12 L 108.65 16.73 L 108.65 16.64 L 108.67 16.54 L 108.69 16.45 L 108.72 16.36 L 108.76 16.27 L 108.81 16.19 L 108.87 16.11 L 108.93 16.04 L 109.00 15.97 L 109.08 15.91 L 109.16 15.86 Z" fill="#000000" fill-rule="evenodd" stroke="#000000" stroke-width="0.8"/>
<path d="M 106.21 20.42 L 106.29 20.48 L 106.36 20.55 L 106.42 20.62 L 106.48 20.70 L 106.53 20.78 A 15.00 7.50 -180.00 0 1 106.61 20.96 L 106.63 21.06 L 106.64 21.15 L 106.65 21.25 L 106.65 19.20 L 106.58 19.26 L 106.57 19.27 L 106.44 19.39 L 106.43 19.40 L 106.30 19.52 L 106.29 19.53 L 106.15 19.64 L 106.14 19.65 L 106.00 19.76 L 105.99 19.78 L 105.85 19.89 L 105.83 19.90 L 105.69 20.01 L 105.67 20.02 L 105.52 20.13 L 105.51 20.14 L 105.36 20.24 L 105.34 20.25 L 105.19 20.36 L 105.17 20.37 L 105.10 20.41 L 105.19 20.36 L 105.28 20.32 L 105.37 20.29 L 105.46 20.27 L 105.56 20.25 L 105.66 20.25 L 105.75 20.26 L 105.85 20.27 L 105.94 20.30 L 106.04 20.33 A 15.00 7.50 -180.00 0 1 106.21 20.42 Z" fill="#000000" fill-rule="evenodd" stroke="#000000" stroke-width="0.8"/>
<path d="M 106.21 55.77 L 106.29 55.83 L 106.36 55.90 L 106.42 55.97 L 106.48 56.05 L 106.53 56.13 A 15.00 7.50 180.00 0 1 106.61 56.31 L 106.63 56.41 L 106.64 56.50 L 106.65 56.60 L 106.65 54.55 L 106.58 54.61 L 106.57 54.62 L 106.44 54.74 L 106.43 54.75 L 106.30 54.86 L 106.29 54.88 L 106.15 54.99 L 106.14 55.00 L 106.00 55.11 L 105.99 55.12 L 105.85 55.24 L 105.83 55.25 L 105.69 55.36 L 105.67 55.37 L 105.52 55.48 L 105.51 55.48 L 105.36 55.59 L 105.34 55.60 L 105.19 55.71 L 105.17 55.72 L 105.10 55.76 L 105.19 55.71 L 105.28 55.67 L 105.37 55.64 L 105.46 55.62 L 105.56 55.60 L 105.66 55.60 L 105.75 55.61 L 105.85 55.62 L 105.94 55.65 L 106.04 55.68 A 15.00 7.50 180.00 0 1 106.21 55.77 Z" fill="#000000" fill-rule="evenodd" stroke="#000000" stroke-width="0.8"/>
<path d="M 124.27 23.51 L 124.27 23.61 L 124.26 23.70 L 124.24 23.80 L 124.22 23.89 L 124.18 23.98 L 124.13 24.06 L 124.08 24.14 L 124.02 24.22 L 123.95 24.29 L 123.87 24.35 L 123.79 24.40 L 123.71 24.45 L 123.62 24.49 L 123.53 24.52 L 123.43 24.54 L 123.46 24.53 L 123.47 24.53 L 123.72 24.49 L 123.73 24.49 L 123.98 24.46 L 123.99 24.46 L 124.24 24.42 L 124.25 24.42 L 124.51 24.39 L 124.52 24.39 L 124.77 24.36 L 124.78 24.36 L 125.04 24.34 L 125.05 24.33 L 125.30 24.31 L 125.31 24.31 L 125.57 24.29 L 125.58 24.29 L 125.84 24.27 L 125.85 24.27 L 126.11 24.25 L 126.11 24.25 L 126.38 24.23 L 126.38 24.23 L 126.64 24.22 L 126.65 24.22 L 126.84 24.21 L 123.72 22.65 L 123.81 22.70 L 123.89 22.76 L 123.96 22.82 L 124.03 22.89 L 124.09 22.96 L 124.14 23.05 L 124.19 23.13 L 124.22 23.22 L 124.25 23.32 L 124.27 23.41 L 124.27 23.51 Z" fill="#000000" fill-rule="evenodd" stroke="#000000" stroke-width="0.8"/>
<path d="M 114.61 38.00 L 114.71 37.97 L 114.80 37.95 L 114.90 37.93 L 114.99 37.93 L 115.09 37.93 L 115.19 37.94 L 115.28 37.97 L 115.38 38.00 L 115.46 38.04 L 115.55 38.09 L 115.48 38.04 L 115.46 38.03 L 115.31 37.93 L 115.29 37.92 L 115.14 37.81 L 115.13 37.80 L 114.98 37.69 L 114.96 37.68 L 114.82 37.57 L 114.81 37.56 L 114.66 37.45 L 114.65 37.44 L 114.51 37.33 L 114.50 37.31 L 114.36 37.20 L 114.35 37.19 L 114.22 37.08 L 114.21 37.06 L 114.08 36.95 L 114.06 36.93 L 114.00 36.87 L 114.00 38.93 L 114.01 38.83 L 114.02 38.73 L 114.05 38.64 A 15.00 7.50 180.00 0 1 114.12 38.46 L 114.17 38.37 L 114.23 38.29 L 114.29 38.22 L 114.36 38.16 L 114.44 38.10 A 15.00 7.50 180.00 0 1 114.61 38.00 Z" fill="#000000" fill-rule="evenodd" stroke="#000000" stroke-width="0.8"/>
<path d="M 114.61 73.35 L 114.71 73.32 L 114.80 73.30 L 114.90 73.28 L 114.99 73.28 L 115.09 73.28 L 115.19 73.29 L 115.28 73.31 L 115.38 73.35 L 115.46 73.39 L 115.54 73.43 L 115.48 73.39 L 115.46 73.38 L 115.31 73.28 L 115.29 73.27 L 115.14 73.16 L 115.13 73.15 L 114.98 73.04 L 114.96 73.03 L 114.82 72.92 L 114.81 72.91 L 114.66 72.80 L 114.65 72.79 L 114.51 72.68 L 114.50 72.66 L 114.36 72.55 L 114.35 72.54 L 114.22 72.42 L 114.21 72.41 L 114.08 72.30 L 114.06 72.28 L 114.00 72.22 L 114.00 74.28 L 114.01 74.18 L 114.02 74.08 L 114.05 73.99 A 15.00 7.50 -180.00 0 1 114.12 73.81 L 114.17 73.72 L 114.23 73.64 L 114.29 73.57 L 114.36 73.50 L 114.44 73.45 A 15.00 7.50 -180.00 0 1 114.61 73.35 Z" fill="#000000" fill-rule="evenodd" stroke="#000000" stroke-width="0.8"/>
<path d="M 144.60 33.49 L 144.69 33.46 L 144.78 33.43 L 144.88 33.42 L 144.98 33.41 L 145.07 33.41 L 145.17 33.42 L 145.26 33.45 L 145.36 33.48 L 145.44 33.51 L 144.00 32.79 L 144.00 34.40 L 144.00 34.31 L 144.02 34.22 L 144.04 34.12 L 144.07 34.03 L 144.11 33.94 L 144.16 33.86 L 144.22 33.78 L 144.28 33.71 L 144.35 33.64 L 144.43 33.59 L 144.51 33.53 L 144.60 33.49 Z" fill="#000000" fill-rule="evenodd" stroke="#000000" stroke-width="0.8"/>
<path d="M 141.56 38.10 L 141.64 38.16 L 141.71 38.22 L 141.77 38.29 L 141.83 38.37 L 141.88 38.46 A 15.00 7.50 180.00 0 1 141.96 38.64 L 141.98 38.73 L 141.99 38.83 L 142.00 38.93 L 142.00 36.87 L 141.94 36.93 L 141.92 36.95 L 141.79 37.06 L 141.78 37.08 L 141.65 37.19 L 141.63 37.20 L 141.50 37.31 L 141.49 37.33 L 141.35 37.44 L 141.34 37.45 L 141.19 37.56 L 141.18 37.57 L 141.04 37.68 L 141.02 37.69 L 140.87 37.80 L 140.86 37.81 L 140.71 37.92 L 140.69 37.93 L 140.54 38.03 L 140.52 38.04 L 140.45 38.09 L 140.54 38.04 L 140.62 38.00 L 140.72 37.97 L 140.81 37.94 L 140.91 37.93 L 141.01 37.93 L 141.10 37.93 L 141.20 37.95 L 141.29 37.97 L 141.39 38.00 A 15.00 7.50 180.00 0 1 141.56 38.10 Z" fill="#000000" fill-rule="evenodd" stroke="#000000" stroke-width="0.8"/>
<path d="M 141.56 73.45 L 141.64 73.50 L 141.71 73.57 L 141.77 73.64 L 141.83 73.72 L 141.88 73.81 A 15.00 7.50 -180.00 0 1 141.96 73.99 L 141.98 74.08 L 141.99 74.18 L 142.00 74.28 L 142.00 72.22 L 141.94 72.28 L 141.92 72.30 L 141.79 72.41 L 141.78 72.42 L 141.65 72.54 L 141.63 72.55 L 141.50 72.66 L 141.49 72.68 L 141.35 72.79 L 141.34 72.80 L 141.19 72.91 L 141.18 72.92 L 141.04 73.03 L 141.02 73.04 L 140.87 73.15 L 140.86 73.16 L 140.71 73.27 L 140.69 73.28 L 140.54 73.38 L 140.52 73.39 L 140.45 73.44 L 140.54 73.39 L 140.62 73.35 L 140.72 73.31 L 140.81 73.29 L 140.91 73.28 L 141.01 73.28 L 141.10 73.28 L 141.20 73.30 L 141.29 73.32 L 141.39 73.35 A 15.00 7.50 -180.00 0 1 141.56 73.45 Z" fill="#000000" fill-rule="evenodd" stroke="#000000" stroke-width="0.8"/>
<path d="M 159.62 41.18 L 159.62 41.28 L 159.61 41.38 L 159.59 41.47 L 159.56 41.56 L 159.53 41.65 L 159.48 41.74 L 159.43 41.82 L 159.37 41.89 L 159.30 41.96 L 159.22 42.02 L 159.14 42.08 L 159.06 42.12 L 158.97 42.16 L 158.88 42.19 L 158.79 42.21 L 158.81 42.21 L 158.82 42.20 L 159.07 42.17 L 159.08 42.17 L 159.33 42.13 L 159.34 42.13 L 159.59 42.10 L 159.60 42.10 L 159.86 42.07 L 159.87 42.06 L 160.12 42.04 L 160.13 42.03 L 160.39 42.01 L 160.40 42.01 L 160.65 41.98 L 160.66 41.98 L 160.92 41.96 L 160.93 41.96 L 161.19 41.94 L 161.20 41.94 L 161.46 41.92 L 161.47 41.92 L 161.72 41.91 L 161.73 41.91 L 161.99 41.90 L 162.00 41.90 L 162.19 41.89 L 159.08 40.33 L 159.16 40.38 L 159.24 40.43 L 159.31 40.49 L 159.38 40.56 L 159.44 40.64 L 159.49 40.72 L 159.53 40.81 L 159.57 40.90 L 159.60 40.99 L 159.62 41.09 L 159.62 41.18 Z" fill="#000000" fill-rule="evenodd" stroke="#000000" stroke-width="0.8"/>
<path d="M 149.96 55.68 L 150.06 55.65 L 150.15 55.62 L 150.25 55.61 L 150.34 55.60 L 150.44 55.60 L 150.54 55.62 L 150.63 55.64 L 150.72 55.67 L 150.81 55.71 L 150.90 55.76 L 150.83 55.72 L 150.81 55.71 L 150.66 55.60 L 150.64 55.59 L 150.49 55.48 L 150.48 55.48 L 150.33 55.37 L 150.31 55.36 L 150.17 55.25 L 150.15 55.24 L 150.01 55.12 L 150.00 55.11 L 149.86 55.00 L 149.85 54.99 L 149.71 54.88 L 149.70 54.86 L 149.57 54.75 L 149.56 54.74 L 149.43 54.62 L 149.41 54.61 L 149.35 54.55 L 149.35 56.60 L 149.36 56.50 L 149.37 56.41 L 149.39 56.31 A 15.00 7.50 -180.00 0 1 149.47 56.13 L 149.52 56.05 L 149.58 55.97 L 149.64 55.90 L 149.71 55.83 L 149.79 55.77 A 15.00 7.50 -180.00 0 1 149.96 55.68 Z" fill="#000000" fill-rule="evenodd" stroke="#000000" stroke-width="0.8"/>
<path d="M 149.96 91.03 L 150.06 91.00 L 150.15 90.97 L 150.25 90.95 L 150.34 90.95 L 150.44 90.95 L 150.54 90.97 L 150.63 90.99 L 150.72 91.02 L 150.81 91.06 L 150.90 91.11 L 150.83 91.06 L 150.81 91.06 L 150.66 90.95 L 150.64 90.94 L 150.49 90.83 L 150.48 90.82 L 150.33 90.72 L 150.31 90.70 L 150.17 90.60 L 150.15 90.58 L 150.01 90.47 L 150.00 90.46 L 149.86 90.35 L 149.85 90.34 L 149.71 90.23 L 149.70 90.21 L 149.57 90.10 L 149.56 90.08 L 149.43 89.97 L 149.41 89.96 L 149.35 89.90 L 149.35 91.95 L 149.36 91.85 L 149.37 91.75 L 149.39 91.66 A 15.00 7.50 180.00 0 1 149.47 91.48 L 149.52 91.40 L 149.58 91.32 L 149.64 91.25 L 149.71 91.18 L 149.79 91.12 A 15.00 7.50 180.00 0 1 149.96 91.03 Z" fill="#000000" fill-rule="evenodd" stroke="#000000" stroke-width="0.8"/>
<path d="M 179.86 51.21 L 179.95 51.17 L 180.04 51.13 L 180.13 51.11 L 180.23 51.09 L 180.33 51.08 L 180.42 51.09 L 180.52 51.10 L 180.61 51.12 L 180.71 51.15 L 180.79 51.19 L 179.35 50.47 L 179.35 52.08 L 179.35 51.99 L 179.37 51.89 L 179.39 51.80 L 179.42 51.71 L 179.46 51.62 L 179.51 51.53 L 179.57 51.46 L 179.63 51.38 L 179.70 51.32 L 179.78 51.26 L 179.86 51.21 Z" fill="#000000" fill-rule="evenodd" stroke="#000000" stroke-width="0.8"/>
<path d="M 176.91 55.77 L 176.99 55.83 L 177.06 55.90 L 177.12 55.97 L 177.18 56.05 L 177.23 56.13 A 15.00 7.50 -180.00 0 1 177.30 56.31 L 177.33 56.41 L 177.34 56.50 L 177.35 56.59 L 177.35 54.55 L 177.28 54.61 L 177.27 54.62 L 177.14 54.74 L 177.13 54.75 L 177.00 54.86 L 176.98 54.88 L 176.85 54.99 L 176.84 55.00 L 176.70 55.11 L 176.69 55.12 L 176.54 55.24 L 176.53 55.25 L 176.38 55.36 L 176.37 55.37 L 176.22 55.48 L 176.21 55.48 L 176.06 55.59 L 176.04 55.60 L 175.89 55.71 L 175.87 55.72 L 175.81 55.76 L 175.88 55.71 L 175.97 55.67 L 176.07 55.64 L 176.16 55.62 L 176.26 55.60 L 176.35 55.60 L 176.45 55.61 L 176.55 55.62 L 176.64 55.65 L 176.74 55.68 A 15.00 7.50 -180.00 0 1 176.91 55.77 Z" fill="#000000" fill-rule="evenodd" stroke="#000000" stroke-width="0.8"/>
<path d="M 176.91 91.12 L 176.99 91.18 L 177.06 91.25 L 177.12 91.32 L 177.18 91.40 L 177.23 91.48 A 15.00 7.50 180.00 0 1 177.30 91.66 L 177.33 91.76 L 177.34 91.85 L 177.35 91.94 L 177.35 89.90 L 177.28 89.96 L 177.27 89.97 L 177.14 90.08 L 177.13 90.10 L 177.00 90.21 L 176.98 90.23 L 176.85 90.34 L 176.84 90.35 L 176.70 90.46 L 176.69 90.47 L 176.54 90.58 L 176.53 90.60 L 176.38 90.70 L 176.37 90.72 L 176.22 90.82 L 176.21 90.83 L 176.06 90.94 L 176.04 90.95 L 175.89 91.06 L 175.87 91.06 L 175.80 91.11 L 175.88 91.06 L 175.97 91.02 L 176.07 90.99 L 176.16 90.97 L 176.26 90.95 L 176.35 90.95 L 176.45 90.95 L 176.55 90.97 L 176.64 91.00 L 176.74 91.03 A 15.00 7.50 180.00 0 1 176.91 91.12 Z" fill="#000000" fill-rule="evenodd" stroke="#000000" stroke-width="0.8"/>
<path d="M 194.97 58.86 L 194.97 58.95 L 194.96 59.05 L 194.94 59.15 L 194.91 59.24 L 194.88 59.33 L 194.83 59.41 L 194.78 59.49 L 194.72 59.57 L 194.65 59.64 L 194.57 59.70 L 194.49 59.75 L 194.41 59.80 L 194.32 59.84 L 194.22 59.87 L 194.13 59.88 L 194.16 59.88 L 194.17 59.88 L 194.42 59.84 L 194.43 59.84 L 194.68 59.81 L 194.69 59.80 L 194.94 59.77 L 194.95 59.77 L 195.21 59.74 L 195.22 59.74 L 195.47 59.71 L 195.48 59.71 L 195.74 59.68 L 195.74 59.68 L 196.00 59.66 L 196.01 59.66 L 196.27 59.64 L 196.28 59.64 L 196.54 59.62 L 196.54 59.62 L 196.81 59.60 L 196.81 59.60 L 197.07 59.58 L 197.08 59.58 L 197.34 59.57 L 197.35 59.57 L 197.54 59.56 L 194.42 58.00 L 194.50 58.05 L 194.59 58.11 L 194.66 58.17 L 194.73 58.24 L 194.79 58.31 L 194.84 58.40 L 194.88 58.48 L 194.92 58.57 L 194.95 58.66 L 194.96 58.76 L 194.97 58.86 Z" fill="#000000" fill-rule="evenodd" stroke="#000000" stroke-width="0.8"/>
<path d="M 215.21 68.88 L 215.30 68.84 L 215.39 68.81 L 215.48 68.78 L 215.58 68.77 L 215.68 68.76 L 215.77 68.76 L 215.87 68.77 L 215.96 68.80 L 216.05 68.83 L 216.14 68.86 L 214.70 68.14 L 214.70 69.76 L 214.70 69.66 L 214.71 69.57 L 214.74 69.47 L 214.77 69.38 L 214.81 69.29 L 214.86 69.21 L 214.92 69.13 L 214.98 69.06 L 215.05 68.99 L 215.13 68.93 L 215.21 68.88 Z" fill="#000000" fill-rule="evenodd" stroke="#000000" stroke-width="0.8"/>
<path d="M 212.26 73.45 L 212.33 73.50 L 212.41 73.57 L 212.47 73.64 L 212.53 73.72 L 212.58 73.81 A 15.00 7.50 180.00 0 1 212.65 73.99 L 212.68 74.08 L 212.69 74.18 L 212.70 74.27 L 212.70 72.22 L 212.63 72.28 L 212.62 72.30 L 212.49 72.41 L 212.48 72.42 L 212.35 72.54 L 212.33 72.55 L 212.20 72.66 L 212.19 72.68 L 212.05 72.79 L 212.03 72.80 L 211.89 72.91 L 211.88 72.92 L 211.74 73.03 L 211.72 73.04 L 211.57 73.15 L 211.56 73.16 L 211.41 73.27 L 211.39 73.28 L 211.24 73.38 L 211.22 73.39 L 211.15 73.44 L 211.23 73.39 L 211.32 73.35 L 211.41 73.31 L 211.51 73.29 L 211.61 73.28 L 211.70 73.28 L 211.80 73.28 L 211.90 73.30 L 211.99 73.32 L 212.08 73.35 A 15.00 7.50 180.00 0 1 212.26 73.45 Z" fill="#000000" fill-rule="evenodd" stroke="#000000" stroke-width="0.8"/>
<path d="M 185.31 73.35 L 185.40 73.32 L 185.50 73.30 L 185.59 73.28 L 185.69 73.28 L 185.79 73.28 L 185.89 73.29 L 185.98 73.31 L 186.07 73.35 L 186.16 73.39 L 186.24 73.44 L 186.18 73.39 L 186.16 73.38 L 186.00 73.28 L 185.99 73.27 L 185.84 73.16 L 185.82 73.15 L 185.68 73.04 L 185.66 73.03 L 185.52 72.92 L 185.50 72.91 L 185.36 72.80 L 185.35 72.79 L 185.21 72.68 L 185.20 72.66 L 185.06 72.55 L 185.05 72.54 L 184.92 72.42 L 184.90 72.41 L 184.78 72.30 L 184.76 72.28 L 184.70 72.22 L 184.70 74.28 L 184.71 74.18 L 184.72 74.08 L 184.74 73.99 A 15.00 7.50 180.00 0 1 184.82 73.81 L 184.87 73.72 L 184.93 73.64 L 184.99 73.57 L 185.06 73.50 L 185.14 73.45 A 15.00 7.50 180.00 0 1 185.31 73.35 Z" fill="#000000" fill-rule="evenodd" stroke="#000000" stroke-width="0.8"/>
</g>
<defs><clipPath id="sclip"><path d="M 41.98 30.21 L 20.95 40.73 L 20.95 93.92 L 163.35 165.12 L 235.05 129.27 L 235.05 76.08 L 214.03 65.57 L 214.00 65.53 L 213.91 65.38 L 213.81 65.19 L 213.78 65.15 L 213.76 65.11 L 213.72 65.06 L 213.69 65.02 L 213.52 64.80 L 213.26 64.45 L 213.22 64.41 L 213.20 64.38 L 213.17 64.35 L 213.15 64.32 L 212.94 64.11 L 212.67 63.83 L 212.58 63.75 L 212.49 63.67 L 212.46 63.64 L 212.44 63.62 L 212.30 63.51 L 212.25 63.47 L 212.00 63.25 L 211.86 63.15 L 211.75 63.06 L 211.64 62.98 L 211.56 62.92 L 211.43 62.84 L 211.25 62.70 L 211.07 62.60 L 210.91 62.49 L 210.71 62.38 L 210.57 62.28 L 210.49 62.24 L 210.41 62.20 L 210.19 62.08 L 209.99 61.97 L 209.76 61.85 L 209.51 61.73 L 209.50 61.72 L 209.47 61.71 L 209.29 61.63 L 209.25 61.61 L 209.00 61.49 L 208.78 61.40 L 208.56 61.30 L 208.39 61.24 L 208.27 61.19 L 208.11 61.13 L 207.94 61.06 L 207.76 61.00 L 207.54 60.92 L 207.21 60.81 L 206.98 60.74 L 206.89 60.71 L 206.81 60.69 L 206.64 60.64 L 206.47 60.59 L 206.02 60.47 L 205.63 60.36 L 205.58 60.35 L 205.51 60.33 L 205.36 60.29 L 204.82 60.18 L 204.41 60.08 L 204.31 60.07 L 204.19 60.04 L 204.16 60.04 L 203.58 59.94 L 203.14 59.87 L 203.08 59.86 L 203.01 59.85 L 202.85 59.83 L 202.71 59.80 L 202.44 59.77 L 178.68 47.90 L 178.66 47.86 L 178.56 47.69 L 178.47 47.53 L 178.44 47.49 L 178.41 47.44 L 178.37 47.38 L 178.34 47.34 L 178.15 47.10 L 177.91 46.78 L 177.88 46.75 L 177.85 46.70 L 177.82 46.67 L 177.79 46.65 L 177.56 46.41 L 177.32 46.16 L 177.22 46.07 L 177.14 45.99 L 177.12 45.97 L 177.10 45.95 L 176.91 45.80 L 176.65 45.57 L 176.51 45.48 L 176.40 45.38 L 176.29 45.31 L 176.22 45.25 L 176.08 45.16 L 175.90 45.03 L 175.70 44.91 L 175.56 44.81 L 175.37 44.71 L 175.22 44.61 L 175.15 44.57 L 175.07 44.52 L 174.83 44.40 L 174.64 44.29 L 174.41 44.18 L 174.18 44.06 L 174.14 44.04 L 174.11 44.02 L 173.94 43.95 L 173.88 43.92 L 173.65 43.82 L 173.45 43.74 L 173.21 43.63 L 173.04 43.57 L 172.91 43.51 L 172.76 43.46 L 172.59 43.39 L 172.39 43.32 L 172.19 43.25 L 171.85 43.14 L 171.63 43.06 L 171.56 43.04 L 171.46 43.01 L 171.29 42.96 L 171.13 42.91 L 170.66 42.79 L 170.30 42.69 L 170.26 42.68 L 170.15 42.66 L 170.01 42.62 L 169.44 42.50 L 169.06 42.41 L 168.95 42.39 L 168.90 42.38 L 168.88 42.38 L 168.85 42.37 L 168.70 42.34 L 168.19 42.26 L 167.79 42.19 L 167.73 42.18 L 167.66 42.17 L 167.48 42.15 L 167.36 42.13 L 167.09 42.10 L 143.33 30.22 L 143.31 30.19 L 143.22 30.03 L 143.12 29.84 L 143.09 29.80 L 143.06 29.76 L 143.02 29.71 L 143.00 29.67 L 142.82 29.45 L 142.56 29.10 L 142.53 29.07 L 142.50 29.03 L 142.47 29.00 L 142.44 28.97 L 142.25 28.77 L 141.97 28.48 L 141.87 28.39 L 141.79 28.32 L 141.77 28.30 L 141.75 28.28 L 141.56 28.12 L 141.30 27.90 L 141.16 27.80 L 141.04 27.70 L 140.96 27.64 L 140.87 27.58 L 140.72 27.48 L 140.54 27.35 L 140.36 27.24 L 140.21 27.14 L 140.02 27.03 L 139.87 26.93 L 139.79 26.89 L 139.72 26.85 L 139.49 26.73 L 139.30 26.62 L 139.07 26.51 L 138.82 26.38 L 138.78 26.36 L 138.76 26.35 L 138.65 26.30 L 138.55 26.26 L 138.30 26.14 L 138.08 26.05 L 137.86 25.96 L 137.69 25.89 L 137.57 25.84 L 137.42 25.79 L 137.24 25.71 L 137.04 25.65 L 136.85 25.57 L 136.50 25.46 L 136.28 25.39 L 136.19 25.36 L 136.12 25.34 L 135.98 25.30 L 135.78 25.23 L 135.24 25.09 L 135.21 25.09 L 134.96 25.02 L 134.91 25.00 L 134.78 24.98 L 134.66 24.94 L 134.13 24.83 L 133.71 24.74 L 133.61 24.72 L 133.56 24.71 L 133.53 24.70 L 133.50 24.69 L 133.33 24.67 L 132.84 24.59 L 132.44 24.52 L 132.38 24.51 L 132.31 24.50 L 132.16 24.48 L 132.01 24.46 L 131.74 24.43 L 107.98 12.55 L 107.94 12.49 L 107.88 12.38 L 107.77 12.18 L 107.73 12.13 L 107.71 12.09 L 107.68 12.04 L 107.64 11.99 L 107.45 11.74 L 107.21 11.43 L 107.19 11.40 L 107.16 11.36 L 107.12 11.32 L 107.10 11.30 L 106.89 11.09 L 106.62 10.81 L 106.52 10.72 L 106.44 10.64 L 106.42 10.63 L 106.40 10.60 L 106.22 10.46 L 105.95 10.22 L 105.81 10.12 L 105.70 10.03 L 105.60 9.96 L 105.52 9.90 L 105.37 9.81 L 105.20 9.68 L 105.01 9.56 L 104.86 9.46 L 104.67 9.36 L 104.52 9.26 L 104.46 9.23 L 104.37 9.17 L 104.12 9.04 L 103.95 8.94 L 103.72 8.84 L 103.47 8.71 L 103.45 8.69 L 103.42 8.68 L 103.24 8.60 L 103.19 8.58 L 102.95 8.47 L 102.74 8.38 L 102.51 8.28 L 102.35 8.22 L 102.22 8.16 L 102.06 8.11 L 101.89 8.04 L 101.69 7.97 L 101.50 7.90 L 101.16 7.79 L 100.93 7.71 L 100.85 7.69 L 100.77 7.66 L 100.61 7.62 L 100.43 7.56 L 99.99 7.45 L 99.59 7.33 L 99.54 7.33 L 99.46 7.31 L 99.31 7.27 L 98.71 7.14 L 98.36 7.06 L 98.28 7.05 L 98.15 7.02 L 98.11 7.01 L 97.48 6.91 L 97.10 6.84 L 97.03 6.83 L 96.97 6.82 L 96.78 6.80 L 96.67 6.78 L 96.39 6.75 L 96.38 6.75 L 96.14 6.72 L 95.87 6.69 L 95.80 6.68 L 95.73 6.67 L 95.61 6.66 L 95.08 6.61 L 94.54 6.58 L 94.48 6.57 L 94.00 6.55 L 93.46 6.53 L 93.20 6.52 L 93.15 6.52 L 93.11 6.52 L 92.92 6.52 L 92.38 6.52 L 91.83 6.53 L 91.80 6.53 L 91.30 6.55 L 90.76 6.58 L 90.56 6.59 L 90.49 6.59 L 90.42 6.60 L 90.23 6.61 L 89.69 6.66 L 89.20 6.71 L 89.18 6.71 L 89.09 6.72 L 89.00 6.74 L 88.77 6.77 L 88.33 6.82 L 88.10 6.86 L 87.89 6.89 L 87.68 6.93 L 87.53 6.95 L 87.38 6.98 L 87.15 7.02 L 86.89 7.08 L 86.63 7.12 L 86.31 7.20 L 86.27 7.21 L 86.09 7.25 L 86.05 7.25 L 85.99 7.27 L 85.69 7.35 L 85.42 7.41 L 85.16 7.49 L 84.88 7.56 L 84.79 7.59 L 84.70 7.61 L 84.49 7.68 L 84.25 7.75 L 84.05 7.82 L 83.80 7.90 L 83.59 7.98 L 83.40 8.04 L 83.27 8.10 L 83.14 8.14 L 82.99 8.21 L 82.79 8.28 L 82.42 8.45 L 82.41 8.45 L 82.39 8.46 L 82.17 8.54 L 82.15 8.56 L 82.10 8.58 L 81.96 8.65 L 81.83 8.71 L 81.45 8.90 L 81.12 9.07 L 81.08 9.10 L 81.05 9.11 L 81.00 9.14 L 80.93 9.17 L 80.52 9.43 L 80.22 9.60 L 80.17 9.64 L 80.11 9.68 L 80.06 9.71 L 80.02 9.73 L 79.86 9.86 L 79.68 9.99 L 79.41 10.18 L 79.38 10.20 L 79.36 10.22 L 79.22 10.34 L 79.11 10.42 L 78.95 10.57 L 78.72 10.77 L 78.69 10.80 L 78.48 11.02 L 78.33 11.16 L 78.23 11.28 L 78.09 11.43 L 78.08 11.44 L 78.06 11.46 L 77.87 11.72 L 77.82 11.78 L 77.67 11.96 L 77.64 12.03 L 77.59 12.09 L 77.56 12.13 L 77.54 12.17 L 77.41 12.39 L 77.33 12.54 L 53.57 24.42 L 53.39 24.45 L 52.98 24.50 L 52.74 24.54 L 52.54 24.57 L 52.35 24.60 L 52.18 24.63 L 52.02 24.66 L 51.80 24.70 L 51.53 24.75 L 51.28 24.80 L 50.99 24.87 L 50.99 24.87 L 50.74 24.92 L 50.68 24.93 L 50.64 24.94 L 50.33 25.02 L 50.07 25.09 L 49.83 25.15 L 49.52 25.23 L 49.42 25.27 L 49.36 25.29 L 49.16 25.35 L 48.90 25.43 L 48.70 25.50 L 48.45 25.57 L 48.22 25.66 L 48.05 25.72 L 47.93 25.77 L 47.79 25.82 L 47.63 25.88 L 47.44 25.96 L 47.08 26.12 L 46.83 26.22 L 46.78 26.24 L 46.75 26.25 L 46.63 26.31 L 46.48 26.38 L 46.09 26.58 L 45.77 26.74 L 45.73 26.77 L 45.69 26.79 L 45.64 26.82 L 45.58 26.85 L 45.18 27.09 L 44.87 27.28 L 44.82 27.32 L 44.76 27.35 L 44.71 27.39 L 44.67 27.41 L 44.50 27.54 L 44.31 27.68 L 44.06 27.86 L 44.03 27.88 L 44.01 27.90 L 43.88 28.00 L 43.76 28.10 L 43.59 28.26 L 43.48 28.35 L 43.35 28.47 L 43.31 28.51 L 43.14 28.69 L 42.97 28.84 L 42.88 28.96 L 42.74 29.10 L 42.72 29.13 L 42.70 29.15 L 42.56 29.34 L 42.47 29.46 L 42.33 29.64 L 42.29 29.70 L 42.24 29.77 L 42.22 29.80 L 42.19 29.85 L 42.04 30.10 Z" clip-rule="evenodd"/></clipPath></defs>
<g stroke="black" fill="none" stroke-linecap="round" clip-path="url(#sclip)">
<path d="M 42.71 30.97 L 21.95 41.35 L 21.95 93.30 L 163.35 164.00 L 234.05 128.65 L 234.05 76.70 L 213.29 66.32 A 15.00 7.50 -180.00 0 0 202.15 60.75 L 177.94 48.65 A 15.00 7.50 180.00 0 0 166.79 43.07 L 142.59 30.97 A 15.00 7.50 -180.00 0 0 131.45 25.40 L 107.24 13.30 A 15.00 7.50 180.00 0 0 89.21 7.72 A 15.00 7.50 180.00 0 0 78.06 13.30 L 53.87 25.39 A 15.00 7.50 -180.00 0 0 44.02 29.21 L 44.02 29.21 A 15.00 7.50 -180.00 0 0 42.71 30.97 Z" stroke-width="2.00" stroke-linejoin="miter" stroke-miterlimit="5"/>
<line x1="213.70" y1="68.04" x2="213.70" y2="76.70" stroke-width="2.00"/>
<line x1="183.70" y1="68.04" x2="183.70" y2="76.70" stroke-width="2.00"/>
<line x1="178.35" y1="50.37" x2="178.35" y2="59.02" stroke-width="2.00"/>
<line x1="178.35" y1="85.71" x2="178.35" y2="94.37" stroke-width="2.00"/>
<line x1="148.35" y1="50.37" x2="148.35" y2="59.02" stroke-width="2.00"/>
<line x1="148.35" y1="85.71" x2="148.35" y2="94.37" stroke-width="2.00"/>
<line x1="143.00" y1="32.69" x2="143.00" y2="41.35" stroke-width="2.00"/>
<line x1="143.00" y1="68.04" x2="143.00" y2="76.70" stroke-width="2.00"/>
<line x1="113.00" y1="32.69" x2="113.00" y2="41.35" stroke-width="2.00"/>
<line x1="113.00" y1="68.04" x2="113.00" y2="76.70" stroke-width="2.00"/>
<line x1="107.65" y1="15.02" x2="107.65" y2="23.67" stroke-width="2.00"/>
<line x1="107.65" y1="50.37" x2="107.65" y2="59.02" stroke-width="2.00"/>
<line x1="77.65" y1="15.02" x2="77.65" y2="23.67" stroke-width="2.00"/>
<line x1="77.65" y1="50.37" x2="77.65" y2="59.02" stroke-width="2.00"/>
<line x1="72.30" y1="32.69" x2="72.30" y2="41.35" stroke-width="2.00"/>
<line x1="42.30" y1="32.69" x2="42.30" y2="41.35" stroke-width="2.00"/>
<line x1="163.35" y1="112.05" x2="234.05" y2="76.70" stroke-width="2.00"/>
<line x1="21.95" y1="41.35" x2="42.64" y2="31.01" stroke-width="2.00"/>
<line x1="53.92" y1="25.37" x2="77.98" y2="13.33" stroke-width="2.00"/>
<line x1="89.27" y1="7.69" x2="92.65" y2="6.00" stroke-width="2.00"/>
<line x1="163.35" y1="164.00" x2="234.05" y2="128.65" stroke-width="2.00"/>
<line x1="21.95" y1="41.35" x2="163.35" y2="112.05" stroke-width="2.00"/>
<line x1="92.65" y1="6.00" x2="96.03" y2="7.69" stroke-width="2.00"/>
<line x1="107.28" y1="13.31" x2="131.28" y2="25.32" stroke-width="2.00"/>
<line x1="142.72" y1="31.04" x2="166.72" y2="43.04" stroke-width="2.00"/>
<line x1="177.98" y1="48.66" x2="201.98" y2="60.66" stroke-width="2.00"/>
<line x1="213.42" y1="66.38" x2="234.05" y2="76.70" stroke-width="2.00"/>
<line x1="163.35" y1="112.05" x2="163.35" y2="164.00" stroke-width="2.00"/>
<line x1="21.95" y1="41.35" x2="21.95" y2="93.30" stroke-width="2.00"/>
<line x1="234.05" y1="76.70" x2="234.05" y2="128.65" stroke-width="2.00"/>
<line x1="21.95" y1="93.30" x2="163.35" y2="164.00" stroke-width="2.00"/>
<path d="M 213.70 76.70 A 15.00 7.50 180.00 0 1 198.70 84.20 A 15.00 7.50 180.00 0 1 183.70 76.70" stroke-width="2.00"/>
<path d="M 209.30 73.34 A 15.00 7.50 -180.00 0 0 209.30 62.74 A 15.00 7.50 -180.00 0 0 188.09 62.74 A 15.00 7.50 -180.00 0 0 188.09 73.34 A 15.00 7.50 -180.00 0 0 209.30 73.34" stroke-width="2.00"/>
<path d="M 178.35 59.02 A 15.00 7.50 -180.00 0 1 170.85 65.52 A 15.00 7.50 -180.00 0 1 155.85 65.52 A 15.00 7.50 -180.00 0 1 148.35 59.02" stroke-width="2.00"/>
<path d="M 173.95 55.67 A 15.00 7.50 180.00 0 0 173.95 45.06 A 15.00 7.50 180.00 0 0 152.74 45.06 A 15.00 7.50 180.00 0 0 152.74 55.67 A 15.00 7.50 180.00 0 0 173.95 55.67" stroke-width="2.00"/>
<path d="M 143.00 41.35 A 15.00 7.50 180.00 0 1 135.50 47.84 A 15.00 7.50 180.00 0 1 120.50 47.84 A 15.00 7.50 180.00 0 1 113.00 41.35" stroke-width="2.00"/>
<path d="M 138.60 37.99 A 15.00 7.50 -180.00 0 0 138.60 27.39 A 15.00 7.50 -180.00 0 0 117.40 27.39 A 15.00 7.50 -180.00 0 0 117.40 37.99 A 15.00 7.50 -180.00 0 0 138.60 37.99" stroke-width="2.00"/>
<path d="M 107.65 23.67 A 15.00 7.50 -180.00 0 1 92.65 31.17 A 15.00 7.50 -180.00 0 1 77.65 23.67" stroke-width="2.00"/>
<path d="M 103.26 20.32 A 15.00 7.50 180.00 0 0 103.26 9.71 A 15.00 7.50 180.00 0 0 82.05 9.71 A 15.00 7.50 180.00 0 0 82.05 20.32 A 15.00 7.50 180.00 0 0 103.26 20.32" stroke-width="2.00"/>
<path d="M 178.35 94.37 A 15.00 7.50 180.00 0 1 163.35 101.87 A 15.00 7.50 180.00 0 1 148.35 94.37" stroke-width="2.00"/>
<path d="M 173.95 91.02 A 15.00 7.50 -180.00 0 0 173.95 80.41 A 15.00 7.50 -180.00 0 0 152.74 80.41 A 15.00 7.50 -180.00 0 0 152.74 91.02 A 15.00 7.50 -180.00 0 0 173.95 91.02" stroke-width="2.00"/>
<path d="M 143.00 76.70 A 15.00 7.50 -180.00 0 1 135.50 83.19 A 15.00 7.50 -180.00 0 1 120.50 83.19 A 15.00 7.50 -180.00 0 1 113.00 76.70" stroke-width="2.00"/>
<path d="M 138.60 73.34 A 15.00 7.50 -180.00 0 0 138.60 62.74 A 15.00 7.50 -180.00 0 0 117.40 62.74 A 15.00 7.50 -180.00 0 0 117.40 73.34 A 15.00 7.50 -180.00 0 0 138.60 73.34" stroke-width="2.00"/>
<path d="M 107.65 59.02 A 15.00 7.50 180.00 0 1 92.65 66.52 A 15.00 7.50 180.00 0 1 77.65 59.02" stroke-width="2.00"/>
<path d="M 103.26 55.67 A 15.00 7.50 180.00 0 0 103.26 45.06 A 15.00 7.50 180.00 0 0 82.05 45.06 A 15.00 7.50 180.00 0 0 82.05 55.67 A 15.00 7.50 180.00 0 0 103.26 55.67" stroke-width="2.00"/>
<path d="M 72.30 41.35 A 15.00 7.50 -180.00 0 1 57.30 48.85 A 15.00 7.50 -180.00 0 1 42.30 41.35" stroke-width="2.00"/>
<path d="M 67.91 37.99 A 15.00 7.50 -180.00 0 0 67.91 27.39 A 15.00 7.50 -180.00 0 0 46.70 27.39 A 15.00 7.50 -180.00 0 0 46.70 37.99 A 15.00 7.50 -180.00 0 0 67.91 37.99" stroke-width="2.00"/>
</g>
</svg>