<svg xmlns="http://www.w3.org/2000/svg" viewBox="0 0 256 170" preserveAspectRatio="xMidYMid meet">
<defs><linearGradient id="g4" gradientUnits="userSpaceOnUse" x1="155.14" y1="30.15" x2="100.86" y2="30.15"><stop offset="0.0%" stop-color="#a1a1c6"/><stop offset="3.8%" stop-color="#a8a8cf"/><stop offset="14.6%" stop-color="#a4a4ca"/><stop offset="30.9%" stop-color="#9494b7"/><stop offset="50.0%" stop-color="#7c7c99"/><stop offset="69.1%" stop-color="#5f5f74"/><stop offset="85.4%" stop-color="#5b5b70"/><stop offset="96.2%" stop-color="#5b5b70"/><stop offset="100.0%" stop-color="#5b5b70"/></linearGradient><linearGradient id="g6" gradientUnits="userSpaceOnUse" x1="100.86" y1="30.15" x2="155.14" y2="30.15"><stop offset="0.0%" stop-color="#a1a1c6"/><stop offset="3.8%" stop-color="#a8a8cf"/><stop offset="14.6%" stop-color="#a4a4ca"/><stop offset="30.9%" stop-color="#9494b7"/><stop offset="50.0%" stop-color="#7c7c99"/><stop offset="69.1%" stop-color="#5f5f74"/><stop offset="85.4%" stop-color="#5b5b70"/><stop offset="96.2%" stop-color="#5b5b70"/><stop offset="100.0%" stop-color="#5b5b70"/></linearGradient></defs>
<g stroke-linejoin="round">
<path d="M 128.00 112.82 L 128.00 34.47 L 89.61 53.66 L 89.61 132.01 L 128.00 112.82 Z" fill="#63637a" fill-rule="evenodd" opacity="0.6"/>
<path d="M 128.00 112.82 L 166.38 132.01 L 166.38 53.66 L 128.00 34.47 L 128.00 112.82 Z" fill="#8c8cad" fill-rule="evenodd" opacity="0.6"/>
<path d="M 191.98 132.01 L 191.98 37.99 L 128.00 69.98 L 128.00 164.00 L 191.98 132.01 Z" fill="#63637a" fill-rule="evenodd" opacity="0.6"/>
<path d="M 128.00 69.98 L 191.98 37.99 L 128.00 6.00 L 64.02 37.99 L 128.00 69.98 Z" fill="#d6d6ff" fill-rule="evenodd" opacity="0.6"/>
<path d="M 100.86 22.32 L 100.86 37.99 A 27.14 13.57 180.00 0 1 126.91 24.43 A 27.14 13.57 180.00 0 1 155.06 36.90 A 27.14 13.57 180.00 0 1 155.14 37.99 L 155.14 22.32 A 27.14 13.57 180.00 0 0 129.09 8.76 A 27.14 13.57 180.00 0 0 100.94 21.23 A 27.14 13.57 180.00 0 0 100.86 22.32 Z" fill="url(#g4)" fill-rule="evenodd" opacity="0.6"/>
<path d="M 64.02 37.99 L 64.02 132.01 L 128.00 164.00 L 128.00 69.98 L 64.02 37.99 Z" fill="#8c8cad" fill-rule="evenodd" opacity="0.6"/>
<path d="M 100.86 37.99 A 27.14 13.57 180.00 0 0 126.91 51.55 A 27.14 13.57 180.00 0 0 155.06 39.08 A 27.14 13.57 180.00 0 0 155.14 37.99 L 155.14 22.32 A 27.14 13.57 180.00 0 1 129.09 35.88 A 27.14 13.57 180.00 0 1 100.94 23.41 A 27.14 13.57 180.00 0 1 100.86 22.32 L 100.86 37.99 Z" fill="url(#g6)" fill-rule="evenodd" opacity="0.6"/>
<path d="M 110.81 32.82 A 27.14 13.57 180.00 0 0 147.66 31.67 A 27.14 13.57 180.00 0 0 148.12 13.21 A 27.14 13.57 180.00 0 0 111.34 11.60 A 27.14 13.57 180.00 0 0 105.39 29.82 A 27.14 13.57 180.00 0 0 110.81 32.82 Z" fill="#d6d6ff" fill-rule="evenodd" opacity="0.6"/>
</g>
<defs><clipPath id="sclip"><path d="M 100.83 18.47 L 63.02 37.37 L 63.02 132.63 L 128.00 165.12 L 192.98 132.63 L 192.98 37.37 L 155.16 18.46 L 154.89 18.01 L 154.67 17.61 L 154.62 17.54 L 154.58 17.46 L 154.50 17.35 L 154.44 17.26 L 154.22 16.99 L 154.05 16.77 L 153.78 16.41 L 153.76 16.38 L 153.74 16.35 L 153.49 16.09 L 153.33 15.90 L 153.09 15.66 L 152.80 15.37 L 152.78 15.33 L 152.72 15.28 L 152.71 15.27 L 152.67 15.24 L 152.60 15.18 L 152.25 14.88 L 151.98 14.62 L 151.79 14.47 L 151.56 14.28 L 151.51 14.24 L 151.46 14.20 L 151.03 13.89 L 150.69 13.65 L 150.40 13.43 L 150.33 13.38 L 150.25 13.33 L 150.14 13.26 L 150.05 13.20 L 149.50 12.87 L 148.81 12.45 L 148.70 12.39 L 148.61 12.34 L 148.56 12.31 L 148.48 12.26 L 147.91 11.98 L 147.24 11.63 L 146.97 11.51 L 146.76 11.41 L 146.70 11.38 L 146.63 11.34 L 146.22 11.18 L 145.54 10.88 L 145.22 10.76 L 144.92 10.63 L 144.66 10.54 L 144.47 10.46 L 144.16 10.36 L 143.75 10.20 L 143.32 10.07 L 142.96 9.94 L 142.50 9.81 L 142.15 9.69 L 142.00 9.65 L 141.85 9.60 L 141.35 9.47 L 140.89 9.34 L 140.39 9.22 L 139.87 9.08 L 139.78 9.06 L 139.70 9.04 L 139.26 8.95 L 139.25 8.95 L 138.73 8.83 L 138.28 8.75 L 137.81 8.64 L 137.44 8.58 L 137.14 8.52 L 136.83 8.48 L 136.49 8.41 L 136.10 8.36 L 135.70 8.29 L 134.97 8.20 L 134.52 8.14 L 128.00 4.88 L 121.47 8.15 L 121.42 8.15 L 120.84 8.22 L 120.60 8.26 L 120.31 8.29 L 120.20 8.31 L 120.08 8.32 L 119.33 8.45 L 118.41 8.61 L 118.22 8.64 L 118.18 8.65 L 118.17 8.65 L 118.00 8.69 L 117.82 8.72 L 117.12 8.87 L 116.13 9.08 L 115.90 9.14 L 115.81 9.17 L 115.68 9.19 L 115.66 9.20 L 115.64 9.20 L 114.96 9.39 L 114.15 9.60 L 113.85 9.70 L 113.55 9.78 L 113.40 9.83 L 113.26 9.87 L 112.86 10.01 L 112.25 10.20 L 111.89 10.34 L 111.56 10.45 L 111.25 10.57 L 110.98 10.67 L 110.75 10.77 L 110.45 10.88 L 110.06 11.05 L 109.68 11.21 L 109.27 11.40 L 109.16 11.45 L 108.87 11.58 L 108.82 11.60 L 108.76 11.63 L 108.34 11.85 L 107.94 12.04 L 107.58 12.24 L 107.19 12.45 L 107.05 12.53 L 106.92 12.60 L 106.67 12.76 L 106.33 12.96 L 106.06 13.14 L 105.75 13.33 L 105.43 13.56 L 105.18 13.72 L 105.05 13.83 L 104.87 13.95 L 104.67 14.11 L 104.44 14.28 L 103.97 14.69 L 103.97 14.69 L 103.95 14.70 L 103.66 14.93 L 103.63 14.96 L 103.58 15.00 L 103.44 15.14 L 103.27 15.29 L 102.81 15.77 L 102.47 16.12 L 102.42 16.18 L 102.36 16.24 L 102.32 16.29 L 102.27 16.35 L 101.84 16.91 L 101.53 17.31 L 101.48 17.38 L 101.42 17.46 L 101.37 17.54 L 101.32 17.61 L 101.17 17.91 L 101.02 18.15 Z" clip-rule="evenodd"/></clipPath></defs>
<g stroke="black" fill="none" stroke-linecap="round" clip-path="url(#sclip)">
<path d="M 134.22 9.11 L 128.00 6.00 L 121.76 9.12 A 27.14 13.57 180.00 0 0 101.59 19.20 L 64.02 37.99 L 64.02 132.01 L 128.00 164.00 L 191.98 132.01 L 191.98 37.99 L 154.41 19.21 A 27.14 13.57 180.00 0 0 134.22 9.11 Z" stroke-width="2.00" stroke-linejoin="miter" stroke-miterlimit="5"/>
<line x1="155.14" y1="22.32" x2="155.14" y2="37.99" stroke-width="2.00"/>
<line x1="100.86" y1="22.32" x2="100.86" y2="37.99" stroke-width="2.00"/>
<line x1="128.00" y1="6.00" x2="191.98" y2="37.99" stroke-width="2.00"/>
<line x1="128.00" y1="69.98" x2="191.98" y2="37.99" stroke-width="2.00"/>
<line x1="64.02" y1="37.99" x2="128.00" y2="69.98" stroke-width="2.00"/>
<line x1="64.02" y1="37.99" x2="128.00" y2="6.00" stroke-width="2.00"/>
<line x1="128.00" y1="100.02" x2="191.98" y2="132.01" stroke-width="2.00"/>
<line x1="128.00" y1="164.00" x2="191.98" y2="132.01" stroke-width="2.00"/>
<line x1="64.02" y1="132.01" x2="128.00" y2="164.00" stroke-width="2.00"/>
<line x1="64.02" y1="132.01" x2="128.00" y2="100.02" stroke-width="2.00"/>
<line x1="128.00" y1="6.00" x2="128.00" y2="164.00" stroke-width="2.00"/>
<line x1="191.98" y1="37.99" x2="191.98" y2="132.01" stroke-width="2.00"/>
<line x1="64.02" y1="37.99" x2="64.02" y2="132.01" stroke-width="2.00"/>
<line x1="128.00" y1="34.47" x2="166.39" y2="53.66" stroke-width="2.00"/>
<line x1="128.00" y1="72.85" x2="166.39" y2="53.66" stroke-width="2.00"/>
<line x1="89.61" y1="53.66" x2="128.00" y2="72.85" stroke-width="2.00"/>
<line x1="89.61" y1="53.66" x2="128.00" y2="34.47" stroke-width="2.00"/>
<line x1="128.00" y1="112.82" x2="166.39" y2="132.01" stroke-width="2.00"/>
<line x1="128.00" y1="151.20" x2="166.39" y2="132.01" stroke-width="2.00"/>
<line x1="89.61" y1="132.01" x2="128.00" y2="151.20" stroke-width="2.00"/>
<line x1="89.61" y1="132.01" x2="128.00" y2="112.82" stroke-width="2.00"/>
<line x1="166.39" y1="53.66" x2="166.39" y2="132.01" stroke-width="2.00"/>
<line x1="89.61" y1="53.66" x2="89.61" y2="132.01" stroke-width="2.00"/>
<path d="M 108.81 47.58 A 27.14 13.57 180.00 0 0 147.19 47.58 A 27.14 13.57 180.00 0 0 147.19 28.39 A 27.14 13.57 180.00 0 0 108.81 28.39 A 27.14 13.57 180.00 0 0 108.81 47.58" stroke-width="2.00"/>
<path d="M 108.81 31.91 A 27.14 13.57 180.00 0 0 147.19 31.91 A 27.14 13.57 180.00 0 0 147.19 12.72 A 27.14 13.57 180.00 0 0 108.81 12.72 A 27.14 13.57 180.00 0 0 108.81 31.91" stroke-width="2.00"/>
</g>
</svg>