<svg xmlns="http://www.w3.org/2000/svg" viewBox="0 0 256 170" preserveAspectRatio="xMidYMid meet">
<defs><linearGradient id="g1" gradientUnits="userSpaceOnUse" x1="118.71" y1="96.41" x2="62.35" y2="83.27"><stop offset="-0.0%" stop-color="#3b261a"/><stop offset="12.8%" stop-color="#422b1d"/><stop offset="26.5%" stop-color="#482e20"/><stop offset="40.7%" stop-color="#4c3122"/><stop offset="54.9%" stop-color="#503424"/><stop offset="68.3%" stop-color="#543625"/><stop offset="80.7%" stop-color="#573826"/><stop offset="91.3%" stop-color="#593927"/><stop offset="100.0%" stop-color="#5a3a28"/></linearGradient><linearGradient id="g2" gradientUnits="userSpaceOnUse" x1="62.36" y1="83.27" x2="6.00" y2="70.13"><stop offset="-0.0%" stop-color="#3b261a"/><stop offset="12.8%" stop-color="#422b1d"/><stop offset="26.5%" stop-color="#482e20"/><stop offset="40.7%" stop-color="#4c3122"/><stop offset="54.9%" stop-color="#503424"/><stop offset="68.3%" stop-color="#543625"/><stop offset="80.7%" stop-color="#573826"/><stop offset="91.3%" stop-color="#593927"/><stop offset="100.0%" stop-color="#5a3a28"/></linearGradient><linearGradient id="g4" gradientUnits="userSpaceOnUse" x1="193.88" y1="68.46" x2="231.18" y2="68.46"><stop offset="0.0%" stop-color="#563826"/><stop offset="3.8%" stop-color="#5a3a28"/><stop offset="14.6%" stop-color="#573927"/><stop offset="30.9%" stop-color="#4f3323"/><stop offset="50.0%" stop-color="#422b1d"/><stop offset="69.1%" stop-color="#322116"/><stop offset="85.4%" stop-color="#301f15"/><stop offset="96.2%" stop-color="#301f15"/><stop offset="100.0%" stop-color="#301f15"/></linearGradient><linearGradient id="g5" gradientUnits="userSpaceOnUse" x1="24.82" y1="29.04" x2="62.12" y2="29.04"><stop offset="0.0%" stop-color="#563826"/><stop offset="3.8%" stop-color="#5a3a28"/><stop offset="14.6%" stop-color="#573927"/><stop offset="30.9%" stop-color="#4f3323"/><stop offset="50.0%" stop-color="#422b1d"/><stop offset="69.1%" stop-color="#322116"/><stop offset="85.4%" stop-color="#301f15"/><stop offset="96.2%" stop-color="#301f15"/><stop offset="100.0%" stop-color="#301f15"/></linearGradient><linearGradient id="g7" gradientUnits="userSpaceOnUse" x1="81.17" y1="42.18" x2="118.48" y2="42.18"><stop offset="0.0%" stop-color="#563826"/><stop offset="3.8%" stop-color="#5a3a28"/><stop offset="14.6%" stop-color="#573927"/><stop offset="30.9%" stop-color="#4f3323"/><stop offset="50.0%" stop-color="#422b1d"/><stop offset="69.1%" stop-color="#322116"/><stop offset="85.4%" stop-color="#301f15"/><stop offset="96.2%" stop-color="#301f15"/><stop offset="100.0%" stop-color="#301f15"/></linearGradient><linearGradient id="g9" gradientUnits="userSpaceOnUse" x1="175.07" y1="109.55" x2="118.71" y2="96.41"><stop offset="-0.0%" stop-color="#3b261a"/><stop offset="12.8%" stop-color="#422b1d"/><stop offset="26.5%" stop-color="#482e20"/><stop offset="40.7%" stop-color="#4c3122"/><stop offset="54.9%" stop-color="#503424"/><stop offset="68.3%" stop-color="#543625"/><stop offset="80.7%" stop-color="#573826"/><stop offset="91.3%" stop-color="#593927"/><stop offset="100.0%" stop-color="#5a3a28"/></linearGradient><linearGradient id="g10" gradientUnits="userSpaceOnUse" x1="137.52" y1="55.32" x2="174.83" y2="55.32"><stop offset="0.0%" stop-color="#563826"/><stop offset="3.8%" stop-color="#5a3a28"/><stop offset="14.6%" stop-color="#573927"/><stop offset="30.9%" stop-color="#4f3323"/><stop offset="50.0%" stop-color="#422b1d"/><stop offset="69.1%" stop-color="#322116"/><stop offset="85.4%" stop-color="#301f15"/><stop offset="96.2%" stop-color="#301f15"/><stop offset="100.0%" stop-color="#301f15"/></linearGradient><linearGradient id="g13" gradientUnits="userSpaceOnUse" x1="231.42" y1="122.69" x2="175.06" y2="109.55"><stop offset="-0.0%" stop-color="#3b261a"/><stop offset="12.8%" stop-color="#422b1d"/><stop offset="26.5%" stop-color="#482e20"/><stop offset="40.7%" stop-color="#4c3122"/><stop offset="54.9%" stop-color="#503424"/><stop offset="68.3%" stop-color="#543625"/><stop offset="80.7%" stop-color="#573826"/><stop offset="91.3%" stop-color="#593927"/><stop offset="100.0%" stop-color="#5a3a28"/></linearGradient></defs>
<g stroke-linejoin="round">
<path d="M 24.82 34.04 L 24.82 33.08 L 24.82 32.53 L 24.82 32.36 L 24.82 27.13 L 24.82 27.07 L 24.83 27.01 L 24.84 26.95 L 24.86 26.90 L 24.89 26.84 L 24.92 26.79 L 24.96 26.75 L 25.00 26.70 L 25.04 26.66 L 25.09 26.63 L 25.14 26.60 L 25.20 26.57 L 25.25 26.55 L 25.31 26.54 L 25.37 26.53 L 25.43 26.53 L 25.49 26.54 L 25.55 26.55 L 25.61 26.56 L 25.66 26.58 L 25.72 26.61 L 25.77 26.64 A 18.65 9.33 180.00 0 0 26.35 27.36 A 18.65 9.33 180.00 0 1 29.29 17.61 A 42.23 16.18 -172.96 0 0 24.58 17.90 L 24.58 17.90 L 6.00 37.82 L 33.21 44.17 L 6.00 37.82 A 42.23 16.18 -172.96 0 0 16.10 43.89 L 19.28 44.73 L 16.10 43.90 A 42.23 16.18 -172.96 0 0 20.46 45.63 L 41.06 50.43 A 42.23 16.18 -172.96 0 0 52.31 51.25 L 52.37 51.23 L 52.42 51.21 L 52.47 51.18 L 52.52 51.15 L 52.56 51.11 L 52.60 51.07 L 52.64 51.02 L 52.67 50.97 L 52.70 50.92 L 52.72 50.86 L 52.73 50.81 L 52.74 50.75 L 52.75 50.69 L 52.74 50.63 L 52.74 50.57 L 52.73 50.52 L 52.71 50.46 L 52.68 50.41 L 52.66 50.36 L 52.62 50.31 L 52.60 50.28 L 53.11 50.28 L 57.25 51.25 A 42.23 16.18 -172.96 0 0 62.35 50.96 L 62.35 50.96 A 42.23 16.18 -172.96 0 0 62.36 50.96 L 64.60 51.48 L 64.61 51.48 L 64.61 51.49 L 62.36 50.96 L 62.36 50.97 A 42.23 16.18 -172.96 0 0 68.53 55.12 L 68.52 55.12 A 42.23 16.18 -172.96 0 0 72.45 57.03 L 72.43 57.03 A 42.23 16.18 -172.96 0 0 76.82 58.77 L 97.40 63.57 A 42.23 16.18 -172.96 0 0 108.68 64.39 L 108.74 64.37 L 108.79 64.35 L 108.84 64.32 L 108.89 64.28 L 108.93 64.24 L 108.97 64.20 L 109.00 64.15 L 109.03 64.10 L 109.06 64.05 L 109.08 64.00 L 109.10 63.94 L 109.11 63.88 L 109.11 63.83 L 109.11 63.77 L 109.10 63.71 L 109.09 63.65 L 109.07 63.60 L 109.04 63.54 L 109.02 63.49 L 108.98 63.45 L 108.96 63.42 L 109.46 63.42 L 108.66 63.23 L 85.39 57.81 L 113.65 64.40 L 113.61 64.39 A 42.23 16.18 -172.96 0 0 118.71 64.10 L 115.41 63.33 L 118.71 64.10 A 42.23 16.18 -172.96 0 0 121.53 66.24 L 164.71 77.55 A 42.23 16.18 -172.96 0 0 165.02 77.53 L 165.07 77.51 L 165.13 77.49 L 165.18 77.46 L 165.23 77.42 L 165.27 77.39 L 165.31 77.34 L 165.35 77.30 L 165.38 77.25 L 165.41 77.19 L 165.43 77.14 L 165.44 77.08 L 165.45 77.03 L 165.46 76.97 L 165.45 76.91 L 165.45 76.85 L 165.44 76.79 L 165.42 76.74 L 165.39 76.69 L 165.36 76.63 L 165.33 76.58 L 165.31 76.56 L 165.81 76.56 L 170.01 77.54 L 169.98 77.53 A 42.23 16.18 -172.96 0 0 175.06 77.24 A 42.23 16.18 -172.96 0 0 185.16 83.31 L 188.34 84.14 L 185.16 83.31 A 42.23 16.18 -172.96 0 0 189.53 85.05 L 210.12 89.85 A 42.23 16.18 -172.96 0 0 221.06 90.69 L 216.41 89.47 L 221.07 90.69 A 42.23 16.18 -172.96 0 0 221.37 90.67 L 221.43 90.65 L 221.48 90.63 L 221.53 90.60 L 221.58 90.56 L 221.62 90.53 L 221.66 90.48 L 221.70 90.44 L 221.73 90.39 L 221.76 90.33 L 221.78 90.28 L 221.79 90.22 L 221.80 90.17 L 221.81 90.11 L 221.81 90.05 L 221.80 89.99 L 221.79 89.93 L 221.77 89.88 L 221.75 89.82 L 221.72 89.77 L 221.68 89.72 L 221.66 89.70 L 222.17 89.70 L 226.30 90.66 A 42.23 16.18 -172.96 0 0 231.42 90.38 L 231.42 90.38 L 250.00 70.45 L 250.00 70.45 A 42.23 16.18 -172.96 0 0 239.92 64.39 L 231.11 62.33 A 18.65 9.33 180.00 0 1 230.13 66.17 A 18.65 9.33 180.00 0 0 230.25 66.06 L 230.30 66.03 L 230.35 66.00 L 230.41 65.98 L 230.46 65.97 L 230.52 65.96 L 230.58 65.96 L 230.64 65.96 L 230.70 65.97 L 230.76 65.98 L 230.81 66.00 L 230.87 66.03 L 230.92 66.06 L 230.96 66.09 L 231.01 66.13 L 231.05 66.18 L 231.08 66.22 L 231.11 66.27 L 231.14 66.33 L 231.16 66.38 L 231.17 66.44 L 231.18 66.50 L 231.18 66.56 L 231.18 67.85 L 231.18 67.90 L 232.18 68.14 L 232.18 68.17 L 231.18 67.94 L 231.18 68.07 L 231.18 68.34 L 231.18 68.79 L 231.18 69.49 L 231.18 70.45 L 231.18 71.66 L 231.18 72.99 L 231.18 73.85 A 18.65 9.33 -180.00 0 1 212.94 83.17 A 18.65 9.33 -180.00 0 1 193.93 74.48 A 18.65 9.33 -180.00 0 1 193.88 73.45 L 193.88 72.50 L 193.88 71.94 L 193.88 71.78 L 193.88 66.55 L 193.88 66.49 L 193.89 66.43 L 193.90 66.37 L 193.92 66.31 L 193.95 66.26 L 193.98 66.21 L 194.02 66.16 L 194.06 66.12 L 194.10 66.08 L 194.15 66.04 L 194.20 66.01 L 194.26 65.99 L 194.31 65.97 L 194.37 65.96 L 194.43 65.95 L 194.49 65.95 L 194.55 65.95 L 194.61 65.96 L 194.67 65.98 L 194.72 66.00 L 194.78 66.03 L 194.83 66.06 A 18.65 9.33 180.00 0 0 195.41 66.77 A 18.65 9.33 180.00 0 1 198.35 57.03 A 42.23 16.18 -172.96 0 0 193.64 57.31 L 193.64 57.31 L 190.98 56.69 L 191.04 56.70 L 191.10 56.71 L 191.16 56.71 L 191.22 56.70 L 191.26 56.69 L 191.26 56.69 L 191.27 56.69 L 191.33 56.67 L 191.38 56.65 L 191.44 56.62 L 191.48 56.59 L 191.53 56.55 L 191.57 56.51 L 191.61 56.46 L 191.64 56.41 L 191.66 56.36 L 191.69 56.30 L 191.70 56.24 L 191.71 56.19 L 191.72 56.13 L 191.72 56.07 L 191.71 56.01 L 191.70 55.95 L 191.68 55.90 L 191.66 55.84 L 191.63 55.79 L 191.59 55.74 L 191.56 55.70 A 42.23 16.18 -172.96 0 0 183.57 51.25 L 174.76 49.19 A 18.65 9.33 -180.00 0 1 173.64 53.19 A 18.65 9.33 -180.00 0 0 173.90 52.92 L 173.95 52.89 L 174.00 52.87 L 174.06 52.85 L 174.11 52.83 L 174.17 52.83 L 174.23 52.82 L 174.29 52.83 L 174.35 52.83 L 174.40 52.85 L 174.46 52.87 L 174.51 52.89 L 174.56 52.92 L 174.61 52.96 L 174.65 53.00 L 174.69 53.04 L 174.73 53.09 L 174.76 53.14 L 174.78 53.19 L 174.80 53.25 L 174.82 53.30 L 174.83 53.36 L 174.83 53.42 L 174.83 54.23 L 174.83 54.77 L 175.83 55.00 L 175.83 55.03 L 174.83 54.80 L 174.83 54.93 L 174.83 55.20 L 174.83 55.65 L 174.83 56.35 L 174.83 57.31 L 174.83 58.52 L 174.83 59.85 L 174.83 60.71 A 18.65 9.33 180.00 0 1 156.58 70.03 A 18.65 9.33 180.00 0 1 137.57 61.32 A 18.65 9.33 180.00 0 1 137.52 60.31 L 137.52 59.36 L 137.52 58.80 L 137.52 58.64 L 137.52 53.41 L 137.53 53.35 L 137.53 53.29 L 137.55 53.23 L 137.57 53.18 L 137.60 53.12 L 137.63 53.07 L 137.66 53.02 L 137.70 52.98 L 137.75 52.94 L 137.80 52.91 L 137.85 52.88 L 137.90 52.85 L 137.96 52.83 L 138.02 52.82 L 138.08 52.81 L 138.14 52.81 L 138.20 52.81 L 138.26 52.82 L 138.31 52.84 L 138.37 52.86 L 138.42 52.89 L 138.47 52.92 A 18.65 9.33 -180.00 0 0 139.05 53.63 A 18.65 9.33 -180.00 0 1 138.93 46.39 L 124.61 43.06 L 138.93 46.39 A 18.65 9.33 -180.00 0 1 142.00 43.89 A 42.23 16.18 -172.96 0 0 137.29 44.17 A 42.23 16.18 -172.96 0 0 127.21 38.11 L 118.41 36.05 A 18.65 9.33 -180.00 0 1 117.42 39.89 A 18.65 9.33 -180.00 0 0 117.54 39.78 L 117.59 39.75 L 117.64 39.73 L 117.70 39.71 L 117.76 39.69 L 117.82 39.68 L 117.88 39.68 L 117.93 39.68 L 117.99 39.69 L 118.05 39.70 L 118.11 39.73 L 118.16 39.75 L 118.21 39.78 L 118.26 39.81 L 118.30 39.85 L 118.34 39.90 L 118.38 39.95 L 118.41 40.00 L 118.43 40.05 L 118.45 40.10 L 118.47 40.16 L 118.47 40.22 L 118.48 40.28 L 118.48 40.60 L 118.48 41.63 L 119.48 41.86 L 119.48 41.89 L 118.48 41.66 L 118.48 41.79 L 118.48 42.06 L 118.48 42.52 L 118.48 43.21 L 118.48 44.17 L 118.48 45.38 L 118.48 46.71 L 118.48 47.57 A 18.65 9.33 -180.00 0 1 100.23 56.89 A 18.65 9.33 -180.00 0 1 81.22 48.18 A 18.65 9.33 -180.00 0 1 81.17 47.17 L 81.17 46.22 L 81.17 45.66 L 81.17 45.50 L 81.17 40.27 L 81.17 40.21 L 81.18 40.15 L 81.20 40.09 L 81.22 40.04 L 81.24 39.98 L 81.27 39.93 L 81.31 39.88 L 81.35 39.84 L 81.40 39.80 L 81.44 39.77 L 81.50 39.74 L 81.55 39.71 L 81.61 39.69 L 81.67 39.68 L 81.72 39.67 L 81.78 39.67 L 81.84 39.67 L 81.90 39.69 L 81.96 39.70 L 82.02 39.72 L 82.07 39.75 L 82.12 39.78 A 18.65 9.33 -180.00 0 0 82.70 40.50 A 18.65 9.33 -180.00 0 1 85.64 30.75 A 42.23 16.18 -172.96 0 0 80.94 31.04 A 42.23 16.18 -172.96 0 0 70.86 24.97 L 62.05 22.91 A 18.65 9.33 180.00 0 1 61.07 26.75 A 18.65 9.33 180.00 0 0 61.19 26.64 L 61.24 26.61 L 61.29 26.59 L 61.35 26.57 L 61.40 26.55 L 61.46 26.54 L 61.52 26.54 L 61.58 26.54 L 61.64 26.55 L 61.70 26.57 L 61.75 26.59 L 61.80 26.61 L 61.86 26.64 L 61.90 26.68 L 61.95 26.72 L 61.99 26.76 L 62.02 26.81 L 62.05 26.86 L 62.08 26.91 L 62.10 26.97 L 62.10 26.97 L 62.11 27.02 L 62.12 27.08 L 62.12 27.14 L 62.12 28.49 L 63.12 28.72 L 63.12 28.75 L 62.12 28.52 L 62.12 28.66 L 62.12 28.92 L 62.12 29.38 L 62.12 30.07 L 62.12 31.03 L 62.12 32.24 L 62.12 33.57 L 62.12 34.43 A 18.65 9.33 180.00 0 1 44.41 43.79 L 44.36 43.81 L 44.31 43.85 L 44.26 43.88 L 44.22 43.92 L 44.18 43.97 L 44.15 44.02 L 44.12 44.07 L 44.10 44.13 L 44.08 44.18 L 44.08 44.19 L 44.07 44.24 L 44.06 44.30 L 44.06 44.36 L 44.06 44.42 L 44.08 44.48 L 44.09 44.53 L 44.12 44.59 L 44.14 44.64 L 44.15 44.64 L 44.18 44.69 L 44.22 44.74 L 44.26 44.78 L 44.30 44.82 L 44.35 44.85 L 44.41 44.88 L 44.46 44.90 L 44.51 44.91 L 37.86 43.32 A 18.65 9.33 180.00 0 1 24.82 34.04 Z M 133.17 71.91 L 153.75 76.71 A 42.23 16.18 -172.96 0 0 164.71 77.55 L 121.51 66.23 A 42.23 16.18 -172.96 0 0 128.81 70.17 L 132.79 71.22 L 128.81 70.17 A 42.23 16.18 -172.96 0 0 133.17 71.91 Z" fill="#724a33" fill-rule="evenodd" stroke="#724a33" stroke-width="0.8"/>
<path d="M 68.52 55.12 L 68.53 55.12 A 42.23 16.18 -172.96 0 1 62.36 50.97 L 62.36 115.58 L 62.35 115.58 A 42.23 16.18 -172.96 0 0 118.71 128.72 L 118.71 128.72 L 118.71 64.10 A 42.23 16.18 -172.96 0 1 68.52 55.12 Z" fill="url(#g1)" fill-rule="evenodd" stroke="url(#g1)" stroke-width="0.8"/>
<path d="M 6.00 37.82 L 6.00 102.44 A 42.23 16.18 -172.96 0 0 62.36 115.58 L 62.36 50.96 L 62.36 50.96 A 42.23 16.18 -172.96 0 1 6.00 37.82 Z" fill="url(#g2)" fill-rule="evenodd" stroke="url(#g2)" stroke-width="0.8"/>
<path d="M 231.42 90.38 L 231.42 90.38 L 231.42 154.98 L 231.42 154.99 L 250.00 135.07 L 250.00 70.45 L 231.42 90.38 Z" fill="#352217" fill-rule="evenodd" stroke="#352217" stroke-width="0.8"/>
<path d="M 231.18 73.85 L 231.18 66.56 L 231.18 66.50 L 231.17 66.44 L 231.16 66.38 L 231.14 66.33 L 231.11 66.27 L 231.08 66.22 L 231.05 66.18 L 231.01 66.13 L 230.96 66.09 L 230.92 66.06 L 230.87 66.03 L 230.81 66.00 L 230.76 65.98 L 230.70 65.97 L 230.64 65.96 L 230.58 65.96 L 230.52 65.96 L 230.46 65.97 L 230.41 65.98 L 230.35 66.00 L 230.30 66.03 L 230.25 66.06 A 18.65 9.33 180.00 0 1 207.34 72.03 A 18.65 9.33 180.00 0 1 194.83 66.06 L 194.78 66.03 L 194.72 66.00 L 194.67 65.98 L 194.61 65.96 L 194.55 65.95 L 194.49 65.95 L 194.43 65.95 L 194.37 65.96 L 194.31 65.97 L 194.26 65.99 L 194.20 66.01 L 194.15 66.04 L 194.10 66.08 L 194.06 66.12 L 194.02 66.16 L 193.98 66.21 L 193.95 66.26 L 193.92 66.31 L 193.90 66.37 L 193.89 66.43 L 193.88 66.49 L 193.88 66.55 L 193.88 73.85 A 18.65 9.33 -180.00 0 0 211.92 83.17 A 18.65 9.33 -180.00 0 0 231.12 74.60 A 18.65 9.33 -180.00 0 0 231.18 73.85 Z" fill="url(#g4)" fill-rule="evenodd" stroke="url(#g4)" stroke-width="0.8"/>
<path d="M 62.12 34.43 L 62.12 27.14 L 62.12 27.08 L 62.11 27.02 L 62.10 26.97 L 62.08 26.91 L 62.05 26.86 L 62.02 26.81 L 61.99 26.76 L 61.95 26.72 L 61.90 26.68 L 61.86 26.64 L 61.80 26.61 L 61.75 26.59 L 61.70 26.57 L 61.64 26.55 L 61.58 26.54 L 61.52 26.54 L 61.46 26.54 L 61.40 26.55 L 61.35 26.57 L 61.29 26.59 L 61.24 26.61 L 61.19 26.64 A 18.65 9.33 180.00 0 1 38.28 32.62 A 18.65 9.33 180.00 0 1 25.77 26.64 L 25.72 26.61 L 25.66 26.58 L 25.61 26.56 L 25.55 26.55 L 25.49 26.54 L 25.43 26.53 L 25.37 26.53 L 25.31 26.54 L 25.25 26.55 L 25.20 26.57 L 25.14 26.60 L 25.09 26.63 L 25.04 26.66 L 25.00 26.70 L 24.96 26.75 L 24.92 26.79 L 24.89 26.84 L 24.86 26.90 L 24.84 26.95 L 24.83 27.01 L 24.82 27.07 L 24.82 27.13 L 24.82 34.43 A 18.65 9.33 180.00 0 0 42.72 43.75 A 18.65 9.33 180.00 0 0 62.06 35.18 A 18.65 9.33 180.00 0 0 62.12 34.43 Z" fill="url(#g5)" fill-rule="evenodd" stroke="url(#g5)" stroke-width="0.8"/>
<path d="M 61.60 25.85 A 18.65 9.33 180.00 0 0 49.19 14.78 A 18.65 9.33 180.00 0 0 26.19 20.14 A 18.65 9.33 180.00 0 0 35.17 32.01 A 18.65 9.33 180.00 0 0 59.51 28.42 A 18.65 9.33 180.00 0 0 61.60 25.85 Z" fill="#724a33" fill-rule="evenodd" stroke="#724a33" stroke-width="0.8"/>
<path d="M 118.48 47.57 L 118.48 40.28 L 118.47 40.22 L 118.47 40.16 L 118.45 40.10 L 118.43 40.05 L 118.41 40.00 L 118.38 39.95 L 118.34 39.90 L 118.30 39.85 L 118.26 39.81 L 118.21 39.78 L 118.16 39.75 L 118.11 39.73 L 118.05 39.70 L 117.99 39.69 L 117.93 39.68 L 117.88 39.68 L 117.82 39.68 L 117.76 39.69 L 117.70 39.71 L 117.64 39.73 L 117.59 39.75 L 117.54 39.78 A 18.65 9.33 -180.00 0 1 94.63 45.76 A 18.65 9.33 -180.00 0 1 82.12 39.78 L 82.07 39.75 L 82.02 39.72 L 81.96 39.70 L 81.90 39.69 L 81.84 39.67 L 81.78 39.67 L 81.72 39.67 L 81.67 39.68 L 81.61 39.69 L 81.55 39.71 L 81.50 39.74 L 81.44 39.77 L 81.40 39.80 L 81.35 39.84 L 81.31 39.88 L 81.27 39.93 L 81.24 39.98 L 81.22 40.04 L 81.20 40.09 L 81.18 40.15 L 81.17 40.21 L 81.17 40.27 L 81.17 47.57 A 18.65 9.33 -180.00 0 0 99.07 56.89 A 18.65 9.33 -180.00 0 0 118.42 48.32 A 18.65 9.33 -180.00 0 0 118.48 47.57 Z" fill="url(#g7)" fill-rule="evenodd" stroke="url(#g7)" stroke-width="0.8"/>
<path d="M 117.96 38.99 A 18.65 9.33 -180.00 0 0 105.54 27.92 A 18.65 9.33 -180.00 0 0 82.55 33.28 A 18.65 9.33 -180.00 0 0 91.52 45.15 A 18.65 9.33 -180.00 0 0 115.86 41.56 A 18.65 9.33 -180.00 0 0 117.96 38.99 Z" fill="#724a33" fill-rule="evenodd" stroke="#724a33" stroke-width="0.8"/>
<path d="M 118.71 64.10 L 118.71 128.72 A 42.23 16.18 -172.96 0 0 175.06 141.86 L 175.06 141.86 L 175.06 77.24 A 42.23 16.18 -172.96 0 1 118.71 64.10 Z" fill="url(#g9)" fill-rule="evenodd" stroke="url(#g9)" stroke-width="0.8"/>
<path d="M 174.83 60.71 L 174.83 53.42 L 174.83 53.36 L 174.82 53.30 L 174.80 53.25 L 174.78 53.19 L 174.76 53.14 L 174.73 53.09 L 174.69 53.04 L 174.65 53.00 L 174.61 52.96 L 174.56 52.92 L 174.51 52.89 L 174.46 52.87 L 174.40 52.85 L 174.35 52.83 L 174.29 52.83 L 174.23 52.82 L 174.17 52.83 L 174.11 52.83 L 174.06 52.85 L 174.00 52.87 L 173.95 52.89 L 173.90 52.92 A 18.65 9.33 -180.00 0 1 150.99 58.90 A 18.65 9.33 -180.00 0 1 138.47 52.92 L 138.42 52.89 L 138.37 52.86 L 138.31 52.84 L 138.26 52.82 L 138.20 52.81 L 138.14 52.81 L 138.08 52.81 L 138.02 52.82 L 137.96 52.83 L 137.90 52.85 L 137.85 52.88 L 137.80 52.91 L 137.75 52.94 L 137.70 52.98 L 137.66 53.02 L 137.63 53.07 L 137.60 53.12 L 137.57 53.18 L 137.55 53.23 L 137.53 53.29 L 137.53 53.35 L 137.52 53.41 L 137.52 60.71 A 18.65 9.33 180.00 0 0 155.43 70.03 A 18.65 9.33 180.00 0 0 174.77 61.46 A 18.65 9.33 180.00 0 0 174.83 60.71 Z" fill="url(#g10)" fill-rule="evenodd" stroke="url(#g10)" stroke-width="0.8"/>
<path d="M 174.31 52.13 A 18.65 9.33 -180.00 0 0 161.90 41.06 A 18.65 9.33 -180.00 0 0 138.90 46.42 A 18.65 9.33 -180.00 0 0 147.87 58.29 A 18.65 9.33 -180.00 0 0 172.21 54.70 A 18.65 9.33 -180.00 0 0 174.31 52.13 Z" fill="#724a33" fill-rule="evenodd" stroke="#724a33" stroke-width="0.8"/>
<path d="M 230.66 65.27 A 18.65 9.33 180.00 0 0 218.25 54.20 A 18.65 9.33 180.00 0 0 195.25 59.56 A 18.65 9.33 180.00 0 0 204.23 71.43 A 18.65 9.33 180.00 0 0 228.57 67.84 A 18.65 9.33 180.00 0 0 230.66 65.27 Z" fill="#724a33" fill-rule="evenodd" stroke="#724a33" stroke-width="0.8"/>
<path d="M 231.42 90.38 A 42.23 16.18 -172.96 0 1 175.85 77.90 A 42.23 16.18 -172.96 0 1 175.06 77.24 L 175.06 141.86 A 42.23 16.18 -172.96 0 0 231.42 155.00 L 231.42 90.38 Z" fill="url(#g13)" fill-rule="evenodd" stroke="url(#g13)" stroke-width="0.8"/>
<path d="M 23.05 21.65 L 23.15 21.67 L 23.24 21.70 L 23.33 21.74 L 23.42 21.79 L 23.50 21.84 L 23.57 21.91 L 23.64 21.98 L 23.70 22.05 L 23.76 22.14 L 23.80 22.22 L 23.84 22.31 L 23.87 22.41 L 23.89 22.50 L 23.89 22.60 L 23.89 22.70 L 23.88 22.80 L 23.90 22.69 L 23.91 22.66 L 23.94 22.50 L 23.94 22.46 L 23.98 22.30 L 23.99 22.27 L 24.03 22.11 L 24.04 22.07 L 24.09 21.91 L 24.10 21.88 L 24.15 21.72 L 24.16 21.69 L 24.22 21.53 L 24.23 21.50 L 24.30 21.34 L 24.31 21.32 L 24.38 21.16 L 24.39 21.13 L 24.47 20.97 L 24.48 20.94 L 24.56 20.79 L 24.58 20.76 L 24.66 20.60 L 24.68 20.58 L 24.77 20.42 L 24.79 20.40 L 24.88 20.24 L 24.90 20.22 L 25.00 20.07 L 25.02 20.05 L 25.12 19.89 L 25.14 19.87 L 25.25 19.72 L 25.27 19.70 L 25.39 19.55 L 25.41 19.53 L 25.53 19.38 L 25.55 19.36 L 25.67 19.21 L 25.69 19.19 L 25.82 19.04 L 25.84 19.03 L 25.98 18.88 L 26.00 18.86 L 26.08 18.78 L 25.39 18.83 L 25.05 18.86 L 22.16 21.96 L 22.23 21.89 L 22.31 21.83 L 22.39 21.78 L 22.48 21.73 L 22.57 21.70 L 22.66 21.67 L 22.76 21.65 L 22.86 21.64 L 22.96 21.64 L 23.05 21.65 Z" fill="#000000" fill-rule="evenodd" stroke="#000000" stroke-width="0.8"/>
<path d="M 81.31 32.74 L 81.33 32.83 L 81.33 32.93 L 81.33 33.02 L 81.32 33.12 L 81.30 33.21 L 81.27 33.30 L 81.23 33.39 L 81.18 33.48 L 81.24 33.38 L 81.25 33.36 L 81.36 33.20 L 81.37 33.18 L 81.48 33.03 L 81.49 33.01 L 81.61 32.86 L 81.62 32.84 L 81.74 32.69 L 81.76 32.67 L 81.88 32.52 L 81.90 32.50 L 82.03 32.35 L 82.04 32.33 L 82.18 32.18 L 82.19 32.17 L 82.33 32.02 L 82.35 32.00 L 82.44 31.92 L 81.74 31.97 L 81.06 32.03 L 81.02 32.03 L 80.92 32.04 L 80.82 32.03 L 80.74 32.02 L 80.73 32.01 L 80.73 32.01 L 80.72 32.01 L 80.70 32.01 L 80.64 31.99 L 80.72 32.02 L 80.81 32.06 L 80.89 32.11 L 80.97 32.17 L 81.04 32.24 L 81.11 32.31 L 81.16 32.38 L 81.21 32.47 L 81.25 32.55 L 81.29 32.64 L 81.31 32.74 Z" fill="#000000" fill-rule="evenodd" stroke="#000000" stroke-width="0.8"/>
<path d="M 137.64 45.78 L 137.66 45.88 L 137.68 45.97 L 137.69 46.07 L 137.68 46.16 L 137.67 46.26 L 137.65 46.35 L 137.62 46.44 L 137.58 46.53 L 137.53 46.61 L 137.59 46.52 L 137.60 46.50 L 137.71 46.34 L 137.72 46.32 L 137.83 46.17 L 137.85 46.15 L 137.96 46.00 L 137.98 45.98 L 138.10 45.82 L 138.11 45.80 L 138.24 45.66 L 138.25 45.64 L 138.38 45.49 L 138.40 45.47 L 138.53 45.32 L 138.55 45.30 L 138.69 45.16 L 138.70 45.14 L 138.79 45.06 L 138.10 45.11 L 137.41 45.17 L 137.37 45.17 L 137.27 45.18 L 137.17 45.17 L 137.09 45.15 L 137.08 45.15 L 137.08 45.15 L 137.08 45.15 L 137.05 45.15 L 137.00 45.13 L 137.08 45.16 L 137.16 45.20 L 137.25 45.25 L 137.32 45.31 L 137.40 45.38 L 137.46 45.45 L 137.52 45.52 L 137.57 45.61 L 137.61 45.69 L 137.64 45.78 Z" fill="#000000" fill-rule="evenodd" stroke="#000000" stroke-width="0.8"/>
<path d="M 193.99 58.92 L 194.02 59.02 L 194.03 59.11 L 194.04 59.21 L 194.04 59.30 L 194.02 59.40 L 194.00 59.49 L 193.97 59.58 L 193.93 59.67 L 193.88 59.75 L 193.94 59.66 L 193.96 59.64 L 194.06 59.48 L 194.08 59.46 L 194.19 59.31 L 194.20 59.29 L 194.31 59.13 L 194.33 59.12 L 194.45 58.96 L 194.46 58.94 L 194.59 58.79 L 194.60 58.78 L 194.73 58.63 L 194.75 58.61 L 194.88 58.46 L 194.90 58.44 L 195.04 58.30 L 195.06 58.28 L 195.14 58.20 L 194.45 58.25 L 193.77 58.31 L 193.72 58.31 L 193.62 58.31 L 193.53 58.31 L 193.44 58.29 L 193.43 58.29 L 193.43 58.29 L 193.43 58.29 L 193.40 58.28 L 193.35 58.27 L 193.43 58.30 L 193.52 58.34 L 193.60 58.39 L 193.68 58.45 L 193.75 58.51 L 193.81 58.59 L 193.87 58.66 L 193.92 58.74 L 193.96 58.83 L 193.99 58.92 Z" fill="#000000" fill-rule="evenodd" stroke="#000000" stroke-width="0.8"/>
</g>
<defs><clipPath id="sclip"><path d="M 5.57 36.82 L 5.00 36.82 L 5.00 102.85 L 5.33 103.18 L 6.16 103.88 L 7.04 104.56 L 7.16 104.64 L 7.20 104.67 L 7.29 104.73 L 7.98 105.23 L 8.98 105.89 L 9.22 106.04 L 9.32 106.11 L 9.48 106.20 L 10.02 106.54 L 11.12 107.17 L 11.54 107.39 L 11.69 107.48 L 11.86 107.57 L 12.27 107.79 L 13.47 108.40 L 14.13 108.71 L 14.30 108.80 L 14.42 108.85 L 14.71 108.99 L 16.00 109.56 L 17.00 109.98 L 17.11 110.03 L 17.17 110.06 L 17.34 110.12 L 18.71 110.67 L 19.91 111.11 L 19.92 111.12 L 20.12 111.19 L 20.18 111.21 L 21.58 111.70 L 23.06 112.18 L 23.24 112.24 L 23.31 112.26 L 23.46 112.30 L 24.58 112.65 L 26.12 113.09 L 26.50 113.20 L 26.65 113.24 L 26.84 113.29 L 27.70 113.52 L 29.30 113.92 L 29.93 114.06 L 30.10 114.11 L 30.27 114.15 L 30.92 114.30 L 32.56 114.65 L 33.49 114.84 L 33.66 114.87 L 33.79 114.90 L 34.22 114.98 L 35.89 115.29 L 37.08 115.49 L 37.29 115.52 L 37.41 115.54 L 37.57 115.57 L 39.27 115.82 L 40.97 116.05 L 42.67 116.26 L 44.38 116.43 L 44.55 116.45 L 44.66 116.46 L 44.85 116.47 L 46.08 116.58 L 47.78 116.71 L 48.20 116.73 L 48.34 116.74 L 48.55 116.75 L 49.47 116.80 L 51.16 116.87 L 51.76 116.89 L 51.99 116.89 L 52.23 116.89 L 52.83 116.91 L 54.48 116.92 L 55.34 116.92 L 55.58 116.92 L 55.74 116.91 L 56.12 116.91 L 57.74 116.87 L 58.87 116.82 L 59.07 116.81 L 59.17 116.80 L 59.34 116.80 L 60.91 116.70 L 62.03 116.61 L 62.52 117.02 L 63.40 117.70 L 63.50 117.77 L 63.55 117.81 L 63.66 117.88 L 64.34 118.37 L 65.33 119.03 L 65.57 119.18 L 65.67 119.25 L 65.83 119.33 L 66.38 119.67 L 67.48 120.31 L 67.90 120.54 L 68.04 120.62 L 68.21 120.70 L 68.62 120.93 L 69.82 121.54 L 70.49 121.85 L 70.65 121.93 L 70.77 121.99 L 71.07 122.13 L 72.36 122.70 L 73.30 123.10 L 73.47 123.17 L 73.56 123.21 L 73.69 123.26 L 75.06 123.81 L 76.39 124.30 L 76.48 124.33 L 76.57 124.36 L 77.93 124.84 L 79.41 125.32 L 79.59 125.38 L 79.67 125.40 L 79.81 125.44 L 80.93 125.79 L 82.48 126.23 L 82.86 126.33 L 83.00 126.38 L 83.19 126.43 L 84.05 126.66 L 85.65 127.06 L 86.27 127.20 L 86.46 127.25 L 86.64 127.29 L 87.27 127.44 L 88.91 127.79 L 89.85 127.98 L 90.01 128.01 L 90.14 128.03 L 90.57 128.12 L 92.24 128.43 L 93.44 128.62 L 93.64 128.66 L 93.76 128.68 L 93.93 128.71 L 95.62 128.96 L 97.30 129.19 L 97.34 129.19 L 97.36 129.20 L 99.02 129.40 L 100.73 129.57 L 100.91 129.59 L 101.01 129.60 L 101.21 129.61 L 102.43 129.72 L 104.13 129.84 L 104.56 129.87 L 104.70 129.88 L 104.90 129.89 L 105.83 129.94 L 107.51 130.01 L 108.11 130.02 L 108.35 130.03 L 108.58 130.03 L 109.18 130.05 L 110.84 130.06 L 111.70 130.06 L 111.93 130.06 L 112.09 130.05 L 112.47 130.05 L 114.09 130.00 L 115.22 129.96 L 115.42 129.95 L 115.53 129.94 L 115.69 129.94 L 117.26 129.84 L 118.38 129.75 L 118.87 130.16 L 119.75 130.84 L 119.85 130.91 L 119.90 130.95 L 120.01 131.03 L 120.69 131.51 L 121.68 132.17 L 121.92 132.32 L 122.02 132.38 L 122.18 132.47 L 122.73 132.81 L 123.83 133.45 L 124.25 133.68 L 124.40 133.76 L 124.56 133.84 L 124.98 134.07 L 126.18 134.68 L 126.85 134.99 L 127.00 135.07 L 127.12 135.12 L 127.42 135.27 L 128.71 135.84 L 129.67 136.25 L 129.82 136.31 L 129.91 136.34 L 130.04 136.40 L 131.42 136.94 L 132.62 137.39 L 132.63 137.40 L 132.83 137.47 L 132.89 137.49 L 134.28 137.97 L 135.77 138.46 L 135.95 138.52 L 136.02 138.54 L 136.16 138.58 L 137.28 138.93 L 138.83 139.37 L 139.22 139.48 L 139.35 139.51 L 139.54 139.56 L 140.41 139.79 L 142.00 140.19 L 142.63 140.34 L 142.81 140.39 L 142.98 140.42 L 143.62 140.57 L 145.26 140.93 L 146.21 141.12 L 146.37 141.15 L 146.49 141.17 L 146.92 141.26 L 148.59 141.56 L 149.79 141.76 L 150.00 141.80 L 150.11 141.82 L 150.28 141.84 L 151.97 142.10 L 153.65 142.33 L 153.69 142.33 L 153.72 142.34 L 155.38 142.53 L 157.08 142.71 L 157.30 142.73 L 157.37 142.74 L 157.49 142.75 L 158.79 142.86 L 160.49 142.98 L 160.91 143.01 L 161.05 143.02 L 161.25 143.03 L 162.18 143.08 L 163.86 143.15 L 164.47 143.16 L 164.70 143.17 L 164.93 143.17 L 165.53 143.19 L 167.19 143.20 L 168.05 143.19 L 168.28 143.19 L 168.44 143.19 L 168.83 143.19 L 170.45 143.14 L 171.58 143.09 L 171.78 143.09 L 171.88 143.08 L 172.04 143.07 L 173.61 142.98 L 174.73 142.89 L 175.22 143.30 L 176.10 143.98 L 176.22 144.06 L 176.25 144.09 L 176.35 144.15 L 177.04 144.65 L 178.03 145.31 L 178.28 145.46 L 178.38 145.53 L 178.53 145.61 L 179.08 145.95 L 180.18 146.59 L 180.60 146.81 L 180.75 146.90 L 180.92 146.99 L 181.33 147.21 L 182.53 147.81 L 183.19 148.13 L 183.36 148.21 L 183.48 148.26 L 183.77 148.41 L 185.06 148.98 L 186.02 149.38 L 186.18 149.45 L 186.26 149.48 L 186.40 149.54 L 187.77 150.08 L 188.97 150.53 L 188.98 150.54 L 189.18 150.61 L 189.25 150.63 L 190.64 151.11 L 192.12 151.60 L 192.30 151.66 L 192.37 151.68 L 192.52 151.72 L 193.64 152.07 L 195.18 152.51 L 195.56 152.61 L 195.71 152.65 L 195.90 152.70 L 196.76 152.93 L 198.36 153.33 L 198.99 153.48 L 199.16 153.53 L 199.33 153.56 L 199.98 153.71 L 201.62 154.07 L 202.55 154.25 L 202.72 154.29 L 202.85 154.31 L 203.28 154.40 L 204.95 154.70 L 206.13 154.90 L 206.35 154.94 L 206.47 154.96 L 206.63 154.98 L 208.33 155.24 L 210.00 155.47 L 210.04 155.47 L 210.07 155.47 L 211.73 155.67 L 213.44 155.85 L 213.66 155.87 L 213.72 155.88 L 213.83 155.88 L 215.14 156.00 L 216.84 156.12 L 217.23 156.14 L 217.40 156.16 L 217.64 156.17 L 218.53 156.22 L 220.22 156.29 L 220.82 156.30 L 221.05 156.31 L 221.29 156.31 L 221.89 156.33 L 223.54 156.34 L 224.41 156.33 L 224.64 156.33 L 224.80 156.33 L 225.18 156.33 L 226.80 156.28 L 227.93 156.23 L 228.13 156.23 L 228.23 156.22 L 228.40 156.21 L 229.97 156.12 L 231.46 156.00 L 231.85 156.00 L 250.43 136.07 L 251.00 136.07 L 251.00 70.04 L 250.68 69.72 L 249.84 69.01 L 248.95 68.33 L 248.92 68.31 L 248.02 67.66 L 247.82 67.53 L 247.77 67.50 L 247.71 67.45 L 247.03 67.00 L 247.01 67.00 L 246.99 66.98 L 246.99 66.98 L 246.98 66.98 L 246.96 66.96 L 245.98 66.36 L 244.88 65.72 L 244.85 65.71 L 244.82 65.69 L 244.82 65.69 L 244.77 65.66 L 244.40 65.46 L 244.31 65.41 L 244.21 65.36 L 243.73 65.10 L 242.53 64.49 L 242.46 64.46 L 242.45 64.46 L 242.45 64.45 L 242.39 64.43 L 241.28 63.90 L 240.44 63.53 L 240.32 63.47 L 240.23 63.43 L 240.00 63.33 L 239.91 63.29 L 239.88 63.28 L 239.80 63.25 L 238.66 62.77 L 237.29 62.23 L 237.21 62.20 L 237.15 62.17 L 237.00 62.12 L 235.88 61.70 L 234.42 61.20 L 234.30 61.16 L 234.25 61.14 L 234.12 61.10 L 232.94 60.71 L 231.46 60.26 L 231.46 60.25 L 231.43 60.19 L 231.29 59.96 L 231.06 59.57 L 230.99 59.48 L 230.94 59.40 L 230.85 59.29 L 230.78 59.17 L 230.63 59.00 L 230.45 58.77 L 230.35 58.66 L 230.27 58.56 L 230.08 58.38 L 229.95 58.22 L 229.84 58.13 L 229.74 58.02 L 229.60 57.90 L 229.47 57.77 L 229.20 57.55 L 229.04 57.41 L 228.96 57.34 L 228.94 57.33 L 228.91 57.30 L 228.71 57.16 L 228.56 57.03 L 228.31 56.86 L 228.00 56.64 L 227.89 56.57 L 227.80 56.51 L 227.66 56.43 L 227.53 56.34 L 227.27 56.20 L 226.98 56.02 L 226.72 55.88 L 226.51 55.76 L 226.45 55.73 L 226.40 55.71 L 226.13 55.58 L 225.89 55.45 L 225.51 55.28 L 225.18 55.12 L 225.13 55.10 L 225.09 55.09 L 224.93 55.02 L 224.71 54.92 L 224.23 54.75 L 223.86 54.60 L 223.69 54.54 L 223.56 54.49 L 223.51 54.48 L 223.45 54.45 L 222.91 54.28 L 222.47 54.14 L 222.30 54.09 L 222.14 54.04 L 222.03 54.01 L 221.93 53.98 L 221.54 53.88 L 221.51 53.87 L 221.01 53.74 L 220.89 53.71 L 220.76 53.68 L 220.45 53.61 L 220.20 53.55 L 219.88 53.49 L 219.50 53.40 L 219.42 53.39 L 219.33 53.37 L 218.73 53.27 L 218.41 53.21 L 218.22 53.19 L 217.93 53.14 L 217.90 53.13 L 217.87 53.13 L 216.90 53.01 L 216.56 52.96 L 216.47 52.96 L 216.38 52.95 L 216.33 52.94 L 215.80 52.90 L 214.84 52.82 L 214.77 52.82 L 214.71 52.81 L 214.66 52.81 L 214.62 52.81 L 214.12 52.79 L 213.30 52.76 L 213.18 52.76 L 213.06 52.75 L 212.91 52.75 L 212.77 52.75 L 212.38 52.76 L 211.76 52.76 L 211.59 52.76 L 211.41 52.77 L 211.09 52.78 L 210.86 52.79 L 210.60 52.80 L 210.22 52.82 L 209.97 52.84 L 209.77 52.85 L 209.32 52.89 L 208.97 52.92 L 208.84 52.93 L 208.70 52.94 L 208.43 52.98 L 208.15 53.00 L 207.70 53.06 L 207.20 53.13 L 207.14 53.14 L 207.10 53.14 L 206.91 53.17 L 206.85 53.19 L 206.56 53.23 L 206.19 53.30 L 205.73 53.37 L 205.48 53.42 L 205.30 53.46 L 205.16 53.49 L 205.01 53.52 L 204.69 53.59 L 204.30 53.68 L 203.90 53.78 L 203.77 53.81 L 203.57 53.86 L 203.53 53.87 L 203.50 53.88 L 203.24 53.96 L 202.93 54.04 L 202.47 54.18 L 202.08 54.30 L 201.98 54.33 L 201.90 54.36 L 201.78 54.40 L 201.61 54.45 L 201.11 54.64 L 200.71 54.78 L 200.55 54.85 L 200.37 54.92 L 200.34 54.93 L 200.28 54.96 L 199.85 55.15 L 199.43 55.33 L 199.31 55.39 L 199.18 55.45 L 199.03 55.52 L 198.89 55.59 L 198.62 55.74 L 198.61 55.74 L 198.24 55.93 L 198.17 55.97 L 198.07 56.02 L 198.05 56.03 L 197.41 56.06 L 196.79 56.09 L 196.79 56.09 L 196.77 56.09 L 196.66 56.09 L 196.53 56.10 L 196.11 56.13 L 195.46 56.17 L 195.12 56.19 L 195.10 56.19 L 195.08 56.19 L 194.82 56.21 L 194.18 56.26 L 193.97 56.28 L 193.48 55.87 L 192.65 55.23 L 192.63 55.22 L 192.59 55.19 L 192.59 55.18 L 192.56 55.16 L 192.56 55.16 L 192.55 55.16 L 191.66 54.52 L 191.47 54.40 L 191.42 54.36 L 191.35 54.32 L 190.66 53.86 L 190.66 53.86 L 190.64 53.85 L 190.57 53.80 L 189.62 53.22 L 188.53 52.59 L 188.48 52.56 L 188.46 52.55 L 188.41 52.52 L 188.06 52.33 L 187.96 52.27 L 187.84 52.22 L 187.38 51.96 L 186.18 51.36 L 186.11 51.32 L 186.09 51.31 L 186.04 51.29 L 184.93 50.77 L 184.09 50.39 L 183.97 50.33 L 183.87 50.29 L 183.65 50.19 L 183.59 50.16 L 183.53 50.14 L 183.39 50.08 L 182.31 49.63 L 180.94 49.09 L 180.85 49.06 L 180.79 49.03 L 180.64 48.98 L 179.52 48.56 L 178.07 48.06 L 177.95 48.02 L 177.89 48.00 L 177.75 47.95 L 176.59 47.57 L 175.11 47.12 L 175.11 47.11 L 175.08 47.05 L 174.93 46.81 L 174.71 46.43 L 174.64 46.35 L 174.59 46.27 L 174.50 46.15 L 174.42 46.03 L 174.28 45.87 L 174.10 45.63 L 174.00 45.52 L 173.92 45.43 L 173.73 45.24 L 173.59 45.08 L 173.49 44.99 L 173.38 44.88 L 173.24 44.75 L 173.12 44.63 L 172.86 44.42 L 172.69 44.27 L 172.61 44.20 L 172.59 44.19 L 172.56 44.16 L 172.36 44.02 L 172.21 43.89 L 171.94 43.72 L 171.64 43.50 L 171.54 43.44 L 171.45 43.37 L 171.31 43.29 L 171.18 43.20 L 170.92 43.06 L 170.63 42.88 L 170.36 42.74 L 170.15 42.62 L 170.10 42.59 L 170.05 42.57 L 169.78 42.44 L 169.53 42.31 L 169.13 42.13 L 168.82 41.98 L 168.78 41.97 L 168.74 41.95 L 168.58 41.89 L 168.35 41.79 L 167.85 41.60 L 167.51 41.46 L 167.35 41.41 L 167.21 41.35 L 167.16 41.34 L 167.10 41.31 L 166.56 41.14 L 166.12 41.00 L 165.94 40.95 L 165.78 40.90 L 165.67 40.87 L 165.57 40.84 L 165.19 40.74 L 164.66 40.60 L 164.53 40.57 L 164.41 40.54 L 164.10 40.47 L 163.85 40.41 L 163.52 40.35 L 163.15 40.27 L 163.06 40.25 L 162.98 40.23 L 162.38 40.13 L 162.06 40.07 L 161.86 40.05 L 161.58 40.00 L 161.55 39.99 L 161.51 39.99 L 160.54 39.87 L 160.21 39.82 L 160.12 39.82 L 160.03 39.81 L 159.98 39.80 L 159.45 39.76 L 158.49 39.68 L 158.42 39.68 L 158.35 39.67 L 158.31 39.67 L 158.28 39.67 L 157.79 39.65 L 156.95 39.62 L 156.82 39.62 L 156.70 39.61 L 156.55 39.62 L 156.41 39.61 L 156.03 39.62 L 155.41 39.62 L 155.24 39.62 L 155.06 39.63 L 154.74 39.64 L 154.51 39.65 L 154.25 39.66 L 153.87 39.68 L 153.62 39.70 L 153.42 39.71 L 152.95 39.75 L 152.61 39.78 L 152.49 39.79 L 152.34 39.80 L 152.07 39.84 L 151.79 39.86 L 151.35 39.93 L 150.85 39.99 L 150.78 40.00 L 150.75 40.00 L 150.56 40.04 L 150.50 40.05 L 150.20 40.09 L 149.83 40.16 L 149.38 40.23 L 149.13 40.28 L 148.95 40.32 L 148.81 40.35 L 148.65 40.38 L 148.31 40.46 L 147.95 40.54 L 147.55 40.64 L 147.43 40.67 L 147.22 40.72 L 147.18 40.73 L 147.15 40.74 L 146.88 40.82 L 146.57 40.90 L 146.12 41.04 L 145.72 41.16 L 145.63 41.19 L 145.55 41.22 L 145.43 41.26 L 145.25 41.32 L 144.75 41.50 L 144.36 41.64 L 144.20 41.71 L 144.00 41.78 L 144.00 41.79 L 143.97 41.80 L 143.94 41.81 L 143.45 42.03 L 143.08 42.19 L 142.96 42.25 L 142.82 42.31 L 142.68 42.38 L 142.54 42.45 L 142.25 42.60 L 141.89 42.79 L 141.82 42.83 L 141.72 42.88 L 141.70 42.89 L 141.06 42.92 L 140.43 42.95 L 140.42 42.95 L 140.41 42.95 L 140.31 42.96 L 140.18 42.97 L 139.75 42.99 L 139.11 43.03 L 138.78 43.05 L 138.75 43.05 L 138.73 43.05 L 138.47 43.07 L 137.83 43.12 L 137.62 43.14 L 137.13 42.73 L 136.29 42.09 L 136.27 42.06 L 136.18 42.01 L 135.31 41.38 L 135.11 41.25 L 135.07 41.22 L 135.00 41.18 L 134.31 40.72 L 134.31 40.72 L 134.29 40.71 L 134.22 40.66 L 133.27 40.08 L 132.17 39.45 L 132.13 39.42 L 132.12 39.42 L 132.11 39.41 L 132.08 39.40 L 131.69 39.19 L 131.60 39.13 L 131.50 39.08 L 131.02 38.83 L 129.82 38.22 L 129.75 38.18 L 129.75 38.18 L 129.74 38.18 L 129.69 38.15 L 128.58 37.63 L 127.75 37.26 L 127.62 37.19 L 127.51 37.15 L 127.29 37.05 L 127.24 37.03 L 127.18 37.00 L 127.01 36.94 L 125.95 36.49 L 124.58 35.95 L 124.51 35.92 L 124.44 35.89 L 124.25 35.83 L 123.17 35.42 L 121.72 34.92 L 121.61 34.88 L 121.54 34.86 L 121.39 34.81 L 120.23 34.43 L 118.76 33.98 L 118.75 33.96 L 118.73 33.92 L 118.58 33.68 L 118.35 33.29 L 118.29 33.21 L 118.24 33.13 L 118.14 33.01 L 118.07 32.90 L 117.92 32.72 L 117.75 32.49 L 117.64 32.39 L 117.57 32.29 L 117.38 32.11 L 117.24 31.94 L 117.13 31.85 L 117.03 31.74 L 116.89 31.62 L 116.77 31.50 L 116.51 31.29 L 116.36 31.16 L 116.24 31.05 L 116.22 31.04 L 116.21 31.03 L 116.01 30.88 L 115.85 30.75 L 115.59 30.58 L 115.29 30.36 L 115.18 30.29 L 115.10 30.23 L 114.96 30.15 L 114.82 30.06 L 114.57 29.92 L 114.28 29.74 L 114.00 29.60 L 113.80 29.48 L 113.75 29.45 L 113.69 29.43 L 113.43 29.30 L 113.18 29.17 L 112.80 29.00 L 112.47 28.85 L 112.42 28.83 L 112.38 28.81 L 112.22 28.75 L 112.00 28.65 L 111.50 28.46 L 111.16 28.32 L 111.00 28.27 L 110.85 28.21 L 110.81 28.20 L 110.75 28.18 L 110.20 28.00 L 109.77 27.86 L 109.59 27.81 L 109.43 27.76 L 109.32 27.73 L 109.22 27.70 L 108.84 27.61 L 108.31 27.46 L 108.17 27.43 L 108.05 27.40 L 107.75 27.33 L 107.50 27.27 L 107.19 27.21 L 106.79 27.13 L 106.70 27.11 L 106.63 27.09 L 106.02 26.99 L 105.70 26.93 L 105.50 26.91 L 105.23 26.86 L 105.19 26.86 L 105.15 26.85 L 104.19 26.73 L 103.85 26.68 L 103.76 26.68 L 103.68 26.67 L 103.62 26.66 L 103.10 26.62 L 102.14 26.54 L 102.06 26.54 L 102.00 26.53 L 101.95 26.53 L 101.92 26.53 L 101.44 26.51 L 100.59 26.48 L 100.47 26.48 L 100.35 26.48 L 100.20 26.48 L 100.06 26.47 L 99.67 26.48 L 99.05 26.48 L 98.88 26.49 L 98.70 26.49 L 98.39 26.50 L 98.15 26.51 L 97.90 26.52 L 97.52 26.54 L 97.26 26.56 L 97.06 26.57 L 96.63 26.61 L 96.62 26.61 L 96.26 26.64 L 96.14 26.65 L 95.99 26.66 L 95.72 26.70 L 95.44 26.72 L 95.00 26.79 L 94.50 26.85 L 94.43 26.86 L 94.39 26.86 L 94.21 26.90 L 94.17 26.90 L 93.85 26.95 L 93.46 27.02 L 93.02 27.09 L 92.78 27.14 L 92.59 27.18 L 92.46 27.21 L 92.30 27.24 L 91.96 27.32 L 91.59 27.40 L 91.21 27.50 L 91.06 27.54 L 90.86 27.58 L 90.83 27.59 L 90.80 27.60 L 90.51 27.68 L 90.22 27.76 L 89.77 27.90 L 89.37 28.02 L 89.28 28.05 L 89.19 28.08 L 89.07 28.12 L 88.90 28.18 L 88.40 28.36 L 88.01 28.50 L 87.85 28.57 L 87.67 28.64 L 87.64 28.65 L 87.60 28.67 L 87.57 28.68 L 87.14 28.88 L 86.73 29.05 L 86.61 29.11 L 86.47 29.17 L 86.32 29.25 L 86.18 29.31 L 85.92 29.45 L 85.92 29.46 L 85.54 29.65 L 85.46 29.69 L 85.37 29.74 L 85.35 29.75 L 84.70 29.78 L 84.08 29.81 L 84.07 29.81 L 84.05 29.81 L 83.96 29.82 L 83.84 29.82 L 83.40 29.85 L 82.75 29.89 L 82.41 29.91 L 82.39 29.92 L 82.37 29.92 L 82.11 29.93 L 81.47 29.98 L 81.26 30.00 L 80.78 29.59 L 79.89 28.91 L 79.86 28.89 L 78.96 28.25 L 78.75 28.11 L 78.71 28.08 L 78.64 28.04 L 77.96 27.58 L 77.95 27.58 L 77.94 27.57 L 77.86 27.52 L 76.92 26.94 L 75.82 26.31 L 75.78 26.28 L 75.76 26.27 L 75.73 26.26 L 75.73 26.26 L 75.34 26.05 L 75.25 25.99 L 75.14 25.94 L 74.67 25.69 L 73.47 25.08 L 73.42 25.06 L 73.39 25.04 L 73.28 24.99 L 72.23 24.49 L 71.40 24.12 L 71.27 24.05 L 71.15 24.01 L 70.94 23.91 L 70.88 23.89 L 70.82 23.86 L 70.68 23.81 L 69.60 23.35 L 68.23 22.81 L 68.16 22.78 L 68.08 22.75 L 67.90 22.69 L 66.81 22.29 L 65.36 21.78 L 65.25 21.74 L 65.19 21.72 L 65.04 21.67 L 63.88 21.29 L 62.41 20.84 L 62.40 20.83 L 62.37 20.77 L 62.23 20.54 L 62.00 20.15 L 61.93 20.07 L 61.88 19.99 L 61.79 19.87 L 61.72 19.76 L 61.57 19.59 L 61.39 19.36 L 61.29 19.25 L 61.21 19.15 L 61.02 18.96 L 60.89 18.80 L 60.78 18.71 L 60.68 18.60 L 60.54 18.48 L 60.41 18.36 L 60.15 18.14 L 60.01 18.02 L 59.89 17.91 L 59.87 17.90 L 59.86 17.89 L 59.65 17.74 L 59.50 17.61 L 59.24 17.45 L 58.94 17.22 L 58.83 17.16 L 58.74 17.10 L 58.60 17.01 L 58.47 16.92 L 58.22 16.79 L 57.92 16.60 L 57.65 16.46 L 57.45 16.34 L 57.39 16.32 L 57.34 16.29 L 57.08 16.16 L 56.83 16.03 L 56.45 15.87 L 56.12 15.71 L 56.07 15.69 L 56.03 15.67 L 55.87 15.61 L 55.65 15.51 L 55.18 15.33 L 54.80 15.18 L 54.63 15.12 L 54.50 15.08 L 54.46 15.06 L 54.39 15.04 L 53.84 14.86 L 53.41 14.72 L 53.24 14.67 L 53.08 14.62 L 52.97 14.59 L 52.87 14.56 L 52.48 14.46 L 52.46 14.46 L 51.95 14.32 L 51.83 14.29 L 51.70 14.26 L 51.39 14.20 L 51.14 14.13 L 50.83 14.07 L 50.44 13.99 L 50.35 13.97 L 50.27 13.96 L 49.67 13.85 L 49.35 13.79 L 49.16 13.77 L 48.87 13.72 L 48.84 13.72 L 48.81 13.71 L 47.84 13.59 L 47.50 13.55 L 47.41 13.54 L 47.32 13.53 L 47.27 13.52 L 46.75 13.48 L 45.78 13.40 L 45.71 13.40 L 45.65 13.39 L 45.60 13.39 L 45.56 13.39 L 45.08 13.37 L 44.24 13.34 L 44.12 13.34 L 44.00 13.34 L 43.85 13.34 L 43.71 13.33 L 43.32 13.34 L 42.70 13.34 L 42.53 13.35 L 42.35 13.35 L 42.03 13.36 L 41.80 13.37 L 41.54 13.39 L 41.16 13.40 L 40.91 13.42 L 40.71 13.43 L 40.27 13.47 L 39.91 13.50 L 39.78 13.51 L 39.64 13.53 L 39.37 13.56 L 39.09 13.59 L 38.64 13.65 L 38.14 13.71 L 38.08 13.72 L 38.04 13.72 L 37.85 13.76 L 37.79 13.77 L 37.50 13.81 L 37.12 13.88 L 36.67 13.96 L 36.42 14.01 L 36.24 14.04 L 36.10 14.07 L 35.95 14.10 L 35.63 14.18 L 35.24 14.26 L 34.84 14.37 L 34.71 14.40 L 34.51 14.44 L 34.47 14.45 L 34.44 14.46 L 34.18 14.54 L 33.87 14.62 L 33.43 14.76 L 33.02 14.88 L 32.92 14.91 L 32.84 14.94 L 32.71 14.98 L 32.55 15.04 L 32.06 15.22 L 31.65 15.37 L 31.49 15.44 L 31.29 15.51 L 31.29 15.51 L 31.28 15.51 L 31.22 15.54 L 30.79 15.73 L 30.37 15.91 L 30.25 15.97 L 30.11 16.03 L 29.97 16.11 L 29.83 16.17 L 29.55 16.33 L 29.54 16.33 L 29.18 16.51 L 29.10 16.56 L 29.01 16.60 L 28.99 16.62 L 28.35 16.64 L 27.70 16.67 L 27.64 16.68 L 27.59 16.68 L 27.57 16.68 L 27.05 16.71 L 26.40 16.75 L 26.08 16.77 L 26.03 16.78 L 26.00 16.78 L 25.76 16.80 L 25.12 16.85 L 24.55 16.90 L 24.15 16.90 Z" clip-rule="evenodd"/></clipPath></defs>
<g stroke="black" fill="none" stroke-linecap="round" clip-path="url(#sclip)">
<path d="M 6.00 37.82 L 6.00 102.44 A 42.23 16.18 -172.96 0 0 62.36 115.58 A 42.23 16.18 -172.96 0 0 118.71 128.72 A 42.23 16.18 -172.96 0 0 175.06 141.86 A 42.23 16.18 -172.96 0 0 231.42 155.00 A 42.23 16.18 -172.96 0 0 231.42 154.99 L 250.00 135.07 L 250.00 135.07 L 250.00 70.45 L 250.00 70.45 A 42.23 16.18 -172.96 0 0 230.74 61.08 A 18.65 9.33 180.00 0 0 208.80 53.94 A 18.65 9.33 180.00 0 0 198.35 57.02 A 42.23 16.18 -172.96 0 0 193.64 57.31 A 42.23 16.18 -172.96 0 0 174.38 47.94 A 18.65 9.33 -180.00 0 0 152.44 40.80 A 18.65 9.33 -180.00 0 0 142.00 43.88 A 42.23 16.18 -172.96 0 0 137.29 44.17 A 42.23 16.18 -172.96 0 0 118.03 34.80 A 18.65 9.33 -180.00 0 0 96.09 27.66 A 18.65 9.33 -180.00 0 0 85.65 30.74 A 42.23 16.18 -172.96 0 0 80.94 31.04 A 42.23 16.18 -172.96 0 0 61.68 21.66 A 18.65 9.33 180.00 0 0 39.74 14.52 A 18.65 9.33 180.00 0 0 29.30 17.61 A 42.23 16.18 -172.96 0 0 24.58 17.90 L 6.00 37.82 L 6.00 37.82 Z" stroke-width="2.00" stroke-linejoin="miter" stroke-miterlimit="5"/>
<path d="M 231.18 73.85 A 18.65 9.33 -180.00 0 1 221.86 81.92 A 18.65 9.33 -180.00 0 1 203.20 81.92 A 18.65 9.33 -180.00 0 1 193.88 73.85" stroke-width="2.00"/>
<path d="M 229.44 67.02 A 18.65 9.33 180.00 0 0 220.41 54.62 A 18.65 9.33 180.00 0 0 195.62 59.13 A 18.65 9.33 180.00 0 0 204.65 71.53 A 18.65 9.33 180.00 0 0 229.44 67.02" stroke-width="2.00"/>
<path d="M 174.83 60.71 A 18.65 9.33 180.00 0 1 165.50 68.78 A 18.65 9.33 180.00 0 1 146.85 68.78 A 18.65 9.33 180.00 0 1 137.52 60.71" stroke-width="2.00"/>
<path d="M 173.08 53.88 A 18.65 9.33 -180.00 0 0 164.06 41.48 A 18.65 9.33 -180.00 0 0 139.27 46.00 A 18.65 9.33 -180.00 0 0 148.29 58.39 A 18.65 9.33 -180.00 0 0 173.08 53.88" stroke-width="2.00"/>
<path d="M 118.48 47.57 A 18.65 9.33 -180.00 0 1 109.15 55.65 A 18.65 9.33 -180.00 0 1 90.50 55.65 A 18.65 9.33 -180.00 0 1 81.17 47.57" stroke-width="2.00"/>
<path d="M 116.73 40.74 A 18.65 9.33 -180.00 0 0 107.71 28.35 A 18.65 9.33 -180.00 0 0 82.92 32.86 A 18.65 9.33 -180.00 0 0 91.94 45.25 A 18.65 9.33 -180.00 0 0 116.73 40.74" stroke-width="2.00"/>
<path d="M 62.12 34.43 A 18.65 9.33 180.00 0 1 52.80 42.51 A 18.65 9.33 180.00 0 1 34.14 42.51 A 18.65 9.33 180.00 0 1 24.82 34.43" stroke-width="2.00"/>
<path d="M 60.38 27.60 A 18.65 9.33 180.00 0 0 51.35 15.21 A 18.65 9.33 180.00 0 0 26.56 19.72 A 18.65 9.33 180.00 0 0 35.59 32.11 A 18.65 9.33 180.00 0 0 60.38 27.60" stroke-width="2.00"/>
<path d="M 62.36 50.96 A 42.23 16.18 -172.96 0 1 6.00 37.82" stroke-width="2.00"/>
<path d="M 24.58 17.90 A 42.23 16.18 -172.96 0 1 29.05 17.62" stroke-width="2.00"/>
<path d="M 61.87 21.72 A 42.23 16.18 -172.96 0 1 80.94 31.04" stroke-width="2.00"/>
<path d="M 62.36 115.58 A 42.23 16.18 -172.96 0 1 6.00 102.44" stroke-width="2.00"/>
<path d="M 118.71 64.10 A 42.23 16.18 -172.96 0 1 62.35 50.96" stroke-width="2.00"/>
<path d="M 80.93 31.04 A 42.23 16.18 -172.96 0 1 85.40 30.75" stroke-width="2.00"/>
<path d="M 118.22 34.86 A 42.23 16.18 -172.96 0 1 137.29 44.18" stroke-width="2.00"/>
<path d="M 118.71 128.72 A 42.23 16.18 -172.96 0 1 62.35 115.58" stroke-width="2.00"/>
<path d="M 175.06 77.24 A 42.23 16.18 -172.96 0 1 118.71 64.10" stroke-width="2.00"/>
<path d="M 137.29 44.17 A 42.23 16.18 -172.96 0 1 141.75 43.89" stroke-width="2.00"/>
<path d="M 174.58 48.00 A 42.23 16.18 -172.96 0 1 193.65 57.32" stroke-width="2.00"/>
<path d="M 175.06 141.86 A 42.23 16.18 -172.96 0 1 118.71 128.72" stroke-width="2.00"/>
<path d="M 231.42 90.38 A 42.23 16.18 -172.96 0 1 175.06 77.24" stroke-width="2.00"/>
<path d="M 193.64 57.31 A 42.23 16.18 -172.96 0 1 198.11 57.03" stroke-width="2.00"/>
<path d="M 230.93 61.14 A 42.23 16.18 -172.96 0 1 250.00 70.45" stroke-width="2.00"/>
<path d="M 231.42 155.00 A 42.23 16.18 -172.96 0 1 175.06 141.86" stroke-width="2.00"/>
<path d="M 24.58 17.90 L 6.00 37.82 L 6.00 102.44" stroke-width="2.00" stroke-linejoin="miter" stroke-miterlimit="5"/>
<path d="M 250.00 135.07 L 231.42 155.00 L 231.42 90.38 L 250.00 70.45 Z" stroke-width="2.00" stroke-linejoin="miter" stroke-miterlimit="5"/>
<line x1="231.18" y1="63.08" x2="231.18" y2="73.85" stroke-width="2.00"/>
<line x1="193.88" y1="63.08" x2="193.88" y2="73.85" stroke-width="2.00"/>
<line x1="174.83" y1="49.94" x2="174.83" y2="60.71" stroke-width="2.00"/>
<line x1="137.52" y1="49.94" x2="137.52" y2="60.71" stroke-width="2.00"/>
<line x1="118.48" y1="36.80" x2="118.48" y2="47.57" stroke-width="2.00"/>
<line x1="81.17" y1="36.80" x2="81.17" y2="47.57" stroke-width="2.00"/>
<line x1="62.12" y1="23.66" x2="62.12" y2="34.43" stroke-width="2.00"/>
<line x1="24.82" y1="23.66" x2="24.82" y2="34.43" stroke-width="2.00"/>
<line x1="62.36" y1="50.96" x2="62.36" y2="115.58" stroke-width="2.00"/>
<line x1="118.71" y1="64.10" x2="118.71" y2="128.72" stroke-width="2.00"/>
<line x1="175.06" y1="77.24" x2="175.06" y2="141.86" stroke-width="2.00"/>
</g>
</svg>