<svg xmlns="http://www.w3.org/2000/svg" viewBox="0 0 256 170" preserveAspectRatio="xMidYMid meet">
<defs><linearGradient id="g3" gradientUnits="userSpaceOnUse" x1="118.52" y1="23.18" x2="162.61" y2="23.18"><stop offset="0.0%" stop-color="#22753f"/><stop offset="3.8%" stop-color="#247b42"/><stop offset="14.6%" stop-color="#237741"/><stop offset="30.9%" stop-color="#1f6c3a"/><stop offset="50.0%" stop-color="#1a5a31"/><stop offset="69.1%" stop-color="#144525"/><stop offset="85.4%" stop-color="#134224"/><stop offset="96.2%" stop-color="#134224"/><stop offset="100.0%" stop-color="#134224"/></linearGradient></defs>
<g stroke-linejoin="round">
<path d="M 187.66 18.57 L 162.53 53.10 L 137.39 151.27 L 137.39 164.00 L 187.66 94.94 L 187.66 18.57 Z" fill="#154827" fill-rule="evenodd" stroke="#154827" stroke-width="0.8"/>
<path d="M 128.10 7.73 L 118.61 6.00 L 93.47 40.53 L 162.53 53.10 L 187.66 18.57 L 161.79 13.86 A 22.05 11.02 -180.00 0 1 162.62 16.82 L 162.62 29.55 A 22.05 11.02 -180.00 0 1 141.46 40.56 A 22.05 11.02 -180.00 0 1 118.59 30.44 A 22.05 11.02 -180.00 0 1 118.52 29.55 L 118.52 16.82 A 22.05 11.02 -180.00 0 1 128.10 7.73 Z" fill="#2e9c54" fill-rule="evenodd" stroke="#2e9c54" stroke-width="0.8"/>
<path d="M 137.39 151.27 L 162.53 53.10 L 93.47 40.53 L 68.33 138.70 L 137.39 151.27 Z" fill="#1e6637" fill-rule="evenodd" stroke="#1e6637" stroke-width="0.8"/>
<path d="M 162.62 29.55 L 162.62 16.82 A 22.05 11.02 -180.00 0 1 140.65 27.83 A 22.05 11.02 -180.00 0 1 118.59 17.71 A 22.05 11.02 -180.00 0 1 118.52 16.82 L 118.52 29.55 A 22.05 11.02 -180.00 0 0 139.68 40.56 A 22.05 11.02 -180.00 0 0 162.54 30.44 A 22.05 11.02 -180.00 0 0 162.62 29.55 Z" fill="url(#g3)" fill-rule="evenodd" stroke="url(#g3)" stroke-width="0.8"/>
<path d="M 162.37 18.46 A 22.05 11.02 -180.00 0 0 145.47 6.07 A 22.05 11.02 -180.00 0 0 119.50 13.57 A 22.05 11.02 -180.00 0 0 132.51 27.08 A 22.05 11.02 -180.00 0 0 160.43 21.60 A 22.05 11.02 -180.00 0 0 162.37 18.46 Z" fill="#2e9c54" fill-rule="evenodd" stroke="#2e9c54" stroke-width="0.8"/>
<path d="M 137.39 164.00 L 137.39 151.27 L 68.33 138.70 L 68.33 151.43 L 137.39 164.00 Z" fill="#1e6637" fill-rule="evenodd" stroke="#1e6637" stroke-width="0.8"/>
</g>
<defs><clipPath id="sclip"><path d="M 128.03 6.70 L 118.17 4.90 L 92.55 40.09 L 67.33 138.58 L 67.33 152.27 L 137.83 165.10 L 188.66 95.27 L 188.66 17.73 L 162.42 12.96 L 162.31 12.78 L 162.24 12.67 L 162.17 12.57 L 162.13 12.51 L 162.10 12.46 L 161.90 12.22 L 161.61 11.85 L 161.49 11.72 L 161.39 11.60 L 161.26 11.47 L 161.15 11.34 L 160.98 11.19 L 160.78 10.97 L 160.61 10.82 L 160.46 10.68 L 160.21 10.47 L 160.01 10.30 L 159.92 10.23 L 159.82 10.14 L 159.58 9.97 L 159.39 9.81 L 159.09 9.61 L 158.75 9.36 L 158.72 9.35 L 158.70 9.33 L 158.49 9.21 L 158.43 9.17 L 158.18 9.00 L 157.89 8.84 L 157.56 8.64 L 157.35 8.53 L 157.21 8.44 L 157.04 8.36 L 156.86 8.26 L 156.58 8.13 L 156.27 7.97 L 155.85 7.78 L 155.56 7.64 L 155.48 7.61 L 155.42 7.58 L 155.16 7.47 L 154.89 7.36 L 154.35 7.15 L 153.88 6.96 L 153.82 6.95 L 153.78 6.93 L 153.62 6.88 L 153.42 6.80 L 152.75 6.59 L 152.24 6.42 L 152.06 6.37 L 151.87 6.31 L 151.11 6.11 L 150.53 5.95 L 150.39 5.92 L 150.25 5.89 L 150.03 5.84 L 149.85 5.79 L 149.42 5.71 L 149.32 5.69 L 148.74 5.56 L 148.66 5.55 L 148.57 5.53 L 148.08 5.45 L 147.76 5.38 L 147.39 5.33 L 147.24 5.31 L 146.91 5.25 L 146.88 5.25 L 146.84 5.24 L 146.05 5.14 L 145.59 5.08 L 145.35 5.06 L 145.09 5.03 L 145.06 5.02 L 145.01 5.02 L 144.36 4.97 L 143.67 4.91 L 143.38 4.88 L 143.33 4.88 L 143.28 4.88 L 143.19 4.87 L 143.09 4.87 L 142.46 4.84 L 141.47 4.80 L 141.31 4.80 L 141.18 4.80 L 141.13 4.80 L 140.81 4.80 L 140.55 4.80 L 139.66 4.80 L 139.42 4.81 L 139.22 4.82 L 139.04 4.83 L 138.88 4.83 L 138.49 4.85 L 137.85 4.88 L 137.54 4.90 L 137.29 4.92 L 136.96 4.95 L 136.65 4.97 L 136.38 5.00 L 136.06 5.02 L 135.71 5.07 L 135.38 5.10 L 134.90 5.17 L 134.83 5.17 L 134.46 5.22 L 134.38 5.23 L 134.29 5.24 L 133.86 5.31 L 133.51 5.36 L 133.10 5.44 L 132.56 5.53 L 132.43 5.56 L 132.32 5.58 L 132.03 5.64 L 131.69 5.71 L 131.34 5.79 L 130.88 5.89 L 130.53 5.98 L 130.26 6.04 L 130.10 6.09 L 129.93 6.13 L 129.63 6.22 L 129.26 6.31 L 128.73 6.48 L 128.58 6.53 L 128.30 6.61 L 128.28 6.62 L 128.24 6.62 Z" clip-rule="evenodd"/></clipPath></defs>
<g stroke="black" fill="none" stroke-linecap="round" clip-path="url(#sclip)">
<path d="M 128.10 7.73 L 118.61 6.00 L 93.47 40.53 L 68.33 138.70 L 68.33 151.43 L 137.39 164.00 L 187.66 94.94 L 187.66 18.57 L 161.79 13.86 A 22.05 11.02 -180.00 0 0 134.95 6.17 A 22.05 11.02 -180.00 0 0 128.10 7.73 Z" stroke-width="2.00" stroke-linejoin="miter" stroke-miterlimit="5"/>
<path d="M 162.61 29.55 A 22.05 11.02 -180.00 0 1 140.57 40.57 A 22.05 11.02 -180.00 0 1 118.52 29.55" stroke-width="2.00"/>
<path d="M 161.29 20.59 A 22.05 11.02 -180.00 0 0 148.11 6.46 A 22.05 11.02 -180.00 0 0 119.85 13.05 A 22.05 11.02 -180.00 0 0 133.03 27.18 A 22.05 11.02 -180.00 0 0 161.29 20.59" stroke-width="2.00"/>
<path d="M 127.99 7.71 L 118.61 6.00 L 93.47 40.53 L 162.53 53.10 L 137.39 151.27 L 68.34 138.70 L 68.34 151.43 L 137.39 164.00" stroke-width="2.00" stroke-linejoin="miter" stroke-miterlimit="5"/>
<path d="M 137.39 151.27 L 137.39 164.00 L 187.66 94.94 L 187.66 18.57 L 162.53 53.10" stroke-width="2.00" stroke-linejoin="miter" stroke-miterlimit="5"/>
<line x1="162.61" y1="16.82" x2="162.61" y2="29.55" stroke-width="2.00"/>
<line x1="118.52" y1="16.82" x2="118.52" y2="29.55" stroke-width="2.00"/>
<line x1="161.83" y1="13.87" x2="187.66" y2="18.57" stroke-width="2.00"/>
<line x1="68.34" y1="138.70" x2="93.47" y2="40.53" stroke-width="2.00"/>
<path d="M 134.44 163.46 L 137.39 164.00 L 137.39 161.00" stroke-width="2.00" stroke-linejoin="miter" stroke-miterlimit="5"/>
<path d="M 185.89 21.00 L 187.66 18.57 L 184.71 18.03" stroke-width="2.00" stroke-linejoin="miter" stroke-miterlimit="5"/>
<path d="M 137.39 154.27 L 137.39 151.27 L 134.44 150.73" stroke-width="2.00" stroke-linejoin="miter" stroke-miterlimit="5"/>
<path d="M 138.13 148.36 L 137.39 151.27 L 137.39 154.27" stroke-width="2.00" stroke-linejoin="miter" stroke-miterlimit="5"/>
<path d="M 69.08 135.79 L 68.34 138.70 L 71.29 139.24" stroke-width="2.00" stroke-linejoin="miter" stroke-miterlimit="5"/>
<path d="M 96.42 41.07 L 93.47 40.53 L 92.73 43.44" stroke-width="2.00" stroke-linejoin="miter" stroke-miterlimit="5"/>
<path d="M 159.58 52.56 L 162.53 53.10 L 164.30 50.67" stroke-width="2.00" stroke-linejoin="miter" stroke-miterlimit="5"/>
<path d="M 164.30 50.67 L 162.53 53.10 L 161.79 56.01" stroke-width="2.00" stroke-linejoin="miter" stroke-miterlimit="5"/>
</g>
</svg>