<svg xmlns="http://www.w3.org/2000/svg" viewBox="0 0 256 170" preserveAspectRatio="xMidYMid meet">
<defs><linearGradient id="g3" gradientUnits="userSpaceOnUse" x1="118.52" y1="23.18" x2="162.61" y2="23.18"><stop offset="0.0%" stop-color="#22753f"/><stop offset="3.8%" stop-color="#247b42"/><stop offset="14.6%" stop-color="#237741"/><stop offset="30.9%" stop-color="#1f6c3a"/><stop offset="50.0%" stop-color="#1a5a31"/><stop offset="69.1%" stop-color="#144525"/><stop offset="85.4%" stop-color="#134224"/><stop offset="96.2%" stop-color="#134224"/><stop offset="100.0%" stop-color="#134224"/></linearGradient></defs>
<g stroke-linejoin="round">
<path d="M 187.66 18.57 L 162.53 53.10 L 137.39 151.27 L 137.39 164.00 L 187.66 94.94 L 187.66 18.57 Z" fill="#154827" fill-rule="evenodd" stroke="#154827" stroke-width="0.8"/>
<path d="M 128.10 7.73 L 118.61 6.00 L 93.47 40.53 L 162.53 53.10 L 187.66 18.57 L 161.79 13.86 A 22.05 11.02 -180.00 0 1 162.62 16.82 L 162.62 29.55 A 22.05 11.02 -180.00 0 1 139.68 40.56 A 22.05 11.02 -180.00 0 1 118.52 29.55 L 118.52 16.82 A 22.05 11.02 -180.00 0 1 128.10 7.73 Z" fill="#2e9c54" fill-rule="evenodd" stroke="#2e9c54" stroke-width="0.8"/>
<path d="M 137.39 151.27 L 162.53 53.10 L 93.47 40.53 L 68.33 138.70 L 137.39 151.27 Z" fill="#1e6637" fill-rule="evenodd" stroke="#1e6637" stroke-width="0.8"/>
<path d="M 162.62 29.55 L 162.62 16.82 A 22.05 11.02 -180.00 0 1 118.52 16.82 L 118.52 29.55 A 22.05 11.02 -180.00 0 0 141.46 40.56 A 22.05 11.02 -180.00 0 0 162.62 29.55 Z" fill="url(#g3)" fill-rule="evenodd" stroke="url(#g3)" stroke-width="0.8"/>
<path d="M 162.37 18.46 A 22.05 11.02 -180.00 0 0 118.63 15.72 A 22.05 11.02 -180.00 0 0 162.37 18.46 Z" fill="#2e9c54" fill-rule="evenodd" stroke="#2e9c54" stroke-width="0.8"/>
<path d="M 137.39 164.00 L 137.39 151.27 L 68.33 138.70 L 68.33 151.43 L 137.39 164.00 Z" fill="#1e6637" fill-rule="evenodd" stroke="#1e6637" stroke-width="0.8"/>
</g>
<g stroke="black" fill="none" stroke-linecap="round">
<line x1="162.61" y1="16.82" x2="162.61" y2="29.55" stroke-width="2.00"/>
<line x1="118.52" y1="16.82" x2="118.52" y2="29.55" stroke-width="2.00"/>
<line x1="68.34" y1="151.43" x2="137.39" y2="164.00" stroke-width="2.00"/>
<line x1="137.39" y1="164.00" x2="187.66" y2="94.94" stroke-width="2.00"/>
<line x1="187.66" y1="18.57" x2="187.66" y2="94.94" stroke-width="2.00"/>
<line x1="137.39" y1="151.27" x2="137.39" y2="164.00" stroke-width="2.00"/>
<line x1="68.34" y1="138.70" x2="68.34" y2="151.43" stroke-width="2.00"/>
<line x1="118.61" y1="6.00" x2="127.99" y2="7.71" stroke-width="2.00"/>
<line x1="161.83" y1="13.87" x2="187.66" y2="18.57" stroke-width="2.00"/>
<line x1="93.47" y1="40.53" x2="162.53" y2="53.10" stroke-width="2.00"/>
<line x1="68.34" y1="138.70" x2="137.39" y2="151.27" stroke-width="2.00"/>
<line x1="162.53" y1="53.10" x2="187.66" y2="18.57" stroke-width="2.00"/>
<line x1="93.47" y1="40.53" x2="118.61" y2="6.00" stroke-width="2.00"/>
<line x1="137.39" y1="151.27" x2="162.53" y2="53.10" stroke-width="2.00"/>
<line x1="68.34" y1="138.70" x2="93.47" y2="40.53" stroke-width="2.00"/>
<path d="M 162.61 29.53 A 22.05 11.02 -180.00 0 1 118.52 29.62" stroke-width="2.00"/>
<path d="M 161.29 20.59 A 22.05 11.02 -180.00 0 0 119.85 13.05 A 22.05 11.02 -180.00 0 0 161.29 20.59" stroke-width="2.00"/>
</g>
</svg>