<svg xmlns="http://www.w3.org/2000/svg" viewBox="0 0 256 170" preserveAspectRatio="xMidYMid meet">
<defs><linearGradient id="g3" gradientUnits="userSpaceOnUse" x1="162.61" y1="23.18" x2="118.52" y2="23.18"><stop offset="-0.0%" stop-color="#22753f"/><stop offset="3.8%" stop-color="#247b42"/><stop offset="14.6%" stop-color="#237741"/><stop offset="30.9%" stop-color="#1f6c3a"/><stop offset="50.0%" stop-color="#1a5a31"/><stop offset="69.1%" stop-color="#144525"/><stop offset="85.4%" stop-color="#134224"/><stop offset="96.2%" stop-color="#134224"/><stop offset="100.0%" stop-color="#134224"/></linearGradient><linearGradient id="g4" gradientUnits="userSpaceOnUse" x1="118.52" y1="23.18" x2="162.61" y2="23.18"><stop offset="0.0%" stop-color="#22753f"/><stop offset="3.8%" stop-color="#247b42"/><stop offset="14.6%" stop-color="#237741"/><stop offset="30.9%" stop-color="#1f6c3a"/><stop offset="50.0%" stop-color="#1a5a31"/><stop offset="69.1%" stop-color="#144525"/><stop offset="85.4%" stop-color="#134224"/><stop offset="96.2%" stop-color="#134224"/><stop offset="100.0%" stop-color="#134224"/></linearGradient></defs>
<g stroke-linejoin="round">
<path d="M 187.66 18.57 L 162.53 53.10 L 137.39 151.27 L 137.39 164.00 L 187.66 94.94 Z" fill="#154827" fill-rule="evenodd" stroke="#154827" stroke-width="0.8"/>
<path d="M 123.68 9.73 L 123.85 9.64 L 124.06 9.51 L 124.92 9.06 L 125.17 8.93 L 125.23 8.90 L 125.30 8.87 L 126.62 8.28 L 126.73 8.24 L 126.82 8.20 L 127.17 8.07 L 128.04 7.75 L 128.10 7.73 L 118.61 6.00 L 93.47 40.53 L 162.53 53.10 L 187.66 18.57 L 161.79 13.86 L 161.82 13.92 L 161.93 14.10 L 161.95 14.14 L 161.97 14.18 L 162.33 15.05 L 162.34 15.12 L 162.37 15.18 L 162.41 15.39 L 162.54 15.93 L 162.56 16.13 L 162.59 16.27 L 162.59 16.48 L 162.62 16.82 L 162.62 29.55 L 162.54 30.44 L 162.33 31.32 L 161.97 32.19 L 161.48 33.04 L 160.85 33.87 L 160.09 34.67 L 159.20 35.44 L 158.19 36.17 L 157.07 36.86 L 155.84 37.50 L 154.51 38.09 L 153.09 38.62 L 151.59 39.09 L 150.02 39.51 L 149.88 39.54 L 148.39 39.86 L 146.70 40.14 L 144.98 40.35 L 143.22 40.49 L 141.46 40.56 L 139.68 40.56 L 137.91 40.49 L 136.16 40.35 L 134.43 40.14 L 132.75 39.86 L 131.12 39.51 L 129.54 39.09 L 128.04 38.62 L 126.62 38.09 L 125.30 37.50 L 124.06 36.86 L 122.94 36.17 L 121.93 35.44 L 121.05 34.67 L 120.28 33.87 L 119.66 33.04 L 119.16 32.19 L 118.81 31.32 L 118.59 30.44 L 118.52 29.55 L 118.52 16.82 L 118.59 15.93 L 118.62 15.81 L 118.63 15.72 L 118.70 15.50 L 118.81 15.05 L 118.91 14.80 L 118.96 14.63 L 119.05 14.46 L 119.16 14.18 L 119.39 13.79 L 119.50 13.57 L 119.58 13.47 L 119.66 13.33 L 120.17 12.65 L 120.25 12.54 L 120.27 12.52 L 120.28 12.50 L 121.05 11.70 L 121.13 11.62 L 121.20 11.55 L 121.46 11.34 L 121.93 10.93 L 122.18 10.75 L 122.35 10.61 L 122.59 10.45 L 122.69 10.38 L 122.94 10.20 L 123.43 9.90 Z M 123.44 23.74 L 122.59 23.19 L 122.94 23.44 Z M 124.94 24.59 L 123.84 23.99 L 124.06 24.13 Z M 125.23 24.74 L 125.30 24.77 L 126.62 25.36 L 126.73 25.40 Z M 127.17 25.57 L 128.04 25.89 L 128.37 26.00 Z M 130.14 26.52 L 128.98 26.19 L 129.54 26.37 Z M 130.76 26.69 L 131.12 26.78 L 132.16 27.00 Z M 132.61 27.10 L 132.75 27.13 L 134.43 27.41 L 134.53 27.42 Z M 136.48 27.65 L 134.95 27.47 L 136.16 27.62 Z M 137.18 27.70 L 137.91 27.76 L 138.54 27.79 Z M 139.68 27.83 L 140.65 27.83 L 139.23 27.82 Z M 158.54 23.18 L 158.16 23.46 L 158.19 23.44 L 158.55 23.18 Z M 157.07 24.13 L 157.98 23.57 L 156.86 24.24 Z M 155.43 24.95 L 155.84 24.77 L 156.43 24.46 Z M 154.51 25.36 L 154.87 25.20 L 153.80 25.62 Z M 151.59 26.37 L 153.09 25.89 L 153.28 25.82 Z M 150.02 26.78 L 151.59 26.37 L 149.80 26.83 Z M 148.39 27.13 L 149.22 26.95 L 147.90 27.21 Z M 146.70 27.41 L 147.24 27.32 L 145.92 27.50 Z M 143.59 27.73 L 144.98 27.62 L 145.24 27.59 Z M 141.28 27.83 L 141.46 27.83 L 143.22 27.76 L 143.27 27.76 Z" fill="#2e9c54" fill-rule="evenodd" stroke="#2e9c54" stroke-width="0.8"/>
<path d="M 137.39 151.27 L 162.53 53.10 L 93.47 40.53 L 68.33 138.70 Z" fill="#1e6637" fill-rule="evenodd" stroke="#1e6637" stroke-width="0.8"/>
<path d="M 162.41 15.39 L 162.56 16.13 L 162.54 15.93 Z M 162.33 15.05 L 161.97 14.18 L 161.95 14.14 L 162.34 15.12 Z M 161.48 13.33 L 161.36 13.17 L 161.82 13.92 Z M 160.85 12.50 L 160.58 12.21 L 161.12 12.85 Z M 160.09 11.70 L 159.60 11.27 L 160.28 11.90 Z M 159.20 10.93 L 158.19 10.20 L 158.16 10.18 L 159.29 11.01 Z M 157.07 9.51 L 156.87 9.40 L 157.97 10.06 Z M 155.84 8.87 L 155.43 8.69 L 156.42 9.17 Z M 154.51 8.28 L 153.80 8.02 L 154.87 8.44 Z M 153.09 7.75 L 151.59 7.27 L 153.28 7.82 Z M 150.02 6.86 L 149.80 6.81 L 151.59 7.27 Z M 148.39 6.51 L 147.90 6.43 L 149.22 6.69 Z M 146.70 6.23 L 145.92 6.13 L 147.24 6.32 Z M 144.98 6.02 L 143.59 5.91 L 145.24 6.05 Z M 143.22 5.88 L 141.46 5.80 L 141.28 5.80 L 143.27 5.88 Z M 139.68 5.80 L 139.23 5.82 L 140.65 5.80 Z M 137.91 5.88 L 137.18 5.93 L 138.54 5.85 Z M 136.16 6.02 L 134.95 6.17 L 136.48 5.99 Z M 134.43 6.23 L 132.75 6.51 L 132.61 6.54 L 134.53 6.22 Z M 131.12 6.86 L 130.76 6.95 L 132.16 6.64 Z M 129.54 7.27 L 128.98 7.45 L 130.14 7.12 Z M 128.04 7.75 L 127.17 8.07 L 128.37 7.64 Z M 126.62 8.28 L 125.30 8.87 L 125.23 8.90 L 126.73 8.24 Z M 124.06 9.51 L 123.85 9.64 L 124.92 9.06 Z M 122.94 10.20 L 122.59 10.45 L 123.43 9.90 Z M 121.93 10.93 L 121.46 11.34 L 122.18 10.75 Z M 121.05 11.70 L 120.28 12.50 L 120.27 12.52 L 121.13 11.62 Z M 119.66 13.33 L 119.58 13.47 L 120.17 12.65 Z M 119.16 14.18 L 119.05 14.46 L 119.39 13.79 Z M 118.81 15.05 L 118.70 15.50 L 118.91 14.80 Z M 118.59 15.93 L 118.52 16.82 L 118.62 15.81 Z M 158.55 23.18 L 159.20 22.71 L 159.29 22.63 L 158.54 23.18 Z M 162.59 16.48 L 162.59 17.16 L 162.62 16.82 Z M 118.59 17.71 L 118.62 17.83 L 118.52 16.82 Z M 162.41 18.24 L 162.54 17.71 L 162.56 17.51 Z M 118.70 18.14 L 118.81 18.59 L 118.91 18.84 Z M 119.05 19.18 L 119.16 19.46 L 119.39 19.85 Z M 119.58 20.17 L 119.66 20.31 L 120.17 20.99 Z M 120.27 21.12 L 120.28 21.14 L 121.05 21.94 L 121.13 22.02 Z M 121.46 22.30 L 121.93 22.71 L 122.18 22.89 Z M 159.60 22.37 L 160.09 21.94 L 160.28 21.74 Z M 160.58 21.42 L 160.85 21.14 L 161.12 20.79 Z M 161.36 20.47 L 161.48 20.31 L 161.82 19.71 Z M 161.95 19.50 L 161.97 19.46 L 162.33 18.59 L 162.34 18.52 Z" fill="url(#g3)" fill-rule="evenodd" stroke="url(#g3)" stroke-width="0.8"/>
<path d="M 118.59 30.44 L 118.81 31.32 L 119.16 32.19 L 119.66 33.04 L 120.28 33.87 L 121.05 34.67 L 121.93 35.44 L 122.94 36.17 L 124.06 36.86 L 125.30 37.50 L 126.62 38.09 L 128.04 38.62 L 129.54 39.09 L 131.12 39.51 L 132.75 39.86 L 134.43 40.14 L 136.16 40.35 L 137.91 40.49 L 139.68 40.56 L 141.46 40.56 L 143.22 40.49 L 144.98 40.35 L 146.70 40.14 L 148.39 39.86 L 150.02 39.51 L 151.59 39.09 L 153.09 38.62 L 154.51 38.09 L 155.84 37.50 L 157.07 36.86 L 158.19 36.17 L 159.20 35.44 L 160.09 34.67 L 160.85 33.87 L 161.48 33.04 L 161.97 32.19 L 162.33 31.32 L 162.54 30.44 L 162.62 29.55 L 162.62 16.82 L 162.59 17.16 L 162.59 17.37 L 162.56 17.51 L 162.54 17.71 L 162.41 18.24 L 162.37 18.46 L 162.34 18.52 L 162.33 18.59 L 161.97 19.46 L 161.95 19.50 L 161.93 19.54 L 161.82 19.71 L 161.48 20.31 L 161.36 20.47 L 161.28 20.59 L 161.12 20.79 L 160.85 21.14 L 160.58 21.42 L 160.43 21.60 L 160.28 21.74 L 160.09 21.94 L 159.60 22.37 L 159.38 22.57 L 159.29 22.63 L 159.20 22.71 L 158.19 23.44 L 158.16 23.46 L 158.14 23.48 L 157.98 23.57 L 157.07 24.13 L 156.86 24.24 L 156.73 24.32 L 156.43 24.46 L 155.84 24.77 L 155.43 24.95 L 155.16 25.09 L 154.87 25.20 L 154.51 25.36 L 153.80 25.62 L 153.44 25.77 L 153.28 25.82 L 153.09 25.89 L 151.59 26.37 L 150.02 26.78 L 149.80 26.83 L 149.63 26.87 L 149.22 26.95 L 148.39 27.13 L 147.90 27.21 L 147.59 27.27 L 147.24 27.32 L 146.70 27.41 L 145.92 27.50 L 145.47 27.57 L 145.24 27.59 L 144.98 27.62 L 143.59 27.73 L 143.31 27.76 L 143.27 27.76 L 143.22 27.76 L 141.46 27.83 L 141.28 27.83 L 141.12 27.84 L 140.65 27.83 L 139.68 27.83 L 139.23 27.82 L 138.92 27.81 L 138.54 27.79 L 137.91 27.76 L 137.18 27.70 L 136.74 27.68 L 136.48 27.65 L 136.16 27.62 L 134.95 27.47 L 134.60 27.43 L 134.53 27.42 L 134.43 27.41 L 132.75 27.13 L 132.61 27.10 L 132.51 27.08 L 132.16 27.00 L 131.12 26.78 L 130.76 26.69 L 130.51 26.63 L 130.14 26.52 L 129.54 26.37 L 128.98 26.19 L 128.61 26.08 L 128.37 26.00 L 128.04 25.89 L 127.17 25.57 L 126.82 25.44 L 126.73 25.40 L 126.62 25.36 L 125.30 24.77 L 125.23 24.74 L 125.17 24.71 L 124.94 24.59 L 124.06 24.13 L 123.84 23.99 L 123.68 23.91 L 123.44 23.74 L 122.94 23.44 L 122.59 23.19 L 122.35 23.03 L 122.18 22.89 L 121.93 22.71 L 121.46 22.30 L 121.20 22.09 L 121.13 22.02 L 121.05 21.94 L 120.28 21.14 L 120.27 21.12 L 120.25 21.10 L 120.17 20.99 L 119.66 20.31 L 119.58 20.17 L 119.50 20.07 L 119.39 19.85 L 119.16 19.46 L 119.05 19.18 L 118.96 19.00 L 118.91 18.84 L 118.81 18.59 L 118.70 18.14 L 118.63 17.92 L 118.62 17.83 L 118.59 17.71 L 118.52 16.82 L 118.52 29.55 Z" fill="url(#g4)" fill-rule="evenodd" stroke="url(#g4)" stroke-width="0.8"/>
<path d="M 162.37 18.46 L 162.59 17.37 L 162.59 16.27 L 162.37 15.18 L 161.93 14.10 L 161.28 13.05 L 160.43 12.04 L 159.38 11.07 L 158.14 10.16 L 156.73 9.32 L 155.16 8.55 L 153.44 7.87 L 151.59 7.27 L 149.63 6.77 L 147.59 6.37 L 145.47 6.07 L 143.31 5.88 L 141.12 5.80 L 138.92 5.83 L 136.74 5.96 L 134.60 6.21 L 132.51 6.56 L 130.51 7.01 L 128.61 7.56 L 126.82 8.20 L 125.17 8.93 L 123.68 9.73 L 122.35 10.61 L 121.20 11.55 L 120.25 12.54 L 119.50 13.57 L 118.96 14.63 L 118.63 15.72 L 118.52 16.82 L 118.63 17.92 L 118.96 19.00 L 119.50 20.07 L 120.25 21.10 L 121.20 22.09 L 122.35 23.03 L 123.68 23.91 L 125.17 24.71 L 126.82 25.44 L 128.61 26.08 L 130.51 26.63 L 132.51 27.08 L 134.60 27.43 L 136.74 27.68 L 138.92 27.81 L 141.12 27.84 L 143.31 27.76 L 145.47 27.57 L 147.59 27.27 L 149.63 26.87 L 151.59 26.37 L 153.44 25.77 L 155.16 25.09 L 156.73 24.32 L 158.14 23.48 L 159.38 22.57 L 160.43 21.60 L 161.28 20.59 L 161.93 19.54 Z" fill="#2e9c54" fill-rule="evenodd" stroke="#2e9c54" stroke-width="0.8"/>
<path d="M 137.39 164.00 L 137.39 151.27 L 68.33 138.70 L 68.33 151.43 Z" fill="#1e6637" fill-rule="evenodd" stroke="#1e6637" stroke-width="0.8"/>
</g>
<g stroke="black" fill="none" stroke-linecap="round">
<path d="M 161.29 33.32 A 22.05 11.02 -180.00 0 0 162.61 29.53" stroke-width="2.00"/>
<path d="M 118.52 29.62 A 22.05 11.02 -180.00 0 0 161.29 33.32" stroke-width="2.00"/>
<path d="M 161.29 20.59 A 22.05 11.02 -180.00 0 0 119.85 13.05 A 22.05 11.02 -180.00 0 0 161.29 20.59" stroke-width="2.00"/>
<line x1="162.61" y1="29.55" x2="162.61" y2="16.82" stroke-width="2.00"/>
<line x1="118.52" y1="29.55" x2="118.52" y2="16.82" stroke-width="2.00"/>
<path d="M 161.29 33.32 A 22.05 11.02 -180.00 0 0 162.61 29.53" stroke-width="2.00"/>
<path d="M 118.52 29.62 A 22.05 11.02 -180.00 0 0 161.29 33.32" stroke-width="2.00"/>
<path d="M 161.29 20.59 A 22.05 11.02 -180.00 0 0 119.85 13.05 A 22.05 11.02 -180.00 0 0 161.29 20.59" stroke-width="2.00"/>
<path d="M 161.29 20.59 A 22.05 11.02 -180.00 0 0 119.85 13.05 A 22.05 11.02 -180.00 0 0 161.29 20.59" stroke-width="2.00"/>
<line x1="68.34" y1="151.43" x2="137.39" y2="164.00" stroke-width="2.00"/>
<line x1="137.39" y1="164.00" x2="187.66" y2="94.94" stroke-width="2.00"/>
<line x1="187.66" y1="94.94" x2="187.66" y2="18.57" stroke-width="2.00"/>
<line x1="137.39" y1="164.00" x2="137.39" y2="151.27" stroke-width="2.00"/>
<line x1="68.34" y1="151.43" x2="68.34" y2="138.70" stroke-width="2.00"/>
<line x1="187.66" y1="18.57" x2="161.83" y2="13.87" stroke-width="2.00"/>
<line x1="127.99" y1="7.71" x2="118.61" y2="6.00" stroke-width="2.00"/>
<line x1="162.53" y1="53.10" x2="93.47" y2="40.53" stroke-width="2.00"/>
<line x1="137.39" y1="151.27" x2="68.34" y2="138.70" stroke-width="2.00"/>
<line x1="187.66" y1="18.57" x2="162.53" y2="53.10" stroke-width="2.00"/>
<line x1="118.61" y1="6.00" x2="93.47" y2="40.53" stroke-width="2.00"/>
<line x1="137.39" y1="151.27" x2="162.53" y2="53.10" stroke-width="2.00"/>
<line x1="68.34" y1="138.70" x2="93.47" y2="40.53" stroke-width="2.00"/>
</g>
</svg>