<svg xmlns="http://www.w3.org/2000/svg" viewBox="0 0 256 170" preserveAspectRatio="xMidYMid meet">
<defs><radialGradient id="g0" gradientUnits="userSpaceOnUse" cx="0" cy="0" r="1" fx="-0.195" fy="0.672" gradientTransform="matrix(15.94 0 0 30.71 74.69 71.23)"><stop offset="0.0%" stop-color="#5c2c13"/><stop offset="43.8%" stop-color="#5c2c13"/><stop offset="56.2%" stop-color="#592b12"/><stop offset="68.8%" stop-color="#582a12"/><stop offset="81.2%" stop-color="#4e2510"/><stop offset="100.0%" stop-color="#4e2510"/></radialGradient><radialGradient id="g1" gradientUnits="userSpaceOnUse" cx="0" cy="0" r="1" fx="0.692" fy="-0.107" gradientTransform="matrix(30.95 0 0 14.28 108.06 32.98)"><stop offset="0.0%" stop-color="#6d3416"/><stop offset="31.2%" stop-color="#6d3416"/><stop offset="43.8%" stop-color="#6d3416"/><stop offset="68.8%" stop-color="#6a3216"/><stop offset="81.2%" stop-color="#693216"/><stop offset="93.8%" stop-color="#612e14"/><stop offset="100.0%" stop-color="#612e14"/></radialGradient><radialGradient id="g2" gradientUnits="userSpaceOnUse" cx="0" cy="0" r="1" fx="0.607" fy="-0.348" gradientTransform="matrix(23.48 0 0 14.80 66.37 39.95)"><stop offset="0.0%" stop-color="#6d3416"/><stop offset="43.8%" stop-color="#6d3416"/><stop offset="56.2%" stop-color="#6d3416"/><stop offset="68.8%" stop-color="#713617"/><stop offset="81.2%" stop-color="#6a3216"/><stop offset="100.0%" stop-color="#6a3216"/></radialGradient><radialGradient id="g3" gradientUnits="userSpaceOnUse" cx="0" cy="0" r="1" fx="-0.333" fy="0.616" gradientTransform="matrix(15.94 0 0 26.56 74.69 29.33)"><stop offset="0.0%" stop-color="#5c2c13"/><stop offset="43.8%" stop-color="#5c2c13"/><stop offset="56.2%" stop-color="#622f14"/><stop offset="68.8%" stop-color="#5b2c13"/><stop offset="100.0%" stop-color="#5b2c13"/></radialGradient><linearGradient id="g4" gradientUnits="userSpaceOnUse" x1="88.18" y1="7.23" x2="46.51" y2="57.14"><stop offset="0.0%" stop-color="#632f14"/><stop offset="3.4%" stop-color="#632f14"/><stop offset="12.9%" stop-color="#743718"/><stop offset="14.0%" stop-color="#6b3316"/><stop offset="19.2%" stop-color="#743718"/><stop offset="20.2%" stop-color="#6b3316"/><stop offset="77.8%" stop-color="#5f2d13"/><stop offset="81.4%" stop-color="#673115"/><stop offset="84.2%" stop-color="#5f2d13"/><stop offset="86.5%" stop-color="#673115"/><stop offset="95.8%" stop-color="#502610"/><stop offset="100.0%" stop-color="#502610"/></linearGradient><linearGradient id="g6" gradientUnits="userSpaceOnUse" x1="79.52" y1="59.03" x2="79.52" y2="72.26"><stop offset="0.0%" stop-color="#683115"/><stop offset="12.1%" stop-color="#683115"/><stop offset="90.4%" stop-color="#4f2610"/><stop offset="100.0%" stop-color="#4f2610"/></linearGradient><linearGradient id="g8" gradientUnits="userSpaceOnUse" x1="110.75" y1="37.22" x2="92.85" y2="40.75"><stop offset="0.0%" stop-color="#632f14"/><stop offset="33.2%" stop-color="#632f14"/><stop offset="65.0%" stop-color="#753818"/><stop offset="100.0%" stop-color="#753818"/></linearGradient><linearGradient id="g10" gradientUnits="userSpaceOnUse" x1="137.80" y1="48.86" x2="114.26" y2="53.50"><stop offset="0.0%" stop-color="#632f14"/><stop offset="33.2%" stop-color="#632f14"/><stop offset="33.4%" stop-color="#743718"/><stop offset="100.0%" stop-color="#743718"/></linearGradient><linearGradient id="g11" gradientUnits="userSpaceOnUse" x1="93.79" y1="102.40" x2="93.79" y2="77.16"><stop offset="0.0%" stop-color="#502610"/><stop offset="31.2%" stop-color="#673115"/><stop offset="37.7%" stop-color="#502610"/><stop offset="100.0%" stop-color="#673115"/></linearGradient><linearGradient id="g13" gradientUnits="userSpaceOnUse" x1="131.77" y1="106.38" x2="131.77" y2="119.62"><stop offset="0.0%" stop-color="#683115"/><stop offset="12.1%" stop-color="#683115"/><stop offset="90.4%" stop-color="#4f2610"/><stop offset="100.0%" stop-color="#4f2610"/></linearGradient><linearGradient id="g14" gradientUnits="userSpaceOnUse" x1="163.00" y1="84.58" x2="145.10" y2="88.11"><stop offset="0.0%" stop-color="#632f14"/><stop offset="33.2%" stop-color="#632f14"/><stop offset="65.0%" stop-color="#753818"/><stop offset="100.0%" stop-color="#753818"/></linearGradient><radialGradient id="g15" gradientUnits="userSpaceOnUse" cx="0" cy="0" r="1" fx="-0.372" fy="0.593" gradientTransform="matrix(18.06 0 0 26.48 159.23 145.26)"><stop offset="0.0%" stop-color="#5c2c13"/><stop offset="31.2%" stop-color="#5c2c13"/><stop offset="43.8%" stop-color="#5c2c13"/><stop offset="56.2%" stop-color="#5c2c13"/><stop offset="68.8%" stop-color="#542811"/><stop offset="100.0%" stop-color="#542811"/></radialGradient><radialGradient id="g16" gradientUnits="userSpaceOnUse" cx="0" cy="0" r="1" fx="0.540" fy="-0.445" gradientTransform="matrix(24.02 0 0 16.25 189.63 107.37)"><stop offset="0.0%" stop-color="#6d3416"/><stop offset="31.2%" stop-color="#6d3416"/><stop offset="43.8%" stop-color="#6d3416"/><stop offset="68.8%" stop-color="#6c3416"/><stop offset="81.2%" stop-color="#673115"/><stop offset="100.0%" stop-color="#673115"/></radialGradient><radialGradient id="g17" gradientUnits="userSpaceOnUse" cx="0" cy="0" r="1" fx="-0.460" fy="-0.528" gradientTransform="matrix(45.59 0 0 44.73 167.19 120.52)"><stop offset="0.0%" stop-color="#612e14"/><stop offset="43.8%" stop-color="#612e14"/><stop offset="56.2%" stop-color="#4d2510"/><stop offset="68.8%" stop-color="#45210e"/><stop offset="81.2%" stop-color="#3d1d0c"/><stop offset="93.8%" stop-color="#30170a"/><stop offset="100.0%" stop-color="#30170a"/></radialGradient><radialGradient id="g18" gradientUnits="userSpaceOnUse" cx="0" cy="0" r="1" fx="0.625" fy="-0.316" gradientTransform="matrix(28.08 0 0 15.65 147.94 115.61)"><stop offset="0.0%" stop-color="#6d3416"/><stop offset="31.2%" stop-color="#6d3416"/><stop offset="56.2%" stop-color="#6d3416"/><stop offset="68.8%" stop-color="#6e3416"/><stop offset="81.2%" stop-color="#753818"/><stop offset="100.0%" stop-color="#753818"/></radialGradient><radialGradient id="g19" gradientUnits="userSpaceOnUse" cx="0" cy="0" r="1" fx="-0.260" fy="0.650" gradientTransform="matrix(18.06 0 0 30.48 159.23 103.25)"><stop offset="0.0%" stop-color="#5c2c13"/><stop offset="31.2%" stop-color="#5c2c13"/><stop offset="56.2%" stop-color="#5c2c13"/><stop offset="68.8%" stop-color="#643014"/><stop offset="100.0%" stop-color="#643014"/></radialGradient></defs>
<g stroke-linejoin="round">
<path d="M 70.74 74.70 L 68.08 75.23 L 67.76 75.29 L 68.08 76.75 L 71.75 80.07 A 34.02 27.94 132.19 0 1 70.74 74.70 Z" fill="url(#g0)" fill-rule="evenodd" stroke="url(#g0)" stroke-width="0.8"/>
<path d="M 109.55 22.82 L 109.55 23.74 L 109.55 29.20 A 34.02 27.94 132.19 0 1 117.80 29.70 L 128.80 39.67 L 130.79 39.28 L 112.91 23.08 L 109.55 22.82 Z" fill="url(#g1)" fill-rule="evenodd" stroke="url(#g1)" stroke-width="0.8"/>
<path d="M 46.78 34.00 L 46.84 36.10 L 64.71 52.30 L 76.64 49.95 L 85.95 48.11 L 68.08 31.91 L 63.42 27.60 L 57.37 30.13 L 46.78 34.00 Z" fill="url(#g2)" fill-rule="evenodd" stroke="url(#g2)" stroke-width="0.8"/>
<path d="M 66.37 10.55 L 64.75 21.29 L 63.42 27.60 L 68.08 31.91 L 85.95 48.11 L 85.95 38.80 L 85.95 26.87 L 68.08 10.67 L 66.37 10.55 Z" fill="url(#g3)" fill-rule="evenodd" stroke="url(#g3)" stroke-width="0.8"/>
<path d="M 109.55 22.22 L 91.67 6.02 L 79.88 6.00 L 75.99 6.74 L 66.37 10.55 L 68.08 10.67 L 85.95 26.87 A 34.02 27.94 132.19 0 1 109.55 22.22 Z M 64.71 52.30 L 46.84 36.10 L 46.78 34.00 L 44.87 43.99 L 44.49 48.36 L 46.84 59.69 L 64.71 75.89 A 34.02 27.94 132.19 0 1 64.71 52.30 Z" fill="url(#g4)" fill-rule="evenodd" stroke="url(#g4)" stroke-width="0.8"/>
<path d="M 109.55 29.19 L 109.55 22.22 A 34.02 27.94 132.19 0 0 85.95 26.87 L 85.95 38.80 A 32.35 26.57 132.19 0 1 94.20 34.91 L 94.20 34.35 A 34.02 27.94 132.19 0 1 109.55 29.19 Z M 64.71 75.89 L 70.74 74.70 A 34.02 27.94 132.19 0 1 72.96 59.78 L 74.28 59.52 A 32.35 26.57 132.19 0 1 76.64 49.95 L 64.71 52.30 A 34.02 27.94 132.19 0 0 64.71 75.89 Z" fill="#35190b" fill-rule="evenodd" stroke="#35190b" stroke-width="0.8"/>
<path d="M 74.28 59.52 L 74.30 59.51 L 74.30 59.51 L 79.15 58.56 L 84.89 57.43 L 76.64 49.95 A 32.35 26.57 132.19 0 0 74.28 59.52 Z" fill="url(#g6)" fill-rule="evenodd" stroke="url(#g6)" stroke-width="0.8"/>
<path d="M 161.79 76.56 A 34.02 27.94 132.19 0 1 170.04 77.05 L 176.93 83.29 L 181.05 87.03 L 183.04 86.63 L 139.04 46.76 L 137.05 47.15 L 161.79 69.58 L 161.79 75.01 L 161.79 76.56 Z M 72.96 59.78 L 116.96 99.66 L 128.89 97.31 L 137.14 104.78 L 146.46 102.94 L 138.21 95.47 L 94.20 55.59 L 85.95 48.11 L 76.64 49.95 L 84.89 57.43 L 72.96 59.78 Z" fill="#723717" fill-rule="evenodd" stroke="#723717" stroke-width="0.8"/>
<path d="M 85.95 38.80 L 94.20 46.27 L 94.20 34.93 L 94.20 34.91 A 32.35 26.57 132.19 0 0 85.95 38.80 Z" fill="url(#g8)" fill-rule="evenodd" stroke="url(#g8)" stroke-width="0.8"/>
<path d="M 138.21 95.47 L 146.46 102.94 L 146.46 93.63 L 138.21 86.15 L 138.21 74.22 L 94.20 34.35 L 94.20 46.27 L 85.95 38.80 L 85.95 48.11 L 94.20 55.59 L 138.21 95.47 Z M 118.95 122.85 L 124.03 127.45 A 34.02 27.94 132.19 0 1 123.00 122.05 L 118.95 122.85 Z" fill="#4b240f" fill-rule="evenodd" stroke="#4b240f" stroke-width="0.8"/>
<path d="M 94.20 34.35 L 138.21 74.22 A 34.02 27.94 132.19 0 1 161.79 69.58 L 131.97 42.55 A 34.02 27.94 132.19 0 0 130.79 39.28 L 128.80 39.67 L 117.80 29.70 A 34.02 27.94 132.19 0 0 94.20 34.35 Z" fill="url(#g10)" fill-rule="evenodd" stroke="url(#g10)" stroke-width="0.8"/>
<path d="M 72.96 83.37 L 116.96 123.24 A 34.02 27.94 132.19 0 1 116.96 99.66 L 72.96 59.78 A 34.02 27.94 132.19 0 0 72.96 83.37 Z" fill="url(#g11)" fill-rule="evenodd" stroke="url(#g11)" stroke-width="0.8"/>
<path d="M 161.79 76.54 L 161.79 69.58 A 34.02 27.94 132.19 0 0 138.21 74.22 L 138.21 86.15 A 32.35 26.57 132.19 0 1 146.46 82.26 L 146.46 81.70 A 34.02 27.94 132.19 0 1 161.79 76.54 Z M 116.96 123.24 L 122.99 122.06 A 34.02 27.94 132.19 0 1 125.21 107.13 L 126.53 106.87 A 32.35 26.57 132.19 0 1 128.89 97.31 L 116.96 99.66 A 34.02 27.94 132.19 0 0 116.96 123.24 Z" fill="#35190b" fill-rule="evenodd" stroke="#35190b" stroke-width="0.8"/>
<path d="M 126.53 106.87 L 126.55 106.87 L 131.40 105.91 L 137.14 104.78 L 128.89 97.31 A 32.35 26.57 132.19 0 0 126.53 106.87 Z" fill="url(#g13)" fill-rule="evenodd" stroke="url(#g13)" stroke-width="0.8"/>
<path d="M 138.21 86.15 L 146.46 93.63 L 146.46 82.29 L 146.46 82.26 A 32.35 26.57 132.19 0 0 138.21 86.15 Z" fill="url(#g14)" fill-rule="evenodd" stroke="url(#g14)" stroke-width="0.8"/>
<path d="M 167.40 146.64 L 165.47 146.60 L 164.62 146.58 L 164.33 146.59 L 156.29 147.14 L 156.29 147.14 L 150.81 147.51 L 146.46 147.18 L 146.46 147.78 L 164.33 163.98 L 170.40 163.24 L 172.00 152.51 L 170.67 146.72 L 167.40 146.64 Z" fill="url(#g15)" fill-rule="evenodd" stroke="url(#g15)" stroke-width="0.8"/>
<path d="M 189.63 101.04 L 190.03 104.43 L 191.15 113.86 L 191.25 114.69 L 191.29 114.86 L 191.70 116.66 L 192.58 120.48 L 198.63 120.62 L 209.22 116.77 L 209.16 110.31 L 191.29 94.11 L 188.24 94.71 L 189.63 101.04 Z" fill="url(#g16)" fill-rule="evenodd" stroke="url(#g16)" stroke-width="0.8"/>
<path d="M 125.21 130.72 L 143.09 146.92 L 150.81 147.51 L 164.62 146.58 L 170.67 146.72 L 172.00 152.51 L 170.40 163.24 L 164.33 163.98 L 176.12 164.00 L 180.01 163.26 L 189.63 159.45 L 191.25 148.71 L 192.58 142.40 L 198.63 139.87 L 209.22 136.00 L 211.13 126.01 L 211.51 121.64 L 209.16 110.31 L 209.22 116.77 L 198.63 120.62 L 192.58 120.48 L 191.25 114.69 L 189.63 101.04 L 187.92 93.25 L 184.22 89.90 A 34.02 27.94 132.19 0 0 183.04 86.63 L 181.05 87.03 L 170.04 77.05 A 34.02 27.94 132.19 0 0 146.46 81.70 L 164.33 97.90 L 170.40 104.83 L 172.00 118.49 L 170.67 124.80 L 164.62 127.33 L 150.81 128.28 L 143.09 123.33 L 125.21 107.13 A 34.02 27.94 132.19 0 0 125.21 130.72 Z" fill="url(#g17)" fill-rule="evenodd" stroke="url(#g17)" stroke-width="0.8"/>
<path d="M 143.09 123.33 L 150.81 128.28 L 164.62 127.33 L 170.67 124.80 L 164.33 119.14 L 146.46 102.94 L 125.21 107.13 L 143.09 123.33 Z" fill="url(#g18)" fill-rule="evenodd" stroke="url(#g18)" stroke-width="0.8"/>
<path d="M 146.46 102.94 L 164.33 119.14 L 170.67 124.80 L 172.00 118.49 L 170.40 104.83 L 164.33 97.90 L 146.46 81.70 L 146.46 102.94 Z" fill="url(#g19)" fill-rule="evenodd" stroke="url(#g19)" stroke-width="0.8"/>
<path d="M 117.80 120.89 L 117.70 120.78 L 117.61 120.67 L 117.53 120.54 L 117.47 120.41 L 117.42 120.28 L 117.45 120.37 L 117.61 120.83 L 117.77 121.29 L 117.87 121.54 L 119.13 121.29 L 118.99 121.31 L 118.84 121.32 L 118.70 121.31 L 118.56 121.29 L 118.42 121.25 L 118.28 121.20 L 118.15 121.14 L 118.02 121.07 L 117.90 120.98 L 117.80 120.89 Z" fill="#000000" fill-rule="evenodd" stroke="#000000" stroke-width="0.8"/>
</g>
<defs><clipPath id="sclip"><path d="M 70.62 81.50 L 71.69 84.24 L 116.51 124.86 L 118.50 124.47 L 122.71 128.28 L 122.87 128.85 L 123.94 131.60 L 142.46 148.38 L 145.10 148.58 L 163.75 165.48 L 176.26 165.50 L 180.43 164.71 L 190.98 160.53 L 192.73 148.98 L 193.89 143.48 L 199.18 141.27 L 210.53 137.12 L 212.62 126.21 L 213.02 121.55 L 210.53 109.53 L 191.74 92.49 L 189.39 92.95 L 189.28 92.46 L 185.57 89.10 L 185.54 89.00 L 185.38 88.49 L 185.20 87.98 L 185.02 87.49 L 184.82 86.99 L 184.62 86.50 L 184.48 86.17 L 184.41 85.85 L 184.28 85.74 L 181.42 79.20 L 179.05 80.16 L 179.51 81.41 L 139.49 45.14 L 137.50 45.53 L 133.32 41.75 L 133.29 41.65 L 133.13 41.13 L 132.95 40.63 L 132.77 40.13 L 132.57 39.64 L 132.37 39.15 L 132.03 38.38 L 113.54 21.62 L 110.89 21.42 L 92.25 4.52 L 79.73 4.50 L 75.57 5.29 L 65.02 9.47 L 63.27 21.02 L 62.11 26.52 L 56.82 28.73 L 45.47 32.88 L 43.38 43.79 L 42.98 48.45 L 45.47 60.47 L 64.26 77.51 L 66.61 77.05 L 66.72 77.54 L 70.46 80.92 Z" clip-rule="evenodd"/></clipPath></defs>
<g stroke="black" fill="none" stroke-linecap="round" clip-path="url(#sclip)">
<path d="M 72.96 83.37 L 116.96 123.24 L 118.95 122.85 L 124.03 127.46 A 34.02 27.94 132.19 0 0 125.21 130.72 L 143.09 146.92 L 146.46 147.18 L 146.46 147.78 L 164.33 163.98 L 176.12 164.00 L 180.01 163.26 L 189.63 159.45 L 191.25 148.71 L 192.58 142.40 L 198.63 139.87 L 209.22 136.00 L 211.13 126.01 L 211.51 121.64 L 209.16 110.31 L 191.29 94.11 L 188.24 94.71 L 187.92 93.25 L 184.26 89.94 L 184.26 89.93 L 183.60 89.34 L 183.21 87.45 L 183.33 87.42 L 184.25 89.92 A 34.02 27.94 132.19 0 0 183.03 86.62 L 183.04 86.63 L 139.04 46.76 L 137.05 47.15 L 132.01 42.58 L 132.01 42.58 L 131.35 41.98 L 130.96 40.10 L 131.08 40.07 L 132.01 42.58 A 34.02 27.94 132.19 0 0 130.79 39.28 L 112.91 23.08 L 109.55 22.82 L 109.55 22.22 L 91.67 6.02 L 79.88 6.00 L 75.99 6.74 L 66.37 10.55 L 64.75 21.29 L 63.42 27.60 L 57.37 30.13 L 46.78 34.00 L 44.87 43.99 L 44.49 48.36 L 46.84 59.69 L 64.71 75.89 L 67.76 75.29 L 68.08 76.75 L 71.78 80.10 A 34.02 27.94 132.19 0 0 72.96 83.37 Z" stroke-width="3.00" stroke-linejoin="miter" stroke-miterlimit="5"/>
<path d="M 85.96 26.87 A 34.02 27.94 132.19 0 1 109.54 22.22" stroke-width="3.00"/>
<path d="M 85.96 38.80 A 32.35 26.57 132.19 0 1 94.21 34.91" stroke-width="3.00"/>
<path d="M 64.71 75.89 A 34.02 27.94 132.19 0 1 64.71 52.30" stroke-width="3.00"/>
<path d="M 74.28 59.52 A 32.35 26.57 132.19 0 1 76.64 49.95" stroke-width="3.00"/>
<path d="M 130.79 39.28 A 34.02 27.94 132.19 0 1 132.01 42.58" stroke-width="3.00"/>
<path d="M 94.21 34.35 A 34.02 27.94 132.19 0 1 117.79 29.70" stroke-width="3.00"/>
<path d="M 72.96 83.37 A 34.02 27.94 132.19 0 1 72.96 59.78" stroke-width="3.00"/>
<path d="M 138.21 74.22 A 34.02 27.94 132.19 0 1 161.79 69.58" stroke-width="3.00"/>
<path d="M 138.21 86.15 A 32.35 26.57 132.19 0 1 146.46 82.26" stroke-width="3.00"/>
<path d="M 116.96 123.24 A 34.02 27.94 132.19 0 1 116.96 99.65" stroke-width="3.00"/>
<path d="M 126.53 106.87 A 32.35 26.57 132.19 0 1 128.89 97.30" stroke-width="3.00"/>
<path d="M 183.04 86.63 A 34.02 27.94 132.19 0 1 184.26 89.94" stroke-width="3.00"/>
<path d="M 146.46 81.70 A 34.02 27.94 132.19 0 1 170.04 77.05" stroke-width="3.00"/>
<path d="M 125.21 130.72 A 34.02 27.94 132.19 0 1 125.21 107.13" stroke-width="3.00"/>
<path d="M 109.60 22.83 L 112.91 23.08 L 130.79 39.28 L 128.80 39.67" stroke-width="3.00" stroke-linejoin="miter" stroke-miterlimit="5"/>
<path d="M 137.05 47.15 L 139.04 46.76 L 183.04 86.63 L 181.05 87.02" stroke-width="3.00" stroke-linejoin="miter" stroke-miterlimit="5"/>
<path d="M 188.31 94.70 L 191.29 94.11 L 209.16 110.31" stroke-width="3.00" stroke-linejoin="miter" stroke-miterlimit="5"/>
<path d="M 63.42 27.60 L 64.75 21.29 L 66.37 10.55 L 75.99 6.74 L 79.88 6.00 L 91.67 6.02 L 109.54 22.22 L 109.54 29.61" stroke-width="3.00" stroke-linejoin="miter" stroke-miterlimit="5"/>
<path d="M 117.79 29.70 L 161.79 69.58 L 161.79 76.97" stroke-width="3.00" stroke-linejoin="miter" stroke-miterlimit="5"/>
<path d="M 170.04 77.05 L 187.92 93.25 L 189.63 101.04 L 191.25 114.69 L 192.58 120.48 L 198.63 120.62 L 209.22 116.77 L 209.16 110.31 L 211.51 121.64 L 211.13 126.01 L 209.22 136.00 L 198.63 139.87 L 192.58 142.40 L 191.25 148.71 L 189.63 159.45 L 180.01 163.26 L 176.12 164.00 L 164.33 163.98 L 170.40 163.24 L 172.00 152.51 L 170.67 146.72 L 164.62 146.58 L 150.81 147.51 L 143.09 146.92 L 125.21 130.72" stroke-width="3.00" stroke-linejoin="miter" stroke-miterlimit="5"/>
<path d="M 170.67 124.80 L 164.62 127.33 L 150.81 128.28 L 143.09 123.33 L 125.21 107.13 L 137.14 104.78 L 128.89 97.30 L 116.96 99.65 L 72.96 59.78 L 84.89 57.43 L 76.64 49.95 L 64.71 52.30 L 46.84 36.10 L 46.78 34.00 L 44.87 43.99 L 44.49 48.36 L 46.84 59.69 L 64.71 75.89 L 71.01 74.65" stroke-width="3.00" stroke-linejoin="miter" stroke-miterlimit="5"/>
<path d="M 72.96 83.37 L 116.96 123.24 L 123.26 122.00" stroke-width="3.00" stroke-linejoin="miter" stroke-miterlimit="5"/>
<path d="M 46.78 34.00 L 57.37 30.13 L 63.42 27.60 L 68.08 31.91 L 164.33 119.15 L 170.67 124.80 L 172.00 118.49 L 170.40 104.83 L 164.33 97.90 L 146.46 81.70 L 146.46 93.63 L 138.21 86.15 L 138.21 74.22 L 94.21 34.35 L 94.21 46.27 L 85.96 38.80 L 85.96 26.87 L 68.08 10.67" stroke-width="3.00" stroke-linejoin="miter" stroke-miterlimit="5"/>
<line x1="68.08" y1="76.75" x2="72.40" y2="80.66" stroke-width="3.00"/>
<line x1="118.96" y1="122.86" x2="124.60" y2="127.97" stroke-width="3.00"/>
<line x1="146.46" y1="147.78" x2="164.33" y2="163.98" stroke-width="3.00"/>
<path d="M 209.20 114.81 L 209.16 110.31 L 205.83 107.29" stroke-width="3.00" stroke-linejoin="miter" stroke-miterlimit="5"/>
<path d="M 161.00 160.96 L 164.33 163.98 L 168.80 163.44" stroke-width="3.00" stroke-linejoin="miter" stroke-miterlimit="5"/>
<path d="M 64.35 23.20 L 63.42 27.60 L 66.72 30.66" stroke-width="3.00" stroke-linejoin="miter" stroke-miterlimit="5"/>
<path d="M 59.27 29.34 L 63.42 27.60 L 64.35 23.20" stroke-width="3.00" stroke-linejoin="miter" stroke-miterlimit="5"/>
<path d="M 51.01 32.46 L 46.78 34.00 L 46.84 36.10" stroke-width="3.00" stroke-linejoin="miter" stroke-miterlimit="5"/>
<path d="M 166.52 126.54 L 170.67 124.80 L 167.31 121.81" stroke-width="3.00" stroke-linejoin="miter" stroke-miterlimit="5"/>
</g>
</svg>