<svg xmlns="http://www.w3.org/2000/svg" viewBox="0 0 256 170" preserveAspectRatio="xMidYMid meet">
<defs><radialGradient id="g0" gradientUnits="userSpaceOnUse" cx="0" cy="0" r="1" fx="-0.195" fy="0.672" gradientTransform="matrix(15.94 0 0 30.71 74.69 71.23)"><stop offset="0.0%" stop-color="#5c2c13"/><stop offset="43.8%" stop-color="#5c2c13"/><stop offset="56.2%" stop-color="#592b12"/><stop offset="68.8%" stop-color="#582a12"/><stop offset="81.2%" stop-color="#4e2510"/><stop offset="100.0%" stop-color="#4e2510"/></radialGradient><radialGradient id="g1" gradientUnits="userSpaceOnUse" cx="0" cy="0" r="1" fx="0.692" fy="-0.107" gradientTransform="matrix(30.95 0 0 14.28 108.06 32.98)"><stop offset="0.0%" stop-color="#6d3416"/><stop offset="31.2%" stop-color="#6d3416"/><stop offset="43.8%" stop-color="#6d3416"/><stop offset="68.8%" stop-color="#6a3216"/><stop offset="81.2%" stop-color="#693216"/><stop offset="93.8%" stop-color="#612e14"/><stop offset="100.0%" stop-color="#612e14"/></radialGradient><radialGradient id="g2" gradientUnits="userSpaceOnUse" cx="0" cy="0" r="1" fx="0.607" fy="-0.348" gradientTransform="matrix(23.48 0 0 14.80 66.37 39.95)"><stop offset="0.0%" stop-color="#6d3416"/><stop offset="43.8%" stop-color="#6d3416"/><stop offset="56.2%" stop-color="#6d3416"/><stop offset="68.8%" stop-color="#713617"/><stop offset="81.2%" stop-color="#6a3216"/><stop offset="100.0%" stop-color="#6a3216"/></radialGradient><radialGradient id="g3" gradientUnits="userSpaceOnUse" cx="0" cy="0" r="1" fx="-0.333" fy="0.616" gradientTransform="matrix(15.94 0 0 26.56 74.69 29.33)"><stop offset="0.0%" stop-color="#5c2c13"/><stop offset="43.8%" stop-color="#5c2c13"/><stop offset="56.2%" stop-color="#622f14"/><stop offset="68.8%" stop-color="#5b2c13"/><stop offset="100.0%" stop-color="#5b2c13"/></radialGradient><linearGradient id="g4" gradientUnits="userSpaceOnUse" x1="88.18" y1="7.23" x2="46.51" y2="57.14"><stop offset="0.0%" stop-color="#632f14"/><stop offset="3.4%" stop-color="#632f14"/><stop offset="12.9%" stop-color="#743718"/><stop offset="14.0%" stop-color="#6b3316"/><stop offset="19.2%" stop-color="#743718"/><stop offset="20.2%" stop-color="#6b3316"/><stop offset="77.8%" stop-color="#5f2d13"/><stop offset="81.4%" stop-color="#673115"/><stop offset="84.2%" stop-color="#5f2d13"/><stop offset="86.5%" stop-color="#673115"/><stop offset="95.8%" stop-color="#502610"/><stop offset="100.0%" stop-color="#502610"/></linearGradient><linearGradient id="g6" gradientUnits="userSpaceOnUse" x1="79.52" y1="59.03" x2="79.52" y2="72.26"><stop offset="0.0%" stop-color="#683115"/><stop offset="12.1%" stop-color="#683115"/><stop offset="90.4%" stop-color="#4f2610"/><stop offset="100.0%" stop-color="#4f2610"/></linearGradient><linearGradient id="g8" gradientUnits="userSpaceOnUse" x1="110.75" y1="37.22" x2="92.85" y2="40.75"><stop offset="0.0%" stop-color="#632f14"/><stop offset="33.2%" stop-color="#632f14"/><stop offset="65.0%" stop-color="#753818"/><stop offset="100.0%" stop-color="#753818"/></linearGradient><linearGradient id="g10" gradientUnits="userSpaceOnUse" x1="137.80" y1="48.86" x2="114.26" y2="53.50"><stop offset="0.0%" stop-color="#632f14"/><stop offset="33.2%" stop-color="#632f14"/><stop offset="33.4%" stop-color="#743718"/><stop offset="100.0%" stop-color="#743718"/></linearGradient><linearGradient id="g11" gradientUnits="userSpaceOnUse" x1="93.79" y1="102.40" x2="93.79" y2="77.16"><stop offset="0.0%" stop-color="#502610"/><stop offset="31.2%" stop-color="#673115"/><stop offset="37.7%" stop-color="#502610"/><stop offset="100.0%" stop-color="#673115"/></linearGradient><linearGradient id="g13" gradientUnits="userSpaceOnUse" x1="131.77" y1="106.38" x2="131.77" y2="119.62"><stop offset="0.0%" stop-color="#683115"/><stop offset="12.1%" stop-color="#683115"/><stop offset="90.4%" stop-color="#4f2610"/><stop offset="100.0%" stop-color="#4f2610"/></linearGradient><linearGradient id="g14" gradientUnits="userSpaceOnUse" x1="163.00" y1="84.58" x2="145.10" y2="88.11"><stop offset="0.0%" stop-color="#632f14"/><stop offset="33.2%" stop-color="#632f14"/><stop offset="65.0%" stop-color="#753818"/><stop offset="100.0%" stop-color="#753818"/></linearGradient><radialGradient id="g15" gradientUnits="userSpaceOnUse" cx="0" cy="0" r="1" fx="-0.372" fy="0.593" gradientTransform="matrix(18.06 0 0 26.48 159.23 145.26)"><stop offset="0.0%" stop-color="#5c2c13"/><stop offset="31.2%" stop-color="#5c2c13"/><stop offset="43.8%" stop-color="#5c2c13"/><stop offset="56.2%" stop-color="#5c2c13"/><stop offset="68.8%" stop-color="#542811"/><stop offset="100.0%" stop-color="#542811"/></radialGradient><radialGradient id="g16" gradientUnits="userSpaceOnUse" cx="0" cy="0" r="1" fx="0.540" fy="-0.445" gradientTransform="matrix(24.02 0 0 16.25 189.63 107.37)"><stop offset="0.0%" stop-color="#6d3416"/><stop offset="31.2%" stop-color="#6d3416"/><stop offset="43.8%" stop-color="#6d3416"/><stop offset="68.8%" stop-color="#6c3416"/><stop offset="81.2%" stop-color="#673115"/><stop offset="100.0%" stop-color="#673115"/></radialGradient><radialGradient id="g17" gradientUnits="userSpaceOnUse" cx="0" cy="0" r="1" fx="-0.460" fy="-0.528" gradientTransform="matrix(45.59 0 0 44.73 167.19 120.52)"><stop offset="0.0%" stop-color="#612e14"/><stop offset="43.8%" stop-color="#612e14"/><stop offset="56.2%" stop-color="#4d2510"/><stop offset="68.8%" stop-color="#45210e"/><stop offset="81.2%" stop-color="#3d1d0c"/><stop offset="93.8%" stop-color="#30170a"/><stop offset="100.0%" stop-color="#30170a"/></radialGradient><radialGradient id="g18" gradientUnits="userSpaceOnUse" cx="0" cy="0" r="1" fx="0.625" fy="-0.316" gradientTransform="matrix(28.08 0 0 15.65 147.94 115.61)"><stop offset="0.0%" stop-color="#6d3416"/><stop offset="31.2%" stop-color="#6d3416"/><stop offset="56.2%" stop-color="#6d3416"/><stop offset="68.8%" stop-color="#6e3416"/><stop offset="81.2%" stop-color="#753818"/><stop offset="100.0%" stop-color="#753818"/></radialGradient><radialGradient id="g19" gradientUnits="userSpaceOnUse" cx="0" cy="0" r="1" fx="-0.260" fy="0.650" gradientTransform="matrix(18.06 0 0 30.48 159.23 103.25)"><stop offset="0.0%" stop-color="#5c2c13"/><stop offset="31.2%" stop-color="#5c2c13"/><stop offset="56.2%" stop-color="#5c2c13"/><stop offset="68.8%" stop-color="#643014"/><stop offset="100.0%" stop-color="#643014"/></radialGradient></defs>
<g stroke-linejoin="round">
<path d="M 70.74 74.70 L 68.08 75.23 L 67.76 75.29 L 68.08 76.75 L 71.75 80.07 A 34.02 27.94 132.19 0 1 70.74 74.70 Z" fill="url(#g0)" fill-rule="evenodd" stroke="url(#g0)" stroke-width="0.8"/>
<path d="M 109.55 22.82 L 109.55 23.74 L 109.55 29.20 A 34.02 27.94 132.19 0 1 117.80 29.70 L 128.80 39.67 L 130.79 39.28 L 112.91 23.08 L 109.55 22.82 Z" fill="url(#g1)" fill-rule="evenodd" stroke="url(#g1)" stroke-width="0.8"/>
<path d="M 46.78 34.00 L 46.84 36.10 L 64.71 52.30 L 76.64 49.95 L 85.95 48.11 L 68.08 31.91 L 63.42 27.60 L 57.37 30.13 L 46.78 34.00 Z" fill="url(#g2)" fill-rule="evenodd" stroke="url(#g2)" stroke-width="0.8"/>
<path d="M 66.37 10.55 L 64.75 21.29 L 63.42 27.60 L 68.08 31.91 L 85.95 48.11 L 85.95 38.80 L 85.95 26.87 L 68.08 10.67 L 66.37 10.55 Z" fill="url(#g3)" fill-rule="evenodd" stroke="url(#g3)" stroke-width="0.8"/>
<path d="M 109.55 22.22 L 91.67 6.02 L 79.88 6.00 L 75.99 6.74 L 66.37 10.55 L 68.08 10.67 L 85.95 26.87 A 34.02 27.94 132.19 0 1 109.55 22.22 Z M 64.71 52.30 L 46.84 36.10 L 46.78 34.00 L 44.87 43.99 L 44.49 48.36 L 46.84 59.69 L 64.71 75.89 A 34.02 27.94 132.19 0 1 64.71 52.30 Z" fill="url(#g4)" fill-rule="evenodd" stroke="url(#g4)" stroke-width="0.8"/>
<path d="M 109.55 29.19 L 109.55 22.22 A 34.02 27.94 132.19 0 0 85.95 26.87 L 85.95 38.80 A 32.35 26.57 132.19 0 1 94.20 34.91 L 94.20 34.35 A 34.02 27.94 132.19 0 1 109.55 29.19 Z M 64.71 75.89 L 70.74 74.70 A 34.02 27.94 132.19 0 1 72.96 59.78 L 74.28 59.52 A 32.35 26.57 132.19 0 1 76.64 49.95 L 64.71 52.30 A 34.02 27.94 132.19 0 0 64.71 75.89 Z" fill="#35190b" fill-rule="evenodd" stroke="#35190b" stroke-width="0.8"/>
<path d="M 74.28 59.52 L 74.30 59.51 L 74.30 59.51 L 79.15 58.56 L 84.89 57.43 L 76.64 49.95 A 32.35 26.57 132.19 0 0 74.28 59.52 Z" fill="url(#g6)" fill-rule="evenodd" stroke="url(#g6)" stroke-width="0.8"/>
<path d="M 161.79 76.56 A 34.02 27.94 132.19 0 1 170.04 77.05 L 176.93 83.29 L 181.05 87.03 L 183.04 86.63 L 139.04 46.76 L 137.05 47.15 L 161.79 69.58 L 161.79 75.01 L 161.79 76.56 Z M 72.96 59.78 L 116.96 99.66 L 128.89 97.31 L 137.14 104.78 L 146.46 102.94 L 138.21 95.47 L 94.20 55.59 L 85.95 48.11 L 76.64 49.95 L 84.89 57.43 L 72.96 59.78 Z" fill="#723717" fill-rule="evenodd" stroke="#723717" stroke-width="0.8"/>
<path d="M 85.95 38.80 L 94.20 46.27 L 94.20 34.93 L 94.20 34.91 A 32.35 26.57 132.19 0 0 85.95 38.80 Z" fill="url(#g8)" fill-rule="evenodd" stroke="url(#g8)" stroke-width="0.8"/>
<path d="M 138.21 95.47 L 146.46 102.94 L 146.46 93.63 L 138.21 86.15 L 138.21 74.22 L 94.20 34.35 L 94.20 46.27 L 85.95 38.80 L 85.95 48.11 L 94.20 55.59 L 138.21 95.47 Z M 118.95 122.85 L 124.03 127.45 A 34.02 27.94 132.19 0 1 123.00 122.05 L 118.95 122.85 Z" fill="#4b240f" fill-rule="evenodd" stroke="#4b240f" stroke-width="0.8"/>
<path d="M 94.20 34.35 L 138.21 74.22 A 34.02 27.94 132.19 0 1 161.79 69.58 L 131.97 42.55 A 34.02 27.94 132.19 0 0 130.79 39.28 L 128.80 39.67 L 117.80 29.70 A 34.02 27.94 132.19 0 0 94.20 34.35 Z" fill="url(#g10)" fill-rule="evenodd" stroke="url(#g10)" stroke-width="0.8"/>
<path d="M 72.96 83.37 L 116.96 123.24 A 34.02 27.94 132.19 0 1 116.96 99.66 L 72.96 59.78 A 34.02 27.94 132.19 0 0 72.96 83.37 Z" fill="url(#g11)" fill-rule="evenodd" stroke="url(#g11)" stroke-width="0.8"/>
<path d="M 161.79 76.54 L 161.79 69.58 A 34.02 27.94 132.19 0 0 138.21 74.22 L 138.21 86.15 A 32.35 26.57 132.19 0 1 146.46 82.26 L 146.46 81.70 A 34.02 27.94 132.19 0 1 161.79 76.54 Z M 116.96 123.24 L 122.99 122.06 A 34.02 27.94 132.19 0 1 125.21 107.13 L 126.53 106.87 A 32.35 26.57 132.19 0 1 128.89 97.31 L 116.96 99.66 A 34.02 27.94 132.19 0 0 116.96 123.24 Z" fill="#35190b" fill-rule="evenodd" stroke="#35190b" stroke-width="0.8"/>
<path d="M 126.53 106.87 L 126.55 106.87 L 131.40 105.91 L 137.14 104.78 L 128.89 97.31 A 32.35 26.57 132.19 0 0 126.53 106.87 Z" fill="url(#g13)" fill-rule="evenodd" stroke="url(#g13)" stroke-width="0.8"/>
<path d="M 138.21 86.15 L 146.46 93.63 L 146.46 82.29 L 146.46 82.26 A 32.35 26.57 132.19 0 0 138.21 86.15 Z" fill="url(#g14)" fill-rule="evenodd" stroke="url(#g14)" stroke-width="0.8"/>
<path d="M 167.40 146.64 L 165.47 146.60 L 164.62 146.58 L 164.33 146.59 L 156.29 147.14 L 156.29 147.14 L 150.81 147.51 L 146.46 147.18 L 146.46 147.78 L 164.33 163.98 L 170.40 163.24 L 172.00 152.51 L 170.67 146.72 L 167.40 146.64 Z" fill="url(#g15)" fill-rule="evenodd" stroke="url(#g15)" stroke-width="0.8"/>
<path d="M 189.63 101.04 L 190.03 104.43 L 191.15 113.86 L 191.25 114.69 L 191.29 114.86 L 191.70 116.66 L 192.58 120.48 L 198.63 120.62 L 209.22 116.77 L 209.16 110.31 L 191.29 94.11 L 188.24 94.71 L 189.63 101.04 Z" fill="url(#g16)" fill-rule="evenodd" stroke="url(#g16)" stroke-width="0.8"/>
<path d="M 125.21 130.72 L 143.09 146.92 L 150.81 147.51 L 164.62 146.58 L 170.67 146.72 L 172.00 152.51 L 170.40 163.24 L 164.33 163.98 L 176.12 164.00 L 180.01 163.26 L 189.63 159.45 L 191.25 148.71 L 192.58 142.40 L 198.63 139.87 L 209.22 136.00 L 211.13 126.01 L 211.51 121.64 L 209.16 110.31 L 209.22 116.77 L 198.63 120.62 L 192.58 120.48 L 191.25 114.69 L 189.63 101.04 L 187.92 93.25 L 184.22 89.90 A 34.02 27.94 132.19 0 0 183.04 86.63 L 181.05 87.03 L 170.04 77.05 A 34.02 27.94 132.19 0 0 146.46 81.70 L 164.33 97.90 L 170.40 104.83 L 172.00 118.49 L 170.67 124.80 L 164.62 127.33 L 150.81 128.28 L 143.09 123.33 L 125.21 107.13 A 34.02 27.94 132.19 0 0 125.21 130.72 Z" fill="url(#g17)" fill-rule="evenodd" stroke="url(#g17)" stroke-width="0.8"/>
<path d="M 143.09 123.33 L 150.81 128.28 L 164.62 127.33 L 170.67 124.80 L 164.33 119.14 L 146.46 102.94 L 125.21 107.13 L 143.09 123.33 Z" fill="url(#g18)" fill-rule="evenodd" stroke="url(#g18)" stroke-width="0.8"/>
<path d="M 146.46 102.94 L 164.33 119.14 L 170.67 124.80 L 172.00 118.49 L 170.40 104.83 L 164.33 97.90 L 146.46 81.70 L 146.46 102.94 Z" fill="url(#g19)" fill-rule="evenodd" stroke="url(#g19)" stroke-width="0.8"/>
<path d="M 71.57 10.93 L 71.59 10.79 L 71.63 10.65 L 71.69 10.52 L 71.75 10.39 L 71.83 10.27 L 71.92 10.15 L 72.02 10.05 L 72.13 9.95 L 72.25 9.87 L 72.37 9.79 L 72.50 9.73 L 70.26 10.62 L 72.05 12.24 L 71.94 12.14 L 71.85 12.03 L 71.77 11.91 L 71.70 11.78 L 71.65 11.65 L 71.60 11.51 L 71.57 11.37 L 71.56 11.22 L 71.56 11.08 L 71.57 10.93 Z" fill="#000000" fill-rule="evenodd" stroke="#000000" stroke-width="0.8"/>
<path d="M 68.05 13.92 L 68.19 13.86 L 68.33 13.82 L 68.47 13.79 L 68.62 13.78 L 68.77 13.78 L 68.92 13.79 L 69.06 13.82 L 69.20 13.86 L 69.33 13.92 L 69.47 13.99 L 69.59 14.07 L 69.70 14.16 L 67.63 12.28 L 67.21 15.05 L 67.24 14.91 L 67.28 14.77 L 67.34 14.63 L 67.41 14.50 L 67.49 14.38 L 67.58 14.27 L 67.69 14.16 L 67.80 14.07 L 67.92 13.99 L 68.05 13.92 Z" fill="#000000" fill-rule="evenodd" stroke="#000000" stroke-width="0.8"/>
<path d="M 49.38 35.49 L 49.41 35.34 L 49.45 35.20 L 49.51 35.07 L 49.57 34.94 L 49.66 34.81 L 49.75 34.70 L 49.85 34.60 L 49.96 34.50 L 50.09 34.42 L 50.21 34.35 L 50.35 34.29 L 48.31 35.04 L 48.32 35.42 L 49.86 36.81 L 49.75 36.71 L 49.66 36.60 L 49.58 36.47 L 49.51 36.34 L 49.45 36.21 L 49.41 36.07 L 49.38 35.93 L 49.37 35.78 L 49.37 35.63 L 49.38 35.49 Z" fill="#000000" fill-rule="evenodd" stroke="#000000" stroke-width="0.8"/>
<path d="M 47.78 40.19 L 47.91 40.13 L 48.05 40.09 L 48.20 40.07 L 48.34 40.06 L 48.48 40.06 L 48.63 40.08 L 48.77 40.10 L 48.91 40.15 L 49.04 40.20 L 49.16 40.27 L 49.28 40.35 L 49.39 40.44 L 47.42 38.65 L 46.92 41.27 L 46.95 41.13 L 47.00 41.00 L 47.06 40.87 L 47.13 40.74 L 47.21 40.62 L 47.31 40.52 L 47.41 40.42 L 47.53 40.33 L 47.65 40.25 L 47.78 40.19 Z" fill="#000000" fill-rule="evenodd" stroke="#000000" stroke-width="0.8"/>
<path d="M 73.25 52.80 L 73.35 52.90 L 73.44 53.02 L 73.51 53.14 L 73.58 53.27 L 73.63 53.40 L 73.67 53.54 L 73.70 53.68 L 73.71 53.82 L 73.71 53.97 L 73.69 54.11 L 73.66 54.25 L 73.78 53.81 L 73.78 53.78 L 73.93 53.25 L 73.93 53.23 L 74.09 52.70 L 74.09 52.67 L 74.26 52.14 L 74.26 52.12 L 74.32 51.94 L 71.92 52.41 L 72.06 52.39 L 72.20 52.38 L 72.35 52.39 L 72.49 52.41 L 72.63 52.44 L 72.77 52.49 L 72.90 52.55 L 73.02 52.62 L 73.14 52.70 L 73.25 52.80 Z" fill="#000000" fill-rule="evenodd" stroke="#000000" stroke-width="0.8"/>
<path d="M 66.40 53.53 L 66.53 53.48 L 66.67 53.44 L 65.83 53.61 L 65.73 53.90 L 65.55 54.43 L 65.54 54.46 L 65.59 54.32 L 65.65 54.19 L 65.73 54.07 L 65.82 53.95 L 65.91 53.84 L 66.02 53.75 L 66.14 53.66 L 66.27 53.59 L 66.40 53.53 Z" fill="#000000" fill-rule="evenodd" stroke="#000000" stroke-width="0.8"/>
<path d="M 72.27 58.45 L 72.29 58.44 L 72.32 58.42 L 72.33 58.42 L 72.34 58.41 L 72.36 58.40 L 72.39 58.39 L 72.42 58.38 L 72.46 58.37 L 72.47 58.36 L 72.48 58.36 L 72.50 58.35 L 72.53 58.34 L 72.56 58.33 L 72.60 58.32 L 72.61 58.32 L 72.62 58.32 L 72.64 58.31 L 72.67 58.31 L 72.91 58.26 L 72.91 58.25 L 72.98 57.72 L 72.99 57.69 L 73.04 57.35 L 73.01 57.51 L 72.96 57.65 L 72.90 57.80 L 72.82 57.93 L 72.73 58.06 L 72.63 58.17 L 72.52 58.28 L 72.39 58.37 L 72.27 58.45 Z" fill="#000000" fill-rule="evenodd" stroke="#000000" stroke-width="0.8"/>
<path d="M 73.78 63.81 L 73.92 63.75 L 74.06 63.71 L 74.20 63.68 L 74.35 63.66 L 74.50 63.66 L 74.65 63.68 L 74.79 63.70 L 74.94 63.75 L 75.07 63.80 L 75.20 63.87 L 75.33 63.96 L 75.44 64.05 L 73.63 62.41 L 73.62 62.44 L 73.46 62.97 L 73.31 63.51 L 73.17 64.04 L 73.03 64.58 L 72.97 64.82 L 73.02 64.68 L 73.07 64.54 L 73.14 64.41 L 73.22 64.28 L 73.31 64.17 L 73.42 64.06 L 73.53 63.97 L 73.65 63.88 L 73.78 63.81 Z" fill="#000000" fill-rule="evenodd" stroke="#000000" stroke-width="0.8"/>
<path d="M 60.26 68.36 L 60.12 68.43 L 59.99 68.49 L 59.85 68.53 L 59.70 68.56 L 59.55 68.58 L 59.40 68.58 L 59.25 68.57 L 59.11 68.54 L 58.97 68.50 L 58.83 68.44 L 58.70 68.37 L 58.57 68.29 L 58.46 68.20 L 61.54 70.99 L 61.49 70.77 L 61.49 70.74 L 61.38 70.22 L 61.38 70.19 L 61.29 69.67 L 61.28 69.64 L 61.20 69.11 L 61.19 69.09 L 61.12 68.56 L 61.12 68.53 L 61.05 68.00 L 61.05 67.97 L 61.00 67.43 L 60.99 67.40 L 60.96 66.97 L 60.96 67.11 L 60.95 67.26 L 60.93 67.41 L 60.89 67.55 L 60.83 67.69 L 60.77 67.82 L 60.69 67.95 L 60.59 68.07 L 60.49 68.17 L 60.38 68.27 L 60.26 68.36 Z" fill="#000000" fill-rule="evenodd" stroke="#000000" stroke-width="0.8"/>
<path d="M 68.45 73.51 L 68.33 73.58 L 68.19 73.65 L 68.05 73.69 L 67.91 73.73 L 69.15 73.49 L 69.14 73.20 L 69.14 73.17 L 69.12 72.62 L 69.12 72.60 L 69.12 72.25 L 69.11 72.39 L 69.09 72.54 L 69.06 72.69 L 69.01 72.83 L 68.94 72.96 L 68.87 73.09 L 68.78 73.21 L 68.68 73.32 L 68.57 73.42 L 68.45 73.51 Z" fill="#000000" fill-rule="evenodd" stroke="#000000" stroke-width="0.8"/>
<path d="M 65.45 73.43 L 65.36 73.31 L 65.28 73.19 L 65.22 73.06 L 65.17 72.92 L 65.20 73.02 L 65.36 73.48 L 65.52 73.93 L 65.62 74.18 L 66.88 73.93 L 66.74 73.95 L 66.59 73.96 L 66.45 73.95 L 66.31 73.93 L 66.17 73.90 L 66.03 73.85 L 65.90 73.79 L 65.77 73.72 L 65.65 73.63 L 65.55 73.53 L 65.45 73.43 Z" fill="#000000" fill-rule="evenodd" stroke="#000000" stroke-width="0.8"/>
<path d="M 73.74 81.32 L 73.77 81.41 L 73.93 81.82 L 73.89 81.68 L 73.86 81.55 L 73.84 81.40 L 73.83 81.26 L 73.84 81.12 L 73.86 80.98 L 73.85 81.02 L 73.81 81.16 L 73.75 81.30 L 73.74 81.32 Z" fill="#000000" fill-rule="evenodd" stroke="#000000" stroke-width="0.8"/>
<path d="M 102.69 18.91 L 102.66 19.05 L 102.62 19.19 L 102.56 19.32 L 102.50 19.45 L 102.42 19.57 L 102.33 19.69 L 102.23 19.79 L 102.12 19.89 L 102.00 19.97 L 101.88 20.04 L 101.74 20.10 L 101.60 20.15 L 101.46 20.18 L 101.33 20.20 L 101.47 20.19 L 101.50 20.19 L 102.04 20.15 L 102.07 20.15 L 102.61 20.13 L 102.64 20.13 L 103.18 20.11 L 103.21 20.11 L 103.75 20.11 L 103.78 20.11 L 104.32 20.11 L 104.35 20.11 L 104.88 20.13 L 104.91 20.13 L 105.01 20.14 L 102.21 17.60 L 102.31 17.70 L 102.40 17.81 L 102.48 17.93 L 102.55 18.06 L 102.61 18.19 L 102.65 18.33 L 102.68 18.47 L 102.70 18.62 L 102.70 18.76 L 102.69 18.91 Z" fill="#000000" fill-rule="evenodd" stroke="#000000" stroke-width="0.8"/>
<path d="M 107.80 23.94 L 107.87 24.06 L 107.93 24.20 L 107.98 24.33 L 108.02 24.48 L 108.04 24.62 L 108.05 24.76 L 108.05 23.46 L 107.77 23.42 L 107.28 23.34 L 106.79 23.28 L 106.70 23.27 L 106.85 23.30 L 106.99 23.33 L 107.13 23.38 L 107.26 23.45 L 107.39 23.52 L 107.50 23.61 L 107.61 23.71 L 107.71 23.82 L 107.80 23.94 Z" fill="#000000" fill-rule="evenodd" stroke="#000000" stroke-width="0.8"/>
<path d="M 88.24 27.28 L 88.22 27.29 L 87.72 27.57 L 87.45 27.72 L 87.45 28.59 L 87.46 28.45 L 87.48 28.31 L 87.52 28.16 L 87.57 28.03 L 87.63 27.89 L 87.71 27.77 L 87.79 27.65 L 87.89 27.54 L 88.00 27.44 L 88.12 27.35 L 88.24 27.28 Z" fill="#000000" fill-rule="evenodd" stroke="#000000" stroke-width="0.8"/>
<path d="M 92.63 33.86 L 92.65 33.85 L 92.81 33.79 L 92.82 33.77 L 92.83 33.74 L 92.85 33.71 L 92.85 33.71 L 92.87 33.67 L 92.88 33.64 L 92.90 33.61 L 92.92 33.58 L 92.92 33.58 L 92.92 33.58 L 92.94 33.55 L 92.96 33.51 L 92.98 33.48 L 93.00 33.46 L 92.98 33.48 L 92.98 33.48 L 92.92 33.55 L 92.82 33.66 L 92.70 33.76 L 92.58 33.84 L 92.44 33.92 L 92.31 33.98 L 92.63 33.86 Z" fill="#000000" fill-rule="evenodd" stroke="#000000" stroke-width="0.8"/>
<path d="M 97.92 34.61 L 97.96 34.47 L 98.02 34.33 L 98.09 34.20 L 98.17 34.08 L 98.27 33.97 L 98.37 33.86 L 98.49 33.77 L 98.61 33.69 L 98.74 33.62 L 98.49 33.74 L 97.98 33.98 L 97.47 34.24 L 96.97 34.50 L 96.74 34.62 L 98.36 36.09 L 98.26 35.99 L 98.17 35.87 L 98.08 35.75 L 98.02 35.62 L 97.96 35.48 L 97.92 35.34 L 97.89 35.20 L 97.87 35.05 L 97.88 34.90 L 97.89 34.75 L 97.92 34.61 Z" fill="#000000" fill-rule="evenodd" stroke="#000000" stroke-width="0.8"/>
<path d="M 88.15 35.01 L 88.03 34.92 L 87.91 34.82 L 87.81 34.71 L 87.72 34.59 L 87.64 34.46 L 87.57 34.33 L 87.52 34.19 L 87.48 34.04 L 87.46 33.89 L 87.45 33.75 L 87.45 36.17 L 87.74 36.02 L 87.76 36.01 L 88.28 35.74 L 88.30 35.73 L 88.81 35.47 L 88.83 35.46 L 89.35 35.21 L 89.37 35.20 L 89.58 35.10 L 89.44 35.16 L 89.30 35.20 L 89.15 35.23 L 89.00 35.24 L 88.85 35.24 L 88.70 35.22 L 88.56 35.19 L 88.41 35.14 L 88.28 35.08 L 88.15 35.01 Z" fill="#000000" fill-rule="evenodd" stroke="#000000" stroke-width="0.8"/>
<path d="M 91.81 37.94 L 91.94 38.01 L 92.06 38.08 L 92.18 38.17 L 92.28 38.27 L 92.38 38.38 L 92.46 38.50 L 92.53 38.62 L 92.60 38.75 L 92.64 38.89 L 92.68 39.03 L 92.70 39.17 L 92.70 39.31 L 92.70 37.03 L 92.64 37.06 L 92.13 37.26 L 91.63 37.47 L 91.13 37.69 L 90.64 37.92 L 90.56 37.96 L 90.69 37.91 L 90.83 37.86 L 90.97 37.83 L 91.11 37.82 L 91.25 37.81 L 91.40 37.83 L 91.54 37.85 L 91.68 37.89 L 91.81 37.94 Z" fill="#000000" fill-rule="evenodd" stroke="#000000" stroke-width="0.8"/>
<path d="M 89.58 39.16 L 89.61 39.02 L 89.65 38.88 L 89.71 38.74 L 89.78 38.62 L 89.86 38.49 L 89.95 38.38 L 90.05 38.27 L 90.17 38.18 L 90.29 38.10 L 90.42 38.03 L 90.14 38.16 L 89.65 38.41 L 89.16 38.66 L 88.67 38.93 L 88.46 39.05 L 90.06 40.49 L 89.96 40.39 L 89.86 40.27 L 89.78 40.15 L 89.71 40.02 L 89.66 39.89 L 89.61 39.75 L 89.58 39.60 L 89.57 39.46 L 89.57 39.31 L 89.58 39.16 Z" fill="#000000" fill-rule="evenodd" stroke="#000000" stroke-width="0.8"/>
<path d="M 96.28 39.94 L 96.40 39.85 L 96.53 39.78 L 96.67 39.72 L 96.81 39.67 L 96.96 39.63 L 97.11 39.62 L 97.26 39.62 L 97.41 39.63 L 97.55 39.66 L 97.70 39.70 L 97.84 39.76 L 97.97 39.83 L 98.10 39.91 L 98.21 40.00 L 95.70 37.73 L 95.70 41.11 L 95.71 40.96 L 95.73 40.82 L 95.77 40.67 L 95.83 40.53 L 95.89 40.39 L 95.97 40.27 L 96.06 40.15 L 96.16 40.04 L 96.28 39.94 Z" fill="#000000" fill-rule="evenodd" stroke="#000000" stroke-width="0.8"/>
<path d="M 92.01 40.77 L 91.88 40.84 L 91.74 40.91 L 91.60 40.95 L 91.45 40.98 L 91.31 41.00 L 91.15 41.01 L 91.00 40.99 L 90.86 40.96 L 90.71 40.92 L 90.57 40.87 L 90.44 40.80 L 90.31 40.71 L 90.20 40.62 L 92.70 42.89 L 92.70 39.51 L 92.70 39.66 L 92.67 39.80 L 92.64 39.95 L 92.59 40.09 L 92.52 40.23 L 92.44 40.35 L 92.35 40.47 L 92.25 40.58 L 92.14 40.68 L 92.01 40.77 Z" fill="#000000" fill-rule="evenodd" stroke="#000000" stroke-width="0.8"/>
<path d="M 77.54 53.86 L 77.68 53.82 L 77.83 53.79 L 77.97 53.78 L 78.12 53.78 L 78.27 53.79 L 78.41 53.82 L 78.55 53.86 L 78.69 53.92 L 78.82 53.99 L 78.94 54.07 L 79.05 54.16 L 77.28 52.55 L 77.12 53.03 L 76.97 53.54 L 76.82 54.05 L 76.68 54.56 L 76.59 54.90 L 76.64 54.77 L 76.69 54.63 L 76.76 54.50 L 76.84 54.38 L 76.94 54.27 L 77.04 54.16 L 77.16 54.07 L 77.28 53.99 L 77.41 53.92 L 77.54 53.86 Z" fill="#000000" fill-rule="evenodd" stroke="#000000" stroke-width="0.8"/>
<path d="M 79.95 55.69 L 79.94 55.83 L 79.91 55.97 L 79.87 56.11 L 79.82 56.24 L 79.75 56.37 L 79.68 56.49 L 79.59 56.61 L 79.49 56.71 L 79.38 56.81 L 79.27 56.89 L 79.14 56.97 L 79.01 57.03 L 78.88 57.08 L 78.75 57.11 L 81.67 56.53 L 79.46 54.53 L 79.56 54.63 L 79.65 54.74 L 79.73 54.86 L 79.80 54.99 L 79.85 55.12 L 79.90 55.26 L 79.93 55.40 L 79.94 55.54 L 79.95 55.69 Z" fill="#000000" fill-rule="evenodd" stroke="#000000" stroke-width="0.8"/>
<path d="M 76.75 56.67 L 76.67 56.55 L 76.59 56.41 L 76.53 56.28 L 76.49 56.13 L 76.45 55.99 L 76.44 55.84 L 76.43 55.69 L 76.45 55.54 L 76.47 55.40 L 76.43 55.58 L 76.32 56.09 L 76.21 56.60 L 76.12 57.11 L 76.03 57.62 L 76.03 57.64 L 78.22 57.21 L 78.08 57.23 L 77.92 57.24 L 77.78 57.23 L 77.63 57.21 L 77.48 57.17 L 77.34 57.12 L 77.21 57.05 L 77.08 56.97 L 76.96 56.88 L 76.85 56.78 L 76.75 56.67 Z" fill="#000000" fill-rule="evenodd" stroke="#000000" stroke-width="0.8"/>
<path d="M 77.91 61.38 L 77.94 61.23 L 77.98 61.10 L 78.03 60.96 L 78.09 60.83 L 78.17 60.71 L 78.26 60.60 L 78.36 60.49 L 78.46 60.40 L 78.58 60.31 L 78.70 60.24 L 78.84 60.18 L 78.97 60.13 L 79.11 60.09 L 76.18 60.67 L 78.39 62.68 L 78.29 62.58 L 78.20 62.47 L 78.12 62.34 L 78.05 62.22 L 78.00 62.09 L 77.95 61.95 L 77.92 61.81 L 77.91 61.66 L 77.90 61.52 L 77.91 61.38 Z" fill="#000000" fill-rule="evenodd" stroke="#000000" stroke-width="0.8"/>
<path d="M 107.35 27.80 L 107.22 27.87 L 107.09 27.93 L 106.94 27.98 L 106.80 28.01 L 106.85 28.00 L 106.87 28.00 L 107.42 27.91 L 107.45 27.91 L 108.00 27.84 L 108.03 27.83 L 108.05 27.83 L 108.05 26.53 L 108.04 26.68 L 108.02 26.83 L 107.98 26.98 L 107.93 27.12 L 107.86 27.25 L 107.78 27.38 L 107.69 27.50 L 107.59 27.61 L 107.48 27.71 L 107.35 27.80 Z" fill="#000000" fill-rule="evenodd" stroke="#000000" stroke-width="0.8"/>
<path d="M 110.50 30.77 L 110.40 30.84 L 110.51 30.78 L 110.64 30.71 L 110.77 30.67 L 110.91 30.63 L 111.05 30.61 L 111.18 30.60 L 110.98 30.60 L 110.66 30.62 L 110.61 30.67 L 110.50 30.77 Z" fill="#000000" fill-rule="evenodd" stroke="#000000" stroke-width="0.8"/>
<path d="M 108.61 30.79 L 108.39 30.81 L 108.09 30.85 L 108.24 30.84 L 108.38 30.84 L 108.52 30.85 L 108.66 30.88 L 108.80 30.93 L 108.94 30.98 L 108.84 30.93 L 108.71 30.86 L 108.61 30.79 Z" fill="#000000" fill-rule="evenodd" stroke="#000000" stroke-width="0.8"/>
<path d="M 125.50 100.15 L 125.60 100.26 L 125.69 100.37 L 125.76 100.49 L 125.83 100.62 L 125.88 100.75 L 125.92 100.89 L 125.95 101.03 L 125.96 101.18 L 125.96 101.32 L 125.94 101.46 L 125.91 101.60 L 126.03 101.16 L 126.03 101.14 L 126.18 100.61 L 126.18 100.58 L 126.34 100.05 L 126.34 100.03 L 126.51 99.50 L 126.51 99.47 L 126.57 99.29 L 124.17 99.76 L 124.31 99.74 L 124.45 99.73 L 124.60 99.74 L 124.74 99.76 L 124.88 99.80 L 125.02 99.84 L 125.15 99.90 L 125.27 99.97 L 125.39 100.06 L 125.50 100.15 Z" fill="#000000" fill-rule="evenodd" stroke="#000000" stroke-width="0.8"/>
<path d="M 129.66 101.27 L 129.79 101.22 L 129.93 101.17 L 130.08 101.15 L 130.22 101.13 L 130.37 101.13 L 130.52 101.15 L 130.66 101.17 L 130.80 101.22 L 130.94 101.27 L 131.07 101.34 L 131.19 101.42 L 131.30 101.52 L 129.53 99.91 L 129.37 100.39 L 129.22 100.90 L 129.07 101.40 L 128.93 101.91 L 128.84 102.26 L 128.88 102.12 L 128.94 101.98 L 129.01 101.85 L 129.09 101.73 L 129.19 101.62 L 129.29 101.52 L 129.41 101.42 L 129.53 101.34 L 129.66 101.27 Z" fill="#000000" fill-rule="evenodd" stroke="#000000" stroke-width="0.8"/>
<path d="M 118.78 100.83 L 118.92 100.80 L 118.08 100.96 L 117.97 101.25 L 117.80 101.78 L 117.79 101.80 L 117.84 101.67 L 117.90 101.54 L 117.98 101.42 L 118.07 101.30 L 118.16 101.20 L 118.27 101.10 L 118.39 101.02 L 118.52 100.94 L 118.65 100.88 L 118.78 100.83 Z" fill="#000000" fill-rule="evenodd" stroke="#000000" stroke-width="0.8"/>
<path d="M 129.00 104.02 L 128.92 103.90 L 128.84 103.77 L 128.78 103.63 L 128.74 103.49 L 128.70 103.34 L 128.69 103.19 L 128.68 103.05 L 128.70 102.89 L 128.72 102.75 L 128.68 102.93 L 128.57 103.44 L 128.46 103.95 L 128.37 104.47 L 128.28 104.97 L 128.28 105.00 L 130.47 104.57 L 130.32 104.59 L 130.18 104.59 L 130.03 104.59 L 129.88 104.56 L 129.73 104.53 L 129.59 104.47 L 129.46 104.41 L 129.33 104.33 L 129.21 104.24 L 129.10 104.14 L 129.00 104.02 Z" fill="#000000" fill-rule="evenodd" stroke="#000000" stroke-width="0.8"/>
<path d="M 124.53 105.80 L 124.54 105.79 L 124.57 105.78 L 124.58 105.77 L 124.59 105.77 L 124.61 105.76 L 124.64 105.75 L 124.67 105.73 L 124.71 105.72 L 124.72 105.72 L 124.73 105.71 L 124.75 105.70 L 124.78 105.70 L 124.81 105.69 L 124.85 105.68 L 124.86 105.67 L 124.87 105.67 L 124.89 105.67 L 124.92 105.66 L 125.16 105.61 L 125.16 105.61 L 125.23 105.07 L 125.24 105.05 L 125.29 104.71 L 125.26 104.86 L 125.21 105.01 L 125.15 105.15 L 125.07 105.29 L 124.98 105.41 L 124.88 105.53 L 124.77 105.63 L 124.64 105.73 L 124.53 105.80 Z" fill="#000000" fill-rule="evenodd" stroke="#000000" stroke-width="0.8"/>
<path d="M 130.16 108.73 L 130.19 108.59 L 130.23 108.45 L 130.28 108.32 L 130.34 108.19 L 130.42 108.06 L 130.51 107.95 L 130.61 107.84 L 130.71 107.75 L 130.83 107.67 L 130.96 107.59 L 131.09 107.53 L 131.22 107.48 L 131.36 107.45 L 128.43 108.03 L 130.64 110.03 L 130.54 109.93 L 130.45 109.82 L 130.37 109.70 L 130.30 109.57 L 130.25 109.44 L 130.20 109.30 L 130.17 109.16 L 130.16 109.02 L 130.15 108.88 L 130.16 108.73 Z" fill="#000000" fill-rule="evenodd" stroke="#000000" stroke-width="0.8"/>
<path d="M 126.17 111.11 L 126.31 111.06 L 126.45 111.03 L 126.60 111.02 L 126.75 111.02 L 126.90 111.03 L 127.04 111.06 L 127.19 111.10 L 127.32 111.16 L 127.45 111.23 L 127.58 111.31 L 127.68 111.40 L 125.88 109.77 L 125.87 109.79 L 125.71 110.33 L 125.56 110.86 L 125.42 111.40 L 125.28 111.93 L 125.22 112.17 L 125.27 112.03 L 125.32 111.89 L 125.39 111.76 L 125.47 111.64 L 125.56 111.52 L 125.67 111.42 L 125.78 111.32 L 125.90 111.24 L 126.03 111.17 L 126.17 111.11 Z" fill="#000000" fill-rule="evenodd" stroke="#000000" stroke-width="0.8"/>
<path d="M 112.74 115.53 L 112.63 115.63 L 112.51 115.71 L 112.38 115.78 L 112.24 115.84 L 112.10 115.89 L 111.95 115.92 L 111.80 115.94 L 111.65 115.94 L 111.50 115.92 L 111.36 115.90 L 111.22 115.85 L 111.08 115.80 L 110.94 115.73 L 110.82 115.64 L 110.70 115.55 L 113.79 118.35 L 113.74 118.13 L 113.74 118.10 L 113.63 117.58 L 113.63 117.55 L 113.53 117.03 L 113.53 117.00 L 113.45 116.47 L 113.44 116.44 L 113.37 115.91 L 113.37 115.88 L 113.30 115.35 L 113.30 115.32 L 113.25 114.78 L 113.24 114.76 L 113.21 114.32 L 113.21 114.47 L 113.20 114.61 L 113.18 114.76 L 113.14 114.91 L 113.08 115.05 L 113.02 115.18 L 112.94 115.31 L 112.84 115.42 L 112.74 115.53 Z" fill="#000000" fill-rule="evenodd" stroke="#000000" stroke-width="0.8"/>
<path d="M 120.70 120.86 L 120.58 120.94 L 120.44 121.00 L 120.30 121.05 L 120.17 121.08 L 121.40 120.84 L 121.39 120.55 L 121.39 120.53 L 121.37 119.98 L 121.37 119.95 L 121.37 119.60 L 121.36 119.75 L 121.34 119.90 L 121.31 120.04 L 121.26 120.18 L 121.19 120.31 L 121.12 120.44 L 121.03 120.56 L 120.93 120.67 L 120.82 120.77 L 120.70 120.86 Z" fill="#000000" fill-rule="evenodd" stroke="#000000" stroke-width="0.8"/>
<path d="M 117.80 120.89 L 117.70 120.78 L 117.61 120.67 L 117.53 120.54 L 117.47 120.41 L 117.42 120.28 L 117.45 120.37 L 117.61 120.83 L 117.77 121.29 L 117.87 121.54 L 119.13 121.29 L 118.99 121.31 L 118.84 121.32 L 118.70 121.31 L 118.56 121.29 L 118.42 121.25 L 118.28 121.20 L 118.15 121.14 L 118.02 121.07 L 117.90 120.98 L 117.80 120.89 Z" fill="#000000" fill-rule="evenodd" stroke="#000000" stroke-width="0.8"/>
<path d="M 126.02 128.76 L 126.15 129.08 L 126.10 128.95 L 126.07 128.81 L 126.05 128.67 L 126.05 128.53 L 126.05 128.39 L 126.07 128.25 L 126.06 128.34 L 126.01 128.48 L 125.96 128.60 L 126.02 128.76 Z" fill="#000000" fill-rule="evenodd" stroke="#000000" stroke-width="0.8"/>
<path d="M 160.12 71.42 L 160.18 71.55 L 160.23 71.69 L 160.27 71.83 L 160.29 71.97 L 160.29 72.11 L 160.29 70.82 L 160.02 70.77 L 159.53 70.70 L 159.04 70.64 L 158.96 70.63 L 159.10 70.65 L 159.24 70.69 L 159.38 70.74 L 159.51 70.80 L 159.63 70.88 L 159.75 70.97 L 159.86 71.06 L 159.96 71.17 L 160.04 71.29 L 160.12 71.42 Z" fill="#000000" fill-rule="evenodd" stroke="#000000" stroke-width="0.8"/>
<path d="M 159.60 75.15 L 159.47 75.22 L 159.34 75.28 L 159.19 75.33 L 159.05 75.36 L 159.10 75.36 L 159.12 75.35 L 159.67 75.27 L 159.70 75.26 L 160.25 75.19 L 160.28 75.19 L 160.29 75.18 L 160.29 73.89 L 160.29 74.04 L 160.26 74.18 L 160.23 74.33 L 160.18 74.47 L 160.11 74.61 L 160.03 74.73 L 159.94 74.85 L 159.84 74.96 L 159.72 75.06 L 159.60 75.15 Z" fill="#000000" fill-rule="evenodd" stroke="#000000" stroke-width="0.8"/>
<path d="M 140.37 74.71 L 140.49 74.63 L 140.47 74.64 L 139.97 74.92 L 139.71 75.08 L 139.71 75.95 L 139.71 75.81 L 139.73 75.66 L 139.77 75.52 L 139.82 75.38 L 139.88 75.25 L 139.96 75.12 L 140.04 75.00 L 140.14 74.89 L 140.25 74.80 L 140.37 74.71 Z" fill="#000000" fill-rule="evenodd" stroke="#000000" stroke-width="0.8"/>
<path d="M 162.75 78.13 L 162.65 78.20 L 162.76 78.13 L 162.89 78.07 L 163.02 78.02 L 163.16 77.98 L 163.29 77.96 L 163.44 77.95 L 163.23 77.96 L 162.91 77.97 L 162.85 78.03 L 162.75 78.13 Z" fill="#000000" fill-rule="evenodd" stroke="#000000" stroke-width="0.8"/>
<path d="M 160.86 78.14 L 160.63 78.17 L 160.35 78.20 L 160.49 78.19 L 160.63 78.19 L 160.77 78.21 L 160.91 78.24 L 161.05 78.28 L 161.18 78.33 L 161.09 78.29 L 160.96 78.21 L 160.86 78.14 Z" fill="#000000" fill-rule="evenodd" stroke="#000000" stroke-width="0.8"/>
<path d="M 144.90 81.20 L 145.06 81.15 L 145.07 81.13 L 145.09 81.09 L 145.10 81.06 L 145.10 81.06 L 145.10 81.06 L 145.12 81.03 L 145.13 80.99 L 145.15 80.96 L 145.17 80.93 L 145.17 80.93 L 145.19 80.90 L 145.21 80.87 L 145.23 80.84 L 145.25 80.81 L 145.23 80.84 L 145.23 80.84 L 145.17 80.91 L 145.06 81.02 L 144.95 81.11 L 144.83 81.20 L 144.69 81.27 L 144.56 81.33 L 144.88 81.21 L 144.90 81.20 Z" fill="#000000" fill-rule="evenodd" stroke="#000000" stroke-width="0.8"/>
<path d="M 150.14 82.11 L 150.17 81.96 L 150.21 81.82 L 150.27 81.69 L 150.34 81.56 L 150.42 81.43 L 150.52 81.32 L 150.62 81.22 L 150.74 81.12 L 150.86 81.04 L 150.99 80.97 L 150.74 81.09 L 150.23 81.34 L 149.72 81.59 L 149.22 81.85 L 148.99 81.97 L 150.62 83.45 L 150.51 83.34 L 150.42 83.23 L 150.34 83.11 L 150.26 82.97 L 150.21 82.84 L 150.17 82.70 L 150.14 82.55 L 150.12 82.40 L 150.12 82.26 L 150.14 82.11 Z" fill="#000000" fill-rule="evenodd" stroke="#000000" stroke-width="0.8"/>
<path d="M 140.53 82.44 L 140.40 82.36 L 140.27 82.27 L 140.16 82.17 L 140.06 82.06 L 139.97 81.94 L 139.89 81.82 L 139.82 81.68 L 139.77 81.54 L 139.74 81.40 L 139.71 81.25 L 139.71 81.10 L 139.71 83.53 L 139.99 83.37 L 140.01 83.36 L 140.53 83.10 L 140.55 83.08 L 141.06 82.83 L 141.08 82.82 L 141.60 82.57 L 141.62 82.56 L 141.83 82.46 L 141.69 82.52 L 141.55 82.56 L 141.40 82.58 L 141.25 82.60 L 141.10 82.59 L 140.95 82.58 L 140.81 82.54 L 140.66 82.50 L 140.53 82.44 Z" fill="#000000" fill-rule="evenodd" stroke="#000000" stroke-width="0.8"/>
<path d="M 144.19 85.36 L 144.31 85.44 L 144.43 85.53 L 144.53 85.62 L 144.63 85.73 L 144.71 85.85 L 144.78 85.97 L 144.85 86.11 L 144.89 86.24 L 144.93 86.38 L 144.95 86.53 L 144.96 86.67 L 144.96 84.39 L 144.89 84.41 L 144.38 84.62 L 143.88 84.83 L 143.38 85.05 L 142.89 85.28 L 142.81 85.32 L 142.94 85.26 L 143.07 85.22 L 143.22 85.19 L 143.36 85.17 L 143.50 85.17 L 143.65 85.18 L 143.79 85.21 L 143.93 85.25 L 144.06 85.30 L 144.19 85.36 Z" fill="#000000" fill-rule="evenodd" stroke="#000000" stroke-width="0.8"/>
<path d="M 141.86 86.38 L 141.90 86.23 L 141.96 86.10 L 142.03 85.97 L 142.11 85.85 L 142.20 85.73 L 142.30 85.63 L 142.42 85.53 L 142.54 85.45 L 142.66 85.38 L 142.39 85.52 L 141.90 85.76 L 141.41 86.02 L 140.93 86.28 L 140.71 86.40 L 142.31 87.85 L 142.21 87.74 L 142.11 87.63 L 142.03 87.51 L 141.96 87.38 L 141.91 87.24 L 141.86 87.10 L 141.83 86.96 L 141.82 86.81 L 141.82 86.67 L 141.83 86.52 L 141.86 86.38 Z" fill="#000000" fill-rule="evenodd" stroke="#000000" stroke-width="0.8"/>
<path d="M 148.53 87.29 L 148.65 87.20 L 148.78 87.13 L 148.92 87.07 L 149.06 87.02 L 149.21 86.99 L 149.36 86.97 L 149.51 86.97 L 149.66 86.98 L 149.80 87.01 L 149.95 87.05 L 150.09 87.11 L 150.22 87.18 L 150.35 87.26 L 150.46 87.36 L 147.96 85.08 L 147.96 88.47 L 147.96 88.32 L 147.99 88.17 L 148.02 88.02 L 148.07 87.88 L 148.14 87.75 L 148.22 87.62 L 148.31 87.50 L 148.41 87.39 L 148.53 87.29 Z" fill="#000000" fill-rule="evenodd" stroke="#000000" stroke-width="0.8"/>
<path d="M 144.38 88.04 L 144.26 88.12 L 144.13 88.20 L 143.99 88.26 L 143.85 88.31 L 143.70 88.34 L 143.55 88.36 L 143.40 88.36 L 143.25 88.35 L 143.11 88.32 L 142.96 88.28 L 142.82 88.22 L 142.69 88.15 L 142.56 88.07 L 142.45 87.97 L 144.96 90.24 L 144.96 86.86 L 144.95 87.01 L 144.93 87.16 L 144.89 87.30 L 144.84 87.45 L 144.77 87.58 L 144.69 87.71 L 144.60 87.83 L 144.50 87.94 L 144.38 88.04 Z" fill="#000000" fill-rule="evenodd" stroke="#000000" stroke-width="0.8"/>
<path d="M 132.20 103.04 L 132.19 103.18 L 132.16 103.33 L 132.12 103.46 L 132.07 103.60 L 132.00 103.73 L 131.93 103.85 L 131.84 103.96 L 131.74 104.07 L 131.63 104.16 L 131.52 104.25 L 131.39 104.32 L 131.26 104.38 L 131.13 104.43 L 130.99 104.46 L 133.92 103.89 L 131.70 101.88 L 131.81 101.98 L 131.90 102.09 L 131.98 102.21 L 132.05 102.34 L 132.10 102.47 L 132.15 102.61 L 132.18 102.75 L 132.19 102.89 L 132.20 103.04 Z" fill="#000000" fill-rule="evenodd" stroke="#000000" stroke-width="0.8"/>
<path d="M 144.09 145.49 L 143.95 145.46 L 143.81 145.41 L 143.68 145.36 L 143.56 145.29 L 143.44 145.21 L 143.34 145.13 L 143.71 145.47 L 144.22 145.50 L 144.09 145.49 Z" fill="#000000" fill-rule="evenodd" stroke="#000000" stroke-width="0.8"/>
<path d="M 152.27 149.97 L 152.31 149.83 L 152.36 149.69 L 152.43 149.56 L 152.51 149.44 L 152.60 149.32 L 152.70 149.22 L 152.81 149.13 L 152.94 149.04 L 153.06 148.97 L 153.20 148.91 L 153.34 148.87 L 153.48 148.84 L 153.61 148.82 L 150.91 149.01 L 150.88 149.01 L 150.84 149.01 L 150.80 149.01 L 150.76 149.01 L 150.73 149.01 L 150.69 149.00 L 149.98 148.95 L 152.71 151.43 L 152.62 151.33 L 152.52 151.21 L 152.44 151.09 L 152.37 150.97 L 152.31 150.83 L 152.27 150.69 L 152.24 150.55 L 152.23 150.40 L 152.23 150.26 L 152.24 150.11 L 152.27 149.97 Z" fill="#000000" fill-rule="evenodd" stroke="#000000" stroke-width="0.8"/>
<path d="M 186.41 93.95 L 186.49 94.08 L 186.56 94.22 L 186.62 94.36 L 186.66 94.50 L 186.56 94.04 L 186.21 93.72 L 186.31 93.83 L 186.41 93.95 Z" fill="#000000" fill-rule="evenodd" stroke="#000000" stroke-width="0.8"/>
<path d="M 191.17 98.01 L 191.27 97.91 L 191.38 97.82 L 191.51 97.74 L 191.64 97.67 L 191.77 97.62 L 191.91 97.58 L 192.05 97.55 L 192.20 97.54 L 192.34 97.54 L 192.49 97.56 L 192.63 97.59 L 192.77 97.63 L 192.91 97.69 L 193.03 97.75 L 193.15 97.83 L 193.26 97.92 L 190.84 95.73 L 190.03 95.89 L 190.79 99.36 L 190.77 99.22 L 190.76 99.07 L 190.76 98.93 L 190.78 98.78 L 190.81 98.64 L 190.86 98.50 L 190.92 98.37 L 190.99 98.24 L 191.07 98.12 L 191.17 98.01 Z" fill="#000000" fill-rule="evenodd" stroke="#000000" stroke-width="0.8"/>
<path d="M 207.18 110.54 L 207.29 110.65 L 207.39 110.77 L 207.47 110.90 L 207.54 111.04 L 207.60 111.18 L 207.64 111.33 L 207.67 111.48 L 207.68 111.64 L 207.67 110.98 L 207.18 110.54 Z" fill="#000000" fill-rule="evenodd" stroke="#000000" stroke-width="0.8"/>
<path d="M 207.20 115.80 L 207.09 115.89 L 206.97 115.97 L 206.84 116.03 L 206.71 116.09 L 207.71 115.72 L 207.70 114.67 L 207.70 114.81 L 207.68 114.95 L 207.65 115.08 L 207.60 115.22 L 207.54 115.35 L 207.47 115.47 L 207.39 115.59 L 207.30 115.70 L 207.20 115.80 Z" fill="#000000" fill-rule="evenodd" stroke="#000000" stroke-width="0.8"/>
<path d="M 208.97 119.07 L 209.10 119.16 L 209.21 119.26 L 209.31 119.37 L 209.41 119.49 L 209.49 119.62 L 209.56 119.75 L 209.61 119.89 L 209.65 120.04 L 209.29 118.34 L 207.67 118.93 L 207.81 118.89 L 207.96 118.86 L 208.11 118.84 L 208.26 118.85 L 208.41 118.86 L 208.56 118.89 L 208.70 118.94 L 208.84 119.00 L 208.97 119.07 Z" fill="#000000" fill-rule="evenodd" stroke="#000000" stroke-width="0.8"/>
<path d="M 168.38 161.91 L 168.24 161.96 L 168.10 162.00 L 167.95 162.03 L 169.09 161.89 L 169.25 160.76 L 169.22 160.91 L 169.18 161.05 L 169.12 161.19 L 169.05 161.32 L 168.97 161.44 L 168.87 161.56 L 168.76 161.66 L 168.64 161.76 L 168.52 161.84 L 168.38 161.91 Z" fill="#000000" fill-rule="evenodd" stroke="#000000" stroke-width="0.8"/>
<path d="M 172.50 161.79 L 172.42 161.66 L 172.36 161.52 L 172.32 161.38 L 172.29 161.23 L 172.27 161.08 L 172.27 160.93 L 172.28 160.78 L 172.03 162.49 L 173.76 162.50 L 173.61 162.49 L 173.47 162.47 L 173.32 162.43 L 173.18 162.37 L 173.04 162.31 L 172.91 162.23 L 172.79 162.13 L 172.68 162.03 L 172.58 161.91 L 172.50 161.79 Z" fill="#000000" fill-rule="evenodd" stroke="#000000" stroke-width="0.8"/>
<path d="M 164.83 162.41 L 165.51 162.32 L 165.37 162.34 L 165.22 162.33 L 165.08 162.31 L 164.94 162.28 L 164.81 162.24 L 164.68 162.19 L 164.55 162.12 L 164.43 162.04 L 164.33 161.95 L 164.83 162.41 Z" fill="#000000" fill-rule="evenodd" stroke="#000000" stroke-width="0.8"/>
</g>
<defs><clipPath id="sclip"><path d="M 70.62 81.50 L 71.69 84.24 L 116.51 124.86 L 118.50 124.47 L 122.71 128.28 L 122.87 128.85 L 123.94 131.60 L 142.46 148.38 L 145.10 148.58 L 163.75 165.48 L 176.26 165.50 L 180.43 164.71 L 190.98 160.53 L 192.73 148.98 L 193.89 143.48 L 199.18 141.27 L 210.53 137.12 L 212.62 126.21 L 213.02 121.55 L 210.53 109.53 L 191.74 92.49 L 189.39 92.95 L 189.28 92.46 L 185.57 89.10 L 185.54 89.00 L 185.38 88.49 L 185.20 87.98 L 185.02 87.49 L 184.82 86.99 L 184.62 86.50 L 184.48 86.17 L 184.41 85.85 L 184.28 85.74 L 181.42 79.20 L 179.05 80.16 L 179.51 81.41 L 139.49 45.14 L 137.50 45.53 L 133.32 41.75 L 133.29 41.65 L 133.13 41.13 L 132.95 40.63 L 132.77 40.13 L 132.57 39.64 L 132.37 39.15 L 132.03 38.38 L 113.54 21.62 L 110.89 21.42 L 92.25 4.52 L 79.73 4.50 L 75.57 5.29 L 65.02 9.47 L 63.27 21.02 L 62.11 26.52 L 56.82 28.73 L 45.47 32.88 L 43.38 43.79 L 42.98 48.45 L 45.47 60.47 L 64.26 77.51 L 66.61 77.05 L 66.72 77.54 L 70.46 80.92 Z" clip-rule="evenodd"/></clipPath></defs>
<g stroke="black" fill="none" stroke-linecap="round" clip-path="url(#sclip)">
<path d="M 72.96 83.37 L 116.96 123.24 L 118.95 122.85 L 124.03 127.46 A 34.02 27.94 132.19 0 0 125.21 130.72 L 143.09 146.92 L 146.46 147.18 L 146.46 147.78 L 164.33 163.98 L 176.12 164.00 L 180.01 163.26 L 189.63 159.45 L 191.25 148.71 L 192.58 142.40 L 198.63 139.87 L 209.22 136.00 L 211.13 126.01 L 211.51 121.64 L 209.16 110.31 L 191.29 94.11 L 188.24 94.71 L 187.92 93.25 L 184.26 89.94 L 184.26 89.93 L 183.60 89.34 L 183.21 87.45 L 183.33 87.42 L 184.25 89.92 A 34.02 27.94 132.19 0 0 183.03 86.62 L 183.04 86.63 L 139.04 46.76 L 137.05 47.15 L 132.01 42.58 L 132.01 42.58 L 131.35 41.98 L 130.96 40.10 L 131.08 40.07 L 132.01 42.58 A 34.02 27.94 132.19 0 0 130.79 39.28 L 112.91 23.08 L 109.55 22.82 L 109.55 22.22 L 91.67 6.02 L 79.88 6.00 L 75.99 6.74 L 66.37 10.55 L 64.75 21.29 L 63.42 27.60 L 57.37 30.13 L 46.78 34.00 L 44.87 43.99 L 44.49 48.36 L 46.84 59.69 L 64.71 75.89 L 67.76 75.29 L 68.08 76.75 L 71.78 80.10 A 34.02 27.94 132.19 0 0 72.96 83.37 Z" stroke-width="3.00" stroke-linejoin="miter" stroke-miterlimit="5"/>
<line x1="112.91" y1="23.08" x2="130.79" y2="39.28" stroke-width="3.00"/>
<line x1="139.04" y1="46.76" x2="183.04" y2="86.63" stroke-width="3.00"/>
<line x1="191.29" y1="94.11" x2="209.16" y2="110.31" stroke-width="3.00"/>
<line x1="91.67" y1="6.02" x2="109.54" y2="22.22" stroke-width="3.00"/>
<line x1="117.79" y1="29.70" x2="161.79" y2="69.58" stroke-width="3.00"/>
<line x1="170.04" y1="77.05" x2="187.92" y2="93.25" stroke-width="3.00"/>
<line x1="46.84" y1="59.69" x2="64.71" y2="75.89" stroke-width="3.00"/>
<line x1="72.96" y1="83.37" x2="116.96" y2="123.24" stroke-width="3.00"/>
<line x1="125.21" y1="130.72" x2="143.09" y2="146.92" stroke-width="3.00"/>
<line x1="68.08" y1="76.75" x2="72.40" y2="80.66" stroke-width="3.00"/>
<line x1="118.96" y1="122.86" x2="124.60" y2="127.97" stroke-width="3.00"/>
<line x1="146.46" y1="147.78" x2="164.33" y2="163.98" stroke-width="3.00"/>
<line x1="68.08" y1="31.91" x2="164.33" y2="119.15" stroke-width="3.00"/>
<line x1="46.84" y1="36.10" x2="64.71" y2="52.30" stroke-width="3.00"/>
<line x1="72.96" y1="59.78" x2="116.96" y2="99.65" stroke-width="3.00"/>
<line x1="125.21" y1="107.13" x2="143.09" y2="123.33" stroke-width="3.00"/>
<line x1="68.08" y1="10.67" x2="85.96" y2="26.87" stroke-width="3.00"/>
<line x1="94.21" y1="34.35" x2="138.21" y2="74.22" stroke-width="3.00"/>
<line x1="146.46" y1="81.70" x2="164.33" y2="97.90" stroke-width="3.00"/>
<line x1="109.60" y1="22.83" x2="112.91" y2="23.08" stroke-width="3.00"/>
<line x1="57.37" y1="30.13" x2="63.42" y2="27.60" stroke-width="3.00"/>
<line x1="46.78" y1="34.00" x2="46.84" y2="36.10" stroke-width="3.00"/>
<line x1="46.78" y1="34.00" x2="57.37" y2="30.13" stroke-width="3.00"/>
<line x1="63.42" y1="27.60" x2="64.75" y2="21.29" stroke-width="3.00"/>
<line x1="64.75" y1="21.29" x2="66.37" y2="10.55" stroke-width="3.00"/>
<line x1="63.42" y1="27.60" x2="68.08" y2="31.91" stroke-width="3.00"/>
<line x1="191.25" y1="114.69" x2="192.58" y2="120.48" stroke-width="3.00"/>
<line x1="187.92" y1="93.25" x2="189.63" y2="101.04" stroke-width="3.00"/>
<line x1="189.63" y1="101.04" x2="191.25" y2="114.69" stroke-width="3.00"/>
<line x1="192.58" y1="120.48" x2="198.63" y2="120.62" stroke-width="3.00"/>
<line x1="209.16" y1="110.31" x2="209.22" y2="116.77" stroke-width="3.00"/>
<line x1="198.63" y1="120.62" x2="209.22" y2="116.77" stroke-width="3.00"/>
<line x1="164.62" y1="127.33" x2="170.67" y2="124.80" stroke-width="3.00"/>
<line x1="143.09" y1="123.33" x2="150.81" y2="128.28" stroke-width="3.00"/>
<line x1="150.81" y1="128.28" x2="164.62" y2="127.33" stroke-width="3.00"/>
<line x1="170.67" y1="124.80" x2="172.00" y2="118.49" stroke-width="3.00"/>
<line x1="164.33" y1="97.90" x2="170.40" y2="104.83" stroke-width="3.00"/>
<line x1="170.40" y1="104.83" x2="172.00" y2="118.49" stroke-width="3.00"/>
<line x1="170.67" y1="146.72" x2="172.00" y2="152.51" stroke-width="3.00"/>
<line x1="164.33" y1="163.98" x2="170.40" y2="163.24" stroke-width="3.00"/>
<line x1="170.40" y1="163.24" x2="172.00" y2="152.51" stroke-width="3.00"/>
<line x1="164.62" y1="146.58" x2="170.67" y2="146.72" stroke-width="3.00"/>
<line x1="143.09" y1="146.92" x2="150.81" y2="147.51" stroke-width="3.00"/>
<line x1="150.81" y1="147.51" x2="164.62" y2="146.58" stroke-width="3.00"/>
<line x1="192.58" y1="142.40" x2="198.63" y2="139.87" stroke-width="3.00"/>
<line x1="198.63" y1="139.87" x2="209.22" y2="136.00" stroke-width="3.00"/>
<line x1="191.25" y1="148.71" x2="192.58" y2="142.40" stroke-width="3.00"/>
<line x1="189.63" y1="159.45" x2="191.25" y2="148.71" stroke-width="3.00"/>
<line x1="164.33" y1="119.15" x2="170.67" y2="124.80" stroke-width="3.00"/>
<line x1="109.54" y1="22.22" x2="109.54" y2="29.61" stroke-width="3.00"/>
<line x1="161.79" y1="69.58" x2="161.79" y2="76.97" stroke-width="3.00"/>
<line x1="85.96" y1="26.87" x2="85.96" y2="38.80" stroke-width="3.00"/>
<line x1="85.96" y1="38.80" x2="94.21" y2="46.27" stroke-width="3.00"/>
<line x1="138.21" y1="86.15" x2="146.46" y2="93.63" stroke-width="3.00"/>
<line x1="94.21" y1="34.35" x2="94.21" y2="46.27" stroke-width="3.00"/>
<line x1="138.21" y1="74.22" x2="138.21" y2="86.15" stroke-width="3.00"/>
<line x1="146.46" y1="81.70" x2="146.46" y2="93.63" stroke-width="3.00"/>
<line x1="64.71" y1="52.30" x2="76.64" y2="49.95" stroke-width="3.00"/>
<line x1="128.80" y1="39.67" x2="130.79" y2="39.28" stroke-width="3.00"/>
<line x1="76.64" y1="49.95" x2="84.89" y2="57.43" stroke-width="3.00"/>
<line x1="128.89" y1="97.30" x2="137.14" y2="104.78" stroke-width="3.00"/>
<line x1="72.96" y1="59.78" x2="84.89" y2="57.43" stroke-width="3.00"/>
<line x1="137.05" y1="47.15" x2="139.04" y2="46.76" stroke-width="3.00"/>
<line x1="116.96" y1="99.65" x2="128.89" y2="97.30" stroke-width="3.00"/>
<line x1="181.05" y1="87.02" x2="183.04" y2="86.63" stroke-width="3.00"/>
<line x1="125.21" y1="107.13" x2="137.14" y2="104.78" stroke-width="3.00"/>
<line x1="188.31" y1="94.70" x2="191.29" y2="94.11" stroke-width="3.00"/>
<line x1="64.71" y1="75.89" x2="71.01" y2="74.65" stroke-width="3.00"/>
<line x1="116.96" y1="123.24" x2="123.26" y2="122.00" stroke-width="3.00"/>
<line x1="66.37" y1="10.55" x2="75.99" y2="6.74" stroke-width="3.00"/>
<line x1="44.49" y1="48.36" x2="44.87" y2="43.99" stroke-width="3.00"/>
<line x1="44.87" y1="43.99" x2="46.78" y2="34.00" stroke-width="3.00"/>
<line x1="75.99" y1="6.74" x2="79.88" y2="6.00" stroke-width="3.00"/>
<line x1="79.88" y1="6.00" x2="91.67" y2="6.02" stroke-width="3.00"/>
<line x1="44.49" y1="48.36" x2="46.84" y2="59.69" stroke-width="3.00"/>
<line x1="176.12" y1="164.00" x2="180.01" y2="163.26" stroke-width="3.00"/>
<line x1="209.22" y1="136.00" x2="211.13" y2="126.01" stroke-width="3.00"/>
<line x1="180.01" y1="163.26" x2="189.63" y2="159.45" stroke-width="3.00"/>
<line x1="211.13" y1="126.01" x2="211.51" y2="121.64" stroke-width="3.00"/>
<line x1="209.16" y1="110.31" x2="211.51" y2="121.64" stroke-width="3.00"/>
<line x1="164.33" y1="163.98" x2="176.12" y2="164.00" stroke-width="3.00"/>
<path d="M 85.96 26.87 A 34.02 27.94 132.19 0 1 109.54 22.22" stroke-width="3.00"/>
<path d="M 85.96 38.80 A 32.35 26.57 132.19 0 1 94.21 34.91" stroke-width="3.00"/>
<path d="M 64.71 75.89 A 34.02 27.94 132.19 0 1 64.71 52.30" stroke-width="3.00"/>
<path d="M 74.28 59.52 A 32.35 26.57 132.19 0 1 76.64 49.95" stroke-width="3.00"/>
<path d="M 130.79 39.28 A 34.02 27.94 132.19 0 1 132.01 42.58" stroke-width="3.00"/>
<path d="M 94.21 34.35 A 34.02 27.94 132.19 0 1 117.79 29.70" stroke-width="3.00"/>
<path d="M 72.96 83.37 A 34.02 27.94 132.19 0 1 72.96 59.78" stroke-width="3.00"/>
<path d="M 138.21 74.22 A 34.02 27.94 132.19 0 1 161.79 69.58" stroke-width="3.00"/>
<path d="M 138.21 86.15 A 32.35 26.57 132.19 0 1 146.46 82.26" stroke-width="3.00"/>
<path d="M 116.96 123.24 A 34.02 27.94 132.19 0 1 116.96 99.65" stroke-width="3.00"/>
<path d="M 126.53 106.87 A 32.35 26.57 132.19 0 1 128.89 97.30" stroke-width="3.00"/>
<path d="M 183.04 86.63 A 34.02 27.94 132.19 0 1 184.26 89.94" stroke-width="3.00"/>
<path d="M 146.46 81.70 A 34.02 27.94 132.19 0 1 170.04 77.05" stroke-width="3.00"/>
<path d="M 125.21 130.72 A 34.02 27.94 132.19 0 1 125.21 107.13" stroke-width="3.00"/>
</g>
</svg>