<svg xmlns="http://www.w3.org/2000/svg" viewBox="0 0 256 170" preserveAspectRatio="xMidYMid meet">
<defs><linearGradient id="g0" gradientUnits="userSpaceOnUse" x1="100.47" y1="89.74" x2="61.53" y2="109.21"><stop offset="0.0%" stop-color="#00316e"/><stop offset="14.7%" stop-color="#002f69"/><stop offset="29.0%" stop-color="#002f69"/><stop offset="42.8%" stop-color="#002f69"/><stop offset="56.0%" stop-color="#002f69"/><stop offset="68.4%" stop-color="#002f69"/><stop offset="80.0%" stop-color="#002f69"/><stop offset="90.5%" stop-color="#002f69"/><stop offset="100.0%" stop-color="#002f69"/></linearGradient><linearGradient id="g2" gradientUnits="userSpaceOnUse" x1="194.47" y1="109.21" x2="155.53" y2="89.74"><stop offset="-0.0%" stop-color="#0057c3"/><stop offset="9.5%" stop-color="#0057c3"/><stop offset="20.0%" stop-color="#0056c2"/><stop offset="31.6%" stop-color="#0056c0"/><stop offset="44.0%" stop-color="#0055be"/><stop offset="57.2%" stop-color="#0053bb"/><stop offset="71.0%" stop-color="#0051b6"/><stop offset="85.3%" stop-color="#004fb1"/><stop offset="100.0%" stop-color="#004cac"/></linearGradient><linearGradient id="g4" gradientUnits="userSpaceOnUse" x1="199.94" y1="85.59" x2="56.06" y2="85.59"><stop offset="0.0%" stop-color="#0053ba"/><stop offset="3.8%" stop-color="#0057c3"/><stop offset="14.6%" stop-color="#0055be"/><stop offset="30.9%" stop-color="#004cac"/><stop offset="50.0%" stop-color="#004090"/><stop offset="69.1%" stop-color="#00316e"/><stop offset="85.4%" stop-color="#002f69"/><stop offset="96.2%" stop-color="#002f69"/><stop offset="100.0%" stop-color="#002f69"/></linearGradient><linearGradient id="g6" gradientUnits="userSpaceOnUse" x1="185.55" y1="91.82" x2="70.45" y2="91.82"><stop offset="0.0%" stop-color="#0053ba"/><stop offset="3.8%" stop-color="#0057c3"/><stop offset="14.6%" stop-color="#0055be"/><stop offset="30.9%" stop-color="#004cac"/><stop offset="50.0%" stop-color="#004090"/><stop offset="69.1%" stop-color="#00316e"/><stop offset="85.4%" stop-color="#002f69"/><stop offset="96.2%" stop-color="#002f69"/><stop offset="100.0%" stop-color="#002f69"/></linearGradient><linearGradient id="g7" gradientUnits="userSpaceOnUse" x1="149.58" y1="22.77" x2="106.42" y2="22.77"><stop offset="-0.0%" stop-color="#0053ba"/><stop offset="3.8%" stop-color="#0057c3"/><stop offset="14.6%" stop-color="#0055be"/><stop offset="30.9%" stop-color="#004cac"/><stop offset="50.0%" stop-color="#004090"/><stop offset="69.1%" stop-color="#00316e"/><stop offset="85.4%" stop-color="#002f69"/><stop offset="96.2%" stop-color="#002f69"/><stop offset="100.0%" stop-color="#002f69"/></linearGradient><linearGradient id="g9" gradientUnits="userSpaceOnUse" x1="99.22" y1="98.05" x2="156.78" y2="98.05"><stop offset="0.0%" stop-color="#002f69"/><stop offset="3.8%" stop-color="#002f69"/><stop offset="14.6%" stop-color="#002f69"/><stop offset="30.9%" stop-color="#00316e"/><stop offset="50.0%" stop-color="#004090"/><stop offset="69.1%" stop-color="#004cac"/><stop offset="85.4%" stop-color="#0055be"/><stop offset="96.2%" stop-color="#0057c3"/><stop offset="100.0%" stop-color="#0053ba"/></linearGradient><linearGradient id="g10" gradientUnits="userSpaceOnUse" x1="149.58" y1="122.97" x2="106.42" y2="122.97"><stop offset="0.0%" stop-color="#0053ba"/><stop offset="3.8%" stop-color="#0057c3"/><stop offset="14.6%" stop-color="#0055be"/><stop offset="30.9%" stop-color="#004cac"/><stop offset="50.0%" stop-color="#004090"/><stop offset="69.1%" stop-color="#00316e"/><stop offset="85.4%" stop-color="#002f69"/><stop offset="96.2%" stop-color="#002f69"/><stop offset="100.0%" stop-color="#002f69"/></linearGradient><linearGradient id="g11" gradientUnits="userSpaceOnUse" x1="150.20" y1="81.94" x2="137.01" y2="75.34"><stop offset="0.0%" stop-color="#0056c2"/><stop offset="51.4%" stop-color="#0051b6"/><stop offset="74.3%" stop-color="#0056c2"/><stop offset="100.0%" stop-color="#0051b6"/></linearGradient><linearGradient id="g12" gradientUnits="userSpaceOnUse" x1="135.80" y1="77.77" x2="120.20" y2="77.77"><stop offset="0.0%" stop-color="#002f69"/><stop offset="8.7%" stop-color="#002f69"/><stop offset="28.3%" stop-color="#002f69"/><stop offset="39.1%" stop-color="#002f69"/><stop offset="60.9%" stop-color="#004eb0"/><stop offset="71.7%" stop-color="#004eb0"/><stop offset="91.3%" stop-color="#0055be"/><stop offset="100.0%" stop-color="#0055be"/></linearGradient><linearGradient id="g13" gradientUnits="userSpaceOnUse" x1="120.89" y1="74.39" x2="105.80" y2="81.94"><stop offset="0.0%" stop-color="#002f69"/><stop offset="35.1%" stop-color="#002f69"/><stop offset="67.6%" stop-color="#002f69"/><stop offset="100.0%" stop-color="#002f69"/></linearGradient><linearGradient id="g14" gradientUnits="userSpaceOnUse" x1="106.42" y1="122.97" x2="149.58" y2="122.97"><stop offset="0.0%" stop-color="#0053ba"/><stop offset="3.8%" stop-color="#0057c3"/><stop offset="14.6%" stop-color="#0055be"/><stop offset="30.9%" stop-color="#004cac"/><stop offset="50.0%" stop-color="#004090"/><stop offset="69.1%" stop-color="#00316e"/><stop offset="85.4%" stop-color="#002f69"/><stop offset="96.2%" stop-color="#002f69"/><stop offset="100.0%" stop-color="#002f69"/></linearGradient><linearGradient id="g15" gradientUnits="userSpaceOnUse" x1="150.78" y1="92.95" x2="137.62" y2="83.84"><stop offset="0.0%" stop-color="#0055be"/><stop offset="33.5%" stop-color="#0057c3"/><stop offset="83.2%" stop-color="#0055be"/><stop offset="100.0%" stop-color="#0057c3"/></linearGradient><linearGradient id="g17" gradientUnits="userSpaceOnUse" x1="119.35" y1="83.17" x2="105.22" y2="92.95"><stop offset="0.0%" stop-color="#002f69"/><stop offset="22.5%" stop-color="#002f69"/><stop offset="75.6%" stop-color="#002f69"/><stop offset="100.0%" stop-color="#002f69"/></linearGradient><linearGradient id="g19" gradientUnits="userSpaceOnUse" x1="156.78" y1="98.05" x2="99.22" y2="98.05"><stop offset="0.0%" stop-color="#002f69"/><stop offset="3.8%" stop-color="#002f69"/><stop offset="14.6%" stop-color="#002f69"/><stop offset="30.9%" stop-color="#00316e"/><stop offset="50.0%" stop-color="#004090"/><stop offset="69.1%" stop-color="#004cac"/><stop offset="85.4%" stop-color="#0055be"/><stop offset="96.2%" stop-color="#0057c3"/><stop offset="100.0%" stop-color="#0053ba"/></linearGradient><linearGradient id="g21" gradientUnits="userSpaceOnUse" x1="70.45" y1="91.82" x2="185.55" y2="91.82"><stop offset="0.0%" stop-color="#0053ba"/><stop offset="3.8%" stop-color="#0057c3"/><stop offset="14.6%" stop-color="#0055be"/><stop offset="30.9%" stop-color="#004cac"/><stop offset="50.0%" stop-color="#004090"/><stop offset="69.1%" stop-color="#00316e"/><stop offset="85.4%" stop-color="#002f69"/><stop offset="96.2%" stop-color="#002f69"/><stop offset="100.0%" stop-color="#002f69"/></linearGradient><linearGradient id="g23" gradientUnits="userSpaceOnUse" x1="106.42" y1="22.77" x2="149.58" y2="22.77"><stop offset="0.0%" stop-color="#0053ba"/><stop offset="3.8%" stop-color="#0057c3"/><stop offset="14.6%" stop-color="#0055be"/><stop offset="30.9%" stop-color="#004cac"/><stop offset="50.0%" stop-color="#004090"/><stop offset="69.1%" stop-color="#00316e"/><stop offset="85.4%" stop-color="#002f69"/><stop offset="96.2%" stop-color="#002f69"/><stop offset="100.0%" stop-color="#002f69"/></linearGradient><linearGradient id="g27" gradientUnits="userSpaceOnUse" x1="56.06" y1="85.59" x2="199.94" y2="85.59"><stop offset="0.0%" stop-color="#0053ba"/><stop offset="3.8%" stop-color="#0057c3"/><stop offset="14.6%" stop-color="#0055be"/><stop offset="30.9%" stop-color="#004cac"/><stop offset="50.0%" stop-color="#004090"/><stop offset="69.1%" stop-color="#00316e"/><stop offset="85.4%" stop-color="#002f69"/><stop offset="96.2%" stop-color="#002f69"/><stop offset="100.0%" stop-color="#002f69"/></linearGradient><linearGradient id="g28" gradientUnits="userSpaceOnUse" x1="61.53" y1="136.74" x2="100.47" y2="156.21"><stop offset="0.0%" stop-color="#0057c3"/><stop offset="9.5%" stop-color="#0057c3"/><stop offset="20.0%" stop-color="#0056c2"/><stop offset="31.6%" stop-color="#0056c0"/><stop offset="44.0%" stop-color="#0055be"/><stop offset="57.2%" stop-color="#0053bb"/><stop offset="71.0%" stop-color="#0051b6"/><stop offset="85.3%" stop-color="#004fb1"/><stop offset="100.0%" stop-color="#004cac"/></linearGradient><linearGradient id="g29" gradientUnits="userSpaceOnUse" x1="155.53" y1="156.21" x2="194.47" y2="136.74"><stop offset="0.0%" stop-color="#00316e"/><stop offset="14.7%" stop-color="#002f69"/><stop offset="29.0%" stop-color="#002f69"/><stop offset="42.8%" stop-color="#002f69"/><stop offset="56.0%" stop-color="#002f69"/><stop offset="68.4%" stop-color="#002f69"/><stop offset="80.0%" stop-color="#002f69"/><stop offset="90.5%" stop-color="#002f69"/><stop offset="100.0%" stop-color="#002f69"/></linearGradient><linearGradient id="g30" gradientUnits="userSpaceOnUse" x1="200.45" y1="48.21" x2="157.29" y2="48.21"><stop offset="0.0%" stop-color="#0053ba"/><stop offset="3.8%" stop-color="#0057c3"/><stop offset="14.6%" stop-color="#0055be"/><stop offset="30.9%" stop-color="#004cac"/><stop offset="50.0%" stop-color="#004090"/><stop offset="69.1%" stop-color="#00316e"/><stop offset="85.4%" stop-color="#002f69"/><stop offset="96.2%" stop-color="#002f69"/><stop offset="100.0%" stop-color="#002f69"/></linearGradient><linearGradient id="g31" gradientUnits="userSpaceOnUse" x1="98.71" y1="48.21" x2="55.55" y2="48.21"><stop offset="0.0%" stop-color="#0053ba"/><stop offset="3.8%" stop-color="#0057c3"/><stop offset="14.6%" stop-color="#0055be"/><stop offset="30.9%" stop-color="#004cac"/><stop offset="50.0%" stop-color="#004090"/><stop offset="69.1%" stop-color="#00316e"/><stop offset="85.4%" stop-color="#002f69"/><stop offset="96.2%" stop-color="#002f69"/><stop offset="100.0%" stop-color="#002f69"/></linearGradient><linearGradient id="g32" gradientUnits="userSpaceOnUse" x1="157.29" y1="48.21" x2="200.45" y2="48.21"><stop offset="0.0%" stop-color="#0053ba"/><stop offset="3.8%" stop-color="#0057c3"/><stop offset="14.6%" stop-color="#0055be"/><stop offset="30.9%" stop-color="#004cac"/><stop offset="50.0%" stop-color="#004090"/><stop offset="69.1%" stop-color="#00316e"/><stop offset="85.4%" stop-color="#002f69"/><stop offset="96.2%" stop-color="#002f69"/><stop offset="100.0%" stop-color="#002f69"/></linearGradient><linearGradient id="g34" gradientUnits="userSpaceOnUse" x1="55.55" y1="48.21" x2="98.71" y2="48.21"><stop offset="0.0%" stop-color="#0053ba"/><stop offset="3.8%" stop-color="#0057c3"/><stop offset="14.6%" stop-color="#0055be"/><stop offset="30.9%" stop-color="#004cac"/><stop offset="50.0%" stop-color="#004090"/><stop offset="69.1%" stop-color="#00316e"/><stop offset="85.4%" stop-color="#002f69"/><stop offset="96.2%" stop-color="#002f69"/><stop offset="100.0%" stop-color="#002f69"/></linearGradient><linearGradient id="g36" gradientUnits="userSpaceOnUse" x1="149.58" y1="73.65" x2="106.42" y2="73.65"><stop offset="0.0%" stop-color="#0053ba"/><stop offset="3.8%" stop-color="#0057c3"/><stop offset="14.6%" stop-color="#0055be"/><stop offset="30.9%" stop-color="#004cac"/><stop offset="50.0%" stop-color="#004090"/><stop offset="69.1%" stop-color="#00316e"/><stop offset="85.4%" stop-color="#002f69"/><stop offset="96.2%" stop-color="#002f69"/><stop offset="100.0%" stop-color="#002f69"/></linearGradient><linearGradient id="g37" gradientUnits="userSpaceOnUse" x1="106.42" y1="73.65" x2="149.58" y2="73.65"><stop offset="0.0%" stop-color="#0053ba"/><stop offset="3.8%" stop-color="#0057c3"/><stop offset="14.6%" stop-color="#0055be"/><stop offset="30.9%" stop-color="#004cac"/><stop offset="50.0%" stop-color="#004090"/><stop offset="69.1%" stop-color="#00316e"/><stop offset="85.4%" stop-color="#002f69"/><stop offset="96.2%" stop-color="#002f69"/><stop offset="100.0%" stop-color="#002f69"/></linearGradient></defs>
<g stroke-linejoin="round">
<path d="M 100.47 83.51 A 71.94 35.97 -180.00 0 0 61.53 102.98 L 61.53 115.44 A 71.94 35.97 -180.00 0 1 100.47 95.97 L 100.47 83.51 Z" fill="url(#g0)" fill-rule="evenodd" stroke="url(#g0)" stroke-width="0.8" opacity="0.55"/>
<path d="M 116.20 81.95 L 58.41 110.84 L 58.41 123.30 L 116.20 94.41 L 116.20 81.95 Z" fill="#003373" fill-rule="evenodd" stroke="#003373" stroke-width="0.8" opacity="0.55"/>
<path d="M 194.47 102.98 A 71.94 35.97 -180.00 0 0 155.53 83.51 L 155.53 95.97 A 71.94 35.97 -180.00 0 1 194.47 115.44 L 194.47 102.98 Z" fill="url(#g2)" fill-rule="evenodd" stroke="url(#g2)" stroke-width="0.8" opacity="0.55"/>
<path d="M 139.80 81.95 L 139.80 94.41 L 197.59 123.30 L 197.59 110.84 L 139.80 81.95 Z" fill="#0048a2" fill-rule="evenodd" stroke="#0048a2" stroke-width="0.8" opacity="0.55"/>
<path d="M 199.94 54.44 A 71.94 35.97 -180.00 0 0 125.10 18.50 A 71.94 35.97 -180.00 0 0 56.06 54.44 L 56.06 116.74 A 71.94 35.97 -180.00 0 1 130.90 80.80 A 71.94 35.97 -180.00 0 1 199.94 116.74 L 199.94 54.44 Z" fill="url(#g4)" fill-rule="evenodd" stroke="url(#g4)" stroke-width="0.8" opacity="0.55"/>
<path d="M 58.51 63.75 A 71.94 35.97 -180.00 0 0 197.49 45.13 A 71.94 35.97 -180.00 0 0 58.51 63.75 Z M 106.42 65.23 L 106.42 43.65 L 149.58 43.65 L 149.58 65.23 L 106.42 65.23 Z" fill="#006ef8" fill-rule="evenodd" stroke="#006ef8" stroke-width="0.8" opacity="0.55"/>
<path d="M 185.55 66.90 A 57.55 28.78 180.00 0 0 70.45 66.90 L 70.45 116.74 A 57.55 28.78 -180.00 0 1 130.32 87.99 A 57.55 28.78 -180.00 0 1 185.55 116.74 L 185.55 66.90 Z" fill="url(#g6)" fill-rule="evenodd" stroke="url(#g6)" stroke-width="0.8" opacity="0.55"/>
<path d="M 106.42 16.55 L 106.42 29.00 A 21.58 10.79 -180.00 0 1 149.58 29.00 L 149.58 16.55 A 21.58 10.79 -180.00 0 0 127.13 5.76 A 21.58 10.79 -180.00 0 0 106.42 16.55 Z" fill="url(#g7)" fill-rule="evenodd" stroke="url(#g7)" stroke-width="0.8" opacity="0.55"/>
<path d="M 150.27 138.31 A 28.78 14.39 180.00 0 0 104.85 120.66 A 28.78 14.39 180.00 0 0 150.27 138.31 Z M 141.67 137.56 A 21.58 10.79 180.00 0 1 115.18 120.52 A 21.58 10.79 180.00 0 1 141.67 137.56 Z" fill="#006ef8" fill-rule="evenodd" stroke="#006ef8" stroke-width="0.8" opacity="0.55"/>
<path d="M 99.22 129.21 A 28.78 14.39 180.00 0 1 129.16 114.83 A 28.78 14.39 180.00 0 1 156.78 129.21 L 156.78 66.90 A 28.78 14.39 180.00 0 0 99.22 66.90 L 99.22 129.21 Z" fill="url(#g9)" fill-rule="evenodd" stroke="url(#g9)" stroke-width="0.8" opacity="0.55"/>
<path d="M 106.42 116.74 L 106.42 129.21 A 21.58 10.79 180.00 0 1 128.87 118.42 A 21.58 10.79 180.00 0 1 149.58 129.21 L 149.58 116.74 A 21.58 10.79 180.00 0 0 127.13 105.96 A 21.58 10.79 180.00 0 0 106.42 116.74 Z" fill="url(#g10)" fill-rule="evenodd" stroke="url(#g10)" stroke-width="0.8" opacity="0.55"/>
<path d="M 143.26 109.11 L 147.34 112.16 L 147.34 49.86 L 143.26 46.81 L 137.16 44.77 L 137.16 107.08 L 143.26 109.11 Z" fill="url(#g11)" fill-rule="evenodd" stroke="url(#g11)" stroke-width="0.8" opacity="0.55"/>
<path d="M 118.84 44.77 L 118.84 107.08 L 122.91 109.11 L 128.00 110.39 L 133.09 109.11 L 137.16 107.08 L 137.16 44.77 L 133.09 46.81 L 128.00 48.08 L 122.91 46.81 L 118.84 44.77 Z" fill="url(#g12)" fill-rule="evenodd" stroke="url(#g12)" stroke-width="0.8" opacity="0.55"/>
<path d="M 118.84 44.77 L 112.74 46.81 L 108.66 49.86 L 108.66 112.16 L 112.74 109.11 L 118.84 107.08 L 118.84 44.77 Z" fill="url(#g13)" fill-rule="evenodd" stroke="url(#g13)" stroke-width="0.8" opacity="0.55"/>
<path d="M 106.42 129.21 A 21.58 10.79 180.00 0 0 149.58 129.21 L 149.58 116.74 A 21.58 10.79 180.00 0 1 106.42 116.74 L 106.42 129.21 Z" fill="url(#g14)" fill-rule="evenodd" stroke="url(#g14)" stroke-width="0.8" opacity="0.55"/>
<path d="M 140.72 54.44 L 140.72 116.74 L 143.26 119.29 L 147.34 121.33 L 147.34 112.16 L 147.34 59.02 L 147.34 49.86 L 143.26 51.90 L 140.72 54.44 Z" fill="url(#g15)" fill-rule="evenodd" stroke="url(#g15)" stroke-width="0.8" opacity="0.55"/>
<path d="M 197.59 135.11 L 197.59 122.64 L 194.46 130.52 L 194.46 142.98 L 197.59 135.11 Z" fill="#003373" fill-rule="evenodd" stroke="#003373" stroke-width="0.8" opacity="0.55"/>
<path d="M 115.28 54.44 L 112.74 51.90 L 108.66 49.86 L 108.66 59.02 L 108.66 112.16 L 108.66 121.33 L 112.74 119.29 L 115.28 116.74 L 115.28 54.44 Z" fill="url(#g17)" fill-rule="evenodd" stroke="url(#g17)" stroke-width="0.8" opacity="0.55"/>
<path d="M 58.41 135.11 L 61.54 142.98 L 61.54 130.52 L 58.41 122.64 L 58.41 135.11 Z" fill="#0048a2" fill-rule="evenodd" stroke="#0048a2" stroke-width="0.8" opacity="0.55"/>
<path d="M 99.22 66.90 L 99.22 129.21 A 28.78 14.39 180.00 0 0 156.78 129.21 L 156.78 66.90 A 28.78 14.39 180.00 0 1 126.84 81.28 A 28.78 14.39 180.00 0 1 99.22 66.90 Z" fill="url(#g19)" fill-rule="evenodd" stroke="url(#g19)" stroke-width="0.8" opacity="0.55"/>
<path d="M 106.42 65.23 L 128.00 65.23 L 149.58 65.23 L 149.58 54.44 L 149.58 54.44 L 149.58 43.65 L 128.00 43.65 L 106.42 43.65 L 106.42 54.44 L 106.42 65.23 Z M 122.91 62.07 L 118.84 64.11 L 112.74 62.07 L 108.66 59.02 L 112.74 56.98 L 115.28 54.44 L 112.74 51.90 L 108.66 49.86 L 112.74 46.81 L 118.84 44.77 L 122.91 46.81 L 128.00 48.08 L 133.09 46.81 L 137.16 44.77 L 143.26 46.81 L 147.34 49.86 L 143.26 51.90 L 140.72 54.44 L 143.26 56.98 L 147.33 59.02 L 147.34 59.02 L 143.26 62.07 L 137.16 64.11 L 133.09 62.07 L 128.00 60.80 L 122.91 62.07 Z M 114.86 63.00 L 117.21 63.79 L 114.86 63.00 L 112.74 62.07 L 114.86 63.00 Z M 110.88 61.01 L 109.31 59.84 L 110.88 61.01 L 112.74 62.07 L 110.88 61.01 Z M 110.88 47.87 L 109.31 49.05 L 110.88 47.87 L 112.74 46.81 L 110.88 47.87 Z M 114.86 45.88 L 117.21 45.09 L 114.86 45.88 L 112.74 46.81 L 114.86 45.88 Z M 141.14 45.88 L 138.79 45.09 L 141.14 45.88 L 143.26 46.81 L 141.14 45.88 Z M 145.12 47.87 L 146.69 49.05 L 145.12 47.87 L 143.26 46.81 L 145.12 47.87 Z M 145.12 61.01 L 146.69 59.84 L 145.12 61.01 L 143.26 62.07 L 145.12 61.01 Z M 141.14 63.00 L 138.79 63.79 L 141.14 63.00 L 143.26 62.07 L 141.14 63.00 Z M 133.59 44.02 L 130.82 43.74 L 133.59 44.02 L 136.26 44.47 L 133.59 44.02 Z M 119.74 64.41 L 118.92 64.14 L 119.74 64.41 L 122.41 64.86 L 119.74 64.41 L 119.74 64.41 Z M 108.06 58.57 L 108.06 58.57 L 107.61 57.90 L 108.06 58.57 Z M 119.74 44.47 L 119.74 44.47 L 118.92 44.74 L 119.73 44.47 L 119.74 44.47 Z M 136.26 64.41 L 136.26 64.41 L 134.82 64.66 L 136.26 64.41 L 137.07 64.14 L 136.26 64.41 Z M 136.27 44.47 L 137.07 44.74 L 136.26 44.47 L 136.27 44.47 Z" fill="#006ef8" fill-rule="evenodd" stroke="#006ef8" stroke-width="0.8" opacity="0.55"/>
<path d="M 185.55 116.74 L 185.55 66.90 A 57.55 28.78 180.00 0 1 125.68 95.66 A 57.55 28.78 180.00 0 1 70.45 66.90 L 70.45 116.74 A 57.55 28.78 -180.00 0 0 185.55 116.74 Z" fill="url(#g21)" fill-rule="evenodd" stroke="url(#g21)" stroke-width="0.8" opacity="0.55"/>
<path d="M 172.55 85.12 A 57.55 28.78 180.00 0 0 81.69 49.81 A 57.55 28.78 180.00 0 0 172.55 85.12 Z M 146.22 78.04 A 28.78 14.39 180.00 0 1 110.91 55.32 A 28.78 14.39 180.00 0 1 146.22 78.04 Z" fill="#006ef8" fill-rule="evenodd" stroke="#006ef8" stroke-width="0.8" opacity="0.55"/>
<path d="M 106.42 29.00 A 21.58 10.79 -180.00 0 0 128.87 39.79 A 21.58 10.79 -180.00 0 0 149.58 29.00 L 149.58 16.55 A 21.58 10.79 -180.00 0 1 106.42 16.55 L 106.42 29.00 Z" fill="url(#g23)" fill-rule="evenodd" stroke="url(#g23)" stroke-width="0.8" opacity="0.55"/>
<path d="M 141.67 8.19 A 21.58 10.79 -180.00 0 0 115.18 25.23 A 21.58 10.79 -180.00 0 0 141.67 8.19 Z" fill="#006ef8" fill-rule="evenodd" stroke="#006ef8" stroke-width="0.8" opacity="0.55"/>
<path d="M 155.55 162.44 L 155.55 149.97 L 139.80 151.54 L 139.80 164.00 L 155.55 162.44 Z" fill="#003373" fill-rule="evenodd" stroke="#003373" stroke-width="0.8" opacity="0.55"/>
<path d="M 100.45 162.44 L 116.20 164.00 L 116.20 151.54 L 100.45 149.97 L 100.45 162.44 Z" fill="#0048a2" fill-rule="evenodd" stroke="#0048a2" stroke-width="0.8" opacity="0.55"/>
<path d="M 199.94 116.74 L 199.94 54.44 A 71.94 35.97 -180.00 0 1 56.06 54.44 L 56.06 116.74 A 71.94 35.97 -180.00 0 0 199.94 116.74 Z" fill="url(#g27)" fill-rule="evenodd" stroke="url(#g27)" stroke-width="0.8" opacity="0.55"/>
<path d="M 100.47 162.44 L 100.47 149.98 A 71.94 35.97 -180.00 0 1 61.53 130.51 L 61.53 142.97 A 71.94 35.97 -180.00 0 0 100.47 162.44 Z" fill="url(#g28)" fill-rule="evenodd" stroke="url(#g28)" stroke-width="0.8" opacity="0.55"/>
<path d="M 194.47 142.97 L 194.47 130.51 A 71.94 35.97 -180.00 0 1 155.53 149.98 L 155.53 162.44 A 71.94 35.97 -180.00 0 0 194.47 142.97 Z" fill="url(#g29)" fill-rule="evenodd" stroke="url(#g29)" stroke-width="0.8" opacity="0.55"/>
<path d="M 157.29 41.98 L 157.29 54.44 A 21.58 10.79 180.00 0 1 179.74 43.66 A 21.58 10.79 180.00 0 1 200.45 54.44 L 200.45 41.98 A 21.58 10.79 -180.00 0 0 178.00 31.20 A 21.58 10.79 -180.00 0 0 157.29 41.98 Z" fill="url(#g30)" fill-rule="evenodd" stroke="url(#g30)" stroke-width="0.8" opacity="0.55"/>
<path d="M 55.55 41.98 L 55.55 54.44 A 21.58 10.79 180.00 0 1 78.00 43.66 A 21.58 10.79 180.00 0 1 98.71 54.44 L 98.71 41.98 A 21.58 10.79 -180.00 0 0 76.26 31.20 A 21.58 10.79 -180.00 0 0 55.55 41.98 Z" fill="url(#g31)" fill-rule="evenodd" stroke="url(#g31)" stroke-width="0.8" opacity="0.55"/>
<path d="M 157.29 54.44 A 21.58 10.79 180.00 0 0 200.45 54.44 L 200.45 41.98 A 21.58 10.79 -180.00 0 1 157.29 41.98 L 157.29 54.44 Z" fill="url(#g32)" fill-rule="evenodd" stroke="url(#g32)" stroke-width="0.8" opacity="0.55"/>
<path d="M 195.57 48.81 A 21.58 10.79 -180.00 0 0 161.50 35.57 A 21.58 10.79 -180.00 0 0 195.57 48.81 Z" fill="#006ef8" fill-rule="evenodd" stroke="#006ef8" stroke-width="0.8" opacity="0.55"/>
<path d="M 55.55 54.44 A 21.58 10.79 180.00 0 0 98.71 54.44 L 98.71 41.98 A 21.58 10.79 -180.00 0 1 55.55 41.98 L 55.55 54.44 Z" fill="url(#g34)" fill-rule="evenodd" stroke="url(#g34)" stroke-width="0.8" opacity="0.55"/>
<path d="M 60.42 35.15 A 21.58 10.79 -180.00 0 0 94.50 48.39 A 21.58 10.79 -180.00 0 0 60.42 35.15 Z" fill="#006ef8" fill-rule="evenodd" stroke="#006ef8" stroke-width="0.8" opacity="0.55"/>
<path d="M 106.42 67.42 L 106.42 79.88 A 21.58 10.79 180.00 0 1 128.87 69.09 A 21.58 10.79 180.00 0 1 149.58 79.88 L 149.58 67.42 A 21.58 10.79 180.00 0 0 106.42 67.42 Z" fill="url(#g36)" fill-rule="evenodd" stroke="url(#g36)" stroke-width="0.8" opacity="0.55"/>
<path d="M 106.42 79.88 A 21.58 10.79 180.00 0 0 149.58 79.88 L 149.58 67.42 A 21.58 10.79 180.00 0 1 127.13 78.20 A 21.58 10.79 180.00 0 1 106.42 67.42 L 106.42 79.88 Z" fill="url(#g37)" fill-rule="evenodd" stroke="url(#g37)" stroke-width="0.8" opacity="0.55"/>
<path d="M 114.33 75.77 A 21.58 10.79 180.00 0 0 140.82 58.73 A 21.58 10.79 180.00 0 0 114.33 75.77 Z" fill="#006ef8" fill-rule="evenodd" stroke="#006ef8" stroke-width="0.8" opacity="0.55"/>
</g>
<g stroke="black" fill="none" stroke-linecap="round">
<line x1="149.58" y1="16.54" x2="149.58" y2="29.01" stroke-width="2.00"/>
<line x1="149.58" y1="67.42" x2="149.58" y2="79.88" stroke-width="2.00"/>
<line x1="149.58" y1="116.74" x2="149.58" y2="129.20" stroke-width="2.00"/>
<line x1="106.42" y1="16.54" x2="106.42" y2="29.01" stroke-width="2.00"/>
<line x1="106.42" y1="67.42" x2="106.42" y2="79.88" stroke-width="2.00"/>
<line x1="106.42" y1="116.74" x2="106.42" y2="129.20" stroke-width="2.00"/>
<line x1="156.78" y1="66.90" x2="156.78" y2="129.20" stroke-width="2.00"/>
<line x1="99.22" y1="66.90" x2="99.22" y2="129.20" stroke-width="2.00"/>
<line x1="185.55" y1="66.90" x2="185.55" y2="116.74" stroke-width="2.00"/>
<line x1="70.45" y1="66.90" x2="70.45" y2="116.74" stroke-width="2.00"/>
<line x1="200.45" y1="41.98" x2="200.45" y2="54.44" stroke-width="2.00"/>
<line x1="157.29" y1="41.98" x2="157.29" y2="54.44" stroke-width="2.00"/>
<line x1="98.71" y1="41.98" x2="98.71" y2="54.44" stroke-width="2.00"/>
<line x1="55.55" y1="41.98" x2="55.55" y2="54.44" stroke-width="2.00"/>
<line x1="199.94" y1="54.44" x2="199.94" y2="116.74" stroke-width="2.00"/>
<line x1="56.06" y1="54.44" x2="56.06" y2="116.74" stroke-width="2.00"/>
<line x1="147.34" y1="121.33" x2="147.94" y2="120.87" stroke-width="2.00"/>
<line x1="147.34" y1="112.16" x2="147.94" y2="112.61" stroke-width="2.00"/>
<line x1="118.84" y1="126.41" x2="119.74" y2="126.71" stroke-width="2.00"/>
<line x1="136.26" y1="126.71" x2="137.16" y2="126.41" stroke-width="2.00"/>
<line x1="108.06" y1="112.61" x2="108.66" y2="112.16" stroke-width="2.00"/>
<line x1="108.06" y1="120.87" x2="108.66" y2="121.33" stroke-width="2.00"/>
<line x1="136.26" y1="106.77" x2="137.16" y2="107.08" stroke-width="2.00"/>
<line x1="118.84" y1="107.08" x2="119.74" y2="106.77" stroke-width="2.00"/>
<line x1="118.84" y1="44.77" x2="122.91" y2="46.81" stroke-width="2.00"/>
<line x1="143.26" y1="56.98" x2="147.34" y2="59.02" stroke-width="2.00"/>
<line x1="140.72" y1="54.44" x2="143.26" y2="56.98" stroke-width="2.00"/>
<line x1="140.72" y1="54.44" x2="143.26" y2="51.90" stroke-width="2.00"/>
<line x1="118.84" y1="64.11" x2="122.91" y2="62.07" stroke-width="2.00"/>
<line x1="143.26" y1="51.90" x2="147.34" y2="49.86" stroke-width="2.00"/>
<line x1="108.66" y1="59.02" x2="112.74" y2="56.98" stroke-width="2.00"/>
<line x1="133.09" y1="46.81" x2="137.16" y2="44.77" stroke-width="2.00"/>
<line x1="128.00" y1="48.08" x2="133.09" y2="46.81" stroke-width="2.00"/>
<line x1="122.91" y1="46.81" x2="128.00" y2="48.08" stroke-width="2.00"/>
<line x1="108.66" y1="49.86" x2="112.74" y2="51.90" stroke-width="2.00"/>
<line x1="133.09" y1="62.07" x2="137.16" y2="64.11" stroke-width="2.00"/>
<line x1="112.74" y1="51.90" x2="115.28" y2="54.44" stroke-width="2.00"/>
<line x1="112.74" y1="56.98" x2="115.28" y2="54.44" stroke-width="2.00"/>
<line x1="122.91" y1="62.07" x2="128.00" y2="60.80" stroke-width="2.00"/>
<line x1="128.00" y1="60.80" x2="133.09" y2="62.07" stroke-width="2.00"/>
<line x1="118.84" y1="107.08" x2="122.91" y2="109.11" stroke-width="2.00"/>
<line x1="143.26" y1="119.29" x2="147.34" y2="121.33" stroke-width="2.00"/>
<line x1="140.72" y1="116.74" x2="143.26" y2="119.29" stroke-width="2.00"/>
<line x1="140.72" y1="116.74" x2="143.26" y2="114.20" stroke-width="2.00"/>
<line x1="118.84" y1="126.41" x2="122.91" y2="124.37" stroke-width="2.00"/>
<line x1="143.26" y1="114.20" x2="147.34" y2="112.16" stroke-width="2.00"/>
<line x1="108.66" y1="121.33" x2="112.74" y2="119.29" stroke-width="2.00"/>
<line x1="133.09" y1="109.11" x2="137.16" y2="107.08" stroke-width="2.00"/>
<line x1="128.00" y1="110.39" x2="133.09" y2="109.11" stroke-width="2.00"/>
<line x1="122.91" y1="109.11" x2="128.00" y2="110.39" stroke-width="2.00"/>
<line x1="108.66" y1="112.16" x2="112.74" y2="114.20" stroke-width="2.00"/>
<line x1="133.09" y1="124.37" x2="137.16" y2="126.41" stroke-width="2.00"/>
<line x1="112.74" y1="114.20" x2="115.28" y2="116.74" stroke-width="2.00"/>
<line x1="112.74" y1="119.29" x2="115.28" y2="116.74" stroke-width="2.00"/>
<line x1="122.91" y1="124.37" x2="128.00" y2="123.10" stroke-width="2.00"/>
<line x1="128.00" y1="123.10" x2="133.09" y2="124.37" stroke-width="2.00"/>
<line x1="147.34" y1="49.86" x2="147.34" y2="121.33" stroke-width="2.00"/>
<line x1="137.16" y1="44.77" x2="137.16" y2="126.41" stroke-width="2.00"/>
<line x1="118.84" y1="44.77" x2="118.84" y2="126.41" stroke-width="2.00"/>
<line x1="108.66" y1="49.86" x2="108.66" y2="121.33" stroke-width="2.00"/>
<line x1="143.26" y1="62.07" x2="147.34" y2="59.02" stroke-width="2.00"/>
<line x1="143.26" y1="46.81" x2="147.34" y2="49.86" stroke-width="2.00"/>
<line x1="112.74" y1="46.81" x2="118.84" y2="44.77" stroke-width="2.00"/>
<line x1="137.16" y1="44.77" x2="143.26" y2="46.81" stroke-width="2.00"/>
<line x1="137.16" y1="64.11" x2="143.26" y2="62.07" stroke-width="2.00"/>
<line x1="112.74" y1="62.07" x2="118.84" y2="64.11" stroke-width="2.00"/>
<line x1="108.66" y1="49.86" x2="112.74" y2="46.81" stroke-width="2.00"/>
<line x1="108.66" y1="59.02" x2="112.74" y2="62.07" stroke-width="2.00"/>
<line x1="197.59" y1="110.84" x2="197.59" y2="135.11" stroke-width="2.00"/>
<line x1="139.80" y1="164.00" x2="197.59" y2="135.11" stroke-width="2.00"/>
<line x1="139.80" y1="81.95" x2="139.80" y2="94.41" stroke-width="2.00"/>
<line x1="139.80" y1="151.54" x2="139.80" y2="164.00" stroke-width="2.00"/>
<line x1="139.80" y1="151.54" x2="197.59" y2="122.64" stroke-width="2.00"/>
<line x1="116.20" y1="81.95" x2="116.20" y2="94.41" stroke-width="2.00"/>
<line x1="116.20" y1="151.54" x2="116.20" y2="164.00" stroke-width="2.00"/>
<line x1="58.41" y1="135.11" x2="116.20" y2="164.00" stroke-width="2.00"/>
<line x1="58.41" y1="110.84" x2="58.41" y2="135.11" stroke-width="2.00"/>
<line x1="58.41" y1="122.64" x2="116.20" y2="151.54" stroke-width="2.00"/>
<line x1="58.41" y1="123.30" x2="116.20" y2="94.41" stroke-width="2.00"/>
<line x1="58.41" y1="110.84" x2="116.20" y2="81.95" stroke-width="2.00"/>
<line x1="139.80" y1="94.41" x2="197.59" y2="123.30" stroke-width="2.00"/>
<line x1="139.80" y1="81.95" x2="197.59" y2="110.84" stroke-width="2.00"/>
<line x1="194.46" y1="142.98" x2="197.59" y2="135.11" stroke-width="2.00"/>
<line x1="194.46" y1="115.43" x2="197.59" y2="123.30" stroke-width="2.00"/>
<line x1="100.45" y1="95.97" x2="116.20" y2="94.41" stroke-width="2.00"/>
<line x1="139.80" y1="94.41" x2="155.55" y2="95.97" stroke-width="2.00"/>
<line x1="139.80" y1="164.00" x2="155.55" y2="162.44" stroke-width="2.00"/>
<line x1="100.45" y1="162.44" x2="116.20" y2="164.00" stroke-width="2.00"/>
<line x1="58.41" y1="123.30" x2="61.54" y2="115.43" stroke-width="2.00"/>
<line x1="58.41" y1="135.11" x2="61.54" y2="142.98" stroke-width="2.00"/>
<line x1="197.59" y1="122.64" x2="199.93" y2="116.74" stroke-width="2.00"/>
<line x1="197.59" y1="110.84" x2="199.93" y2="116.74" stroke-width="2.00"/>
<line x1="116.20" y1="81.95" x2="128.00" y2="80.78" stroke-width="2.00"/>
<line x1="128.00" y1="80.78" x2="139.80" y2="81.95" stroke-width="2.00"/>
<line x1="128.00" y1="152.71" x2="139.80" y2="151.54" stroke-width="2.00"/>
<line x1="116.20" y1="151.54" x2="128.00" y2="152.71" stroke-width="2.00"/>
<line x1="56.07" y1="116.74" x2="58.41" y2="110.84" stroke-width="2.00"/>
<line x1="56.07" y1="116.74" x2="58.41" y2="122.64" stroke-width="2.00"/>
<line x1="140.72" y1="54.44" x2="140.72" y2="116.74" stroke-width="2.00"/>
<line x1="115.28" y1="54.44" x2="115.28" y2="116.74" stroke-width="2.00"/>
<path d="M 143.26 136.84 A 21.58 10.79 180.00 0 0 112.74 121.57 A 21.58 10.79 180.00 0 0 143.26 136.84" stroke-width="2.00"/>
<path d="M 148.35 139.38 A 28.78 14.39 180.00 0 0 107.65 119.03 A 28.78 14.39 180.00 0 0 148.35 139.38" stroke-width="2.00"/>
<path d="M 143.26 124.37 A 21.58 10.79 180.00 0 0 112.74 109.11 A 21.58 10.79 180.00 0 0 143.26 124.37" stroke-width="2.00"/>
<path d="M 148.35 77.08 A 28.78 14.39 180.00 0 0 107.65 56.73 A 28.78 14.39 180.00 0 0 148.35 77.08" stroke-width="2.00"/>
<path d="M 178.87 79.88 A 71.94 35.97 -180.00 0 0 77.13 29.01 A 71.94 35.97 -180.00 0 0 178.87 79.88" stroke-width="2.00"/>
<path d="M 194.47 142.97 A 71.94 35.97 -180.00 0 1 155.53 162.44" stroke-width="2.00"/>
<path d="M 100.47 162.44 A 71.94 35.97 -180.00 0 1 61.53 142.97" stroke-width="2.00"/>
<path d="M 61.53 115.44 A 71.94 35.97 -180.00 0 1 100.47 95.97" stroke-width="2.00"/>
<path d="M 155.53 95.97 A 71.94 35.97 -180.00 0 1 194.47 115.44" stroke-width="2.00"/>
<path d="M 168.70 87.25 A 57.55 28.78 180.00 0 0 87.30 46.55 A 57.55 28.78 180.00 0 0 168.70 87.25" stroke-width="2.00"/>
<path d="M 168.70 137.09 A 57.55 28.78 -180.00 0 0 87.30 96.40 A 57.55 28.78 -180.00 0 0 168.70 137.09" stroke-width="2.00"/>
<path d="M 194.13 62.07 A 21.58 10.79 180.00 0 0 163.61 46.81 A 21.58 10.79 180.00 0 0 194.13 62.07" stroke-width="2.00"/>
<path d="M 194.13 49.61 A 21.58 10.79 -180.00 0 0 163.61 34.35 A 21.58 10.79 -180.00 0 0 194.13 49.61" stroke-width="2.00"/>
<path d="M 143.26 21.37 A 21.58 10.79 -180.00 0 0 112.74 36.64 A 21.58 10.79 -180.00 0 0 143.26 21.37" stroke-width="2.00"/>
<path d="M 143.26 8.91 A 21.58 10.79 -180.00 0 0 112.74 24.18 A 21.58 10.79 -180.00 0 0 143.26 8.91" stroke-width="2.00"/>
<path d="M 112.74 87.51 A 21.58 10.79 180.00 0 0 143.26 72.25 A 21.58 10.79 180.00 0 0 112.74 87.51" stroke-width="2.00"/>
<path d="M 112.74 75.05 A 21.58 10.79 180.00 0 0 143.26 59.78 A 21.58 10.79 180.00 0 0 112.74 75.05" stroke-width="2.00"/>
<path d="M 61.87 46.81 A 21.58 10.79 180.00 0 0 92.39 62.07 A 21.58 10.79 180.00 0 0 61.87 46.81" stroke-width="2.00"/>
<path d="M 61.87 34.35 A 21.58 10.79 -180.00 0 0 92.39 49.61 A 21.58 10.79 -180.00 0 0 61.87 34.35" stroke-width="2.00"/>
<path d="M 178.87 142.18 A 71.94 35.97 -180.00 0 0 77.13 91.31 A 71.94 35.97 -180.00 0 0 178.87 142.18" stroke-width="2.00"/>
</g>
</svg>