<svg xmlns="http://www.w3.org/2000/svg" viewBox="0 0 256 170" preserveAspectRatio="xMidYMid meet">
<defs><linearGradient id="g0" gradientUnits="userSpaceOnUse" x1="100.47" y1="89.74" x2="61.53" y2="109.21"><stop offset="0.0%" stop-color="#00316e"/><stop offset="14.7%" stop-color="#002f69"/><stop offset="29.0%" stop-color="#002f69"/><stop offset="42.8%" stop-color="#002f69"/><stop offset="56.0%" stop-color="#002f69"/><stop offset="68.4%" stop-color="#002f69"/><stop offset="80.0%" stop-color="#002f69"/><stop offset="90.5%" stop-color="#002f69"/><stop offset="100.0%" stop-color="#002f69"/></linearGradient><linearGradient id="g2" gradientUnits="userSpaceOnUse" x1="194.47" y1="109.21" x2="155.53" y2="89.74"><stop offset="-0.0%" stop-color="#0057c3"/><stop offset="9.5%" stop-color="#0057c3"/><stop offset="20.0%" stop-color="#0056c2"/><stop offset="31.6%" stop-color="#0056c0"/><stop offset="44.0%" stop-color="#0055be"/><stop offset="57.2%" stop-color="#0053bb"/><stop offset="71.0%" stop-color="#0051b6"/><stop offset="85.3%" stop-color="#004fb1"/><stop offset="100.0%" stop-color="#004cac"/></linearGradient><linearGradient id="g4" gradientUnits="userSpaceOnUse" x1="199.95" y1="85.59" x2="56.05" y2="85.59"><stop offset="0.0%" stop-color="#0053ba"/><stop offset="3.8%" stop-color="#0057c3"/><stop offset="14.6%" stop-color="#0055be"/><stop offset="30.9%" stop-color="#004cac"/><stop offset="50.0%" stop-color="#004090"/><stop offset="69.1%" stop-color="#00316e"/><stop offset="85.4%" stop-color="#002f69"/><stop offset="96.2%" stop-color="#002f69"/><stop offset="100.0%" stop-color="#002f69"/></linearGradient><linearGradient id="g6" gradientUnits="userSpaceOnUse" x1="185.56" y1="91.82" x2="70.44" y2="91.82"><stop offset="0.0%" stop-color="#0053ba"/><stop offset="3.8%" stop-color="#0057c3"/><stop offset="14.6%" stop-color="#0055be"/><stop offset="30.9%" stop-color="#004cac"/><stop offset="50.0%" stop-color="#004090"/><stop offset="69.1%" stop-color="#00316e"/><stop offset="85.4%" stop-color="#002f69"/><stop offset="96.2%" stop-color="#002f69"/><stop offset="100.0%" stop-color="#002f69"/></linearGradient><linearGradient id="g8" gradientUnits="userSpaceOnUse" x1="149.58" y1="22.77" x2="143.26" y2="15.14"><stop offset="-0.0%" stop-color="#0053ba"/><stop offset="8.9%" stop-color="#0054be"/><stop offset="19.0%" stop-color="#0056c0"/><stop offset="30.3%" stop-color="#0056c2"/><stop offset="42.7%" stop-color="#0057c3"/><stop offset="55.9%" stop-color="#0057c3"/><stop offset="70.0%" stop-color="#0056c2"/><stop offset="84.7%" stop-color="#0056c0"/><stop offset="100.0%" stop-color="#0055be"/></linearGradient><linearGradient id="g9" gradientUnits="userSpaceOnUse" x1="112.74" y1="15.14" x2="106.42" y2="22.77"><stop offset="0.0%" stop-color="#002f69"/><stop offset="15.3%" stop-color="#002f69"/><stop offset="30.0%" stop-color="#002f69"/><stop offset="44.1%" stop-color="#002f69"/><stop offset="57.3%" stop-color="#002f69"/><stop offset="69.7%" stop-color="#002f69"/><stop offset="81.0%" stop-color="#002f69"/><stop offset="91.1%" stop-color="#002f69"/><stop offset="100.0%" stop-color="#002f69"/></linearGradient><linearGradient id="g11" gradientUnits="userSpaceOnUse" x1="99.22" y1="98.05" x2="156.78" y2="98.05"><stop offset="0.0%" stop-color="#002f69"/><stop offset="3.8%" stop-color="#002f69"/><stop offset="14.6%" stop-color="#002f69"/><stop offset="30.9%" stop-color="#00316e"/><stop offset="50.0%" stop-color="#004090"/><stop offset="69.1%" stop-color="#004cac"/><stop offset="85.4%" stop-color="#0055be"/><stop offset="96.2%" stop-color="#0057c3"/><stop offset="100.0%" stop-color="#0053ba"/></linearGradient><linearGradient id="g12" gradientUnits="userSpaceOnUse" x1="149.58" y1="122.97" x2="106.42" y2="122.97"><stop offset="0.0%" stop-color="#0053ba"/><stop offset="3.8%" stop-color="#0057c3"/><stop offset="14.6%" stop-color="#0055be"/><stop offset="30.9%" stop-color="#004cac"/><stop offset="50.0%" stop-color="#004090"/><stop offset="69.1%" stop-color="#00316e"/><stop offset="85.4%" stop-color="#002f69"/><stop offset="96.2%" stop-color="#002f69"/><stop offset="100.0%" stop-color="#002f69"/></linearGradient><linearGradient id="g13" gradientUnits="userSpaceOnUse" x1="150.20" y1="81.93" x2="137.01" y2="75.34"><stop offset="0.0%" stop-color="#0056c2"/><stop offset="51.4%" stop-color="#0051b6"/><stop offset="74.3%" stop-color="#0056c2"/><stop offset="100.0%" stop-color="#0051b6"/></linearGradient><linearGradient id="g14" gradientUnits="userSpaceOnUse" x1="135.80" y1="77.77" x2="120.20" y2="77.77"><stop offset="0.0%" stop-color="#002f69"/><stop offset="8.7%" stop-color="#002f69"/><stop offset="28.3%" stop-color="#002f69"/><stop offset="39.1%" stop-color="#002f69"/><stop offset="60.9%" stop-color="#004eb0"/><stop offset="71.7%" stop-color="#004eb0"/><stop offset="91.3%" stop-color="#0055be"/><stop offset="100.0%" stop-color="#0055be"/></linearGradient><linearGradient id="g15" gradientUnits="userSpaceOnUse" x1="120.89" y1="74.39" x2="105.80" y2="81.93"><stop offset="0.0%" stop-color="#002f69"/><stop offset="35.1%" stop-color="#002f69"/><stop offset="67.6%" stop-color="#002f69"/><stop offset="100.0%" stop-color="#002f69"/></linearGradient><linearGradient id="g16" gradientUnits="userSpaceOnUse" x1="106.42" y1="122.97" x2="149.58" y2="122.97"><stop offset="0.0%" stop-color="#0053ba"/><stop offset="3.8%" stop-color="#0057c3"/><stop offset="14.6%" stop-color="#0055be"/><stop offset="30.9%" stop-color="#004cac"/><stop offset="50.0%" stop-color="#004090"/><stop offset="69.1%" stop-color="#00316e"/><stop offset="85.4%" stop-color="#002f69"/><stop offset="96.2%" stop-color="#002f69"/><stop offset="100.0%" stop-color="#002f69"/></linearGradient><linearGradient id="g17" gradientUnits="userSpaceOnUse" x1="150.78" y1="92.94" x2="137.62" y2="83.83"><stop offset="0.0%" stop-color="#0055be"/><stop offset="33.5%" stop-color="#0057c3"/><stop offset="83.2%" stop-color="#0055be"/><stop offset="100.0%" stop-color="#0057c3"/></linearGradient><linearGradient id="g19" gradientUnits="userSpaceOnUse" x1="119.35" y1="83.16" x2="105.22" y2="92.94"><stop offset="0.0%" stop-color="#002f69"/><stop offset="22.5%" stop-color="#002f69"/><stop offset="75.6%" stop-color="#002f69"/><stop offset="100.0%" stop-color="#002f69"/></linearGradient><linearGradient id="g21" gradientUnits="userSpaceOnUse" x1="156.78" y1="98.05" x2="99.22" y2="98.05"><stop offset="0.0%" stop-color="#002f69"/><stop offset="3.8%" stop-color="#002f69"/><stop offset="14.6%" stop-color="#002f69"/><stop offset="30.9%" stop-color="#00316e"/><stop offset="50.0%" stop-color="#004090"/><stop offset="69.1%" stop-color="#004cac"/><stop offset="85.4%" stop-color="#0055be"/><stop offset="96.2%" stop-color="#0057c3"/><stop offset="100.0%" stop-color="#0053ba"/></linearGradient><linearGradient id="g22" gradientUnits="userSpaceOnUse" x1="70.44" y1="91.82" x2="185.56" y2="91.82"><stop offset="0.0%" stop-color="#0053ba"/><stop offset="3.8%" stop-color="#0057c3"/><stop offset="14.6%" stop-color="#0055be"/><stop offset="30.9%" stop-color="#004cac"/><stop offset="50.0%" stop-color="#004090"/><stop offset="69.1%" stop-color="#00316e"/><stop offset="85.4%" stop-color="#002f69"/><stop offset="96.2%" stop-color="#002f69"/><stop offset="100.0%" stop-color="#002f69"/></linearGradient><linearGradient id="g24" gradientUnits="userSpaceOnUse" x1="106.42" y1="22.77" x2="149.58" y2="22.77"><stop offset="0.0%" stop-color="#0053ba"/><stop offset="3.8%" stop-color="#0057c3"/><stop offset="14.6%" stop-color="#0055be"/><stop offset="30.9%" stop-color="#004cac"/><stop offset="50.0%" stop-color="#004090"/><stop offset="69.1%" stop-color="#00316e"/><stop offset="85.4%" stop-color="#002f69"/><stop offset="96.2%" stop-color="#002f69"/><stop offset="100.0%" stop-color="#002f69"/></linearGradient><linearGradient id="g28" gradientUnits="userSpaceOnUse" x1="56.05" y1="85.59" x2="199.95" y2="85.59"><stop offset="0.0%" stop-color="#0053ba"/><stop offset="3.8%" stop-color="#0057c3"/><stop offset="14.6%" stop-color="#0055be"/><stop offset="30.9%" stop-color="#004cac"/><stop offset="50.0%" stop-color="#004090"/><stop offset="69.1%" stop-color="#00316e"/><stop offset="85.4%" stop-color="#002f69"/><stop offset="96.2%" stop-color="#002f69"/><stop offset="100.0%" stop-color="#002f69"/></linearGradient><linearGradient id="g29" gradientUnits="userSpaceOnUse" x1="61.53" y1="136.74" x2="100.47" y2="156.21"><stop offset="0.0%" stop-color="#0057c3"/><stop offset="9.5%" stop-color="#0057c3"/><stop offset="20.0%" stop-color="#0056c2"/><stop offset="31.6%" stop-color="#0056c0"/><stop offset="44.0%" stop-color="#0055be"/><stop offset="57.2%" stop-color="#0053bb"/><stop offset="71.0%" stop-color="#0051b6"/><stop offset="85.3%" stop-color="#004fb1"/><stop offset="100.0%" stop-color="#004cac"/></linearGradient><linearGradient id="g30" gradientUnits="userSpaceOnUse" x1="155.53" y1="156.21" x2="194.47" y2="136.74"><stop offset="0.0%" stop-color="#00316e"/><stop offset="14.7%" stop-color="#002f69"/><stop offset="29.0%" stop-color="#002f69"/><stop offset="42.8%" stop-color="#002f69"/><stop offset="56.0%" stop-color="#002f69"/><stop offset="68.4%" stop-color="#002f69"/><stop offset="80.0%" stop-color="#002f69"/><stop offset="90.5%" stop-color="#002f69"/><stop offset="100.0%" stop-color="#002f69"/></linearGradient><linearGradient id="g34" gradientUnits="userSpaceOnUse" x1="194.14" y1="40.57" x2="157.29" y2="48.20"><stop offset="0.0%" stop-color="#0055be"/><stop offset="12.2%" stop-color="#004fb1"/><stop offset="27.2%" stop-color="#00479f"/><stop offset="43.5%" stop-color="#003c87"/><stop offset="60.0%" stop-color="#00316e"/><stop offset="75.0%" stop-color="#002f69"/><stop offset="87.3%" stop-color="#002f69"/><stop offset="95.9%" stop-color="#002f69"/><stop offset="100.0%" stop-color="#002f69"/></linearGradient><linearGradient id="g36" gradientUnits="userSpaceOnUse" x1="98.71" y1="48.20" x2="61.86" y2="40.57"><stop offset="-0.0%" stop-color="#0053ba"/><stop offset="4.1%" stop-color="#0056c2"/><stop offset="12.7%" stop-color="#0056c2"/><stop offset="25.0%" stop-color="#0053bb"/><stop offset="40.0%" stop-color="#004cac"/><stop offset="56.5%" stop-color="#004397"/><stop offset="72.8%" stop-color="#00397f"/><stop offset="87.8%" stop-color="#002f69"/><stop offset="100.0%" stop-color="#002f69"/></linearGradient><linearGradient id="g37" gradientUnits="userSpaceOnUse" x1="157.29" y1="48.20" x2="194.14" y2="55.83"><stop offset="0.0%" stop-color="#0053ba"/><stop offset="4.1%" stop-color="#0056c2"/><stop offset="12.7%" stop-color="#0056c2"/><stop offset="25.0%" stop-color="#0053bb"/><stop offset="40.0%" stop-color="#004cac"/><stop offset="56.5%" stop-color="#004397"/><stop offset="72.8%" stop-color="#00397f"/><stop offset="87.8%" stop-color="#002f69"/><stop offset="100.0%" stop-color="#002f69"/></linearGradient><linearGradient id="g39" gradientUnits="userSpaceOnUse" x1="61.86" y1="55.83" x2="98.71" y2="48.20"><stop offset="0.0%" stop-color="#0055be"/><stop offset="12.2%" stop-color="#004fb1"/><stop offset="27.2%" stop-color="#00479f"/><stop offset="43.5%" stop-color="#003c87"/><stop offset="60.0%" stop-color="#00316e"/><stop offset="75.0%" stop-color="#002f69"/><stop offset="87.3%" stop-color="#002f69"/><stop offset="95.9%" stop-color="#002f69"/><stop offset="100.0%" stop-color="#002f69"/></linearGradient><linearGradient id="g41" gradientUnits="userSpaceOnUse" x1="149.58" y1="73.64" x2="106.42" y2="73.64"><stop offset="0.0%" stop-color="#0053ba"/><stop offset="3.8%" stop-color="#0057c3"/><stop offset="14.6%" stop-color="#0055be"/><stop offset="30.9%" stop-color="#004cac"/><stop offset="50.0%" stop-color="#004090"/><stop offset="69.1%" stop-color="#00316e"/><stop offset="85.4%" stop-color="#002f69"/><stop offset="96.2%" stop-color="#002f69"/><stop offset="100.0%" stop-color="#002f69"/></linearGradient><linearGradient id="g42" gradientUnits="userSpaceOnUse" x1="106.42" y1="73.64" x2="112.74" y2="81.27"><stop offset="0.0%" stop-color="#0053ba"/><stop offset="8.9%" stop-color="#0054be"/><stop offset="19.0%" stop-color="#0056c0"/><stop offset="30.3%" stop-color="#0056c2"/><stop offset="42.7%" stop-color="#0057c3"/><stop offset="55.9%" stop-color="#0057c3"/><stop offset="70.0%" stop-color="#0056c2"/><stop offset="84.7%" stop-color="#0056c0"/><stop offset="100.0%" stop-color="#0055be"/></linearGradient><linearGradient id="g43" gradientUnits="userSpaceOnUse" x1="143.26" y1="81.27" x2="149.58" y2="73.64"><stop offset="0.0%" stop-color="#002f69"/><stop offset="15.3%" stop-color="#002f69"/><stop offset="30.0%" stop-color="#002f69"/><stop offset="44.1%" stop-color="#002f69"/><stop offset="57.3%" stop-color="#002f69"/><stop offset="69.7%" stop-color="#002f69"/><stop offset="81.0%" stop-color="#002f69"/><stop offset="91.1%" stop-color="#002f69"/><stop offset="100.0%" stop-color="#002f69"/></linearGradient><linearGradient id="g47" gradientUnits="userSpaceOnUse" x1="134.23" y1="83.71" x2="121.77" y2="83.71"><stop offset="0.0%" stop-color="#00397f"/><stop offset="25.0%" stop-color="#00397f"/><stop offset="75.0%" stop-color="#00479f"/><stop offset="100.0%" stop-color="#00479f"/></linearGradient></defs>
<g stroke-linejoin="round">
<path d="M 100.47 83.51 A 71.95 35.97 -180.00 0 0 61.53 102.97 L 61.53 115.44 A 71.95 35.97 180.00 0 1 100.47 95.97 L 100.47 83.51 Z" fill="url(#g0)" fill-rule="evenodd" opacity="0.55"/>
<path d="M 116.20 81.94 L 58.41 110.84 L 58.41 123.30 L 116.20 94.41 L 116.20 81.94 Z" fill="#003373" fill-rule="evenodd" opacity="0.55"/>
<path d="M 194.47 102.97 A 71.95 35.97 -180.00 0 0 155.53 83.51 L 155.53 95.97 A 71.95 35.97 180.00 0 1 194.47 115.44 L 194.47 102.97 Z" fill="url(#g2)" fill-rule="evenodd" opacity="0.55"/>
<path d="M 139.80 81.94 L 139.80 94.41 L 197.59 123.30 L 197.59 110.84 L 139.80 81.94 Z" fill="#0048a2" fill-rule="evenodd" opacity="0.55"/>
<path d="M 199.95 54.43 A 71.95 35.97 -180.00 0 0 130.90 18.49 A 71.95 35.97 -180.00 0 0 56.29 51.54 A 71.95 35.97 -180.00 0 0 56.05 54.43 L 56.05 116.74 A 71.95 35.97 -180.00 0 1 125.10 80.80 A 71.95 35.97 -180.00 0 1 199.71 113.85 A 71.95 35.97 -180.00 0 1 199.95 116.74 L 199.95 54.43 Z" fill="url(#g4)" fill-rule="evenodd" opacity="0.55"/>
<path d="M 61.53 40.67 L 65.69 72.41 A 71.95 35.97 -180.00 0 0 92.06 85.59 L 155.53 87.67 A 71.95 35.97 -180.00 0 0 194.47 68.20 L 190.31 36.46 A 71.95 35.97 -180.00 0 0 163.94 23.28 L 100.47 21.20 A 71.95 35.97 -180.00 0 0 61.53 40.67 Z M 84.20 25.89 L 128.00 25.90 L 84.26 25.90 L 84.20 25.89 Z M 70.92 32.56 L 70.92 54.44 L 70.92 32.53 L 70.92 32.56 Z M 65.69 36.46 L 65.69 54.43 L 65.69 36.45 L 65.69 36.46 Z M 67.65 51.36 L 70.92 76.31 L 70.92 76.33 L 67.65 51.36 Z M 84.23 82.97 L 126.02 84.34 L 84.20 82.97 L 84.23 82.97 Z M 128.00 85.59 L 163.94 85.59 L 163.97 85.59 L 128.00 85.59 Z M 128.00 82.97 L 171.77 82.97 L 171.80 82.97 L 128.00 82.97 Z M 185.07 76.31 L 185.08 54.44 L 185.08 76.33 L 185.07 76.31 Z M 190.31 72.41 L 190.31 54.43 L 190.31 72.42 L 190.31 72.41 Z M 188.35 57.51 L 185.08 32.56 L 185.08 32.53 L 188.35 57.51 Z M 171.74 25.89 L 117.47 24.11 L 171.80 25.89 L 171.74 25.89 Z M 128.00 23.28 L 92.06 23.28 L 92.03 23.28 L 128.00 23.28 Z M 108.66 49.85 A 18.81 9.40 180.00 0 1 118.84 44.77 A 17.87 8.94 0.00 0 0 128.00 48.08 A 17.87 8.94 180.00 0 0 137.16 44.77 A 18.81 9.40 180.00 0 1 147.34 49.85 A 17.87 8.94 -180.00 0 0 140.72 54.43 A 17.87 8.94 180.00 0 0 147.34 59.02 A 18.81 9.40 -180.00 0 1 137.16 64.10 A 17.87 8.94 0.00 0 0 128.00 60.79 A 17.87 8.94 180.00 0 0 118.84 64.10 A 18.81 9.40 -0.00 0 1 108.66 59.02 A 17.87 8.94 -180.00 0 0 115.28 54.43 A 17.87 8.94 180.00 0 0 108.66 49.85 Z M 119.74 44.46 L 120.97 44.25 L 119.74 44.46 L 118.84 44.77 L 119.74 44.46 Z M 136.26 44.46 L 133.59 44.01 L 136.26 44.46 L 137.16 44.77 L 136.26 44.46 Z M 119.74 64.41 L 119.75 64.41 L 122.41 64.86 L 119.74 64.41 Z M 136.26 64.41 L 135.03 64.61 L 136.25 64.41 L 136.26 64.41 Z M 117.21 45.09 L 114.88 45.88 L 114.88 45.88 L 106.42 43.64 L 114.86 45.87 L 117.21 45.09 Z M 110.90 47.87 L 109.31 49.04 L 110.88 47.86 L 106.42 43.64 L 110.90 47.87 Z M 108.06 50.30 L 109.31 49.04 L 109.31 49.04 L 108.06 50.30 Z M 107.15 51.64 L 106.76 52.63 L 107.15 51.64 L 108.06 50.30 L 107.15 51.64 Z M 109.31 59.83 L 110.90 61.00 L 106.42 65.23 L 110.88 61.00 L 109.31 59.83 Z M 109.31 59.83 L 108.06 58.56 L 109.31 59.83 L 109.31 59.83 Z M 114.88 62.98 L 114.88 62.98 L 117.21 63.78 L 114.86 63.00 L 106.42 65.23 L 114.88 62.98 Z M 138.79 63.78 L 141.12 62.98 L 141.12 62.98 L 149.58 65.23 L 141.14 63.00 L 138.79 63.78 Z M 145.10 61.00 L 146.69 59.83 L 145.12 61.00 L 149.58 65.23 L 145.10 61.00 Z M 147.94 58.56 L 146.69 59.83 L 146.69 59.83 L 147.94 58.56 Z M 148.85 57.23 L 149.24 56.24 L 148.85 57.23 L 147.94 58.56 L 148.85 57.23 Z M 138.79 45.09 L 141.14 45.87 L 149.58 43.64 L 141.12 45.88 L 141.12 45.88 L 138.79 45.09 Z M 145.12 47.86 L 146.69 49.04 L 145.10 47.87 L 149.58 43.64 L 145.12 47.86 Z M 146.69 49.04 L 147.94 50.30 L 146.69 49.04 L 146.69 49.04 Z M 58.51 45.12 A 71.95 35.97 -180.00 0 0 58.51 63.74 L 58.51 45.12 Z M 58.51 45.14 L 58.51 63.74 A 71.95 35.97 -180.00 0 0 65.69 72.42 L 61.53 40.68 L 61.53 40.67 A 71.95 35.97 -180.00 0 0 58.51 45.14 Z M 61.53 68.19 L 61.53 54.43 L 61.53 68.20 L 61.53 68.19 Z M 155.53 87.67 L 155.50 87.67 L 92.03 85.59 A 71.95 35.97 -180.00 0 0 155.53 87.67 Z M 128.01 87.67 L 100.50 87.67 L 100.47 87.67 L 128.01 87.67 Z M 100.47 21.20 L 100.50 21.20 L 163.97 23.28 A 71.95 35.97 -180.00 0 0 100.47 21.20 Z M 128.00 21.20 L 155.50 21.20 L 155.53 21.20 L 128.00 21.20 Z M 190.31 36.45 L 194.47 68.19 L 194.47 68.20 A 71.95 35.97 -180.00 0 0 197.49 63.73 L 197.50 45.12 A 71.95 35.97 -180.00 0 0 190.31 36.45 Z M 194.47 40.68 L 194.47 54.43 L 194.47 40.67 L 194.47 40.68 Z M 197.50 45.12 L 197.50 63.74 A 71.95 35.97 -180.00 0 0 197.50 45.12 Z" fill="#006ef8" fill-rule="evenodd" opacity="0.55"/>
<path d="M 185.56 66.89 A 57.56 28.78 180.00 0 0 130.32 38.14 A 57.56 28.78 180.00 0 0 70.63 64.58 A 57.56 28.78 180.00 0 0 70.44 66.89 L 70.44 116.74 A 57.56 28.78 -180.00 0 1 125.68 87.99 A 57.56 28.78 -180.00 0 1 185.37 114.42 A 57.56 28.78 -180.00 0 1 185.56 116.74 L 185.56 66.89 Z" fill="url(#g6)" fill-rule="evenodd" opacity="0.55"/>
<path d="M 128.00 16.54 L 143.26 8.90 L 137.35 6.93 L 128.00 6.00 L 118.65 6.93 L 112.74 8.90 L 128.00 16.54 Z M 57.91 46.65 L 61.86 49.60 L 77.13 41.97 L 61.86 34.34 L 57.91 37.30 L 56.05 41.97 L 57.91 46.65 Z M 112.74 75.04 L 118.65 77.02 L 128.00 77.94 L 137.35 77.02 L 143.26 75.04 L 128.00 67.41 L 112.74 75.04 Z M 194.14 34.34 L 178.87 41.97 L 194.14 49.60 L 198.09 46.65 L 199.94 41.97 L 198.09 37.30 L 194.14 34.34 Z" fill="#006ef8" fill-rule="evenodd" opacity="0.55"/>
<path d="M 149.58 16.54 A 21.58 10.79 -180.00 0 0 143.26 8.90 L 143.26 21.37 A 21.58 10.79 -180.00 0 1 149.58 29.00 L 149.58 16.54 Z" fill="url(#g8)" fill-rule="evenodd" opacity="0.55"/>
<path d="M 112.74 8.90 A 21.58 10.79 -180.00 0 0 106.42 16.54 L 106.42 29.00 A 21.58 10.79 -180.00 0 1 112.74 21.37 L 112.74 8.90 Z" fill="url(#g9)" fill-rule="evenodd" opacity="0.55"/>
<path d="M 150.27 138.31 A 28.78 14.39 180.00 0 0 147.84 118.78 A 28.78 14.39 180.00 0 0 108.69 118.53 A 28.78 14.39 180.00 0 0 105.28 138.03 A 28.78 14.39 180.00 0 0 143.91 141.19 A 28.78 14.39 180.00 0 0 150.27 138.31 Z M 141.67 137.56 A 21.58 10.79 -180.00 0 1 112.36 136.64 A 21.58 10.79 -180.00 0 1 112.00 121.96 A 21.58 10.79 -180.00 0 1 141.25 120.68 A 21.58 10.79 -180.00 0 1 145.98 135.17 A 21.58 10.79 -180.00 0 1 141.67 137.56 Z" fill="#006ef8" fill-rule="evenodd" opacity="0.55"/>
<path d="M 99.22 129.20 A 28.78 14.39 180.00 0 1 126.84 114.83 A 28.78 14.39 180.00 0 1 156.69 128.04 A 28.78 14.39 180.00 0 1 156.78 129.20 L 156.78 66.89 A 28.78 14.39 180.00 0 0 129.16 52.52 A 28.78 14.39 180.00 0 0 99.31 65.74 A 28.78 14.39 180.00 0 0 99.22 66.89 L 99.22 129.20 Z" fill="url(#g11)" fill-rule="evenodd" opacity="0.55"/>
<path d="M 106.42 116.74 L 106.42 129.20 A 21.58 10.79 -180.00 0 1 127.13 118.42 A 21.58 10.79 -180.00 0 1 149.51 128.33 A 21.58 10.79 -180.00 0 1 149.58 129.20 L 149.58 116.74 A 21.58 10.79 -180.00 0 0 128.87 105.96 A 21.58 10.79 -180.00 0 0 106.49 115.87 A 21.58 10.79 -180.00 0 0 106.42 116.74 Z" fill="url(#g12)" fill-rule="evenodd" opacity="0.55"/>
<path d="M 143.26 109.11 L 147.34 112.16 L 147.34 49.85 A 18.81 9.40 180.00 0 0 137.16 44.77 L 137.16 107.07 L 143.26 109.11 Z" fill="url(#g13)" fill-rule="evenodd" opacity="0.55"/>
<path d="M 128.00 110.38 A 17.87 8.94 -180.00 0 0 137.16 107.07 L 137.16 44.77 A 17.87 8.94 180.00 0 1 128.00 48.08 A 17.87 8.94 0.00 0 1 118.84 44.77 L 118.84 107.07 A 17.87 8.94 -0.00 0 0 128.00 110.38 Z" fill="url(#g14)" fill-rule="evenodd" opacity="0.55"/>
<path d="M 108.66 49.85 L 108.66 112.16 L 112.74 109.11 L 118.84 107.07 L 118.84 44.77 A 18.81 9.40 180.00 0 0 108.66 49.85 Z" fill="url(#g15)" fill-rule="evenodd" opacity="0.55"/>
<path d="M 106.42 129.20 A 21.58 10.79 -180.00 0 0 127.13 139.99 A 21.58 10.79 -180.00 0 0 149.51 130.07 A 21.58 10.79 -180.00 0 0 149.58 129.20 L 149.58 116.74 A 21.58 10.79 -180.00 0 1 128.87 127.52 A 21.58 10.79 -180.00 0 1 106.49 117.61 A 21.58 10.79 -180.00 0 1 106.42 116.74 L 106.42 129.20 Z" fill="url(#g16)" fill-rule="evenodd" opacity="0.55"/>
<path d="M 147.34 59.02 L 147.34 49.85 A 17.87 8.94 -180.00 0 0 140.72 54.43 L 140.72 116.74 A 17.87 8.94 180.00 0 0 147.34 121.32 L 147.34 112.16 L 147.34 59.02 Z" fill="url(#g17)" fill-rule="evenodd" opacity="0.55"/>
<path d="M 197.59 135.10 L 197.59 122.64 L 194.47 130.51 L 194.47 142.98 L 197.59 135.10 Z" fill="#003373" fill-rule="evenodd" opacity="0.55"/>
<path d="M 108.66 49.85 L 108.66 59.02 L 108.66 112.16 L 108.66 121.32 A 17.87 8.94 -180.00 0 0 115.28 116.74 L 115.28 54.43 A 17.87 8.94 180.00 0 0 108.66 49.85 Z" fill="url(#g19)" fill-rule="evenodd" opacity="0.55"/>
<path d="M 58.41 135.10 L 61.53 142.98 L 61.53 130.51 L 58.41 122.64 L 58.41 135.10 Z" fill="#0048a2" fill-rule="evenodd" opacity="0.55"/>
<path d="M 99.22 66.89 L 99.22 129.20 A 28.78 14.39 180.00 0 0 126.84 143.58 A 28.78 14.39 180.00 0 0 156.69 130.36 A 28.78 14.39 180.00 0 0 156.78 129.20 L 156.78 66.89 A 28.78 14.39 180.00 0 1 129.16 81.27 A 28.78 14.39 180.00 0 1 99.31 68.05 A 28.78 14.39 180.00 0 1 99.22 66.89 Z" fill="url(#g21)" fill-rule="evenodd" opacity="0.55"/>
<path d="M 185.56 116.74 L 185.56 66.89 A 57.56 28.78 180.00 0 1 130.32 95.65 A 57.56 28.78 180.00 0 1 70.63 69.21 A 57.56 28.78 180.00 0 1 70.44 66.89 L 70.44 116.74 A 57.56 28.78 -180.00 0 0 125.68 145.50 A 57.56 28.78 -180.00 0 0 185.37 119.06 A 57.56 28.78 -180.00 0 0 185.56 116.74 Z" fill="url(#g22)" fill-rule="evenodd" opacity="0.55"/>
<path d="M 172.55 85.12 A 57.56 28.78 180.00 0 0 167.67 46.05 A 57.56 28.78 180.00 0 0 89.38 45.56 A 57.56 28.78 180.00 0 0 82.56 84.56 A 57.56 28.78 180.00 0 0 159.83 90.87 A 57.56 28.78 180.00 0 0 172.55 85.12 Z M 146.22 78.03 A 28.78 14.39 180.00 0 1 107.15 76.81 A 28.78 14.39 180.00 0 1 106.66 57.24 A 28.78 14.39 180.00 0 1 145.66 55.53 A 28.78 14.39 180.00 0 1 151.98 74.85 A 28.78 14.39 180.00 0 1 146.22 78.03 Z" fill="#006ef8" fill-rule="evenodd" opacity="0.55"/>
<path d="M 149.58 29.00 L 149.58 16.54 A 21.58 10.79 -180.00 0 1 128.87 27.32 A 21.58 10.79 -180.00 0 1 106.49 17.40 A 21.58 10.79 -180.00 0 1 106.42 16.54 L 106.42 29.00 A 21.58 10.79 -180.00 0 0 127.13 39.78 A 21.58 10.79 -180.00 0 0 149.51 29.87 A 21.58 10.79 -180.00 0 0 149.58 29.00 Z" fill="url(#g24)" fill-rule="evenodd" opacity="0.55"/>
<path d="M 143.26 8.90 L 128.00 16.54 L 112.74 8.90 A 21.58 10.79 -180.00 0 0 112.74 24.17 A 21.58 10.79 -180.00 0 0 143.26 24.17 A 21.58 10.79 -180.00 0 0 143.26 8.90 Z" fill="#006ef8" fill-rule="evenodd" opacity="0.55"/>
<path d="M 155.55 162.44 L 155.55 149.97 L 139.80 151.54 L 139.80 164.00 L 155.55 162.44 Z" fill="#003373" fill-rule="evenodd" opacity="0.55"/>
<path d="M 100.45 162.44 L 116.20 164.00 L 116.20 151.54 L 100.45 149.97 L 100.45 162.44 Z" fill="#0048a2" fill-rule="evenodd" opacity="0.55"/>
<path d="M 199.95 116.74 L 199.95 54.43 A 71.95 35.97 -180.00 0 1 130.90 90.38 A 71.95 35.97 -180.00 0 1 56.29 57.33 A 71.95 35.97 -180.00 0 1 56.05 54.43 L 56.05 116.74 A 71.95 35.97 -180.00 0 0 125.10 152.69 A 71.95 35.97 -180.00 0 0 199.71 119.64 A 71.95 35.97 -180.00 0 0 199.95 116.74 Z" fill="url(#g28)" fill-rule="evenodd" opacity="0.55"/>
<path d="M 100.47 162.44 L 100.47 149.98 A 71.95 35.97 -180.00 0 1 61.53 130.51 L 61.53 142.97 A 71.95 35.97 180.00 0 0 100.47 162.44 Z" fill="url(#g29)" fill-rule="evenodd" opacity="0.55"/>
<path d="M 194.47 142.97 L 194.47 130.51 A 71.95 35.97 -180.00 0 1 155.53 149.98 L 155.53 162.44 A 71.95 35.97 180.00 0 0 194.47 142.97 Z" fill="url(#g30)" fill-rule="evenodd" opacity="0.55"/>
<path d="M 199.94 41.97 L 198.09 46.65 L 198.09 59.11 L 199.94 54.43 L 199.94 41.97 Z" fill="#003373" fill-rule="evenodd" opacity="0.55"/>
<path d="M 56.05 41.97 L 56.05 54.43 L 57.91 59.11 L 57.91 46.65 L 56.05 41.97 Z" fill="#0048a2" fill-rule="evenodd" opacity="0.55"/>
<path d="M 198.09 46.65 L 194.14 49.60 L 194.14 62.06 L 198.09 59.11 L 198.09 46.65 Z" fill="#003373" fill-rule="evenodd" opacity="0.55"/>
<path d="M 194.14 34.34 A 21.58 10.79 180.00 0 0 164.56 33.90 A 21.58 10.79 180.00 0 0 157.29 41.97 L 157.29 54.43 A 21.58 10.79 180.00 0 1 178.87 43.64 A 21.58 10.79 180.00 0 1 194.14 46.80 L 194.14 34.34 Z" fill="url(#g34)" fill-rule="evenodd" opacity="0.55"/>
<path d="M 57.91 46.65 L 57.91 59.11 L 61.86 62.06 L 61.86 49.60 L 57.91 46.65 Z" fill="#0048a2" fill-rule="evenodd" opacity="0.55"/>
<path d="M 98.71 41.97 A 21.58 10.79 -180.00 0 0 78.43 31.20 A 21.58 10.79 -180.00 0 0 61.86 34.34 L 61.86 46.80 A 21.58 10.79 180.00 0 1 91.44 46.36 A 21.58 10.79 180.00 0 1 98.71 54.43 L 98.71 41.97 Z" fill="url(#g36)" fill-rule="evenodd" opacity="0.55"/>
<path d="M 194.14 62.06 L 194.14 49.60 A 21.58 10.79 180.00 0 1 163.61 49.60 A 21.58 10.79 180.00 0 1 157.29 41.97 L 157.29 54.43 A 21.58 10.79 180.00 0 0 178.87 65.23 A 21.58 10.79 180.00 0 0 194.14 62.06 Z" fill="url(#g37)" fill-rule="evenodd" opacity="0.55"/>
<path d="M 194.14 49.60 L 178.87 41.97 L 194.14 34.34 A 21.58 10.79 180.00 0 0 164.79 33.79 A 21.58 10.79 180.00 0 0 161.51 48.38 A 21.58 10.79 180.00 0 0 191.69 50.66 A 21.58 10.79 180.00 0 0 194.14 49.60 Z" fill="#006ef8" fill-rule="evenodd" opacity="0.55"/>
<path d="M 98.71 54.43 L 98.71 41.97 A 21.58 10.79 -180.00 0 1 77.13 52.77 A 21.58 10.79 -180.00 0 1 61.86 49.60 L 61.86 62.06 A 21.58 10.79 180.00 0 0 91.44 62.51 A 21.58 10.79 180.00 0 0 98.71 54.43 Z" fill="url(#g39)" fill-rule="evenodd" opacity="0.55"/>
<path d="M 61.86 34.34 L 77.13 41.97 L 61.86 49.60 A 21.58 10.79 -180.00 0 0 92.39 49.60 A 21.58 10.79 -180.00 0 0 92.39 34.34 A 21.58 10.79 -180.00 0 0 63.05 33.79 A 21.58 10.79 -180.00 0 0 61.86 34.34 Z" fill="#006ef8" fill-rule="evenodd" opacity="0.55"/>
<path d="M 149.58 67.41 A 21.58 10.79 180.00 0 0 128.87 56.63 A 21.58 10.79 180.00 0 0 106.49 66.54 A 21.58 10.79 180.00 0 0 106.42 67.41 L 106.42 79.87 A 21.58 10.79 -180.00 0 1 127.13 69.09 A 21.58 10.79 -180.00 0 1 149.51 79.00 A 21.58 10.79 -180.00 0 1 149.58 79.87 L 149.58 67.41 Z" fill="url(#g41)" fill-rule="evenodd" opacity="0.55"/>
<path d="M 112.74 87.50 L 112.74 75.04 A 21.58 10.79 180.00 0 1 106.42 67.41 L 106.42 79.87 A 21.58 10.79 -180.00 0 0 112.74 87.50 Z" fill="url(#g42)" fill-rule="evenodd" opacity="0.55"/>
<path d="M 149.58 79.87 L 149.58 67.41 A 21.58 10.79 180.00 0 1 143.26 75.04 L 143.26 87.50 A 21.58 10.79 -180.00 0 0 149.58 79.87 Z" fill="url(#g43)" fill-rule="evenodd" opacity="0.55"/>
<path d="M 112.74 75.04 L 128.00 67.41 L 143.26 75.04 A 21.58 10.79 180.00 0 0 143.26 59.78 A 21.58 10.79 180.00 0 0 112.74 59.78 A 21.58 10.79 180.00 0 0 112.74 75.04 Z" fill="#006ef8" fill-rule="evenodd" opacity="0.55"/>
<path d="M 137.35 77.02 L 137.35 89.48 L 143.26 87.50 L 143.26 75.04 L 137.35 77.02 Z" fill="#003373" fill-rule="evenodd" opacity="0.55"/>
<path d="M 112.74 75.04 L 112.74 87.50 L 118.65 89.48 L 118.65 77.02 L 112.74 75.04 Z" fill="#0048a2" fill-rule="evenodd" opacity="0.55"/>
<path d="M 118.65 89.48 L 128.00 90.41 L 137.35 89.48 L 137.35 77.02 L 128.00 77.94 L 118.65 77.02 L 118.65 89.48 Z" fill="url(#g47)" fill-rule="evenodd" opacity="0.55"/>
</g>
<defs><clipPath id="sclip"><path d="M 55.05 54.38 L 55.05 54.39 L 55.05 116.78 L 55.07 117.01 L 55.07 117.60 L 55.22 119.28 L 55.28 119.61 L 55.30 119.79 L 55.37 120.08 L 55.52 120.95 L 57.23 127.32 L 57.41 127.29 L 57.41 135.29 L 60.60 143.33 L 60.66 143.49 L 61.35 144.29 L 61.96 144.97 L 62.60 145.65 L 63.26 146.31 L 63.44 146.48 L 63.48 146.53 L 63.56 146.59 L 63.95 146.97 L 64.67 147.62 L 65.41 148.26 L 66.18 148.90 L 66.65 149.27 L 66.70 149.32 L 66.76 149.36 L 66.97 149.53 L 67.79 150.14 L 68.63 150.75 L 69.49 151.35 L 70.33 151.91 L 70.36 151.93 L 71.28 152.52 L 72.22 153.09 L 73.17 153.65 L 74.15 154.20 L 74.41 154.34 L 74.48 154.38 L 74.56 154.43 L 75.14 154.74 L 76.16 155.27 L 77.20 155.79 L 78.26 156.30 L 78.89 156.59 L 78.98 156.63 L 79.05 156.67 L 79.34 156.80 L 80.44 157.28 L 81.56 157.76 L 82.69 158.22 L 83.84 158.68 L 85.02 159.12 L 86.20 159.54 L 87.41 159.96 L 88.63 160.36 L 88.96 160.47 L 89.04 160.50 L 89.14 160.52 L 89.87 160.75 L 91.12 161.13 L 92.38 161.50 L 93.67 161.85 L 94.45 162.06 L 94.53 162.08 L 94.60 162.09 L 94.96 162.19 L 96.27 162.52 L 97.59 162.83 L 98.92 163.13 L 99.45 163.24 L 99.45 163.37 L 100.39 163.44 L 117.20 165.10 L 117.20 153.30 L 118.98 153.43 L 119.27 153.45 L 119.36 153.46 L 119.49 153.46 L 122.89 153.62 L 124.50 153.66 L 125.08 153.69 L 125.49 153.69 L 126.29 153.70 L 129.71 153.70 L 130.51 153.69 L 130.92 153.69 L 131.50 153.66 L 133.11 153.62 L 136.51 153.46 L 136.64 153.46 L 136.73 153.45 L 137.02 153.43 L 138.80 153.30 L 138.80 165.10 L 155.61 163.44 L 155.69 163.43 L 157.08 163.13 L 158.41 162.83 L 159.73 162.52 L 161.04 162.19 L 161.40 162.09 L 161.47 162.08 L 161.55 162.06 L 162.33 161.85 L 163.62 161.50 L 164.88 161.13 L 166.13 160.75 L 166.86 160.52 L 166.96 160.50 L 167.04 160.47 L 167.37 160.36 L 168.59 159.96 L 169.80 159.54 L 170.99 159.12 L 172.16 158.68 L 173.31 158.22 L 174.44 157.76 L 175.56 157.28 L 176.66 156.80 L 176.95 156.67 L 177.02 156.63 L 177.10 156.59 L 177.74 156.30 L 178.80 155.79 L 179.84 155.27 L 180.86 154.74 L 181.44 154.43 L 181.52 154.38 L 181.59 154.34 L 181.85 154.20 L 182.83 153.65 L 183.78 153.09 L 184.72 152.52 L 185.37 152.10 L 185.38 152.10 L 186.51 151.35 L 187.37 150.75 L 188.21 150.14 L 189.03 149.53 L 189.24 149.36 L 189.30 149.32 L 189.35 149.27 L 189.82 148.90 L 190.59 148.26 L 191.33 147.62 L 192.05 146.97 L 192.44 146.59 L 192.52 146.53 L 192.56 146.48 L 192.74 146.31 L 193.40 145.65 L 193.47 145.58 L 193.47 147.88 L 193.59 147.90 L 198.59 135.29 L 198.59 127.33 L 198.75 127.36 L 200.47 120.99 L 200.63 120.09 L 200.70 119.80 L 200.72 119.61 L 200.77 119.32 L 200.93 117.64 L 200.93 117.01 L 200.95 116.78 L 200.95 54.39 L 200.94 54.38 L 200.94 41.78 L 198.91 36.67 L 194.65 33.48 L 193.59 32.98 L 193.45 32.92 L 193.35 32.88 L 193.25 32.84 L 193.16 32.79 L 192.97 32.72 L 192.55 32.55 L 192.21 32.42 L 192.03 32.35 L 191.83 32.28 L 191.64 32.21 L 191.56 32.18 L 191.46 32.15 L 190.93 31.97 L 190.66 31.88 L 190.52 31.84 L 190.33 31.78 L 190.15 31.73 L 190.03 31.69 L 189.78 31.62 L 189.44 31.53 L 189.22 31.46 L 189.17 31.45 L 189.15 31.45 L 188.62 31.32 L 188.35 31.25 L 188.18 31.21 L 187.95 31.16 L 187.84 31.13 L 187.72 31.10 L 187.35 31.03 L 186.71 30.90 L 186.65 30.89 L 186.60 30.88 L 186.40 30.85 L 186.40 30.84 L 186.18 30.80 L 185.88 30.75 L 185.45 30.68 L 185.00 30.62 L 184.79 30.59 L 184.72 30.58 L 184.59 30.56 L 184.40 30.54 L 184.16 30.50 L 183.53 30.43 L 183.52 30.43 L 182.34 29.71 L 181.29 29.16 L 180.42 28.66 L 179.72 28.33 L 179.32 28.10 L 178.92 27.93 L 178.27 27.59 L 176.97 27.01 L 175.89 26.49 L 174.91 26.10 L 173.88 25.64 L 172.68 25.19 L 172.16 24.96 L 171.74 24.82 L 171.01 24.53 L 170.12 24.23 L 169.20 23.88 L 167.35 23.30 L 165.82 22.79 L 165.05 22.57 L 164.25 22.32 L 162.04 21.74 L 160.35 21.27 L 159.75 21.14 L 159.07 20.96 L 156.68 20.45 L 155.74 20.22 L 155.27 20.14 L 154.65 20.00 L 154.19 19.92 L 153.70 19.82 L 150.64 19.30 L 150.58 19.30 L 150.58 16.52 L 150.58 16.28 L 150.57 16.13 L 150.57 16.06 L 150.56 16.01 L 150.54 15.77 L 150.50 15.51 L 150.50 15.49 L 150.49 15.43 L 150.47 15.35 L 150.45 15.25 L 150.44 15.17 L 150.43 15.11 L 150.41 15.06 L 150.40 15.00 L 150.33 14.75 L 150.25 14.50 L 150.22 14.39 L 150.20 14.31 L 150.18 14.27 L 150.17 14.25 L 150.16 14.22 L 150.15 14.19 L 150.13 14.14 L 150.07 14.00 L 149.97 13.75 L 149.85 13.51 L 149.73 13.27 L 149.60 13.03 L 149.46 12.80 L 149.30 12.56 L 149.22 12.44 L 149.19 12.39 L 149.16 12.36 L 149.15 12.33 L 149.12 12.30 L 149.10 12.27 L 149.06 12.22 L 148.98 12.10 L 148.80 11.88 L 148.62 11.66 L 148.57 11.60 L 148.54 11.57 L 148.50 11.53 L 148.43 11.44 L 148.33 11.34 L 148.31 11.31 L 148.27 11.27 L 148.22 11.22 L 148.02 11.01 L 147.81 10.80 L 147.78 10.78 L 147.76 10.76 L 147.74 10.74 L 147.58 10.59 L 147.35 10.38 L 147.11 10.18 L 146.94 10.05 L 146.90 10.01 L 146.87 9.99 L 146.61 9.79 L 146.35 9.60 L 146.26 9.53 L 146.25 9.53 L 146.08 9.41 L 145.96 9.32 L 145.93 9.30 L 145.89 9.28 L 145.81 9.22 L 145.53 9.04 L 145.24 8.86 L 145.08 8.76 L 145.05 8.74 L 145.02 8.72 L 144.95 8.68 L 144.90 8.66 L 144.87 8.63 L 144.81 8.60 L 144.65 8.51 L 144.34 8.34 L 144.03 8.17 L 143.65 7.98 L 137.56 5.94 L 128.00 5.00 L 118.44 5.94 L 112.35 7.98 L 111.97 8.17 L 111.66 8.34 L 111.35 8.51 L 111.19 8.60 L 111.14 8.63 L 111.10 8.66 L 111.05 8.68 L 110.98 8.72 L 110.95 8.74 L 110.92 8.76 L 110.76 8.86 L 110.47 9.04 L 110.19 9.22 L 110.11 9.28 L 110.08 9.30 L 110.04 9.32 L 109.92 9.41 L 109.75 9.53 L 109.65 9.60 L 109.39 9.79 L 109.13 9.99 L 109.11 10.01 L 109.06 10.05 L 108.89 10.18 L 108.65 10.38 L 108.42 10.59 L 108.26 10.74 L 108.23 10.76 L 108.22 10.78 L 108.19 10.80 L 107.98 11.01 L 107.78 11.22 L 107.73 11.27 L 107.69 11.31 L 107.67 11.34 L 107.58 11.44 L 107.50 11.53 L 107.45 11.57 L 107.43 11.60 L 107.38 11.66 L 107.20 11.88 L 107.02 12.10 L 106.94 12.22 L 106.90 12.27 L 106.88 12.30 L 106.85 12.33 L 106.84 12.36 L 106.81 12.39 L 106.78 12.44 L 106.70 12.56 L 106.54 12.80 L 106.40 13.03 L 106.27 13.27 L 106.15 13.51 L 106.03 13.75 L 105.93 14.00 L 105.87 14.14 L 105.85 14.19 L 105.84 14.22 L 105.83 14.25 L 105.82 14.27 L 105.80 14.31 L 105.78 14.39 L 105.75 14.50 L 105.67 14.75 L 105.60 15.00 L 105.59 15.06 L 105.57 15.11 L 105.56 15.17 L 105.55 15.25 L 105.53 15.35 L 105.51 15.43 L 105.50 15.49 L 105.50 15.51 L 105.46 15.77 L 105.44 16.01 L 105.43 16.06 L 105.43 16.13 L 105.42 16.28 L 105.42 16.52 L 105.42 19.27 L 104.18 19.50 L 102.30 19.82 L 101.06 20.08 L 100.89 20.11 L 100.26 20.22 L 100.10 20.26 L 99.91 20.30 L 98.54 20.62 L 96.93 20.96 L 95.53 21.33 L 94.26 21.63 L 93.08 21.97 L 91.75 22.32 L 90.22 22.80 L 88.86 23.20 L 87.90 23.54 L 86.80 23.88 L 85.16 24.50 L 83.92 24.94 L 83.88 24.95 L 83.74 25.00 L 83.00 25.31 L 82.12 25.64 L 80.36 26.42 L 78.94 27.02 L 78.39 27.29 L 77.73 27.59 L 77.08 27.93 L 76.68 28.10 L 76.01 28.48 L 75.91 28.54 L 74.50 29.24 L 74.10 29.48 L 73.66 29.71 L 72.47 30.43 L 71.84 30.50 L 71.60 30.54 L 71.41 30.56 L 71.28 30.58 L 71.20 30.59 L 71.00 30.62 L 70.55 30.68 L 70.12 30.75 L 69.82 30.80 L 69.60 30.84 L 69.60 30.85 L 69.40 30.88 L 69.35 30.89 L 69.29 30.90 L 68.65 31.03 L 68.28 31.10 L 68.16 31.13 L 68.05 31.16 L 67.82 31.21 L 67.65 31.25 L 67.39 31.32 L 66.85 31.45 L 66.83 31.45 L 66.78 31.46 L 66.56 31.53 L 66.22 31.62 L 65.97 31.69 L 65.85 31.73 L 65.67 31.78 L 65.48 31.84 L 65.34 31.88 L 65.07 31.97 L 64.54 32.15 L 64.44 32.18 L 64.36 32.21 L 64.17 32.28 L 63.97 32.35 L 63.79 32.42 L 63.45 32.55 L 63.03 32.72 L 62.84 32.79 L 62.75 32.84 L 62.65 32.88 L 62.55 32.92 L 62.41 32.98 L 61.35 33.48 L 57.09 36.67 L 55.05 41.78 Z" clip-rule="evenodd"/></clipPath></defs>
<g stroke="black" fill="none" stroke-linecap="round" clip-path="url(#sclip)">
<path d="M 57.03 122.70 L 57.06 122.70 A 71.95 35.97 -180.00 0 0 58.41 125.80 L 58.41 135.10 L 61.53 142.97 L 61.53 142.98 L 61.53 142.97 A 71.95 35.97 180.00 0 0 100.47 162.44 L 116.20 164.00 L 116.20 152.23 A 71.95 35.97 -180.00 0 0 139.80 152.23 L 139.80 164.00 L 155.53 162.44 A 71.95 35.97 180.00 0 0 194.47 142.97 L 194.47 142.98 L 194.47 142.97 L 197.59 135.10 L 197.59 125.80 A 71.95 35.97 -180.00 0 0 198.92 122.74 L 198.96 122.74 A 71.95 35.97 -180.00 0 0 199.95 116.74 L 199.95 54.43 L 199.94 54.42 L 199.94 41.97 L 198.09 37.30 L 194.14 34.34 A 21.58 10.79 180.00 0 0 183.22 31.41 A 71.95 35.97 -180.00 0 0 149.58 20.14 L 149.58 16.54 A 21.58 10.79 -180.00 0 0 143.26 8.91 L 137.35 6.93 L 128.00 6.00 L 118.65 6.93 L 112.74 8.91 A 21.58 10.79 -180.00 0 0 106.42 16.54 L 106.42 20.13 A 71.95 35.97 -180.00 0 0 72.80 31.40 A 21.58 10.79 -180.00 0 0 61.86 34.34 L 57.91 37.30 L 56.05 41.97 L 56.05 54.42 L 56.05 54.43 L 56.05 116.74 A 71.95 35.97 -180.00 0 0 57.03 122.70 Z" stroke-width="2.00" stroke-linejoin="miter" stroke-miterlimit="5"/>
<line x1="149.58" y1="16.54" x2="149.58" y2="29.00" stroke-width="2.00"/>
<line x1="149.58" y1="67.41" x2="149.58" y2="79.87" stroke-width="2.00"/>
<line x1="149.58" y1="116.74" x2="149.58" y2="129.20" stroke-width="2.00"/>
<line x1="106.42" y1="16.54" x2="106.42" y2="29.00" stroke-width="2.00"/>
<line x1="106.42" y1="67.41" x2="106.42" y2="79.87" stroke-width="2.00"/>
<line x1="106.42" y1="116.74" x2="106.42" y2="129.20" stroke-width="2.00"/>
<line x1="156.78" y1="66.90" x2="156.78" y2="129.20" stroke-width="2.00"/>
<line x1="99.22" y1="66.90" x2="99.22" y2="129.20" stroke-width="2.00"/>
<line x1="185.56" y1="66.90" x2="185.56" y2="116.74" stroke-width="2.00"/>
<line x1="70.44" y1="66.90" x2="70.44" y2="116.74" stroke-width="2.00"/>
<line x1="157.29" y1="41.97" x2="157.29" y2="54.43" stroke-width="2.00"/>
<line x1="98.71" y1="41.97" x2="98.71" y2="54.43" stroke-width="2.00"/>
<line x1="199.95" y1="54.43" x2="199.95" y2="116.74" stroke-width="2.00"/>
<line x1="56.05" y1="54.43" x2="56.05" y2="116.74" stroke-width="2.00"/>
<line x1="147.34" y1="49.85" x2="147.34" y2="121.32" stroke-width="2.00"/>
<line x1="137.16" y1="44.77" x2="137.16" y2="126.41" stroke-width="2.00"/>
<line x1="118.84" y1="44.77" x2="118.84" y2="126.41" stroke-width="2.00"/>
<line x1="108.66" y1="49.85" x2="108.66" y2="121.32" stroke-width="2.00"/>
<line x1="197.59" y1="110.84" x2="197.59" y2="135.10" stroke-width="2.00"/>
<line x1="139.80" y1="164.00" x2="197.59" y2="135.10" stroke-width="2.00"/>
<line x1="139.80" y1="81.94" x2="139.80" y2="94.41" stroke-width="2.00"/>
<line x1="139.80" y1="151.54" x2="139.80" y2="164.00" stroke-width="2.00"/>
<line x1="139.80" y1="151.54" x2="197.59" y2="122.64" stroke-width="2.00"/>
<line x1="116.20" y1="81.94" x2="116.20" y2="94.41" stroke-width="2.00"/>
<line x1="116.20" y1="151.54" x2="116.20" y2="164.00" stroke-width="2.00"/>
<line x1="58.41" y1="135.10" x2="116.20" y2="164.00" stroke-width="2.00"/>
<line x1="58.41" y1="110.84" x2="58.41" y2="135.10" stroke-width="2.00"/>
<line x1="58.41" y1="122.64" x2="116.20" y2="151.54" stroke-width="2.00"/>
<line x1="58.41" y1="123.30" x2="116.20" y2="94.41" stroke-width="2.00"/>
<line x1="58.41" y1="110.84" x2="116.20" y2="81.94" stroke-width="2.00"/>
<line x1="139.80" y1="94.41" x2="197.59" y2="123.30" stroke-width="2.00"/>
<line x1="139.80" y1="81.94" x2="197.59" y2="110.84" stroke-width="2.00"/>
<line x1="194.47" y1="142.98" x2="197.59" y2="135.10" stroke-width="2.00"/>
<line x1="194.47" y1="115.43" x2="197.59" y2="123.30" stroke-width="2.00"/>
<line x1="100.45" y1="95.97" x2="116.20" y2="94.41" stroke-width="2.00"/>
<line x1="139.80" y1="94.41" x2="155.55" y2="95.97" stroke-width="2.00"/>
<line x1="139.80" y1="164.00" x2="155.55" y2="162.44" stroke-width="2.00"/>
<line x1="100.45" y1="162.44" x2="116.20" y2="164.00" stroke-width="2.00"/>
<line x1="58.41" y1="123.30" x2="61.53" y2="115.43" stroke-width="2.00"/>
<line x1="58.41" y1="135.10" x2="61.53" y2="142.98" stroke-width="2.00"/>
<line x1="197.59" y1="122.64" x2="199.94" y2="116.74" stroke-width="2.00"/>
<line x1="197.59" y1="110.84" x2="199.94" y2="116.74" stroke-width="2.00"/>
<line x1="116.20" y1="81.94" x2="128.00" y2="80.77" stroke-width="2.00"/>
<line x1="128.00" y1="80.77" x2="139.80" y2="81.94" stroke-width="2.00"/>
<line x1="128.00" y1="152.71" x2="139.80" y2="151.54" stroke-width="2.00"/>
<line x1="116.20" y1="151.54" x2="128.00" y2="152.71" stroke-width="2.00"/>
<line x1="56.06" y1="116.74" x2="58.41" y2="110.84" stroke-width="2.00"/>
<line x1="56.06" y1="116.74" x2="58.41" y2="122.64" stroke-width="2.00"/>
<line x1="194.14" y1="62.07" x2="198.09" y2="59.11" stroke-width="2.00"/>
<line x1="194.14" y1="46.80" x2="198.09" y2="49.76" stroke-width="2.00"/>
<line x1="198.09" y1="46.65" x2="198.09" y2="59.11" stroke-width="2.00"/>
<line x1="194.14" y1="49.60" x2="198.09" y2="46.65" stroke-width="2.00"/>
<line x1="198.09" y1="46.65" x2="199.95" y2="41.97" stroke-width="2.00"/>
<line x1="198.09" y1="37.30" x2="199.95" y2="41.97" stroke-width="2.00"/>
<line x1="194.14" y1="34.34" x2="198.09" y2="37.30" stroke-width="2.00"/>
<line x1="198.09" y1="49.76" x2="198.09" y2="37.30" stroke-width="2.00"/>
<line x1="137.35" y1="19.39" x2="143.26" y2="21.37" stroke-width="2.00"/>
<line x1="112.74" y1="21.37" x2="118.65" y2="19.39" stroke-width="2.00"/>
<line x1="137.35" y1="6.93" x2="137.35" y2="19.39" stroke-width="2.00"/>
<line x1="137.35" y1="6.93" x2="143.26" y2="8.90" stroke-width="2.00"/>
<line x1="128.00" y1="6.00" x2="137.35" y2="6.93" stroke-width="2.00"/>
<line x1="118.65" y1="6.93" x2="128.00" y2="6.00" stroke-width="2.00"/>
<line x1="112.74" y1="8.90" x2="118.65" y2="6.93" stroke-width="2.00"/>
<line x1="118.65" y1="19.39" x2="118.65" y2="6.93" stroke-width="2.00"/>
<line x1="112.74" y1="87.50" x2="118.65" y2="89.48" stroke-width="2.00"/>
<line x1="137.35" y1="89.48" x2="143.26" y2="87.50" stroke-width="2.00"/>
<line x1="118.65" y1="77.02" x2="118.65" y2="89.48" stroke-width="2.00"/>
<line x1="112.74" y1="75.04" x2="118.65" y2="77.02" stroke-width="2.00"/>
<line x1="118.65" y1="77.02" x2="128.00" y2="77.95" stroke-width="2.00"/>
<line x1="128.00" y1="77.95" x2="137.35" y2="77.02" stroke-width="2.00"/>
<line x1="137.35" y1="77.02" x2="143.26" y2="75.04" stroke-width="2.00"/>
<line x1="137.35" y1="77.02" x2="137.35" y2="89.48" stroke-width="2.00"/>
<line x1="57.91" y1="49.76" x2="61.86" y2="46.80" stroke-width="2.00"/>
<line x1="57.91" y1="59.11" x2="61.86" y2="62.07" stroke-width="2.00"/>
<line x1="57.91" y1="37.30" x2="57.91" y2="49.76" stroke-width="2.00"/>
<line x1="57.91" y1="37.30" x2="61.86" y2="34.34" stroke-width="2.00"/>
<line x1="56.05" y1="41.97" x2="57.91" y2="37.30" stroke-width="2.00"/>
<line x1="56.05" y1="41.97" x2="57.91" y2="46.65" stroke-width="2.00"/>
<line x1="57.91" y1="46.65" x2="61.86" y2="49.60" stroke-width="2.00"/>
<line x1="57.91" y1="46.65" x2="57.91" y2="59.11" stroke-width="2.00"/>
<line x1="140.72" y1="54.43" x2="140.72" y2="116.74" stroke-width="2.00"/>
<line x1="115.28" y1="54.43" x2="115.28" y2="116.74" stroke-width="2.00"/>
<line x1="199.95" y1="41.97" x2="199.95" y2="54.43" stroke-width="2.00"/>
<line x1="56.05" y1="41.97" x2="56.05" y2="54.43" stroke-width="2.00"/>
<path d="M 143.26 136.83 A 21.58 10.79 -180.00 0 0 143.26 121.57 A 21.58 10.79 -180.00 0 0 112.74 121.57 A 21.58 10.79 -180.00 0 0 112.74 136.83 A 21.58 10.79 -180.00 0 0 143.26 136.83" stroke-width="2.00"/>
<path d="M 148.35 139.38 A 28.78 14.39 180.00 0 0 148.35 119.03 A 28.78 14.39 180.00 0 0 107.65 119.03 A 28.78 14.39 180.00 0 0 107.65 139.38 A 28.78 14.39 180.00 0 0 148.35 139.38" stroke-width="2.00"/>
<path d="M 137.16 126.41 A 5.82 2.91 -0.00 0 1 131.64 128.23 A 5.82 2.91 -0.00 0 1 126.29 126.29 A 5.82 2.91 -0.00 0 1 128.00 123.10" stroke-width="2.00"/>
<path d="M 108.06 120.87 A 21.58 10.79 -180.00 0 1 108.06 112.61" stroke-width="2.00"/>
<path d="M 118.84 106.97 A 21.58 10.79 -180.00 0 1 137.16 106.97" stroke-width="2.00"/>
<path d="M 147.94 112.61 A 21.58 10.79 -180.00 0 1 147.94 120.87" stroke-width="2.00"/>
<path d="M 148.35 77.07 A 28.78 14.39 180.00 0 0 148.35 56.72 A 28.78 14.39 180.00 0 0 107.65 56.72 A 28.78 14.39 180.00 0 0 107.65 77.07 A 28.78 14.39 180.00 0 0 148.35 77.07" stroke-width="2.00"/>
<path d="M 178.87 79.87 A 71.95 35.97 -180.00 0 0 178.87 29.00 A 71.95 35.97 -180.00 0 0 77.13 29.00 A 71.95 35.97 -180.00 0 0 77.13 79.87 A 71.95 35.97 -180.00 0 0 178.87 79.87" stroke-width="2.00"/>
<path d="M 194.47 142.97 A 71.95 35.97 180.00 0 1 155.53 162.44" stroke-width="2.00"/>
<path d="M 100.47 162.44 A 71.95 35.97 180.00 0 1 61.53 142.97" stroke-width="2.00"/>
<path d="M 61.53 115.44 A 71.95 35.97 180.00 0 1 100.47 95.97" stroke-width="2.00"/>
<path d="M 155.53 95.97 A 71.95 35.97 180.00 0 1 194.47 115.44" stroke-width="2.00"/>
<path d="M 168.70 87.24 A 57.56 28.78 180.00 0 0 168.70 46.55 A 57.56 28.78 180.00 0 0 87.30 46.55 A 57.56 28.78 180.00 0 0 87.30 87.24 A 57.56 28.78 180.00 0 0 168.70 87.24" stroke-width="2.00"/>
<path d="M 168.70 137.09 A 57.56 28.78 -180.00 0 0 168.70 96.39 A 57.56 28.78 -180.00 0 0 87.30 96.39 A 57.56 28.78 -180.00 0 0 87.30 137.09 A 57.56 28.78 -180.00 0 0 168.70 137.09" stroke-width="2.00"/>
<path d="M 194.14 49.60 A 21.58 10.79 180.00 0 1 163.61 49.60 A 21.58 10.79 180.00 0 1 163.61 34.34 A 21.58 10.79 180.00 0 1 194.14 34.34" stroke-width="2.00"/>
<path d="M 194.14 62.07 A 21.58 10.79 180.00 0 1 163.61 62.07 A 21.58 10.79 180.00 0 1 163.61 46.80 A 21.58 10.79 180.00 0 1 194.14 46.80" stroke-width="2.00"/>
<path d="M 143.26 8.90 A 21.58 10.79 -180.00 0 1 143.26 24.17 A 21.58 10.79 -180.00 0 1 112.74 24.17 A 21.58 10.79 -180.00 0 1 112.74 8.90" stroke-width="2.00"/>
<path d="M 143.26 21.37 A 21.58 10.79 -180.00 0 1 143.26 36.63 A 21.58 10.79 -180.00 0 1 112.74 36.63 A 21.58 10.79 -180.00 0 1 112.74 21.37" stroke-width="2.00"/>
<path d="M 112.74 75.04 A 21.58 10.79 180.00 0 1 112.74 59.78 A 21.58 10.79 180.00 0 1 143.26 59.78 A 21.58 10.79 180.00 0 1 143.26 75.04" stroke-width="2.00"/>
<path d="M 112.74 87.50 A 21.58 10.79 -180.00 0 1 108.06 75.74 A 21.58 10.79 -180.00 0 1 128.00 69.08 A 21.58 10.79 -180.00 0 1 147.94 75.74 A 21.58 10.79 -180.00 0 1 143.26 87.50" stroke-width="2.00"/>
<path d="M 61.86 34.34 A 21.58 10.79 -180.00 0 1 92.39 34.34 A 21.58 10.79 -180.00 0 1 92.39 49.60 A 21.58 10.79 -180.00 0 1 61.86 49.60" stroke-width="2.00"/>
<path d="M 61.86 46.80 A 21.58 10.79 180.00 0 1 92.39 46.80 A 21.58 10.79 180.00 0 1 92.39 62.07 A 21.58 10.79 180.00 0 1 61.86 62.07" stroke-width="2.00"/>
<path d="M 139.80 152.23 A 71.95 35.97 -180.00 0 1 116.20 152.23" stroke-width="2.00"/>
<path d="M 56.92 122.31 A 71.95 35.97 -180.00 0 1 56.91 111.21" stroke-width="2.00"/>
<path d="M 115.28 81.33 A 71.95 35.97 -180.00 0 1 140.72 81.33" stroke-width="2.00"/>
<path d="M 199.10 111.25 A 71.95 35.97 -180.00 0 1 199.07 122.35" stroke-width="2.00"/>
<path d="M 108.66 49.85 A 18.81 9.40 180.00 0 1 118.84 44.77" stroke-width="2.00"/>
<path d="M 108.66 49.85 A 17.87 8.94 180.00 0 1 115.28 54.43" stroke-width="2.00"/>
<path d="M 128.00 48.07 A 17.87 8.94 0.00 0 1 118.84 44.77" stroke-width="2.00"/>
<path d="M 108.66 112.16 A 17.87 8.94 -180.00 0 1 115.28 116.74" stroke-width="2.00"/>
<path d="M 128.00 110.38 A 17.87 8.94 -0.00 0 1 118.84 107.07" stroke-width="2.00"/>
<path d="M 115.28 54.43 A 17.87 8.94 -180.00 0 1 108.66 59.02" stroke-width="2.00"/>
<path d="M 137.16 44.77 A 17.87 8.94 180.00 0 1 128.00 48.07" stroke-width="2.00"/>
<path d="M 115.28 116.74 A 17.87 8.94 -180.00 0 1 108.66 121.32" stroke-width="2.00"/>
<path d="M 137.16 107.07 A 17.87 8.94 -180.00 0 1 128.00 110.38" stroke-width="2.00"/>
<path d="M 118.84 64.10 A 18.81 9.40 -0.00 0 1 108.66 59.02" stroke-width="2.00"/>
<path d="M 137.16 44.77 A 18.81 9.40 180.00 0 1 147.34 49.85" stroke-width="2.00"/>
<path d="M 118.84 64.10 A 17.87 8.94 180.00 0 1 128.00 60.79" stroke-width="2.00"/>
<path d="M 140.72 54.43 A 17.87 8.94 -180.00 0 1 147.34 49.85" stroke-width="2.00"/>
<path d="M 118.84 126.41 A 17.87 8.94 -180.00 0 1 128.00 123.10" stroke-width="2.00"/>
<path d="M 140.72 116.74 A 17.87 8.94 -180.00 0 1 147.34 112.16" stroke-width="2.00"/>
<path d="M 128.00 60.79 A 17.87 8.94 0.00 0 1 137.16 64.10" stroke-width="2.00"/>
<path d="M 147.34 59.02 A 17.87 8.94 180.00 0 1 140.72 54.43" stroke-width="2.00"/>
<path d="M 128.00 123.10 A 17.87 8.94 -0.00 0 1 137.16 126.41" stroke-width="2.00"/>
<path d="M 147.34 121.32 A 17.87 8.94 180.00 0 1 140.72 116.74" stroke-width="2.00"/>
<path d="M 147.34 59.02 A 18.81 9.40 -180.00 0 1 137.16 64.10" stroke-width="2.00"/>
</g>
</svg>