<svg xmlns="http://www.w3.org/2000/svg" viewBox="0 0 256 170" preserveAspectRatio="xMidYMid meet">
<defs><linearGradient id="g0" gradientUnits="userSpaceOnUse" x1="100.47" y1="89.74" x2="61.53" y2="109.21"><stop offset="0.0%" stop-color="#00316e"/><stop offset="14.7%" stop-color="#002f69"/><stop offset="29.0%" stop-color="#002f69"/><stop offset="42.8%" stop-color="#002f69"/><stop offset="56.0%" stop-color="#002f69"/><stop offset="68.4%" stop-color="#002f69"/><stop offset="80.0%" stop-color="#002f69"/><stop offset="90.5%" stop-color="#002f69"/><stop offset="100.0%" stop-color="#002f69"/></linearGradient><linearGradient id="g2" gradientUnits="userSpaceOnUse" x1="194.47" y1="109.21" x2="155.53" y2="89.74"><stop offset="-0.0%" stop-color="#0057c3"/><stop offset="9.5%" stop-color="#0057c3"/><stop offset="20.0%" stop-color="#0056c2"/><stop offset="31.6%" stop-color="#0056c0"/><stop offset="44.0%" stop-color="#0055be"/><stop offset="57.2%" stop-color="#0053bb"/><stop offset="71.0%" stop-color="#0051b6"/><stop offset="85.3%" stop-color="#004fb1"/><stop offset="100.0%" stop-color="#004cac"/></linearGradient><linearGradient id="g4" gradientUnits="userSpaceOnUse" x1="199.94" y1="85.59" x2="56.06" y2="85.59"><stop offset="0.0%" stop-color="#0053ba"/><stop offset="3.8%" stop-color="#0057c3"/><stop offset="14.6%" stop-color="#0055be"/><stop offset="30.9%" stop-color="#004cac"/><stop offset="50.0%" stop-color="#004090"/><stop offset="69.1%" stop-color="#00316e"/><stop offset="85.4%" stop-color="#002f69"/><stop offset="96.2%" stop-color="#002f69"/><stop offset="100.0%" stop-color="#002f69"/></linearGradient><linearGradient id="g6" gradientUnits="userSpaceOnUse" x1="185.55" y1="91.82" x2="70.45" y2="91.82"><stop offset="0.0%" stop-color="#0053ba"/><stop offset="3.8%" stop-color="#0057c3"/><stop offset="14.6%" stop-color="#0055be"/><stop offset="30.9%" stop-color="#004cac"/><stop offset="50.0%" stop-color="#004090"/><stop offset="69.1%" stop-color="#00316e"/><stop offset="85.4%" stop-color="#002f69"/><stop offset="96.2%" stop-color="#002f69"/><stop offset="100.0%" stop-color="#002f69"/></linearGradient><linearGradient id="g7" gradientUnits="userSpaceOnUse" x1="149.58" y1="22.77" x2="106.42" y2="22.77"><stop offset="-0.0%" stop-color="#0053ba"/><stop offset="3.8%" stop-color="#0057c3"/><stop offset="14.6%" stop-color="#0055be"/><stop offset="30.9%" stop-color="#004cac"/><stop offset="50.0%" stop-color="#004090"/><stop offset="69.1%" stop-color="#00316e"/><stop offset="85.4%" stop-color="#002f69"/><stop offset="96.2%" stop-color="#002f69"/><stop offset="100.0%" stop-color="#002f69"/></linearGradient><linearGradient id="g9" gradientUnits="userSpaceOnUse" x1="99.22" y1="98.05" x2="156.78" y2="98.05"><stop offset="0.0%" stop-color="#002f69"/><stop offset="3.8%" stop-color="#002f69"/><stop offset="14.6%" stop-color="#002f69"/><stop offset="30.9%" stop-color="#00316e"/><stop offset="50.0%" stop-color="#004090"/><stop offset="69.1%" stop-color="#004cac"/><stop offset="85.4%" stop-color="#0055be"/><stop offset="96.2%" stop-color="#0057c3"/><stop offset="100.0%" stop-color="#0053ba"/></linearGradient><linearGradient id="g10" gradientUnits="userSpaceOnUse" x1="149.58" y1="122.97" x2="106.42" y2="122.97"><stop offset="0.0%" stop-color="#0053ba"/><stop offset="3.8%" stop-color="#0057c3"/><stop offset="14.6%" stop-color="#0055be"/><stop offset="30.9%" stop-color="#004cac"/><stop offset="50.0%" stop-color="#004090"/><stop offset="69.1%" stop-color="#00316e"/><stop offset="85.4%" stop-color="#002f69"/><stop offset="96.2%" stop-color="#002f69"/><stop offset="100.0%" stop-color="#002f69"/></linearGradient><linearGradient id="g11" gradientUnits="userSpaceOnUse" x1="150.20" y1="81.94" x2="137.01" y2="75.34"><stop offset="0.0%" stop-color="#0056c2"/><stop offset="51.4%" stop-color="#0051b6"/><stop offset="74.3%" stop-color="#0056c2"/><stop offset="100.0%" stop-color="#0051b6"/></linearGradient><linearGradient id="g12" gradientUnits="userSpaceOnUse" x1="135.80" y1="77.77" x2="120.20" y2="77.77"><stop offset="0.0%" stop-color="#002f69"/><stop offset="8.7%" stop-color="#002f69"/><stop offset="28.3%" stop-color="#002f69"/><stop offset="39.1%" stop-color="#002f69"/><stop offset="60.9%" stop-color="#004eb0"/><stop offset="71.7%" stop-color="#004eb0"/><stop offset="91.3%" stop-color="#0055be"/><stop offset="100.0%" stop-color="#0055be"/></linearGradient><linearGradient id="g13" gradientUnits="userSpaceOnUse" x1="120.89" y1="74.39" x2="105.80" y2="81.94"><stop offset="0.0%" stop-color="#002f69"/><stop offset="35.1%" stop-color="#002f69"/><stop offset="67.6%" stop-color="#002f69"/><stop offset="100.0%" stop-color="#002f69"/></linearGradient><linearGradient id="g14" gradientUnits="userSpaceOnUse" x1="106.42" y1="122.97" x2="149.58" y2="122.97"><stop offset="0.0%" stop-color="#0053ba"/><stop offset="3.8%" stop-color="#0057c3"/><stop offset="14.6%" stop-color="#0055be"/><stop offset="30.9%" stop-color="#004cac"/><stop offset="50.0%" stop-color="#004090"/><stop offset="69.1%" stop-color="#00316e"/><stop offset="85.4%" stop-color="#002f69"/><stop offset="96.2%" stop-color="#002f69"/><stop offset="100.0%" stop-color="#002f69"/></linearGradient><linearGradient id="g15" gradientUnits="userSpaceOnUse" x1="150.78" y1="92.95" x2="137.62" y2="83.84"><stop offset="0.0%" stop-color="#0055be"/><stop offset="33.5%" stop-color="#0057c3"/><stop offset="83.2%" stop-color="#0055be"/><stop offset="100.0%" stop-color="#0057c3"/></linearGradient><linearGradient id="g17" gradientUnits="userSpaceOnUse" x1="119.35" y1="83.17" x2="105.22" y2="92.95"><stop offset="0.0%" stop-color="#002f69"/><stop offset="22.5%" stop-color="#002f69"/><stop offset="75.6%" stop-color="#002f69"/><stop offset="100.0%" stop-color="#002f69"/></linearGradient><linearGradient id="g19" gradientUnits="userSpaceOnUse" x1="156.78" y1="98.05" x2="99.22" y2="98.05"><stop offset="0.0%" stop-color="#002f69"/><stop offset="3.8%" stop-color="#002f69"/><stop offset="14.6%" stop-color="#002f69"/><stop offset="30.9%" stop-color="#00316e"/><stop offset="50.0%" stop-color="#004090"/><stop offset="69.1%" stop-color="#004cac"/><stop offset="85.4%" stop-color="#0055be"/><stop offset="96.2%" stop-color="#0057c3"/><stop offset="100.0%" stop-color="#0053ba"/></linearGradient><linearGradient id="g21" gradientUnits="userSpaceOnUse" x1="70.45" y1="91.82" x2="185.55" y2="91.82"><stop offset="0.0%" stop-color="#0053ba"/><stop offset="3.8%" stop-color="#0057c3"/><stop offset="14.6%" stop-color="#0055be"/><stop offset="30.9%" stop-color="#004cac"/><stop offset="50.0%" stop-color="#004090"/><stop offset="69.1%" stop-color="#00316e"/><stop offset="85.4%" stop-color="#002f69"/><stop offset="96.2%" stop-color="#002f69"/><stop offset="100.0%" stop-color="#002f69"/></linearGradient><linearGradient id="g23" gradientUnits="userSpaceOnUse" x1="106.42" y1="22.77" x2="149.58" y2="22.77"><stop offset="0.0%" stop-color="#0053ba"/><stop offset="3.8%" stop-color="#0057c3"/><stop offset="14.6%" stop-color="#0055be"/><stop offset="30.9%" stop-color="#004cac"/><stop offset="50.0%" stop-color="#004090"/><stop offset="69.1%" stop-color="#00316e"/><stop offset="85.4%" stop-color="#002f69"/><stop offset="96.2%" stop-color="#002f69"/><stop offset="100.0%" stop-color="#002f69"/></linearGradient><linearGradient id="g27" gradientUnits="userSpaceOnUse" x1="56.06" y1="85.59" x2="199.94" y2="85.59"><stop offset="0.0%" stop-color="#0053ba"/><stop offset="3.8%" stop-color="#0057c3"/><stop offset="14.6%" stop-color="#0055be"/><stop offset="30.9%" stop-color="#004cac"/><stop offset="50.0%" stop-color="#004090"/><stop offset="69.1%" stop-color="#00316e"/><stop offset="85.4%" stop-color="#002f69"/><stop offset="96.2%" stop-color="#002f69"/><stop offset="100.0%" stop-color="#002f69"/></linearGradient><linearGradient id="g28" gradientUnits="userSpaceOnUse" x1="61.53" y1="136.74" x2="100.47" y2="156.21"><stop offset="0.0%" stop-color="#0057c3"/><stop offset="9.5%" stop-color="#0057c3"/><stop offset="20.0%" stop-color="#0056c2"/><stop offset="31.6%" stop-color="#0056c0"/><stop offset="44.0%" stop-color="#0055be"/><stop offset="57.2%" stop-color="#0053bb"/><stop offset="71.0%" stop-color="#0051b6"/><stop offset="85.3%" stop-color="#004fb1"/><stop offset="100.0%" stop-color="#004cac"/></linearGradient><linearGradient id="g29" gradientUnits="userSpaceOnUse" x1="155.53" y1="156.21" x2="194.47" y2="136.74"><stop offset="0.0%" stop-color="#00316e"/><stop offset="14.7%" stop-color="#002f69"/><stop offset="29.0%" stop-color="#002f69"/><stop offset="42.8%" stop-color="#002f69"/><stop offset="56.0%" stop-color="#002f69"/><stop offset="68.4%" stop-color="#002f69"/><stop offset="80.0%" stop-color="#002f69"/><stop offset="90.5%" stop-color="#002f69"/><stop offset="100.0%" stop-color="#002f69"/></linearGradient><linearGradient id="g30" gradientUnits="userSpaceOnUse" x1="200.45" y1="48.21" x2="157.29" y2="48.21"><stop offset="0.0%" stop-color="#0053ba"/><stop offset="3.8%" stop-color="#0057c3"/><stop offset="14.6%" stop-color="#0055be"/><stop offset="30.9%" stop-color="#004cac"/><stop offset="50.0%" stop-color="#004090"/><stop offset="69.1%" stop-color="#00316e"/><stop offset="85.4%" stop-color="#002f69"/><stop offset="96.2%" stop-color="#002f69"/><stop offset="100.0%" stop-color="#002f69"/></linearGradient><linearGradient id="g31" gradientUnits="userSpaceOnUse" x1="98.71" y1="48.21" x2="55.55" y2="48.21"><stop offset="0.0%" stop-color="#0053ba"/><stop offset="3.8%" stop-color="#0057c3"/><stop offset="14.6%" stop-color="#0055be"/><stop offset="30.9%" stop-color="#004cac"/><stop offset="50.0%" stop-color="#004090"/><stop offset="69.1%" stop-color="#00316e"/><stop offset="85.4%" stop-color="#002f69"/><stop offset="96.2%" stop-color="#002f69"/><stop offset="100.0%" stop-color="#002f69"/></linearGradient><linearGradient id="g32" gradientUnits="userSpaceOnUse" x1="157.29" y1="48.21" x2="200.45" y2="48.21"><stop offset="0.0%" stop-color="#0053ba"/><stop offset="3.8%" stop-color="#0057c3"/><stop offset="14.6%" stop-color="#0055be"/><stop offset="30.9%" stop-color="#004cac"/><stop offset="50.0%" stop-color="#004090"/><stop offset="69.1%" stop-color="#00316e"/><stop offset="85.4%" stop-color="#002f69"/><stop offset="96.2%" stop-color="#002f69"/><stop offset="100.0%" stop-color="#002f69"/></linearGradient><linearGradient id="g34" gradientUnits="userSpaceOnUse" x1="55.55" y1="48.21" x2="98.71" y2="48.21"><stop offset="0.0%" stop-color="#0053ba"/><stop offset="3.8%" stop-color="#0057c3"/><stop offset="14.6%" stop-color="#0055be"/><stop offset="30.9%" stop-color="#004cac"/><stop offset="50.0%" stop-color="#004090"/><stop offset="69.1%" stop-color="#00316e"/><stop offset="85.4%" stop-color="#002f69"/><stop offset="96.2%" stop-color="#002f69"/><stop offset="100.0%" stop-color="#002f69"/></linearGradient><linearGradient id="g36" gradientUnits="userSpaceOnUse" x1="149.58" y1="73.65" x2="106.42" y2="73.65"><stop offset="0.0%" stop-color="#0053ba"/><stop offset="3.8%" stop-color="#0057c3"/><stop offset="14.6%" stop-color="#0055be"/><stop offset="30.9%" stop-color="#004cac"/><stop offset="50.0%" stop-color="#004090"/><stop offset="69.1%" stop-color="#00316e"/><stop offset="85.4%" stop-color="#002f69"/><stop offset="96.2%" stop-color="#002f69"/><stop offset="100.0%" stop-color="#002f69"/></linearGradient><linearGradient id="g37" gradientUnits="userSpaceOnUse" x1="106.42" y1="73.65" x2="149.58" y2="73.65"><stop offset="0.0%" stop-color="#0053ba"/><stop offset="3.8%" stop-color="#0057c3"/><stop offset="14.6%" stop-color="#0055be"/><stop offset="30.9%" stop-color="#004cac"/><stop offset="50.0%" stop-color="#004090"/><stop offset="69.1%" stop-color="#00316e"/><stop offset="85.4%" stop-color="#002f69"/><stop offset="96.2%" stop-color="#002f69"/><stop offset="100.0%" stop-color="#002f69"/></linearGradient></defs>
<g stroke-linejoin="round">
<path d="M 100.47 83.51 L 99.14 83.80 L 97.81 84.09 L 96.51 84.40 L 95.21 84.73 L 93.93 85.06 L 92.66 85.41 L 91.40 85.78 L 90.16 86.15 L 88.94 86.54 L 87.73 86.94 L 86.54 87.35 L 85.36 87.77 L 84.20 88.21 L 83.06 88.65 L 81.94 89.11 L 80.84 89.58 L 79.75 90.06 L 78.69 90.55 L 77.64 91.05 L 76.62 91.57 L 75.62 92.09 L 74.63 92.62 L 73.67 93.16 L 72.73 93.72 L 71.82 94.28 L 70.92 94.85 L 70.05 95.42 L 69.21 96.01 L 68.39 96.61 L 67.59 97.21 L 66.81 97.83 L 66.06 98.45 L 65.34 99.07 L 64.64 99.71 L 63.97 100.35 L 63.32 101.00 L 62.70 101.65 L 62.10 102.31 L 61.53 102.98 L 61.53 115.44 L 62.10 114.77 L 62.70 114.11 L 63.32 113.46 L 63.97 112.81 L 64.64 112.17 L 65.34 111.53 L 66.06 110.91 L 66.81 110.29 L 67.59 109.67 L 68.39 109.07 L 69.21 108.47 L 70.05 107.89 L 70.92 107.31 L 71.82 106.74 L 72.73 106.18 L 73.67 105.62 L 74.63 105.08 L 75.62 104.55 L 76.62 104.03 L 77.64 103.52 L 78.69 103.01 L 79.75 102.52 L 80.84 102.04 L 81.94 101.57 L 83.06 101.11 L 84.20 100.67 L 85.36 100.23 L 86.54 99.81 L 87.73 99.40 L 88.94 99.00 L 90.16 98.61 L 91.40 98.24 L 92.66 97.87 L 93.93 97.52 L 95.21 97.19 L 96.51 96.86 L 97.81 96.55 L 99.14 96.26 L 100.47 95.97 Z" fill="url(#g0)" fill-rule="evenodd" stroke="url(#g0)" stroke-width="0.8" opacity="0.55"/>
<path d="M 116.20 81.95 L 58.41 110.84 L 58.41 123.30 L 116.20 94.41 Z" fill="#003373" fill-rule="evenodd" stroke="#003373" stroke-width="0.8" opacity="0.55"/>
<path d="M 194.47 102.98 L 193.90 102.31 L 193.30 101.65 L 192.68 101.00 L 192.03 100.35 L 191.36 99.71 L 190.66 99.07 L 189.94 98.45 L 189.19 97.83 L 188.41 97.21 L 187.62 96.61 L 186.79 96.01 L 185.95 95.42 L 185.07 94.85 L 184.18 94.28 L 183.26 93.72 L 182.33 93.16 L 181.37 92.62 L 180.38 92.09 L 179.38 91.57 L 178.36 91.05 L 177.31 90.55 L 176.25 90.06 L 175.16 89.58 L 174.06 89.11 L 172.94 88.65 L 171.79 88.21 L 170.64 87.77 L 169.46 87.35 L 168.27 86.94 L 167.06 86.54 L 165.84 86.15 L 164.60 85.78 L 163.34 85.41 L 162.07 85.06 L 160.79 84.73 L 159.49 84.40 L 158.19 84.09 L 156.86 83.80 L 155.53 83.51 L 155.53 95.97 L 156.86 96.26 L 158.19 96.55 L 159.49 96.86 L 160.79 97.19 L 162.07 97.52 L 163.34 97.87 L 164.60 98.24 L 165.84 98.61 L 167.06 99.00 L 168.27 99.40 L 169.46 99.81 L 170.64 100.23 L 171.79 100.67 L 172.94 101.11 L 174.06 101.57 L 175.16 102.04 L 176.25 102.52 L 177.31 103.01 L 178.36 103.52 L 179.38 104.03 L 180.38 104.55 L 181.37 105.08 L 182.33 105.62 L 183.26 106.18 L 184.18 106.74 L 185.07 107.31 L 185.95 107.89 L 186.79 108.47 L 187.62 109.07 L 188.41 109.67 L 189.19 110.29 L 189.94 110.91 L 190.66 111.53 L 191.36 112.17 L 192.03 112.81 L 192.68 113.46 L 193.30 114.11 L 193.90 114.77 L 194.47 115.44 Z" fill="url(#g2)" fill-rule="evenodd" stroke="url(#g2)" stroke-width="0.8" opacity="0.55"/>
<path d="M 139.80 81.95 L 139.80 94.41 L 197.59 123.30 L 197.59 110.84 Z" fill="#0048a2" fill-rule="evenodd" stroke="#0048a2" stroke-width="0.8" opacity="0.55"/>
<path d="M 199.94 54.44 L 199.71 51.55 L 199.01 48.67 L 197.85 45.83 L 196.24 43.05 L 194.19 40.34 L 191.70 37.72 L 188.80 35.22 L 185.51 32.83 L 181.85 30.59 L 177.84 28.50 L 173.50 26.58 L 168.87 24.84 L 163.97 23.29 L 158.84 21.94 L 153.51 20.81 L 148.01 19.89 L 142.39 19.20 L 136.67 18.73 L 130.90 18.50 L 125.10 18.50 L 119.33 18.73 L 113.61 19.20 L 107.98 19.89 L 102.49 20.81 L 97.16 21.94 L 92.03 23.29 L 87.13 24.84 L 82.50 26.58 L 78.16 28.50 L 74.15 30.59 L 70.49 32.83 L 67.20 35.22 L 64.30 37.72 L 61.81 40.34 L 59.76 43.05 L 58.15 45.83 L 56.99 48.67 L 56.29 51.55 L 56.06 54.44 L 56.06 116.74 L 56.29 113.85 L 56.99 110.97 L 58.15 108.14 L 59.76 105.35 L 61.81 102.64 L 64.30 100.03 L 67.20 97.52 L 70.49 95.14 L 74.15 92.89 L 78.16 90.80 L 82.50 88.88 L 87.13 87.14 L 92.03 85.59 L 97.16 84.25 L 102.49 83.11 L 107.98 82.19 L 113.61 81.50 L 119.33 81.03 L 125.10 80.80 L 130.90 80.80 L 136.67 81.03 L 142.39 81.50 L 148.01 82.19 L 153.51 83.11 L 158.84 84.25 L 163.97 85.59 L 168.87 87.14 L 173.50 88.88 L 177.84 90.80 L 181.85 92.89 L 185.51 95.14 L 188.80 97.52 L 191.70 100.03 L 194.19 102.64 L 196.24 105.35 L 197.85 108.14 L 199.01 110.97 L 199.71 113.85 L 199.94 116.74 Z" fill="url(#g4)" fill-rule="evenodd" stroke="url(#g4)" stroke-width="0.8" opacity="0.55"/>
<path d="M 58.51 63.75 L 61.53 68.21 L 65.70 72.43 L 70.93 76.34 L 77.13 79.88 L 84.21 82.98 L 92.03 85.59 L 100.47 87.67 L 109.38 89.19 L 118.61 90.11 L 128.00 90.41 L 137.39 90.11 L 146.62 89.19 L 155.53 87.67 L 163.97 85.59 L 171.79 82.98 L 178.87 79.88 L 185.07 76.34 L 190.30 72.43 L 194.47 68.21 L 197.49 63.75 L 199.33 59.14 L 199.94 54.44 L 199.33 49.74 L 197.49 45.13 L 194.47 40.67 L 190.30 36.45 L 185.07 32.54 L 178.87 29.00 L 171.79 25.91 L 163.97 23.29 L 155.53 21.21 L 146.62 19.70 L 137.39 18.77 L 128.00 18.47 L 118.61 18.77 L 109.38 19.70 L 100.47 21.21 L 92.03 23.29 L 84.21 25.91 L 77.13 29.00 L 70.93 32.54 L 65.70 36.45 L 61.53 40.67 L 58.51 45.13 L 56.67 49.74 L 56.06 54.44 L 56.67 59.14 Z M 106.42 65.23 L 106.42 43.65 L 149.58 43.65 L 149.58 65.23 Z" fill="#006ef8" fill-rule="evenodd" stroke="#006ef8" stroke-width="0.8" opacity="0.55"/>
<path d="M 185.55 66.90 L 185.37 64.59 L 184.81 62.28 L 183.88 60.02 L 182.59 57.79 L 180.95 55.62 L 178.96 53.53 L 176.64 51.52 L 174.01 49.61 L 171.08 47.82 L 167.87 46.15 L 164.40 44.61 L 160.69 43.22 L 156.78 41.98 L 152.67 40.90 L 148.41 39.99 L 144.01 39.26 L 139.51 38.71 L 134.94 38.33 L 130.32 38.15 L 125.68 38.15 L 121.06 38.33 L 116.49 38.71 L 111.99 39.26 L 107.59 39.99 L 103.33 40.90 L 99.22 41.98 L 95.31 43.22 L 91.60 44.61 L 88.13 46.15 L 84.92 47.82 L 81.99 49.61 L 79.36 51.52 L 77.04 53.53 L 75.05 55.62 L 73.41 57.79 L 72.12 60.02 L 71.19 62.28 L 70.63 64.59 L 70.45 66.90 L 70.45 116.74 L 70.63 114.43 L 71.19 112.13 L 72.12 109.86 L 73.41 107.63 L 75.05 105.46 L 77.04 103.37 L 79.36 101.36 L 81.99 99.46 L 84.92 97.66 L 88.13 95.99 L 91.60 94.45 L 95.31 93.06 L 99.22 91.82 L 103.33 90.75 L 107.59 89.84 L 111.99 89.10 L 116.49 88.55 L 121.06 88.18 L 125.68 87.99 L 130.32 87.99 L 134.94 88.18 L 139.51 88.55 L 144.01 89.10 L 148.41 89.84 L 152.67 90.75 L 156.78 91.82 L 160.69 93.06 L 164.40 94.45 L 167.87 95.99 L 171.08 97.66 L 174.01 99.46 L 176.64 101.36 L 178.96 103.37 L 180.95 105.46 L 182.59 107.63 L 183.88 109.86 L 184.81 112.13 L 185.37 114.43 L 185.55 116.74 Z" fill="url(#g6)" fill-rule="evenodd" stroke="url(#g6)" stroke-width="0.8" opacity="0.55"/>
<path d="M 149.51 15.68 L 149.30 14.81 L 148.96 13.96 L 148.47 13.13 L 147.85 12.31 L 147.11 11.53 L 146.24 10.78 L 145.25 10.06 L 144.16 9.39 L 142.95 8.76 L 141.65 8.19 L 140.26 7.66 L 138.79 7.20 L 137.25 6.79 L 135.65 6.46 L 134.00 6.18 L 132.32 5.97 L 130.60 5.83 L 128.87 5.76 L 127.13 5.76 L 125.40 5.83 L 123.68 5.97 L 122.00 6.18 L 120.35 6.46 L 118.75 6.79 L 117.21 7.20 L 115.74 7.66 L 114.35 8.19 L 113.05 8.76 L 111.84 9.39 L 110.75 10.06 L 109.76 10.78 L 108.89 11.53 L 108.14 12.31 L 107.53 13.13 L 107.05 13.96 L 106.70 14.81 L 106.49 15.68 L 106.42 16.55 L 106.42 29.00 L 106.49 28.14 L 106.70 27.27 L 107.05 26.42 L 107.53 25.59 L 108.14 24.78 L 108.89 23.99 L 109.76 23.24 L 110.75 22.52 L 111.84 21.85 L 113.05 21.22 L 114.35 20.65 L 115.74 20.12 L 117.21 19.66 L 118.75 19.26 L 120.35 18.91 L 122.00 18.64 L 123.68 18.43 L 125.40 18.29 L 127.13 18.22 L 128.87 18.22 L 130.60 18.29 L 132.32 18.43 L 134.00 18.64 L 135.65 18.91 L 137.25 19.26 L 138.79 19.66 L 140.26 20.12 L 141.65 20.65 L 142.95 21.22 L 144.16 21.85 L 145.25 22.52 L 146.24 23.24 L 147.11 23.99 L 147.85 24.78 L 148.47 25.59 L 148.96 26.42 L 149.30 27.27 L 149.51 28.14 L 149.58 29.00 L 149.58 16.55 Z" fill="url(#g7)" fill-rule="evenodd" stroke="url(#g7)" stroke-width="0.8" opacity="0.55"/>
<path d="M 150.27 138.31 L 151.98 137.16 L 153.44 135.93 L 154.65 134.63 L 155.60 133.27 L 156.28 131.88 L 156.67 130.46 L 156.77 129.03 L 156.60 127.59 L 156.13 126.18 L 155.39 124.79 L 154.38 123.45 L 153.10 122.17 L 151.57 120.95 L 149.81 119.82 L 147.84 118.78 L 145.66 117.84 L 143.31 117.02 L 140.81 116.32 L 138.18 115.75 L 135.45 115.31 L 132.64 115.00 L 129.79 114.84 L 126.92 114.83 L 124.07 114.95 L 121.25 115.22 L 118.50 115.62 L 115.84 116.16 L 113.30 116.83 L 110.91 117.63 L 108.69 118.54 L 106.66 119.55 L 104.85 120.66 L 103.26 121.86 L 101.92 123.12 L 100.84 124.45 L 100.03 125.83 L 99.49 127.24 L 99.24 128.67 L 99.28 130.10 L 99.60 131.53 L 100.20 132.93 L 101.08 134.29 L 102.23 135.61 L 103.63 136.86 L 105.28 138.03 L 107.15 139.12 L 109.23 140.11 L 111.49 140.99 L 113.92 141.75 L 116.49 142.39 L 119.18 142.90 L 121.95 143.27 L 124.78 143.50 L 127.64 143.59 L 130.51 143.54 L 133.35 143.34 L 136.14 143.01 L 138.85 142.53 L 141.45 141.93 L 143.91 141.19 L 146.22 140.34 L 148.35 139.38 Z M 141.67 137.56 L 139.94 138.20 L 138.09 138.75 L 136.13 139.20 L 134.10 139.56 L 132.01 139.81 L 129.88 139.96 L 127.73 140.00 L 125.58 139.93 L 123.46 139.75 L 121.38 139.48 L 119.37 139.09 L 117.44 138.62 L 115.62 138.04 L 113.92 137.38 L 112.36 136.64 L 110.96 135.83 L 109.73 134.95 L 108.67 134.01 L 107.81 133.02 L 107.15 132.00 L 106.70 130.95 L 106.46 129.88 L 106.43 128.80 L 106.62 127.73 L 107.02 126.67 L 107.63 125.64 L 108.44 124.64 L 109.44 123.69 L 110.64 122.80 L 112.00 121.96 L 113.52 121.20 L 115.18 120.52 L 116.98 119.93 L 118.88 119.42 L 120.87 119.02 L 122.94 118.72 L 125.05 118.52 L 127.19 118.42 L 129.34 118.43 L 131.48 118.56 L 133.59 118.78 L 135.63 119.11 L 137.61 119.54 L 139.48 120.07 L 141.25 120.68 L 142.88 121.39 L 144.36 122.17 L 145.68 123.02 L 146.82 123.93 L 147.78 124.89 L 148.54 125.90 L 149.10 126.94 L 149.45 128.00 L 149.58 129.07 L 149.50 130.15 L 149.21 131.21 L 148.70 132.26 L 147.99 133.27 L 147.08 134.25 L 145.98 135.17 L 144.71 136.04 L 143.26 136.84 Z" fill="#006ef8" fill-rule="evenodd" stroke="#006ef8" stroke-width="0.8" opacity="0.55"/>
<path d="M 99.22 129.21 L 99.32 128.05 L 99.60 126.90 L 100.06 125.76 L 100.70 124.65 L 101.53 123.56 L 102.52 122.52 L 103.68 121.52 L 105.00 120.56 L 106.46 119.66 L 108.07 118.83 L 109.80 118.06 L 111.65 117.36 L 113.61 116.74 L 115.66 116.20 L 117.80 115.75 L 119.99 115.38 L 122.24 115.11 L 124.53 114.92 L 126.84 114.83 L 129.16 114.83 L 131.47 114.92 L 133.76 115.11 L 136.01 115.38 L 138.20 115.75 L 140.34 116.20 L 142.39 116.74 L 144.35 117.36 L 146.20 118.06 L 147.93 118.83 L 149.54 119.66 L 151.00 120.56 L 152.32 121.52 L 153.48 122.52 L 154.47 123.56 L 155.30 124.65 L 155.94 125.76 L 156.40 126.90 L 156.68 128.05 L 156.78 129.21 L 156.78 66.90 L 156.68 65.74 L 156.40 64.59 L 155.94 63.46 L 155.30 62.34 L 154.47 61.26 L 153.48 60.22 L 152.32 59.21 L 151.00 58.26 L 149.54 57.36 L 147.93 56.52 L 146.20 55.76 L 144.35 55.06 L 142.39 54.44 L 140.34 53.90 L 138.20 53.45 L 136.01 53.08 L 133.76 52.80 L 131.47 52.62 L 129.16 52.52 L 126.84 52.52 L 124.53 52.62 L 122.24 52.80 L 119.99 53.08 L 117.80 53.45 L 115.66 53.90 L 113.61 54.44 L 111.65 55.06 L 109.80 55.76 L 108.07 56.52 L 106.46 57.36 L 105.00 58.26 L 103.68 59.21 L 102.52 60.22 L 101.53 61.26 L 100.70 62.34 L 100.06 63.46 L 99.60 64.59 L 99.32 65.74 L 99.22 66.90 Z" fill="url(#g9)" fill-rule="evenodd" stroke="url(#g9)" stroke-width="0.8" opacity="0.55"/>
<path d="M 149.51 115.88 L 149.30 115.01 L 148.96 114.16 L 148.47 113.33 L 147.85 112.51 L 147.11 111.73 L 146.24 110.98 L 145.25 110.26 L 144.16 109.59 L 142.95 108.96 L 141.65 108.39 L 140.26 107.86 L 138.79 107.40 L 137.25 107.00 L 135.65 106.65 L 134.00 106.38 L 132.32 106.17 L 130.60 106.03 L 128.87 105.96 L 127.13 105.96 L 125.40 106.03 L 123.68 106.17 L 122.00 106.38 L 120.35 106.65 L 118.75 107.00 L 117.21 107.40 L 115.74 107.86 L 114.35 108.39 L 113.05 108.96 L 111.84 109.59 L 110.75 110.26 L 109.76 110.98 L 108.89 111.73 L 108.14 112.51 L 107.53 113.33 L 107.05 114.16 L 106.70 115.01 L 106.49 115.88 L 106.42 116.74 L 106.42 129.21 L 106.49 128.34 L 106.70 127.47 L 107.05 126.62 L 107.53 125.79 L 108.14 124.97 L 108.89 124.19 L 109.76 123.44 L 110.75 122.72 L 111.84 122.05 L 113.05 121.42 L 114.35 120.85 L 115.74 120.32 L 117.21 119.86 L 118.75 119.45 L 120.35 119.11 L 122.00 118.84 L 123.68 118.63 L 125.40 118.49 L 127.13 118.42 L 128.87 118.42 L 130.60 118.49 L 132.32 118.63 L 134.00 118.84 L 135.65 119.11 L 137.25 119.45 L 138.79 119.86 L 140.26 120.32 L 141.65 120.85 L 142.95 121.42 L 144.16 122.05 L 145.25 122.72 L 146.24 123.44 L 147.11 124.19 L 147.85 124.97 L 148.47 125.79 L 148.96 126.62 L 149.30 127.47 L 149.51 128.34 L 149.58 129.21 L 149.58 116.74 Z" fill="url(#g10)" fill-rule="evenodd" stroke="url(#g10)" stroke-width="0.8" opacity="0.55"/>
<path d="M 143.26 109.11 L 147.34 112.16 L 147.34 49.86 L 143.26 46.81 L 137.16 44.77 L 137.16 107.08 Z" fill="url(#g11)" fill-rule="evenodd" stroke="url(#g11)" stroke-width="0.8" opacity="0.55"/>
<path d="M 118.84 44.77 L 118.84 107.08 L 122.91 109.11 L 128.00 110.39 L 133.09 109.11 L 137.16 107.08 L 137.16 44.77 L 133.09 46.81 L 128.00 48.08 L 122.91 46.81 Z" fill="url(#g12)" fill-rule="evenodd" stroke="url(#g12)" stroke-width="0.8" opacity="0.55"/>
<path d="M 118.84 44.77 L 112.74 46.81 L 108.66 49.86 L 108.66 112.16 L 112.74 109.11 L 118.84 107.08 Z" fill="url(#g13)" fill-rule="evenodd" stroke="url(#g13)" stroke-width="0.8" opacity="0.55"/>
<path d="M 106.42 129.21 L 106.49 130.07 L 106.70 130.94 L 107.05 131.79 L 107.53 132.62 L 108.14 133.43 L 108.89 134.22 L 109.76 134.97 L 110.75 135.69 L 111.84 136.36 L 113.05 136.99 L 114.35 137.56 L 115.74 138.09 L 117.21 138.55 L 118.75 138.95 L 120.35 139.29 L 122.00 139.57 L 123.68 139.78 L 125.40 139.92 L 127.13 139.99 L 128.87 139.99 L 130.60 139.92 L 132.32 139.78 L 134.00 139.57 L 135.65 139.29 L 137.25 138.95 L 138.79 138.55 L 140.26 138.09 L 141.65 137.56 L 142.95 136.99 L 144.16 136.36 L 145.25 135.69 L 146.24 134.97 L 147.11 134.22 L 147.85 133.43 L 148.47 132.62 L 148.96 131.79 L 149.30 130.94 L 149.51 130.07 L 149.58 129.21 L 149.58 116.74 L 149.51 117.61 L 149.30 118.47 L 148.96 119.33 L 148.47 120.16 L 147.85 120.97 L 147.11 121.76 L 146.24 122.51 L 145.25 123.23 L 144.16 123.90 L 142.95 124.53 L 141.65 125.10 L 140.26 125.62 L 138.79 126.09 L 137.25 126.49 L 135.65 126.83 L 134.00 127.11 L 132.32 127.32 L 130.60 127.46 L 128.87 127.53 L 127.13 127.53 L 125.40 127.46 L 123.68 127.32 L 122.00 127.11 L 120.35 126.83 L 118.75 126.49 L 117.21 126.09 L 115.74 125.62 L 114.35 125.10 L 113.05 124.53 L 111.84 123.90 L 110.75 123.23 L 109.76 122.51 L 108.89 121.76 L 108.14 120.97 L 107.53 120.16 L 107.05 119.33 L 106.70 118.47 L 106.49 117.61 L 106.42 116.74 Z" fill="url(#g14)" fill-rule="evenodd" stroke="url(#g14)" stroke-width="0.8" opacity="0.55"/>
<path d="M 140.72 54.44 L 140.72 116.74 L 143.26 119.29 L 147.34 121.33 L 147.34 112.16 L 147.34 59.02 L 147.34 49.86 L 143.26 51.90 Z" fill="url(#g15)" fill-rule="evenodd" stroke="url(#g15)" stroke-width="0.8" opacity="0.55"/>
<path d="M 197.59 135.11 L 197.59 122.64 L 194.46 130.52 L 194.46 142.98 Z" fill="#003373" fill-rule="evenodd" stroke="#003373" stroke-width="0.8" opacity="0.55"/>
<path d="M 115.28 54.44 L 112.74 51.90 L 108.66 49.86 L 108.66 59.02 L 108.66 112.16 L 108.66 121.33 L 112.74 119.29 L 115.28 116.74 Z" fill="url(#g17)" fill-rule="evenodd" stroke="url(#g17)" stroke-width="0.8" opacity="0.55"/>
<path d="M 58.41 135.11 L 61.54 142.98 L 61.54 130.52 L 58.41 122.64 Z" fill="#0048a2" fill-rule="evenodd" stroke="#0048a2" stroke-width="0.8" opacity="0.55"/>
<path d="M 156.68 68.06 L 156.40 69.21 L 155.94 70.34 L 155.30 71.46 L 154.47 72.54 L 153.48 73.59 L 152.32 74.59 L 151.00 75.55 L 149.54 76.44 L 147.93 77.28 L 146.20 78.05 L 144.35 78.74 L 142.39 79.36 L 140.34 79.90 L 138.20 80.36 L 136.01 80.72 L 133.76 81.00 L 131.47 81.19 L 129.16 81.28 L 126.84 81.28 L 124.53 81.19 L 122.24 81.00 L 119.99 80.72 L 117.80 80.36 L 115.66 79.90 L 113.61 79.36 L 111.65 78.74 L 109.80 78.05 L 108.07 77.28 L 106.46 76.44 L 105.00 75.55 L 103.68 74.59 L 102.52 73.59 L 101.53 72.54 L 100.70 71.46 L 100.06 70.34 L 99.60 69.21 L 99.32 68.06 L 99.22 66.90 L 99.22 129.21 L 99.32 130.36 L 99.60 131.51 L 100.06 132.65 L 100.70 133.76 L 101.53 134.84 L 102.52 135.89 L 103.68 136.90 L 105.00 137.85 L 106.46 138.75 L 108.07 139.58 L 109.80 140.35 L 111.65 141.05 L 113.61 141.66 L 115.66 142.20 L 117.80 142.66 L 119.99 143.03 L 122.24 143.30 L 124.53 143.49 L 126.84 143.58 L 129.16 143.58 L 131.47 143.49 L 133.76 143.30 L 136.01 143.03 L 138.20 142.66 L 140.34 142.20 L 142.39 141.66 L 144.35 141.05 L 146.20 140.35 L 147.93 139.58 L 149.54 138.75 L 151.00 137.85 L 152.32 136.90 L 153.48 135.89 L 154.47 134.84 L 155.30 133.76 L 155.94 132.65 L 156.40 131.51 L 156.68 130.36 L 156.78 129.21 L 156.78 66.90 Z" fill="url(#g19)" fill-rule="evenodd" stroke="url(#g19)" stroke-width="0.8" opacity="0.55"/>
<path d="M 106.42 65.23 L 128.00 65.23 L 149.58 65.23 L 149.58 54.44 L 149.58 54.44 L 149.58 43.65 L 128.00 43.65 L 106.42 43.65 L 106.42 54.44 Z M 122.91 62.07 L 118.84 64.11 L 112.74 62.07 L 108.66 59.02 L 112.74 56.98 L 115.28 54.44 L 112.74 51.90 L 108.66 49.86 L 112.74 46.81 L 118.84 44.77 L 122.91 46.81 L 128.00 48.08 L 133.09 46.81 L 137.16 44.77 L 143.26 46.81 L 147.34 49.86 L 143.26 51.90 L 140.72 54.44 L 143.26 56.98 L 147.33 59.02 L 147.34 59.02 L 143.26 62.07 L 137.16 64.11 L 133.09 62.07 L 128.00 60.80 Z M 114.86 63.00 L 117.21 63.79 L 114.86 63.00 L 112.74 62.07 Z M 110.88 61.01 L 109.31 59.84 L 110.88 61.01 L 112.74 62.07 Z M 110.88 47.87 L 109.31 49.05 L 110.88 47.87 L 112.74 46.81 Z M 114.86 45.88 L 117.21 45.09 L 114.86 45.88 L 112.74 46.81 Z M 141.14 45.88 L 138.79 45.09 L 141.14 45.88 L 143.26 46.81 Z M 145.12 47.87 L 146.69 49.05 L 145.12 47.87 L 143.26 46.81 Z M 145.12 61.01 L 146.69 59.84 L 145.12 61.01 L 143.26 62.07 Z M 141.14 63.00 L 138.79 63.79 L 141.14 63.00 L 143.26 62.07 Z M 133.59 44.02 L 130.82 43.74 L 133.59 44.02 L 136.26 44.47 Z M 119.74 64.41 L 118.92 64.14 L 119.74 64.41 L 122.41 64.86 L 119.74 64.41 Z M 108.06 58.57 L 108.06 58.57 L 107.61 57.90 Z M 119.74 44.47 L 119.74 44.47 L 118.92 44.74 L 119.73 44.47 Z M 136.26 64.41 L 136.26 64.41 L 134.82 64.66 L 136.26 64.41 L 137.07 64.14 Z M 136.27 44.47 L 137.07 44.74 L 136.26 44.47 Z" fill="#006ef8" fill-rule="evenodd" stroke="#006ef8" stroke-width="0.8" opacity="0.55"/>
<path d="M 70.63 119.06 L 71.19 121.36 L 72.12 123.63 L 73.41 125.86 L 75.05 128.02 L 77.04 130.12 L 79.36 132.12 L 81.99 134.03 L 84.92 135.83 L 88.13 137.50 L 91.60 139.03 L 95.31 140.43 L 99.22 141.66 L 103.33 142.74 L 107.59 143.65 L 111.99 144.38 L 116.49 144.94 L 121.06 145.31 L 125.68 145.50 L 130.32 145.50 L 134.94 145.31 L 139.51 144.94 L 144.01 144.38 L 148.41 143.65 L 152.67 142.74 L 156.78 141.66 L 160.69 140.43 L 164.40 139.03 L 167.87 137.50 L 171.08 135.83 L 174.01 134.03 L 176.64 132.12 L 178.96 130.12 L 180.95 128.02 L 182.59 125.86 L 183.88 123.63 L 184.81 121.36 L 185.37 119.06 L 185.55 116.74 L 185.55 66.90 L 185.37 69.22 L 184.81 71.52 L 183.88 73.79 L 182.59 76.01 L 180.95 78.18 L 178.96 80.27 L 176.64 82.28 L 174.01 84.19 L 171.08 85.98 L 167.87 87.66 L 164.40 89.19 L 160.69 90.58 L 156.78 91.82 L 152.67 92.90 L 148.41 93.81 L 144.01 94.54 L 139.51 95.10 L 134.94 95.47 L 130.32 95.66 L 125.68 95.66 L 121.06 95.47 L 116.49 95.10 L 111.99 94.54 L 107.59 93.81 L 103.33 92.90 L 99.22 91.82 L 95.31 90.58 L 91.60 89.19 L 88.13 87.66 L 84.92 85.98 L 81.99 84.19 L 79.36 82.28 L 77.04 80.27 L 75.05 78.18 L 73.41 76.01 L 72.12 73.79 L 71.19 71.52 L 70.63 69.22 L 70.45 66.90 L 70.45 116.74 Z" fill="url(#g21)" fill-rule="evenodd" stroke="url(#g21)" stroke-width="0.8" opacity="0.55"/>
<path d="M 172.55 85.12 L 175.95 82.81 L 178.88 80.35 L 181.31 77.75 L 183.20 75.04 L 184.55 72.25 L 185.33 69.41 L 185.55 66.54 L 185.19 63.68 L 184.27 60.85 L 182.78 58.08 L 180.75 55.39 L 178.20 52.83 L 175.15 50.40 L 171.62 48.13 L 167.67 46.05 L 163.32 44.18 L 158.62 42.53 L 153.62 41.13 L 148.36 39.98 L 142.90 39.10 L 137.29 38.50 L 131.59 38.18 L 125.85 38.15 L 120.13 38.40 L 114.50 38.93 L 108.99 39.74 L 103.68 40.82 L 98.60 42.16 L 93.82 43.75 L 89.38 45.56 L 85.33 47.59 L 81.69 49.81 L 78.52 52.20 L 75.84 54.74 L 73.68 57.40 L 72.05 60.15 L 70.99 62.97 L 70.49 65.83 L 70.56 68.69 L 71.20 71.55 L 72.41 74.35 L 74.17 77.08 L 76.46 79.71 L 79.27 82.21 L 82.56 84.56 L 86.30 86.74 L 90.46 88.71 L 94.99 90.47 L 99.85 92.00 L 104.98 93.28 L 110.35 94.29 L 115.89 95.03 L 121.56 95.50 L 127.28 95.68 L 133.02 95.57 L 138.70 95.18 L 144.28 94.50 L 149.69 93.56 L 154.89 92.34 L 159.83 90.88 L 164.44 89.17 L 168.70 87.25 Z M 146.22 78.04 L 143.91 78.89 L 141.45 79.62 L 138.85 80.23 L 136.14 80.70 L 133.35 81.04 L 130.51 81.23 L 127.64 81.29 L 124.78 81.20 L 121.95 80.97 L 119.18 80.60 L 116.49 80.09 L 113.92 79.45 L 111.49 78.69 L 109.23 77.81 L 107.15 76.82 L 105.28 75.73 L 103.63 74.56 L 102.23 73.31 L 101.08 71.99 L 100.20 70.62 L 99.60 69.22 L 99.28 67.80 L 99.24 66.36 L 99.49 64.93 L 100.03 63.52 L 100.84 62.15 L 101.92 60.82 L 103.26 59.55 L 104.85 58.36 L 106.66 57.25 L 108.69 56.23 L 110.91 55.32 L 113.30 54.53 L 115.84 53.86 L 118.50 53.32 L 121.25 52.91 L 124.07 52.65 L 126.92 52.52 L 129.79 52.54 L 132.64 52.70 L 135.45 53.00 L 138.18 53.44 L 140.81 54.02 L 143.31 54.72 L 145.66 55.54 L 147.84 56.48 L 149.81 57.52 L 151.57 58.65 L 153.10 59.86 L 154.38 61.15 L 155.39 62.49 L 156.13 63.88 L 156.60 65.29 L 156.77 66.72 L 156.67 68.16 L 156.28 69.58 L 155.60 70.97 L 154.65 72.32 L 153.44 73.62 L 151.98 74.86 L 150.27 76.01 L 148.35 77.08 Z" fill="#006ef8" fill-rule="evenodd" stroke="#006ef8" stroke-width="0.8" opacity="0.55"/>
<path d="M 106.42 29.00 L 106.49 29.87 L 106.70 30.74 L 107.05 31.59 L 107.53 32.42 L 108.14 33.23 L 108.89 34.02 L 109.76 34.77 L 110.75 35.49 L 111.84 36.16 L 113.05 36.79 L 114.35 37.36 L 115.74 37.89 L 117.21 38.35 L 118.75 38.76 L 120.35 39.09 L 122.00 39.37 L 123.68 39.58 L 125.40 39.72 L 127.13 39.79 L 128.87 39.79 L 130.60 39.72 L 132.32 39.58 L 134.00 39.37 L 135.65 39.09 L 137.25 38.76 L 138.79 38.35 L 140.26 37.89 L 141.65 37.36 L 142.95 36.79 L 144.16 36.16 L 145.25 35.49 L 146.24 34.77 L 147.11 34.02 L 147.85 33.23 L 148.47 32.42 L 148.96 31.59 L 149.30 30.74 L 149.51 29.87 L 149.58 29.00 L 149.58 16.55 L 149.51 17.41 L 149.30 18.28 L 148.96 19.13 L 148.47 19.96 L 147.85 20.77 L 147.11 21.56 L 146.24 22.31 L 145.25 23.03 L 144.16 23.70 L 142.95 24.33 L 141.65 24.90 L 140.26 25.43 L 138.79 25.89 L 137.25 26.29 L 135.65 26.64 L 134.00 26.91 L 132.32 27.12 L 130.60 27.26 L 128.87 27.33 L 127.13 27.33 L 125.40 27.26 L 123.68 27.12 L 122.00 26.91 L 120.35 26.64 L 118.75 26.29 L 117.21 25.89 L 115.74 25.43 L 114.35 24.90 L 113.05 24.33 L 111.84 23.70 L 110.75 23.03 L 109.76 22.31 L 108.89 21.56 L 108.14 20.77 L 107.53 19.96 L 107.05 19.13 L 106.70 18.28 L 106.49 17.41 L 106.42 16.55 Z" fill="url(#g23)" fill-rule="evenodd" stroke="url(#g23)" stroke-width="0.8" opacity="0.55"/>
<path d="M 141.67 8.19 L 139.94 7.55 L 138.09 7.00 L 136.13 6.55 L 134.10 6.19 L 132.01 5.94 L 129.88 5.79 L 127.73 5.75 L 125.58 5.82 L 123.46 6.00 L 121.38 6.27 L 119.37 6.65 L 117.44 7.13 L 115.62 7.71 L 113.92 8.37 L 112.36 9.11 L 110.96 9.92 L 109.73 10.80 L 108.67 11.74 L 107.81 12.73 L 107.15 13.75 L 106.70 14.80 L 106.46 15.87 L 106.43 16.95 L 106.62 18.02 L 107.02 19.08 L 107.63 20.11 L 108.44 21.11 L 109.44 22.06 L 110.64 22.95 L 112.00 23.79 L 113.52 24.55 L 115.18 25.23 L 116.98 25.82 L 118.88 26.32 L 120.87 26.73 L 122.94 27.04 L 125.05 27.23 L 127.19 27.33 L 129.34 27.32 L 131.48 27.19 L 133.59 26.97 L 135.63 26.64 L 137.61 26.21 L 139.48 25.68 L 141.25 25.07 L 142.88 24.36 L 144.36 23.58 L 145.68 22.73 L 146.82 21.82 L 147.78 20.86 L 148.54 19.85 L 149.10 18.82 L 149.45 17.75 L 149.58 16.68 L 149.50 15.60 L 149.21 14.54 L 148.70 13.49 L 147.99 12.48 L 147.08 11.50 L 145.98 10.58 L 144.71 9.71 L 143.26 8.91 Z" fill="#006ef8" fill-rule="evenodd" stroke="#006ef8" stroke-width="0.8" opacity="0.55"/>
<path d="M 155.55 162.44 L 155.55 149.97 L 139.80 151.54 L 139.80 164.00 Z" fill="#003373" fill-rule="evenodd" stroke="#003373" stroke-width="0.8" opacity="0.55"/>
<path d="M 100.45 162.44 L 116.20 164.00 L 116.20 151.54 L 100.45 149.97 Z" fill="#0048a2" fill-rule="evenodd" stroke="#0048a2" stroke-width="0.8" opacity="0.55"/>
<path d="M 56.29 119.64 L 56.99 122.51 L 58.15 125.35 L 59.76 128.13 L 61.81 130.84 L 64.30 133.46 L 67.20 135.97 L 70.49 138.35 L 74.15 140.60 L 78.16 142.69 L 82.50 144.61 L 87.13 146.35 L 92.03 147.90 L 97.16 149.24 L 102.49 150.38 L 107.98 151.29 L 113.61 151.99 L 119.33 152.45 L 125.10 152.69 L 130.90 152.69 L 136.67 152.45 L 142.39 151.99 L 148.01 151.29 L 153.51 150.38 L 158.84 149.24 L 163.97 147.90 L 168.87 146.35 L 173.50 144.61 L 177.84 142.69 L 181.85 140.60 L 185.51 138.35 L 188.80 135.97 L 191.70 133.46 L 194.19 130.84 L 196.24 128.13 L 197.85 125.35 L 199.01 122.51 L 199.71 119.64 L 199.94 116.74 L 199.94 54.44 L 199.71 57.34 L 199.01 60.21 L 197.85 63.05 L 196.24 65.83 L 194.19 68.54 L 191.70 71.16 L 188.80 73.67 L 185.51 76.05 L 181.85 78.29 L 177.84 80.38 L 173.50 82.30 L 168.87 84.04 L 163.97 85.59 L 158.84 86.94 L 153.51 88.07 L 148.01 88.99 L 142.39 89.68 L 136.67 90.15 L 130.90 90.38 L 125.10 90.38 L 119.33 90.15 L 113.61 89.68 L 107.98 88.99 L 102.49 88.07 L 97.16 86.94 L 92.03 85.59 L 87.13 84.04 L 82.50 82.30 L 78.16 80.38 L 74.15 78.29 L 70.49 76.05 L 67.20 73.67 L 64.30 71.16 L 61.81 68.54 L 59.76 65.83 L 58.15 63.05 L 56.99 60.21 L 56.29 57.34 L 56.06 54.44 L 56.06 116.74 Z" fill="url(#g27)" fill-rule="evenodd" stroke="url(#g27)" stroke-width="0.8" opacity="0.55"/>
<path d="M 62.10 143.64 L 62.70 144.30 L 63.32 144.95 L 63.97 145.60 L 64.64 146.24 L 65.34 146.88 L 66.06 147.50 L 66.81 148.12 L 67.59 148.74 L 68.39 149.34 L 69.21 149.94 L 70.05 150.52 L 70.92 151.10 L 71.82 151.67 L 72.73 152.23 L 73.67 152.78 L 74.63 153.33 L 75.62 153.86 L 76.62 154.38 L 77.64 154.90 L 78.69 155.40 L 79.75 155.89 L 80.84 156.37 L 81.94 156.84 L 83.06 157.29 L 84.20 157.74 L 85.36 158.18 L 86.54 158.60 L 87.73 159.01 L 88.94 159.41 L 90.16 159.80 L 91.40 160.17 L 92.66 160.54 L 93.93 160.88 L 95.21 161.22 L 96.51 161.55 L 97.81 161.86 L 99.14 162.15 L 100.47 162.44 L 100.47 149.98 L 99.14 149.69 L 97.81 149.40 L 96.51 149.09 L 95.21 148.76 L 93.93 148.43 L 92.66 148.07 L 91.40 147.71 L 90.16 147.34 L 88.94 146.95 L 87.73 146.55 L 86.54 146.14 L 85.36 145.72 L 84.20 145.28 L 83.06 144.84 L 81.94 144.38 L 80.84 143.91 L 79.75 143.43 L 78.69 142.94 L 77.64 142.43 L 76.62 141.92 L 75.62 141.40 L 74.63 140.87 L 73.67 140.32 L 72.73 139.77 L 71.82 139.21 L 70.92 138.64 L 70.05 138.06 L 69.21 137.47 L 68.39 136.88 L 67.59 136.27 L 66.81 135.66 L 66.06 135.04 L 65.34 134.41 L 64.64 133.78 L 63.97 133.14 L 63.32 132.49 L 62.70 131.84 L 62.10 131.18 L 61.53 130.51 L 61.53 142.97 Z" fill="url(#g28)" fill-rule="evenodd" stroke="url(#g28)" stroke-width="0.8" opacity="0.55"/>
<path d="M 156.86 162.15 L 158.19 161.86 L 159.49 161.55 L 160.79 161.22 L 162.07 160.88 L 163.34 160.54 L 164.60 160.17 L 165.84 159.80 L 167.06 159.41 L 168.27 159.01 L 169.46 158.60 L 170.64 158.18 L 171.79 157.74 L 172.94 157.29 L 174.06 156.84 L 175.16 156.37 L 176.25 155.89 L 177.31 155.40 L 178.36 154.90 L 179.38 154.38 L 180.38 153.86 L 181.37 153.33 L 182.33 152.78 L 183.26 152.23 L 184.18 151.67 L 185.07 151.10 L 185.95 150.52 L 186.79 149.94 L 187.62 149.34 L 188.41 148.74 L 189.19 148.12 L 189.94 147.50 L 190.66 146.88 L 191.36 146.24 L 192.03 145.60 L 192.68 144.95 L 193.30 144.30 L 193.90 143.64 L 194.47 142.97 L 194.47 130.51 L 193.90 131.18 L 193.30 131.84 L 192.68 132.49 L 192.03 133.14 L 191.36 133.78 L 190.66 134.41 L 189.94 135.04 L 189.19 135.66 L 188.41 136.27 L 187.62 136.88 L 186.79 137.47 L 185.95 138.06 L 185.07 138.64 L 184.18 139.21 L 183.26 139.77 L 182.33 140.32 L 181.37 140.87 L 180.38 141.40 L 179.38 141.92 L 178.36 142.43 L 177.31 142.94 L 176.25 143.43 L 175.16 143.91 L 174.06 144.38 L 172.94 144.84 L 171.79 145.28 L 170.64 145.72 L 169.46 146.14 L 168.27 146.55 L 167.06 146.95 L 165.84 147.34 L 164.60 147.71 L 163.34 148.07 L 162.07 148.43 L 160.79 148.76 L 159.49 149.09 L 158.19 149.40 L 156.86 149.69 L 155.53 149.98 L 155.53 162.44 Z" fill="url(#g29)" fill-rule="evenodd" stroke="url(#g29)" stroke-width="0.8" opacity="0.55"/>
<path d="M 200.38 41.11 L 200.17 40.25 L 199.83 39.40 L 199.34 38.56 L 198.73 37.75 L 197.98 36.97 L 197.11 36.21 L 196.12 35.50 L 195.03 34.82 L 193.82 34.20 L 192.52 33.62 L 191.13 33.10 L 189.66 32.63 L 188.12 32.23 L 186.52 31.89 L 184.88 31.61 L 183.19 31.41 L 181.47 31.27 L 179.74 31.20 L 178.00 31.20 L 176.27 31.27 L 174.55 31.41 L 172.87 31.61 L 171.22 31.89 L 169.62 32.23 L 168.08 32.63 L 166.61 33.10 L 165.22 33.62 L 163.92 34.20 L 162.72 34.82 L 161.62 35.50 L 160.63 36.21 L 159.76 36.97 L 159.01 37.75 L 158.40 38.56 L 157.91 39.40 L 157.57 40.25 L 157.36 41.11 L 157.29 41.98 L 157.29 54.44 L 157.36 53.57 L 157.57 52.71 L 157.91 51.86 L 158.40 51.02 L 159.01 50.21 L 159.76 49.43 L 160.63 48.67 L 161.62 47.96 L 162.72 47.28 L 163.92 46.66 L 165.22 46.08 L 166.61 45.56 L 168.08 45.09 L 169.62 44.69 L 171.22 44.35 L 172.87 44.08 L 174.55 43.87 L 176.27 43.73 L 178.00 43.66 L 179.74 43.66 L 181.47 43.73 L 183.19 43.87 L 184.88 44.08 L 186.52 44.35 L 188.12 44.69 L 189.66 45.09 L 191.13 45.56 L 192.52 46.08 L 193.82 46.66 L 195.03 47.28 L 196.12 47.96 L 197.11 48.67 L 197.98 49.43 L 198.73 50.21 L 199.34 51.02 L 199.83 51.86 L 200.17 52.71 L 200.38 53.57 L 200.45 54.44 L 200.45 41.98 Z" fill="url(#g30)" fill-rule="evenodd" stroke="url(#g30)" stroke-width="0.8" opacity="0.55"/>
<path d="M 98.64 41.11 L 98.43 40.25 L 98.08 39.40 L 97.60 38.56 L 96.98 37.75 L 96.24 36.97 L 95.37 36.21 L 94.38 35.50 L 93.28 34.82 L 92.08 34.20 L 90.78 33.62 L 89.39 33.10 L 87.92 32.63 L 86.38 32.23 L 84.78 31.89 L 83.13 31.61 L 81.45 31.41 L 79.73 31.27 L 78.00 31.20 L 76.26 31.20 L 74.53 31.27 L 72.81 31.41 L 71.12 31.61 L 69.48 31.89 L 67.88 32.23 L 66.34 32.63 L 64.87 33.10 L 63.48 33.62 L 62.18 34.20 L 60.98 34.82 L 59.88 35.50 L 58.89 36.21 L 58.02 36.97 L 57.27 37.75 L 56.66 38.56 L 56.17 39.40 L 55.83 40.25 L 55.62 41.11 L 55.55 41.98 L 55.55 54.44 L 55.62 53.57 L 55.83 52.71 L 56.17 51.86 L 56.66 51.02 L 57.27 50.21 L 58.02 49.43 L 58.89 48.67 L 59.88 47.96 L 60.98 47.28 L 62.18 46.66 L 63.48 46.08 L 64.87 45.56 L 66.34 45.09 L 67.88 44.69 L 69.48 44.35 L 71.12 44.08 L 72.81 43.87 L 74.53 43.73 L 76.26 43.66 L 78.00 43.66 L 79.73 43.73 L 81.45 43.87 L 83.13 44.08 L 84.78 44.35 L 86.38 44.69 L 87.92 45.09 L 89.39 45.56 L 90.78 46.08 L 92.08 46.66 L 93.28 47.28 L 94.38 47.96 L 95.37 48.67 L 96.24 49.43 L 96.98 50.21 L 97.60 51.02 L 98.08 51.86 L 98.43 52.71 L 98.64 53.57 L 98.71 54.44 L 98.71 41.98 Z" fill="url(#g31)" fill-rule="evenodd" stroke="url(#g31)" stroke-width="0.8" opacity="0.55"/>
<path d="M 157.29 54.44 L 157.36 55.31 L 157.57 56.17 L 157.91 57.02 L 158.40 57.86 L 159.01 58.67 L 159.76 59.46 L 160.63 60.21 L 161.62 60.92 L 162.72 61.60 L 163.92 62.22 L 165.22 62.80 L 166.61 63.32 L 168.08 63.79 L 169.62 64.19 L 171.22 64.53 L 172.87 64.81 L 174.55 65.01 L 176.27 65.15 L 178.00 65.22 L 179.74 65.22 L 181.47 65.15 L 183.19 65.01 L 184.88 64.81 L 186.52 64.53 L 188.12 64.19 L 189.66 63.79 L 191.13 63.32 L 192.52 62.80 L 193.82 62.22 L 195.03 61.60 L 196.12 60.92 L 197.11 60.21 L 197.98 59.46 L 198.73 58.67 L 199.34 57.86 L 199.83 57.02 L 200.17 56.17 L 200.38 55.31 L 200.45 54.44 L 200.45 41.98 L 200.38 42.85 L 200.17 43.71 L 199.83 44.56 L 199.34 45.40 L 198.73 46.21 L 197.98 46.99 L 197.11 47.75 L 196.12 48.46 L 195.03 49.14 L 193.82 49.76 L 192.52 50.34 L 191.13 50.86 L 189.66 51.33 L 188.12 51.73 L 186.52 52.07 L 184.88 52.34 L 183.19 52.55 L 181.47 52.69 L 179.74 52.76 L 178.00 52.76 L 176.27 52.69 L 174.55 52.55 L 172.87 52.34 L 171.22 52.07 L 169.62 51.73 L 168.08 51.33 L 166.61 50.86 L 165.22 50.34 L 163.92 49.76 L 162.72 49.14 L 161.62 48.46 L 160.63 47.75 L 159.76 46.99 L 159.01 46.21 L 158.40 45.40 L 157.91 44.56 L 157.57 43.71 L 157.36 42.85 L 157.29 41.98 Z" fill="url(#g32)" fill-rule="evenodd" stroke="url(#g32)" stroke-width="0.8" opacity="0.55"/>
<path d="M 195.57 48.81 L 196.85 47.95 L 197.95 47.02 L 198.86 46.05 L 199.57 45.03 L 200.08 43.99 L 200.37 42.92 L 200.45 41.84 L 200.32 40.77 L 199.97 39.71 L 199.41 38.67 L 198.65 37.66 L 197.69 36.70 L 196.55 35.79 L 195.23 34.94 L 193.75 34.16 L 192.12 33.46 L 190.35 32.84 L 188.48 32.32 L 186.50 31.89 L 184.46 31.56 L 182.35 31.33 L 180.22 31.21 L 178.06 31.20 L 175.92 31.29 L 173.81 31.49 L 171.74 31.79 L 169.75 32.20 L 167.85 32.70 L 166.05 33.30 L 164.39 33.98 L 162.87 34.74 L 161.50 35.57 L 160.31 36.47 L 159.31 37.42 L 158.50 38.42 L 157.89 39.45 L 157.49 40.51 L 157.30 41.58 L 157.33 42.65 L 157.57 43.72 L 158.02 44.77 L 158.68 45.80 L 159.54 46.78 L 160.60 47.72 L 161.83 48.60 L 163.23 49.42 L 164.79 50.16 L 166.49 50.82 L 168.31 51.39 L 170.24 51.87 L 172.25 52.25 L 174.33 52.53 L 176.45 52.70 L 178.60 52.77 L 180.75 52.73 L 182.88 52.58 L 184.97 52.33 L 187.00 51.98 L 188.96 51.52 L 190.81 50.97 L 192.54 50.33 L 194.13 49.61 Z" fill="#006ef8" fill-rule="evenodd" stroke="#006ef8" stroke-width="0.8" opacity="0.55"/>
<path d="M 55.55 54.44 L 55.62 55.31 L 55.83 56.17 L 56.17 57.02 L 56.66 57.86 L 57.27 58.67 L 58.02 59.46 L 58.89 60.21 L 59.88 60.92 L 60.98 61.60 L 62.18 62.22 L 63.48 62.80 L 64.87 63.32 L 66.34 63.79 L 67.88 64.19 L 69.48 64.53 L 71.12 64.81 L 72.81 65.01 L 74.53 65.15 L 76.26 65.22 L 78.00 65.22 L 79.73 65.15 L 81.45 65.01 L 83.13 64.81 L 84.78 64.53 L 86.38 64.19 L 87.92 63.79 L 89.39 63.32 L 90.78 62.80 L 92.08 62.22 L 93.28 61.60 L 94.38 60.92 L 95.37 60.21 L 96.24 59.46 L 96.98 58.67 L 97.60 57.86 L 98.08 57.02 L 98.43 56.17 L 98.64 55.31 L 98.71 54.44 L 98.71 41.98 L 98.64 42.85 L 98.43 43.71 L 98.08 44.56 L 97.60 45.40 L 96.98 46.21 L 96.24 46.99 L 95.37 47.75 L 94.38 48.46 L 93.28 49.14 L 92.08 49.76 L 90.78 50.34 L 89.39 50.86 L 87.92 51.33 L 86.38 51.73 L 84.78 52.07 L 83.13 52.34 L 81.45 52.55 L 79.73 52.69 L 78.00 52.76 L 76.26 52.76 L 74.53 52.69 L 72.81 52.55 L 71.12 52.34 L 69.48 52.07 L 67.88 51.73 L 66.34 51.33 L 64.87 50.86 L 63.48 50.34 L 62.18 49.76 L 60.98 49.14 L 59.88 48.46 L 58.89 47.75 L 58.02 46.99 L 57.27 46.21 L 56.66 45.40 L 56.17 44.56 L 55.83 43.71 L 55.62 42.85 L 55.55 41.98 Z" fill="url(#g34)" fill-rule="evenodd" stroke="url(#g34)" stroke-width="0.8" opacity="0.55"/>
<path d="M 60.42 35.15 L 59.15 36.01 L 58.05 36.94 L 57.14 37.91 L 56.43 38.93 L 55.92 39.97 L 55.63 41.04 L 55.55 42.11 L 55.68 43.19 L 56.03 44.25 L 56.59 45.29 L 57.35 46.30 L 58.30 47.26 L 59.45 48.17 L 60.77 49.02 L 62.25 49.80 L 63.88 50.50 L 65.65 51.12 L 67.52 51.64 L 69.50 52.07 L 71.54 52.40 L 73.65 52.63 L 75.78 52.75 L 77.94 52.76 L 80.08 52.67 L 82.19 52.47 L 84.26 52.17 L 86.25 51.76 L 88.15 51.26 L 89.95 50.66 L 91.61 49.98 L 93.13 49.22 L 94.50 48.39 L 95.69 47.49 L 96.69 46.54 L 97.50 45.54 L 98.11 44.51 L 98.51 43.45 L 98.70 42.38 L 98.67 41.31 L 98.43 40.24 L 97.98 39.19 L 97.32 38.16 L 96.46 37.18 L 95.40 36.24 L 94.17 35.36 L 92.77 34.54 L 91.21 33.80 L 89.51 33.14 L 87.69 32.57 L 85.76 32.09 L 83.75 31.71 L 81.67 31.43 L 79.55 31.26 L 77.40 31.19 L 75.25 31.23 L 73.12 31.38 L 71.03 31.63 L 69.00 31.98 L 67.05 32.44 L 65.19 32.99 L 63.46 33.63 L 61.87 34.35 Z" fill="#006ef8" fill-rule="evenodd" stroke="#006ef8" stroke-width="0.8" opacity="0.55"/>
<path d="M 149.51 66.55 L 149.30 65.68 L 148.96 64.83 L 148.47 64.00 L 147.85 63.19 L 147.11 62.40 L 146.24 61.65 L 145.25 60.93 L 144.16 60.26 L 142.95 59.63 L 141.65 59.06 L 140.26 58.53 L 138.79 58.07 L 137.25 57.67 L 135.65 57.33 L 134.00 57.05 L 132.32 56.84 L 130.60 56.70 L 128.87 56.63 L 127.13 56.63 L 125.40 56.70 L 123.68 56.84 L 122.00 57.05 L 120.35 57.33 L 118.75 57.67 L 117.21 58.07 L 115.74 58.53 L 114.35 59.06 L 113.05 59.63 L 111.84 60.26 L 110.75 60.93 L 109.76 61.65 L 108.89 62.40 L 108.14 63.19 L 107.53 64.00 L 107.05 64.83 L 106.70 65.68 L 106.49 66.55 L 106.42 67.42 L 106.42 79.88 L 106.49 79.01 L 106.70 78.14 L 107.05 77.29 L 107.53 76.46 L 108.14 75.65 L 108.89 74.86 L 109.76 74.11 L 110.75 73.39 L 111.84 72.72 L 113.05 72.09 L 114.35 71.52 L 115.74 71.00 L 117.21 70.53 L 118.75 70.13 L 120.35 69.79 L 122.00 69.51 L 123.68 69.30 L 125.40 69.16 L 127.13 69.09 L 128.87 69.09 L 130.60 69.16 L 132.32 69.30 L 134.00 69.51 L 135.65 69.79 L 137.25 70.13 L 138.79 70.53 L 140.26 71.00 L 141.65 71.52 L 142.95 72.09 L 144.16 72.72 L 145.25 73.39 L 146.24 74.11 L 147.11 74.86 L 147.85 75.65 L 148.47 76.46 L 148.96 77.29 L 149.30 78.14 L 149.51 79.01 L 149.58 79.88 L 149.58 67.42 Z" fill="url(#g36)" fill-rule="evenodd" stroke="url(#g36)" stroke-width="0.8" opacity="0.55"/>
<path d="M 106.42 79.88 L 106.49 80.74 L 106.70 81.61 L 107.05 82.46 L 107.53 83.29 L 108.14 84.11 L 108.89 84.89 L 109.76 85.64 L 110.75 86.36 L 111.84 87.03 L 113.05 87.66 L 114.35 88.23 L 115.74 88.76 L 117.21 89.22 L 118.75 89.62 L 120.35 89.97 L 122.00 90.24 L 123.68 90.45 L 125.40 90.59 L 127.13 90.66 L 128.87 90.66 L 130.60 90.59 L 132.32 90.45 L 134.00 90.24 L 135.65 89.97 L 137.25 89.62 L 138.79 89.22 L 140.26 88.76 L 141.65 88.23 L 142.95 87.66 L 144.16 87.03 L 145.25 86.36 L 146.24 85.64 L 147.11 84.89 L 147.85 84.11 L 148.47 83.29 L 148.96 82.46 L 149.30 81.61 L 149.51 80.74 L 149.58 79.88 L 149.58 67.42 L 149.51 68.28 L 149.30 69.15 L 148.96 70.00 L 148.47 70.83 L 147.85 71.64 L 147.11 72.43 L 146.24 73.18 L 145.25 73.90 L 144.16 74.57 L 142.95 75.20 L 141.65 75.77 L 140.26 76.30 L 138.79 76.76 L 137.25 77.16 L 135.65 77.50 L 134.00 77.78 L 132.32 77.99 L 130.60 78.13 L 128.87 78.20 L 127.13 78.20 L 125.40 78.13 L 123.68 77.99 L 122.00 77.78 L 120.35 77.50 L 118.75 77.16 L 117.21 76.76 L 115.74 76.30 L 114.35 75.77 L 113.05 75.20 L 111.84 74.57 L 110.75 73.90 L 109.76 73.18 L 108.89 72.43 L 108.14 71.64 L 107.53 70.83 L 107.05 70.00 L 106.70 69.15 L 106.49 68.28 L 106.42 67.42 Z" fill="url(#g37)" fill-rule="evenodd" stroke="url(#g37)" stroke-width="0.8" opacity="0.55"/>
<path d="M 114.33 75.77 L 116.06 76.41 L 117.92 76.96 L 119.86 77.41 L 121.90 77.77 L 123.99 78.02 L 126.12 78.17 L 128.27 78.21 L 130.42 78.14 L 132.54 77.97 L 134.62 77.69 L 136.63 77.31 L 138.56 76.83 L 140.38 76.25 L 142.08 75.59 L 143.64 74.85 L 145.04 74.04 L 146.27 73.16 L 147.33 72.22 L 148.19 71.23 L 148.85 70.21 L 149.30 69.16 L 149.54 68.09 L 149.57 67.01 L 149.38 65.94 L 148.98 64.88 L 148.37 63.85 L 147.56 62.85 L 146.56 61.90 L 145.37 61.01 L 144.00 60.17 L 142.48 59.41 L 140.82 58.73 L 139.02 58.14 L 137.12 57.63 L 135.13 57.23 L 133.06 56.92 L 130.95 56.73 L 128.81 56.63 L 126.66 56.65 L 124.52 56.77 L 122.41 56.99 L 120.37 57.32 L 118.39 57.75 L 116.52 58.28 L 114.75 58.90 L 113.12 59.60 L 111.64 60.38 L 110.32 61.23 L 109.18 62.14 L 108.22 63.10 L 107.46 64.11 L 106.90 65.14 L 106.55 66.21 L 106.42 67.28 L 106.50 68.36 L 106.79 69.42 L 107.30 70.47 L 108.01 71.48 L 108.92 72.46 L 110.02 73.38 L 111.30 74.25 L 112.74 75.05 Z" fill="#006ef8" fill-rule="evenodd" stroke="#006ef8" stroke-width="0.8" opacity="0.55"/>
</g>
<g stroke="black" fill="none" stroke-linecap="round">
<path d="M 143.26 136.84 A 21.58 10.79 180.00 0 0 112.74 121.57 A 21.58 10.79 180.00 0 0 143.26 136.84" stroke-width="2.00"/>
<path d="M 148.35 139.38 A 28.78 14.39 180.00 0 0 107.65 119.03 A 28.78 14.39 180.00 0 0 148.35 139.38" stroke-width="2.00"/>
<line x1="149.58" y1="129.20" x2="149.58" y2="116.74" stroke-width="2.00"/>
<line x1="106.42" y1="129.20" x2="106.42" y2="116.74" stroke-width="2.00"/>
<path d="M 143.26 136.84 A 21.58 10.79 180.00 0 0 112.74 121.57 A 21.58 10.79 180.00 0 0 143.26 136.84" stroke-width="2.00"/>
<path d="M 143.26 124.37 A 21.58 10.79 180.00 0 0 112.74 109.11 A 21.58 10.79 180.00 0 0 143.26 124.37" stroke-width="2.00"/>
<line x1="156.78" y1="129.20" x2="156.78" y2="116.74" stroke-width="2.00"/>
<line x1="99.22" y1="129.20" x2="99.22" y2="116.74" stroke-width="2.00"/>
<path d="M 148.35 139.38 A 28.78 14.39 180.00 0 0 107.65 119.03 A 28.78 14.39 180.00 0 0 148.35 139.38" stroke-width="2.00"/>
<path d="M 148.35 139.38 A 28.78 14.39 180.00 0 0 107.65 119.03 A 28.78 14.39 180.00 0 0 148.35 139.38" stroke-width="2.00"/>
<path d="M 143.26 136.84 A 21.58 10.79 180.00 0 0 112.74 121.57 A 21.58 10.79 180.00 0 0 143.26 136.84" stroke-width="2.00"/>
<path d="M 148.35 77.08 A 28.78 14.39 180.00 0 0 107.65 56.73 A 28.78 14.39 180.00 0 0 148.35 77.08" stroke-width="2.00"/>
<line x1="156.78" y1="66.90" x2="156.78" y2="116.74" stroke-width="2.00"/>
<line x1="99.22" y1="66.90" x2="99.22" y2="116.74" stroke-width="2.00"/>
<path d="M 148.35 77.08 A 28.78 14.39 180.00 0 0 107.65 56.73 A 28.78 14.39 180.00 0 0 148.35 77.08" stroke-width="2.00"/>
<path d="M 147.94 120.87 A 21.58 10.79 -180.00 0 0 147.94 112.61" stroke-width="2.00"/>
<path d="M 119.74 126.71 A 21.58 10.79 0.00 0 0 136.26 126.71" stroke-width="2.00"/>
<path d="M 108.06 112.61 A 21.58 10.79 -180.00 0 0 108.06 120.87" stroke-width="2.00"/>
<path d="M 136.26 106.77 A 21.58 10.79 0.00 0 0 119.74 106.77" stroke-width="2.00"/>
<path d="M 178.87 79.88 A 71.94 35.97 -180.00 0 0 77.13 29.01 A 71.94 35.97 -180.00 0 0 178.87 79.88" stroke-width="2.00"/>
<path d="M 155.53 162.44 A 71.94 35.97 -180.00 0 0 194.47 142.97" stroke-width="2.00"/>
<path d="M 155.53 162.44 A 71.94 35.97 -180.00 0 0 194.47 142.97" stroke-width="2.00"/>
<path d="M 61.53 142.97 A 71.94 35.97 -180.00 0 0 100.47 162.44" stroke-width="2.00"/>
<path d="M 61.53 142.97 A 71.94 35.97 -180.00 0 0 100.47 162.44" stroke-width="2.00"/>
<path d="M 100.47 95.97 A 71.94 35.97 180.00 0 0 61.53 115.44" stroke-width="2.00"/>
<path d="M 100.47 95.97 A 71.94 35.97 180.00 0 0 61.53 115.44" stroke-width="2.00"/>
<path d="M 194.47 115.44 A 71.94 35.97 180.00 0 0 155.53 95.97" stroke-width="2.00"/>
<path d="M 194.47 115.44 A 71.94 35.97 180.00 0 0 155.53 95.97" stroke-width="2.00"/>
<path d="M 168.70 87.25 A 57.55 28.78 180.00 0 0 87.30 46.55 A 57.55 28.78 180.00 0 0 168.70 87.25" stroke-width="2.00"/>
<path d="M 148.35 77.08 A 28.78 14.39 180.00 0 0 107.65 56.73 A 28.78 14.39 180.00 0 0 148.35 77.08" stroke-width="2.00"/>
<line x1="185.55" y1="66.90" x2="185.55" y2="116.74" stroke-width="2.00"/>
<line x1="70.45" y1="66.90" x2="70.45" y2="116.74" stroke-width="2.00"/>
<path d="M 168.70 87.25 A 57.55 28.78 180.00 0 0 87.30 46.55 A 57.55 28.78 180.00 0 0 168.70 87.25" stroke-width="2.00"/>
<path d="M 168.70 137.09 A 57.55 28.78 -180.00 0 0 87.30 96.40 A 57.55 28.78 -180.00 0 0 168.70 137.09" stroke-width="2.00"/>
<path d="M 194.13 62.07 A 21.58 10.79 180.00 0 0 163.61 46.81 A 21.58 10.79 180.00 0 0 194.13 62.07" stroke-width="2.00"/>
<path d="M 194.13 49.61 A 21.58 10.79 -180.00 0 0 163.61 34.35 A 21.58 10.79 -180.00 0 0 194.13 49.61" stroke-width="2.00"/>
<line x1="200.45" y1="54.44" x2="200.45" y2="41.98" stroke-width="2.00"/>
<line x1="157.29" y1="54.44" x2="157.29" y2="41.98" stroke-width="2.00"/>
<path d="M 194.13 62.07 A 21.58 10.79 180.00 0 0 163.61 46.81 A 21.58 10.79 180.00 0 0 194.13 62.07" stroke-width="2.00"/>
<path d="M 194.13 49.61 A 21.58 10.79 -180.00 0 0 163.61 34.35 A 21.58 10.79 -180.00 0 0 194.13 49.61" stroke-width="2.00"/>
<path d="M 194.13 49.61 A 21.58 10.79 -180.00 0 0 163.61 34.35 A 21.58 10.79 -180.00 0 0 194.13 49.61" stroke-width="2.00"/>
<path d="M 143.26 21.37 A 21.58 10.79 -180.00 0 0 112.74 36.64 A 21.58 10.79 -180.00 0 0 143.26 21.37" stroke-width="2.00"/>
<path d="M 143.26 8.91 A 21.58 10.79 -180.00 0 0 112.74 24.18 A 21.58 10.79 -180.00 0 0 143.26 8.91" stroke-width="2.00"/>
<line x1="149.58" y1="29.01" x2="149.58" y2="16.54" stroke-width="2.00"/>
<line x1="106.42" y1="29.01" x2="106.42" y2="16.54" stroke-width="2.00"/>
<path d="M 143.26 21.37 A 21.58 10.79 -180.00 0 0 112.74 36.64 A 21.58 10.79 -180.00 0 0 143.26 21.37" stroke-width="2.00"/>
<path d="M 143.26 8.91 A 21.58 10.79 -180.00 0 0 112.74 24.18 A 21.58 10.79 -180.00 0 0 143.26 8.91" stroke-width="2.00"/>
<path d="M 143.26 8.91 A 21.58 10.79 -180.00 0 0 112.74 24.18 A 21.58 10.79 -180.00 0 0 143.26 8.91" stroke-width="2.00"/>
<path d="M 112.74 87.51 A 21.58 10.79 180.00 0 0 143.26 72.25 A 21.58 10.79 180.00 0 0 112.74 87.51" stroke-width="2.00"/>
<path d="M 112.74 75.05 A 21.58 10.79 180.00 0 0 143.26 59.78 A 21.58 10.79 180.00 0 0 112.74 75.05" stroke-width="2.00"/>
<line x1="149.58" y1="79.88" x2="149.58" y2="67.42" stroke-width="2.00"/>
<line x1="106.42" y1="79.88" x2="106.42" y2="67.42" stroke-width="2.00"/>
<path d="M 112.74 87.51 A 21.58 10.79 180.00 0 0 143.26 72.25 A 21.58 10.79 180.00 0 0 112.74 87.51" stroke-width="2.00"/>
<path d="M 112.74 75.05 A 21.58 10.79 180.00 0 0 143.26 59.78 A 21.58 10.79 180.00 0 0 112.74 75.05" stroke-width="2.00"/>
<path d="M 112.74 75.05 A 21.58 10.79 180.00 0 0 143.26 59.78 A 21.58 10.79 180.00 0 0 112.74 75.05" stroke-width="2.00"/>
<path d="M 61.87 46.81 A 21.58 10.79 180.00 0 0 92.39 62.07 A 21.58 10.79 180.00 0 0 61.87 46.81" stroke-width="2.00"/>
<path d="M 61.87 34.35 A 21.58 10.79 -180.00 0 0 92.39 49.61 A 21.58 10.79 -180.00 0 0 61.87 34.35" stroke-width="2.00"/>
<line x1="98.71" y1="54.44" x2="98.71" y2="41.98" stroke-width="2.00"/>
<line x1="55.55" y1="54.44" x2="55.55" y2="41.98" stroke-width="2.00"/>
<path d="M 61.87 46.81 A 21.58 10.79 180.00 0 0 92.39 62.07 A 21.58 10.79 180.00 0 0 61.87 46.81" stroke-width="2.00"/>
<path d="M 61.87 34.35 A 21.58 10.79 -180.00 0 0 92.39 49.61 A 21.58 10.79 -180.00 0 0 61.87 34.35" stroke-width="2.00"/>
<path d="M 61.87 34.35 A 21.58 10.79 -180.00 0 0 92.39 49.61 A 21.58 10.79 -180.00 0 0 61.87 34.35" stroke-width="2.00"/>
<line x1="199.94" y1="54.44" x2="199.94" y2="116.74" stroke-width="2.00"/>
<line x1="56.06" y1="54.44" x2="56.06" y2="116.74" stroke-width="2.00"/>
<path d="M 178.87 79.88 A 71.94 35.97 -180.00 0 0 77.13 29.01 A 71.94 35.97 -180.00 0 0 178.87 79.88" stroke-width="2.00"/>
<path d="M 178.87 142.18 A 71.94 35.97 -180.00 0 0 77.13 91.31 A 71.94 35.97 -180.00 0 0 178.87 142.18" stroke-width="2.00"/>
<line x1="147.34" y1="121.33" x2="147.94" y2="120.87" stroke-width="2.00"/>
<line x1="147.94" y1="112.61" x2="147.34" y2="112.16" stroke-width="2.00"/>
<line x1="118.84" y1="126.41" x2="119.74" y2="126.71" stroke-width="2.00"/>
<line x1="136.26" y1="126.71" x2="137.16" y2="126.41" stroke-width="2.00"/>
<line x1="108.66" y1="112.16" x2="108.06" y2="112.61" stroke-width="2.00"/>
<line x1="108.06" y1="120.87" x2="108.66" y2="121.33" stroke-width="2.00"/>
<line x1="137.16" y1="107.08" x2="136.26" y2="106.77" stroke-width="2.00"/>
<line x1="119.74" y1="106.77" x2="118.84" y2="107.08" stroke-width="2.00"/>
<line x1="147.34" y1="59.02" x2="143.26" y2="56.98" stroke-width="2.00"/>
<line x1="143.26" y1="56.98" x2="140.72" y2="54.44" stroke-width="2.00"/>
<line x1="140.72" y1="54.44" x2="143.26" y2="51.90" stroke-width="2.00"/>
<line x1="143.26" y1="51.90" x2="147.34" y2="49.86" stroke-width="2.00"/>
<line x1="137.16" y1="44.77" x2="133.09" y2="46.81" stroke-width="2.00"/>
<line x1="133.09" y1="46.81" x2="128.00" y2="48.08" stroke-width="2.00"/>
<line x1="128.00" y1="48.08" x2="122.91" y2="46.81" stroke-width="2.00"/>
<line x1="122.91" y1="46.81" x2="118.84" y2="44.77" stroke-width="2.00"/>
<line x1="108.66" y1="49.86" x2="112.74" y2="51.90" stroke-width="2.00"/>
<line x1="112.74" y1="51.90" x2="115.28" y2="54.44" stroke-width="2.00"/>
<line x1="115.28" y1="54.44" x2="112.74" y2="56.98" stroke-width="2.00"/>
<line x1="112.74" y1="56.98" x2="108.66" y2="59.02" stroke-width="2.00"/>
<line x1="118.84" y1="64.11" x2="122.91" y2="62.07" stroke-width="2.00"/>
<line x1="122.91" y1="62.07" x2="128.00" y2="60.80" stroke-width="2.00"/>
<line x1="128.00" y1="60.80" x2="133.09" y2="62.07" stroke-width="2.00"/>
<line x1="133.09" y1="62.07" x2="137.16" y2="64.11" stroke-width="2.00"/>
<line x1="147.34" y1="121.33" x2="143.26" y2="119.29" stroke-width="2.00"/>
<line x1="143.26" y1="119.29" x2="140.72" y2="116.74" stroke-width="2.00"/>
<line x1="140.72" y1="116.74" x2="143.26" y2="114.20" stroke-width="2.00"/>
<line x1="143.26" y1="114.20" x2="147.34" y2="112.16" stroke-width="2.00"/>
<line x1="137.16" y1="107.08" x2="133.09" y2="109.11" stroke-width="2.00"/>
<line x1="133.09" y1="109.11" x2="128.00" y2="110.39" stroke-width="2.00"/>
<line x1="128.00" y1="110.39" x2="122.91" y2="109.11" stroke-width="2.00"/>
<line x1="122.91" y1="109.11" x2="118.84" y2="107.08" stroke-width="2.00"/>
<line x1="108.66" y1="112.16" x2="112.74" y2="114.20" stroke-width="2.00"/>
<line x1="112.74" y1="114.20" x2="115.28" y2="116.74" stroke-width="2.00"/>
<line x1="115.28" y1="116.74" x2="112.74" y2="119.29" stroke-width="2.00"/>
<line x1="112.74" y1="119.29" x2="108.66" y2="121.33" stroke-width="2.00"/>
<line x1="118.84" y1="126.41" x2="122.91" y2="124.37" stroke-width="2.00"/>
<line x1="122.91" y1="124.37" x2="128.00" y2="123.10" stroke-width="2.00"/>
<line x1="128.00" y1="123.10" x2="133.09" y2="124.37" stroke-width="2.00"/>
<line x1="133.09" y1="124.37" x2="137.16" y2="126.41" stroke-width="2.00"/>
<line x1="147.34" y1="121.33" x2="147.34" y2="59.02" stroke-width="2.00"/>
<line x1="147.34" y1="112.16" x2="147.34" y2="49.86" stroke-width="2.00"/>
<line x1="137.16" y1="107.08" x2="137.16" y2="44.77" stroke-width="2.00"/>
<line x1="118.84" y1="107.08" x2="118.84" y2="44.77" stroke-width="2.00"/>
<line x1="108.66" y1="112.16" x2="108.66" y2="49.86" stroke-width="2.00"/>
<line x1="108.66" y1="121.33" x2="108.66" y2="59.02" stroke-width="2.00"/>
<line x1="118.84" y1="126.41" x2="118.84" y2="64.11" stroke-width="2.00"/>
<line x1="137.16" y1="126.41" x2="137.16" y2="64.11" stroke-width="2.00"/>
<line x1="143.26" y1="62.07" x2="147.34" y2="59.02" stroke-width="2.00"/>
<line x1="147.34" y1="49.86" x2="143.26" y2="46.81" stroke-width="2.00"/>
<line x1="112.74" y1="46.81" x2="118.84" y2="44.77" stroke-width="2.00"/>
<line x1="137.16" y1="44.77" x2="143.26" y2="46.81" stroke-width="2.00"/>
<line x1="143.26" y1="62.07" x2="137.16" y2="64.11" stroke-width="2.00"/>
<line x1="118.84" y1="64.11" x2="112.74" y2="62.07" stroke-width="2.00"/>
<line x1="112.74" y1="46.81" x2="108.66" y2="49.86" stroke-width="2.00"/>
<line x1="108.66" y1="59.02" x2="112.74" y2="62.07" stroke-width="2.00"/>
<line x1="197.59" y1="122.64" x2="197.59" y2="135.11" stroke-width="2.00"/>
<line x1="197.59" y1="135.11" x2="139.80" y2="164.00" stroke-width="2.00"/>
<line x1="139.80" y1="164.00" x2="139.80" y2="151.54" stroke-width="2.00"/>
<line x1="139.80" y1="151.54" x2="197.59" y2="122.64" stroke-width="2.00"/>
<line x1="116.20" y1="151.54" x2="116.20" y2="164.00" stroke-width="2.00"/>
<line x1="116.20" y1="164.00" x2="58.41" y2="135.11" stroke-width="2.00"/>
<line x1="58.41" y1="135.11" x2="58.41" y2="122.64" stroke-width="2.00"/>
<line x1="58.41" y1="122.64" x2="116.20" y2="151.54" stroke-width="2.00"/>
<line x1="58.41" y1="110.84" x2="58.41" y2="123.30" stroke-width="2.00"/>
<line x1="58.41" y1="123.30" x2="116.20" y2="94.41" stroke-width="2.00"/>
<line x1="116.20" y1="94.41" x2="116.20" y2="81.95" stroke-width="2.00"/>
<line x1="116.20" y1="81.95" x2="58.41" y2="110.84" stroke-width="2.00"/>
<line x1="139.80" y1="81.95" x2="139.80" y2="94.41" stroke-width="2.00"/>
<line x1="139.80" y1="94.41" x2="197.59" y2="123.30" stroke-width="2.00"/>
<line x1="197.59" y1="123.30" x2="197.59" y2="110.84" stroke-width="2.00"/>
<line x1="197.59" y1="110.84" x2="139.80" y2="81.95" stroke-width="2.00"/>
<line x1="194.46" y1="142.98" x2="197.59" y2="135.11" stroke-width="2.00"/>
<line x1="197.59" y1="123.30" x2="194.46" y2="115.43" stroke-width="2.00"/>
<line x1="116.20" y1="94.41" x2="100.45" y2="95.97" stroke-width="2.00"/>
<line x1="155.55" y1="95.97" x2="139.80" y2="94.41" stroke-width="2.00"/>
<line x1="139.80" y1="164.00" x2="155.55" y2="162.44" stroke-width="2.00"/>
<line x1="100.45" y1="162.44" x2="116.20" y2="164.00" stroke-width="2.00"/>
<line x1="61.54" y1="115.43" x2="58.41" y2="123.30" stroke-width="2.00"/>
<line x1="58.41" y1="135.11" x2="61.54" y2="142.98" stroke-width="2.00"/>
<line x1="197.59" y1="122.64" x2="199.93" y2="116.74" stroke-width="2.00"/>
<line x1="199.93" y1="116.74" x2="197.59" y2="110.84" stroke-width="2.00"/>
<line x1="116.20" y1="81.95" x2="128.00" y2="80.78" stroke-width="2.00"/>
<line x1="128.00" y1="80.78" x2="139.80" y2="81.95" stroke-width="2.00"/>
<line x1="139.80" y1="151.54" x2="128.00" y2="152.71" stroke-width="2.00"/>
<line x1="128.00" y1="152.71" x2="116.20" y2="151.54" stroke-width="2.00"/>
<line x1="58.41" y1="110.84" x2="56.07" y2="116.74" stroke-width="2.00"/>
<line x1="56.07" y1="116.74" x2="58.41" y2="122.64" stroke-width="2.00"/>
<line x1="140.72" y1="116.74" x2="140.72" y2="54.44" stroke-width="2.00"/>
<line x1="115.28" y1="116.74" x2="115.28" y2="54.44" stroke-width="2.00"/>
</g>
</svg>