<svg xmlns="http://www.w3.org/2000/svg" viewBox="0 0 256 170" preserveAspectRatio="xMidYMid meet">
<defs><radialGradient id="g0" gradientUnits="userSpaceOnUse" cx="0" cy="0" r="1" fx="-0.581" fy="0.227" gradientTransform="matrix(122.01 0 0 61.00 128.00 74.43)"><stop offset="0.0%" stop-color="#d1d9d4"/><stop offset="6.2%" stop-color="#d1d9d4"/><stop offset="18.8%" stop-color="#cfd7d2"/><stop offset="31.2%" stop-color="#ccd4cf"/><stop offset="43.8%" stop-color="#c7cfca"/><stop offset="56.2%" stop-color="#c5ccc7"/><stop offset="68.8%" stop-color="#c1c8c4"/><stop offset="81.2%" stop-color="#bdc4bf"/><stop offset="93.8%" stop-color="#b2b8b4"/><stop offset="100.0%" stop-color="#b2b8b4"/></radialGradient><linearGradient id="g1" gradientUnits="userSpaceOnUse" x1="158.50" y1="73.31" x2="97.50" y2="73.31"><stop offset="0.0%" stop-color="#979d99"/><stop offset="3.8%" stop-color="#9ea4a0"/><stop offset="14.6%" stop-color="#9aa09c"/><stop offset="30.9%" stop-color="#8b918d"/><stop offset="50.0%" stop-color="#757976"/><stop offset="69.1%" stop-color="#595c5a"/><stop offset="85.4%" stop-color="#555956"/><stop offset="96.2%" stop-color="#555956"/><stop offset="100.0%" stop-color="#555956"/></linearGradient><linearGradient id="g2" gradientUnits="userSpaceOnUse" x1="250.00" y1="85.00" x2="6.00" y2="85.00"><stop offset="0.0%" stop-color="#979d99"/><stop offset="3.8%" stop-color="#9ea4a0"/><stop offset="14.6%" stop-color="#9aa09c"/><stop offset="30.9%" stop-color="#8b918d"/><stop offset="50.0%" stop-color="#757976"/><stop offset="69.1%" stop-color="#595c5a"/><stop offset="85.4%" stop-color="#555956"/><stop offset="96.2%" stop-color="#555956"/><stop offset="100.0%" stop-color="#555956"/></linearGradient><linearGradient id="g4" gradientUnits="userSpaceOnUse" x1="109.70" y1="48.02" x2="146.30" y2="48.02"><stop offset="0.0%" stop-color="#979d99"/><stop offset="3.8%" stop-color="#9ea4a0"/><stop offset="14.6%" stop-color="#9aa09c"/><stop offset="30.9%" stop-color="#8b918d"/><stop offset="50.0%" stop-color="#757976"/><stop offset="69.1%" stop-color="#595c5a"/><stop offset="85.4%" stop-color="#555956"/><stop offset="96.2%" stop-color="#555956"/><stop offset="100.0%" stop-color="#555956"/></linearGradient><linearGradient id="g6" gradientUnits="userSpaceOnUse" x1="18.20" y1="88.96" x2="237.80" y2="88.96"><stop offset="0.0%" stop-color="#979d99"/><stop offset="3.8%" stop-color="#9ea4a0"/><stop offset="14.6%" stop-color="#9aa09c"/><stop offset="30.9%" stop-color="#8b918d"/><stop offset="50.0%" stop-color="#757976"/><stop offset="69.1%" stop-color="#595c5a"/><stop offset="85.4%" stop-color="#555956"/><stop offset="96.2%" stop-color="#555956"/><stop offset="100.0%" stop-color="#555956"/></linearGradient><linearGradient id="g7" gradientUnits="userSpaceOnUse" x1="6.00" y1="85.00" x2="250.00" y2="85.00"><stop offset="0.0%" stop-color="#979d99"/><stop offset="3.8%" stop-color="#9ea4a0"/><stop offset="14.6%" stop-color="#9aa09c"/><stop offset="30.9%" stop-color="#8b918d"/><stop offset="50.0%" stop-color="#757976"/><stop offset="69.1%" stop-color="#595c5a"/><stop offset="85.4%" stop-color="#555956"/><stop offset="96.2%" stop-color="#555956"/><stop offset="100.0%" stop-color="#555956"/></linearGradient></defs>
<g stroke-linejoin="round">
<path d="M 7.04 82.40 L 8.68 86.51 L 10.16 90.22 L 11.25 91.83 L 15.28 97.78 L 22.35 104.93 L 22.44 104.92 L 23.15 105.53 L 31.00 111.41 A 122.00 61.00 -180.00 0 0 240.72 97.78 L 243.18 94.15 L 243.18 94.15 L 245.09 91.33 L 245.84 90.22 L 247.09 87.09 L 247.97 84.88 L 248.96 82.40 A 122.00 61.00 -180.00 0 0 128.00 13.44 A 122.00 61.00 -180.00 0 0 7.04 82.40 Z M 7.13 82.36 L 7.14 82.40 L 7.04 82.40 L 7.13 82.36 Z M 11.71 89.46 L 11.72 89.46 L 11.75 89.55 L 11.77 89.63 L 11.78 89.72 L 11.79 89.81 L 11.79 90.17 L 10.16 90.22 L 11.71 89.46 Z M 15.32 97.76 L 15.33 97.78 A 122.00 61.00 -180.00 0 1 15.32 97.76 Z M 81.29 130.74 L 81.33 130.75 L 81.31 130.79 L 81.29 130.74 Z M 112.05 134.89 A 122.00 61.00 -180.00 0 0 112.08 134.92 L 112.05 134.89 Z M 109.70 53.30 L 109.70 52.13 L 109.70 51.12 L 109.70 50.35 L 109.70 49.85 L 109.70 49.59 L 109.70 49.51 L 109.70 44.15 L 109.70 42.74 A 18.30 9.15 180.00 0 1 110.00 41.11 L 109.43 41.21 L 110.05 41.00 A 18.30 9.15 180.00 0 1 145.95 41.00 L 146.57 41.21 L 146.00 41.11 A 18.30 9.15 180.00 0 1 146.30 42.74 L 146.30 44.15 L 146.30 48.81 L 146.30 49.51 L 146.30 49.59 L 146.30 49.85 L 146.30 50.35 L 146.30 51.12 L 146.30 52.13 L 146.30 53.30 A 18.30 9.15 180.00 0 1 109.70 53.30 Z M 100.65 58.13 L 100.69 58.20 L 100.73 58.28 L 100.76 58.37 L 100.78 58.45 L 100.80 58.54 L 100.80 58.63 L 100.80 58.96 L 100.80 59.77 L 99.86 58.39 A 30.50 15.25 -180.00 0 1 100.35 57.85 L 100.40 57.88 L 100.47 57.93 L 100.54 57.99 L 100.60 58.06 L 100.65 58.13 Z" fill="url(#g0)" fill-rule="evenodd" stroke="url(#g0)" stroke-width="0.8"/>
<path d="M 100.73 60.17 L 100.76 60.09 L 100.78 60.00 L 100.80 59.92 L 100.80 59.83 L 100.80 58.63 L 100.80 58.54 L 100.78 58.45 L 100.76 58.37 L 100.73 58.28 L 100.69 58.20 L 100.65 58.13 L 100.60 58.06 L 100.54 57.99 L 100.47 57.93 L 100.40 57.88 L 100.35 57.85 A 30.50 15.25 -180.00 0 0 99.09 59.40 L 99.82 59.14 L 100.76 60.09 L 100.73 60.17 L 100.70 60.24 L 100.73 60.17 Z" fill="url(#g1)" fill-rule="evenodd" stroke="url(#g1)" stroke-width="0.8"/>
<path d="M 249.08 67.37 L 250.00 74.44 L 249.08 81.50 L 249.60 79.34 A 122.00 61.00 -180.00 0 0 249.60 69.53 L 249.08 67.37 Z M 246.46 59.84 L 246.01 59.06 L 248.71 65.82 L 248.42 64.65 L 246.46 59.84 Z M 241.13 51.71 L 245.33 57.89 L 243.72 55.12 L 241.13 51.71 Z M 236.03 46.09 L 234.30 44.59 L 240.50 50.87 A 122.00 61.00 -180.00 0 0 236.03 46.09 Z M 225.00 37.46 L 232.84 43.33 L 231.11 41.83 A 122.00 61.00 -180.00 0 0 225.00 37.46 Z M 215.34 31.91 L 224.08 36.90 L 219.32 33.98 L 215.34 31.91 Z M 205.16 27.18 L 203.14 26.43 L 213.62 31.02 A 122.00 61.00 -180.00 0 0 205.16 27.18 Z M 180.30 19.32 L 176.24 18.46 L 189.00 21.61 L 200.95 25.60 L 197.30 24.23 A 122.00 61.00 -180.00 0 0 180.30 19.32 Z M 160.38 15.65 L 173.48 17.87 A 122.00 61.00 -180.00 0 0 160.38 15.65 Z M 145.30 14.09 L 157.98 15.36 L 152.40 14.67 L 145.30 14.09 Z M 129.51 13.48 L 143.41 13.94 A 122.00 61.00 -180.00 0 0 129.51 13.48 Z M 112.59 13.94 L 126.49 13.48 A 122.00 61.00 -180.00 0 0 112.59 13.94 Z M 98.02 15.36 L 110.70 14.09 L 103.60 14.67 L 98.02 15.36 Z M 82.52 17.87 L 95.62 15.65 A 122.00 61.00 -180.00 0 0 82.52 17.87 Z M 58.70 24.23 L 55.05 25.60 L 67.00 21.61 L 79.76 18.46 L 75.70 19.32 A 122.00 61.00 -180.00 0 0 58.70 24.23 Z M 42.38 31.02 L 52.86 26.43 L 50.84 27.18 A 122.00 61.00 -180.00 0 0 42.38 31.02 Z M 31.92 36.90 L 40.66 31.91 L 36.68 33.98 L 31.92 36.90 Z M 24.89 41.83 L 23.16 43.33 L 31.00 37.46 A 122.00 61.00 -180.00 0 0 24.89 41.83 Z M 15.50 50.87 L 21.70 44.59 L 19.97 46.09 A 122.00 61.00 -180.00 0 0 15.50 50.87 Z M 10.67 57.89 L 14.87 51.71 L 12.28 55.12 L 10.67 57.89 Z M 7.58 64.65 L 7.29 65.82 L 9.99 59.06 L 9.54 59.84 L 7.58 64.65 Z M 6.40 79.34 L 6.92 81.50 L 6.00 74.44 L 6.92 67.37 L 6.40 69.53 A 122.00 61.00 -180.00 0 0 6.40 79.34 Z M 7.29 83.05 L 7.58 84.22 L 7.90 85.00 L 7.99 84.78 L 7.29 83.05 Z M 248.42 84.22 L 248.71 83.05 L 248.01 84.78 L 248.10 85.00 L 248.42 84.22 Z" fill="url(#g2)" fill-rule="evenodd" stroke="url(#g2)" stroke-width="0.8"/>
<path d="M 248.14 85.40 L 248.05 85.12 L 247.97 84.88 L 247.09 87.09 L 246.01 89.81 L 246.46 89.03 L 247.24 87.11 L 247.94 85.40 L 248.12 85.40 L 248.14 85.40 Z M 8.14 86.58 L 8.09 86.60 L 8.12 86.60 L 8.55 86.60 L 9.54 89.03 L 9.99 89.81 L 8.68 86.51 L 8.03 84.89 L 7.95 85.11 L 8.51 86.51 L 8.48 86.51 L 8.40 86.51 L 8.31 86.53 L 8.22 86.55 L 8.14 86.58 Z M 14.86 97.16 L 11.25 91.83 L 11.25 91.83 L 10.67 90.98 L 11.18 91.86 L 12.28 93.75 L 14.86 97.16 Z M 11.79 89.81 L 11.78 89.72 L 11.77 89.63 L 11.75 89.55 L 11.72 89.46 L 11.71 89.46 L 11.71 89.46 L 10.22 90.19 L 10.23 90.22 L 11.79 90.17 L 11.79 89.81 Z M 237.02 101.74 L 240.24 98.34 L 240.50 98.00 L 237.09 101.45 L 237.02 101.74 Z M 241.14 97.16 L 243.35 94.24 A 122.00 61.00 -180.00 0 0 243.72 93.75 L 245.12 91.34 L 245.33 90.98 L 245.09 91.33 L 243.18 94.15 L 243.11 94.10 L 243.18 94.15 L 241.14 97.16 Z M 15.76 98.34 L 18.98 101.74 L 18.91 101.45 L 15.50 98.00 L 15.76 98.34 Z" fill="#cad1cc" fill-rule="evenodd" stroke="#cad1cc" stroke-width="0.8"/>
<path d="M 146.30 53.30 L 146.30 42.74 A 18.30 9.15 180.00 0 1 127.77 51.89 A 18.30 9.15 180.00 0 1 109.70 42.74 L 109.70 53.30 A 18.30 9.15 180.00 0 0 146.30 53.30 Z" fill="url(#g4)" fill-rule="evenodd" stroke="url(#g4)" stroke-width="0.8"/>
<path d="M 144.95 46.19 A 18.30 9.15 180.00 0 0 110.73 39.72 A 18.30 9.15 180.00 0 0 144.95 46.19 Z" fill="#cad1cc" fill-rule="evenodd" stroke="#cad1cc" stroke-width="0.8"/>
<path d="M 19.97 102.78 L 21.70 104.28 L 18.91 101.45 L 18.98 101.74 L 19.97 102.78 Z M 234.29 104.28 L 236.03 102.78 L 237.02 101.74 L 237.09 101.45 L 234.29 104.28 Z M 31.00 111.41 L 23.15 105.53 L 24.89 107.04 A 122.00 61.00 -180.00 0 0 31.00 111.41 Z M 213.62 117.85 L 203.13 122.45 L 205.16 121.69 A 122.00 61.00 -180.00 0 0 213.62 117.85 Z M 219.32 114.89 L 224.08 111.97 L 215.34 116.96 L 219.32 114.89 Z M 231.11 107.04 L 232.85 105.53 L 225.00 111.41 A 122.00 61.00 -180.00 0 0 231.11 107.04 Z M 50.84 121.69 L 52.87 122.45 L 42.38 117.85 A 122.00 61.00 -180.00 0 0 50.84 121.69 Z M 36.68 114.89 L 40.66 116.96 L 31.92 111.97 L 36.68 114.89 Z" fill="url(#g6)" fill-rule="evenodd" stroke="url(#g6)" stroke-width="0.8"/>
<path d="M 250.00 95.57 L 250.00 74.44 L 249.60 79.34 L 249.08 81.50 L 248.96 82.40 L 248.71 83.05 L 248.42 84.22 L 248.05 85.12 L 248.14 85.40 L 248.12 85.40 L 247.94 85.40 L 247.24 87.11 L 246.46 89.03 L 246.01 89.81 L 245.85 90.21 L 245.81 90.20 L 245.78 90.20 L 245.33 90.98 L 245.12 91.34 L 243.72 93.75 A 122.00 61.00 -180.00 0 1 243.35 94.24 L 241.14 97.16 L 240.72 97.78 A 122.00 61.00 -180.00 0 1 236.03 102.78 L 234.29 104.28 L 233.65 104.93 L 232.85 105.53 L 231.11 107.04 A 122.00 61.00 -180.00 0 1 224.78 111.57 L 224.08 111.97 L 219.32 114.89 L 215.34 116.96 L 214.27 117.57 A 122.00 61.00 -180.00 0 1 205.16 121.69 L 203.13 122.45 L 202.27 122.83 L 200.97 123.26 L 197.30 124.64 A 122.00 61.00 -180.00 0 1 180.30 129.54 L 176.23 130.41 L 174.69 130.79 A 122.00 61.00 -180.00 0 1 159.57 133.35 L 158.00 133.51 L 152.40 134.20 A 122.00 61.00 -180.00 0 1 103.60 134.20 L 98.00 133.51 L 96.43 133.35 A 122.00 61.00 -180.00 0 1 81.31 130.79 L 79.77 130.41 L 75.70 129.54 A 122.00 61.00 -180.00 0 1 58.70 124.64 L 55.03 123.26 L 53.73 122.83 L 52.87 122.45 L 50.84 121.69 A 122.00 61.00 -180.00 0 1 41.73 117.57 L 40.66 116.96 L 36.68 114.89 L 31.92 111.97 L 31.22 111.57 A 122.00 61.00 -180.00 0 1 24.89 107.04 L 22.44 104.92 L 22.35 104.93 L 21.70 104.28 L 19.97 102.78 A 122.00 61.00 -180.00 0 1 15.28 97.78 L 14.86 97.16 L 12.28 93.75 L 11.18 91.86 L 9.54 89.03 L 8.55 86.60 L 8.12 86.60 L 8.09 86.60 L 8.14 86.58 L 8.22 86.55 L 8.31 86.53 L 8.40 86.51 L 8.48 86.51 L 8.51 86.51 L 7.58 84.22 L 7.29 83.05 L 7.04 82.40 L 6.92 81.50 L 6.40 79.34 L 6.00 74.44 L 6.00 95.57 A 122.00 61.00 180.00 0 0 250.00 95.57 Z" fill="url(#g7)" fill-rule="evenodd" stroke="url(#g7)" stroke-width="0.8"/>
</g>
<g stroke="black" fill="none" stroke-linecap="round">
<line x1="146.30" y1="42.74" x2="146.30" y2="53.30" stroke-width="2.00"/>
<line x1="109.70" y1="42.74" x2="109.70" y2="53.30" stroke-width="2.00"/>
<line x1="250.00" y1="74.43" x2="250.00" y2="95.57" stroke-width="2.00"/>
<line x1="6.00" y1="74.43" x2="6.00" y2="95.57" stroke-width="2.00"/>
<path d="M 214.27 117.57 A 122.00 61.00 -180.00 0 0 41.73 31.30 A 122.00 61.00 -180.00 0 0 214.27 117.57" stroke-width="2.00"/>
<path d="M 209.62 119.61 A 109.80 54.90 180.00 0 1 208.18 120.39" stroke-width="2.00"/>
<path d="M 47.87 120.42 A 109.80 54.90 180.00 0 1 46.43 119.64" stroke-width="2.00"/>
<path d="M 146.30 53.30 A 18.30 9.15 180.00 0 1 109.70 53.30" stroke-width="2.00"/>
<path d="M 140.94 49.21 A 18.30 9.15 180.00 0 0 115.06 36.27 A 18.30 9.15 180.00 0 0 140.94 49.21" stroke-width="2.00"/>
<path d="M 237.19 101.36 A 109.80 54.90 180.00 0 1 237.12 101.66" stroke-width="2.00"/>
<path d="M 18.89 101.70 A 109.80 54.90 180.00 0 1 18.82 101.40" stroke-width="2.00"/>
<path d="M 250.00 95.58 A 122.00 61.00 180.00 1 1 6.00 95.55" stroke-width="2.00"/>
<path d="M 7.86 84.94 A 122.00 61.00 180.00 0 1 7.94 84.72" stroke-width="2.00"/>
<path d="M 248.07 84.75 A 122.00 61.00 180.00 0 1 248.15 84.98" stroke-width="2.00"/>
</g>
</svg>