<svg xmlns="http://www.w3.org/2000/svg" viewBox="0 0 256 170" preserveAspectRatio="xMidYMid meet">
<defs><radialGradient id="g0" gradientUnits="userSpaceOnUse" cx="0" cy="0" r="1" fx="-0.581" fy="0.227" gradientTransform="matrix(122.01 0 0 61.00 128.00 74.43)"><stop offset="0.0%" stop-color="#d1d9d4"/><stop offset="6.2%" stop-color="#d1d9d4"/><stop offset="18.8%" stop-color="#cfd7d2"/><stop offset="31.2%" stop-color="#ccd4cf"/><stop offset="43.8%" stop-color="#c7cfca"/><stop offset="56.2%" stop-color="#c5ccc7"/><stop offset="68.8%" stop-color="#c1c8c4"/><stop offset="81.2%" stop-color="#bdc4bf"/><stop offset="93.8%" stop-color="#b2b8b4"/><stop offset="100.0%" stop-color="#b2b8b4"/></radialGradient><linearGradient id="g1" gradientUnits="userSpaceOnUse" x1="109.70" y1="48.02" x2="146.30" y2="48.02"><stop offset="0.0%" stop-color="#979d99"/><stop offset="3.8%" stop-color="#9ea4a0"/><stop offset="14.6%" stop-color="#9aa09c"/><stop offset="30.9%" stop-color="#8b918d"/><stop offset="50.0%" stop-color="#757976"/><stop offset="69.1%" stop-color="#595c5a"/><stop offset="85.4%" stop-color="#555956"/><stop offset="96.2%" stop-color="#555956"/><stop offset="100.0%" stop-color="#555956"/></linearGradient><linearGradient id="g3" gradientUnits="userSpaceOnUse" x1="6.00" y1="85.00" x2="250.00" y2="85.00"><stop offset="0.0%" stop-color="#979d99"/><stop offset="3.8%" stop-color="#9ea4a0"/><stop offset="14.6%" stop-color="#9aa09c"/><stop offset="30.9%" stop-color="#8b918d"/><stop offset="50.0%" stop-color="#757976"/><stop offset="69.1%" stop-color="#595c5a"/><stop offset="85.4%" stop-color="#555956"/><stop offset="96.2%" stop-color="#555956"/><stop offset="100.0%" stop-color="#555956"/></linearGradient></defs>
<g stroke-linejoin="round">
<path d="M 67.00 21.61 A 122.00 61.00 -180.00 0 0 53.73 26.04 L 63.02 26.81 L 67.00 21.61 Z M 189.00 21.61 L 192.98 26.81 L 202.27 26.04 A 122.00 61.00 -180.00 0 0 189.00 21.61 Z M 34.61 35.44 L 34.60 35.49 L 34.59 35.55 L 34.59 35.61 L 34.60 35.67 L 34.61 35.73 L 34.63 35.79 L 34.66 35.84 L 34.69 35.89 L 34.72 35.94 L 34.76 35.99 L 34.80 36.03 L 34.85 36.06 L 34.90 36.10 L 34.95 36.12 L 35.00 36.15 L 35.06 36.16 L 35.12 36.17 L 35.18 36.18 L 35.24 36.17 L 35.30 36.17 L 35.35 36.15 L 52.52 31.41 L 53.73 26.04 A 122.00 61.00 -180.00 0 0 34.83 35.10 L 34.79 35.13 L 34.75 35.18 L 34.71 35.22 L 34.68 35.27 L 34.65 35.33 L 34.63 35.38 L 34.61 35.44 Z M 221.24 35.99 L 221.28 35.94 L 221.31 35.89 L 221.34 35.84 L 221.37 35.79 L 221.39 35.73 L 221.40 35.67 L 221.41 35.61 L 221.41 35.55 L 221.40 35.49 L 221.39 35.44 L 221.37 35.38 L 221.35 35.33 L 221.32 35.27 L 221.29 35.22 L 221.25 35.18 L 221.21 35.13 L 221.17 35.10 A 122.00 61.00 -180.00 0 0 202.27 26.04 L 203.48 31.41 L 220.65 36.15 L 220.70 36.17 L 220.76 36.17 L 220.82 36.18 L 220.88 36.17 L 220.94 36.16 L 221.00 36.15 L 221.05 36.12 L 221.10 36.10 L 221.15 36.06 L 221.20 36.03 L 221.24 35.99 Z M 24.82 42.16 L 24.82 42.22 L 24.82 42.28 L 24.83 42.33 L 24.84 42.39 L 24.86 42.45 L 24.88 42.50 L 24.91 42.55 L 24.94 42.60 L 24.98 42.64 L 25.02 42.68 L 25.07 42.72 L 25.11 42.75 L 25.16 42.78 L 25.22 42.80 L 25.27 42.81 L 25.33 42.83 L 25.39 42.83 L 25.45 42.83 L 25.50 42.83 L 25.56 42.82 L 25.61 42.80 L 43.31 36.66 L 22.36 43.93 A 122.00 61.00 -180.00 0 0 7.04 66.47 L 7.04 66.47 A 122.00 61.00 -180.00 0 0 22.35 104.94 L 23.20 104.35 L 23.65 104.73 L 22.44 104.92 L 23.93 106.21 L 25.63 107.57 L 29.37 110.28 L 30.81 111.29 L 31.24 111.55 L 32.02 110.90 L 32.40 111.15 L 32.59 111.27 L 31.21 111.57 A 122.00 61.00 -180.00 0 0 112.08 134.92 L 112.08 134.91 A 122.00 61.00 -180.00 0 0 143.92 134.91 L 143.93 134.92 A 122.00 61.00 -180.00 0 0 243.53 94.04 L 245.16 91.35 L 245.84 90.22 A 122.00 61.00 -180.00 0 0 248.96 66.47 L 248.96 66.47 A 122.00 61.00 -180.00 0 0 240.71 51.09 L 240.72 51.09 A 122.00 61.00 -180.00 0 0 233.65 43.93 L 212.69 36.66 L 230.39 42.80 L 230.44 42.82 L 230.50 42.83 L 230.55 42.83 L 230.61 42.83 L 230.67 42.83 L 230.73 42.81 L 230.78 42.80 L 230.84 42.78 L 230.89 42.75 L 230.94 42.72 L 230.98 42.68 L 231.02 42.64 L 231.06 42.60 L 231.09 42.55 L 231.12 42.50 L 231.14 42.45 L 231.16 42.39 L 231.17 42.33 L 231.18 42.28 L 231.18 42.22 L 231.18 42.16 L 231.17 42.10 L 231.15 42.05 L 231.13 41.99 L 231.10 41.94 L 231.07 41.89 L 231.04 41.85 L 231.00 41.80 L 230.97 41.77 L 229.44 40.54 A 122.00 61.00 -180.00 0 0 224.77 37.30 L 203.48 31.41 L 202.27 26.04 L 192.98 26.81 L 189.00 21.61 L 186.31 22.07 L 186.37 22.06 L 186.42 22.04 L 186.48 22.02 L 186.53 21.99 L 186.57 21.96 L 186.62 21.92 L 186.66 21.88 L 186.70 21.83 L 186.73 21.79 L 186.75 21.73 L 186.78 21.68 L 186.79 21.62 L 186.80 21.57 L 186.81 21.51 L 186.81 21.45 L 186.80 21.39 L 186.79 21.34 L 186.77 21.28 L 186.75 21.23 L 186.72 21.18 L 186.69 21.13 L 186.66 21.08 L 186.62 21.04 L 186.57 21.00 L 186.52 20.97 L 186.47 20.94 L 186.42 20.92 A 122.00 61.00 -180.00 0 0 163.58 16.13 L 163.52 16.14 L 163.47 16.15 L 163.41 16.17 L 163.35 16.19 L 163.30 16.22 L 163.25 16.25 L 163.21 16.29 L 163.17 16.33 L 163.13 16.38 L 163.09 16.42 L 163.07 16.48 L 163.04 16.53 L 163.03 16.59 L 163.02 16.64 L 163.01 16.70 L 163.01 16.76 L 163.02 16.82 L 163.03 16.88 L 163.05 16.94 L 163.07 16.99 L 163.10 17.04 L 163.13 17.09 L 163.17 17.14 L 163.21 17.18 L 163.25 17.22 L 163.30 17.25 L 163.36 17.28 L 168.85 19.84 L 159.57 15.51 L 155.63 17.60 L 159.57 15.51 A 122.00 61.00 -180.00 0 0 96.43 15.51 L 100.37 17.60 L 96.43 15.51 L 87.15 19.84 L 92.64 17.28 L 92.70 17.25 L 92.75 17.22 L 92.79 17.18 L 92.83 17.14 L 92.87 17.09 L 92.90 17.04 L 92.93 16.99 L 92.95 16.94 L 92.97 16.88 L 92.98 16.82 L 92.99 16.76 L 92.99 16.70 L 92.98 16.64 L 92.97 16.59 L 92.95 16.53 L 92.93 16.48 L 92.91 16.42 L 92.87 16.38 L 92.83 16.33 L 92.79 16.29 L 92.75 16.25 L 92.70 16.22 L 92.65 16.19 L 92.59 16.17 L 92.53 16.15 L 92.48 16.14 L 92.42 16.13 A 122.00 61.00 -180.00 0 0 69.58 20.92 L 69.53 20.94 L 69.48 20.97 L 69.43 21.00 L 69.38 21.04 L 69.34 21.08 L 69.31 21.13 L 69.28 21.18 L 69.25 21.23 L 69.23 21.28 L 69.21 21.34 L 69.20 21.39 L 69.19 21.45 L 69.19 21.51 L 69.20 21.57 L 69.21 21.62 L 69.22 21.68 L 69.25 21.73 L 69.27 21.79 L 69.30 21.83 L 69.34 21.88 L 69.38 21.92 L 69.42 21.96 L 69.47 21.99 L 69.52 22.02 L 69.58 22.04 L 69.63 22.06 L 69.69 22.07 L 67.00 21.61 L 63.02 26.81 L 53.73 26.04 L 52.52 31.41 L 31.23 37.30 A 122.00 61.00 -180.00 0 0 26.56 40.54 L 25.03 41.77 L 25.00 41.80 L 24.96 41.85 L 24.93 41.89 L 24.89 41.94 L 24.87 41.99 L 24.85 42.05 L 24.83 42.10 L 24.82 42.16 Z M 109.70 53.30 L 109.70 52.13 L 109.70 51.12 L 109.70 50.35 L 109.70 49.85 L 109.70 49.59 L 109.70 49.51 L 109.70 46.18 L 109.70 46.12 L 109.71 46.06 L 109.73 46.00 L 109.75 45.95 L 109.77 45.90 L 109.80 45.84 L 109.84 45.80 L 109.88 45.75 L 109.92 45.71 L 109.97 45.68 L 110.02 45.65 L 110.07 45.62 L 110.13 45.60 L 110.18 45.59 L 110.24 45.58 L 110.30 45.58 L 110.36 45.58 L 110.42 45.59 L 110.47 45.60 L 110.53 45.62 L 110.58 45.65 L 110.63 45.68 A 18.30 9.15 180.00 0 0 110.79 45.84 A 18.30 9.15 180.00 0 1 110.02 41.11 L 109.43 41.21 L 110.06 41.00 A 18.30 9.15 180.00 0 1 131.39 33.76 A 18.30 9.15 180.00 0 1 145.95 41.00 L 146.57 41.21 L 145.99 41.11 A 18.30 9.15 180.00 0 1 145.07 46.02 A 18.30 9.15 180.00 0 0 145.35 45.69 L 145.40 45.66 L 145.45 45.63 L 145.51 45.61 L 145.57 45.59 L 145.62 45.58 L 145.69 45.58 L 145.75 45.58 L 145.80 45.59 L 145.86 45.60 L 145.92 45.62 L 145.97 45.65 L 146.03 45.67 L 146.07 45.71 L 146.12 45.75 L 146.16 45.79 L 146.20 45.84 L 146.23 45.89 L 146.25 45.95 L 146.27 46.00 L 146.29 46.06 L 146.30 46.12 L 146.30 46.18 L 146.30 48.81 L 146.30 49.51 L 146.30 49.59 L 146.30 49.85 L 146.30 50.35 L 146.30 51.12 L 146.30 52.13 L 146.30 53.30 A 18.30 9.15 180.00 0 1 128.00 62.45 A 18.30 9.15 180.00 0 1 109.70 53.30 Z" fill="url(#g0)" fill-rule="evenodd" stroke="url(#g0)" stroke-width="0.8"/>
<path d="M 146.30 53.30 L 146.30 46.18 L 146.30 46.12 L 146.29 46.06 L 146.27 46.00 L 146.25 45.95 L 146.23 45.89 L 146.20 45.84 L 146.16 45.79 L 146.12 45.75 L 146.07 45.71 L 146.03 45.67 L 145.97 45.65 L 145.92 45.62 L 145.86 45.60 L 145.80 45.59 L 145.75 45.58 L 145.69 45.58 L 145.62 45.58 L 145.57 45.59 L 145.51 45.61 L 145.45 45.63 L 145.40 45.66 L 145.35 45.69 A 18.30 9.15 180.00 0 1 122.39 51.45 A 18.30 9.15 180.00 0 1 117.53 50.24 L 117.50 50.23 A 18.30 9.15 180.00 0 1 110.63 45.68 L 110.58 45.65 L 110.53 45.62 L 110.47 45.60 L 110.42 45.59 L 110.36 45.58 L 110.30 45.58 L 110.24 45.58 L 110.18 45.59 L 110.13 45.60 L 110.07 45.62 L 110.02 45.65 L 109.97 45.68 L 109.92 45.71 L 109.88 45.75 L 109.84 45.80 L 109.80 45.84 L 109.77 45.90 L 109.75 45.95 L 109.73 46.00 L 109.71 46.06 L 109.70 46.12 L 109.70 46.18 L 109.70 53.30 A 18.30 9.15 180.00 0 0 127.52 62.45 A 18.30 9.15 180.00 0 0 146.24 54.04 A 18.30 9.15 180.00 0 0 146.30 53.30 Z" fill="url(#g1)" fill-rule="evenodd" stroke="url(#g1)" stroke-width="0.8"/>
<path d="M 144.18 47.01 A 18.30 9.15 180.00 0 0 137.74 34.99 A 18.30 9.15 180.00 0 0 113.28 37.30 A 18.30 9.15 180.00 0 0 116.06 49.67 A 18.30 9.15 180.00 0 0 140.94 49.21 A 18.30 9.15 180.00 0 0 144.18 47.01 Z" fill="#cad1cc" fill-rule="evenodd" stroke="#cad1cc" stroke-width="0.8"/>
<path d="M 250.00 95.57 L 250.00 82.97 L 250.00 82.91 L 249.99 82.85 L 249.97 82.79 L 249.96 82.74 L 249.93 82.69 L 249.90 82.64 L 249.87 82.59 L 249.83 82.55 L 249.78 82.50 L 249.74 82.47 L 249.69 82.44 L 249.63 82.41 L 249.58 82.39 L 249.52 82.38 L 249.47 82.37 L 249.41 82.37 L 249.35 82.37 L 249.29 82.38 L 249.24 82.39 L 249.18 82.41 L 249.13 82.43 L 249.08 82.46 L 249.03 82.50 L 248.98 82.53 L 248.94 82.58 A 122.00 61.00 -180.00 0 1 248.83 82.77 L 248.60 83.47 L 248.42 84.22 L 248.08 85.06 L 247.66 86.33 L 246.86 88.05 L 246.46 89.03 A 122.00 61.00 -180.00 0 1 245.77 90.33 L 245.70 90.33 L 243.72 93.75 L 242.73 95.06 L 242.74 95.09 L 240.71 97.78 A 122.00 61.00 -180.00 0 1 240.24 98.34 L 239.41 99.22 L 237.42 101.41 A 122.00 61.00 -180.00 0 1 236.03 102.78 L 235.06 103.61 L 233.65 104.94 L 232.06 106.21 L 231.11 107.04 A 122.00 61.00 -180.00 0 1 229.44 108.33 L 226.63 110.28 L 225.53 111.08 A 122.00 61.00 -180.00 0 1 143.93 134.92 L 143.92 134.91 A 122.00 61.00 -180.00 0 1 112.08 134.91 L 112.08 134.92 A 122.00 61.00 -180.00 0 1 31.21 111.57 L 31.25 111.56 A 122.00 61.00 -180.00 0 1 24.89 107.04 L 22.41 104.89 L 22.35 104.94 L 20.93 103.61 L 19.97 102.78 A 122.00 61.00 -180.00 0 1 18.58 101.41 L 16.59 99.22 L 15.76 98.34 A 122.00 61.00 -180.00 0 1 10.35 90.53 L 10.38 90.48 L 10.22 90.19 L 9.84 89.54 A 122.00 61.00 -180.00 0 1 9.54 89.03 L 8.12 85.53 L 8.08 85.53 L 7.92 85.06 L 7.58 84.22 L 7.40 83.47 L 7.17 82.77 A 122.00 61.00 -180.00 0 1 7.06 82.58 L 7.02 82.53 L 6.97 82.50 L 6.92 82.46 L 6.87 82.43 L 6.82 82.41 L 6.76 82.39 L 6.71 82.38 L 6.65 82.37 L 6.59 82.37 L 6.53 82.37 L 6.48 82.38 L 6.42 82.39 L 6.37 82.41 L 6.31 82.44 L 6.26 82.47 L 6.22 82.50 L 6.17 82.55 L 6.13 82.59 L 6.10 82.64 L 6.07 82.69 L 6.04 82.74 L 6.03 82.79 L 6.01 82.85 L 6.00 82.91 L 6.00 82.97 L 6.00 95.57 A 122.00 61.00 180.00 0 0 123.09 156.52 A 122.00 61.00 180.00 0 0 249.60 100.47 A 122.00 61.00 180.00 0 0 250.00 95.57 Z" fill="url(#g3)" fill-rule="evenodd" stroke="url(#g3)" stroke-width="0.8"/>
</g>
<defs><clipPath id="sclip"><path d="M 6.64 105.69 L 6.64 105.72 L 6.74 105.94 L 6.81 106.20 L 7.56 107.95 L 8.64 110.61 L 8.88 111.02 L 9.05 111.40 L 9.18 111.62 L 9.27 111.83 L 10.03 113.01 L 10.11 113.12 L 11.45 115.44 L 11.84 115.96 L 12.15 116.46 L 12.71 117.16 L 13.09 117.75 L 13.92 118.70 L 15.00 120.12 L 15.60 120.75 L 16.09 121.36 L 17.24 122.51 L 18.04 123.42 L 18.62 123.94 L 19.28 124.64 L 20.12 125.37 L 20.82 126.06 L 22.46 127.39 L 23.50 128.29 L 24.08 128.80 L 24.17 128.87 L 24.26 128.95 L 25.38 129.76 L 26.32 130.53 L 28.04 131.69 L 29.91 133.04 L 30.63 133.48 L 31.13 133.84 L 31.81 134.24 L 32.55 134.74 L 34.30 135.73 L 36.19 136.89 L 37.93 137.79 L 38.01 137.84 L 39.14 138.50 L 39.30 138.57 L 39.46 138.66 L 41.21 139.50 L 43.05 140.46 L 45.17 141.40 L 46.99 142.27 L 47.57 142.51 L 48.02 142.72 L 49.09 143.14 L 50.46 143.74 L 52.96 144.68 L 55.11 145.55 L 56.58 146.04 L 57.69 146.48 L 58.00 146.57 L 58.37 146.71 L 61.28 147.63 L 63.74 148.47 L 65.20 148.87 L 66.72 149.35 L 67.48 149.55 L 68.05 149.73 L 70.11 150.24 L 72.83 151.00 L 74.12 151.30 L 75.47 151.65 L 77.54 152.09 L 79.00 152.45 L 80.48 152.73 L 82.31 153.15 L 83.41 153.34 L 84.55 153.59 L 88.22 154.20 L 90.43 154.62 L 91.21 154.72 L 92.12 154.88 L 93.01 155.00 L 93.91 155.15 L 98.66 155.73 L 102.20 156.19 L 102.20 156.19 L 102.21 156.19 L 102.41 156.21 L 102.84 156.25 L 103.50 156.33 L 109.01 156.78 L 112.44 157.07 L 112.84 157.09 L 113.23 157.12 L 113.82 157.14 L 114.28 157.18 L 116.37 157.25 L 120.27 157.40 L 122.80 157.51 L 122.94 157.51 L 123.07 157.52 L 125.02 157.52 L 126.47 157.56 L 128.90 157.52 L 132.93 157.52 L 133.06 157.51 L 133.20 157.51 L 135.82 157.40 L 136.41 157.38 L 138.68 157.33 L 140.39 157.22 L 142.76 157.12 L 143.16 157.09 L 143.56 157.07 L 146.93 156.78 L 148.37 156.66 L 150.78 156.50 L 151.52 156.41 L 152.50 156.33 L 153.16 156.25 L 153.81 156.19 L 157.31 155.74 L 162.09 155.15 L 162.40 155.09 L 162.65 155.06 L 163.20 154.97 L 163.88 154.88 L 167.16 154.30 L 171.45 153.59 L 172.59 153.34 L 173.69 153.15 L 173.94 153.09 L 174.18 153.05 L 175.90 152.65 L 176.75 152.45 L 180.53 151.65 L 181.88 151.30 L 183.17 151.00 L 184.29 150.69 L 185.26 150.46 L 186.90 149.98 L 189.28 149.35 L 190.81 148.87 L 192.26 148.47 L 194.19 147.81 L 195.78 147.34 L 196.56 147.05 L 197.63 146.71 L 199.30 146.09 L 200.89 145.55 L 203.04 144.68 L 205.53 143.74 L 205.58 143.72 L 205.63 143.70 L 206.01 143.53 L 207.31 142.96 L 209.01 142.27 L 210.84 141.39 L 212.95 140.46 L 213.92 139.96 L 214.72 139.59 L 215.50 139.16 L 216.54 138.66 L 218.06 137.80 L 219.81 136.89 L 221.62 135.78 L 222.95 135.04 L 223.17 134.89 L 223.45 134.74 L 224.66 133.92 L 226.09 133.04 L 227.96 131.69 L 229.67 130.53 L 229.97 130.29 L 230.25 130.10 L 230.86 129.59 L 231.74 128.95 L 233.54 127.39 L 235.18 126.06 L 235.88 125.36 L 235.98 125.28 L 236.55 124.79 L 236.62 124.72 L 236.72 124.64 L 238.42 122.85 L 239.91 121.36 L 240.40 120.75 L 241.00 120.12 L 241.40 119.60 L 241.78 119.19 L 242.59 118.03 L 243.85 116.46 L 244.16 115.96 L 244.56 115.44 L 245.27 114.20 L 245.88 113.33 L 246.30 112.46 L 246.95 111.40 L 247.12 111.01 L 247.35 110.61 L 248.22 108.49 L 248.81 107.26 L 248.95 106.77 L 249.19 106.20 L 249.26 105.93 L 249.37 105.66 L 250.15 102.48 L 250.32 101.79 L 250.53 101.05 L 250.53 100.98 L 250.55 100.91 L 250.56 100.77 L 250.59 100.63 L 251.00 95.61 L 251.00 74.39 L 250.75 71.28 L 250.65 69.69 L 250.61 69.53 L 250.59 69.37 L 250.07 67.19 L 249.94 66.22 L 249.66 65.52 L 249.39 64.39 L 249.36 64.30 L 249.22 63.95 L 247.35 59.39 L 247.25 59.22 L 247.18 59.05 L 246.87 58.52 L 246.73 58.18 L 246.18 57.36 L 244.56 54.56 L 244.30 54.23 L 244.10 53.90 L 242.81 52.26 L 241.95 51.13 L 241.49 50.45 L 241.26 50.22 L 241.00 49.88 L 240.54 49.39 L 240.16 48.92 L 238.64 47.39 L 236.72 45.36 L 235.99 44.74 L 235.41 44.15 L 234.67 43.55 L 234.31 43.18 L 233.47 42.55 L 231.74 41.05 L 230.71 40.30 L 229.86 39.61 L 228.10 38.42 L 226.09 36.96 L 225.56 36.63 L 225.33 36.46 L 224.67 36.08 L 223.56 35.33 L 221.78 34.32 L 219.81 33.11 L 218.06 32.20 L 216.57 31.35 L 215.37 30.78 L 214.72 30.41 L 214.05 30.11 L 212.95 29.54 L 210.75 28.57 L 208.93 27.69 L 207.30 27.04 L 205.54 26.26 L 203.52 25.50 L 202.63 25.11 L 201.92 24.87 L 200.69 24.38 L 199.20 23.88 L 197.63 23.29 L 194.49 22.30 L 191.93 21.43 L 190.63 21.07 L 189.28 20.65 L 185.56 19.67 L 182.69 18.88 L 181.65 18.64 L 180.53 18.35 L 176.47 17.48 L 174.89 17.10 L 174.13 16.97 L 173.06 16.73 L 172.27 16.59 L 171.45 16.42 L 166.26 15.55 L 163.09 15.00 L 162.60 14.94 L 162.09 14.85 L 160.52 14.66 L 159.71 14.52 L 158.09 14.36 L 155.31 14.02 L 152.87 13.71 L 152.68 13.70 L 152.50 13.67 L 145.39 13.09 L 143.99 12.96 L 143.47 12.94 L 142.76 12.88 L 142.61 12.88 L 142.47 12.86 L 140.26 12.78 L 132.93 12.48 L 132.41 12.48 L 131.95 12.47 L 129.41 12.48 L 128.00 12.43 L 126.48 12.48 L 123.07 12.48 L 122.20 12.52 L 121.41 12.52 L 118.04 12.69 L 113.23 12.88 L 112.53 12.94 L 112.01 12.96 L 111.52 13.00 L 110.92 13.03 L 107.63 13.34 L 103.50 13.67 L 101.98 13.86 L 100.56 13.99 L 97.79 14.37 L 96.29 14.52 L 95.48 14.66 L 93.91 14.85 L 92.07 15.16 L 90.39 15.39 L 87.73 15.89 L 84.55 16.42 L 82.46 16.86 L 82.12 16.93 L 81.11 17.10 L 80.84 17.16 L 80.50 17.23 L 78.16 17.78 L 75.47 18.35 L 73.11 18.97 L 70.96 19.48 L 68.99 20.05 L 66.72 20.65 L 64.13 21.46 L 61.84 22.13 L 60.22 22.70 L 58.37 23.29 L 55.60 24.33 L 53.54 25.05 L 53.38 25.11 L 53.34 25.12 L 53.20 25.17 L 51.93 25.71 L 50.46 26.26 L 47.55 27.55 L 45.11 28.58 L 44.15 29.05 L 43.05 29.54 L 41.95 30.11 L 41.28 30.41 L 40.18 31.04 L 40.02 31.12 L 37.62 32.32 L 36.96 32.71 L 36.19 33.11 L 32.99 35.07 L 30.80 36.38 L 30.70 36.44 L 30.67 36.46 L 30.55 36.55 L 30.39 36.66 L 29.91 36.96 L 26.49 39.44 L 24.68 40.72 L 24.50 40.88 L 24.27 41.05 L 22.53 42.55 L 21.69 43.18 L 21.02 43.86 L 19.94 44.79 L 19.32 45.32 L 19.30 45.35 L 19.29 45.36 L 15.00 49.88 L 14.90 50.01 L 14.77 50.14 L 14.64 50.31 L 14.51 50.45 L 14.14 50.99 L 13.68 51.62 L 11.45 54.56 L 11.26 54.88 L 11.05 55.17 L 10.13 56.83 L 9.82 57.36 L 9.27 58.18 L 9.09 58.62 L 8.64 59.39 L 8.44 59.90 L 8.19 60.35 L 7.56 62.05 L 6.63 64.34 L 6.46 65.03 L 6.22 65.66 L 6.17 65.94 L 6.06 66.22 L 5.95 67.09 L 5.90 67.32 L 5.41 69.37 L 5.33 70.24 L 5.18 71.05 L 5.14 72.60 L 5.00 74.39 L 5.00 95.61 L 5.21 98.17 L 5.24 99.49 L 5.35 100.00 L 5.41 100.63 L 5.44 100.77 L 5.45 100.91 L 5.86 102.51 L 6.63 105.66 Z" clip-rule="evenodd"/></clipPath></defs>
<g stroke="black" fill="none" stroke-linecap="round" clip-path="url(#sclip)">
<path d="M 7.75 105.88 L 8.48 107.56 L 9.54 110.16 A 122.00 61.00 180.00 0 0 10.16 111.35 L 10.88 112.47 L 10.96 112.61 L 12.28 114.88 A 122.00 61.00 180.00 0 0 12.97 115.89 L 13.52 116.57 L 13.89 117.14 L 14.70 118.07 L 15.76 119.48 A 122.00 61.00 180.00 0 0 16.83 120.69 L 17.97 121.82 L 18.75 122.72 A 122.00 61.00 180.00 0 0 19.97 123.91 L 20.80 124.63 L 21.49 125.32 L 23.10 126.62 L 24.16 127.53 A 122.00 61.00 180.00 0 0 24.89 128.17 L 25.99 128.97 L 26.92 129.72 L 28.61 130.87 L 30.47 132.21 A 122.00 61.00 180.00 0 0 33.08 133.89 L 34.81 134.87 L 36.68 136.02 L 38.41 136.92 L 38.51 136.97 L 39.61 137.61 A 122.00 61.00 180.00 0 0 39.92 137.77 L 41.66 138.60 L 43.49 139.56 L 45.59 140.49 L 47.40 141.36 A 122.00 61.00 180.00 0 0 50.84 142.82 L 53.33 143.75 L 55.45 144.61 A 122.00 61.00 180.00 0 0 58.70 145.77 L 61.59 146.68 L 64.03 147.51 A 122.00 61.00 180.00 0 0 68.32 148.77 L 70.36 149.28 L 73.08 150.03 A 122.00 61.00 180.00 0 0 84.74 152.60 L 88.40 153.21 L 90.59 153.63 A 122.00 61.00 180.00 0 0 94.06 154.16 L 98.79 154.74 L 102.30 155.20 A 122.00 61.00 180.00 0 0 103.60 155.33 L 109.09 155.78 L 112.50 156.07 A 122.00 61.00 180.00 0 0 153.70 155.20 L 157.19 154.74 L 161.94 154.16 A 122.00 61.00 180.00 0 0 163.72 153.89 L 166.99 153.31 L 171.26 152.60 A 122.00 61.00 180.00 0 0 175.67 151.67 L 176.54 151.48 L 180.30 150.68 A 122.00 61.00 180.00 0 0 185.01 149.50 L 186.63 149.01 L 189.00 148.39 A 122.00 61.00 180.00 0 0 191.97 147.51 L 193.89 146.86 L 195.46 146.39 A 122.00 61.00 180.00 0 0 200.54 144.61 L 202.68 143.75 L 205.16 142.82 A 122.00 61.00 180.00 0 0 205.60 142.62 L 206.92 142.04 L 208.60 141.36 L 210.42 140.48 L 212.51 139.56 A 122.00 61.00 180.00 0 0 216.08 137.77 L 217.59 136.92 L 219.32 136.02 L 221.12 134.91 L 222.43 134.19 A 122.00 61.00 180.00 0 0 222.92 133.89 L 224.12 133.08 L 225.53 132.21 L 227.38 130.87 L 229.08 129.72 A 122.00 61.00 180.00 0 0 231.11 128.17 L 232.90 126.62 L 234.51 125.32 L 235.20 124.63 L 235.33 124.52 A 122.00 61.00 180.00 0 0 236.03 123.91 L 237.70 122.15 L 239.17 120.69 A 122.00 61.00 180.00 0 0 241.00 118.56 L 241.79 117.43 L 243.03 115.89 A 122.00 61.00 180.00 0 0 243.72 114.88 L 244.43 113.66 L 245.02 112.82 L 245.42 111.98 L 246.06 110.94 A 122.00 61.00 180.00 0 0 246.46 110.16 L 247.30 108.09 L 247.87 106.91 A 122.00 61.00 180.00 0 0 248.42 105.35 L 249.18 102.23 L 249.36 101.53 L 249.54 100.88 A 122.00 61.00 180.00 0 0 250.00 95.57 L 250.00 74.44 L 249.75 71.36 L 249.65 69.84 A 122.00 61.00 -180.00 0 0 249.60 69.53 L 249.08 67.37 L 248.96 66.47 L 248.71 65.82 L 248.42 64.65 A 122.00 61.00 -180.00 0 0 245.84 58.65 L 245.33 57.89 L 243.72 55.12 A 122.00 61.00 -180.00 0 0 243.28 54.47 L 242.02 52.87 L 241.13 51.71 L 240.72 51.09 A 122.00 61.00 -180.00 0 0 239.42 49.58 L 237.92 48.08 L 236.03 46.09 A 122.00 61.00 -180.00 0 0 233.65 43.94 L 232.84 43.33 L 231.11 41.83 L 230.10 41.10 L 229.26 40.41 L 227.53 39.23 L 225.53 37.79 A 122.00 61.00 -180.00 0 0 224.78 37.30 L 224.14 36.93 L 223.03 36.18 L 221.27 35.18 L 219.32 33.98 L 217.58 33.08 L 216.10 32.24 A 122.00 61.00 -180.00 0 0 212.51 30.44 L 210.33 29.47 L 208.52 28.61 L 206.91 27.96 L 205.16 27.18 L 203.14 26.43 L 202.27 26.04 A 122.00 61.00 -180.00 0 0 197.30 24.23 L 194.18 23.25 L 191.63 22.39 A 122.00 61.00 -180.00 0 0 189.00 21.61 L 185.30 20.64 L 182.45 19.85 A 122.00 61.00 -180.00 0 0 180.30 19.32 L 176.24 18.46 L 174.69 18.08 A 122.00 61.00 -180.00 0 0 171.26 17.40 L 166.10 16.54 L 162.94 15.99 A 122.00 61.00 -180.00 0 0 159.57 15.51 L 157.98 15.36 L 155.19 15.01 A 122.00 61.00 -180.00 0 0 110.99 14.03 L 107.72 14.33 L 103.60 14.67 A 122.00 61.00 -180.00 0 0 90.55 16.38 L 87.90 16.87 L 84.74 17.40 A 122.00 61.00 -180.00 0 0 80.71 18.20 L 78.38 18.75 L 75.70 19.32 A 122.00 61.00 -180.00 0 0 67.00 21.61 L 64.42 22.42 L 62.14 23.09 A 122.00 61.00 -180.00 0 0 58.70 24.23 L 55.95 25.27 L 53.87 26.00 A 122.00 61.00 -180.00 0 0 50.84 27.18 L 47.94 28.47 L 45.52 29.48 A 122.00 61.00 -180.00 0 0 41.73 31.30 L 40.66 31.91 L 40.47 32.01 L 38.10 33.20 A 122.00 61.00 -180.00 0 0 36.68 33.98 L 33.51 35.92 L 31.34 37.21 A 122.00 61.00 -180.00 0 0 30.47 37.79 L 27.07 40.25 L 25.30 41.51 A 122.00 61.00 -180.00 0 0 24.89 41.83 L 23.16 43.33 L 22.35 43.94 L 21.70 44.59 L 20.59 45.55 A 122.00 61.00 -180.00 0 0 15.28 51.09 L 14.96 51.57 L 14.48 52.22 L 12.28 55.12 A 122.00 61.00 -180.00 0 0 11.89 55.71 L 11.00 57.32 L 10.67 57.89 L 10.16 58.65 L 9.99 59.06 L 9.54 59.84 A 122.00 61.00 -180.00 0 0 9.10 60.77 L 8.49 62.42 L 7.58 64.65 A 122.00 61.00 -180.00 0 0 7.04 66.47 L 6.93 67.25 L 6.88 67.54 L 6.40 69.53 L 6.33 70.38 L 6.18 71.16 L 6.14 72.65 L 6.00 74.44 L 6.00 95.57 L 6.21 98.12 L 6.24 99.37 A 122.00 61.00 180.00 0 0 6.44 100.74 L 6.83 102.27 L 7.58 105.35 A 122.00 61.00 180.00 0 0 7.75 105.88 Z" stroke-width="2.00" stroke-linejoin="miter" stroke-miterlimit="5"/>
<line x1="146.30" y1="42.74" x2="146.30" y2="53.30" stroke-width="2.00"/>
<line x1="109.70" y1="42.74" x2="109.70" y2="53.30" stroke-width="2.00"/>
<line x1="250.00" y1="74.43" x2="250.00" y2="95.57" stroke-width="2.00"/>
<line x1="6.00" y1="74.43" x2="6.00" y2="95.57" stroke-width="2.00"/>
<path d="M 214.27 117.57 A 122.00 61.00 -180.00 0 0 214.27 31.30 A 122.00 61.00 -180.00 0 0 41.73 31.30 A 122.00 61.00 -180.00 0 0 41.73 117.57 A 122.00 61.00 -180.00 0 0 214.27 117.57" stroke-width="2.00"/>
<path d="M 209.62 119.61 A 109.80 54.90 180.00 0 1 208.01 120.48" stroke-width="2.00"/>
<path d="M 47.99 120.48 A 109.80 54.90 180.00 0 1 46.43 119.64" stroke-width="2.00"/>
<path d="M 146.30 53.30 A 18.30 9.15 180.00 0 1 128.00 62.45 A 18.30 9.15 180.00 0 1 109.70 53.30" stroke-width="2.00"/>
<path d="M 140.94 49.21 A 18.30 9.15 180.00 0 0 140.94 36.27 A 18.30 9.15 180.00 0 0 115.06 36.27 A 18.30 9.15 180.00 0 0 115.06 49.21 A 18.30 9.15 180.00 0 0 140.94 49.21" stroke-width="2.00"/>
<path d="M 250.00 95.57 A 122.00 61.00 180.00 0 1 189.00 148.39 A 122.00 61.00 180.00 0 1 67.00 148.39 A 122.00 61.00 180.00 0 1 6.00 95.57" stroke-width="2.00"/>
</g>
</svg>