<svg xmlns="http://www.w3.org/2000/svg" viewBox="0 0 256 170" preserveAspectRatio="xMidYMid meet">
<defs><radialGradient id="g0" gradientUnits="userSpaceOnUse" cx="0" cy="0" r="1" fx="-0.581" fy="0.227" gradientTransform="matrix(122.01 0 0 61.00 128.00 74.43)"><stop offset="0.0%" stop-color="#d1d9d4"/><stop offset="6.2%" stop-color="#d1d9d4"/><stop offset="18.8%" stop-color="#cfd7d2"/><stop offset="31.2%" stop-color="#ccd4cf"/><stop offset="43.8%" stop-color="#c7cfca"/><stop offset="56.2%" stop-color="#c5ccc7"/><stop offset="68.8%" stop-color="#c1c8c4"/><stop offset="81.2%" stop-color="#bdc4bf"/><stop offset="93.8%" stop-color="#b2b8b4"/><stop offset="100.0%" stop-color="#b2b8b4"/></radialGradient><linearGradient id="g1" gradientUnits="userSpaceOnUse" x1="250.00" y1="85.00" x2="6.00" y2="85.00"><stop offset="0.0%" stop-color="#979d99"/><stop offset="3.8%" stop-color="#9ea4a0"/><stop offset="14.6%" stop-color="#9aa09c"/><stop offset="30.9%" stop-color="#8b918d"/><stop offset="50.0%" stop-color="#757976"/><stop offset="69.1%" stop-color="#595c5a"/><stop offset="85.4%" stop-color="#555956"/><stop offset="96.2%" stop-color="#555956"/><stop offset="100.0%" stop-color="#555956"/></linearGradient><linearGradient id="g3" gradientUnits="userSpaceOnUse" x1="146.30" y1="48.02" x2="109.70" y2="48.02"><stop offset="0.0%" stop-color="#979d99"/><stop offset="3.8%" stop-color="#9ea4a0"/><stop offset="14.6%" stop-color="#9aa09c"/><stop offset="30.9%" stop-color="#8b918d"/><stop offset="50.0%" stop-color="#757976"/><stop offset="69.1%" stop-color="#595c5a"/><stop offset="85.4%" stop-color="#555956"/><stop offset="96.2%" stop-color="#555956"/><stop offset="100.0%" stop-color="#555956"/></linearGradient><linearGradient id="g4" gradientUnits="userSpaceOnUse" x1="109.70" y1="48.02" x2="146.30" y2="48.02"><stop offset="0.0%" stop-color="#979d99"/><stop offset="3.8%" stop-color="#9ea4a0"/><stop offset="14.6%" stop-color="#9aa09c"/><stop offset="30.9%" stop-color="#8b918d"/><stop offset="50.0%" stop-color="#757976"/><stop offset="69.1%" stop-color="#595c5a"/><stop offset="85.4%" stop-color="#555956"/><stop offset="96.2%" stop-color="#555956"/><stop offset="100.0%" stop-color="#555956"/></linearGradient><linearGradient id="g6" gradientUnits="userSpaceOnUse" x1="18.20" y1="88.96" x2="237.80" y2="88.96"><stop offset="0.0%" stop-color="#979d99"/><stop offset="3.8%" stop-color="#9ea4a0"/><stop offset="14.6%" stop-color="#9aa09c"/><stop offset="30.9%" stop-color="#8b918d"/><stop offset="50.0%" stop-color="#757976"/><stop offset="69.1%" stop-color="#595c5a"/><stop offset="85.4%" stop-color="#555956"/><stop offset="96.2%" stop-color="#555956"/><stop offset="100.0%" stop-color="#555956"/></linearGradient><linearGradient id="g7" gradientUnits="userSpaceOnUse" x1="6.00" y1="85.00" x2="250.00" y2="85.00"><stop offset="0.0%" stop-color="#979d99"/><stop offset="3.8%" stop-color="#9ea4a0"/><stop offset="14.6%" stop-color="#9aa09c"/><stop offset="30.9%" stop-color="#8b918d"/><stop offset="50.0%" stop-color="#757976"/><stop offset="69.1%" stop-color="#595c5a"/><stop offset="85.4%" stop-color="#555956"/><stop offset="96.2%" stop-color="#555956"/><stop offset="100.0%" stop-color="#555956"/></linearGradient></defs>
<g stroke-linejoin="round">
<path d="M 6.00 74.44 L 7.04 82.40 L 10.16 90.22 L 15.28 97.78 L 22.35 104.93 L 22.44 104.92 L 23.15 105.53 L 31.00 111.41 L 31.24 111.55 L 31.22 111.57 L 41.73 117.57 L 53.73 122.83 L 67.00 127.26 L 81.31 130.79 L 96.43 133.35 L 112.08 134.92 L 128.00 135.43 L 143.93 134.92 L 159.57 133.35 L 174.69 130.79 L 189.00 127.26 L 202.27 122.83 L 214.27 117.57 L 224.78 111.57 L 233.65 104.93 L 240.72 97.78 L 245.84 90.22 L 248.96 82.40 L 250.00 74.44 L 248.96 66.47 L 245.84 58.65 L 240.72 51.09 L 233.65 43.94 L 224.78 37.30 L 214.27 31.30 L 202.27 26.04 L 189.00 21.61 L 174.69 18.08 L 159.57 15.51 L 143.93 13.95 L 128.00 13.44 L 112.08 13.95 L 96.43 15.51 L 81.31 18.08 L 67.00 21.61 L 53.73 26.04 L 41.73 31.30 L 31.22 37.30 L 22.35 43.94 L 15.28 51.09 L 10.16 58.65 L 7.04 66.47 Z M 7.13 82.36 L 7.14 82.40 L 7.04 82.40 Z M 15.32 97.76 L 15.33 97.78 L 15.28 97.78 Z M 81.29 130.74 L 81.33 130.75 L 81.31 130.79 Z M 112.05 134.89 L 112.08 134.89 L 112.08 134.92 Z M 127.75 62.45 L 127.26 62.45 L 125.79 62.39 L 125.69 62.38 L 125.61 62.38 L 125.42 62.36 L 124.34 62.27 L 123.52 62.17 L 123.26 62.14 L 123.13 62.12 L 122.91 62.09 L 121.51 61.86 L 121.17 61.79 L 121.00 61.76 L 118.85 61.23 L 117.60 60.83 L 117.05 60.62 L 116.86 60.56 L 116.73 60.51 L 116.43 60.39 L 115.32 59.90 L 115.16 59.82 L 115.06 59.77 L 114.89 59.68 L 114.30 59.37 L 113.58 58.93 L 113.48 58.87 L 113.45 58.85 L 113.37 58.80 L 112.53 58.19 L 112.28 57.97 L 112.15 57.88 L 112.05 57.78 L 111.80 57.56 L 111.16 56.89 L 111.12 56.83 L 111.09 56.80 L 111.03 56.72 L 110.64 56.20 L 110.40 55.79 L 110.32 55.67 L 110.30 55.61 L 110.23 55.49 L 109.94 54.77 L 109.89 54.60 L 109.86 54.50 L 109.84 54.36 L 109.76 54.04 L 109.70 53.30 L 109.70 52.13 L 109.70 51.12 L 109.70 50.35 L 109.70 49.85 L 109.70 49.59 L 109.70 49.51 L 109.70 44.15 L 109.70 42.74 L 109.72 42.53 L 109.71 42.40 L 109.74 42.24 L 109.74 42.19 L 109.76 42.00 L 109.80 41.82 L 109.84 41.67 L 109.87 41.49 L 109.91 41.40 L 109.94 41.27 L 110.00 41.11 L 109.43 41.21 L 110.05 41.00 L 110.17 40.70 L 110.21 40.59 L 110.22 40.57 L 110.23 40.55 L 110.64 39.84 L 110.69 39.77 L 110.73 39.72 L 110.87 39.55 L 110.89 39.51 L 111.15 39.17 L 111.16 39.15 L 111.32 38.99 L 111.42 38.87 L 111.57 38.73 L 111.59 38.70 L 111.80 38.49 L 112.10 38.22 L 112.27 38.06 L 112.39 37.98 L 112.53 37.85 L 113.13 37.42 L 113.28 37.30 L 113.31 37.28 L 113.37 37.24 L 113.70 37.04 L 114.30 36.67 L 114.38 36.63 L 114.43 36.60 L 114.66 36.48 L 115.05 36.28 L 115.32 36.14 L 115.57 36.03 L 115.72 35.95 L 115.99 35.84 L 116.43 35.65 L 116.86 35.49 L 117.13 35.38 L 117.34 35.31 L 117.55 35.23 L 117.60 35.21 L 118.37 34.97 L 118.65 34.87 L 118.74 34.85 L 118.85 34.81 L 119.84 34.55 L 120.16 34.47 L 120.20 34.46 L 120.27 34.45 L 120.59 34.38 L 121.51 34.18 L 121.77 34.14 L 121.96 34.10 L 122.28 34.05 L 122.47 34.02 L 122.91 33.95 L 123.42 33.89 L 123.71 33.84 L 123.95 33.82 L 124.34 33.77 L 125.13 33.71 L 125.38 33.69 L 125.50 33.67 L 125.63 33.67 L 125.79 33.66 L 127.26 33.60 L 127.29 33.60 L 127.32 33.59 L 127.48 33.60 L 128.00 33.60 L 128.74 33.60 L 128.96 33.60 L 129.14 33.61 L 129.52 33.63 L 130.21 33.66 L 130.62 33.69 L 130.65 33.69 L 130.95 33.71 L 131.24 33.74 L 131.66 33.77 L 132.39 33.86 L 132.74 33.90 L 132.88 33.92 L 133.09 33.95 L 133.53 34.02 L 134.42 34.17 L 134.47 34.18 L 134.48 34.18 L 134.49 34.18 L 135.84 34.47 L 136.00 34.51 L 136.15 34.54 L 136.16 34.55 L 136.50 34.64 L 137.15 34.81 L 137.50 34.92 L 137.74 34.99 L 137.98 35.08 L 138.40 35.21 L 138.45 35.23 L 138.93 35.41 L 139.23 35.51 L 139.38 35.58 L 139.57 35.65 L 140.47 36.05 L 140.61 36.11 L 140.63 36.12 L 140.68 36.14 L 140.95 36.28 L 141.70 36.67 L 141.79 36.73 L 141.87 36.77 L 142.09 36.91 L 142.30 37.04 L 142.63 37.24 L 142.84 37.40 L 142.99 37.49 L 143.16 37.63 L 143.47 37.85 L 143.77 38.11 L 143.96 38.26 L 144.06 38.36 L 144.20 38.49 L 144.41 38.70 L 144.63 38.94 L 144.77 39.08 L 144.80 39.11 L 144.84 39.15 L 144.85 39.17 L 145.11 39.51 L 145.36 39.84 L 145.39 39.89 L 145.42 39.93 L 145.51 40.10 L 145.77 40.55 L 145.83 40.70 L 145.89 40.81 L 145.95 40.99 L 145.95 41.00 L 146.57 41.21 L 146.00 41.11 L 146.06 41.27 L 146.13 41.55 L 146.19 41.71 L 146.20 41.82 L 146.20 41.83 L 146.24 42.00 L 146.28 42.44 L 146.30 42.62 L 146.29 42.68 L 146.30 42.74 L 146.30 44.15 L 146.30 48.81 L 146.30 49.51 L 146.30 49.59 L 146.30 49.85 L 146.30 50.35 L 146.30 51.12 L 146.30 52.13 L 146.30 53.30 L 146.24 54.04 L 146.16 54.36 L 146.15 54.50 L 146.10 54.60 L 146.06 54.77 L 145.77 55.49 L 145.70 55.61 L 145.68 55.67 L 145.60 55.79 L 145.36 56.20 L 144.97 56.72 L 144.91 56.80 L 144.88 56.83 L 144.84 56.89 L 144.20 57.56 L 143.95 57.78 L 143.85 57.88 L 143.72 57.97 L 143.47 58.19 L 142.63 58.80 L 142.55 58.85 L 142.52 58.87 L 142.42 58.93 L 141.70 59.37 L 141.11 59.68 L 140.94 59.77 L 140.84 59.82 L 140.68 59.90 L 139.57 60.39 L 139.26 60.51 L 139.14 60.56 L 138.95 60.62 L 138.40 60.83 L 137.15 61.23 L 135.84 61.57 L 135.22 61.70 L 135.00 61.76 L 134.83 61.79 L 134.49 61.86 L 133.09 62.09 L 132.87 62.12 L 132.74 62.14 L 132.48 62.17 L 131.66 62.27 L 130.58 62.36 L 130.39 62.38 L 130.31 62.38 L 130.21 62.39 L 128.74 62.45 L 128.25 62.45 L 128.00 62.45 Z M 113.08 48.02 L 113.07 48.02 L 113.09 48.03 L 113.09 48.03 Z M 142.93 48.02 L 142.92 48.02 L 142.91 48.03 L 142.91 48.03 Z" fill="url(#g0)" fill-rule="evenodd" stroke="url(#g0)" stroke-width="0.8"/>
<path d="M 249.60 69.53 L 249.08 67.37 L 250.00 74.44 L 249.08 81.50 L 249.60 79.34 L 250.00 74.44 Z M 248.42 64.65 L 246.46 59.84 L 246.01 59.06 L 248.71 65.82 Z M 243.72 55.12 L 241.13 51.71 L 245.33 57.89 Z M 240.24 50.52 L 236.03 46.09 L 234.30 44.59 L 240.50 50.87 Z M 231.11 41.83 L 225.53 37.79 L 225.00 37.46 L 232.84 43.33 Z M 219.32 33.98 L 215.34 31.91 L 224.08 36.90 Z M 212.51 30.44 L 205.16 27.18 L 203.14 26.43 L 213.62 31.02 Z M 197.30 24.23 L 189.00 21.61 L 180.30 19.32 L 176.24 18.46 L 189.00 21.61 L 200.95 25.60 Z M 171.26 17.40 L 161.94 15.84 L 160.38 15.65 L 173.48 17.87 Z M 152.40 14.67 L 145.30 14.09 L 157.98 15.36 Z M 142.71 13.88 L 132.91 13.48 L 129.51 13.48 L 143.41 13.94 Z M 123.09 13.48 L 113.30 13.88 L 112.59 13.94 L 126.49 13.48 Z M 103.60 14.67 L 98.02 15.36 L 110.70 14.09 Z M 94.06 15.84 L 84.74 17.40 L 82.52 17.87 L 95.62 15.65 Z M 75.70 19.32 L 67.00 21.61 L 58.70 24.23 L 55.05 25.60 L 67.00 21.61 L 79.76 18.46 Z M 50.84 27.18 L 43.49 30.44 L 42.38 31.02 L 52.86 26.43 Z M 36.68 33.98 L 31.92 36.90 L 40.66 31.91 Z M 30.47 37.79 L 24.89 41.83 L 23.16 43.33 L 31.00 37.46 Z M 19.97 46.09 L 15.76 50.52 L 15.50 50.87 L 21.70 44.59 Z M 12.28 55.12 L 10.67 57.89 L 14.87 51.71 Z M 9.54 59.84 L 7.58 64.65 L 7.29 65.82 L 9.99 59.06 Z M 6.40 69.53 L 6.00 74.44 L 6.40 79.34 L 6.92 81.50 L 6.00 74.44 L 6.92 67.37 Z M 7.99 84.78 L 7.29 83.05 L 7.58 84.22 L 7.90 85.00 Z M 248.10 85.00 L 248.42 84.22 L 248.71 83.05 L 248.01 84.78 Z" fill="url(#g1)" fill-rule="evenodd" stroke="url(#g1)" stroke-width="0.8"/>
<path d="M 223.63 133.38 L 221.12 134.91 L 222.43 134.19 Z M 229.65 129.30 L 230.24 128.80 L 228.18 130.30 Z M 235.86 124.07 L 235.93 124.00 L 235.33 124.52 Z M 241.00 118.56 L 241.82 117.39 L 240.63 118.95 Z M 245.02 112.82 L 245.53 111.77 L 244.43 113.66 Z M 247.87 106.91 L 248.06 106.24 L 247.30 108.09 Z M 249.54 100.88 L 249.55 100.70 L 249.28 101.81 Z M 247.97 84.88 L 246.01 89.81 L 246.46 89.03 L 248.05 85.12 Z M 7.95 85.11 L 9.54 89.03 L 9.99 89.81 L 8.03 84.89 Z M 6.24 99.37 L 6.34 99.85 L 6.21 98.12 Z M 7.60 105.41 L 7.69 105.62 L 7.59 105.38 Z M 10.16 111.35 L 10.92 112.54 L 9.93 110.83 Z M 13.89 117.14 L 14.70 118.07 L 13.29 116.22 Z M 18.75 122.72 L 19.32 123.22 L 17.75 121.57 Z M 24.70 128.02 L 24.79 128.09 L 24.16 127.53 Z M 31.68 133.00 L 33.29 133.94 L 31.18 132.65 Z M 39.61 137.61 L 41.19 138.37 L 38.43 136.93 Z M 48.42 141.80 L 49.48 142.21 L 46.65 140.96 Z M 58.02 145.53 L 58.32 145.63 L 56.59 144.98 Z M 68.32 148.77 L 70.42 149.29 L 67.76 148.59 Z M 79.21 151.48 L 81.35 151.88 L 77.76 151.12 Z M 90.59 153.63 L 92.07 153.82 L 88.40 153.21 Z M 102.34 155.20 L 102.90 155.25 L 100.16 154.91 Z M 114.34 156.18 L 116.41 156.25 L 113.89 156.15 Z M 126.48 156.56 L 128.89 156.52 L 125.04 156.52 Z M 138.63 156.33 L 140.33 156.22 L 136.38 156.38 Z M 150.68 155.50 L 151.42 155.41 L 148.30 155.67 Z M 162.50 154.07 L 163.95 153.82 L 162.25 154.10 Z M 173.98 152.07 L 176.23 151.54 L 172.80 152.27 Z M 185.01 149.50 L 186.63 149.01 L 183.09 149.94 Z M 195.46 146.39 L 196.24 146.10 L 193.31 147.03 Z M 205.25 142.78 L 205.60 142.62 L 205.20 142.80 Z M 214.27 138.70 L 215.94 137.77 L 213.48 139.06 Z M 240.50 98.00 L 237.09 101.45 L 237.02 101.74 L 240.24 98.34 Z M 243.72 93.75 L 245.33 90.98 L 241.14 97.16 Z M 18.91 101.45 L 15.50 98.00 L 15.76 98.34 L 18.98 101.74 Z M 12.28 93.75 L 14.86 97.16 L 10.67 90.98 Z" fill="#cad1cc" fill-rule="evenodd" stroke="#cad1cc" stroke-width="0.8"/>
<path d="M 146.20 41.83 L 146.28 42.44 L 146.24 42.00 Z M 146.06 41.27 L 145.95 40.99 L 146.13 41.55 Z M 145.77 40.55 L 145.51 40.10 L 145.83 40.70 Z M 145.36 39.84 L 144.84 39.15 L 144.80 39.11 L 145.39 39.89 Z M 144.20 38.49 L 144.06 38.36 L 144.63 38.94 Z M 143.47 37.85 L 143.16 37.63 L 143.77 38.11 Z M 142.63 37.24 L 142.09 36.91 L 142.84 37.40 Z M 141.70 36.67 L 140.68 36.14 L 140.63 36.12 L 141.79 36.73 Z M 139.57 35.65 L 139.38 35.58 L 140.47 36.05 Z M 138.40 35.21 L 137.98 35.08 L 138.93 35.41 Z M 137.15 34.81 L 136.50 34.64 L 137.50 34.92 Z M 135.84 34.47 L 134.49 34.18 L 136.00 34.51 Z M 133.09 33.95 L 132.88 33.92 L 134.42 34.17 Z M 131.66 33.77 L 131.24 33.74 L 132.39 33.86 Z M 130.21 33.66 L 129.52 33.63 L 130.65 33.69 Z M 128.74 33.60 L 127.48 33.60 L 128.96 33.60 Z M 127.26 33.60 L 125.79 33.66 L 125.63 33.67 L 127.29 33.60 Z M 124.34 33.77 L 123.95 33.82 L 125.13 33.71 Z M 122.91 33.95 L 122.28 34.05 L 123.42 33.89 Z M 121.51 34.18 L 120.59 34.38 L 121.77 34.14 Z M 120.16 34.47 L 118.85 34.81 L 118.74 34.85 L 120.20 34.46 Z M 117.60 35.21 L 117.34 35.31 L 118.37 34.97 Z M 116.43 35.65 L 115.99 35.84 L 116.86 35.49 Z M 115.32 36.14 L 114.66 36.48 L 115.57 36.03 Z M 114.30 36.67 L 113.37 37.24 L 113.31 37.28 L 114.38 36.63 Z M 112.53 37.85 L 112.39 37.98 L 113.13 37.42 Z M 111.80 38.49 L 111.57 38.73 L 112.10 38.22 Z M 111.16 39.15 L 110.87 39.55 L 111.32 38.99 Z M 110.64 39.84 L 110.23 40.55 L 110.22 40.57 L 110.69 39.77 Z M 109.94 41.27 L 109.91 41.40 L 110.17 40.70 Z M 109.76 42.00 L 109.74 42.24 L 109.84 41.67 Z M 109.70 42.74 L 109.73 43.13 L 109.72 42.53 Z M 113.08 48.02 L 112.51 47.61 L 112.53 47.63 L 113.07 48.02 Z M 142.93 48.02 L 143.03 47.95 L 142.92 48.02 Z M 146.29 42.68 L 146.23 43.51 L 146.24 43.47 L 146.30 42.74 Z M 143.47 47.63 L 144.09 47.09 L 143.34 47.72 Z M 144.84 46.33 L 144.90 46.24 L 144.19 47.00 L 144.20 46.99 Z M 145.36 45.64 L 145.46 45.45 L 145.07 46.02 Z M 145.77 44.93 L 145.90 44.62 L 145.63 45.17 Z M 146.06 44.21 L 146.19 43.66 L 146.01 44.34 Z M 109.94 44.21 L 109.94 44.21 L 109.75 43.38 L 109.76 43.47 Z M 110.23 44.93 L 110.29 45.03 L 109.95 44.24 Z M 110.64 45.64 L 110.79 45.84 L 110.44 45.28 Z M 111.16 46.33 L 111.47 46.64 L 111.00 46.11 Z M 111.80 46.99 L 112.45 47.56 L 111.70 46.89 Z" fill="url(#g3)" fill-rule="evenodd" stroke="url(#g3)" stroke-width="0.8"/>
<path d="M 109.76 54.04 L 109.94 54.77 L 110.23 55.49 L 110.64 56.20 L 111.16 56.89 L 111.80 57.56 L 112.53 58.19 L 113.37 58.80 L 114.30 59.37 L 115.32 59.90 L 116.43 60.39 L 117.60 60.83 L 118.85 61.23 L 120.77 61.70 L 121.51 61.86 L 122.91 62.09 L 124.34 62.27 L 125.79 62.39 L 127.26 62.45 L 128.74 62.45 L 130.21 62.39 L 131.66 62.27 L 133.09 62.09 L 134.49 61.86 L 135.84 61.57 L 137.15 61.23 L 138.40 60.83 L 139.57 60.39 L 140.68 59.90 L 141.70 59.37 L 142.63 58.80 L 143.47 58.19 L 144.20 57.56 L 144.84 56.89 L 145.36 56.20 L 145.77 55.49 L 146.06 54.77 L 146.24 54.04 L 146.30 53.30 L 146.30 42.74 L 146.24 43.47 L 146.23 43.51 L 146.23 43.54 L 146.19 43.66 L 146.06 44.21 L 146.01 44.34 L 145.98 44.44 L 145.90 44.62 L 145.77 44.93 L 145.63 45.17 L 145.55 45.33 L 145.46 45.45 L 145.36 45.64 L 145.07 46.02 L 144.95 46.19 L 144.90 46.24 L 144.84 46.33 L 144.20 46.99 L 144.19 47.00 L 144.18 47.01 L 144.09 47.09 L 143.47 47.63 L 143.34 47.72 L 143.25 47.80 L 143.03 47.95 L 142.63 48.23 L 142.34 48.41 L 142.16 48.53 L 141.97 48.64 L 141.70 48.81 L 141.18 49.08 L 140.94 49.21 L 140.82 49.26 L 140.68 49.34 L 139.59 49.82 L 139.57 49.83 L 138.40 50.27 L 138.22 50.32 L 138.12 50.36 L 137.81 50.45 L 137.15 50.66 L 136.80 50.75 L 136.55 50.83 L 136.26 50.90 L 135.84 51.01 L 135.21 51.14 L 134.90 51.21 L 134.74 51.24 L 134.49 51.29 L 133.43 51.47 L 133.18 51.52 L 133.13 51.52 L 133.09 51.53 L 131.66 51.70 L 131.53 51.71 L 131.40 51.73 L 131.00 51.76 L 130.21 51.82 L 129.85 51.84 L 129.59 51.85 L 129.28 51.86 L 128.74 51.88 L 128.09 51.88 L 127.77 51.89 L 127.58 51.88 L 127.26 51.88 L 126.31 51.84 L 125.95 51.83 L 125.86 51.82 L 125.79 51.82 L 124.34 51.70 L 124.23 51.69 L 124.15 51.68 L 123.85 51.64 L 122.91 51.53 L 122.60 51.48 L 122.39 51.45 L 122.08 51.39 L 121.51 51.29 L 121.00 51.18 L 120.68 51.12 L 120.47 51.07 L 120.16 51.01 L 119.39 50.80 L 119.05 50.72 L 118.95 50.69 L 118.85 50.66 L 117.60 50.27 L 117.53 50.24 L 117.50 50.23 L 117.37 50.18 L 116.43 49.83 L 116.22 49.74 L 116.06 49.67 L 115.79 49.54 L 115.32 49.34 L 114.98 49.16 L 114.74 49.05 L 114.56 48.94 L 114.30 48.81 L 113.80 48.50 L 113.55 48.35 L 113.47 48.30 L 113.37 48.23 L 112.53 47.63 L 112.51 47.61 L 112.50 47.61 L 112.45 47.56 L 111.80 46.99 L 111.70 46.89 L 111.61 46.81 L 111.47 46.64 L 111.16 46.33 L 111.00 46.11 L 110.88 45.98 L 110.79 45.84 L 110.64 45.64 L 110.44 45.28 L 110.32 45.11 L 110.29 45.03 L 110.23 44.93 L 109.95 44.24 L 109.94 44.22 L 109.94 44.21 L 109.94 44.21 L 109.76 43.47 L 109.75 43.38 L 109.74 43.31 L 109.73 43.13 L 109.70 42.74 L 109.70 53.30 Z" fill="url(#g4)" fill-rule="evenodd" stroke="url(#g4)" stroke-width="0.8"/>
<path d="M 143.25 47.80 L 144.18 47.01 L 144.95 46.19 L 145.55 45.33 L 145.98 44.44 L 146.23 43.54 L 146.30 42.62 L 146.19 41.71 L 145.89 40.81 L 145.42 39.93 L 144.77 39.08 L 143.96 38.26 L 142.99 37.49 L 141.87 36.77 L 140.61 36.11 L 139.23 35.51 L 137.74 34.99 L 136.15 34.54 L 134.47 34.18 L 132.74 33.90 L 130.95 33.71 L 129.14 33.61 L 127.32 33.59 L 125.50 33.67 L 123.71 33.84 L 121.96 34.10 L 120.27 34.45 L 118.65 34.87 L 117.13 35.38 L 115.72 35.95 L 114.43 36.60 L 113.28 37.30 L 112.27 38.06 L 111.42 38.87 L 110.73 39.72 L 110.21 40.59 L 109.87 41.49 L 109.71 42.40 L 109.74 43.31 L 109.94 44.22 L 110.32 45.11 L 110.88 45.98 L 111.61 46.81 L 112.50 47.61 L 113.55 48.35 L 114.74 49.05 L 116.06 49.67 L 117.50 50.23 L 119.05 50.72 L 120.68 51.12 L 122.39 51.45 L 124.15 51.68 L 125.95 51.83 L 127.77 51.89 L 129.59 51.85 L 131.40 51.73 L 133.18 51.52 L 134.90 51.21 L 136.55 50.83 L 138.12 50.36 L 139.59 49.82 L 140.94 49.21 L 142.16 48.53 Z" fill="#cad1cc" fill-rule="evenodd" stroke="#cad1cc" stroke-width="0.8"/>
<path d="M 18.98 101.74 L 19.97 102.78 L 21.70 104.28 L 18.91 101.45 Z M 237.09 101.45 L 234.29 104.28 L 236.03 102.78 L 237.02 101.74 Z M 24.89 107.04 L 30.47 111.08 L 31.00 111.41 L 23.15 105.53 Z M 205.16 121.69 L 212.51 118.43 L 213.62 117.85 L 203.13 122.45 Z M 215.34 116.96 L 219.32 114.89 L 224.08 111.97 Z M 225.53 111.08 L 231.11 107.04 L 232.85 105.53 L 225.00 111.41 Z M 43.49 118.43 L 50.84 121.69 L 52.87 122.45 L 42.38 117.85 Z M 31.92 111.97 L 36.68 114.89 L 40.66 116.96 Z" fill="url(#g6)" fill-rule="evenodd" stroke="url(#g6)" stroke-width="0.8"/>
<path d="M 7.58 105.35 L 9.54 110.16 L 12.28 114.88 L 15.76 119.48 L 19.97 123.91 L 24.89 128.17 L 30.47 132.21 L 36.68 136.02 L 43.49 139.56 L 50.84 142.82 L 58.70 145.77 L 67.00 148.39 L 75.70 150.68 L 84.74 152.60 L 94.06 154.16 L 103.60 155.33 L 113.30 156.12 L 123.09 156.52 L 132.91 156.52 L 142.71 156.12 L 152.40 155.33 L 161.94 154.16 L 171.26 152.60 L 180.30 150.68 L 189.00 148.39 L 197.30 145.77 L 205.16 142.82 L 212.51 139.56 L 219.32 136.02 L 225.53 132.21 L 231.11 128.17 L 236.03 123.91 L 240.24 119.48 L 243.72 114.88 L 246.46 110.16 L 248.42 105.35 L 249.60 100.47 L 250.00 95.57 L 250.00 74.44 L 249.60 79.34 L 249.08 81.50 L 248.96 82.40 L 248.71 83.05 L 248.42 84.22 L 246.46 89.03 L 246.01 89.81 L 245.84 90.22 L 245.33 90.98 L 243.72 93.75 L 241.14 97.16 L 240.72 97.78 L 240.50 98.00 L 240.24 98.34 L 236.03 102.78 L 234.29 104.28 L 233.65 104.93 L 232.85 105.53 L 231.11 107.04 L 225.53 111.08 L 225.00 111.41 L 224.78 111.57 L 224.08 111.97 L 219.32 114.89 L 215.34 116.96 L 214.27 117.57 L 213.62 117.85 L 212.51 118.43 L 205.16 121.69 L 203.13 122.45 L 202.27 122.83 L 200.97 123.26 L 197.30 124.64 L 189.00 127.26 L 180.30 129.54 L 176.23 130.41 L 174.69 130.79 L 173.49 131.00 L 171.26 131.47 L 161.94 133.03 L 160.37 133.22 L 159.57 133.35 L 158.00 133.51 L 152.40 134.20 L 145.33 134.78 L 143.93 134.92 L 143.39 134.93 L 142.71 134.99 L 132.91 135.38 L 129.51 135.38 L 128.00 135.43 L 126.49 135.38 L 123.09 135.38 L 113.30 134.99 L 112.61 134.93 L 112.08 134.92 L 110.67 134.78 L 103.60 134.20 L 98.00 133.51 L 96.43 133.35 L 95.63 133.22 L 94.06 133.03 L 84.74 131.47 L 82.51 131.00 L 81.31 130.79 L 79.77 130.41 L 75.70 129.54 L 67.00 127.26 L 58.70 124.64 L 55.03 123.26 L 53.73 122.83 L 52.87 122.45 L 50.84 121.69 L 43.49 118.43 L 42.38 117.85 L 41.73 117.57 L 40.66 116.96 L 36.68 114.89 L 31.92 111.97 L 31.22 111.57 L 31.24 111.55 L 30.47 111.08 L 24.89 107.04 L 22.44 104.92 L 22.35 104.93 L 21.70 104.28 L 19.97 102.78 L 15.76 98.34 L 15.50 98.00 L 15.28 97.78 L 14.86 97.16 L 12.28 93.75 L 10.67 90.98 L 10.16 90.22 L 9.99 89.81 L 9.54 89.03 L 7.58 84.22 L 7.29 83.05 L 7.04 82.40 L 6.92 81.50 L 6.40 79.34 L 6.00 74.44 L 6.00 95.57 L 6.40 100.47 Z M 112.05 134.89 L 112.08 134.92 L 112.08 134.89 Z M 81.29 130.74 L 81.31 130.79 L 81.33 130.75 Z M 15.32 97.76 L 15.28 97.78 L 15.33 97.78 Z M 7.13 82.36 L 7.04 82.40 L 7.14 82.40 Z" fill="url(#g7)" fill-rule="evenodd" stroke="url(#g7)" stroke-width="0.8"/>
</g>
<g stroke="black" fill="none" stroke-linecap="round">
<path d="M 214.27 117.57 A 122.00 61.00 -180.00 0 0 41.73 31.30 A 122.00 61.00 -180.00 0 0 214.27 117.57" stroke-width="2.00"/>
<path d="M 208.18 120.39 A 109.80 54.90 180.00 0 0 209.62 119.61" stroke-width="2.00"/>
<path d="M 46.43 119.64 A 109.80 54.90 180.00 0 0 47.87 120.42" stroke-width="2.00"/>
<path d="M 140.94 59.77 A 18.30 9.15 180.00 0 0 146.30 53.30" stroke-width="2.00"/>
<path d="M 109.70 53.30 A 18.30 9.15 180.00 0 0 140.94 59.77" stroke-width="2.00"/>
<path d="M 140.94 49.21 A 18.30 9.15 180.00 0 0 115.06 36.27 A 18.30 9.15 180.00 0 0 140.94 49.21" stroke-width="2.00"/>
<line x1="146.30" y1="53.30" x2="146.30" y2="42.74" stroke-width="2.00"/>
<line x1="109.70" y1="53.30" x2="109.70" y2="42.74" stroke-width="2.00"/>
<path d="M 140.94 59.77 A 18.30 9.15 180.00 0 0 146.30 53.30" stroke-width="2.00"/>
<path d="M 109.70 53.30 A 18.30 9.15 180.00 0 0 140.94 59.77" stroke-width="2.00"/>
<path d="M 140.94 49.21 A 18.30 9.15 180.00 0 0 115.06 36.27 A 18.30 9.15 180.00 0 0 140.94 49.21" stroke-width="2.00"/>
<path d="M 140.94 49.21 A 18.30 9.15 180.00 0 0 115.06 36.27 A 18.30 9.15 180.00 0 0 140.94 49.21" stroke-width="2.00"/>
<path d="M 18.84 101.47 A 109.80 54.90 180.00 0 0 18.87 101.63" stroke-width="2.00"/>
<path d="M 237.14 101.59 A 109.80 54.90 180.00 0 0 237.17 101.44" stroke-width="2.00"/>
<path d="M 18.84 101.47 A 109.80 54.90 180.00 0 0 18.87 101.63" stroke-width="2.00"/>
<path d="M 237.14 101.59 A 109.80 54.90 180.00 0 0 237.17 101.44" stroke-width="2.00"/>
<path d="M 214.27 138.70 A 122.00 61.00 180.00 0 1 6.00 95.55" stroke-width="2.00"/>
<path d="M 7.86 84.94 A 122.00 61.00 180.00 0 1 7.92 84.79" stroke-width="2.00"/>
<path d="M 248.07 84.75 A 122.00 61.00 180.00 0 1 248.12 84.90" stroke-width="2.00"/>
<path d="M 250.00 95.66 A 122.00 61.00 180.00 0 1 214.27 138.70" stroke-width="2.00"/>
<path d="M 18.89 101.70 A 109.80 54.90 180.00 0 1 18.82 101.40" stroke-width="2.00"/>
<path d="M 237.19 101.36 A 109.80 54.90 180.00 0 1 237.12 101.66" stroke-width="2.00"/>
<line x1="250.00" y1="74.43" x2="250.00" y2="95.57" stroke-width="2.00"/>
<line x1="6.00" y1="74.43" x2="6.00" y2="95.57" stroke-width="2.00"/>
<path d="M 41.73 31.30 A 122.00 61.00 -180.00 0 0 214.27 117.57 A 122.00 61.00 -180.00 0 0 41.73 31.30" stroke-width="2.00"/>
<path d="M 7.94 84.72 A 122.00 61.00 180.00 0 0 7.89 84.87" stroke-width="2.00"/>
<path d="M 6.00 95.62 A 122.00 61.00 180.00 0 0 250.00 95.58" stroke-width="2.00"/>
<path d="M 248.15 84.98 A 122.00 61.00 180.00 0 0 248.10 84.83" stroke-width="2.00"/>
</g>
</svg>