<svg xmlns="http://www.w3.org/2000/svg" viewBox="0 0 256 170" preserveAspectRatio="xMidYMid meet">
<defs><linearGradient id="g6" gradientUnits="userSpaceOnUse" x1="116.90" y1="102.95" x2="100.72" y2="70.58"><stop offset="-0.0%" stop-color="#fff6bd"/><stop offset="3.8%" stop-color="#ffffc9"/><stop offset="14.6%" stop-color="#fffec4"/><stop offset="30.9%" stop-color="#fae1ad"/><stop offset="50.0%" stop-color="#c7b38a"/><stop offset="69.1%" stop-color="#897b5f"/><stop offset="85.4%" stop-color="#7d7157"/><stop offset="96.2%" stop-color="#7d7157"/><stop offset="100.0%" stop-color="#7d7157"/></linearGradient><linearGradient id="g10" gradientUnits="userSpaceOnUse" x1="90.27" y1="65.68" x2="114.55" y2="114.24"><stop offset="0.0%" stop-color="#fff6bd"/><stop offset="3.8%" stop-color="#ffffc9"/><stop offset="14.6%" stop-color="#fffec4"/><stop offset="30.9%" stop-color="#fae1ad"/><stop offset="50.0%" stop-color="#c7b38a"/><stop offset="69.1%" stop-color="#897b5f"/><stop offset="85.4%" stop-color="#7d7157"/><stop offset="96.2%" stop-color="#7d7157"/><stop offset="100.0%" stop-color="#7d7157"/></linearGradient><linearGradient id="g11" gradientUnits="userSpaceOnUse" x1="100.86" y1="30.15" x2="155.14" y2="30.15"><stop offset="0.0%" stop-color="#dfc89a"/><stop offset="3.8%" stop-color="#e9d1a1"/><stop offset="14.6%" stop-color="#e3cc9d"/><stop offset="30.9%" stop-color="#cdb88e"/><stop offset="50.0%" stop-color="#ab9a77"/><stop offset="69.1%" stop-color="#83765b"/><stop offset="85.4%" stop-color="#7d7157"/><stop offset="96.2%" stop-color="#7d7157"/><stop offset="100.0%" stop-color="#7d7157"/></linearGradient></defs>
<g stroke-linejoin="round">
<path d="M 76.82 83.56 L 76.82 109.94 L 140.79 141.93 L 140.79 63.58 L 76.82 31.59 L 76.82 83.56 Z M 83.87 68.88 L 86.45 67.59 L 89.61 66.01 L 89.61 53.66 L 108.81 63.26 L 128.00 72.85 L 128.00 119.86 L 115.65 113.69 L 109.55 116.74 L 108.15 117.44 A 27.14 16.62 -116.57 0 1 80.86 99.98 A 27.14 16.62 -116.57 0 1 83.87 68.88 Z" fill="#c2ae86" fill-rule="evenodd" stroke="#c2ae86" stroke-width="0.8"/>
<path d="M 128.00 164.00 L 128.00 148.33 L 64.02 116.34 L 64.02 132.01 L 128.00 164.00 Z" fill="#c2ae86" fill-rule="evenodd" stroke="#c2ae86" stroke-width="0.8"/>
<path d="M 64.02 116.34 L 128.00 148.33 L 140.79 141.93 L 76.82 109.94 L 64.02 116.34 Z" fill="#ffffcd" fill-rule="evenodd" stroke="#ffffcd" stroke-width="0.8"/>
<path d="M 89.61 66.01 L 89.71 65.96 L 90.06 65.79 L 90.74 65.45 L 91.83 64.90 L 93.34 64.15 L 95.17 63.23 L 96.67 62.48 A 27.14 16.62 -116.57 0 1 108.81 63.26 L 89.61 53.66 L 89.61 66.01 Z" fill="#c2ae86" fill-rule="evenodd" stroke="#c2ae86" stroke-width="0.8"/>
<path d="M 140.79 63.58 L 140.79 141.93 L 128.00 148.33 L 128.00 164.00 L 191.98 132.01 L 191.98 37.99 L 140.79 63.58 Z" fill="#897b5f" fill-rule="evenodd" stroke="#897b5f" stroke-width="0.8"/>
<path d="M 120.50 111.26 L 118.70 112.16 L 117.27 112.88 L 116.31 113.36 L 115.80 113.61 L 115.65 113.69 L 128.00 119.86 L 128.00 96.36 A 27.14 16.62 -116.57 0 1 120.50 111.26 Z" fill="#c2ae86" fill-rule="evenodd" stroke="#c2ae86" stroke-width="0.8"/>
<path d="M 87.39 77.28 A 18.10 11.08 -116.57 0 0 104.91 108.86 A 18.10 11.08 -116.57 0 0 87.39 77.28 Z" fill="url(#g6)" fill-rule="evenodd" stroke="url(#g6)" stroke-width="0.8"/>
<path d="M 134.24 9.12 L 128.00 6.00 L 121.78 9.11 A 27.14 13.57 -180.00 0 1 134.24 9.12 Z M 100.86 37.99 L 100.86 22.32 A 27.14 13.57 -180.00 0 1 101.59 19.21 L 76.82 31.59 L 140.79 63.58 L 191.98 37.99 L 154.41 19.20 A 27.14 13.57 -180.00 0 1 155.14 22.32 L 155.14 37.99 A 27.14 13.57 -180.00 0 1 100.86 37.99 Z" fill="#ffffcd" fill-rule="evenodd" stroke="#ffffcd" stroke-width="0.8"/>
<path d="M 114.87 98.29 A 27.14 16.62 -116.57 0 0 77.41 89.66 A 27.14 16.62 -116.57 0 0 114.87 98.29 Z M 108.55 102.53 A 18.10 11.08 -116.57 0 1 83.61 83.09 A 18.10 11.08 -116.57 0 1 108.55 102.53 Z" fill="#c2ae86" fill-rule="evenodd" stroke="#c2ae86" stroke-width="0.8"/>
<path d="M 128.00 96.36 L 128.00 72.85 L 108.81 63.26 A 27.14 16.62 -116.57 0 1 128.00 96.36 Z" fill="#c2ae86" fill-rule="evenodd" stroke="#c2ae86" stroke-width="0.8"/>
<path d="M 108.15 117.44 L 120.95 111.04 A 27.14 16.62 -116.57 0 0 96.67 62.48 L 83.87 68.88 A 27.14 16.62 -116.57 0 1 108.15 117.44 Z" fill="url(#g10)" fill-rule="evenodd" stroke="url(#g10)" stroke-width="0.8"/>
<path d="M 155.14 37.99 L 155.14 22.32 A 27.14 13.57 -180.00 0 1 125.76 35.83 L 125.76 35.83 A 27.14 13.57 -180.00 0 1 100.86 22.32 L 100.86 37.99 A 27.14 13.57 -180.00 0 0 155.14 37.99 Z" fill="url(#g11)" fill-rule="evenodd" stroke="url(#g11)" stroke-width="0.8"/>
<path d="M 153.14 27.43 A 27.14 13.57 -180.00 0 0 102.38 17.84 A 27.14 13.57 -180.00 0 0 153.14 27.43 Z" fill="#ffffcd" fill-rule="evenodd" stroke="#ffffcd" stroke-width="0.8"/>
</g>
<g stroke="black" fill="none" stroke-linecap="round">
<line x1="155.14" y1="22.32" x2="155.14" y2="37.99" stroke-width="2.00"/>
<line x1="100.86" y1="22.32" x2="100.86" y2="37.99" stroke-width="2.00"/>
<line x1="108.15" y1="117.44" x2="120.95" y2="111.04" stroke-width="2.00"/>
<line x1="83.87" y1="68.88" x2="96.67" y2="62.48" stroke-width="2.00"/>
<line x1="64.02" y1="132.01" x2="128.00" y2="164.00" stroke-width="2.00"/>
<line x1="128.00" y1="164.00" x2="191.98" y2="132.01" stroke-width="2.00"/>
<line x1="76.82" y1="109.94" x2="140.80" y2="141.93" stroke-width="2.00"/>
<line x1="64.02" y1="116.34" x2="76.82" y2="109.94" stroke-width="2.00"/>
<line x1="64.02" y1="116.34" x2="128.00" y2="148.33" stroke-width="2.00"/>
<line x1="128.00" y1="148.33" x2="140.80" y2="141.93" stroke-width="2.00"/>
<line x1="128.00" y1="6.00" x2="134.15" y2="9.07" stroke-width="2.00"/>
<line x1="154.54" y1="19.27" x2="191.98" y2="37.99" stroke-width="2.00"/>
<line x1="76.82" y1="31.59" x2="101.57" y2="19.21" stroke-width="2.00"/>
<line x1="121.85" y1="9.08" x2="128.00" y2="6.00" stroke-width="2.00"/>
<line x1="76.82" y1="31.59" x2="140.80" y2="63.58" stroke-width="2.00"/>
<line x1="140.80" y1="63.58" x2="191.98" y2="37.99" stroke-width="2.00"/>
<line x1="191.98" y1="37.99" x2="191.98" y2="132.01" stroke-width="2.00"/>
<line x1="140.80" y1="63.58" x2="140.80" y2="141.93" stroke-width="2.00"/>
<line x1="76.82" y1="31.59" x2="76.82" y2="109.94" stroke-width="2.00"/>
<line x1="128.00" y1="148.33" x2="128.00" y2="164.00" stroke-width="2.00"/>
<line x1="64.02" y1="116.34" x2="64.02" y2="132.01" stroke-width="2.00"/>
<path d="M 96.66 62.49 A 27.14 16.62 -116.57 0 1 121.01 111.01" stroke-width="2.00"/>
<path d="M 155.14 37.99 A 27.14 13.57 -180.00 0 1 100.86 37.99" stroke-width="2.00"/>
<path d="M 147.19 31.91 A 27.14 13.57 -180.00 0 0 108.81 12.72 A 27.14 13.57 -180.00 0 0 147.19 31.91" stroke-width="2.00"/>
<path d="M 108.81 99.56 A 18.10 11.08 -116.57 0 1 83.22 86.76 A 18.10 11.08 -116.57 0 1 108.81 99.56" stroke-width="2.00"/>
<path d="M 115.20 102.75 A 27.14 16.62 -116.57 0 1 76.82 83.56 A 27.14 16.62 -116.57 0 1 115.20 102.75" stroke-width="2.00"/>
</g>
</svg>