<svg xmlns="http://www.w3.org/2000/svg" viewBox="0 0 256 170" preserveAspectRatio="xMidYMid meet">
<defs><linearGradient id="g4" gradientUnits="userSpaceOnUse" x1="116.90" y1="102.95" x2="100.72" y2="70.58"><stop offset="-0.0%" stop-color="#fff6bd"/><stop offset="3.8%" stop-color="#ffffc9"/><stop offset="14.6%" stop-color="#fffec4"/><stop offset="30.9%" stop-color="#fae1ad"/><stop offset="50.0%" stop-color="#c7b38a"/><stop offset="69.1%" stop-color="#897b5f"/><stop offset="85.4%" stop-color="#7d7157"/><stop offset="96.2%" stop-color="#7d7157"/><stop offset="100.0%" stop-color="#7d7157"/></linearGradient><linearGradient id="g7" gradientUnits="userSpaceOnUse" x1="90.27" y1="65.68" x2="114.55" y2="114.24"><stop offset="0.0%" stop-color="#fff6bd"/><stop offset="3.8%" stop-color="#ffffc9"/><stop offset="14.6%" stop-color="#fffec4"/><stop offset="30.9%" stop-color="#fae1ad"/><stop offset="50.0%" stop-color="#c7b38a"/><stop offset="69.1%" stop-color="#897b5f"/><stop offset="85.4%" stop-color="#7d7157"/><stop offset="96.2%" stop-color="#7d7157"/><stop offset="100.0%" stop-color="#7d7157"/></linearGradient><linearGradient id="g8" gradientUnits="userSpaceOnUse" x1="100.86" y1="30.15" x2="155.14" y2="30.15"><stop offset="0.0%" stop-color="#dfc89a"/><stop offset="3.8%" stop-color="#e9d1a1"/><stop offset="14.6%" stop-color="#e3cc9d"/><stop offset="30.9%" stop-color="#cdb88e"/><stop offset="50.0%" stop-color="#ab9a77"/><stop offset="69.1%" stop-color="#83765b"/><stop offset="85.4%" stop-color="#7d7157"/><stop offset="96.2%" stop-color="#7d7157"/><stop offset="100.0%" stop-color="#7d7157"/></linearGradient></defs>
<g stroke-linejoin="round">
<path d="M 76.82 109.94 L 140.79 141.93 L 140.79 63.58 L 76.82 31.59 L 76.82 83.56 L 76.82 109.94 Z M 83.87 68.88 L 86.45 67.59 L 89.61 66.01 L 89.71 65.96 L 90.06 65.79 L 90.75 65.45 L 91.83 64.90 L 93.34 64.15 L 95.17 63.23 L 96.67 62.48 A 27.14 16.62 -116.57 0 1 123.24 78.48 A 27.14 16.62 -116.57 0 1 121.87 110.50 A 27.14 16.62 -116.57 0 1 120.50 111.26 L 118.70 112.16 L 117.27 112.88 L 116.31 113.36 L 115.80 113.61 L 115.65 113.69 L 109.55 116.74 L 108.15 117.44 A 27.14 16.62 -116.57 0 1 81.65 101.56 A 27.14 16.62 -116.57 0 1 83.08 69.35 A 27.14 16.62 -116.57 0 1 83.87 68.88 Z" fill="#c2ae86" fill-rule="evenodd" stroke="#c2ae86" stroke-width="0.8"/>
<path d="M 128.00 164.00 L 128.00 148.33 L 64.02 116.34 L 64.02 132.01 L 128.00 164.00 Z" fill="#c2ae86" fill-rule="evenodd" stroke="#c2ae86" stroke-width="0.8"/>
<path d="M 64.02 116.34 L 128.00 148.33 L 140.79 141.93 L 76.82 109.94 L 64.02 116.34 Z" fill="#ffffcd" fill-rule="evenodd" stroke="#ffffcd" stroke-width="0.8"/>
<path d="M 140.79 63.58 L 140.79 141.93 L 128.00 148.33 L 128.00 164.00 L 191.98 132.01 L 191.98 37.99 L 140.79 63.58 Z" fill="#897b5f" fill-rule="evenodd" stroke="#897b5f" stroke-width="0.8"/>
<path d="M 87.39 77.28 A 18.10 11.08 -116.57 0 0 86.55 98.97 A 18.10 11.08 -116.57 0 0 104.04 109.37 A 18.10 11.08 -116.57 0 0 105.97 88.33 A 18.10 11.08 -116.57 0 0 88.33 76.80 A 18.10 11.08 -116.57 0 0 87.39 77.28 Z" fill="url(#g4)" fill-rule="evenodd" stroke="url(#g4)" stroke-width="0.8"/>
<path d="M 134.24 9.12 L 128.00 6.00 L 121.78 9.11 A 27.14 13.57 -180.00 0 1 134.24 9.12 Z M 100.86 37.99 L 100.86 22.32 A 27.14 13.57 -180.00 0 1 101.59 19.21 L 76.82 31.59 L 140.79 63.58 L 191.98 37.99 L 154.41 19.20 A 27.14 13.57 -180.00 0 1 155.14 22.32 L 155.14 37.99 A 27.14 13.57 -180.00 0 1 129.09 51.55 A 27.14 13.57 -180.00 0 1 100.94 39.08 A 27.14 13.57 -180.00 0 1 100.86 37.99 Z" fill="#ffffcd" fill-rule="evenodd" stroke="#ffffcd" stroke-width="0.8"/>
<path d="M 114.87 98.29 A 27.14 16.62 -116.57 0 0 93.44 68.59 A 27.14 16.62 -116.57 0 0 76.84 84.75 A 27.14 16.62 -116.57 0 0 95.53 116.42 A 27.14 16.62 -116.57 0 0 115.12 104.85 A 27.14 16.62 -116.57 0 0 114.87 98.29 Z M 108.55 102.53 A 18.10 11.08 -116.57 0 1 94.42 107.91 A 18.10 11.08 -116.57 0 1 83.23 85.99 A 18.10 11.08 -116.57 0 1 95.69 77.33 A 18.10 11.08 -116.57 0 1 108.74 97.96 A 18.10 11.08 -116.57 0 1 108.55 102.53 Z" fill="#c2ae86" fill-rule="evenodd" stroke="#c2ae86" stroke-width="0.8"/>
<path d="M 108.15 117.44 L 120.95 111.04 A 27.14 16.62 -116.57 0 0 124.09 80.19 A 27.14 16.62 -116.57 0 0 97.66 62.07 A 27.14 16.62 -116.57 0 0 96.67 62.48 L 83.87 68.88 A 27.14 16.62 -116.57 0 1 110.38 84.75 A 27.14 16.62 -116.57 0 1 109.31 116.76 A 27.14 16.62 -116.57 0 1 108.15 117.44 Z" fill="url(#g7)" fill-rule="evenodd" stroke="url(#g7)" stroke-width="0.8"/>
<path d="M 155.14 37.99 L 155.14 22.32 A 27.14 13.57 -180.00 0 1 128.20 35.88 A 27.14 13.57 -180.00 0 1 125.76 35.83 L 125.76 35.83 A 27.14 13.57 -180.00 0 1 100.86 22.32 L 100.86 37.99 A 27.14 13.57 -180.00 0 0 126.91 51.55 A 27.14 13.57 -180.00 0 0 155.06 39.08 A 27.14 13.57 -180.00 0 0 155.14 37.99 Z" fill="url(#g8)" fill-rule="evenodd" stroke="url(#g8)" stroke-width="0.8"/>
<path d="M 153.14 27.43 A 27.14 13.57 -180.00 0 0 140.08 10.16 A 27.14 13.57 -180.00 0 0 104.67 15.38 A 27.14 13.57 -180.00 0 0 112.43 33.43 A 27.14 13.57 -180.00 0 0 149.01 30.91 A 27.14 13.57 -180.00 0 0 153.14 27.43 Z" fill="#ffffcd" fill-rule="evenodd" stroke="#ffffcd" stroke-width="0.8"/>
<path d="M 129.29 7.76 L 128.00 7.12 L 126.71 7.76 L 127.03 7.75 L 127.04 7.75 L 127.51 7.75 L 127.52 7.75 L 128.00 7.75 L 128.00 7.75 L 128.48 7.75 L 128.49 7.75 L 128.96 7.75 L 128.97 7.75 L 129.29 7.76 Z" fill="#000000" fill-rule="evenodd" stroke="#000000" stroke-width="0.8"/>
</g>
<defs><clipPath id="sclip"><path d="M 100.84 18.46 L 75.82 30.97 L 75.82 109.33 L 63.02 115.72 L 63.02 132.63 L 128.00 165.12 L 192.98 132.63 L 192.98 37.37 L 155.17 18.47 L 154.98 18.15 L 154.84 17.91 L 154.68 17.61 L 154.63 17.54 L 154.58 17.46 L 154.52 17.38 L 154.47 17.31 L 154.16 16.91 L 153.73 16.35 L 153.68 16.29 L 153.64 16.24 L 153.58 16.18 L 153.53 16.12 L 153.19 15.77 L 152.73 15.29 L 152.56 15.14 L 152.42 15.00 L 152.37 14.96 L 152.34 14.93 L 152.05 14.70 L 152.03 14.69 L 152.03 14.69 L 151.56 14.28 L 151.33 14.11 L 151.13 13.95 L 150.95 13.83 L 150.82 13.72 L 150.57 13.56 L 150.25 13.33 L 149.94 13.14 L 149.67 12.96 L 149.32 12.76 L 149.08 12.60 L 148.95 12.53 L 148.81 12.45 L 148.42 12.24 L 148.06 12.04 L 147.66 11.85 L 147.24 11.63 L 147.18 11.60 L 147.13 11.58 L 146.84 11.45 L 146.73 11.40 L 146.32 11.21 L 145.94 11.05 L 145.54 10.88 L 145.25 10.77 L 145.02 10.67 L 144.75 10.57 L 144.44 10.45 L 144.11 10.34 L 143.75 10.20 L 143.14 10.01 L 142.74 9.87 L 142.60 9.83 L 142.45 9.78 L 142.15 9.70 L 141.85 9.60 L 141.04 9.39 L 140.36 9.20 L 140.34 9.20 L 140.32 9.19 L 140.19 9.17 L 140.10 9.14 L 139.87 9.08 L 138.88 8.87 L 138.18 8.72 L 138.00 8.69 L 137.83 8.65 L 137.78 8.64 L 137.59 8.61 L 136.67 8.45 L 135.92 8.32 L 135.79 8.31 L 135.69 8.29 L 135.40 8.26 L 135.16 8.22 L 134.59 8.15 L 134.53 8.15 L 128.00 4.88 L 121.50 8.13 L 121.03 8.20 L 120.30 8.29 L 119.90 8.36 L 119.51 8.41 L 119.17 8.48 L 118.86 8.52 L 118.56 8.58 L 118.19 8.64 L 117.72 8.75 L 117.27 8.83 L 116.75 8.95 L 116.74 8.95 L 116.30 9.04 L 116.22 9.06 L 116.13 9.08 L 115.61 9.22 L 115.11 9.34 L 114.65 9.47 L 114.15 9.60 L 114.00 9.65 L 113.85 9.69 L 113.50 9.81 L 113.04 9.94 L 112.68 10.07 L 112.25 10.20 L 111.84 10.36 L 111.53 10.46 L 111.34 10.54 L 111.08 10.63 L 110.78 10.76 L 110.46 10.88 L 109.81 11.16 L 109.37 11.34 L 109.30 11.38 L 109.24 11.41 L 109.03 11.51 L 108.76 11.63 L 108.09 11.98 L 107.52 12.26 L 107.44 12.31 L 107.39 12.34 L 107.30 12.39 L 107.19 12.45 L 106.50 12.87 L 105.95 13.20 L 105.86 13.26 L 105.75 13.33 L 105.67 13.38 L 105.60 13.43 L 105.31 13.65 L 104.97 13.89 L 104.54 14.20 L 104.49 14.24 L 104.44 14.28 L 104.21 14.47 L 104.02 14.62 L 103.75 14.88 L 103.40 15.18 L 103.32 15.25 L 103.27 15.29 L 102.92 15.66 L 102.67 15.90 L 102.51 16.09 L 102.26 16.35 L 102.24 16.38 L 102.22 16.41 L 101.95 16.77 L 101.78 16.99 L 101.56 17.26 L 101.50 17.35 L 101.42 17.46 L 101.38 17.54 L 101.33 17.61 L 101.11 18.01 Z" clip-rule="evenodd"/></clipPath></defs>
<g stroke="black" fill="none" stroke-linecap="round" clip-path="url(#sclip)">
<path d="M 101.59 19.21 L 76.82 31.59 L 76.82 109.94 L 64.02 116.34 L 64.02 132.01 L 128.00 164.00 L 191.98 132.01 L 191.98 37.99 L 154.41 19.20 A 27.14 13.57 -180.00 0 0 134.24 9.12 L 128.00 6.00 L 121.78 9.11 A 27.14 13.57 -180.00 0 0 101.59 19.21 Z" stroke-width="2.00" stroke-linejoin="miter" stroke-miterlimit="5"/>
<line x1="155.14" y1="22.32" x2="155.14" y2="37.99" stroke-width="2.00"/>
<line x1="100.86" y1="22.32" x2="100.86" y2="37.99" stroke-width="2.00"/>
<line x1="108.15" y1="117.44" x2="120.95" y2="111.04" stroke-width="2.00"/>
<line x1="83.87" y1="68.88" x2="96.67" y2="62.48" stroke-width="2.00"/>
<line x1="64.02" y1="132.01" x2="128.00" y2="164.00" stroke-width="2.00"/>
<line x1="128.00" y1="164.00" x2="191.98" y2="132.01" stroke-width="2.00"/>
<line x1="76.82" y1="109.94" x2="140.80" y2="141.93" stroke-width="2.00"/>
<line x1="64.02" y1="116.34" x2="76.82" y2="109.94" stroke-width="2.00"/>
<line x1="64.02" y1="116.34" x2="128.00" y2="148.33" stroke-width="2.00"/>
<line x1="128.00" y1="148.33" x2="140.80" y2="141.93" stroke-width="2.00"/>
<line x1="128.00" y1="6.00" x2="134.15" y2="9.07" stroke-width="2.00"/>
<line x1="154.54" y1="19.27" x2="191.98" y2="37.99" stroke-width="2.00"/>
<line x1="76.82" y1="31.59" x2="101.57" y2="19.21" stroke-width="2.00"/>
<line x1="121.85" y1="9.08" x2="128.00" y2="6.00" stroke-width="2.00"/>
<line x1="76.82" y1="31.59" x2="140.80" y2="63.58" stroke-width="2.00"/>
<line x1="140.80" y1="63.58" x2="191.98" y2="37.99" stroke-width="2.00"/>
<line x1="191.98" y1="37.99" x2="191.98" y2="132.01" stroke-width="2.00"/>
<line x1="140.80" y1="63.58" x2="140.80" y2="141.93" stroke-width="2.00"/>
<line x1="76.82" y1="31.59" x2="76.82" y2="109.94" stroke-width="2.00"/>
<line x1="128.00" y1="148.33" x2="128.00" y2="164.00" stroke-width="2.00"/>
<line x1="64.02" y1="116.34" x2="64.02" y2="132.01" stroke-width="2.00"/>
<path d="M 96.67 62.48 A 27.14 16.62 -116.57 0 1 123.67 79.33 A 27.14 16.62 -116.57 0 1 120.95 111.04" stroke-width="2.00"/>
<path d="M 155.14 37.99 A 27.14 13.57 -180.00 0 1 141.57 49.74 A 27.14 13.57 -180.00 0 1 114.43 49.74 A 27.14 13.57 -180.00 0 1 100.86 37.99" stroke-width="2.00"/>
<path d="M 147.19 31.91 A 27.14 13.57 -180.00 0 0 147.19 12.72 A 27.14 13.57 -180.00 0 0 108.81 12.72 A 27.14 13.57 -180.00 0 0 108.81 31.91 A 27.14 13.57 -180.00 0 0 147.19 31.91" stroke-width="2.00"/>
<path d="M 108.81 99.56 A 18.10 11.08 -116.57 0 1 96.01 108.83 A 18.10 11.08 -116.57 0 1 83.22 86.76 A 18.10 11.08 -116.57 0 1 96.01 77.49 A 18.10 11.08 -116.57 0 1 108.81 99.56" stroke-width="2.00"/>
<path d="M 115.20 102.75 A 27.14 16.62 -116.57 0 1 96.01 116.66 A 27.14 16.62 -116.57 0 1 76.82 83.56 A 27.14 16.62 -116.57 0 1 96.01 69.65 A 27.14 16.62 -116.57 0 1 115.20 102.75" stroke-width="2.00"/>
</g>
</svg>