<svg xmlns="http://www.w3.org/2000/svg" viewBox="0 0 256 170" preserveAspectRatio="xMidYMid meet">
<defs><linearGradient id="g6" gradientUnits="userSpaceOnUse" x1="114.55" y1="114.24" x2="90.27" y2="65.68"><stop offset="-0.0%" stop-color="#fff6bd"/><stop offset="3.8%" stop-color="#ffffc9"/><stop offset="14.6%" stop-color="#fffec4"/><stop offset="30.9%" stop-color="#fae1ad"/><stop offset="50.0%" stop-color="#c7b38a"/><stop offset="69.1%" stop-color="#897b5f"/><stop offset="85.4%" stop-color="#7d7157"/><stop offset="96.2%" stop-color="#7d7157"/><stop offset="100.0%" stop-color="#7d7157"/></linearGradient><linearGradient id="g7" gradientUnits="userSpaceOnUse" x1="116.90" y1="102.95" x2="100.72" y2="70.58"><stop offset="-0.0%" stop-color="#fff6bd"/><stop offset="3.8%" stop-color="#ffffc9"/><stop offset="14.6%" stop-color="#fffec4"/><stop offset="30.9%" stop-color="#fae1ad"/><stop offset="50.0%" stop-color="#c7b38a"/><stop offset="69.1%" stop-color="#897b5f"/><stop offset="85.4%" stop-color="#7d7157"/><stop offset="96.2%" stop-color="#7d7157"/><stop offset="100.0%" stop-color="#7d7157"/></linearGradient><linearGradient id="g9" gradientUnits="userSpaceOnUse" x1="100.72" y1="70.58" x2="116.90" y2="102.95"><stop offset="0.0%" stop-color="#fff6bd"/><stop offset="3.8%" stop-color="#ffffc9"/><stop offset="14.6%" stop-color="#fffec4"/><stop offset="30.9%" stop-color="#fae1ad"/><stop offset="50.0%" stop-color="#c7b38a"/><stop offset="69.1%" stop-color="#897b5f"/><stop offset="85.4%" stop-color="#7d7157"/><stop offset="96.2%" stop-color="#7d7157"/><stop offset="100.0%" stop-color="#7d7157"/></linearGradient><linearGradient id="g10" gradientUnits="userSpaceOnUse" x1="155.14" y1="30.15" x2="100.86" y2="30.15"><stop offset="0.0%" stop-color="#dfc89a"/><stop offset="3.8%" stop-color="#e9d1a1"/><stop offset="14.6%" stop-color="#e3cc9d"/><stop offset="30.9%" stop-color="#cdb88e"/><stop offset="50.0%" stop-color="#ab9a77"/><stop offset="69.1%" stop-color="#83765b"/><stop offset="85.4%" stop-color="#7d7157"/><stop offset="96.2%" stop-color="#7d7157"/><stop offset="100.0%" stop-color="#7d7157"/></linearGradient><linearGradient id="g13" gradientUnits="userSpaceOnUse" x1="90.27" y1="65.68" x2="114.55" y2="114.24"><stop offset="0.0%" stop-color="#fff6bd"/><stop offset="3.8%" stop-color="#ffffc9"/><stop offset="14.6%" stop-color="#fffec4"/><stop offset="30.9%" stop-color="#fae1ad"/><stop offset="50.0%" stop-color="#c7b38a"/><stop offset="69.1%" stop-color="#897b5f"/><stop offset="85.4%" stop-color="#7d7157"/><stop offset="96.2%" stop-color="#7d7157"/><stop offset="100.0%" stop-color="#7d7157"/></linearGradient><linearGradient id="g14" gradientUnits="userSpaceOnUse" x1="100.86" y1="30.15" x2="155.14" y2="30.15"><stop offset="0.0%" stop-color="#dfc89a"/><stop offset="3.8%" stop-color="#e9d1a1"/><stop offset="14.6%" stop-color="#e3cc9d"/><stop offset="30.9%" stop-color="#cdb88e"/><stop offset="50.0%" stop-color="#ab9a77"/><stop offset="69.1%" stop-color="#83765b"/><stop offset="85.4%" stop-color="#7d7157"/><stop offset="96.2%" stop-color="#7d7157"/><stop offset="100.0%" stop-color="#7d7157"/></linearGradient></defs>
<g stroke-linejoin="round">
<path d="M 76.82 83.56 L 76.82 109.94 L 140.79 141.93 L 140.79 63.58 L 76.82 31.59 Z M 76.84 82.87 L 76.84 82.40 L 76.87 82.10 L 76.88 81.70 L 77.00 80.59 L 77.03 80.17 L 77.05 80.06 L 77.07 79.92 L 77.38 78.22 L 77.40 78.13 L 77.41 78.06 L 77.50 77.75 L 77.81 76.61 L 77.91 76.33 L 77.98 76.10 L 78.12 75.75 L 78.36 75.12 L 78.58 74.64 L 78.72 74.31 L 78.85 74.08 L 79.02 73.74 L 79.44 73.05 L 79.64 72.71 L 79.71 72.61 L 79.79 72.48 L 80.67 71.37 L 80.69 71.34 L 80.71 71.32 L 80.86 71.18 L 81.65 70.39 L 81.83 70.25 L 81.94 70.14 L 82.22 69.95 L 82.72 69.56 L 83.08 69.35 L 83.31 69.18 L 83.55 69.07 L 83.87 68.88 L 86.45 67.59 L 89.61 66.01 L 89.61 53.66 L 108.81 63.26 L 128.00 72.85 L 128.00 119.86 L 115.65 113.69 L 109.55 116.74 L 108.15 117.44 L 108.05 117.48 L 107.98 117.52 L 107.68 117.63 L 106.92 117.95 L 106.63 118.03 L 106.42 118.11 L 106.11 118.18 L 105.61 118.31 L 105.08 118.39 L 104.77 118.45 L 104.54 118.47 L 104.24 118.51 L 103.36 118.53 L 103.02 118.55 L 102.93 118.54 L 102.82 118.54 L 101.35 118.41 L 101.28 118.39 L 101.21 118.39 L 100.89 118.31 L 99.85 118.11 L 99.56 118.02 L 99.34 117.97 L 98.96 117.84 L 98.33 117.65 L 97.79 117.44 L 97.45 117.32 L 97.17 117.19 L 96.78 117.03 L 95.92 116.60 L 95.53 116.42 L 95.40 116.34 L 95.24 116.26 L 93.70 115.34 L 93.65 115.31 L 93.63 115.29 L 93.44 115.16 L 92.17 114.27 L 91.93 114.08 L 91.74 113.94 L 91.36 113.62 L 90.67 113.07 L 90.21 112.65 L 89.90 112.38 L 89.62 112.11 L 89.21 111.73 L 88.50 111.01 L 88.12 110.64 L 87.97 110.47 L 87.78 110.28 L 86.42 108.72 L 86.42 108.72 L 85.11 107.05 L 84.94 106.81 L 84.81 106.64 L 84.52 106.22 L 83.87 105.30 L 83.67 104.98 L 83.54 104.76 L 83.31 104.43 L 83.09 104.06 L 82.72 103.46 L 82.21 102.57 L 81.94 102.11 L 81.83 101.88 L 81.65 101.56 L 80.86 99.98 L 80.71 99.70 L 80.69 99.66 L 80.67 99.61 L 79.79 97.61 L 79.71 97.40 L 79.69 97.34 L 79.64 97.23 L 79.44 96.70 L 79.02 95.59 L 78.85 95.07 L 78.72 94.71 L 78.59 94.26 L 78.36 93.54 L 78.12 92.66 L 77.98 92.18 L 77.92 91.90 L 77.81 91.50 L 77.50 90.04 L 77.41 89.66 L 77.40 89.58 L 77.38 89.47 L 77.07 87.46 L 77.05 87.30 L 77.03 87.17 L 77.00 86.71 L 76.88 85.48 L 76.87 85.07 L 76.84 84.75 L 76.84 84.28 L 76.82 83.56 Z" fill="#c2ae86" fill-rule="evenodd" stroke="#c2ae86" stroke-width="0.8"/>
<path d="M 128.00 164.00 L 128.00 148.33 L 64.02 116.34 L 64.02 132.01 Z" fill="#c2ae86" fill-rule="evenodd" stroke="#c2ae86" stroke-width="0.8"/>
<path d="M 64.02 116.34 L 128.00 148.33 L 140.79 141.93 L 76.82 109.94 Z" fill="#ffffcd" fill-rule="evenodd" stroke="#ffffcd" stroke-width="0.8"/>
<path d="M 89.61 66.01 L 89.71 65.96 L 90.06 65.79 L 90.74 65.45 L 91.83 64.90 L 93.34 64.15 L 95.17 63.23 L 96.67 62.48 L 96.97 62.36 L 97.12 62.27 L 99.21 61.61 L 100.58 61.41 L 101.22 61.40 L 101.46 61.37 L 101.65 61.39 L 102.00 61.38 L 103.47 61.51 L 103.72 61.56 L 103.84 61.57 L 104.08 61.63 L 104.97 61.81 L 106.16 62.17 L 106.30 62.20 L 106.36 62.23 L 106.49 62.27 L 108.03 62.89 L 108.58 63.16 L 108.81 63.26 L 89.61 53.66 Z" fill="#c2ae86" fill-rule="evenodd" stroke="#c2ae86" stroke-width="0.8"/>
<path d="M 140.79 63.58 L 140.79 141.93 L 128.00 148.33 L 128.00 164.00 L 191.98 132.01 L 191.98 37.99 Z" fill="#897b5f" fill-rule="evenodd" stroke="#897b5f" stroke-width="0.8"/>
<path d="M 113.36 111.84 L 113.35 111.84 L 113.35 111.85 L 113.36 111.85 Z M 120.50 111.26 L 118.70 112.16 L 117.27 112.88 L 116.31 113.36 L 115.80 113.61 L 115.65 113.69 L 128.00 119.86 L 128.00 96.36 L 127.94 98.22 L 127.85 99.05 L 127.83 99.34 L 127.80 99.54 L 127.75 100.00 L 127.44 101.70 L 127.37 101.96 L 127.35 102.11 L 127.26 102.37 L 127.01 103.31 L 126.60 104.42 L 126.54 104.62 L 126.51 104.69 L 126.46 104.80 L 125.80 106.18 L 125.53 106.63 L 125.43 106.82 L 125.30 106.99 L 125.03 107.44 L 124.15 108.55 L 124.08 108.62 L 124.03 108.69 L 123.89 108.81 L 123.17 109.53 L 122.55 110.02 L 122.38 110.17 L 122.28 110.23 L 122.10 110.36 L 120.95 111.04 Z" fill="#c2ae86" fill-rule="evenodd" stroke="#c2ae86" stroke-width="0.8"/>
<path d="M 113.35 111.85 L 112.92 112.71 L 113.01 112.58 L 113.36 111.85 Z M 83.55 69.07 L 84.50 68.62 L 83.87 68.88 Z M 82.72 69.56 L 82.22 69.95 L 83.08 69.35 Z M 81.65 70.39 L 80.86 71.18 L 81.83 70.25 Z M 80.67 71.37 L 79.79 72.48 L 79.71 72.61 L 80.69 71.34 Z M 79.02 73.74 L 78.85 74.08 L 79.44 73.05 Z M 78.36 75.12 L 78.12 75.75 L 78.58 74.64 Z M 77.81 76.61 L 77.50 77.75 L 77.91 76.33 Z M 77.38 78.22 L 77.07 79.92 L 77.05 80.06 L 77.40 78.13 Z M 76.88 81.70 L 76.87 82.10 L 77.00 80.59 Z M 76.82 83.56 L 76.84 84.28 L 76.84 82.87 Z M 76.88 85.48 L 77.00 86.71 L 76.87 85.07 Z M 77.07 87.46 L 77.38 89.47 L 77.40 89.58 L 77.05 87.30 Z M 77.81 91.50 L 77.92 91.90 L 77.50 90.04 Z M 78.36 93.54 L 78.59 94.26 L 78.12 92.66 Z M 79.02 95.59 L 79.44 96.70 L 78.85 95.07 Z M 79.79 97.61 L 80.67 99.61 L 80.69 99.66 L 79.71 97.40 Z M 81.65 101.56 L 81.83 101.88 L 80.86 99.98 Z M 82.72 103.46 L 83.09 104.06 L 82.21 102.57 Z M 83.87 105.30 L 84.52 106.22 L 83.54 104.76 Z M 85.11 107.05 L 86.42 108.72 L 84.94 106.81 Z M 87.78 110.28 L 87.97 110.47 L 86.42 108.72 Z M 89.21 111.73 L 89.62 112.11 L 88.50 111.01 Z M 90.67 113.07 L 91.36 113.62 L 90.21 112.65 Z M 92.17 114.27 L 93.44 115.16 L 91.93 114.08 Z M 93.70 115.34 L 95.24 116.26 L 95.40 116.34 L 93.65 115.31 Z M 96.78 117.03 L 97.17 117.19 L 95.92 116.60 Z M 98.33 117.65 L 98.96 117.84 L 97.79 117.44 Z M 99.85 118.11 L 100.89 118.31 L 99.56 118.02 Z M 101.35 118.41 L 102.82 118.54 L 102.93 118.54 L 101.28 118.39 Z M 104.24 118.51 L 104.54 118.47 L 103.36 118.53 Z M 105.61 118.31 L 106.11 118.18 L 105.08 118.39 Z M 106.92 117.95 L 107.68 117.63 L 106.63 118.03 Z M 108.15 117.44 L 109.31 116.76 L 109.37 116.71 L 108.05 117.48 Z M 84.94 68.43 L 86.36 68.02 L 85.11 68.36 Z M 86.48 68.00 L 87.98 67.80 L 87.78 67.81 Z M 88.48 67.79 L 89.62 67.81 L 89.21 67.78 Z M 90.22 67.87 L 91.35 68.05 L 90.67 67.91 Z M 112.67 113.13 L 112.01 114.11 L 112.23 113.83 Z M 111.66 114.56 L 110.95 115.36 L 111.36 114.95 Z M 110.56 115.74 L 109.61 116.53 L 110.38 115.93 Z M 94.42 107.91 L 94.44 107.92 L 94.28 107.81 Z M 93.29 107.10 L 92.91 106.80 L 93.17 107.01 Z M 92.16 106.16 L 91.74 105.79 L 91.94 105.98 Z M 90.98 105.04 L 90.66 104.71 L 90.75 104.81 Z M 88.64 102.27 L 88.33 101.83 L 88.54 102.15 Z M 87.70 100.91 L 87.39 100.42 L 87.55 100.67 Z M 86.82 99.44 L 86.55 98.97 L 86.63 99.13 Z M 85.89 97.67 L 85.80 97.50 L 85.81 97.52 Z M 85.14 95.99 L 84.96 95.51 L 85.09 95.87 Z M 84.57 94.44 L 84.39 93.89 L 84.48 94.19 Z M 84.08 92.83 L 83.95 92.32 L 83.99 92.51 Z M 83.67 91.10 L 83.60 90.77 L 83.61 90.83 Z M 83.37 89.25 L 83.33 88.85 L 83.36 89.17 Z M 83.25 87.77 L 83.23 87.25 L 83.23 87.55 Z M 83.23 86.29 L 83.25 85.79 L 83.23 85.99 Z M 83.33 84.79 L 83.37 84.42 L 83.36 84.50 Z M 83.60 83.14 L 83.67 82.88 L 83.61 83.09 Z M 83.94 81.94 L 84.09 81.55 L 83.99 81.79 Z M 84.39 80.82 L 84.58 80.44 L 84.48 80.59 Z M 84.96 79.75 L 85.14 79.46 L 85.09 79.53 Z M 85.80 78.61 L 85.89 78.53 L 85.81 78.60 Z M 86.55 77.89 L 86.82 77.68 L 86.63 77.81 Z M 87.39 77.28 L 87.70 77.10 L 87.55 77.18 Z M 104.04 109.37 L 103.80 109.47 L 103.99 109.40 Z M 103.09 109.74 L 102.75 109.83 L 102.95 109.79 Z M 102.05 109.98 L 101.70 110.03 L 101.85 110.02 Z M 100.89 110.07 L 100.63 110.08 L 100.69 110.08 Z M 99.52 109.98 L 99.27 109.93 L 99.48 109.98 Z M 98.38 109.73 L 97.97 109.61 L 98.23 109.70 Z M 97.21 109.35 L 96.77 109.17 L 96.97 109.26 Z M 95.97 108.79 L 95.61 108.61 L 95.69 108.67 Z" fill="url(#g6)" fill-rule="evenodd" stroke="url(#g6)" stroke-width="0.8"/>
<path d="M 87.39 77.28 L 86.82 77.68 L 86.55 77.89 L 85.89 78.53 L 85.80 78.61 L 85.14 79.46 L 84.96 79.75 L 84.58 80.44 L 84.39 80.82 L 84.09 81.55 L 83.94 81.94 L 83.67 82.88 L 83.60 83.14 L 83.37 84.42 L 83.33 84.79 L 83.25 85.79 L 83.23 86.29 L 83.23 87.25 L 83.25 87.77 L 83.33 88.85 L 83.37 89.25 L 83.60 90.77 L 83.67 91.10 L 83.95 92.32 L 84.08 92.83 L 84.39 93.89 L 84.57 94.44 L 84.96 95.51 L 85.14 95.99 L 85.80 97.50 L 85.89 97.67 L 86.55 98.97 L 86.82 99.44 L 87.39 100.42 L 87.70 100.91 L 88.33 101.83 L 88.64 102.27 L 89.61 103.53 L 90.66 104.71 L 90.98 105.04 L 91.74 105.79 L 92.16 106.16 L 92.91 106.80 L 93.29 107.10 L 94.28 107.81 L 94.44 107.92 L 95.61 108.61 L 95.97 108.79 L 96.77 109.17 L 97.21 109.35 L 97.97 109.61 L 98.38 109.73 L 99.27 109.93 L 99.52 109.98 L 100.63 110.08 L 100.89 110.07 L 101.70 110.03 L 102.05 109.98 L 102.75 109.83 L 103.09 109.74 L 103.80 109.47 L 104.04 109.37 L 104.91 108.86 L 105.08 108.73 L 105.72 108.21 L 105.96 107.96 L 106.44 107.43 L 106.68 107.13 L 107.12 106.47 L 107.28 106.20 L 107.79 105.16 L 107.85 105.00 L 108.20 104.02 L 108.30 103.62 L 108.50 102.76 L 108.58 102.31 L 108.70 101.38 L 108.75 100.96 L 108.81 99.56 L 108.75 98.10 L 108.70 97.63 L 108.58 96.59 L 108.50 96.02 L 108.31 95.01 L 108.20 94.49 L 107.87 93.22 L 107.79 92.92 L 107.28 91.39 L 107.12 90.95 L 106.68 89.86 L 106.44 89.31 L 105.97 88.33 L 105.71 87.80 L 105.07 86.64 L 104.92 86.36 L 104.05 84.98 L 103.78 84.60 L 103.08 83.64 L 102.76 83.23 L 102.05 82.38 L 101.70 81.98 L 100.93 81.17 L 100.61 80.84 L 99.52 79.84 L 99.27 79.64 L 98.38 78.95 L 97.99 78.67 L 97.19 78.16 L 96.79 77.92 L 95.95 77.47 L 95.61 77.30 L 94.44 76.82 L 94.28 76.78 L 93.29 76.49 L 92.90 76.42 L 92.16 76.30 L 91.74 76.26 L 91.00 76.25 L 90.65 76.25 L 89.68 76.38 L 89.61 76.39 L 89.56 76.41 L 88.64 76.67 L 88.33 76.80 L 87.70 77.10 Z" fill="url(#g7)" fill-rule="evenodd" stroke="url(#g7)" stroke-width="0.8"/>
<path d="M 123.74 8.93 L 124.29 8.87 L 124.49 8.86 L 124.73 8.85 L 126.91 8.76 L 126.94 8.76 L 126.98 8.76 L 127.30 8.76 L 128.61 8.76 L 129.09 8.76 L 129.42 8.77 L 129.69 8.77 L 130.26 8.80 L 131.27 8.85 L 131.94 8.90 L 132.38 8.92 L 132.79 8.97 L 133.43 9.02 L 134.24 9.12 L 128.00 6.00 L 121.78 9.11 L 122.02 9.09 L 122.57 9.02 Z M 105.86 30.15 L 106.30 30.47 L 106.46 30.57 L 105.87 30.15 Z M 107.68 31.32 L 108.07 31.52 L 106.94 30.86 Z M 108.68 31.84 L 109.20 32.10 L 109.89 32.41 Z M 110.83 32.83 L 112.11 33.31 L 110.55 32.70 Z M 114.43 34.07 L 114.59 34.11 L 112.50 33.45 L 112.58 33.49 Z M 115.21 34.27 L 116.36 34.58 L 116.82 34.67 Z M 118.38 35.01 L 119.19 35.14 L 117.63 34.85 Z M 120.45 35.35 L 121.78 35.52 L 120.00 35.28 Z M 122.57 35.61 L 124.73 35.79 L 124.85 35.79 L 122.42 35.60 Z M 126.91 35.88 L 127.34 35.88 L 125.45 35.82 Z M 129.09 35.88 L 129.84 35.85 L 128.20 35.88 Z M 133.43 51.28 L 131.27 51.46 L 129.09 51.55 L 126.91 51.55 L 124.73 51.46 L 122.57 51.28 L 120.45 51.02 L 118.38 50.68 L 116.36 50.25 L 114.43 49.74 L 112.58 49.16 L 110.83 48.50 L 109.20 47.77 L 107.68 46.99 L 106.30 46.14 L 105.06 45.24 L 103.97 44.30 L 103.03 43.31 L 102.25 42.28 L 101.65 41.24 L 101.21 40.16 L 100.94 39.08 L 100.86 37.99 L 100.86 22.32 L 100.88 22.02 L 100.88 21.81 L 100.92 21.58 L 100.94 21.23 L 101.06 20.73 L 101.11 20.46 L 101.16 20.32 L 101.21 20.14 L 101.55 19.31 L 101.59 19.21 L 76.82 31.59 L 140.79 63.58 L 191.98 37.99 L 154.41 19.20 L 154.45 19.30 L 154.53 19.46 L 154.62 19.72 L 154.79 20.14 L 154.89 20.55 L 154.97 20.80 L 154.99 20.97 L 155.06 21.23 L 155.11 21.91 L 155.14 22.15 L 155.13 22.22 L 155.14 22.32 L 155.14 37.99 L 155.06 39.08 L 154.79 40.16 L 154.35 41.24 L 153.75 42.28 L 152.97 43.31 L 152.03 44.30 L 150.94 45.24 L 149.70 46.14 L 148.32 46.99 L 146.80 47.77 L 145.17 48.50 L 143.42 49.16 L 141.57 49.74 L 139.64 50.25 L 137.91 50.62 L 137.62 50.68 L 135.55 51.02 Z M 150.13 30.15 L 149.27 30.73 L 149.70 30.47 L 150.14 30.15 Z M 147.57 31.71 L 148.32 31.32 L 148.72 31.07 Z M 146.80 32.10 L 147.02 31.99 L 145.27 32.78 Z M 143.42 33.49 L 145.17 32.83 L 143.19 33.56 Z M 141.06 34.20 L 141.57 34.07 L 142.51 33.77 Z M 139.64 34.58 L 140.25 34.42 L 138.72 34.77 Z M 137.62 35.01 L 137.97 34.93 L 136.01 35.28 Z M 133.43 35.61 L 134.55 35.48 L 135.55 35.35 L 135.62 35.34 L 134.55 35.47 L 133.22 35.63 Z M 131.27 35.79 L 132.47 35.69 L 130.76 35.81 Z" fill="#ffffcd" fill-rule="evenodd" stroke="#ffffcd" stroke-width="0.8"/>
<path d="M 89.61 76.39 L 89.68 76.38 L 89.61 76.39 L 89.56 76.41 Z M 91.00 76.25 L 90.75 76.24 L 90.65 76.25 Z M 92.16 76.30 L 91.94 76.27 L 91.74 76.26 Z M 93.29 76.49 L 93.17 76.46 L 92.90 76.42 Z M 94.44 76.82 L 94.42 76.81 L 94.28 76.78 Z M 95.95 77.47 L 95.69 77.33 L 95.61 77.30 Z M 97.19 78.16 L 96.97 78.01 L 96.79 77.92 Z M 98.38 78.95 L 98.23 78.84 L 97.99 78.67 Z M 99.52 79.84 L 99.48 79.81 L 99.27 79.64 Z M 100.93 81.17 L 100.69 80.91 L 100.61 80.84 Z M 102.05 82.38 L 101.85 82.13 L 101.70 81.98 Z M 103.08 83.64 L 102.95 83.47 L 102.76 83.23 Z M 104.05 84.98 L 103.99 84.89 L 103.78 84.60 Z M 105.07 86.64 L 104.95 86.41 L 104.92 86.36 Z M 105.97 88.33 L 105.81 87.99 L 105.71 87.80 Z M 106.68 89.86 L 106.58 89.62 L 106.44 89.31 Z M 107.28 91.39 L 107.25 91.28 L 107.12 90.95 Z M 107.87 93.22 L 107.80 92.97 L 107.79 92.92 Z M 108.31 95.01 L 108.24 94.65 L 108.20 94.49 Z M 108.58 96.59 L 108.55 96.32 L 108.50 96.02 Z M 108.75 98.10 L 108.74 97.96 L 108.70 97.63 Z M 108.70 101.38 L 108.74 101.08 L 108.75 100.96 Z M 108.50 102.76 L 108.55 102.53 L 108.58 102.31 Z M 108.20 104.02 L 108.24 103.89 L 108.30 103.62 Z M 107.79 105.16 L 107.80 105.14 L 107.85 105.00 Z M 107.12 106.47 L 107.25 106.27 L 107.28 106.20 Z M 106.44 107.43 L 106.58 107.27 L 106.68 107.13 Z M 105.72 108.21 L 105.81 108.13 L 105.96 107.96 Z M 104.91 108.86 L 104.95 108.84 L 105.08 108.73 Z M 115.17 103.81 L 115.20 102.75 L 115.16 103.81 Z M 88.64 76.67 L 88.54 76.70 L 88.33 76.80 Z M 99.85 72.05 L 99.56 71.84 L 100.93 72.91 Z M 101.27 73.18 L 102.93 74.70 L 102.82 74.58 L 101.35 73.25 Z M 104.24 76.04 L 103.36 75.14 L 104.54 76.38 Z M 105.61 77.60 L 105.09 77.01 L 106.11 78.23 Z M 106.92 79.26 L 106.62 78.89 L 107.68 80.36 Z M 108.05 80.88 L 109.37 82.96 L 109.31 82.85 L 108.15 81.02 Z M 110.38 84.75 L 109.62 83.41 L 110.56 85.12 Z M 111.36 86.71 L 110.95 85.89 L 111.67 87.41 Z M 112.23 88.71 L 112.01 88.20 L 112.66 89.82 Z M 112.93 90.53 L 113.68 92.83 L 113.67 92.77 L 113.01 90.73 Z M 114.22 94.82 L 113.77 93.16 L 114.29 95.15 Z M 114.65 96.85 L 114.45 95.90 L 114.75 97.49 Z M 114.96 98.86 L 114.87 98.29 L 115.05 99.85 Z M 115.14 100.83 L 115.12 100.57 L 115.20 102.75 Z M 113.53 66.36 L 113.90 66.65 L 113.77 66.54 Z M 127.85 93.52 L 127.83 93.21 L 127.80 92.97 Z M 116.39 68.98 L 116.15 68.72 L 115.97 68.55 Z M 127.35 89.95 L 127.26 89.60 L 127.37 90.13 Z M 125.53 83.63 L 125.43 83.32 L 125.30 83.02 Z M 126.54 86.63 L 126.51 86.54 L 126.60 86.89 Z M 120.49 73.95 L 120.25 73.63 L 120.66 74.21 Z M 122.38 76.92 L 122.27 76.76 L 122.55 77.25 Z M 124.03 80.06 L 123.89 79.79 L 124.08 80.17 Z" fill="url(#g9)" fill-rule="evenodd" stroke="url(#g9)" stroke-width="0.8"/>
<path d="M 154.99 20.97 L 155.11 21.91 L 155.06 21.23 Z M 154.79 20.14 L 154.62 19.72 L 154.89 20.55 Z M 154.35 19.07 L 153.96 18.39 L 154.45 19.30 Z M 153.75 18.02 L 152.97 17.00 L 152.91 16.94 L 153.79 18.10 Z M 152.03 16.01 L 151.81 15.82 L 152.67 16.68 Z M 150.94 15.06 L 150.50 14.74 L 151.39 15.46 Z M 149.70 14.16 L 148.90 13.68 L 150.00 14.39 Z M 148.32 13.32 L 146.80 12.53 L 146.75 12.51 L 148.45 13.40 Z M 145.17 11.80 L 144.87 11.69 L 146.44 12.37 Z M 143.42 11.15 L 142.82 10.96 L 144.21 11.45 Z M 141.57 10.56 L 140.57 10.30 L 142.08 10.72 Z M 139.64 10.06 L 137.62 9.63 L 139.88 10.12 Z M 135.55 9.28 L 135.26 9.25 L 137.43 9.60 Z M 133.43 9.02 L 132.79 8.97 L 134.47 9.15 Z M 131.27 8.85 L 130.26 8.80 L 131.94 8.90 Z M 129.09 8.76 L 127.30 8.76 L 129.42 8.77 Z M 126.91 8.76 L 124.73 8.85 L 124.49 8.86 L 126.94 8.76 Z M 122.57 9.02 L 122.02 9.09 L 123.74 8.93 Z M 120.45 9.28 L 119.58 9.43 L 121.17 9.19 Z M 118.38 9.63 L 116.95 9.93 L 118.74 9.57 Z M 116.36 10.06 L 114.43 10.56 L 114.28 10.61 L 116.45 10.04 Z M 112.58 11.15 L 112.17 11.30 L 113.69 10.80 Z M 110.83 11.80 L 110.20 12.09 L 111.49 11.56 Z M 109.20 12.53 L 108.23 13.03 L 109.55 12.37 Z M 107.68 13.32 L 106.30 14.16 L 106.23 14.22 L 107.79 13.26 Z M 105.06 15.06 L 104.84 15.25 L 105.90 14.45 Z M 103.97 16.01 L 103.62 16.37 L 104.42 15.62 Z M 103.03 17.00 L 102.57 17.61 L 103.26 16.75 Z M 102.25 18.02 L 101.65 19.07 L 101.63 19.10 L 102.34 17.91 Z M 101.21 20.14 L 101.16 20.32 L 101.55 19.31 Z M 100.94 21.23 L 100.92 21.58 L 101.06 20.73 Z M 100.86 22.32 L 100.90 22.89 L 100.88 22.02 Z M 105.87 30.15 L 105.03 29.55 L 105.06 29.57 L 105.86 30.15 Z M 150.14 30.15 L 150.28 30.05 L 150.13 30.15 Z M 155.13 22.22 L 155.04 23.46 L 155.06 23.41 L 155.14 22.32 Z M 150.75 29.71 L 150.94 29.57 L 151.91 28.73 Z M 152.97 27.64 L 153.06 27.52 L 152.01 28.65 L 152.03 28.62 Z M 153.31 27.19 L 153.75 26.61 L 153.91 26.34 Z M 154.14 25.93 L 154.35 25.57 L 154.54 25.10 Z M 154.71 24.70 L 154.79 24.49 L 154.99 23.69 Z M 101.21 24.49 L 101.21 24.50 L 100.93 23.27 L 100.94 23.41 Z M 101.24 24.57 L 101.65 25.57 L 101.73 25.71 Z M 101.95 26.09 L 102.25 26.61 L 102.48 26.92 Z M 102.78 27.32 L 103.03 27.64 L 103.48 28.12 Z M 103.81 28.46 L 103.97 28.62 L 104.92 29.45 Z" fill="url(#g10)" fill-rule="evenodd" stroke="url(#g10)" stroke-width="0.8"/>
<path d="M 114.87 98.29 L 114.75 97.49 L 114.45 95.90 L 114.29 95.15 L 113.77 93.16 L 113.68 92.83 L 112.93 90.53 L 112.66 89.82 L 112.01 88.20 L 111.67 87.41 L 110.95 85.89 L 110.56 85.12 L 109.62 83.41 L 109.37 82.96 L 108.05 80.88 L 107.68 80.36 L 106.62 78.89 L 106.11 78.23 L 105.09 77.01 L 104.54 76.38 L 103.36 75.14 L 102.93 74.70 L 101.27 73.18 L 100.93 72.91 L 99.56 71.84 L 98.97 71.43 L 97.79 70.66 L 97.17 70.29 L 95.94 69.64 L 95.40 69.36 L 93.65 68.65 L 93.44 68.59 L 91.93 68.16 L 91.35 68.05 L 90.22 67.87 L 89.62 67.81 L 88.48 67.79 L 87.98 67.80 L 86.48 68.00 L 86.42 68.00 L 86.36 68.02 L 84.94 68.43 L 84.50 68.62 L 83.31 69.18 L 81.94 70.14 L 80.71 71.32 L 79.64 72.71 L 78.72 74.31 L 77.98 76.10 L 77.41 78.06 L 77.03 80.17 L 76.84 82.40 L 76.84 84.75 L 77.03 87.17 L 77.41 89.66 L 77.98 92.18 L 78.72 94.71 L 79.64 97.23 L 80.71 99.70 L 81.94 102.11 L 83.31 104.43 L 84.81 106.64 L 86.42 108.72 L 88.12 110.64 L 89.90 112.38 L 91.74 113.94 L 93.63 115.29 L 95.53 116.42 L 97.45 117.32 L 99.34 117.97 L 101.21 118.39 L 103.02 118.55 L 104.77 118.45 L 106.42 118.11 L 107.98 117.52 L 109.37 116.71 L 109.61 116.53 L 110.56 115.74 L 110.95 115.36 L 111.66 114.56 L 112.01 114.11 L 112.67 113.13 L 112.92 112.71 L 113.68 111.17 L 113.78 110.90 L 114.29 109.44 L 114.45 108.84 L 114.74 107.56 L 114.87 106.88 L 115.05 105.51 L 115.12 104.85 L 115.20 102.75 L 115.12 100.57 L 115.05 99.85 Z M 108.55 102.53 L 108.24 103.89 L 107.80 105.14 L 107.25 106.27 L 106.58 107.27 L 105.81 108.13 L 104.95 108.84 L 103.99 109.40 L 102.95 109.79 L 101.85 110.02 L 100.69 110.08 L 99.48 109.98 L 98.23 109.70 L 96.97 109.26 L 95.69 108.67 L 94.42 107.91 L 93.17 107.01 L 91.94 105.98 L 90.75 104.81 L 89.61 103.53 L 88.54 102.15 L 87.55 100.67 L 86.63 99.13 L 85.81 97.52 L 85.09 95.87 L 84.48 94.19 L 83.99 92.51 L 83.61 90.83 L 83.36 89.17 L 83.23 87.55 L 83.23 85.99 L 83.36 84.50 L 83.61 83.09 L 83.99 81.79 L 84.48 80.59 L 85.09 79.53 L 85.81 78.60 L 86.63 77.81 L 87.55 77.18 L 88.54 76.70 L 89.61 76.39 L 90.75 76.24 L 91.94 76.27 L 93.17 76.46 L 94.42 76.81 L 95.69 77.33 L 96.97 78.01 L 98.23 78.84 L 99.48 79.81 L 100.69 80.91 L 101.85 82.13 L 102.95 83.47 L 103.99 84.89 L 104.95 86.41 L 105.81 87.99 L 106.58 89.62 L 107.25 91.28 L 107.80 92.97 L 108.24 94.65 L 108.55 96.32 L 108.74 97.96 L 108.81 99.56 L 108.74 101.08 Z" fill="#c2ae86" fill-rule="evenodd" stroke="#c2ae86" stroke-width="0.8"/>
<path d="M 111.12 64.58 L 111.25 64.67 L 111.31 64.71 L 111.48 64.83 L 112.65 65.65 L 113.53 66.36 L 113.77 66.54 L 113.90 66.65 L 114.15 66.85 L 115.61 68.19 L 115.97 68.55 L 116.15 68.72 L 116.39 68.98 L 117.03 69.64 L 118.40 71.20 L 118.40 71.20 L 118.40 71.20 L 120.49 73.95 L 122.38 76.92 L 124.03 80.06 L 125.43 83.32 L 126.54 86.63 L 127.35 89.95 L 127.37 90.13 L 127.44 90.45 L 127.75 92.46 L 127.80 92.97 L 127.83 93.21 L 127.85 93.52 L 127.94 94.43 L 128.00 96.36 L 128.00 72.85 L 108.81 63.26 L 109.04 63.39 L 109.58 63.66 Z" fill="#c2ae86" fill-rule="evenodd" stroke="#c2ae86" stroke-width="0.8"/>
<path d="M 85.11 68.36 L 86.42 68.00 L 87.78 67.81 L 89.21 67.78 L 90.67 67.91 L 92.17 68.21 L 93.70 68.67 L 95.24 69.28 L 96.78 70.06 L 98.33 70.98 L 99.85 72.05 L 101.35 73.25 L 102.82 74.58 L 104.24 76.04 L 105.61 77.60 L 106.92 79.26 L 108.15 81.02 L 109.31 82.85 L 110.38 84.75 L 111.36 86.71 L 112.23 88.71 L 113.01 90.73 L 113.67 92.77 L 114.22 94.82 L 114.65 96.85 L 114.96 98.86 L 115.14 100.83 L 115.20 102.75 L 115.14 104.61 L 114.96 106.40 L 114.65 108.10 L 114.22 109.70 L 113.67 111.20 L 113.01 112.58 L 112.23 113.83 L 111.36 114.95 L 110.38 115.93 L 109.31 116.76 L 108.15 117.44 L 120.95 111.04 L 122.10 110.36 L 123.17 109.53 L 124.15 108.55 L 125.03 107.44 L 125.80 106.18 L 126.46 104.80 L 127.01 103.31 L 127.44 101.70 L 127.75 100.00 L 127.94 98.22 L 128.00 96.36 L 127.94 94.43 L 127.75 92.46 L 127.44 90.45 L 127.26 89.60 L 126.60 86.89 L 126.51 86.54 L 125.53 83.63 L 125.30 83.02 L 124.08 80.17 L 123.89 79.79 L 122.55 77.25 L 122.27 76.76 L 120.66 74.21 L 120.25 73.63 L 118.41 71.21 L 118.40 71.20 L 118.40 71.20 L 117.03 69.64 L 115.61 68.19 L 114.15 66.85 L 112.65 65.65 L 111.12 64.58 L 109.58 63.66 L 108.03 62.89 L 106.49 62.27 L 104.97 61.81 L 103.47 61.51 L 102.00 61.38 L 100.58 61.41 L 99.21 61.61 L 97.36 62.19 L 96.67 62.48 L 83.87 68.88 Z" fill="url(#g13)" fill-rule="evenodd" stroke="url(#g13)" stroke-width="0.8"/>
<path d="M 100.94 39.08 L 101.21 40.16 L 101.65 41.24 L 102.25 42.28 L 103.03 43.31 L 103.97 44.30 L 105.06 45.24 L 106.30 46.14 L 107.68 46.99 L 109.20 47.77 L 110.83 48.50 L 112.58 49.16 L 114.43 49.74 L 116.36 50.25 L 118.38 50.68 L 120.45 51.02 L 122.57 51.28 L 124.73 51.46 L 126.91 51.55 L 129.09 51.55 L 131.27 51.46 L 133.43 51.28 L 135.55 51.02 L 137.62 50.68 L 139.64 50.25 L 141.57 49.74 L 143.42 49.16 L 145.17 48.50 L 146.80 47.77 L 148.32 46.99 L 149.70 46.14 L 150.94 45.24 L 152.03 44.30 L 152.97 43.31 L 153.75 42.28 L 154.35 41.24 L 154.79 40.16 L 155.06 39.08 L 155.14 37.99 L 155.14 22.32 L 155.06 23.41 L 155.04 23.46 L 155.04 23.50 L 154.99 23.69 L 154.79 24.49 L 154.71 24.70 L 154.67 24.84 L 154.54 25.10 L 154.35 25.57 L 154.14 25.93 L 154.03 26.16 L 153.91 26.34 L 153.75 26.61 L 153.31 27.19 L 153.14 27.43 L 153.06 27.52 L 152.97 27.64 L 152.03 28.62 L 152.01 28.65 L 152.00 28.66 L 151.91 28.73 L 150.94 29.57 L 150.75 29.71 L 150.62 29.82 L 150.28 30.05 L 149.70 30.47 L 149.27 30.73 L 149.01 30.91 L 148.72 31.07 L 148.32 31.32 L 147.57 31.71 L 147.19 31.91 L 147.02 31.99 L 146.80 32.10 L 145.27 32.78 L 145.19 32.82 L 145.17 32.83 L 145.17 32.83 L 143.42 33.49 L 143.19 33.56 L 143.01 33.62 L 142.51 33.77 L 141.57 34.07 L 141.06 34.20 L 140.68 34.32 L 140.25 34.42 L 139.64 34.58 L 138.72 34.77 L 138.23 34.89 L 137.97 34.93 L 137.62 35.01 L 136.01 35.28 L 135.68 35.33 L 135.62 35.34 L 135.55 35.35 L 133.43 35.61 L 133.22 35.63 L 133.05 35.65 L 132.47 35.69 L 131.27 35.79 L 130.76 35.81 L 130.37 35.84 L 129.84 35.85 L 129.09 35.88 L 128.20 35.88 L 127.66 35.89 L 127.34 35.88 L 126.91 35.88 L 125.45 35.82 L 124.96 35.80 L 124.85 35.79 L 124.73 35.79 L 122.57 35.61 L 122.42 35.60 L 122.29 35.59 L 121.78 35.52 L 120.45 35.35 L 120.00 35.28 L 119.68 35.23 L 119.19 35.14 L 118.38 35.01 L 117.63 34.85 L 117.15 34.76 L 116.82 34.67 L 116.36 34.58 L 115.21 34.27 L 114.72 34.15 L 114.59 34.11 L 114.43 34.07 L 112.58 33.49 L 112.50 33.45 L 112.43 33.43 L 112.11 33.31 L 110.83 32.83 L 110.55 32.70 L 110.30 32.60 L 109.89 32.41 L 109.20 32.10 L 108.68 31.84 L 108.33 31.67 L 108.07 31.52 L 107.68 31.32 L 106.94 30.86 L 106.57 30.65 L 106.46 30.57 L 106.30 30.47 L 105.06 29.57 L 105.03 29.55 L 105.02 29.54 L 104.92 29.45 L 103.97 28.62 L 103.81 28.46 L 103.69 28.36 L 103.48 28.12 L 103.03 27.64 L 102.78 27.32 L 102.61 27.12 L 102.48 26.92 L 102.25 26.61 L 101.95 26.09 L 101.78 25.83 L 101.73 25.71 L 101.65 25.57 L 101.24 24.57 L 101.21 24.51 L 101.21 24.50 L 101.21 24.49 L 100.94 23.41 L 100.93 23.27 L 100.91 23.16 L 100.90 22.89 L 100.86 22.32 L 100.86 37.99 Z" fill="url(#g14)" fill-rule="evenodd" stroke="url(#g14)" stroke-width="0.8"/>
<path d="M 150.62 29.82 L 152.00 28.66 L 153.14 27.43 L 154.03 26.16 L 154.67 24.84 L 155.04 23.50 L 155.14 22.15 L 154.97 20.80 L 154.53 19.46 L 153.84 18.16 L 152.88 16.89 L 151.67 15.68 L 150.23 14.53 L 148.57 13.46 L 146.71 12.48 L 144.66 11.60 L 142.44 10.83 L 140.08 10.16 L 137.60 9.62 L 135.03 9.21 L 132.38 8.92 L 129.69 8.77 L 126.98 8.76 L 124.29 8.87 L 121.63 9.12 L 119.03 9.51 L 116.53 10.02 L 114.14 10.65 L 111.88 11.40 L 109.79 12.25 L 107.88 13.21 L 106.16 14.26 L 104.67 15.38 L 103.40 16.58 L 102.38 17.84 L 101.61 19.13 L 101.11 20.46 L 100.88 21.81 L 100.91 23.16 L 101.21 24.51 L 101.78 25.83 L 102.61 27.12 L 103.69 28.36 L 105.02 29.54 L 106.57 30.65 L 108.33 31.67 L 110.30 32.60 L 112.43 33.43 L 114.72 34.15 L 117.15 34.76 L 119.68 35.23 L 122.29 35.59 L 124.96 35.80 L 127.66 35.89 L 130.37 35.84 L 133.05 35.65 L 135.68 35.33 L 138.23 34.89 L 140.68 34.32 L 143.01 33.62 L 145.19 32.82 L 147.19 31.91 L 149.01 30.91 Z" fill="#ffffcd" fill-rule="evenodd" stroke="#ffffcd" stroke-width="0.8"/>
</g>
<g stroke="black" fill="none" stroke-linecap="round">
<path d="M 128.00 96.36 A 27.14 16.62 -116.57 0 1 121.01 111.01" stroke-width="2.00"/>
<path d="M 96.66 62.49 A 27.14 16.62 -116.57 0 1 128.00 96.36" stroke-width="2.00"/>
<path d="M 147.19 47.58 A 27.14 13.57 -180.00 0 0 155.14 37.99" stroke-width="2.00"/>
<path d="M 100.86 37.99 A 27.14 13.57 -180.00 0 0 147.19 47.58" stroke-width="2.00"/>
<path d="M 147.19 31.91 A 27.14 13.57 -180.00 0 0 108.81 12.72 A 27.14 13.57 -180.00 0 0 147.19 31.91" stroke-width="2.00"/>
<line x1="155.14" y1="37.99" x2="155.14" y2="22.32" stroke-width="2.00"/>
<line x1="100.86" y1="37.99" x2="100.86" y2="22.32" stroke-width="2.00"/>
<path d="M 147.19 47.58 A 27.14 13.57 -180.00 0 0 155.14 37.99" stroke-width="2.00"/>
<path d="M 100.86 37.99 A 27.14 13.57 -180.00 0 0 147.19 47.58" stroke-width="2.00"/>
<path d="M 147.19 31.91 A 27.14 13.57 -180.00 0 0 108.81 12.72 A 27.14 13.57 -180.00 0 0 147.19 31.91" stroke-width="2.00"/>
<path d="M 147.19 31.91 A 27.14 13.57 -180.00 0 0 108.81 12.72 A 27.14 13.57 -180.00 0 0 147.19 31.91" stroke-width="2.00"/>
<path d="M 108.81 99.56 A 18.10 11.08 -116.57 0 1 83.22 86.76 A 18.10 11.08 -116.57 0 1 108.81 99.56" stroke-width="2.00"/>
<path d="M 115.20 102.75 A 27.14 16.62 -116.57 0 1 76.82 83.56 A 27.14 16.62 -116.57 0 1 115.20 102.75" stroke-width="2.00"/>
<path d="M 108.81 99.56 A 18.10 11.08 -116.57 0 1 83.22 86.76 A 18.10 11.08 -116.57 0 1 108.81 99.56" stroke-width="2.00"/>
<line x1="108.15" y1="117.44" x2="120.95" y2="111.04" stroke-width="2.00"/>
<line x1="83.87" y1="68.88" x2="96.67" y2="62.48" stroke-width="2.00"/>
<path d="M 115.20 102.75 A 27.14 16.62 -116.57 0 1 76.82 83.56 A 27.14 16.62 -116.57 0 1 115.20 102.75" stroke-width="2.00"/>
<path d="M 128.00 96.36 A 27.14 16.62 -116.57 0 1 121.01 111.01" stroke-width="2.00"/>
<path d="M 96.66 62.49 A 27.14 16.62 -116.57 0 1 128.00 96.36" stroke-width="2.00"/>
<path d="M 115.20 102.75 A 27.14 16.62 -116.57 0 1 76.82 83.56 A 27.14 16.62 -116.57 0 1 115.20 102.75" stroke-width="2.00"/>
<path d="M 108.81 99.56 A 18.10 11.08 -116.57 0 1 83.22 86.76 A 18.10 11.08 -116.57 0 1 108.81 99.56" stroke-width="2.00"/>
<line x1="64.02" y1="132.01" x2="128.00" y2="164.00" stroke-width="2.00"/>
<line x1="128.00" y1="164.00" x2="191.98" y2="132.01" stroke-width="2.00"/>
<line x1="140.80" y1="141.93" x2="76.82" y2="109.94" stroke-width="2.00"/>
<line x1="76.82" y1="109.94" x2="64.02" y2="116.34" stroke-width="2.00"/>
<line x1="64.02" y1="116.34" x2="128.00" y2="148.33" stroke-width="2.00"/>
<line x1="128.00" y1="148.33" x2="140.80" y2="141.93" stroke-width="2.00"/>
<line x1="191.98" y1="37.99" x2="154.54" y2="19.27" stroke-width="2.00"/>
<line x1="134.15" y1="9.07" x2="128.00" y2="6.00" stroke-width="2.00"/>
<line x1="128.00" y1="6.00" x2="121.85" y2="9.08" stroke-width="2.00"/>
<line x1="101.57" y1="19.21" x2="76.82" y2="31.59" stroke-width="2.00"/>
<line x1="76.82" y1="31.59" x2="140.80" y2="63.58" stroke-width="2.00"/>
<line x1="140.80" y1="63.58" x2="191.98" y2="37.99" stroke-width="2.00"/>
<line x1="191.98" y1="132.01" x2="191.98" y2="37.99" stroke-width="2.00"/>
<line x1="140.80" y1="141.93" x2="140.80" y2="63.58" stroke-width="2.00"/>
<line x1="76.82" y1="109.94" x2="76.82" y2="31.59" stroke-width="2.00"/>
<line x1="128.00" y1="164.00" x2="128.00" y2="148.33" stroke-width="2.00"/>
<line x1="64.02" y1="132.01" x2="64.02" y2="116.34" stroke-width="2.00"/>
</g>
</svg>