<svg xmlns="http://www.w3.org/2000/svg" viewBox="0 0 256 170" preserveAspectRatio="xMidYMid meet">
<defs><linearGradient id="g0" gradientUnits="userSpaceOnUse" x1="87.53" y1="132.86" x2="168.47" y2="132.86"><stop offset="0.0%" stop-color="#ecc836"/><stop offset="3.8%" stop-color="#f7d138"/><stop offset="14.6%" stop-color="#f1cc37"/><stop offset="30.9%" stop-color="#dab831"/><stop offset="50.0%" stop-color="#b69a29"/><stop offset="69.1%" stop-color="#8b7620"/><stop offset="85.4%" stop-color="#85711e"/><stop offset="96.2%" stop-color="#85711e"/><stop offset="100.0%" stop-color="#85711e"/></linearGradient><linearGradient id="g1" gradientUnits="userSpaceOnUse" x1="87.83" y1="77.83" x2="168.17" y2="77.83"><stop offset="0.0%" stop-color="#85711e"/><stop offset="5.4%" stop-color="#85711e"/><stop offset="16.6%" stop-color="#85711e"/><stop offset="32.1%" stop-color="#85711e"/><stop offset="50.0%" stop-color="#927b21"/><stop offset="67.9%" stop-color="#b29729"/><stop offset="83.4%" stop-color="#c9aa2e"/><stop offset="94.6%" stop-color="#d1b130"/><stop offset="100.0%" stop-color="#ccad2e"/></linearGradient><linearGradient id="g2" gradientUnits="userSpaceOnUse" x1="107.76" y1="56.19" x2="148.24" y2="56.19"><stop offset="0.0%" stop-color="#85711e"/><stop offset="3.8%" stop-color="#85711e"/><stop offset="14.6%" stop-color="#85711e"/><stop offset="30.9%" stop-color="#8b7620"/><stop offset="50.0%" stop-color="#b69a29"/><stop offset="69.1%" stop-color="#dab831"/><stop offset="85.4%" stop-color="#f1cc37"/><stop offset="96.2%" stop-color="#f7d138"/><stop offset="100.0%" stop-color="#ecc836"/></linearGradient><linearGradient id="g3" gradientUnits="userSpaceOnUse" x1="97.65" y1="29.90" x2="158.35" y2="29.90"><stop offset="0.0%" stop-color="#ecc836"/><stop offset="3.8%" stop-color="#f7d138"/><stop offset="14.6%" stop-color="#f1cc37"/><stop offset="30.9%" stop-color="#dab831"/><stop offset="50.0%" stop-color="#b69a29"/><stop offset="69.1%" stop-color="#8b7620"/><stop offset="85.4%" stop-color="#85711e"/><stop offset="96.2%" stop-color="#85711e"/><stop offset="100.0%" stop-color="#85711e"/></linearGradient><linearGradient id="g4" gradientUnits="userSpaceOnUse" x1="168.17" y1="77.83" x2="87.83" y2="77.83"><stop offset="0.0%" stop-color="#85711e"/><stop offset="1.9%" stop-color="#85711e"/><stop offset="12.3%" stop-color="#85711e"/><stop offset="29.3%" stop-color="#ab9027"/><stop offset="50.0%" stop-color="#d8b731"/><stop offset="70.7%" stop-color="#fdd73a"/><stop offset="87.7%" stop-color="#ffe93f"/><stop offset="98.1%" stop-color="#ffec3f"/><stop offset="100.0%" stop-color="#ffdf3c"/></linearGradient></defs>
<g stroke-linejoin="round">
<path d="M 168.47 143.82 L 168.47 137.07 A 50.59 25.30 -180.00 0 1 87.53 137.06 L 87.53 143.82 A 40.47 20.24 180.00 0 0 168.47 143.82 Z" fill="url(#g0)" fill-rule="evenodd" stroke="url(#g0)" stroke-width="0.8"/>
<path d="M 99.12 43.04 L 99.04 43.07 L 98.96 43.10 L 98.88 43.15 L 98.81 43.20 L 98.75 43.26 L 98.69 43.33 L 98.64 43.40 L 98.59 43.47 L 98.55 43.55 L 98.52 43.64 L 98.50 43.72 L 98.49 43.81 L 98.48 43.90 L 98.48 45.10 L 98.49 45.19 L 98.50 45.27 L 98.52 45.36 L 98.55 45.44 L 98.59 45.52 L 98.64 45.60 L 98.69 45.67 L 98.75 45.73 L 98.81 45.79 L 98.88 45.85 L 98.96 45.89 L 99.04 45.93 L 99.12 45.96 L 99.21 45.98 L 99.30 45.99 L 99.38 46.00 L 100.58 46.00 L 100.67 45.99 L 100.76 45.98 L 100.85 45.96 L 100.93 45.93 L 101.01 45.89 L 101.08 45.85 L 101.15 45.79 A 30.35 15.18 180.00 0 1 99.15 43.36 L 99.15 43.28 L 99.16 43.20 L 99.18 43.11 L 99.21 43.03 L 99.22 43.01 L 99.21 43.01 L 99.12 43.04 Z" fill="url(#g1)" fill-rule="evenodd" stroke="url(#g1)" stroke-width="0.8"/>
<path d="M 147.74 23.33 L 148.24 23.33 L 148.24 21.14 A 20.24 10.12 180.00 0 0 127.19 11.03 A 20.24 10.12 180.00 0 0 107.76 21.14 L 107.76 23.33 L 108.27 23.33 A 20.24 10.12 180.00 0 0 109.86 25.63 L 109.86 25.73 L 109.98 25.73 A 20.24 10.12 180.00 0 0 111.06 26.66 L 111.06 27.53 L 111.36 27.53 L 111.45 27.52 L 111.54 27.51 L 111.62 27.49 L 111.71 27.46 L 111.79 27.42 L 111.86 27.38 L 111.94 27.32 L 111.96 27.30 A 20.24 10.12 180.00 0 0 147.74 23.33 Z" fill="url(#g2)" fill-rule="evenodd" stroke="url(#g2)" stroke-width="0.8"/>
<path d="M 98.99 43.09 L 99.04 43.07 L 99.12 43.04 L 99.21 43.01 L 99.22 43.01 L 99.21 43.03 L 99.18 43.11 L 99.16 43.20 L 99.15 43.28 L 99.14 43.36 A 30.35 15.18 180.00 0 0 101.90 46.39 L 101.90 46.39 A 30.35 15.18 180.00 0 0 158.13 36.82 L 158.35 37.74 L 158.35 21.14 A 30.35 15.18 180.00 0 1 97.64 21.14 L 97.64 37.74 L 97.87 36.82 A 30.35 15.18 180.00 0 0 98.99 43.09 Z" fill="url(#g3)" fill-rule="evenodd" stroke="url(#g3)" stroke-width="0.8"/>
<path d="M 101.18 45.77 L 101.16 45.79 L 101.08 45.84 L 101.01 45.89 L 100.93 45.93 L 100.84 45.96 L 100.76 45.98 L 100.67 45.99 L 100.58 46.00 L 99.38 46.00 L 99.30 45.99 L 99.21 45.98 L 99.12 45.96 L 99.04 45.93 L 98.96 45.89 L 98.88 45.84 L 98.81 45.79 L 98.75 45.73 L 98.69 45.67 L 98.64 45.60 L 98.59 45.52 L 98.55 45.44 L 98.52 45.36 L 98.50 45.27 L 98.49 45.19 L 98.48 45.10 L 98.48 43.90 L 98.49 43.81 L 98.50 43.72 L 98.52 43.64 L 98.55 43.55 L 98.59 43.47 L 98.64 43.40 L 98.69 43.33 L 98.75 43.26 L 98.81 43.20 L 98.88 43.15 L 98.96 43.10 A 30.35 15.18 180.00 0 1 97.87 36.82 L 77.78 118.83 A 50.59 25.30 -180.00 0 0 130.19 147.18 A 50.59 25.30 -180.00 0 0 178.22 118.83 L 158.13 36.82 A 30.35 15.18 180.00 0 1 101.18 45.77 Z" fill="url(#g4)" fill-rule="evenodd" stroke="url(#g4)" stroke-width="0.8"/>
<path d="M 156.12 26.86 A 30.35 15.18 180.00 0 0 99.35 16.13 A 30.35 15.18 180.00 0 0 156.12 26.86 Z M 111.96 27.30 L 111.94 27.32 L 111.86 27.38 L 111.79 27.42 L 111.71 27.46 L 111.62 27.49 L 111.54 27.51 L 111.45 27.52 L 111.36 27.53 L 111.06 27.53 L 111.06 26.66 A 20.24 10.12 180.00 0 1 109.98 25.73 L 109.86 25.73 L 109.86 25.63 A 20.24 10.12 180.00 0 1 108.27 23.33 L 107.76 23.33 L 107.76 21.14 A 20.24 10.12 180.00 0 1 128.81 11.03 A 20.24 10.12 180.00 0 1 148.24 21.14 L 148.24 23.33 L 147.74 23.33 A 20.24 10.12 180.00 0 1 111.96 27.30 Z" fill="#ffff48" fill-rule="evenodd" stroke="#ffff48" stroke-width="0.8"/>
</g>
<g stroke="black" fill="none" stroke-linecap="round">
<line x1="168.47" y1="137.20" x2="168.47" y2="143.82" stroke-width="2.00"/>
<line x1="87.53" y1="137.20" x2="87.53" y2="143.82" stroke-width="2.00"/>
<line x1="158.35" y1="21.14" x2="158.35" y2="38.66" stroke-width="2.00"/>
<line x1="97.65" y1="21.14" x2="97.65" y2="38.66" stroke-width="2.00"/>
<line x1="158.39" y1="37.88" x2="178.22" y2="118.83" stroke-width="2.00"/>
<line x1="77.78" y1="118.83" x2="97.61" y2="37.88" stroke-width="2.00"/>
<path d="M 168.47 143.84 A 40.47 20.24 180.00 1 1 87.53 143.79" stroke-width="2.00"/>
<path d="M 178.21 118.83 A 50.59 25.30 -180.00 1 1 77.79 118.83" stroke-width="2.00"/>
<path d="M 158.35 38.65 A 30.35 15.18 180.00 1 1 97.65 38.68" stroke-width="2.00"/>
<path d="M 142.31 28.29 A 20.24 10.12 180.00 0 0 113.69 13.98 A 20.24 10.12 180.00 0 0 142.31 28.29" stroke-width="2.00"/>
<path d="M 149.46 31.87 A 30.35 15.18 180.00 0 0 106.54 10.41 A 30.35 15.18 180.00 0 0 149.46 31.87" stroke-width="2.00"/>
</g>
</svg>