<svg xmlns="http://www.w3.org/2000/svg" viewBox="0 0 256 170" preserveAspectRatio="xMidYMid meet">
<defs><linearGradient id="g0" gradientUnits="userSpaceOnUse" x1="87.53" y1="132.86" x2="168.47" y2="132.86"><stop offset="0.0%" stop-color="#ecc836"/><stop offset="3.8%" stop-color="#f7d138"/><stop offset="14.6%" stop-color="#f1cc37"/><stop offset="30.9%" stop-color="#dab831"/><stop offset="50.0%" stop-color="#b69a29"/><stop offset="69.1%" stop-color="#8b7620"/><stop offset="85.4%" stop-color="#85711e"/><stop offset="96.2%" stop-color="#85711e"/><stop offset="100.0%" stop-color="#85711e"/></linearGradient><linearGradient id="g2" gradientUnits="userSpaceOnUse" x1="107.76" y1="56.19" x2="148.24" y2="56.19"><stop offset="0.0%" stop-color="#85711e"/><stop offset="3.8%" stop-color="#85711e"/><stop offset="14.6%" stop-color="#85711e"/><stop offset="30.9%" stop-color="#8b7620"/><stop offset="50.0%" stop-color="#b69a29"/><stop offset="69.1%" stop-color="#dab831"/><stop offset="85.4%" stop-color="#f1cc37"/><stop offset="96.2%" stop-color="#f7d138"/><stop offset="100.0%" stop-color="#ecc836"/></linearGradient><linearGradient id="g3" gradientUnits="userSpaceOnUse" x1="158.35" y1="29.90" x2="97.65" y2="29.90"><stop offset="0.0%" stop-color="#ecc836"/><stop offset="3.8%" stop-color="#f7d138"/><stop offset="14.6%" stop-color="#f1cc37"/><stop offset="30.9%" stop-color="#dab831"/><stop offset="50.0%" stop-color="#b69a29"/><stop offset="69.1%" stop-color="#8b7620"/><stop offset="85.4%" stop-color="#85711e"/><stop offset="96.2%" stop-color="#85711e"/><stop offset="100.0%" stop-color="#85711e"/></linearGradient><linearGradient id="g4" gradientUnits="userSpaceOnUse" x1="148.24" y1="56.19" x2="107.76" y2="56.19"><stop offset="0.0%" stop-color="#85711e"/><stop offset="3.8%" stop-color="#85711e"/><stop offset="14.6%" stop-color="#85711e"/><stop offset="30.9%" stop-color="#8b7620"/><stop offset="50.0%" stop-color="#b69a29"/><stop offset="69.1%" stop-color="#dab831"/><stop offset="85.4%" stop-color="#f1cc37"/><stop offset="96.2%" stop-color="#f7d138"/><stop offset="100.0%" stop-color="#ecc836"/></linearGradient><linearGradient id="g5" gradientUnits="userSpaceOnUse" x1="97.65" y1="29.90" x2="158.35" y2="29.90"><stop offset="0.0%" stop-color="#ecc836"/><stop offset="3.8%" stop-color="#f7d138"/><stop offset="14.6%" stop-color="#f1cc37"/><stop offset="30.9%" stop-color="#dab831"/><stop offset="50.0%" stop-color="#b69a29"/><stop offset="69.1%" stop-color="#8b7620"/><stop offset="85.4%" stop-color="#85711e"/><stop offset="96.2%" stop-color="#85711e"/><stop offset="100.0%" stop-color="#85711e"/></linearGradient><linearGradient id="g6" gradientUnits="userSpaceOnUse" x1="168.17" y1="77.83" x2="87.83" y2="77.83"><stop offset="0.0%" stop-color="#85711e"/><stop offset="1.9%" stop-color="#85711e"/><stop offset="12.3%" stop-color="#85711e"/><stop offset="29.3%" stop-color="#ab9027"/><stop offset="50.0%" stop-color="#d8b731"/><stop offset="70.7%" stop-color="#fdd73a"/><stop offset="87.7%" stop-color="#ffe93f"/><stop offset="98.1%" stop-color="#ffec3f"/><stop offset="100.0%" stop-color="#ffdf3c"/></linearGradient></defs>
<g stroke-linejoin="round">
<path d="M 88.05 147.06 L 88.70 148.66 L 89.61 150.22 L 90.77 151.75 L 92.16 153.22 L 93.79 154.63 L 95.64 155.97 L 97.71 157.24 L 99.96 158.41 L 102.40 159.49 L 105.01 160.47 L 107.76 161.34 L 110.65 162.10 L 113.65 162.74 L 116.74 163.25 L 119.90 163.64 L 123.12 163.91 L 126.37 164.04 L 129.63 164.04 L 132.88 163.91 L 136.10 163.64 L 139.26 163.25 L 142.35 162.74 L 145.35 162.10 L 148.24 161.34 L 150.99 160.47 L 153.60 159.49 L 156.04 158.41 L 158.29 157.24 L 160.36 155.97 L 162.21 154.63 L 163.84 153.22 L 165.23 151.75 L 166.39 150.22 L 167.30 148.66 L 167.95 147.06 L 168.34 145.44 L 168.47 143.82 L 168.47 137.07 L 168.36 137.14 L 167.99 137.41 L 166.25 138.43 L 165.51 138.88 L 165.34 138.97 L 165.15 139.08 L 162.03 140.63 L 161.99 140.64 L 161.95 140.66 L 161.47 140.86 L 158.66 142.03 L 158.32 142.15 L 158.04 142.26 L 156.99 142.61 L 155.05 143.28 L 154.37 143.48 L 153.84 143.66 L 152.77 143.94 L 151.25 144.38 L 150.20 144.62 L 149.38 144.84 L 148.44 145.03 L 147.26 145.30 L 145.77 145.57 L 144.71 145.78 L 144.00 145.89 L 143.13 146.05 L 141.10 146.32 L 139.87 146.50 L 139.42 146.54 L 138.89 146.61 L 135.88 146.88 L 134.92 146.97 L 134.77 146.97 L 134.57 146.99 L 130.19 147.18 L 130.03 147.18 L 129.89 147.19 L 128.92 147.18 L 125.81 147.18 L 125.29 147.16 L 124.85 147.16 L 123.58 147.08 L 121.43 146.99 L 120.54 146.91 L 119.84 146.87 L 118.71 146.75 L 117.11 146.61 L 115.88 146.45 L 114.91 146.34 L 114.01 146.20 L 112.86 146.05 L 111.24 145.75 L 110.11 145.57 L 109.50 145.44 L 108.74 145.30 L 106.66 144.82 L 105.48 144.56 L 105.15 144.47 L 104.75 144.38 L 101.77 143.52 L 101.08 143.33 L 101.01 143.30 L 100.95 143.28 L 97.34 142.03 L 97.14 141.95 L 96.95 141.88 L 96.05 141.49 L 93.97 140.63 L 93.53 140.41 L 93.13 140.24 L 92.27 139.78 L 90.85 139.08 L 90.20 138.69 L 89.65 138.41 L 88.98 137.98 L 88.01 137.41 L 87.53 137.06 L 87.53 143.82 L 87.66 145.44 Z" fill="url(#g0)" fill-rule="evenodd" stroke="url(#g0)" stroke-width="0.8"/>
<path d="M 77.60 119.70 L 77.56 120.27 L 77.71 119.31 Z M 77.41 122.22 L 77.47 122.66 L 77.45 121.71 Z M 77.73 124.74 L 77.83 125.04 L 77.65 124.13 Z M 78.54 127.23 L 78.62 127.38 L 78.34 126.62 Z M 79.85 129.67 L 79.85 129.67 L 79.80 129.57 Z M 81.63 132.03 L 82.18 132.58 L 81.53 131.89 Z M 83.88 134.28 L 84.54 134.81 L 83.62 134.02 Z M 86.56 136.42 L 87.20 136.83 L 86.10 136.05 Z M 89.65 138.41 L 90.20 138.69 L 88.98 137.98 Z M 93.13 140.24 L 93.53 140.41 L 92.27 139.78 Z M 96.95 141.88 L 97.14 141.95 L 96.05 141.49 Z M 101.08 143.33 L 101.77 143.52 L 101.01 143.30 Z M 105.48 144.56 L 106.66 144.82 L 105.15 144.47 Z M 110.11 145.57 L 111.24 145.75 L 109.50 145.44 Z M 114.91 146.34 L 115.88 146.45 L 114.01 146.20 Z M 119.84 146.87 L 120.54 146.91 L 118.71 146.75 Z M 124.85 147.16 L 125.29 147.16 L 123.58 147.08 Z M 129.89 147.19 L 130.03 147.18 L 128.92 147.18 Z M 134.92 146.97 L 135.88 146.88 L 134.77 146.97 Z M 139.87 146.50 L 141.10 146.32 L 139.42 146.54 Z M 144.71 145.78 L 145.77 145.57 L 144.00 145.89 Z M 149.38 144.84 L 150.20 144.62 L 148.44 145.03 Z M 153.84 143.66 L 154.37 143.48 L 152.77 143.94 Z M 158.04 142.26 L 158.32 142.15 L 156.99 142.61 Z M 161.95 140.66 L 161.99 140.64 L 161.47 140.86 Z M 165.51 138.88 L 166.25 138.43 L 165.34 138.97 Z M 168.71 136.93 L 169.40 136.40 L 168.36 137.14 Z M 171.49 134.83 L 172.00 134.35 L 171.04 135.17 Z M 173.85 132.60 L 174.16 132.22 L 173.36 133.06 Z M 175.75 130.26 L 175.91 130.00 L 175.28 130.84 Z M 177.18 127.84 L 177.23 127.71 L 176.83 128.44 Z M 178.12 125.37 L 178.15 125.17 L 178.11 125.38 Z M 178.56 122.86 L 178.54 122.21 L 178.53 123.03 Z M 178.49 120.33 L 178.36 119.72 L 178.50 120.65 Z" fill="#ffff48" fill-rule="evenodd" stroke="#ffff48" stroke-width="0.8"/>
<path d="M 137.72 30.00 L 138.85 29.67 L 139.31 29.52 L 140.80 28.98 L 140.80 28.97 L 140.81 28.97 L 140.88 28.94 L 142.18 28.35 L 142.58 28.14 L 143.45 27.66 L 143.86 27.41 L 144.62 26.90 L 144.96 26.65 L 145.44 26.25 L 145.24 26.17 L 143.18 25.52 L 141.01 24.95 L 138.76 24.47 L 136.44 24.09 L 134.07 23.79 L 131.66 23.60 L 129.22 23.50 L 126.78 23.50 L 124.34 23.60 L 121.93 23.79 L 119.56 24.09 L 117.24 24.47 L 114.99 24.95 L 112.82 25.52 L 110.76 26.17 L 110.56 26.25 L 110.79 26.46 L 110.88 26.53 L 111.94 27.29 L 112.30 27.51 L 113.13 27.99 L 113.61 28.24 L 114.50 28.66 L 114.98 28.88 L 116.17 29.34 L 116.44 29.44 L 118.00 29.93 L 118.49 30.06 L 119.66 30.35 L 120.28 30.48 L 121.43 30.70 L 122.04 30.80 L 123.32 30.97 L 123.86 31.04 L 125.66 31.19 L 126.05 31.20 L 127.52 31.25 L 128.12 31.25 L 129.42 31.23 L 130.03 31.20 L 131.32 31.11 L 131.91 31.06 L 133.67 30.85 L 134.04 30.79 L 135.42 30.55 L 136.01 30.42 L 137.14 30.16 Z" fill="url(#g2)" fill-rule="evenodd" stroke="url(#g2)" stroke-width="0.8"/>
<path d="M 158.35 21.03 L 158.24 22.42 L 158.26 22.36 L 158.35 21.14 Z M 158.26 19.92 L 158.19 19.64 L 158.32 20.66 Z M 157.96 18.70 L 157.77 18.24 L 158.07 19.16 Z M 157.47 17.51 L 157.03 16.73 L 157.58 17.76 Z M 156.79 16.33 L 155.93 15.19 L 155.86 15.12 L 156.85 16.43 Z M 154.88 14.09 L 154.63 13.87 L 155.59 14.83 Z M 153.66 13.03 L 153.17 12.67 L 154.15 13.46 Z M 152.27 12.02 L 151.36 11.47 L 152.60 12.27 Z M 150.72 11.07 L 149.03 10.19 L 148.98 10.17 L 150.88 11.17 Z M 147.20 9.38 L 146.86 9.25 L 148.59 10.00 Z M 145.24 8.65 L 144.58 8.44 L 146.14 8.98 Z M 143.18 8.00 L 142.04 7.70 L 143.74 8.17 Z M 141.01 7.43 L 138.78 6.95 L 141.29 7.50 Z M 136.44 6.56 L 136.13 6.52 L 138.48 6.90 Z M 134.07 6.27 L 133.38 6.21 L 135.21 6.41 Z M 131.66 6.07 L 130.51 6.03 L 132.39 6.13 Z M 129.22 5.97 L 127.18 5.97 L 129.60 5.99 Z M 126.78 5.97 L 124.34 6.07 L 124.06 6.09 L 126.82 5.97 Z M 121.93 6.27 L 121.32 6.34 L 123.26 6.16 Z M 119.56 6.56 L 118.58 6.72 L 120.34 6.46 Z M 117.24 6.95 L 115.65 7.29 L 117.65 6.88 Z M 114.99 7.43 L 112.82 8.00 L 112.66 8.05 L 115.08 7.41 Z M 110.76 8.65 L 110.31 8.81 L 111.97 8.26 Z M 108.80 9.38 L 108.08 9.70 L 109.54 9.11 Z M 106.97 10.19 L 105.88 10.76 L 107.36 10.02 Z M 105.28 11.07 L 103.73 12.02 L 103.65 12.08 L 105.41 11.01 Z M 102.34 13.03 L 102.10 13.24 L 103.29 12.34 Z M 101.12 14.09 L 100.75 14.48 L 101.62 13.65 Z M 100.07 15.19 L 99.57 15.86 L 100.33 14.92 Z M 99.21 16.33 L 98.53 17.51 L 98.51 17.55 L 99.30 16.21 Z M 98.04 18.70 L 97.99 18.91 L 98.42 17.76 Z M 97.74 19.92 L 97.71 20.31 L 97.88 19.37 Z M 97.64 21.14 L 97.70 21.77 L 97.67 20.80 Z M 103.25 29.89 L 102.33 29.24 L 102.34 29.25 L 103.24 29.90 Z M 110.76 26.17 L 112.82 25.52 L 114.99 24.95 L 117.24 24.47 L 119.56 24.09 L 121.93 23.79 L 124.34 23.60 L 126.78 23.50 L 129.22 23.50 L 131.66 23.60 L 134.07 23.79 L 136.44 24.09 L 138.76 24.47 L 141.01 24.95 L 143.18 25.52 L 145.24 26.17 L 145.44 26.25 L 145.82 25.93 L 145.90 25.86 L 146.69 25.02 L 146.87 24.77 L 147.31 24.14 L 147.49 23.82 L 147.78 23.23 L 147.92 22.90 L 148.12 22.16 L 148.16 21.99 L 148.24 21.01 L 148.11 20.01 L 147.78 19.01 L 147.26 18.04 L 146.55 17.09 L 145.65 16.19 L 144.58 15.34 L 143.34 14.54 L 141.95 13.81 L 140.42 13.15 L 138.77 12.57 L 137.01 12.08 L 135.16 11.68 L 133.24 11.37 L 131.26 11.15 L 129.26 11.04 L 127.24 11.03 L 125.23 11.12 L 123.25 11.30 L 121.32 11.59 L 119.45 11.97 L 117.66 12.44 L 115.98 13.00 L 114.42 13.64 L 113.00 14.35 L 111.72 15.13 L 110.60 15.97 L 109.66 16.86 L 108.90 17.80 L 108.33 18.76 L 107.95 19.75 L 107.78 20.76 L 107.80 21.56 L 107.82 21.85 L 108.03 22.77 L 108.03 22.77 L 108.04 22.80 L 108.42 23.67 L 108.58 23.95 L 108.97 24.57 L 109.21 24.87 L 109.71 25.45 L 109.97 25.72 L 110.56 26.25 Z M 152.76 29.90 L 152.93 29.78 L 152.75 29.90 Z M 154.69 28.35 L 153.44 29.41 L 153.66 29.25 Z M 156.03 26.95 L 154.85 28.21 L 154.88 28.19 L 155.93 27.09 Z M 156.97 25.63 L 156.31 26.58 L 156.79 25.95 Z M 157.69 24.25 L 157.24 25.18 L 157.47 24.77 Z M 158.18 22.69 L 157.87 23.79 L 157.96 23.57 Z M 98.04 23.58 L 97.73 22.21 L 97.74 22.36 L 98.04 23.57 Z M 98.63 24.94 L 98.06 23.64 L 98.53 24.77 Z M 99.47 26.29 L 98.86 25.35 L 99.21 25.95 Z M 100.58 27.62 L 99.80 26.73 L 100.07 27.09 Z M 102.12 29.06 L 100.96 28.02 L 101.12 28.19 Z" fill="url(#g3)" fill-rule="evenodd" stroke="url(#g3)" stroke-width="0.8"/>
<path d="M 148.12 22.16 L 148.16 22.02 L 148.16 21.99 Z M 147.78 23.23 L 147.88 23.02 L 147.92 22.90 Z M 147.31 24.14 L 147.41 24.00 L 147.49 23.82 Z M 146.69 25.02 L 146.74 24.95 L 146.87 24.77 Z M 145.82 25.93 L 145.89 25.87 L 145.90 25.86 Z M 144.62 26.90 L 144.86 26.73 L 144.96 26.65 Z M 143.45 27.66 L 143.66 27.55 L 143.86 27.41 Z M 142.18 28.35 L 142.31 28.29 L 142.58 28.14 Z M 138.85 29.67 L 139.19 29.57 L 139.31 29.52 Z M 137.14 30.16 L 137.46 30.08 L 137.72 30.00 Z M 135.42 30.55 L 135.63 30.51 L 136.01 30.42 Z M 133.67 30.85 L 133.72 30.84 L 134.04 30.79 Z M 131.32 31.11 L 131.76 31.08 L 131.91 31.06 Z M 129.42 31.23 L 129.76 31.22 L 130.03 31.20 Z M 127.52 31.25 L 127.75 31.26 L 128.12 31.25 Z M 125.66 31.19 L 125.73 31.19 L 126.05 31.20 Z M 123.32 30.97 L 123.74 31.03 L 123.86 31.04 Z M 121.43 30.70 L 121.80 30.77 L 122.04 30.80 Z M 119.66 30.35 L 119.91 30.41 L 120.28 30.48 Z M 118.00 29.93 L 118.10 29.96 L 118.49 30.06 Z M 116.17 29.34 L 116.39 29.43 L 116.44 29.44 Z M 114.50 28.66 L 114.80 28.81 L 114.98 28.88 Z M 113.13 27.99 L 113.34 28.11 L 113.61 28.24 Z M 111.94 27.29 L 112.02 27.35 L 112.30 27.51 Z M 110.79 26.46 L 110.86 26.52 L 110.88 26.53 Z M 109.71 25.45 L 109.88 25.64 L 109.97 25.72 Z M 108.97 24.57 L 109.07 24.72 L 109.21 24.87 Z M 108.42 23.67 L 108.45 23.76 L 108.58 23.95 Z M 107.80 21.56 L 107.80 21.77 L 107.82 21.85 Z M 107.76 49.97 L 108.14 50.13 L 107.76 49.96 Z M 148.24 49.96 L 147.86 50.13 L 148.24 49.97 Z M 148.24 32.43 L 147.30 32.85 L 148.24 32.44 Z M 108.47 32.75 L 108.80 32.90 L 110.20 33.42 Z M 110.67 33.60 L 110.76 33.63 L 112.82 34.28 L 113.02 34.34 Z M 113.64 34.50 L 114.99 34.85 L 115.50 34.96 Z M 116.40 35.15 L 117.24 35.33 L 118.15 35.48 Z M 119.06 35.63 L 119.56 35.72 L 121.10 35.91 Z M 121.75 35.99 L 121.93 36.01 L 124.34 36.20 L 124.47 36.21 Z M 125.17 36.24 L 126.78 36.30 L 127.27 36.30 Z M 128.21 36.30 L 129.22 36.30 L 130.10 36.27 Z M 131.06 36.23 L 131.66 36.20 L 133.06 36.09 Z M 133.82 36.03 L 134.07 36.01 L 136.44 35.72 L 136.53 35.70 Z M 136.89 35.64 L 138.76 35.33 L 139.15 35.25 Z M 139.99 35.07 L 141.01 34.85 L 141.73 34.66 Z M 142.57 34.44 L 143.18 34.28 L 144.27 33.94 Z M 144.98 33.71 L 145.24 33.63 L 147.20 32.90 Z M 146.77 50.58 L 145.86 50.92 L 146.40 50.74 Z M 144.69 51.33 L 143.74 51.63 L 144.23 51.49 Z M 142.49 51.99 L 141.52 52.24 L 141.95 52.14 Z M 140.20 52.55 L 139.18 52.77 L 139.56 52.70 Z M 137.81 53.02 L 136.78 53.19 L 137.08 53.15 Z M 135.28 53.38 L 134.33 53.50 L 134.54 53.48 Z M 132.68 53.65 L 131.81 53.72 L 131.94 53.71 Z M 129.88 53.80 L 129.27 53.83 L 129.32 53.83 Z M 126.73 53.83 L 126.12 53.80 L 126.68 53.83 Z M 124.19 53.72 L 123.32 53.65 L 124.06 53.71 Z M 121.67 53.50 L 120.72 53.38 L 121.46 53.48 Z M 119.22 53.19 L 118.19 53.02 L 118.92 53.15 Z M 116.82 52.77 L 115.80 52.55 L 116.44 52.70 Z M 114.48 52.24 L 113.51 51.99 L 114.05 52.14 Z M 112.26 51.63 L 111.31 51.33 L 111.77 51.49 Z M 110.14 50.92 L 109.23 50.58 L 109.61 50.74 Z" fill="url(#g4)" fill-rule="evenodd" stroke="url(#g4)" stroke-width="0.8"/>
<path d="M 97.99 40.92 L 98.27 41.67 L 98.47 42.16 L 98.90 42.94 L 99.16 43.39 L 99.81 44.26 L 100.05 44.59 L 101.14 45.73 L 101.40 45.96 L 102.42 46.83 L 102.94 47.20 L 103.88 47.88 L 104.55 48.28 L 105.51 48.85 L 106.28 49.25 L 107.30 49.76 L 108.14 50.13 L 109.23 50.58 L 110.14 50.92 L 111.31 51.33 L 112.26 51.63 L 113.51 51.99 L 114.48 52.24 L 115.80 52.55 L 116.82 52.77 L 118.19 53.02 L 119.22 53.19 L 120.72 53.38 L 121.67 53.50 L 123.32 53.65 L 124.19 53.72 L 126.12 53.80 L 126.73 53.83 L 129.27 53.83 L 129.88 53.80 L 131.81 53.72 L 132.68 53.65 L 134.33 53.50 L 135.28 53.38 L 136.78 53.19 L 137.81 53.02 L 139.18 52.77 L 140.20 52.55 L 141.52 52.24 L 142.49 51.99 L 143.74 51.63 L 144.69 51.33 L 145.86 50.92 L 146.77 50.58 L 147.86 50.13 L 148.70 49.76 L 149.72 49.25 L 150.49 48.85 L 151.45 48.28 L 152.12 47.88 L 153.06 47.20 L 153.57 46.83 L 154.60 45.96 L 154.86 45.73 L 155.95 44.59 L 156.19 44.26 L 156.84 43.39 L 157.10 42.94 L 157.53 42.16 L 157.73 41.67 L 158.01 40.92 L 158.14 40.37 L 158.28 39.66 L 158.32 39.10 L 158.34 38.13 L 158.13 36.82 L 158.35 37.74 L 158.35 21.14 L 158.26 22.36 L 158.24 22.42 L 158.24 22.46 L 158.18 22.69 L 157.96 23.57 L 157.87 23.79 L 157.83 23.96 L 157.69 24.25 L 157.47 24.77 L 157.24 25.18 L 157.12 25.43 L 156.97 25.63 L 156.79 25.95 L 156.31 26.58 L 156.12 26.86 L 156.03 26.95 L 155.93 27.09 L 154.88 28.19 L 154.85 28.21 L 154.84 28.23 L 154.69 28.35 L 153.66 29.25 L 153.44 29.41 L 153.29 29.53 L 152.93 29.78 L 152.27 30.26 L 151.79 30.55 L 151.49 30.75 L 151.17 30.93 L 150.72 31.20 L 149.89 31.64 L 149.46 31.87 L 149.27 31.96 L 149.03 32.09 L 147.30 32.85 L 147.22 32.89 L 147.21 32.89 L 147.20 32.90 L 145.24 33.63 L 144.98 33.71 L 144.78 33.78 L 144.27 33.94 L 143.18 34.28 L 142.57 34.44 L 142.18 34.56 L 141.73 34.66 L 141.01 34.85 L 139.99 35.07 L 139.44 35.20 L 139.15 35.25 L 138.76 35.33 L 136.89 35.64 L 136.59 35.70 L 136.53 35.70 L 136.44 35.72 L 134.07 36.01 L 133.82 36.03 L 133.64 36.05 L 133.06 36.09 L 131.66 36.20 L 131.06 36.23 L 130.65 36.26 L 130.10 36.27 L 129.22 36.30 L 128.21 36.30 L 127.62 36.31 L 127.27 36.30 L 126.78 36.30 L 125.17 36.24 L 124.60 36.22 L 124.47 36.21 L 124.34 36.20 L 121.93 36.01 L 121.75 35.99 L 121.61 35.98 L 121.10 35.91 L 119.56 35.72 L 119.06 35.63 L 118.69 35.59 L 118.15 35.48 L 117.24 35.33 L 116.40 35.15 L 115.86 35.05 L 115.50 34.96 L 114.99 34.85 L 113.64 34.50 L 113.15 34.38 L 113.02 34.34 L 112.82 34.28 L 110.76 33.63 L 110.67 33.60 L 110.59 33.57 L 110.20 33.42 L 108.80 32.90 L 108.47 32.75 L 108.20 32.64 L 107.76 32.43 L 106.97 32.09 L 106.40 31.79 L 106.01 31.60 L 105.72 31.43 L 105.28 31.20 L 104.44 30.69 L 104.03 30.45 L 103.91 30.36 L 103.73 30.26 L 102.34 29.25 L 102.33 29.24 L 102.30 29.21 L 102.12 29.06 L 101.12 28.19 L 100.96 28.02 L 100.82 27.89 L 100.58 27.62 L 100.07 27.09 L 99.80 26.73 L 99.61 26.51 L 99.47 26.29 L 99.21 25.95 L 98.86 25.35 L 98.68 25.07 L 98.63 24.94 L 98.53 24.77 L 98.06 23.64 L 98.04 23.59 L 98.04 23.58 L 98.04 23.57 L 97.74 22.36 L 97.73 22.21 L 97.70 22.08 L 97.70 21.77 L 97.64 21.14 L 97.64 37.74 L 97.87 36.82 L 97.66 38.13 L 97.68 39.10 L 97.72 39.66 L 97.86 40.37 Z" fill="url(#g5)" fill-rule="evenodd" stroke="url(#g5)" stroke-width="0.8"/>
<path d="M 158.31 39.45 L 158.06 40.76 L 157.59 42.05 L 156.89 43.33 L 155.97 44.56 L 154.84 45.75 L 153.51 46.89 L 151.99 47.96 L 150.29 48.97 L 148.42 49.89 L 146.40 50.74 L 144.23 51.49 L 141.95 52.14 L 139.56 52.70 L 137.08 53.15 L 134.54 53.48 L 131.94 53.71 L 129.32 53.83 L 126.68 53.83 L 124.06 53.71 L 121.46 53.48 L 118.92 53.15 L 116.44 52.70 L 114.05 52.14 L 111.77 51.49 L 109.61 50.74 L 107.58 49.89 L 105.71 48.97 L 104.01 47.96 L 102.49 46.89 L 101.16 45.75 L 100.03 44.56 L 99.11 43.33 L 98.41 42.05 L 97.94 40.76 L 97.69 39.45 L 97.66 38.13 L 97.87 36.82 L 77.78 118.83 L 77.44 121.02 L 77.48 123.22 L 77.89 125.40 L 78.69 127.56 L 79.85 129.68 L 81.38 131.74 L 83.26 133.72 L 85.48 135.61 L 88.01 137.41 L 90.85 139.08 L 93.97 140.63 L 97.34 142.03 L 100.95 143.28 L 104.75 144.38 L 108.74 145.30 L 112.86 146.05 L 117.11 146.61 L 121.43 146.99 L 125.81 147.18 L 130.19 147.18 L 134.57 146.99 L 138.89 146.61 L 143.13 146.05 L 147.26 145.30 L 151.25 144.38 L 155.05 143.28 L 158.66 142.03 L 162.03 140.63 L 165.15 139.08 L 167.99 137.41 L 170.52 135.61 L 172.74 133.72 L 174.62 131.74 L 176.15 129.68 L 177.31 127.56 L 178.11 125.40 L 178.52 123.22 L 178.56 121.02 L 178.22 118.83 L 158.13 36.82 L 158.34 38.13 Z" fill="url(#g6)" fill-rule="evenodd" stroke="url(#g6)" stroke-width="0.8"/>
<path d="M 151.49 30.75 L 153.29 29.53 L 154.84 28.23 L 156.12 26.86 L 157.12 25.43 L 157.83 23.96 L 158.24 22.46 L 158.35 20.95 L 158.16 19.44 L 157.68 17.95 L 156.89 16.48 L 155.82 15.07 L 154.47 13.71 L 152.87 12.43 L 151.01 11.24 L 148.92 10.14 L 146.63 9.16 L 144.15 8.29 L 141.51 7.55 L 138.74 6.94 L 135.86 6.48 L 132.90 6.16 L 129.89 5.99 L 126.86 5.97 L 123.85 6.10 L 120.88 6.38 L 117.97 6.81 L 115.17 7.38 L 112.50 8.09 L 109.97 8.93 L 107.63 9.88 L 105.49 10.96 L 103.58 12.13 L 101.90 13.39 L 100.49 14.72 L 99.35 16.13 L 98.49 17.58 L 97.93 19.06 L 97.67 20.57 L 97.70 22.08 L 98.04 23.59 L 98.68 25.07 L 99.61 26.51 L 100.82 27.89 L 102.30 29.21 L 104.03 30.45 L 106.01 31.60 L 108.20 32.64 L 110.59 33.57 L 113.15 34.38 L 115.86 35.05 L 118.69 35.59 L 121.61 35.98 L 124.60 36.22 L 127.62 36.31 L 130.65 36.26 L 133.64 36.05 L 136.59 35.70 L 139.44 35.20 L 142.18 34.56 L 144.78 33.78 L 147.22 32.89 L 149.46 31.87 Z M 140.81 28.97 L 139.19 29.57 L 137.46 30.08 L 135.63 30.51 L 133.72 30.84 L 131.76 31.08 L 129.76 31.22 L 127.75 31.26 L 125.73 31.19 L 123.74 31.03 L 121.80 30.77 L 119.91 30.41 L 118.10 29.96 L 116.39 29.43 L 114.80 28.81 L 113.34 28.11 L 112.02 27.35 L 110.86 26.52 L 109.88 25.64 L 109.07 24.72 L 108.45 23.76 L 108.03 22.77 L 107.80 21.77 L 107.78 20.76 L 107.95 19.75 L 108.33 18.76 L 108.90 17.80 L 109.66 16.86 L 110.60 15.97 L 111.72 15.13 L 113.00 14.35 L 114.42 13.64 L 115.98 13.00 L 117.66 12.44 L 119.45 11.97 L 121.32 11.59 L 123.25 11.30 L 125.23 11.12 L 127.24 11.03 L 129.26 11.04 L 131.26 11.15 L 133.24 11.37 L 135.16 11.68 L 137.01 12.08 L 138.77 12.57 L 140.42 13.15 L 141.95 13.81 L 143.34 14.54 L 144.58 15.34 L 145.65 16.19 L 146.55 17.09 L 147.26 18.04 L 147.78 19.01 L 148.11 20.01 L 148.24 21.01 L 148.16 22.02 L 147.88 23.02 L 147.41 24.00 L 146.74 24.95 L 145.89 25.87 L 144.86 26.73 L 143.66 27.55 L 142.31 28.29 Z" fill="#ffff48" fill-rule="evenodd" stroke="#ffff48" stroke-width="0.8"/>
</g>
<g stroke="black" fill="none" stroke-linecap="round">
<path d="M 156.62 158.13 A 40.47 20.24 180.00 0 0 168.47 143.84" stroke-width="2.00"/>
<path d="M 87.53 143.79 A 40.47 20.24 180.00 0 0 156.62 158.13" stroke-width="2.00"/>
<path d="M 156.62 158.13 A 40.47 20.24 180.00 0 0 168.47 143.84" stroke-width="2.00"/>
<path d="M 87.53 143.79 A 40.47 20.24 180.00 0 0 156.62 158.13" stroke-width="2.00"/>
<line x1="168.47" y1="137.20" x2="168.47" y2="143.82" stroke-width="2.00"/>
<line x1="87.53" y1="137.20" x2="87.53" y2="143.82" stroke-width="2.00"/>
<path d="M 156.62 158.13 A 40.47 20.24 180.00 0 0 168.47 143.84" stroke-width="2.00"/>
<path d="M 87.53 143.79 A 40.47 20.24 180.00 0 0 156.62 158.13" stroke-width="2.00"/>
<path d="M 163.77 139.80 A 50.59 25.30 -180.00 0 0 178.21 118.83" stroke-width="2.00"/>
<path d="M 77.78 118.85 A 50.59 25.30 -180.00 0 0 163.77 139.80" stroke-width="2.00"/>
<path d="M 149.46 49.40 A 30.35 15.18 180.00 0 0 158.35 38.65" stroke-width="2.00"/>
<path d="M 97.65 38.73 A 30.35 15.18 180.00 0 0 149.46 49.40" stroke-width="2.00"/>
<path d="M 142.31 28.29 A 20.24 10.12 180.00 0 0 113.69 13.98 A 20.24 10.12 180.00 0 0 142.31 28.29" stroke-width="2.00"/>
<path d="M 149.46 31.87 A 30.35 15.18 180.00 0 0 106.54 10.41 A 30.35 15.18 180.00 0 0 149.46 31.87" stroke-width="2.00"/>
<path d="M 142.31 28.29 A 20.24 10.12 180.00 0 0 113.69 13.98 A 20.24 10.12 180.00 0 0 142.31 28.29" stroke-width="2.00"/>
<line x1="158.35" y1="21.14" x2="158.35" y2="38.66" stroke-width="2.00"/>
<line x1="97.65" y1="21.14" x2="97.65" y2="38.66" stroke-width="2.00"/>
<path d="M 149.46 31.87 A 30.35 15.18 180.00 0 0 106.54 10.41 A 30.35 15.18 180.00 0 0 149.46 31.87" stroke-width="2.00"/>
<path d="M 149.46 49.40 A 30.35 15.18 180.00 0 0 158.35 38.65" stroke-width="2.00"/>
<path d="M 97.65 38.73 A 30.35 15.18 180.00 0 0 149.46 49.40" stroke-width="2.00"/>
<path d="M 149.46 31.87 A 30.35 15.18 180.00 0 0 106.54 10.41 A 30.35 15.18 180.00 0 0 149.46 31.87" stroke-width="2.00"/>
<path d="M 142.31 28.29 A 20.24 10.12 180.00 0 0 113.69 13.98 A 20.24 10.12 180.00 0 0 142.31 28.29" stroke-width="2.00"/>
<path d="M 178.23 118.87 A 50.59 25.30 -180.00 1 1 77.77 118.90" stroke-width="2.00"/>
<line x1="168.17" y1="77.83" x2="158.39" y2="37.88" stroke-width="2.00"/>
<line x1="87.83" y1="77.83" x2="97.61" y2="37.88" stroke-width="2.00"/>
<path d="M 158.35 38.70 A 30.35 15.18 180.00 0 1 97.65 38.68" stroke-width="2.00"/>
<line x1="178.22" y1="118.83" x2="168.17" y2="77.83" stroke-width="2.00"/>
<line x1="77.78" y1="118.83" x2="87.83" y2="77.83" stroke-width="2.00"/>
<path d="M 92.23 139.80 A 50.59 25.30 180.00 0 1 77.79 118.83" stroke-width="2.00"/>
<path d="M 178.22 118.85 A 50.59 25.30 180.00 0 1 92.23 139.80" stroke-width="2.00"/>
</g>
</svg>