<svg xmlns="http://www.w3.org/2000/svg" viewBox="0 0 256 170" preserveAspectRatio="xMidYMid meet">
<defs><linearGradient id="g0" gradientUnits="userSpaceOnUse" x1="87.53" y1="132.86" x2="168.47" y2="132.86"><stop offset="0.0%" stop-color="#ecc836"/><stop offset="3.8%" stop-color="#f7d138"/><stop offset="14.6%" stop-color="#f1cc37"/><stop offset="30.9%" stop-color="#dab831"/><stop offset="50.0%" stop-color="#b69a29"/><stop offset="69.1%" stop-color="#8b7620"/><stop offset="85.4%" stop-color="#85711e"/><stop offset="96.2%" stop-color="#85711e"/><stop offset="100.0%" stop-color="#85711e"/></linearGradient><linearGradient id="g1" gradientUnits="userSpaceOnUse" x1="107.76" y1="56.19" x2="148.24" y2="56.19"><stop offset="0.0%" stop-color="#85711e"/><stop offset="3.8%" stop-color="#85711e"/><stop offset="14.6%" stop-color="#85711e"/><stop offset="30.9%" stop-color="#8b7620"/><stop offset="50.0%" stop-color="#b69a29"/><stop offset="69.1%" stop-color="#dab831"/><stop offset="85.4%" stop-color="#f1cc37"/><stop offset="96.2%" stop-color="#f7d138"/><stop offset="100.0%" stop-color="#ecc836"/></linearGradient><linearGradient id="g2" gradientUnits="userSpaceOnUse" x1="97.65" y1="29.90" x2="158.35" y2="29.90"><stop offset="0.0%" stop-color="#ecc836"/><stop offset="3.8%" stop-color="#f7d138"/><stop offset="14.6%" stop-color="#f1cc37"/><stop offset="30.9%" stop-color="#dab831"/><stop offset="50.0%" stop-color="#b69a29"/><stop offset="69.1%" stop-color="#8b7620"/><stop offset="85.4%" stop-color="#85711e"/><stop offset="96.2%" stop-color="#85711e"/><stop offset="100.0%" stop-color="#85711e"/></linearGradient><linearGradient id="g3" gradientUnits="userSpaceOnUse" x1="168.17" y1="77.83" x2="87.83" y2="77.83"><stop offset="0.0%" stop-color="#85711e"/><stop offset="1.9%" stop-color="#85711e"/><stop offset="12.3%" stop-color="#85711e"/><stop offset="29.3%" stop-color="#ab9027"/><stop offset="50.0%" stop-color="#d8b731"/><stop offset="70.7%" stop-color="#fdd73a"/><stop offset="87.7%" stop-color="#ffe93f"/><stop offset="98.1%" stop-color="#ffec3f"/><stop offset="100.0%" stop-color="#ffdf3c"/></linearGradient></defs>
<g stroke-linejoin="round">
<path d="M 168.47 143.82 L 168.47 137.07 A 50.59 25.30 -180.00 0 1 100.95 143.28 A 50.59 25.30 -180.00 0 1 87.53 137.06 L 87.53 143.82 A 40.47 20.24 180.00 0 0 126.37 164.04 A 40.47 20.24 180.00 0 0 168.34 145.44 A 40.47 20.24 180.00 0 0 168.47 143.82 Z" fill="url(#g0)" fill-rule="evenodd" stroke="url(#g0)" stroke-width="0.8"/>
<path d="M 147.74 23.33 L 148.24 23.33 L 148.24 21.14 A 20.24 10.12 180.00 0 0 128.81 11.03 A 20.24 10.12 180.00 0 0 107.83 20.32 A 20.24 10.12 180.00 0 0 107.76 21.14 L 107.76 23.33 L 108.27 23.33 A 20.24 10.12 180.00 0 0 109.86 25.63 L 109.86 25.73 L 109.98 25.73 A 20.24 10.12 180.00 0 0 111.06 26.66 L 111.06 27.53 L 111.36 27.53 L 111.45 27.52 L 111.54 27.51 L 111.62 27.49 L 111.71 27.46 L 111.79 27.42 L 111.86 27.38 L 111.94 27.32 L 111.96 27.30 A 20.24 10.12 180.00 0 0 139.31 29.52 A 20.24 10.12 180.00 0 0 147.74 23.33 Z" fill="url(#g1)" fill-rule="evenodd" stroke="url(#g1)" stroke-width="0.8"/>
<path d="M 98.99 43.09 L 99.04 43.07 L 99.12 43.04 L 99.21 43.01 L 99.22 43.01 L 99.21 43.03 L 99.18 43.11 L 99.16 43.20 L 99.15 43.28 L 99.14 43.36 A 30.35 15.18 180.00 0 0 101.90 46.39 L 101.90 46.39 A 30.35 15.18 180.00 0 0 142.49 51.99 A 30.35 15.18 180.00 0 0 158.13 36.82 L 158.35 37.74 L 158.35 21.14 A 30.35 15.18 180.00 0 1 128.21 36.30 A 30.35 15.18 180.00 0 1 97.70 21.77 A 30.35 15.18 180.00 0 1 97.64 21.14 L 97.64 37.74 L 97.87 36.82 A 30.35 15.18 180.00 0 0 98.99 43.09 Z" fill="url(#g2)" fill-rule="evenodd" stroke="url(#g2)" stroke-width="0.8"/>
<path d="M 101.18 45.77 L 101.16 45.79 L 101.08 45.84 L 101.01 45.89 L 100.93 45.93 L 100.84 45.96 L 100.76 45.98 L 100.69 45.99 L 100.61 45.92 L 100.60 45.91 L 100.36 45.67 L 100.35 45.66 L 100.13 45.42 L 100.12 45.41 L 99.90 45.18 L 99.89 45.16 L 99.68 44.92 L 99.67 44.91 L 99.47 44.67 L 99.46 44.66 L 99.27 44.41 L 99.26 44.40 L 99.08 44.16 L 99.07 44.14 L 98.89 43.90 L 98.88 43.88 L 98.72 43.63 L 98.71 43.62 L 98.60 43.45 L 98.64 43.40 L 98.69 43.33 L 98.75 43.26 L 98.81 43.20 L 98.88 43.15 L 98.96 43.10 A 30.35 15.18 180.00 0 1 97.87 36.82 L 77.78 118.83 A 50.59 25.30 -180.00 0 0 121.43 146.99 A 50.59 25.30 -180.00 0 0 178.11 125.40 A 50.59 25.30 -180.00 0 0 178.22 118.83 L 158.13 36.82 A 30.35 15.18 180.00 0 1 131.94 53.71 A 30.35 15.18 180.00 0 1 101.18 45.77 Z" fill="url(#g3)" fill-rule="evenodd" stroke="url(#g3)" stroke-width="0.8"/>
<path d="M 156.12 26.86 A 30.35 15.18 180.00 0 0 141.51 7.55 A 30.35 15.18 180.00 0 0 101.90 13.39 A 30.35 15.18 180.00 0 0 110.59 33.57 A 30.35 15.18 180.00 0 0 151.49 30.75 A 30.35 15.18 180.00 0 0 156.12 26.86 Z M 111.96 27.30 L 111.94 27.32 L 111.86 27.38 L 111.79 27.42 L 111.71 27.46 L 111.62 27.49 L 111.54 27.51 L 111.45 27.52 L 111.36 27.53 L 111.06 27.53 L 111.06 26.66 A 20.24 10.12 180.00 0 1 109.98 25.73 L 109.86 25.73 L 109.86 25.63 A 20.24 10.12 180.00 0 1 108.27 23.33 L 107.76 23.33 L 107.76 21.14 A 20.24 10.12 180.00 0 1 127.41 11.03 A 20.24 10.12 180.00 0 1 148.21 20.81 A 20.24 10.12 180.00 0 1 148.24 21.14 L 148.24 23.33 L 147.74 23.33 A 20.24 10.12 180.00 0 1 123.74 31.03 A 20.24 10.12 180.00 0 1 111.96 27.30 Z" fill="#ffff48" fill-rule="evenodd" stroke="#ffff48" stroke-width="0.8"/>
</g>
<defs><clipPath id="sclip"><path d="M 76.47 122.73 L 76.48 123.32 L 76.66 124.28 L 76.75 124.96 L 76.85 125.29 L 76.93 125.67 L 77.40 126.96 L 77.40 126.96 L 77.62 127.62 L 77.71 127.79 L 77.78 127.98 L 78.92 130.05 L 78.99 130.18 L 79.04 130.25 L 80.61 132.38 L 80.76 132.54 L 80.87 132.68 L 81.46 133.28 L 82.57 134.44 L 82.94 134.76 L 83.21 135.03 L 83.90 135.58 L 84.86 136.40 L 85.50 136.85 L 85.97 137.23 L 86.53 137.59 L 86.53 143.86 L 86.60 144.72 L 86.61 145.20 L 86.65 145.38 L 86.67 145.61 L 86.68 145.65 L 86.68 145.69 L 86.83 146.26 L 87.09 147.33 L 87.12 147.43 L 87.14 147.47 L 87.16 147.56 L 87.43 148.19 L 87.80 149.10 L 87.88 149.24 L 87.94 149.38 L 87.99 149.45 L 88.02 149.52 L 88.31 149.97 L 88.78 150.78 L 88.91 150.96 L 89.02 151.13 L 89.20 151.36 L 89.34 151.58 L 89.64 151.92 L 90.00 152.40 L 90.21 152.61 L 90.38 152.82 L 90.77 153.21 L 91.04 153.53 L 91.25 153.71 L 91.47 153.94 L 91.76 154.19 L 92.00 154.43 L 92.56 154.89 L 92.89 155.17 L 93.11 155.37 L 93.14 155.39 L 93.17 155.41 L 93.54 155.68 L 93.87 155.95 L 94.46 156.35 L 95.09 156.81 L 95.33 156.95 L 95.50 157.08 L 95.74 157.21 L 95.98 157.38 L 96.58 157.72 L 97.21 158.11 L 97.83 158.43 L 97.83 158.43 L 97.84 158.43 L 98.21 158.65 L 98.26 158.68 L 98.31 158.70 L 98.91 158.99 L 99.53 159.31 L 100.24 159.63 L 100.86 159.92 L 101.06 160.00 L 101.20 160.07 L 101.56 160.21 L 102.03 160.42 L 102.85 160.73 L 103.58 161.02 L 104.09 161.19 L 104.45 161.34 L 104.55 161.37 L 104.68 161.42 L 105.64 161.72 L 106.49 162.00 L 106.98 162.14 L 107.49 162.30 L 107.73 162.37 L 107.93 162.43 L 108.65 162.61 L 109.53 162.85 L 109.97 162.95 L 110.42 163.07 L 111.09 163.22 L 111.60 163.34 L 112.11 163.44 L 112.71 163.57 L 113.09 163.64 L 113.46 163.72 L 114.68 163.92 L 115.43 164.06 L 115.69 164.10 L 116.00 164.15 L 116.30 164.19 L 116.59 164.24 L 118.19 164.44 L 119.37 164.59 L 119.41 164.60 L 119.57 164.61 L 119.58 164.61 L 119.80 164.64 L 121.73 164.80 L 122.80 164.89 L 122.91 164.89 L 123.06 164.90 L 123.26 164.91 L 123.41 164.92 L 124.10 164.94 L 125.59 165.00 L 126.26 165.03 L 126.30 165.03 L 126.35 165.04 L 127.00 165.04 L 127.49 165.05 L 128.30 165.04 L 129.65 165.04 L 129.70 165.03 L 129.74 165.03 L 130.33 165.01 L 130.84 164.99 L 131.57 164.97 L 132.12 164.94 L 132.94 164.90 L 133.09 164.89 L 133.21 164.89 L 134.22 164.80 L 134.84 164.75 L 135.62 164.69 L 135.87 164.66 L 136.20 164.64 L 136.41 164.61 L 136.63 164.59 L 137.81 164.44 L 139.40 164.24 L 139.50 164.23 L 139.59 164.22 L 139.78 164.18 L 140.00 164.15 L 141.13 163.96 L 142.54 163.72 L 142.92 163.64 L 143.29 163.57 L 143.37 163.56 L 143.45 163.54 L 144.10 163.39 L 144.31 163.34 L 145.58 163.07 L 146.03 162.96 L 146.47 162.85 L 146.84 162.75 L 147.17 162.67 L 147.72 162.51 L 148.51 162.30 L 149.01 162.14 L 149.51 162.00 L 150.17 161.78 L 150.70 161.63 L 150.97 161.52 L 151.32 161.42 L 151.87 161.21 L 152.41 161.02 L 153.15 160.73 L 153.98 160.41 L 153.99 160.41 L 154.00 160.41 L 154.17 160.33 L 154.58 160.15 L 155.14 159.92 L 155.76 159.63 L 156.47 159.31 L 156.79 159.15 L 157.07 159.02 L 157.34 158.87 L 157.68 158.71 L 158.19 158.41 L 158.79 158.11 L 159.40 157.73 L 159.85 157.48 L 159.92 157.43 L 160.02 157.38 L 160.42 157.11 L 160.91 156.81 L 161.53 156.35 L 162.13 155.95 L 162.23 155.87 L 162.32 155.81 L 162.54 155.62 L 162.83 155.41 L 163.44 154.89 L 164.00 154.43 L 164.24 154.20 L 164.47 154.00 L 164.50 153.97 L 164.53 153.94 L 165.11 153.33 L 165.62 152.82 L 165.79 152.61 L 166.00 152.40 L 166.13 152.22 L 166.27 152.07 L 166.55 151.67 L 166.98 151.13 L 167.09 150.96 L 167.22 150.78 L 167.47 150.36 L 167.69 150.05 L 167.84 149.74 L 168.06 149.38 L 168.12 149.24 L 168.20 149.10 L 168.49 148.37 L 168.71 147.93 L 168.75 147.76 L 168.84 147.56 L 168.87 147.47 L 168.90 147.37 L 169.18 146.25 L 169.23 146.04 L 169.31 145.74 L 169.31 145.72 L 169.31 145.72 L 169.32 145.66 L 169.33 145.60 L 169.47 143.86 L 169.47 137.60 L 169.99 137.21 L 171.14 136.40 L 171.67 135.95 L 172.14 135.59 L 172.66 135.10 L 173.43 134.44 L 174.07 133.77 L 174.59 133.28 L 174.91 132.88 L 175.38 132.38 L 176.07 131.45 L 176.57 130.84 L 176.75 130.55 L 176.99 130.22 L 177.70 128.93 L 178.09 128.28 L 178.14 128.13 L 178.22 127.98 L 179.07 125.68 L 179.07 125.65 L 179.09 125.62 L 179.13 125.35 L 179.52 123.32 L 179.53 123.12 L 179.56 122.93 L 179.54 122.21 L 179.56 120.95 L 179.50 120.56 L 179.49 120.21 L 179.34 119.54 L 179.20 118.64 L 159.35 37.62 L 159.35 21.10 L 159.35 21.03 L 159.36 20.93 L 159.31 20.56 L 159.29 20.30 L 159.26 19.84 L 159.25 19.80 L 159.25 19.76 L 159.17 19.46 L 159.15 19.22 L 159.03 18.88 L 158.92 18.39 L 158.71 17.89 L 158.60 17.55 L 158.48 17.34 L 158.37 17.07 L 158.34 17.02 L 158.33 16.97 L 158.08 16.56 L 157.90 16.25 L 157.74 15.94 L 157.68 15.87 L 157.63 15.78 L 157.56 15.68 L 157.51 15.60 L 157.17 15.18 L 156.69 14.54 L 156.63 14.48 L 156.58 14.41 L 156.52 14.35 L 156.47 14.29 L 156.08 13.90 L 155.57 13.36 L 155.38 13.20 L 155.23 13.04 L 155.18 13.01 L 155.14 12.97 L 154.81 12.70 L 154.79 12.69 L 154.79 12.69 L 154.28 12.24 L 154.02 12.05 L 153.79 11.87 L 153.60 11.74 L 153.45 11.62 L 153.17 11.44 L 152.82 11.19 L 152.47 10.97 L 152.18 10.77 L 151.79 10.55 L 151.51 10.37 L 151.38 10.30 L 151.21 10.20 L 150.77 9.97 L 150.38 9.75 L 149.93 9.54 L 149.46 9.29 L 149.41 9.27 L 149.35 9.24 L 148.99 9.08 L 148.92 9.05 L 148.44 8.82 L 148.03 8.66 L 147.58 8.46 L 147.23 8.33 L 146.99 8.22 L 146.69 8.12 L 146.35 7.98 L 145.97 7.85 L 145.57 7.70 L 144.89 7.49 L 144.45 7.33 L 144.30 7.29 L 144.12 7.23 L 143.79 7.14 L 143.46 7.03 L 142.55 6.80 L 141.78 6.58 L 141.78 6.58 L 141.76 6.58 L 141.55 6.53 L 141.53 6.53 L 141.24 6.45 L 140.15 6.22 L 139.36 6.04 L 139.15 6.01 L 138.99 5.97 L 138.98 5.97 L 138.93 5.96 L 138.64 5.91 L 137.73 5.76 L 136.84 5.61 L 136.70 5.59 L 136.59 5.57 L 136.27 5.53 L 135.99 5.49 L 135.33 5.42 L 135.04 5.38 L 134.26 5.28 L 134.21 5.28 L 134.17 5.27 L 133.47 5.22 L 132.98 5.16 L 132.46 5.13 L 131.72 5.07 L 131.69 5.07 L 131.64 5.07 L 130.79 5.04 L 130.56 5.03 L 129.92 4.99 L 129.62 4.99 L 129.24 4.97 L 129.13 4.97 L 129.00 4.97 L 128.04 4.97 L 127.19 4.97 L 126.85 4.97 L 126.80 4.97 L 126.76 4.97 L 126.56 4.98 L 126.34 4.98 L 125.46 5.03 L 124.28 5.07 L 124.00 5.10 L 123.78 5.11 L 123.73 5.11 L 123.70 5.11 L 122.91 5.18 L 121.83 5.27 L 121.44 5.32 L 121.09 5.35 L 120.91 5.38 L 120.75 5.39 L 120.21 5.47 L 119.41 5.57 L 118.97 5.64 L 118.52 5.71 L 118.14 5.78 L 117.80 5.83 L 117.47 5.90 L 117.05 5.96 L 116.53 6.08 L 116.03 6.17 L 115.45 6.30 L 114.94 6.41 L 114.85 6.43 L 114.76 6.45 L 114.16 6.61 L 113.62 6.74 L 113.12 6.88 L 112.55 7.03 L 112.38 7.09 L 112.21 7.13 L 111.80 7.27 L 111.31 7.41 L 110.90 7.55 L 110.43 7.70 L 109.98 7.87 L 109.63 7.99 L 109.41 8.08 L 109.12 8.18 L 108.79 8.32 L 108.42 8.46 L 107.69 8.78 L 107.22 8.97 L 107.15 9.01 L 107.06 9.05 L 106.81 9.17 L 106.54 9.29 L 105.79 9.68 L 105.15 10.00 L 105.07 10.05 L 105.01 10.08 L 104.92 10.14 L 104.79 10.20 L 103.97 10.70 L 103.41 11.04 L 103.30 11.11 L 103.18 11.19 L 103.09 11.25 L 103.02 11.30 L 102.70 11.54 L 102.31 11.82 L 101.83 12.16 L 101.78 12.20 L 101.73 12.24 L 101.47 12.46 L 101.26 12.62 L 100.95 12.91 L 100.58 13.23 L 100.47 13.33 L 100.42 13.37 L 100.04 13.77 L 99.75 14.04 L 99.58 14.26 L 99.31 14.54 L 99.29 14.57 L 99.25 14.61 L 98.99 14.97 L 98.78 15.24 L 98.53 15.55 L 98.47 15.65 L 98.37 15.78 L 98.32 15.87 L 98.27 15.94 L 98.03 16.36 L 97.62 17.07 L 97.61 17.10 L 97.59 17.14 L 97.55 17.23 L 97.51 17.32 L 97.34 17.78 L 97.08 18.40 L 97.04 18.58 L 96.98 18.75 L 96.97 18.76 L 96.96 18.80 L 96.91 19.07 L 96.89 19.21 L 96.75 19.76 L 96.73 19.99 L 96.69 20.22 L 96.69 20.36 L 96.67 20.50 L 96.67 20.77 L 96.64 21.10 L 96.64 37.62 L 76.80 118.64 L 76.73 119.10 L 76.61 119.53 L 76.56 120.15 L 76.44 120.95 L 76.45 121.68 L 76.41 122.25 Z" clip-rule="evenodd"/></clipPath></defs>
<g stroke="black" fill="none" stroke-linecap="round" clip-path="url(#sclip)">
<path d="M 87.53 137.06 L 87.53 143.82 A 40.47 20.24 180.00 0 0 127.50 164.05 A 40.47 20.24 180.00 0 0 168.34 145.44 A 40.47 20.24 180.00 0 0 168.47 143.82 L 168.47 137.07 A 50.59 25.30 -180.00 0 0 178.22 118.83 L 158.35 37.74 L 158.35 21.14 A 30.35 15.18 180.00 0 0 128.05 5.97 A 30.35 15.18 180.00 0 0 97.67 20.80 A 30.35 15.18 180.00 0 0 97.64 21.14 L 97.64 37.74 L 77.78 118.83 A 50.59 25.30 -180.00 0 0 87.53 137.06 Z" stroke-width="2.00" stroke-linejoin="miter" stroke-miterlimit="5"/>
<path d="M 168.47 143.82 A 40.47 20.24 180.00 0 1 128.00 164.05 A 40.47 20.24 180.00 0 1 87.53 143.82" stroke-width="2.00"/>
<path d="M 178.22 118.83 A 50.59 25.30 -180.00 0 1 155.05 143.28 A 50.59 25.30 -180.00 0 1 100.95 143.28 A 50.59 25.30 -180.00 0 1 77.78 118.83" stroke-width="2.00"/>
<path d="M 158.35 38.66 A 30.35 15.18 180.00 0 1 128.00 53.84 A 30.35 15.18 180.00 0 1 97.65 38.66" stroke-width="2.00"/>
<path d="M 142.31 28.29 A 20.24 10.12 180.00 0 0 142.31 13.98 A 20.24 10.12 180.00 0 0 113.69 13.98 A 20.24 10.12 180.00 0 0 113.69 28.29 A 20.24 10.12 180.00 0 0 142.31 28.29" stroke-width="2.00"/>
<path d="M 149.46 31.87 A 30.35 15.18 180.00 0 0 149.46 10.41 A 30.35 15.18 180.00 0 0 106.54 10.41 A 30.35 15.18 180.00 0 0 106.54 31.87 A 30.35 15.18 180.00 0 0 149.46 31.87" stroke-width="2.00"/>
<line x1="168.47" y1="137.20" x2="168.47" y2="143.82" stroke-width="2.00"/>
<line x1="87.53" y1="137.20" x2="87.53" y2="143.82" stroke-width="2.00"/>
<line x1="158.35" y1="21.14" x2="158.35" y2="38.66" stroke-width="2.00"/>
<line x1="97.65" y1="21.14" x2="97.65" y2="38.66" stroke-width="2.00"/>
<line x1="158.39" y1="37.88" x2="178.22" y2="118.83" stroke-width="2.00"/>
<line x1="77.78" y1="118.83" x2="97.61" y2="37.88" stroke-width="2.00"/>
</g>
</svg>