<svg xmlns="http://www.w3.org/2000/svg" viewBox="0 0 256 170" preserveAspectRatio="xMidYMid meet">
<defs><linearGradient id="g1" gradientUnits="userSpaceOnUse" x1="79.20" y1="82.02" x2="176.80" y2="82.02"><stop offset="0.0%" stop-color="#844f0f"/><stop offset="3.8%" stop-color="#844f0f"/><stop offset="14.6%" stop-color="#844f0f"/><stop offset="30.9%" stop-color="#8a5210"/><stop offset="50.0%" stop-color="#b46c15"/><stop offset="69.1%" stop-color="#d88119"/><stop offset="85.4%" stop-color="#ef8e1c"/><stop offset="96.2%" stop-color="#f5921d"/><stop offset="100.0%" stop-color="#ea8c1b"/></linearGradient><linearGradient id="g2" gradientUnits="userSpaceOnUse" x1="91.40" y1="82.02" x2="164.60" y2="82.02"><stop offset="0.0%" stop-color="#844f0f"/><stop offset="3.8%" stop-color="#844f0f"/><stop offset="14.6%" stop-color="#844f0f"/><stop offset="30.9%" stop-color="#8a5210"/><stop offset="50.0%" stop-color="#b46c15"/><stop offset="69.1%" stop-color="#d88119"/><stop offset="85.4%" stop-color="#ef8e1c"/><stop offset="96.2%" stop-color="#f5921d"/><stop offset="100.0%" stop-color="#ea8c1b"/></linearGradient><linearGradient id="g3" gradientUnits="userSpaceOnUse" x1="164.60" y1="82.02" x2="91.40" y2="82.02"><stop offset="0.0%" stop-color="#844f0f"/><stop offset="3.8%" stop-color="#844f0f"/><stop offset="14.6%" stop-color="#844f0f"/><stop offset="30.9%" stop-color="#8a5210"/><stop offset="50.0%" stop-color="#b46c15"/><stop offset="69.1%" stop-color="#d88119"/><stop offset="85.4%" stop-color="#ef8e1c"/><stop offset="96.2%" stop-color="#f5921d"/><stop offset="100.0%" stop-color="#ea8c1b"/></linearGradient><linearGradient id="g5" gradientUnits="userSpaceOnUse" x1="176.80" y1="82.02" x2="79.20" y2="82.02"><stop offset="0.0%" stop-color="#844f0f"/><stop offset="3.8%" stop-color="#844f0f"/><stop offset="14.6%" stop-color="#844f0f"/><stop offset="30.9%" stop-color="#8a5210"/><stop offset="50.0%" stop-color="#b46c15"/><stop offset="69.1%" stop-color="#d88119"/><stop offset="85.4%" stop-color="#ef8e1c"/><stop offset="96.2%" stop-color="#f5921d"/><stop offset="100.0%" stop-color="#ea8c1b"/></linearGradient><linearGradient id="g6" gradientUnits="userSpaceOnUse" x1="250.00" y1="89.68" x2="6.00" y2="89.68"><stop offset="0.0%" stop-color="#ea8c1b"/><stop offset="3.8%" stop-color="#f5921d"/><stop offset="14.6%" stop-color="#ef8e1c"/><stop offset="30.9%" stop-color="#d88119"/><stop offset="50.0%" stop-color="#b46c15"/><stop offset="69.1%" stop-color="#8a5210"/><stop offset="85.4%" stop-color="#844f0f"/><stop offset="96.2%" stop-color="#844f0f"/><stop offset="100.0%" stop-color="#844f0f"/></linearGradient><linearGradient id="g7" gradientUnits="userSpaceOnUse" x1="179.76" y1="102.09" x2="179.76" y2="102.09"><stop offset="0.0%" stop-color="#844f0f"/><stop offset="0.0%" stop-color="#844f0f"/><stop offset="0.0%" stop-color="#844f0f"/><stop offset="-0.0%" stop-color="#844f0f"/><stop offset="-0.0%" stop-color="#844f0f"/><stop offset="-0.0%" stop-color="#844f0f"/><stop offset="0.0%" stop-color="#844f0f"/><stop offset="0.0%" stop-color="#844f0f"/><stop offset="0.0%" stop-color="#844f0f"/></linearGradient><linearGradient id="g8" gradientUnits="userSpaceOnUse" x1="205.64" y1="129.03" x2="205.64" y2="129.03"><stop offset="0.0%" stop-color="#844f0f"/><stop offset="0.0%" stop-color="#844f0f"/><stop offset="0.0%" stop-color="#844f0f"/><stop offset="-0.0%" stop-color="#844f0f"/><stop offset="-0.0%" stop-color="#844f0f"/><stop offset="-0.0%" stop-color="#844f0f"/><stop offset="0.0%" stop-color="#844f0f"/><stop offset="0.0%" stop-color="#844f0f"/><stop offset="0.0%" stop-color="#844f0f"/></linearGradient><linearGradient id="g9" gradientUnits="userSpaceOnUse" x1="6.00" y1="89.68" x2="250.00" y2="89.68"><stop offset="0.0%" stop-color="#ea8c1b"/><stop offset="3.8%" stop-color="#f5921d"/><stop offset="14.6%" stop-color="#ef8e1c"/><stop offset="30.9%" stop-color="#d88119"/><stop offset="50.0%" stop-color="#b46c15"/><stop offset="69.1%" stop-color="#8a5210"/><stop offset="85.4%" stop-color="#844f0f"/><stop offset="96.2%" stop-color="#844f0f"/><stop offset="100.0%" stop-color="#844f0f"/></linearGradient><linearGradient id="g10" gradientUnits="userSpaceOnUse" x1="164.60" y1="43.19" x2="91.40" y2="43.19"><stop offset="0.0%" stop-color="#ea8c1b"/><stop offset="3.8%" stop-color="#f5921d"/><stop offset="14.6%" stop-color="#ef8e1c"/><stop offset="30.9%" stop-color="#d88119"/><stop offset="50.0%" stop-color="#b46c15"/><stop offset="69.1%" stop-color="#8a5210"/><stop offset="85.4%" stop-color="#844f0f"/><stop offset="96.2%" stop-color="#844f0f"/><stop offset="100.0%" stop-color="#844f0f"/></linearGradient><linearGradient id="g11" gradientUnits="userSpaceOnUse" x1="205.64" y1="116.09" x2="205.64" y2="116.09"><stop offset="0.0%" stop-color="#844f0f"/><stop offset="0.0%" stop-color="#844f0f"/><stop offset="0.0%" stop-color="#844f0f"/><stop offset="-0.0%" stop-color="#844f0f"/><stop offset="-0.0%" stop-color="#844f0f"/><stop offset="-0.0%" stop-color="#844f0f"/><stop offset="0.0%" stop-color="#844f0f"/><stop offset="0.0%" stop-color="#844f0f"/><stop offset="0.0%" stop-color="#844f0f"/></linearGradient><linearGradient id="g12" gradientUnits="userSpaceOnUse" x1="152.40" y1="50.32" x2="103.60" y2="50.32"><stop offset="0.0%" stop-color="#ea8c1b"/><stop offset="3.8%" stop-color="#f5921d"/><stop offset="14.6%" stop-color="#ef8e1c"/><stop offset="30.9%" stop-color="#d88119"/><stop offset="50.0%" stop-color="#b46c15"/><stop offset="69.1%" stop-color="#8a5210"/><stop offset="85.4%" stop-color="#844f0f"/><stop offset="96.2%" stop-color="#844f0f"/><stop offset="100.0%" stop-color="#844f0f"/></linearGradient><linearGradient id="g13" gradientUnits="userSpaceOnUse" x1="103.60" y1="50.32" x2="152.40" y2="50.32"><stop offset="0.0%" stop-color="#ea8c1b"/><stop offset="3.8%" stop-color="#f5921d"/><stop offset="14.6%" stop-color="#ef8e1c"/><stop offset="30.9%" stop-color="#d88119"/><stop offset="50.0%" stop-color="#b46c15"/><stop offset="69.1%" stop-color="#8a5210"/><stop offset="85.4%" stop-color="#844f0f"/><stop offset="96.2%" stop-color="#844f0f"/><stop offset="100.0%" stop-color="#844f0f"/></linearGradient><linearGradient id="g14" gradientUnits="userSpaceOnUse" x1="166.82" y1="77.66" x2="166.82" y2="77.66"><stop offset="0.0%" stop-color="#844f0f"/><stop offset="0.0%" stop-color="#844f0f"/><stop offset="0.0%" stop-color="#844f0f"/><stop offset="0.0%" stop-color="#844f0f"/><stop offset="0.0%" stop-color="#844f0f"/><stop offset="0.0%" stop-color="#844f0f"/><stop offset="100.0%" stop-color="#844f0f"/><stop offset="100.0%" stop-color="#844f0f"/><stop offset="100.0%" stop-color="#844f0f"/></linearGradient><linearGradient id="g15" gradientUnits="userSpaceOnUse" x1="188.39" y1="97.16" x2="188.39" y2="97.16"><stop offset="0.0%" stop-color="#844f0f"/><stop offset="0.0%" stop-color="#844f0f"/><stop offset="100.0%" stop-color="#844f0f"/><stop offset="100.0%" stop-color="#844f0f"/><stop offset="100.0%" stop-color="#844f0f"/><stop offset="100.0%" stop-color="#844f0f"/><stop offset="100.0%" stop-color="#844f0f"/><stop offset="100.0%" stop-color="#844f0f"/><stop offset="100.0%" stop-color="#844f0f"/></linearGradient><linearGradient id="g16" gradientUnits="userSpaceOnUse" x1="91.40" y1="43.19" x2="164.60" y2="43.19"><stop offset="0.0%" stop-color="#ea8c1b"/><stop offset="3.8%" stop-color="#f5921d"/><stop offset="14.6%" stop-color="#ef8e1c"/><stop offset="30.9%" stop-color="#d88119"/><stop offset="50.0%" stop-color="#b46c15"/><stop offset="69.1%" stop-color="#8a5210"/><stop offset="85.4%" stop-color="#844f0f"/><stop offset="96.2%" stop-color="#844f0f"/><stop offset="100.0%" stop-color="#844f0f"/></linearGradient></defs>
<g stroke-linejoin="round">
<path d="M 165.77 111.47 A 48.80 24.40 180.00 0 0 161.64 78.34 A 48.80 24.40 180.00 0 0 95.26 77.93 A 48.80 24.40 180.00 0 0 89.47 110.99 A 48.80 24.40 180.00 0 0 154.99 116.35 A 48.80 24.40 180.00 0 0 165.77 111.47 Z M 151.18 110.18 A 36.60 18.30 180.00 0 1 101.48 108.63 A 36.60 18.30 180.00 0 1 100.86 83.74 A 36.60 18.30 180.00 0 1 150.46 81.57 A 36.60 18.30 180.00 0 1 158.50 106.14 A 36.60 18.30 180.00 0 1 151.18 110.18 Z" fill="#ffba24" fill-rule="evenodd" stroke="#ffba24" stroke-width="0.8" opacity="0.55"/>
<path d="M 79.20 96.02 A 48.80 24.40 180.00 0 1 126.03 71.64 A 48.80 24.40 180.00 0 1 176.64 94.06 A 48.80 24.40 180.00 0 1 176.80 96.02 L 176.80 68.02 A 48.80 24.40 180.00 0 0 129.97 43.64 A 48.80 24.40 180.00 0 0 79.36 66.06 A 48.80 24.40 180.00 0 0 79.20 68.02 L 79.20 96.02 Z" fill="url(#g1)" fill-rule="evenodd" stroke="url(#g1)" stroke-width="0.8" opacity="0.55"/>
<path d="M 91.40 96.02 A 36.60 18.30 180.00 0 1 126.53 77.73 A 36.60 18.30 180.00 0 1 164.48 94.55 A 36.60 18.30 180.00 0 1 164.60 96.02 L 164.60 68.02 A 36.60 18.30 180.00 0 0 129.47 49.74 A 36.60 18.30 180.00 0 0 91.52 66.55 A 36.60 18.30 180.00 0 0 91.40 68.02 L 91.40 96.02 Z" fill="url(#g2)" fill-rule="evenodd" stroke="url(#g2)" stroke-width="0.8" opacity="0.55"/>
<path d="M 91.40 68.02 L 91.40 96.02 A 36.60 18.30 180.00 0 0 126.53 114.31 A 36.60 18.30 180.00 0 0 164.48 97.49 A 36.60 18.30 180.00 0 0 164.60 96.02 L 164.60 68.02 A 36.60 18.30 180.00 0 1 129.47 86.31 A 36.60 18.30 180.00 0 1 91.52 69.49 A 36.60 18.30 180.00 0 1 91.40 68.02 Z" fill="url(#g3)" fill-rule="evenodd" stroke="url(#g3)" stroke-width="0.8" opacity="0.55"/>
<path d="M 156.33 79.61 A 36.60 18.30 180.00 0 0 153.23 54.76 A 36.60 18.30 180.00 0 0 103.44 54.45 A 36.60 18.30 180.00 0 0 99.10 79.25 A 36.60 18.30 180.00 0 0 148.24 83.27 A 36.60 18.30 180.00 0 0 156.33 79.61 Z M 143.45 77.46 A 24.40 12.20 180.00 0 1 110.32 76.43 A 24.40 12.20 180.00 0 1 109.91 59.84 A 24.40 12.20 180.00 0 1 142.97 58.39 A 24.40 12.20 180.00 0 1 148.33 74.77 A 24.40 12.20 180.00 0 1 143.45 77.46 Z" fill="#ffba24" fill-rule="evenodd" stroke="#ffba24" stroke-width="0.8" opacity="0.55"/>
<path d="M 79.20 68.02 L 79.20 96.02 A 48.80 24.40 180.00 0 0 126.03 120.40 A 48.80 24.40 180.00 0 0 176.64 97.98 A 48.80 24.40 180.00 0 0 176.80 96.02 L 176.80 68.02 A 48.80 24.40 180.00 0 1 129.97 92.40 A 48.80 24.40 180.00 0 1 79.36 69.98 A 48.80 24.40 180.00 0 1 79.20 68.02 Z" fill="url(#g5)" fill-rule="evenodd" stroke="url(#g5)" stroke-width="0.8" opacity="0.55"/>
<path d="M 250.00 83.34 A 122.00 61.00 -180.00 0 0 132.91 22.39 A 122.00 61.00 -180.00 0 0 6.40 78.43 A 122.00 61.00 -180.00 0 0 6.00 83.34 L 6.00 96.02 A 122.00 61.00 180.00 0 1 123.09 35.07 A 122.00 61.00 180.00 0 1 249.60 91.11 A 122.00 61.00 180.00 0 1 250.00 96.02 L 250.00 83.34 Z" fill="url(#g6)" fill-rule="evenodd" stroke="url(#g6)" stroke-width="0.8" opacity="0.55"/>
<path d="M 202.34 116.02 A 97.60 48.80 -180.00 0 0 194.18 48.53 A 97.60 48.80 -180.00 0 0 58.99 49.89 A 97.60 48.80 -180.00 0 0 56.26 117.49 A 97.60 48.80 -180.00 0 0 191.24 121.57 A 97.60 48.80 -180.00 0 0 202.34 116.02 Z M 159.62 86.61 A 48.80 24.40 180.00 0 1 92.13 84.57 A 48.80 24.40 180.00 0 1 93.49 50.77 A 48.80 24.40 180.00 0 1 161.09 50.09 A 48.80 24.40 180.00 0 1 165.17 83.83 A 48.80 24.40 180.00 0 1 159.62 86.61 Z" fill="url(#g7)" fill-rule="evenodd" stroke="url(#g7)" stroke-width="0.8" opacity="0.55"/>
<path d="M 220.93 135.54 A 122.00 61.00 180.00 0 0 210.72 51.19 A 122.00 61.00 180.00 0 0 41.73 52.89 A 122.00 61.00 180.00 0 0 38.33 137.38 A 122.00 61.00 180.00 0 0 207.05 142.49 A 122.00 61.00 180.00 0 0 220.93 135.54 Z M 191.24 121.57 A 97.60 48.80 -180.00 0 1 56.26 117.49 A 97.60 48.80 -180.00 0 1 58.99 49.89 A 97.60 48.80 -180.00 0 1 194.18 48.53 A 97.60 48.80 -180.00 0 1 202.34 116.02 A 97.60 48.80 -180.00 0 1 191.24 121.57 Z" fill="url(#g8)" fill-rule="evenodd" stroke="url(#g8)" stroke-width="0.8" opacity="0.55"/>
<path d="M 250.00 96.02 L 250.00 83.34 A 122.00 61.00 -180.00 0 1 132.91 144.29 A 122.00 61.00 -180.00 0 1 6.40 88.25 A 122.00 61.00 -180.00 0 1 6.00 83.34 L 6.00 96.02 A 122.00 61.00 180.00 0 0 123.09 156.97 A 122.00 61.00 180.00 0 0 249.60 100.93 A 122.00 61.00 180.00 0 0 250.00 96.02 Z" fill="url(#g9)" fill-rule="evenodd" stroke="url(#g9)" stroke-width="0.8" opacity="0.55"/>
<path d="M 164.60 32.63 A 36.60 18.30 -180.00 0 0 129.47 14.34 A 36.60 18.30 -180.00 0 0 91.52 31.16 A 36.60 18.30 -180.00 0 0 91.40 32.63 L 91.40 53.76 A 36.60 18.30 180.00 0 1 126.53 35.47 A 36.60 18.30 180.00 0 1 164.48 52.29 A 36.60 18.30 180.00 0 1 164.60 53.76 L 164.60 32.63 Z" fill="url(#g10)" fill-rule="evenodd" stroke="url(#g10)" stroke-width="0.8" opacity="0.55"/>
<path d="M 220.93 122.86 A 122.00 61.00 -180.00 0 0 210.72 38.51 A 122.00 61.00 -180.00 0 0 41.73 40.21 A 122.00 61.00 -180.00 0 0 38.33 124.70 A 122.00 61.00 -180.00 0 0 207.05 129.81 A 122.00 61.00 -180.00 0 0 220.93 122.86 Z M 191.24 108.36 A 97.60 48.80 -180.00 0 1 56.26 104.28 A 97.60 48.80 -180.00 0 1 58.99 36.68 A 97.60 48.80 -180.00 0 1 194.18 35.32 A 97.60 48.80 -180.00 0 1 202.34 102.81 A 97.60 48.80 -180.00 0 1 191.24 108.36 Z" fill="url(#g11)" fill-rule="evenodd" stroke="url(#g11)" stroke-width="0.8" opacity="0.55"/>
<path d="M 152.40 32.63 A 24.40 12.20 -180.00 0 0 128.98 20.44 A 24.40 12.20 -180.00 0 0 103.68 31.64 A 24.40 12.20 -180.00 0 0 103.60 32.63 L 103.60 68.02 A 24.40 12.20 180.00 0 1 127.02 55.83 A 24.40 12.20 180.00 0 1 152.32 67.04 A 24.40 12.20 180.00 0 1 152.40 68.02 L 152.40 32.63 Z" fill="url(#g12)" fill-rule="evenodd" stroke="url(#g12)" stroke-width="0.8" opacity="0.55"/>
<path d="M 152.40 68.02 L 152.40 32.63 A 24.40 12.20 -180.00 0 1 128.98 44.82 A 24.40 12.20 -180.00 0 1 103.68 33.61 A 24.40 12.20 -180.00 0 1 103.60 32.63 L 103.60 68.02 A 24.40 12.20 180.00 0 0 127.02 80.21 A 24.40 12.20 180.00 0 0 152.32 69.00 A 24.40 12.20 180.00 0 0 152.40 68.02 Z" fill="url(#g13)" fill-rule="evenodd" stroke="url(#g13)" stroke-width="0.8" opacity="0.55"/>
<path d="M 183.76 86.45 A 73.20 36.60 180.00 0 0 177.63 35.84 A 73.20 36.60 180.00 0 0 76.24 36.86 A 73.20 36.60 180.00 0 0 74.20 87.56 A 73.20 36.60 180.00 0 0 175.43 90.62 A 73.20 36.60 180.00 0 0 183.76 86.45 Z M 151.71 67.70 A 36.60 18.30 180.00 0 1 101.10 66.17 A 36.60 18.30 180.00 0 1 102.12 40.82 A 36.60 18.30 180.00 0 1 152.82 40.31 A 36.60 18.30 180.00 0 1 155.88 65.61 A 36.60 18.30 180.00 0 1 151.71 67.70 Z" fill="url(#g14)" fill-rule="evenodd" stroke="url(#g14)" stroke-width="0.8" opacity="0.55"/>
<path d="M 202.34 102.81 A 97.60 48.80 -180.00 0 0 194.18 35.32 A 97.60 48.80 -180.00 0 0 58.99 36.68 A 97.60 48.80 -180.00 0 0 56.26 104.28 A 97.60 48.80 -180.00 0 0 191.24 108.36 A 97.60 48.80 -180.00 0 0 202.34 102.81 Z M 175.43 90.62 A 73.20 36.60 180.00 0 1 74.20 87.56 A 73.20 36.60 180.00 0 1 76.24 36.86 A 73.20 36.60 180.00 0 1 177.63 35.84 A 73.20 36.60 180.00 0 1 183.76 86.45 A 73.20 36.60 180.00 0 1 175.43 90.62 Z" fill="url(#g15)" fill-rule="evenodd" stroke="url(#g15)" stroke-width="0.8" opacity="0.55"/>
<path d="M 164.60 53.76 L 164.60 32.63 A 36.60 18.30 -180.00 0 1 129.47 50.91 A 36.60 18.30 -180.00 0 1 91.52 34.10 A 36.60 18.30 -180.00 0 1 91.40 32.63 L 91.40 53.76 A 36.60 18.30 180.00 0 0 126.53 72.04 A 36.60 18.30 180.00 0 0 164.48 55.23 A 36.60 18.30 180.00 0 0 164.60 53.76 Z" fill="url(#g16)" fill-rule="evenodd" stroke="url(#g16)" stroke-width="0.8" opacity="0.55"/>
<path d="M 156.33 44.22 A 36.60 18.30 -180.00 0 0 153.23 19.37 A 36.60 18.30 -180.00 0 0 103.44 19.06 A 36.60 18.30 -180.00 0 0 99.10 43.86 A 36.60 18.30 -180.00 0 0 148.24 47.88 A 36.60 18.30 -180.00 0 0 156.33 44.22 Z M 143.45 42.07 A 24.40 12.20 -180.00 0 1 110.32 41.04 A 24.40 12.20 -180.00 0 1 109.91 24.44 A 24.40 12.20 -180.00 0 1 142.97 23.00 A 24.40 12.20 -180.00 0 1 148.33 39.37 A 24.40 12.20 -180.00 0 1 143.45 42.07 Z" fill="#ffba24" fill-rule="evenodd" stroke="#ffba24" stroke-width="0.8" opacity="0.55"/>
</g>
<defs><clipPath id="sclip"><path d="M 159.96 23.72 L 159.92 23.68 L 159.59 23.41 L 159.52 23.36 L 158.93 22.85 L 158.63 22.62 L 158.38 22.42 L 158.15 22.26 L 157.98 22.13 L 157.67 21.93 L 157.26 21.63 L 156.87 21.39 L 156.51 21.15 L 156.07 20.90 L 155.74 20.69 L 155.58 20.60 L 155.40 20.49 L 154.87 20.22 L 154.43 19.97 L 153.93 19.73 L 153.35 19.43 L 153.27 19.39 L 153.23 19.37 L 152.93 19.24 L 152.70 19.14 L 152.16 18.88 L 151.67 18.68 L 151.15 18.45 L 150.74 18.30 L 150.46 18.18 L 150.12 18.06 L 149.70 17.89 L 149.25 17.74 L 148.79 17.57 L 148.00 17.32 L 147.47 17.13 L 147.29 17.08 L 147.09 17.01 L 146.71 16.91 L 146.30 16.78 L 145.18 16.49 L 144.34 16.25 L 144.31 16.25 L 144.29 16.24 L 144.05 16.19 L 144.03 16.18 L 144.03 16.18 L 143.69 16.09 L 142.39 15.82 L 141.46 15.61 L 141.23 15.57 L 140.98 15.52 L 140.96 15.51 L 140.95 15.51 L 140.86 15.50 L 139.44 15.26 L 138.48 15.09 L 138.33 15.07 L 138.18 15.05 L 137.78 15.00 L 137.47 14.95 L 136.74 14.87 L 136.33 14.82 L 135.43 14.71 L 135.37 14.70 L 135.32 14.70 L 134.48 14.63 L 133.91 14.57 L 133.29 14.53 L 132.41 14.46 L 132.38 14.46 L 132.32 14.46 L 131.43 14.42 L 131.02 14.40 L 130.28 14.36 L 129.94 14.36 L 129.47 14.34 L 129.31 14.34 L 129.18 14.34 L 128.25 14.34 L 126.95 14.34 L 126.63 14.34 L 126.58 14.34 L 126.53 14.34 L 126.26 14.35 L 126.03 14.35 L 125.03 14.40 L 123.59 14.46 L 123.26 14.49 L 123.00 14.50 L 122.95 14.50 L 122.90 14.51 L 121.92 14.60 L 120.68 14.70 L 120.23 14.75 L 119.80 14.79 L 119.59 14.82 L 119.41 14.84 L 118.78 14.93 L 117.82 15.05 L 117.27 15.14 L 116.77 15.21 L 116.30 15.30 L 115.91 15.35 L 115.55 15.43 L 115.02 15.52 L 114.38 15.65 L 113.81 15.76 L 113.10 15.93 L 113.02 15.94 L 112.53 16.04 L 112.44 16.07 L 112.31 16.09 L 111.61 16.28 L 110.96 16.43 L 110.37 16.60 L 109.70 16.78 L 109.49 16.84 L 109.31 16.89 L 108.82 17.05 L 108.24 17.22 L 107.77 17.39 L 107.21 17.57 L 106.68 17.77 L 106.27 17.90 L 106.00 18.01 L 105.67 18.13 L 105.28 18.29 L 104.85 18.45 L 103.99 18.84 L 103.44 19.06 L 103.36 19.10 L 103.26 19.14 L 102.97 19.29 L 102.65 19.43 L 101.72 19.91 L 101.03 20.26 L 100.95 20.31 L 100.86 20.35 L 100.75 20.42 L 100.61 20.49 L 99.67 21.06 L 99.00 21.46 L 98.88 21.55 L 98.74 21.63 L 98.64 21.70 L 98.55 21.76 L 98.21 22.02 L 97.70 22.39 L 97.19 22.75 L 97.14 22.79 L 97.07 22.85 L 96.77 23.10 L 96.53 23.28 L 96.19 23.60 L 95.85 23.90 L 95.61 24.11 L 95.60 24.12 L 95.59 24.12 L 95.16 24.58 L 95.12 24.62 L 94.06 24.75 L 92.22 25.06 L 90.55 25.29 L 87.90 25.78 L 84.74 26.31 L 83.16 26.64 L 82.45 26.75 L 81.91 26.89 L 80.71 27.11 L 78.39 27.66 L 75.70 28.23 L 73.35 28.85 L 71.21 29.35 L 69.26 29.92 L 67.00 30.51 L 65.54 30.97 L 64.89 31.14 L 64.08 31.43 L 62.14 31.99 L 60.54 32.56 L 58.70 33.14 L 55.93 34.18 L 53.56 35.01 L 52.30 35.55 L 50.84 36.09 L 49.56 36.66 L 48.95 36.88 L 48.08 37.32 L 47.94 37.38 L 45.52 38.39 L 44.58 38.87 L 43.49 39.35 L 40.46 40.93 L 38.10 42.10 L 37.45 42.49 L 36.68 42.89 L 35.59 43.56 L 35.07 43.82 L 34.36 44.31 L 33.53 44.82 L 31.34 46.12 L 30.94 46.41 L 30.47 46.70 L 27.09 49.14 L 25.30 50.41 L 25.12 50.57 L 24.89 50.74 L 24.02 51.49 L 23.59 51.78 L 23.05 52.33 L 20.59 54.46 L 20.02 54.95 L 20.00 54.97 L 19.97 54.99 L 15.76 59.43 L 15.66 59.56 L 15.54 59.70 L 15.09 60.30 L 14.82 60.57 L 14.45 61.16 L 12.28 64.03 L 12.10 64.33 L 11.89 64.62 L 10.98 66.26 L 9.54 68.74 L 9.35 69.23 L 9.10 69.68 L 9.04 69.85 L 8.98 69.94 L 8.91 70.20 L 8.49 71.33 L 7.58 73.56 L 7.42 74.22 L 7.19 74.84 L 6.88 76.44 L 6.40 78.43 L 6.33 79.28 L 6.32 79.31 L 6.22 79.66 L 6.23 79.79 L 6.18 80.06 L 6.14 81.56 L 6.00 83.34 L 6.00 96.02 L 6.08 97.06 L 6.06 97.99 L 6.27 99.34 L 6.40 100.93 L 6.60 101.78 L 6.62 102.15 L 6.74 102.49 L 6.85 103.22 L 7.25 104.43 L 7.58 105.81 L 8.14 107.18 L 8.54 108.40 L 9.06 109.44 L 9.54 110.62 L 10.02 111.44 L 10.16 111.81 L 10.51 112.30 L 11.11 113.49 L 11.72 114.36 L 12.28 115.34 L 13.56 117.03 L 14.55 118.45 L 15.17 119.15 L 15.76 119.93 L 16.50 120.71 L 16.75 121.06 L 17.34 121.59 L 17.51 121.77 L 18.82 123.25 L 19.41 123.77 L 19.97 124.37 L 22.27 126.35 L 23.91 127.84 L 24.41 128.21 L 24.89 128.62 L 25.87 129.33 L 26.22 129.65 L 26.97 130.13 L 27.91 130.81 L 29.77 132.19 L 30.11 132.41 L 30.47 132.67 L 34.67 135.24 L 36.35 136.28 L 36.51 136.37 L 36.68 136.47 L 37.87 137.09 L 38.33 137.38 L 39.23 137.80 L 43.49 140.01 L 43.55 140.04 L 43.61 140.07 L 44.82 140.61 L 50.84 143.27 L 51.19 143.40 L 51.49 143.54 L 52.37 143.86 L 52.76 144.04 L 53.71 144.35 L 54.18 144.52 L 58.70 146.22 L 59.35 146.43 L 59.95 146.65 L 62.87 147.54 L 67.00 148.85 L 68.02 149.12 L 68.90 149.39 L 69.06 149.43 L 69.14 149.45 L 69.39 149.51 L 71.87 150.13 L 75.70 151.13 L 77.07 151.42 L 78.30 151.73 L 81.22 152.31 L 84.74 153.06 L 86.37 153.33 L 87.04 153.48 L 87.39 153.53 L 88.06 153.66 L 90.82 154.07 L 94.06 154.61 L 96.22 154.88 L 98.12 155.16 L 100.68 155.43 L 103.60 155.79 L 105.29 155.92 L 106.01 156.02 L 106.78 156.06 L 108.40 156.23 L 110.72 156.37 L 113.30 156.57 L 116.26 156.69 L 118.82 156.85 L 120.82 156.88 L 123.09 156.97 L 124.81 156.97 L 125.54 157.01 L 126.66 156.97 L 129.31 157.02 L 131.02 156.97 L 132.91 156.97 L 136.72 156.82 L 139.79 156.73 L 141.18 156.64 L 142.71 156.57 L 144.40 156.44 L 145.14 156.41 L 146.35 156.28 L 146.90 156.23 L 150.19 156.00 L 151.26 155.88 L 152.40 155.79 L 157.08 155.21 L 160.42 154.83 L 161.14 154.71 L 161.94 154.61 L 163.58 154.34 L 164.29 154.26 L 165.43 154.03 L 167.33 153.71 L 170.41 153.22 L 170.82 153.13 L 171.26 153.06 L 178.29 151.56 L 180.09 151.18 L 180.19 151.16 L 180.30 151.13 L 181.83 150.73 L 182.51 150.59 L 183.56 150.28 L 189.00 148.85 L 189.19 148.79 L 189.38 148.74 L 191.62 148.02 L 197.30 146.22 L 197.75 146.05 L 198.22 145.91 L 198.94 145.63 L 199.31 145.51 L 200.09 145.18 L 200.92 144.86 L 205.16 143.27 L 205.85 142.97 L 206.53 142.70 L 209.03 141.56 L 212.51 140.01 L 213.40 139.55 L 214.27 139.15 L 216.45 137.97 L 219.32 136.47 L 220.36 135.84 L 221.36 135.29 L 223.20 134.09 L 225.53 132.67 L 226.51 131.96 L 226.99 131.68 L 227.22 131.49 L 227.77 131.13 L 229.26 129.96 L 231.11 128.62 L 232.30 127.59 L 233.44 126.71 L 234.59 125.61 L 236.03 124.37 L 236.76 123.59 L 237.15 123.28 L 237.46 122.88 L 238.32 122.06 L 239.18 121.05 L 240.24 119.93 L 241.34 118.47 L 242.39 117.23 L 242.97 116.32 L 243.72 115.34 L 244.20 114.51 L 244.48 114.17 L 244.74 113.59 L 245.61 112.23 L 245.97 111.46 L 246.46 110.62 L 247.25 108.66 L 247.97 107.11 L 248.14 106.48 L 248.42 105.81 L 248.63 104.95 L 248.79 104.59 L 248.87 103.97 L 248.96 103.58 L 249.43 101.92 L 249.48 101.44 L 249.60 100.93 L 249.81 98.38 L 249.99 96.68 L 249.97 96.36 L 250.00 96.02 L 250.00 83.34 L 249.93 82.48 L 249.97 82.11 L 249.85 81.50 L 249.75 80.25 L 249.65 78.75 L 249.62 78.60 L 249.60 78.43 L 248.42 73.56 L 248.42 73.55 L 248.41 73.54 L 248.30 73.25 L 248.08 72.72 L 248.00 72.35 L 247.68 71.75 L 246.46 68.74 L 246.35 68.57 L 246.28 68.40 L 245.39 66.91 L 243.72 64.03 L 243.47 63.69 L 243.28 63.37 L 243.01 63.04 L 242.92 62.86 L 242.55 62.46 L 242.01 61.77 L 240.24 59.43 L 239.78 58.95 L 239.42 58.49 L 237.92 56.99 L 236.03 54.99 L 235.31 54.37 L 234.98 54.04 L 234.86 53.91 L 234.81 53.87 L 234.73 53.79 L 233.09 52.45 L 231.11 50.74 L 230.10 50.00 L 229.26 49.32 L 227.53 48.14 L 225.53 46.70 L 224.44 46.03 L 224.04 45.72 L 223.68 45.53 L 223.03 45.09 L 221.28 44.09 L 219.32 42.89 L 217.57 41.98 L 216.10 41.15 L 214.39 40.33 L 212.51 39.35 L 211.22 38.78 L 210.72 38.51 L 210.00 38.22 L 208.52 37.52 L 206.89 36.86 L 205.16 36.09 L 202.54 35.11 L 200.34 34.22 L 198.87 33.73 L 197.30 33.14 L 195.85 32.68 L 195.27 32.45 L 194.19 32.15 L 194.17 32.15 L 191.63 31.30 L 190.35 30.94 L 189.00 30.51 L 185.30 29.54 L 182.45 28.75 L 181.41 28.52 L 180.30 28.23 L 178.71 27.89 L 178.07 27.72 L 176.92 27.51 L 175.96 27.31 L 172.86 26.62 L 172.09 26.48 L 171.26 26.31 L 166.10 25.44 L 162.94 24.90 L 162.45 24.84 L 161.94 24.75 L 160.88 24.62 L 160.41 24.12 L 160.19 23.94 L 160.02 23.76 Z" clip-rule="evenodd"/></clipPath></defs>
<g stroke="black" fill="none" stroke-linecap="round" clip-path="url(#sclip)">
<path d="M 95.12 24.62 A 122.00 61.00 -180.00 0 0 90.55 25.29 L 87.90 25.78 L 84.74 26.31 A 122.00 61.00 -180.00 0 0 80.71 27.11 L 78.39 27.66 L 75.70 28.23 A 122.00 61.00 -180.00 0 0 64.89 31.14 L 64.08 31.43 L 62.14 31.99 A 122.00 61.00 -180.00 0 0 58.70 33.14 L 55.93 34.18 L 53.56 35.01 A 122.00 61.00 -180.00 0 0 48.95 36.88 L 48.08 37.32 L 47.94 37.38 L 45.52 38.39 A 122.00 61.00 -180.00 0 0 43.49 39.35 L 40.46 40.93 L 38.10 42.10 A 122.00 61.00 -180.00 0 0 35.07 43.82 L 34.36 44.31 L 33.53 44.82 L 31.34 46.12 A 122.00 61.00 -180.00 0 0 30.47 46.70 L 27.09 49.14 L 25.30 50.41 A 122.00 61.00 -180.00 0 0 24.89 50.74 L 24.02 51.49 L 23.59 51.78 L 23.05 52.33 L 20.59 54.46 A 122.00 61.00 -180.00 0 0 14.82 60.57 L 14.45 61.16 L 12.28 64.03 A 122.00 61.00 -180.00 0 0 11.89 64.62 L 10.98 66.26 L 9.54 68.74 A 122.00 61.00 -180.00 0 0 8.91 70.20 L 8.49 71.33 L 7.58 73.56 A 122.00 61.00 -180.00 0 0 7.19 74.84 L 6.88 76.44 L 6.40 78.43 L 6.33 79.28 L 6.32 79.31 L 6.22 79.66 A 122.00 61.00 -180.00 0 0 6.18 80.06 L 6.14 81.56 L 6.00 83.34 L 6.00 96.02 L 6.08 97.06 L 6.06 97.99 L 6.27 99.34 L 6.40 100.93 L 6.60 101.78 L 6.62 102.15 L 6.74 102.49 L 6.85 103.22 L 7.25 104.43 L 7.58 105.81 L 8.14 107.18 L 8.54 108.40 L 9.06 109.44 L 9.54 110.62 L 10.02 111.44 L 10.16 111.81 L 10.51 112.30 L 11.11 113.49 L 11.71 114.36 L 12.28 115.34 L 13.56 117.03 L 14.55 118.45 L 15.17 119.15 L 15.76 119.93 L 16.50 120.71 L 16.75 121.06 L 17.34 121.59 L 17.51 121.77 L 18.82 123.25 A 122.00 61.00 180.00 0 0 19.97 124.37 L 22.27 126.35 L 23.91 127.84 A 122.00 61.00 180.00 0 0 26.22 129.65 L 26.97 130.13 L 27.91 130.81 L 29.77 132.19 A 122.00 61.00 180.00 0 0 30.47 132.67 L 34.67 135.24 L 36.35 136.28 A 122.00 61.00 180.00 0 0 38.33 137.38 L 39.23 137.80 L 43.49 140.01 A 122.00 61.00 180.00 0 0 52.76 144.04 L 53.71 144.35 L 54.18 144.52 L 58.70 146.22 A 122.00 61.00 180.00 0 0 59.95 146.65 L 62.87 147.54 L 67.00 148.85 A 122.00 61.00 180.00 0 0 69.39 149.51 L 71.87 150.13 L 75.70 151.13 A 122.00 61.00 180.00 0 0 78.30 151.73 L 81.22 152.31 L 84.74 153.06 A 122.00 61.00 180.00 0 0 88.06 153.66 L 90.82 154.07 L 94.06 154.61 A 122.00 61.00 180.00 0 0 146.35 156.28 L 146.90 156.23 L 150.19 156.00 A 122.00 61.00 180.00 0 0 152.40 155.79 L 157.08 155.21 L 160.42 154.83 A 122.00 61.00 180.00 0 0 164.29 154.26 L 165.43 154.03 L 167.33 153.71 L 170.41 153.22 A 122.00 61.00 180.00 0 0 182.51 150.59 L 183.56 150.28 L 189.00 148.85 A 122.00 61.00 180.00 0 0 189.38 148.74 L 191.62 148.02 L 197.30 146.22 A 122.00 61.00 180.00 0 0 199.31 145.51 L 200.09 145.18 L 200.92 144.86 L 205.16 143.27 A 122.00 61.00 180.00 0 0 206.53 142.70 L 209.03 141.56 L 212.51 140.01 A 122.00 61.00 180.00 0 0 214.27 139.15 L 216.45 137.97 L 219.32 136.47 A 122.00 61.00 180.00 0 0 221.36 135.29 L 223.20 134.09 L 225.53 132.67 A 122.00 61.00 180.00 0 0 227.77 131.13 L 229.26 129.96 L 231.11 128.62 L 232.30 127.59 L 233.44 126.71 L 234.59 125.61 L 236.03 124.37 L 236.76 123.59 L 237.15 123.28 L 237.46 122.88 L 238.32 122.06 L 239.18 121.05 L 240.24 119.93 L 241.34 118.47 L 242.39 117.23 L 242.97 116.32 L 243.72 115.34 L 244.20 114.51 L 244.48 114.17 L 244.74 113.59 L 245.61 112.23 L 245.97 111.46 L 246.46 110.62 L 247.25 108.66 L 247.97 107.11 A 122.00 61.00 180.00 0 0 248.42 105.81 L 248.63 104.95 L 248.79 104.59 L 248.87 103.97 L 248.96 103.58 L 249.43 101.92 A 122.00 61.00 180.00 0 0 249.60 100.93 L 249.81 98.38 L 249.99 96.68 A 122.00 61.00 180.00 0 0 250.00 96.02 L 250.00 83.34 L 249.93 82.48 L 249.97 82.11 L 249.85 81.50 L 249.75 80.25 L 249.65 78.75 A 122.00 61.00 -180.00 0 0 248.30 73.25 L 248.08 72.72 L 248.00 72.35 L 247.68 71.75 L 246.46 68.74 A 122.00 61.00 -180.00 0 0 246.28 68.40 L 245.39 66.91 L 243.72 64.03 A 122.00 61.00 -180.00 0 0 242.92 62.86 L 242.55 62.46 L 242.01 61.77 L 240.24 59.43 A 122.00 61.00 -180.00 0 0 239.42 58.49 L 237.92 56.99 L 236.03 54.99 A 122.00 61.00 -180.00 0 0 234.73 53.79 L 233.09 52.45 L 231.11 50.74 L 230.10 50.00 L 229.26 49.32 L 227.53 48.14 L 225.53 46.70 A 122.00 61.00 -180.00 0 0 223.03 45.09 L 221.28 44.09 L 219.32 42.89 L 217.57 41.98 L 216.10 41.15 L 214.39 40.33 L 212.51 39.35 A 122.00 61.00 -180.00 0 0 210.72 38.51 L 210.00 38.22 L 208.52 37.52 L 206.89 36.86 L 205.16 36.09 L 202.54 35.11 L 200.34 34.22 A 122.00 61.00 -180.00 0 0 195.27 32.45 L 194.19 32.15 L 194.17 32.15 L 191.63 31.30 A 122.00 61.00 -180.00 0 0 189.00 30.51 L 185.30 29.54 L 182.45 28.75 A 122.00 61.00 -180.00 0 0 178.07 27.72 L 176.92 27.51 L 175.96 27.31 L 172.86 26.62 A 122.00 61.00 -180.00 0 0 171.26 26.31 L 166.10 25.44 L 162.94 24.90 A 122.00 61.00 -180.00 0 0 160.88 24.62 A 36.60 18.30 -180.00 0 0 112.31 16.09 A 36.60 18.30 -180.00 0 0 95.12 24.62 Z" stroke-width="0.00" stroke-linejoin="miter" stroke-miterlimit="5"/>
<line x1="152.40" y1="32.63" x2="152.40" y2="68.02" stroke-width="0.00"/>
<line x1="103.60" y1="32.63" x2="103.60" y2="68.02" stroke-width="0.00"/>
<line x1="164.60" y1="32.63" x2="164.60" y2="53.76" stroke-width="0.00"/>
<line x1="164.60" y1="68.02" x2="164.60" y2="96.02" stroke-width="0.00"/>
<line x1="91.40" y1="32.63" x2="91.40" y2="53.76" stroke-width="0.00"/>
<line x1="91.40" y1="68.02" x2="91.40" y2="96.02" stroke-width="0.00"/>
<line x1="176.80" y1="68.02" x2="176.80" y2="96.02" stroke-width="0.00"/>
<line x1="79.20" y1="68.02" x2="79.20" y2="96.02" stroke-width="0.00"/>
<line x1="250.00" y1="83.34" x2="250.00" y2="96.02" stroke-width="0.00"/>
<line x1="6.00" y1="83.34" x2="6.00" y2="96.02" stroke-width="0.00"/>
<path d="M 145.25 41.25 A 24.40 12.20 -180.00 0 0 145.25 24.00 A 24.40 12.20 -180.00 0 0 110.75 24.00 A 24.40 12.20 -180.00 0 0 110.75 41.25 A 24.40 12.20 -180.00 0 0 145.25 41.25" stroke-width="0.00"/>
<path d="M 153.88 45.57 A 36.60 18.30 -180.00 0 0 153.88 19.69 A 36.60 18.30 -180.00 0 0 102.12 19.69 A 36.60 18.30 -180.00 0 0 102.12 45.57 A 36.60 18.30 -180.00 0 0 153.88 45.57" stroke-width="0.00"/>
<path d="M 153.88 66.70 A 36.60 18.30 180.00 0 0 153.88 40.82 A 36.60 18.30 180.00 0 0 102.12 40.82 A 36.60 18.30 180.00 0 0 102.12 66.70 A 36.60 18.30 180.00 0 0 153.88 66.70" stroke-width="0.00"/>
<path d="M 153.88 108.96 A 36.60 18.30 180.00 0 0 153.88 83.08 A 36.60 18.30 180.00 0 0 102.12 83.08 A 36.60 18.30 180.00 0 0 102.12 108.96 A 36.60 18.30 180.00 0 0 153.88 108.96" stroke-width="0.00"/>
<path d="M 162.51 113.27 A 48.80 24.40 180.00 0 0 162.51 78.77 A 48.80 24.40 180.00 0 0 93.49 78.77 A 48.80 24.40 180.00 0 0 93.49 113.27 A 48.80 24.40 180.00 0 0 162.51 113.27" stroke-width="0.00"/>
<path d="M 214.27 126.48 A 122.00 61.00 -180.00 0 0 214.27 40.21 A 122.00 61.00 -180.00 0 0 41.73 40.21 A 122.00 61.00 -180.00 0 0 41.73 126.48 A 122.00 61.00 -180.00 0 0 214.27 126.48" stroke-width="0.00"/>
<path d="M 214.27 139.15 A 122.00 61.00 180.00 0 0 214.27 52.89 A 122.00 61.00 180.00 0 0 41.73 52.89 A 122.00 61.00 180.00 0 0 41.73 139.15 A 122.00 61.00 180.00 0 0 214.27 139.15" stroke-width="0.00"/>
<path d="M 145.25 76.65 A 24.40 12.20 180.00 0 0 145.25 59.39 A 24.40 12.20 180.00 0 0 110.75 59.39 A 24.40 12.20 180.00 0 0 110.75 76.65 A 24.40 12.20 180.00 0 0 145.25 76.65" stroke-width="0.00"/>
<path d="M 153.88 80.96 A 36.60 18.30 180.00 0 0 153.88 55.08 A 36.60 18.30 180.00 0 0 102.12 55.08 A 36.60 18.30 180.00 0 0 102.12 80.96 A 36.60 18.30 180.00 0 0 153.88 80.96" stroke-width="0.00"/>
<path d="M 162.51 85.28 A 48.80 24.40 180.00 0 0 162.51 50.77 A 48.80 24.40 180.00 0 0 93.49 50.77 A 48.80 24.40 180.00 0 0 93.49 85.28 A 48.80 24.40 180.00 0 0 162.51 85.28" stroke-width="0.00"/>
<path d="M 197.01 118.90 A 97.60 48.80 -180.00 0 0 197.01 49.89 A 97.60 48.80 -180.00 0 0 58.99 49.89 A 97.60 48.80 -180.00 0 0 58.99 118.90 A 97.60 48.80 -180.00 0 0 197.01 118.90" stroke-width="0.00"/>
<path d="M 179.76 88.62 A 73.20 36.60 180.00 0 0 179.76 36.86 A 73.20 36.60 180.00 0 0 76.24 36.86 A 73.20 36.60 180.00 0 0 76.24 88.62 A 73.20 36.60 180.00 0 0 179.76 88.62" stroke-width="0.00"/>
<path d="M 197.01 105.70 A 97.60 48.80 -180.00 0 0 197.01 36.68 A 97.60 48.80 -180.00 0 0 58.99 36.68 A 97.60 48.80 -180.00 0 0 58.99 105.70 A 97.60 48.80 -180.00 0 0 197.01 105.70" stroke-width="0.00"/>
</g>
</svg>