<svg xmlns="http://www.w3.org/2000/svg" viewBox="0 0 256 170" preserveAspectRatio="xMidYMid meet">
<defs><linearGradient id="g0" gradientUnits="userSpaceOnUse" x1="180.91" y1="21.64" x2="66.39" y2="126.01"><stop offset="0.0%" stop-color="#ffb11f"/><stop offset="3.3%" stop-color="#ffb11f"/><stop offset="22.2%" stop-color="#ffb820"/><stop offset="26.1%" stop-color="#ffb820"/><stop offset="46.1%" stop-color="#ffbc21"/><stop offset="50.3%" stop-color="#ffbc21"/><stop offset="71.0%" stop-color="#ffbf21"/><stop offset="75.6%" stop-color="#ffbf21"/><stop offset="96.0%" stop-color="#ffbf21"/><stop offset="100.0%" stop-color="#ffbf21"/></linearGradient></defs>
<g stroke-linejoin="round">
<path d="M 143.82 23.25 L 114.61 44.97 L 86.40 70.79 L 59.69 100.29 L 36.93 130.08 L 82.46 152.85 L 105.23 123.06 L 131.94 93.56 L 160.15 67.74 L 189.36 46.02 L 219.07 28.77 L 173.54 6.00 Z" fill="url(#g0)" fill-rule="evenodd" stroke="url(#g0)" stroke-width="0.8"/>
<path d="M 105.23 123.06 L 82.46 152.85 L 82.46 164.00 L 173.54 118.46 L 173.54 107.31 L 173.54 96.15 L 219.07 73.39 L 219.07 62.23 L 219.07 28.77 L 189.36 46.02 L 160.15 67.74 L 131.94 93.56 Z" fill="#98530e" fill-rule="evenodd" stroke="#98530e" stroke-width="0.8"/>
<path d="M 36.93 141.23 L 82.46 164.00 L 82.46 152.85 L 36.93 130.08 Z" fill="#d87514" fill-rule="evenodd" stroke="#d87514" stroke-width="0.8"/>
</g>
<defs><clipPath id="sclip"><path d="M 35.93 129.74 L 35.93 141.85 L 82.46 165.12 L 174.54 119.08 L 174.54 96.77 L 220.07 74.00 L 220.07 28.15 L 173.50 4.86 L 143.27 22.42 L 113.97 44.20 L 85.69 70.08 L 58.92 99.65 Z" clip-rule="evenodd"/></clipPath></defs>
<g stroke="black" fill="none" stroke-linecap="round" clip-path="url(#sclip)">
<path d="M 36.93 130.08 L 36.93 141.23 L 82.46 164.00 L 173.54 118.46 L 173.54 96.15 L 219.07 73.39 L 219.07 28.77 L 173.54 6.00 L 143.82 23.25 L 114.61 44.97 L 86.40 70.79 L 59.69 100.29 Z" stroke-width="2.00" stroke-linejoin="miter" stroke-miterlimit="5"/>
<path d="M 82.46 164.00 L 173.54 118.46 L 173.54 107.31 L 173.54 96.15 L 219.07 73.39 L 219.07 28.77" stroke-width="2.00" stroke-linejoin="miter" stroke-miterlimit="5"/>
<path d="M 36.93 130.08 L 59.69 100.29 L 86.40 70.79 L 114.61 44.97 L 143.82 23.25 L 173.54 6.00 L 219.07 28.77 L 189.36 46.02 L 160.15 67.74 L 131.94 93.56 L 105.23 123.06 L 82.46 152.85 L 36.93 130.08 L 36.93 141.23 L 82.46 164.00 L 82.46 152.85" stroke-width="2.00" stroke-linejoin="miter" stroke-miterlimit="5"/>
<path d="M 82.46 161.00 L 82.46 164.00 L 85.14 162.66" stroke-width="2.00" stroke-linejoin="miter" stroke-miterlimit="5"/>
<path d="M 38.75 127.70 L 36.93 130.08 L 39.61 131.42" stroke-width="2.00" stroke-linejoin="miter" stroke-miterlimit="5"/>
<path d="M 82.46 155.85 L 82.46 152.85 L 79.78 151.51" stroke-width="2.00" stroke-linejoin="miter" stroke-miterlimit="5"/>
<path d="M 84.28 150.47 L 82.46 152.85 L 82.46 155.85" stroke-width="2.00" stroke-linejoin="miter" stroke-miterlimit="5"/>
<path d="M 219.07 31.77 L 219.07 28.77 L 216.48 30.28" stroke-width="2.00" stroke-linejoin="miter" stroke-miterlimit="5"/>
</g>
</svg>