<svg xmlns="http://www.w3.org/2000/svg" viewBox="0 0 256 170" preserveAspectRatio="xMidYMid meet">
<defs><linearGradient id="g0" gradientUnits="userSpaceOnUse" x1="180.91" y1="21.64" x2="66.39" y2="126.01"><stop offset="0.0%" stop-color="#ffb11f"/><stop offset="3.3%" stop-color="#ffb11f"/><stop offset="22.2%" stop-color="#ffb820"/><stop offset="26.1%" stop-color="#ffb820"/><stop offset="46.1%" stop-color="#ffbc21"/><stop offset="50.3%" stop-color="#ffbc21"/><stop offset="71.0%" stop-color="#ffbf21"/><stop offset="75.6%" stop-color="#ffbf21"/><stop offset="96.0%" stop-color="#ffbf21"/><stop offset="100.0%" stop-color="#ffbf21"/></linearGradient></defs>
<g stroke-linejoin="round">
<path d="M 143.82 23.25 L 114.61 44.97 L 86.40 70.79 L 59.69 100.29 L 36.93 130.08 L 82.46 152.85 L 105.23 123.06 L 131.94 93.56 L 160.15 67.74 L 189.36 46.02 L 219.07 28.77 L 173.54 6.00 Z" fill="url(#g0)" fill-rule="evenodd" stroke="url(#g0)" stroke-width="0.8"/>
<path d="M 105.23 123.06 L 82.46 152.85 L 82.46 164.00 L 173.54 118.46 L 173.54 107.31 L 173.54 96.15 L 219.07 73.39 L 219.07 62.23 L 219.07 28.77 L 189.36 46.02 L 160.15 67.74 L 131.94 93.56 Z" fill="#98530e" fill-rule="evenodd" stroke="#98530e" stroke-width="0.8"/>
<path d="M 36.93 141.23 L 82.46 164.00 L 82.46 152.85 L 36.93 130.08 Z" fill="#d87514" fill-rule="evenodd" stroke="#d87514" stroke-width="0.8"/>
</g>
<g stroke="black" fill="none" stroke-linecap="round">
<line x1="173.05" y1="118.22" x2="173.54" y2="118.46" stroke-width="2.00"/>
<line x1="82.46" y1="164.00" x2="173.54" y2="118.46" stroke-width="2.00"/>
<line x1="36.93" y1="141.23" x2="82.46" y2="164.00" stroke-width="2.00"/>
<line x1="36.93" y1="141.23" x2="37.41" y2="140.99" stroke-width="2.00"/>
<line x1="173.54" y1="6.00" x2="173.54" y2="6.72" stroke-width="2.00"/>
<line x1="173.54" y1="107.31" x2="173.54" y2="118.46" stroke-width="2.00"/>
<line x1="36.93" y1="130.08" x2="36.93" y2="141.23" stroke-width="2.00"/>
<line x1="82.46" y1="152.85" x2="82.46" y2="164.00" stroke-width="2.00"/>
<line x1="173.54" y1="96.15" x2="173.54" y2="107.31" stroke-width="2.00"/>
<line x1="173.54" y1="96.15" x2="219.07" y2="73.39" stroke-width="2.00"/>
<line x1="173.54" y1="6.00" x2="219.07" y2="28.77" stroke-width="2.00"/>
<line x1="219.07" y1="28.77" x2="219.07" y2="73.39" stroke-width="2.00"/>
<line x1="218.59" y1="73.14" x2="219.07" y2="73.39" stroke-width="2.00"/>
<line x1="173.04" y1="95.91" x2="173.54" y2="96.15" stroke-width="2.00"/>
<line x1="189.36" y1="46.02" x2="219.07" y2="28.77" stroke-width="2.00"/>
<line x1="160.15" y1="67.74" x2="189.36" y2="46.02" stroke-width="2.00"/>
<line x1="131.94" y1="93.56" x2="160.15" y2="67.74" stroke-width="2.00"/>
<line x1="105.23" y1="123.06" x2="131.94" y2="93.56" stroke-width="2.00"/>
<line x1="82.46" y1="152.85" x2="105.23" y2="123.06" stroke-width="2.00"/>
<line x1="143.82" y1="23.25" x2="173.54" y2="6.00" stroke-width="2.00"/>
<line x1="114.61" y1="44.97" x2="143.82" y2="23.25" stroke-width="2.00"/>
<line x1="86.40" y1="70.79" x2="114.61" y2="44.97" stroke-width="2.00"/>
<line x1="59.69" y1="100.29" x2="86.40" y2="70.79" stroke-width="2.00"/>
<line x1="36.93" y1="130.08" x2="59.69" y2="100.29" stroke-width="2.00"/>
<line x1="36.93" y1="130.08" x2="82.46" y2="152.85" stroke-width="2.00"/>
</g>
</svg>