<svg xmlns="http://www.w3.org/2000/svg" viewBox="0 0 256 170" preserveAspectRatio="xMidYMid meet">
<defs><linearGradient id="g0" gradientUnits="userSpaceOnUse" x1="195.26" y1="134.65" x2="164.12" y2="2.85"><stop offset="0.0%" stop-color="#722c54"/><stop offset="17.3%" stop-color="#722c54"/><stop offset="32.0%" stop-color="#722c54"/><stop offset="48.4%" stop-color="#93396c"/><stop offset="50.2%" stop-color="#93396c"/><stop offset="54.9%" stop-color="#f35db1"/><stop offset="56.7%" stop-color="#f35db1"/><stop offset="72.3%" stop-color="#ff66c1"/><stop offset="85.6%" stop-color="#ff66c1"/><stop offset="99.4%" stop-color="#ff65c0"/><stop offset="100.0%" stop-color="#ff65c0"/></linearGradient></defs>
<g stroke-linejoin="round">
<path d="M 144.18 6.38 L 136.36 9.56 L 145.71 8.72 L 198.89 52.28 L 198.91 60.79 L 206.76 57.64 A 11.59 5.45 -111.88 0 0 202.06 51.01 L 148.88 7.45 A 11.59 5.45 -111.88 0 0 144.18 6.38 Z M 208.70 125.75 L 208.70 65.95 A 11.59 5.45 -111.88 0 0 206.76 57.64 L 205.98 58.37 L 205.98 58.36 L 206.74 57.65 L 198.91 60.79 L 189.72 73.57 L 113.77 149.64 L 113.77 163.88 L 208.70 125.75 Z" fill="url(#g0)" fill-rule="evenodd" stroke="url(#g0)" stroke-width="0.8"/>
<path d="M 123.24 19.12 L 47.30 95.19 L 113.77 149.64 L 189.72 73.57 L 198.91 60.79 L 198.89 52.28 L 145.71 8.72 L 136.36 9.56 L 123.24 19.12 Z" fill="#ff68c6" fill-rule="evenodd" stroke="#ff68c6" stroke-width="0.8"/>
<path d="M 113.77 163.88 L 113.77 149.64 L 47.30 95.19 L 47.30 109.43 L 113.77 163.88 Z" fill="#b14481" fill-rule="evenodd" stroke="#b14481" stroke-width="0.8"/>
<path d="M 115.96 161.91 L 115.86 161.92 L 115.76 161.92 L 115.66 161.92 L 115.57 161.90 L 115.47 161.88 L 115.38 161.84 L 115.29 161.80 L 115.21 161.75 L 115.13 161.69 L 115.06 161.63 L 115.00 161.56 L 114.94 161.48 L 114.89 161.39 L 114.84 161.30 L 114.81 161.21 L 114.79 161.12 L 114.78 161.02 L 114.77 160.92 L 114.77 162.40 L 116.14 161.85 L 116.05 161.88 L 115.96 161.91 Z" fill="#000000" fill-rule="evenodd" stroke="#000000" stroke-width="0.8"/>
<path d="M 112.73 159.95 L 112.69 160.04 L 112.65 160.13 L 112.60 160.21 L 112.54 160.29 L 112.48 160.37 L 112.41 160.43 L 112.33 160.49 L 112.24 160.54 L 112.15 160.58 L 112.06 160.62 L 111.97 160.64 L 111.87 160.65 L 111.77 160.66 L 111.67 160.65 L 111.58 160.64 L 111.48 160.62 L 111.39 160.58 L 111.30 160.54 L 111.22 160.49 L 111.14 160.43 L 112.77 161.77 L 112.77 159.66 L 112.77 159.76 L 112.75 159.85 L 112.73 159.95 Z" fill="#000000" fill-rule="evenodd" stroke="#000000" stroke-width="0.8"/>
</g>
<defs><clipPath id="sclip"><path d="M 148.91 6.22 L 148.30 5.82 L 147.68 5.50 L 147.06 5.25 L 146.43 5.08 L 145.80 5.00 L 145.18 5.01 L 144.57 5.13 L 143.99 5.34 L 143.59 5.57 L 135.87 8.68 L 122.59 18.36 L 46.30 94.78 L 46.30 109.91 L 113.59 165.03 L 114.45 164.69 L 115.02 165.15 L 201.63 130.36 L 201.63 129.67 L 209.70 126.43 L 209.70 65.93 L 209.68 65.09 L 209.61 64.20 L 209.49 63.30 L 209.32 62.37 L 209.11 61.44 L 208.86 60.49 L 208.57 59.55 L 208.24 58.62 L 207.87 57.69 L 207.46 56.78 L 207.03 55.90 L 206.56 55.04 L 206.07 54.21 L 205.55 53.43 L 205.01 52.68 L 204.45 51.99 L 203.88 51.35 L 203.29 50.76 L 202.70 50.25 L 149.50 6.66 Z" clip-rule="evenodd"/></clipPath></defs>
<g stroke="black" fill="none" stroke-linecap="round" clip-path="url(#sclip)">
<path d="M 144.03 6.47 L 136.36 9.56 L 123.24 19.12 L 47.30 95.19 L 47.30 109.43 L 113.77 163.88 L 114.63 163.54 L 115.19 164.00 L 200.63 129.69 L 200.63 129.00 L 208.70 125.75 L 208.70 65.95 A 11.59 5.45 -111.88 0 0 202.60 51.49 A 11.59 5.45 -111.88 0 0 202.06 51.01 L 148.88 7.45 A 11.59 5.45 -111.88 0 0 144.03 6.47 Z" stroke-width="2.00" stroke-linejoin="miter" stroke-miterlimit="5"/>
<line x1="113.77" y1="163.88" x2="208.70" y2="125.76" stroke-width="2.00"/>
<line x1="47.30" y1="109.43" x2="113.77" y2="163.88" stroke-width="2.00"/>
<line x1="113.77" y1="149.64" x2="113.77" y2="163.88" stroke-width="2.00"/>
<line x1="47.30" y1="95.19" x2="113.77" y2="149.64" stroke-width="2.00"/>
<line x1="47.30" y1="95.19" x2="47.30" y2="109.43" stroke-width="2.00"/>
<line x1="115.19" y1="164.00" x2="200.63" y2="129.69" stroke-width="2.00"/>
<line x1="189.72" y1="73.57" x2="198.91" y2="60.79" stroke-width="2.00"/>
<line x1="198.89" y1="52.28" x2="198.91" y2="60.79" stroke-width="2.00"/>
<line x1="123.24" y1="19.12" x2="136.36" y2="9.56" stroke-width="2.00"/>
<line x1="136.36" y1="9.56" x2="145.71" y2="8.72" stroke-width="2.00"/>
<line x1="148.88" y1="7.45" x2="202.06" y2="51.01" stroke-width="2.00"/>
<line x1="145.71" y1="8.72" x2="198.89" y2="52.28" stroke-width="2.00"/>
<line x1="208.70" y1="65.95" x2="208.70" y2="125.76" stroke-width="2.00"/>
<line x1="47.30" y1="95.19" x2="123.24" y2="19.12" stroke-width="2.00"/>
<line x1="113.77" y1="149.64" x2="189.72" y2="73.57" stroke-width="2.00"/>
<line x1="136.36" y1="9.56" x2="144.19" y2="6.41" stroke-width="2.00"/>
<path d="M 144.03 6.47 A 11.59 5.45 -111.88 0 1 148.88 7.45" stroke-width="2.00"/>
<path d="M 202.06 51.01 A 11.59 5.45 -111.88 0 1 206.76 57.64 A 11.59 5.45 -111.88 0 1 208.70 65.95" stroke-width="2.00"/>
</g>
</svg>