<svg xmlns="http://www.w3.org/2000/svg" viewBox="0 0 256 170" preserveAspectRatio="xMidYMid meet">
<defs><linearGradient id="g5" gradientUnits="userSpaceOnUse" x1="104.10" y1="109.34" x2="87.92" y2="76.97"><stop offset="-0.0%" stop-color="#ffffff"/><stop offset="3.8%" stop-color="#ffffff"/><stop offset="14.6%" stop-color="#ffffff"/><stop offset="30.9%" stop-color="#ffffff"/><stop offset="50.0%" stop-color="#dfdfdf"/><stop offset="69.1%" stop-color="#999999"/><stop offset="85.4%" stop-color="#8c8c8c"/><stop offset="96.2%" stop-color="#8c8c8c"/><stop offset="100.0%" stop-color="#8c8c8c"/></linearGradient><linearGradient id="g8" gradientUnits="userSpaceOnUse" x1="77.48" y1="72.08" x2="101.75" y2="120.63"><stop offset="0.0%" stop-color="#ffffff"/><stop offset="3.8%" stop-color="#ffffff"/><stop offset="14.6%" stop-color="#ffffff"/><stop offset="30.9%" stop-color="#ffffff"/><stop offset="50.0%" stop-color="#dfdfdf"/><stop offset="69.1%" stop-color="#999999"/><stop offset="85.4%" stop-color="#8c8c8c"/><stop offset="96.2%" stop-color="#8c8c8c"/><stop offset="100.0%" stop-color="#8c8c8c"/></linearGradient><linearGradient id="g9" gradientUnits="userSpaceOnUse" x1="100.86" y1="30.15" x2="155.14" y2="30.15"><stop offset="0.0%" stop-color="#f9f9f9"/><stop offset="3.8%" stop-color="#ffffff"/><stop offset="14.6%" stop-color="#fefefe"/><stop offset="30.9%" stop-color="#e5e5e5"/><stop offset="50.0%" stop-color="#c0c0c0"/><stop offset="69.1%" stop-color="#929292"/><stop offset="85.4%" stop-color="#8c8c8c"/><stop offset="96.2%" stop-color="#8c8c8c"/><stop offset="100.0%" stop-color="#8c8c8c"/></linearGradient></defs>
<g stroke-linejoin="round">
<path d="M 64.02 89.96 L 64.02 132.01 L 128.00 164.00 L 128.00 69.98 L 64.02 37.99 L 64.02 89.96 Z M 71.08 75.28 L 76.82 72.41 L 76.82 60.06 L 115.20 79.25 L 115.20 102.75 L 115.20 126.26 L 102.85 120.08 L 95.36 123.83 A 27.14 16.62 -116.57 0 1 68.06 106.38 A 27.14 16.62 -116.57 0 1 71.08 75.28 Z" fill="#d9d9d9" fill-rule="evenodd" stroke="#d9d9d9" stroke-width="0.8"/>
<path d="M 191.98 37.99 L 128.00 69.98 L 128.00 164.00 L 191.98 132.01 L 191.98 37.99 Z" fill="#999999" fill-rule="evenodd" stroke="#999999" stroke-width="0.8"/>
<path d="M 76.82 72.41 L 76.92 72.36 L 77.27 72.19 L 77.95 71.84 L 79.04 71.30 L 80.54 70.55 L 82.37 69.63 L 83.87 68.88 A 27.14 16.62 -116.57 0 1 96.01 69.65 L 76.82 60.06 L 76.82 72.41 Z" fill="#d9d9d9" fill-rule="evenodd" stroke="#d9d9d9" stroke-width="0.8"/>
<path d="M 107.70 117.66 L 105.91 118.56 L 104.47 119.27 L 103.51 119.75 L 103.51 119.75 L 103.00 120.01 L 102.85 120.08 L 115.20 126.26 L 115.20 102.75 A 27.14 16.62 -116.57 0 1 107.70 117.66 Z" fill="#d9d9d9" fill-rule="evenodd" stroke="#d9d9d9" stroke-width="0.8"/>
<path d="M 134.22 9.11 L 128.00 6.00 L 121.76 9.12 A 27.14 13.57 180.00 0 1 134.22 9.11 Z M 100.86 37.99 L 100.86 22.32 A 27.14 13.57 180.00 0 1 101.59 19.20 L 64.02 37.99 L 128.00 69.98 L 191.98 37.99 L 154.41 19.21 A 27.14 13.57 180.00 0 1 155.14 22.32 L 155.14 37.99 A 27.14 13.57 180.00 0 1 100.86 37.99 Z" fill="#ffffff" fill-rule="evenodd" stroke="#ffffff" stroke-width="0.8"/>
<path d="M 76.82 82.79 L 76.82 82.79 A 18.10 11.08 -116.57 0 0 89.95 116.23 A 18.10 11.08 -116.57 0 0 76.82 82.79 Z" fill="url(#g5)" fill-rule="evenodd" stroke="url(#g5)" stroke-width="0.8"/>
<path d="M 102.07 104.69 A 27.14 16.62 -116.57 0 0 64.62 96.06 A 27.14 16.62 -116.57 0 0 102.07 104.69 Z M 95.76 108.93 A 18.10 11.08 -116.57 0 1 70.82 89.49 A 18.10 11.08 -116.57 0 1 95.76 108.93 Z" fill="#d9d9d9" fill-rule="evenodd" stroke="#d9d9d9" stroke-width="0.8"/>
<path d="M 115.20 102.75 L 115.20 79.25 L 96.02 69.65 A 27.14 16.62 -116.57 0 1 115.20 102.75 Z" fill="#d9d9d9" fill-rule="evenodd" stroke="#d9d9d9" stroke-width="0.8"/>
<path d="M 95.36 123.83 L 108.15 117.44 A 27.14 16.62 -116.57 0 0 83.87 68.88 L 71.08 75.28 A 27.14 16.62 -116.57 0 1 95.36 123.83 Z" fill="url(#g8)" fill-rule="evenodd" stroke="url(#g8)" stroke-width="0.8"/>
<path d="M 155.14 37.99 L 155.14 22.32 A 27.14 13.57 180.00 0 1 127.80 35.88 A 27.14 13.57 180.00 0 1 100.86 22.32 L 100.86 37.99 A 27.14 13.57 180.00 0 0 155.14 37.99 Z" fill="url(#g9)" fill-rule="evenodd" stroke="url(#g9)" stroke-width="0.8"/>
<path d="M 115.32 34.32 A 27.14 13.57 180.00 0 0 139.47 10.02 A 27.14 13.57 180.00 0 0 115.32 34.32 Z" fill="#ffffff" fill-rule="evenodd" stroke="#ffffff" stroke-width="0.8"/>
</g>
<g stroke="black" fill="none" stroke-linecap="round">
<line x1="95.36" y1="123.83" x2="108.15" y2="117.44" stroke-width="2.00"/>
<line x1="71.08" y1="75.28" x2="83.87" y2="68.88" stroke-width="2.00"/>
<line x1="155.14" y1="22.32" x2="155.14" y2="37.99" stroke-width="2.00"/>
<line x1="100.86" y1="22.32" x2="100.86" y2="37.99" stroke-width="2.00"/>
<line x1="128.00" y1="6.00" x2="134.15" y2="9.07" stroke-width="2.00"/>
<line x1="154.54" y1="19.27" x2="191.98" y2="37.99" stroke-width="2.00"/>
<line x1="128.00" y1="69.98" x2="191.98" y2="37.99" stroke-width="2.00"/>
<line x1="64.02" y1="37.99" x2="128.00" y2="69.98" stroke-width="2.00"/>
<line x1="64.02" y1="37.99" x2="101.46" y2="19.27" stroke-width="2.00"/>
<line x1="121.85" y1="9.07" x2="128.00" y2="6.00" stroke-width="2.00"/>
<line x1="128.00" y1="164.00" x2="191.98" y2="132.01" stroke-width="2.00"/>
<line x1="64.02" y1="132.01" x2="128.00" y2="164.00" stroke-width="2.00"/>
<line x1="191.98" y1="37.99" x2="191.98" y2="132.01" stroke-width="2.00"/>
<line x1="64.02" y1="37.99" x2="64.02" y2="132.01" stroke-width="2.00"/>
<line x1="128.00" y1="69.98" x2="128.00" y2="164.00" stroke-width="2.00"/>
<path d="M 83.86 68.89 A 27.14 16.62 -116.57 0 1 108.22 117.40" stroke-width="2.00"/>
<path d="M 96.01 105.95 A 18.10 11.08 -116.57 0 1 70.42 93.16 A 18.10 11.08 -116.57 0 1 96.01 105.95" stroke-width="2.00"/>
<path d="M 102.41 109.15 A 27.14 16.62 -116.57 0 1 64.02 89.96 A 27.14 16.62 -116.57 0 1 102.41 109.15" stroke-width="2.00"/>
<path d="M 155.14 37.99 A 27.14 13.57 180.00 0 1 100.86 37.99" stroke-width="2.00"/>
<path d="M 108.81 31.91 A 27.14 13.57 180.00 0 0 147.19 12.72 A 27.14 13.57 180.00 0 0 108.81 31.91" stroke-width="2.00"/>
</g>
</svg>