<svg xmlns="http://www.w3.org/2000/svg" viewBox="0 0 256 170" preserveAspectRatio="xMidYMid meet">
<defs><linearGradient id="g5" gradientUnits="userSpaceOnUse" x1="101.75" y1="120.63" x2="77.48" y2="72.08"><stop offset="-0.0%" stop-color="#ffffff"/><stop offset="3.8%" stop-color="#ffffff"/><stop offset="14.6%" stop-color="#ffffff"/><stop offset="30.9%" stop-color="#ffffff"/><stop offset="50.0%" stop-color="#dfdfdf"/><stop offset="69.1%" stop-color="#999999"/><stop offset="85.4%" stop-color="#8c8c8c"/><stop offset="96.2%" stop-color="#8c8c8c"/><stop offset="100.0%" stop-color="#8c8c8c"/></linearGradient><linearGradient id="g6" gradientUnits="userSpaceOnUse" x1="104.10" y1="109.34" x2="87.92" y2="76.97"><stop offset="-0.0%" stop-color="#ffffff"/><stop offset="3.8%" stop-color="#ffffff"/><stop offset="14.6%" stop-color="#ffffff"/><stop offset="30.9%" stop-color="#ffffff"/><stop offset="50.0%" stop-color="#dfdfdf"/><stop offset="69.1%" stop-color="#999999"/><stop offset="85.4%" stop-color="#8c8c8c"/><stop offset="96.2%" stop-color="#8c8c8c"/><stop offset="100.0%" stop-color="#8c8c8c"/></linearGradient><linearGradient id="g7" gradientUnits="userSpaceOnUse" x1="87.92" y1="76.97" x2="104.10" y2="109.34"><stop offset="0.0%" stop-color="#ffffff"/><stop offset="3.8%" stop-color="#ffffff"/><stop offset="14.6%" stop-color="#ffffff"/><stop offset="30.9%" stop-color="#ffffff"/><stop offset="50.0%" stop-color="#dfdfdf"/><stop offset="69.1%" stop-color="#999999"/><stop offset="85.4%" stop-color="#8c8c8c"/><stop offset="96.2%" stop-color="#8c8c8c"/><stop offset="100.0%" stop-color="#8c8c8c"/></linearGradient><linearGradient id="g10" gradientUnits="userSpaceOnUse" x1="77.48" y1="72.08" x2="101.75" y2="120.63"><stop offset="0.0%" stop-color="#ffffff"/><stop offset="3.8%" stop-color="#ffffff"/><stop offset="14.6%" stop-color="#ffffff"/><stop offset="30.9%" stop-color="#ffffff"/><stop offset="50.0%" stop-color="#dfdfdf"/><stop offset="69.1%" stop-color="#999999"/><stop offset="85.4%" stop-color="#8c8c8c"/><stop offset="96.2%" stop-color="#8c8c8c"/><stop offset="100.0%" stop-color="#8c8c8c"/></linearGradient><linearGradient id="g11" gradientUnits="userSpaceOnUse" x1="155.14" y1="30.15" x2="100.86" y2="30.15"><stop offset="0.0%" stop-color="#f9f9f9"/><stop offset="3.8%" stop-color="#ffffff"/><stop offset="14.6%" stop-color="#fefefe"/><stop offset="30.9%" stop-color="#e5e5e5"/><stop offset="50.0%" stop-color="#c0c0c0"/><stop offset="69.1%" stop-color="#929292"/><stop offset="85.4%" stop-color="#8c8c8c"/><stop offset="96.2%" stop-color="#8c8c8c"/><stop offset="100.0%" stop-color="#8c8c8c"/></linearGradient><linearGradient id="g12" gradientUnits="userSpaceOnUse" x1="100.86" y1="30.15" x2="155.14" y2="30.15"><stop offset="0.0%" stop-color="#f9f9f9"/><stop offset="3.8%" stop-color="#ffffff"/><stop offset="14.6%" stop-color="#fefefe"/><stop offset="30.9%" stop-color="#e5e5e5"/><stop offset="50.0%" stop-color="#c0c0c0"/><stop offset="69.1%" stop-color="#929292"/><stop offset="85.4%" stop-color="#8c8c8c"/><stop offset="96.2%" stop-color="#8c8c8c"/><stop offset="100.0%" stop-color="#8c8c8c"/></linearGradient></defs>
<g stroke-linejoin="round">
<path d="M 64.02 89.96 L 64.02 132.01 L 128.00 164.00 L 128.00 69.98 L 64.02 37.99 Z M 64.05 89.25 L 64.05 88.80 L 64.07 88.50 L 64.09 88.10 L 64.20 86.99 L 64.24 86.56 L 64.26 86.46 L 64.27 86.31 L 64.58 84.61 L 64.61 84.53 L 64.62 84.46 L 64.71 84.15 L 65.01 83.01 L 65.12 82.72 L 65.18 82.50 L 65.33 82.15 L 65.56 81.51 L 65.79 81.03 L 65.92 80.71 L 66.06 80.48 L 66.22 80.14 L 66.65 79.44 L 66.84 79.11 L 66.91 79.02 L 67.00 78.88 L 67.87 77.76 L 67.90 77.74 L 67.92 77.71 L 68.07 77.57 L 68.85 76.79 L 69.02 76.65 L 69.15 76.53 L 69.43 76.34 L 69.92 75.96 L 70.29 75.74 L 70.52 75.58 L 70.75 75.47 L 70.95 75.36 L 71.08 75.28 L 76.82 72.41 L 76.82 60.06 L 115.20 79.25 L 115.20 102.75 L 115.20 126.26 L 102.85 120.08 L 95.36 123.83 L 95.26 123.88 L 95.18 123.92 L 94.89 124.03 L 94.12 124.35 L 93.83 124.43 L 93.63 124.51 L 93.32 124.57 L 92.81 124.71 L 92.28 124.79 L 91.97 124.85 L 91.76 124.86 L 91.44 124.91 L 90.54 124.93 L 90.23 124.94 L 90.14 124.94 L 90.02 124.94 L 88.56 124.80 L 88.48 124.79 L 88.42 124.78 L 88.11 124.72 L 87.06 124.51 L 86.75 124.42 L 86.55 124.37 L 86.19 124.25 L 85.53 124.05 L 84.99 123.83 L 84.65 123.71 L 84.38 123.58 L 83.99 123.43 L 83.13 123.00 L 82.74 122.82 L 82.61 122.74 L 82.44 122.66 L 80.90 121.73 L 80.87 121.71 L 80.83 121.69 L 80.60 121.53 L 79.38 120.67 L 79.13 120.47 L 78.95 120.34 L 78.57 120.02 L 77.88 119.46 L 77.42 119.05 L 77.11 118.78 L 76.82 118.50 L 76.41 118.13 L 75.70 117.41 L 75.32 117.03 L 75.17 116.87 L 74.99 116.68 L 73.62 115.11 L 73.06 114.40 L 72.31 113.45 L 72.15 113.22 L 72.01 113.04 L 71.71 112.59 L 71.08 111.69 L 70.75 111.17 L 70.52 110.83 L 70.29 110.44 L 69.92 109.86 L 69.42 108.98 L 69.15 108.51 L 69.03 108.28 L 68.85 107.96 L 68.06 106.38 L 67.92 106.10 L 67.90 106.05 L 67.87 106.01 L 67.00 104.01 L 66.92 103.80 L 66.84 103.62 L 66.65 103.09 L 66.22 101.98 L 66.06 101.47 L 65.92 101.11 L 65.79 100.66 L 65.56 99.94 L 65.32 99.06 L 65.18 98.58 L 65.12 98.30 L 65.01 97.90 L 64.70 96.45 L 64.62 96.06 L 64.61 95.98 L 64.58 95.86 L 64.27 93.86 L 64.26 93.69 L 64.24 93.57 L 64.20 93.11 L 64.09 91.88 L 64.07 91.46 L 64.05 91.14 L 64.05 90.69 L 64.02 89.96 Z" fill="#d9d9d9" fill-rule="evenodd" stroke="#d9d9d9" stroke-width="0.8"/>
<path d="M 191.98 37.99 L 128.00 69.98 L 128.00 164.00 L 191.98 132.01 Z" fill="#999999" fill-rule="evenodd" stroke="#999999" stroke-width="0.8"/>
<path d="M 76.82 72.41 L 76.92 72.36 L 77.27 72.19 L 77.95 71.84 L 79.04 71.30 L 80.54 70.55 L 82.37 69.63 L 83.87 68.88 L 84.17 68.76 L 84.33 68.67 L 86.42 68.00 L 87.78 67.81 L 88.43 67.79 L 88.67 67.77 L 88.85 67.78 L 89.21 67.78 L 90.67 67.91 L 90.91 67.96 L 91.05 67.97 L 91.30 68.03 L 92.17 68.21 L 93.33 68.56 L 93.51 68.60 L 93.57 68.63 L 93.70 68.67 L 95.24 69.28 L 95.77 69.55 L 96.01 69.65 L 76.82 60.06 Z" fill="#d9d9d9" fill-rule="evenodd" stroke="#d9d9d9" stroke-width="0.8"/>
<path d="M 100.56 118.24 L 100.56 118.24 L 100.55 118.25 L 100.56 118.25 Z M 107.70 117.66 L 105.91 118.56 L 104.47 119.27 L 103.51 119.75 L 103.51 119.75 L 103.00 120.01 L 102.85 120.08 L 115.20 126.26 L 115.20 102.75 L 115.14 104.61 L 115.06 105.44 L 115.04 105.74 L 115.00 105.94 L 114.96 106.40 L 114.65 108.10 L 114.58 108.37 L 114.55 108.51 L 114.47 108.76 L 114.22 109.70 L 113.81 110.82 L 113.74 111.02 L 113.71 111.08 L 113.67 111.20 L 113.01 112.58 L 112.73 113.02 L 112.63 113.22 L 112.50 113.39 L 112.23 113.83 L 111.36 114.95 L 111.29 115.02 L 111.24 115.08 L 111.09 115.22 L 110.38 115.93 L 109.75 116.42 L 109.58 116.56 L 109.49 116.62 L 109.31 116.76 L 108.15 117.44 Z" fill="#d9d9d9" fill-rule="evenodd" stroke="#d9d9d9" stroke-width="0.8"/>
<path d="M 123.62 8.92 L 124.06 8.90 L 124.73 8.85 L 125.74 8.80 L 126.31 8.77 L 126.58 8.77 L 126.91 8.76 L 128.00 8.76 L 128.70 8.76 L 129.01 8.76 L 129.06 8.76 L 129.09 8.76 L 131.27 8.85 L 131.51 8.86 L 131.71 8.87 L 132.26 8.93 L 133.43 9.02 L 133.99 9.09 L 134.22 9.11 L 128.00 6.00 L 121.76 9.12 L 122.57 9.02 L 123.20 8.97 Z M 105.87 30.15 L 105.86 30.15 L 106.30 30.47 L 106.73 30.73 Z M 107.68 31.32 L 108.43 31.71 L 107.28 31.07 Z M 108.98 31.99 L 109.20 32.10 L 110.73 32.78 Z M 112.58 33.49 L 112.81 33.56 L 110.83 32.83 Z M 114.43 34.07 L 114.94 34.20 L 113.49 33.77 Z M 115.75 34.42 L 116.36 34.58 L 117.28 34.77 Z M 118.38 35.01 L 119.99 35.28 L 118.03 34.93 Z M 120.38 35.34 L 120.45 35.35 L 122.57 35.61 L 122.78 35.63 Z M 123.53 35.69 L 124.73 35.79 L 125.24 35.81 Z M 126.91 35.88 L 127.80 35.88 L 126.16 35.85 Z M 120.45 51.02 L 118.38 50.68 L 116.36 50.25 L 114.43 49.74 L 112.58 49.16 L 110.83 48.50 L 109.20 47.77 L 107.68 46.99 L 106.30 46.14 L 105.06 45.24 L 103.97 44.30 L 103.03 43.31 L 102.25 42.28 L 101.65 41.24 L 101.21 40.16 L 100.94 39.08 L 100.86 37.99 L 100.86 22.32 L 100.86 22.22 L 100.86 22.15 L 100.89 21.91 L 100.94 21.23 L 101.01 20.97 L 101.03 20.80 L 101.11 20.55 L 101.21 20.14 L 101.38 19.72 L 101.47 19.46 L 101.55 19.30 L 101.59 19.20 L 64.02 37.99 L 128.00 69.98 L 191.98 37.99 L 154.41 19.21 L 154.45 19.31 L 154.79 20.14 L 154.84 20.32 L 154.89 20.46 L 154.94 20.73 L 155.06 21.23 L 155.08 21.58 L 155.12 21.81 L 155.12 22.02 L 155.14 22.32 L 155.14 37.99 L 155.06 39.08 L 154.79 40.16 L 154.35 41.24 L 153.75 42.28 L 152.97 43.31 L 152.03 44.30 L 150.94 45.24 L 149.70 46.14 L 148.32 46.99 L 146.80 47.77 L 145.17 48.50 L 143.42 49.16 L 141.57 49.74 L 139.64 50.25 L 137.62 50.68 L 135.55 51.02 L 133.43 51.28 L 131.27 51.46 L 129.09 51.55 L 128.00 51.55 L 126.91 51.55 L 124.73 51.46 L 122.57 51.28 Z M 150.13 30.15 L 149.54 30.57 L 149.70 30.47 L 150.14 30.15 Z M 147.93 31.52 L 148.32 31.32 L 149.06 30.86 Z M 147.32 31.84 L 146.11 32.41 L 146.80 32.10 Z M 143.90 33.31 L 145.17 32.83 L 145.46 32.70 Z M 141.41 34.11 L 141.57 34.07 L 143.42 33.49 L 143.50 33.45 Z M 140.79 34.27 L 139.18 34.67 L 139.64 34.58 Z M 136.81 35.14 L 137.62 35.01 L 138.37 34.85 Z M 134.22 35.52 L 135.55 35.35 L 136.00 35.28 Z M 133.58 35.60 L 131.15 35.79 L 131.27 35.79 L 133.43 35.61 Z M 128.66 35.88 L 129.09 35.88 L 130.54 35.82 Z" fill="#ffffff" fill-rule="evenodd" stroke="#ffffff" stroke-width="0.8"/>
<path d="M 100.55 118.25 L 100.13 119.11 L 100.21 118.98 L 100.56 118.25 Z M 70.75 75.47 L 71.71 75.01 L 71.08 75.28 Z M 69.92 75.96 L 69.43 76.34 L 70.29 75.74 Z M 68.85 76.79 L 68.07 77.57 L 69.02 76.65 Z M 67.87 77.76 L 67.00 78.88 L 66.91 79.02 L 67.90 77.74 Z M 66.22 80.14 L 66.06 80.48 L 66.65 79.44 Z M 65.56 81.51 L 65.33 82.15 L 65.79 81.03 Z M 65.01 83.01 L 64.71 84.15 L 65.12 82.72 Z M 64.58 84.61 L 64.27 86.31 L 64.26 86.46 L 64.61 84.53 Z M 64.09 88.10 L 64.07 88.50 L 64.20 86.99 Z M 64.02 89.96 L 64.05 90.69 L 64.05 89.25 Z M 64.09 91.88 L 64.20 93.11 L 64.07 91.46 Z M 64.27 93.86 L 64.58 95.86 L 64.61 95.98 L 64.26 93.69 Z M 65.01 97.90 L 65.12 98.30 L 64.70 96.45 Z M 65.56 99.94 L 65.79 100.66 L 65.32 99.06 Z M 66.22 101.98 L 66.65 103.09 L 66.06 101.47 Z M 67.00 104.01 L 67.87 106.01 L 67.90 106.05 L 66.92 103.80 Z M 68.85 107.96 L 69.03 108.28 L 68.06 106.38 Z M 69.92 109.86 L 70.29 110.44 L 69.42 108.98 Z M 71.08 111.69 L 71.71 112.59 L 70.75 111.17 Z M 72.31 113.45 L 73.62 115.11 L 72.15 113.22 Z M 74.99 116.68 L 75.17 116.87 L 73.62 115.11 Z M 76.41 118.13 L 76.82 118.50 L 75.70 117.41 Z M 77.88 119.46 L 78.57 120.02 L 77.42 119.05 Z M 79.38 120.67 L 80.60 121.53 L 79.13 120.47 Z M 80.90 121.73 L 82.44 122.66 L 82.61 122.74 L 80.87 121.71 Z M 83.99 123.43 L 84.38 123.58 L 83.13 123.00 Z M 85.53 124.05 L 86.19 124.25 L 84.99 123.83 Z M 87.06 124.51 L 88.11 124.72 L 86.75 124.42 Z M 88.56 124.80 L 90.02 124.94 L 90.14 124.94 L 88.48 124.79 Z M 91.44 124.91 L 91.76 124.86 L 90.54 124.93 Z M 92.81 124.71 L 93.32 124.57 L 92.28 124.79 Z M 94.12 124.35 L 94.89 124.03 L 93.83 124.43 Z M 95.36 123.83 L 96.51 123.16 L 96.57 123.11 L 95.26 123.88 Z M 72.31 74.76 L 72.15 74.83 L 73.62 74.40 Z M 75.17 74.20 L 74.99 74.21 L 73.62 74.40 Z M 76.41 74.17 L 75.70 74.19 L 76.82 74.21 Z M 77.88 74.31 L 77.41 74.27 L 78.58 74.45 Z M 99.44 120.23 L 99.86 119.54 L 99.22 120.52 Z M 98.56 121.35 L 98.87 120.95 L 98.15 121.76 Z M 97.58 122.33 L 97.77 122.14 L 96.83 122.91 Z M 90.16 116.19 L 90.29 116.14 L 89.95 116.23 Z M 89.27 116.38 L 88.90 116.43 L 89.05 116.42 Z M 88.12 116.47 L 87.83 116.47 L 87.89 116.48 Z M 86.72 116.38 L 86.48 116.33 L 86.68 116.37 Z M 85.58 116.13 L 85.18 116.01 L 85.44 116.10 Z M 84.40 115.74 L 84.00 115.58 L 84.17 115.66 Z M 83.13 115.17 L 82.82 115.02 L 82.90 115.06 Z M 81.65 114.32 L 81.50 114.22 L 81.63 114.31 Z M 80.49 113.49 L 80.13 113.21 L 80.37 113.41 Z M 79.34 112.54 L 78.96 112.19 L 79.14 112.37 Z M 78.20 111.45 L 77.86 111.10 L 77.95 111.21 Z M 75.84 108.66 L 75.55 108.25 L 75.75 108.55 Z M 74.91 107.31 L 74.59 106.81 L 74.75 107.07 Z M 74.02 105.84 L 73.76 105.37 L 73.84 105.53 Z M 73.07 104.02 L 73.01 103.90 L 73.02 103.92 Z M 72.35 102.38 L 72.17 101.92 L 72.30 102.27 Z M 71.78 100.84 L 71.60 100.28 L 71.69 100.59 Z M 71.29 99.24 L 71.15 98.71 L 71.19 98.90 Z M 70.88 97.48 L 70.81 97.17 L 70.82 97.22 Z M 70.58 95.66 L 70.54 95.24 L 70.56 95.57 Z M 70.45 94.16 L 70.44 93.65 L 70.44 93.95 Z M 70.44 92.67 L 70.45 92.20 L 70.44 92.39 Z M 70.54 91.17 L 70.58 90.82 L 70.56 90.89 Z M 70.81 89.54 L 70.88 89.29 L 70.82 89.49 Z M 71.15 88.33 L 71.29 87.96 L 71.19 88.19 Z M 71.60 87.21 L 71.78 86.83 L 71.69 86.99 Z M 72.17 86.15 L 72.35 85.86 L 72.30 85.93 Z M 73.00 85.01 L 73.11 84.90 L 73.02 84.99 Z M 73.76 84.28 L 74.02 84.08 L 73.84 84.21 Z M 74.59 83.68 L 74.91 83.50 L 74.75 83.57 Z M 91.25 115.77 L 90.99 115.87 L 91.19 115.80 Z" fill="url(#g5)" fill-rule="evenodd" stroke="url(#g5)" stroke-width="0.8"/>
<path d="M 74.59 83.68 L 74.02 84.08 L 73.76 84.28 L 73.11 84.90 L 73.00 85.01 L 72.35 85.86 L 72.17 86.15 L 71.78 86.83 L 71.60 87.21 L 71.29 87.96 L 71.15 88.33 L 70.88 89.29 L 70.81 89.54 L 70.58 90.82 L 70.54 91.17 L 70.45 92.20 L 70.44 92.67 L 70.44 93.65 L 70.45 94.16 L 70.54 95.24 L 70.58 95.66 L 70.81 97.17 L 70.88 97.48 L 71.15 98.71 L 71.29 99.24 L 71.60 100.28 L 71.78 100.84 L 72.17 101.92 L 72.35 102.38 L 73.01 103.90 L 73.07 104.02 L 73.76 105.37 L 74.02 105.84 L 74.59 106.81 L 74.91 107.31 L 75.55 108.25 L 75.84 108.66 L 76.82 109.93 L 77.86 111.10 L 78.20 111.45 L 78.96 112.19 L 79.34 112.54 L 80.13 113.21 L 80.49 113.49 L 81.50 114.22 L 81.65 114.32 L 82.82 115.02 L 83.13 115.17 L 84.00 115.58 L 84.40 115.74 L 85.18 116.01 L 85.58 116.13 L 86.48 116.33 L 86.72 116.38 L 87.83 116.47 L 88.12 116.47 L 88.90 116.43 L 89.27 116.38 L 89.95 116.23 L 90.29 116.14 L 90.99 115.87 L 91.25 115.77 L 92.12 115.26 L 92.27 115.14 L 92.92 114.61 L 93.17 114.36 L 93.65 113.83 L 93.88 113.53 L 94.33 112.86 L 94.49 112.60 L 95.00 111.56 L 95.07 111.37 L 95.40 110.41 L 95.51 110.00 L 95.70 109.17 L 95.79 108.70 L 95.91 107.78 L 95.95 107.36 L 96.01 105.96 L 96.01 105.95 L 96.01 105.95 L 95.95 104.49 L 95.91 104.03 L 95.79 102.98 L 95.70 102.42 L 95.51 101.41 L 95.40 100.88 L 95.07 99.62 L 94.99 99.32 L 94.49 97.78 L 94.32 97.35 L 93.89 96.27 L 93.64 95.71 L 93.18 94.72 L 92.92 94.19 L 92.31 93.09 L 92.11 92.75 L 91.25 91.37 L 90.99 91.01 L 90.29 90.05 L 89.96 89.62 L 89.25 88.77 L 88.91 88.38 L 88.12 87.54 L 87.83 87.25 L 86.72 86.24 L 86.47 86.03 L 85.59 85.35 L 85.17 85.06 L 84.41 84.56 L 83.98 84.31 L 83.14 83.86 L 82.82 83.70 L 81.65 83.22 L 81.50 83.17 L 80.49 82.89 L 80.13 82.82 L 79.34 82.70 L 78.96 82.66 L 78.20 82.65 L 77.86 82.65 L 76.82 82.79 L 76.82 82.79 L 75.84 83.07 L 75.55 83.19 L 74.91 83.50 Z" fill="url(#g6)" fill-rule="evenodd" stroke="url(#g6)" stroke-width="0.8"/>
<path d="M 78.20 82.65 L 77.95 82.64 L 77.86 82.65 Z M 79.34 82.70 L 79.14 82.66 L 78.96 82.66 Z M 80.49 82.89 L 80.37 82.86 L 80.13 82.82 Z M 81.65 83.22 L 81.63 83.21 L 81.50 83.17 Z M 83.14 83.86 L 82.90 83.73 L 82.82 83.70 Z M 84.41 84.56 L 84.17 84.41 L 83.98 84.31 Z M 85.59 85.35 L 85.44 85.23 L 85.17 85.06 Z M 86.72 86.24 L 86.68 86.20 L 86.47 86.03 Z M 88.12 87.54 L 87.89 87.31 L 87.83 87.25 Z M 89.25 88.77 L 89.05 88.53 L 88.91 88.38 Z M 90.29 90.05 L 90.16 89.86 L 89.96 89.62 Z M 91.25 91.37 L 91.19 91.29 L 90.99 91.01 Z M 92.31 93.09 L 92.15 92.81 L 92.11 92.75 Z M 93.18 94.72 L 93.02 94.38 L 92.92 94.19 Z M 93.89 96.27 L 93.79 96.01 L 93.64 95.71 Z M 94.49 97.78 L 94.45 97.68 L 94.32 97.35 Z M 95.07 99.62 L 95.01 99.36 L 94.99 99.32 Z M 95.51 101.41 L 95.44 101.05 L 95.40 100.88 Z M 95.79 102.98 L 95.76 102.72 L 95.70 102.42 Z M 95.95 104.49 L 95.95 104.36 L 95.91 104.03 Z M 95.91 107.78 L 95.95 107.48 L 95.95 107.36 Z M 95.70 109.17 L 95.76 108.93 L 95.79 108.70 Z M 95.40 110.41 L 95.44 110.29 L 95.51 110.00 Z M 95.00 111.56 L 95.01 111.54 L 95.07 111.37 Z M 94.33 112.86 L 94.45 112.67 L 94.49 112.60 Z M 93.65 113.83 L 93.79 113.67 L 93.88 113.53 Z M 92.92 114.61 L 93.02 114.53 L 93.17 114.36 Z M 92.12 115.26 L 92.15 115.24 L 92.27 115.14 Z M 102.38 110.21 L 102.41 109.15 L 102.37 110.21 Z M 75.84 83.07 L 75.75 83.10 L 75.55 83.19 Z M 88.14 79.31 L 87.06 78.44 L 86.77 78.24 Z M 90.02 80.98 L 88.56 79.65 L 88.47 79.58 L 90.14 81.10 Z M 91.76 82.79 L 91.44 82.43 L 90.54 81.50 Z M 93.32 84.64 L 92.81 84.00 L 92.28 83.39 Z M 94.87 86.73 L 94.12 85.66 L 93.83 85.29 Z M 96.51 89.25 L 95.36 87.42 L 95.27 87.29 L 96.57 89.35 Z M 97.77 91.52 L 97.58 91.15 L 96.84 89.83 Z M 98.86 93.78 L 98.56 93.11 L 98.16 92.30 Z M 99.86 96.20 L 99.44 95.10 L 99.22 94.62 Z M 100.87 99.17 L 100.21 97.13 L 100.13 96.92 L 100.89 99.22 Z M 101.49 101.55 L 101.42 101.22 L 100.98 99.58 Z M 101.95 103.88 L 101.85 103.25 L 101.65 102.30 Z M 102.26 106.28 L 102.16 105.26 L 102.07 104.69 Z M 102.35 107.23 L 102.32 106.95 L 102.41 109.15 Z M 101.10 73.05 L 100.98 72.94 L 100.73 72.75 Z M 115.04 99.61 L 115.00 99.36 L 115.06 99.92 Z M 103.36 75.11 L 103.17 74.94 L 103.60 75.38 Z M 114.47 96.03 L 114.58 96.51 L 114.55 96.34 Z M 105.58 77.57 L 105.61 77.60 L 105.64 77.64 L 105.61 77.60 Z M 112.63 89.72 L 112.51 89.42 L 112.73 90.02 Z M 113.71 92.93 L 113.81 93.28 L 113.74 93.03 Z M 107.46 80.04 L 107.85 80.60 L 107.70 80.35 Z M 109.48 83.17 L 109.75 83.64 L 109.58 83.32 Z M 111.09 86.19 L 111.28 86.57 L 111.24 86.46 Z" fill="url(#g7)" fill-rule="evenodd" stroke="url(#g7)" stroke-width="0.8"/>
<path d="M 102.07 104.69 L 101.95 103.88 L 101.65 102.30 L 101.49 101.55 L 100.98 99.58 L 100.89 99.22 L 100.13 96.92 L 99.86 96.20 L 99.22 94.62 L 98.86 93.78 L 98.16 92.30 L 97.77 91.52 L 96.84 89.83 L 96.57 89.35 L 95.27 87.29 L 94.87 86.73 L 93.83 85.29 L 93.32 84.64 L 92.28 83.39 L 91.76 82.79 L 90.54 81.50 L 90.14 81.10 L 88.47 79.58 L 88.14 79.31 L 86.77 78.24 L 86.17 77.82 L 84.99 77.05 L 84.39 76.69 L 83.11 76.02 L 82.61 75.77 L 80.87 75.06 L 80.59 74.97 L 79.13 74.56 L 78.58 74.45 L 77.41 74.27 L 76.82 74.21 L 75.70 74.19 L 75.17 74.20 L 73.62 74.40 L 72.15 74.83 L 71.71 75.01 L 70.52 75.58 L 69.15 76.53 L 67.92 77.71 L 66.84 79.11 L 65.92 80.71 L 65.18 82.50 L 64.62 84.46 L 64.24 86.56 L 64.05 88.80 L 64.05 91.14 L 64.24 93.57 L 64.62 96.06 L 65.18 98.58 L 65.92 101.11 L 66.84 103.62 L 67.92 106.10 L 69.15 108.51 L 70.52 110.83 L 72.01 113.04 L 73.62 115.11 L 75.32 117.03 L 77.11 118.78 L 78.95 120.34 L 80.83 121.69 L 82.74 122.82 L 84.65 123.71 L 86.55 124.37 L 88.42 124.78 L 90.23 124.94 L 91.97 124.85 L 93.63 124.51 L 95.18 123.92 L 96.57 123.11 L 96.83 122.91 L 97.77 122.14 L 98.15 121.76 L 98.87 120.95 L 99.22 120.52 L 99.86 119.54 L 100.13 119.11 L 100.89 117.56 L 100.98 117.31 L 101.49 115.84 L 101.65 115.24 L 101.95 113.97 L 102.07 113.28 L 102.26 111.88 L 102.32 111.27 L 102.41 109.15 L 102.32 106.95 L 102.26 106.28 Z M 95.76 108.93 L 95.44 110.29 L 95.01 111.54 L 94.45 112.67 L 93.79 113.67 L 93.02 114.53 L 92.15 115.24 L 91.19 115.80 L 90.16 116.19 L 89.05 116.42 L 87.89 116.48 L 86.68 116.37 L 85.44 116.10 L 84.17 115.66 L 82.90 115.06 L 81.63 114.31 L 80.37 113.41 L 79.14 112.37 L 77.95 111.21 L 76.82 109.93 L 75.75 108.55 L 74.75 107.07 L 73.84 105.53 L 73.02 103.92 L 72.30 102.27 L 71.69 100.59 L 71.19 98.90 L 70.82 97.22 L 70.56 95.57 L 70.44 93.95 L 70.44 92.39 L 70.56 90.89 L 70.82 89.49 L 71.19 88.19 L 71.69 86.99 L 72.30 85.93 L 73.02 84.99 L 73.84 84.21 L 74.75 83.57 L 75.75 83.10 L 76.82 82.79 L 77.95 82.64 L 79.14 82.66 L 80.37 82.86 L 81.63 83.21 L 82.90 83.73 L 84.17 84.41 L 85.44 85.23 L 86.68 86.20 L 87.89 87.31 L 89.05 88.53 L 90.16 89.86 L 91.19 91.29 L 92.15 92.81 L 93.02 94.38 L 93.79 96.01 L 94.45 97.68 L 95.01 99.36 L 95.44 101.05 L 95.76 102.72 L 95.95 104.36 L 96.01 105.95 L 95.95 107.48 Z" fill="#d9d9d9" fill-rule="evenodd" stroke="#d9d9d9" stroke-width="0.8"/>
<path d="M 98.33 70.98 L 98.46 71.07 L 98.52 71.11 L 98.68 71.23 L 99.85 72.05 L 100.73 72.75 L 100.98 72.94 L 101.10 73.05 L 101.35 73.25 L 102.82 74.58 L 103.17 74.94 L 103.36 75.11 L 103.60 75.38 L 104.24 76.04 L 105.58 77.57 L 105.61 77.60 L 107.70 80.35 L 109.58 83.32 L 111.24 86.46 L 112.63 89.72 L 113.74 93.03 L 114.55 96.34 L 114.58 96.51 L 114.65 96.85 L 114.96 98.86 L 115.00 99.36 L 115.04 99.61 L 115.06 99.92 L 115.14 100.83 L 115.20 102.75 L 115.20 79.25 L 96.02 69.65 L 96.25 69.79 L 96.78 70.06 Z" fill="#d9d9d9" fill-rule="evenodd" stroke="#d9d9d9" stroke-width="0.8"/>
<path d="M 72.31 74.76 L 73.62 74.40 L 74.99 74.21 L 76.41 74.17 L 77.88 74.31 L 79.38 74.61 L 80.90 75.06 L 82.44 75.68 L 83.99 76.45 L 85.53 77.38 L 87.06 78.44 L 88.56 79.65 L 90.02 80.98 L 91.44 82.43 L 92.81 84.00 L 94.12 85.66 L 95.36 87.42 L 96.51 89.25 L 97.58 91.15 L 98.56 93.11 L 99.44 95.10 L 100.21 97.13 L 100.87 99.17 L 101.42 101.22 L 101.85 103.25 L 102.16 105.26 L 102.35 107.23 L 102.41 109.15 L 102.35 111.01 L 102.16 112.80 L 101.85 114.50 L 101.42 116.10 L 100.87 117.60 L 100.21 118.98 L 99.44 120.23 L 98.56 121.35 L 97.58 122.33 L 96.51 123.16 L 95.36 123.83 L 108.15 117.44 L 109.31 116.76 L 110.38 115.93 L 111.36 114.95 L 112.23 113.83 L 113.01 112.58 L 113.67 111.20 L 114.22 109.70 L 114.65 108.10 L 114.96 106.40 L 115.14 104.61 L 115.20 102.75 L 115.14 100.83 L 114.96 98.86 L 114.65 96.85 L 114.47 96.03 L 113.81 93.28 L 113.71 92.93 L 112.73 90.02 L 112.51 89.42 L 111.28 86.57 L 111.09 86.19 L 109.75 83.64 L 109.48 83.17 L 107.85 80.60 L 107.46 80.04 L 105.64 77.64 L 105.61 77.60 L 104.24 76.04 L 102.82 74.58 L 101.35 73.25 L 99.85 72.05 L 98.33 70.98 L 96.78 70.06 L 95.24 69.28 L 93.70 68.67 L 92.17 68.21 L 90.67 67.91 L 89.21 67.78 L 87.78 67.81 L 86.42 68.00 L 84.56 68.59 L 83.87 68.88 L 71.08 75.28 Z" fill="url(#g10)" fill-rule="evenodd" stroke="url(#g10)" stroke-width="0.8"/>
<path d="M 154.94 20.73 L 155.08 21.58 L 155.06 21.23 Z M 154.79 20.14 L 154.45 19.31 L 154.84 20.32 Z M 154.35 19.07 L 153.75 18.02 L 153.66 17.91 L 154.37 19.10 Z M 152.97 17.00 L 152.74 16.75 L 153.43 17.61 Z M 152.03 16.01 L 151.58 15.62 L 152.38 16.37 Z M 150.94 15.06 L 150.10 14.45 L 151.16 15.25 Z M 149.70 14.16 L 148.32 13.32 L 148.21 13.26 L 149.77 14.22 Z M 146.80 12.53 L 146.45 12.37 L 147.77 13.03 Z M 145.17 11.80 L 144.51 11.56 L 145.80 12.09 Z M 143.42 11.15 L 142.31 10.80 L 143.82 11.30 Z M 141.57 10.56 L 139.64 10.06 L 139.55 10.04 L 141.72 10.61 Z M 137.62 9.63 L 137.26 9.57 L 139.05 9.93 Z M 135.55 9.28 L 134.83 9.19 L 136.42 9.43 Z M 133.43 9.02 L 132.26 8.93 L 133.99 9.09 Z M 131.27 8.85 L 129.09 8.76 L 129.06 8.76 L 131.51 8.86 Z M 126.91 8.76 L 126.58 8.77 L 128.70 8.76 Z M 124.73 8.85 L 124.06 8.90 L 125.74 8.80 Z M 122.57 9.02 L 121.53 9.15 L 123.20 8.97 Z M 120.45 9.28 L 118.57 9.60 L 120.74 9.25 Z M 116.36 10.06 L 116.12 10.12 L 118.38 9.63 Z M 114.43 10.56 L 113.92 10.72 L 115.43 10.30 Z M 112.58 11.15 L 111.79 11.45 L 113.18 10.96 Z M 110.83 11.80 L 109.56 12.37 L 111.13 11.69 Z M 109.20 12.53 L 107.68 13.32 L 107.55 13.40 L 109.25 12.51 Z M 106.30 14.16 L 106.00 14.39 L 107.10 13.68 Z M 105.06 15.06 L 104.61 15.46 L 105.50 14.74 Z M 103.97 16.01 L 103.33 16.68 L 104.19 15.82 Z M 103.03 17.00 L 102.25 18.02 L 102.21 18.10 L 103.08 16.94 Z M 101.65 19.07 L 101.55 19.30 L 102.04 18.39 Z M 101.21 20.14 L 101.11 20.55 L 101.38 19.72 Z M 100.94 21.23 L 100.89 21.91 L 101.01 20.97 Z M 100.86 22.32 L 100.94 23.41 L 100.96 23.46 L 100.86 22.22 Z M 105.87 30.15 L 105.72 30.05 L 105.86 30.15 Z M 150.14 30.15 L 150.94 29.57 L 150.97 29.55 L 150.13 30.15 Z M 155.12 22.02 L 155.10 22.89 L 155.14 22.32 Z M 151.08 29.45 L 152.03 28.62 L 152.19 28.46 Z M 152.52 28.12 L 152.97 27.64 L 153.22 27.32 Z M 153.52 26.92 L 153.75 26.61 L 154.05 26.09 Z M 154.27 25.71 L 154.35 25.57 L 154.76 24.57 Z M 154.79 24.50 L 154.79 24.49 L 155.06 23.41 L 155.07 23.27 Z M 101.01 23.69 L 101.21 24.49 L 101.29 24.70 Z M 101.45 25.10 L 101.65 25.57 L 101.86 25.93 Z M 102.09 26.34 L 102.25 26.61 L 102.69 27.19 Z M 102.94 27.52 L 103.03 27.64 L 103.97 28.62 L 103.99 28.65 Z M 104.09 28.73 L 105.06 29.57 L 105.25 29.71 Z" fill="url(#g11)" fill-rule="evenodd" stroke="url(#g11)" stroke-width="0.8"/>
<path d="M 100.94 39.08 L 101.21 40.16 L 101.65 41.24 L 102.25 42.28 L 103.03 43.31 L 103.97 44.30 L 105.06 45.24 L 106.30 46.14 L 107.68 46.99 L 109.20 47.77 L 110.83 48.50 L 112.58 49.16 L 114.43 49.74 L 116.36 50.25 L 118.38 50.68 L 120.45 51.02 L 122.57 51.28 L 124.73 51.46 L 126.91 51.55 L 129.09 51.55 L 131.27 51.46 L 133.43 51.28 L 135.55 51.02 L 137.62 50.68 L 139.64 50.25 L 141.57 49.74 L 143.42 49.16 L 145.17 48.50 L 146.80 47.77 L 148.32 46.99 L 149.70 46.14 L 150.94 45.24 L 152.03 44.30 L 152.97 43.31 L 153.75 42.28 L 154.35 41.24 L 154.79 40.16 L 155.06 39.08 L 155.14 37.99 L 155.14 22.32 L 155.10 22.89 L 155.09 23.16 L 155.07 23.27 L 155.06 23.41 L 154.79 24.49 L 154.79 24.50 L 154.79 24.51 L 154.76 24.57 L 154.35 25.57 L 154.27 25.71 L 154.22 25.83 L 154.05 26.09 L 153.75 26.61 L 153.52 26.92 L 153.39 27.12 L 153.22 27.32 L 152.97 27.64 L 152.52 28.12 L 152.31 28.36 L 152.19 28.46 L 152.03 28.62 L 151.08 29.45 L 150.98 29.54 L 150.97 29.55 L 150.94 29.57 L 149.70 30.47 L 149.54 30.57 L 149.43 30.65 L 149.06 30.86 L 148.32 31.32 L 147.93 31.52 L 147.66 31.67 L 147.32 31.84 L 146.80 32.10 L 146.11 32.41 L 145.71 32.60 L 145.46 32.70 L 145.17 32.83 L 143.90 33.31 L 143.57 33.43 L 143.50 33.45 L 143.42 33.49 L 141.57 34.07 L 141.41 34.11 L 141.28 34.15 L 140.79 34.27 L 139.64 34.58 L 139.18 34.67 L 138.85 34.76 L 138.37 34.85 L 137.62 35.01 L 136.81 35.14 L 136.32 35.23 L 136.00 35.28 L 135.55 35.35 L 134.22 35.52 L 133.71 35.59 L 133.58 35.60 L 133.43 35.61 L 131.27 35.79 L 131.15 35.79 L 131.04 35.80 L 130.54 35.82 L 129.09 35.88 L 128.66 35.88 L 128.34 35.89 L 127.80 35.88 L 126.91 35.88 L 126.16 35.85 L 125.63 35.84 L 125.24 35.81 L 124.73 35.79 L 123.53 35.69 L 122.95 35.65 L 122.78 35.63 L 122.57 35.61 L 120.45 35.35 L 120.38 35.34 L 120.32 35.33 L 119.99 35.28 L 118.38 35.01 L 118.03 34.93 L 117.77 34.89 L 117.28 34.77 L 116.36 34.58 L 115.75 34.42 L 115.32 34.32 L 114.94 34.20 L 114.43 34.07 L 113.49 33.77 L 112.99 33.62 L 112.81 33.56 L 112.58 33.49 L 110.83 32.83 L 110.83 32.83 L 110.81 32.82 L 110.73 32.78 L 109.20 32.10 L 108.98 31.99 L 108.81 31.91 L 108.43 31.71 L 107.68 31.32 L 107.28 31.07 L 106.99 30.91 L 106.73 30.73 L 106.30 30.47 L 105.72 30.05 L 105.39 29.82 L 105.25 29.71 L 105.06 29.57 L 104.09 28.73 L 104.00 28.66 L 103.99 28.65 L 103.97 28.62 L 103.03 27.64 L 102.94 27.52 L 102.86 27.43 L 102.69 27.19 L 102.25 26.61 L 102.09 26.34 L 101.97 26.16 L 101.86 25.93 L 101.65 25.57 L 101.45 25.10 L 101.33 24.84 L 101.29 24.70 L 101.21 24.49 L 101.01 23.69 L 100.96 23.50 L 100.96 23.46 L 100.94 23.41 L 100.86 22.32 L 100.86 37.99 Z" fill="url(#g12)" fill-rule="evenodd" stroke="url(#g12)" stroke-width="0.8"/>
<path d="M 110.81 32.82 L 112.99 33.62 L 115.32 34.32 L 117.77 34.89 L 120.32 35.33 L 122.95 35.65 L 125.63 35.84 L 128.34 35.89 L 131.04 35.80 L 133.71 35.59 L 136.32 35.23 L 138.85 34.76 L 141.28 34.15 L 143.57 33.43 L 145.71 32.60 L 147.66 31.67 L 149.43 30.65 L 150.98 29.54 L 152.31 28.36 L 153.39 27.12 L 154.22 25.83 L 154.79 24.51 L 155.09 23.16 L 155.12 21.81 L 154.89 20.46 L 154.38 19.13 L 153.62 17.84 L 152.60 16.58 L 151.34 15.38 L 149.84 14.26 L 148.12 13.21 L 146.21 12.25 L 144.12 11.40 L 141.86 10.65 L 139.47 10.02 L 136.97 9.51 L 134.37 9.12 L 131.71 8.87 L 129.01 8.76 L 126.31 8.77 L 123.62 8.92 L 120.97 9.21 L 118.40 9.62 L 115.92 10.16 L 113.56 10.83 L 111.34 11.60 L 109.29 12.48 L 107.43 13.46 L 105.77 14.53 L 104.33 15.68 L 103.12 16.89 L 102.17 18.16 L 101.47 19.46 L 101.03 20.80 L 100.86 22.15 L 100.96 23.50 L 101.33 24.84 L 101.97 26.16 L 102.86 27.43 L 104.00 28.66 L 105.39 29.82 L 106.99 30.91 L 108.81 31.91 Z" fill="#ffffff" fill-rule="evenodd" stroke="#ffffff" stroke-width="0.8"/>
</g>
<g stroke="black" fill="none" stroke-linecap="round">
<path d="M 115.20 102.75 A 27.14 16.62 -116.57 0 1 108.22 117.40" stroke-width="2.00"/>
<path d="M 83.86 68.89 A 27.14 16.62 -116.57 0 1 115.20 102.75" stroke-width="2.00"/>
<path d="M 96.01 105.95 A 18.10 11.08 -116.57 0 1 70.42 93.16 A 18.10 11.08 -116.57 0 1 96.01 105.95" stroke-width="2.00"/>
<path d="M 102.41 109.15 A 27.14 16.62 -116.57 0 1 64.02 89.96 A 27.14 16.62 -116.57 0 1 102.41 109.15" stroke-width="2.00"/>
<path d="M 96.01 105.95 A 18.10 11.08 -116.57 0 1 70.42 93.16 A 18.10 11.08 -116.57 0 1 96.01 105.95" stroke-width="2.00"/>
<line x1="95.36" y1="123.83" x2="108.15" y2="117.44" stroke-width="2.00"/>
<line x1="71.08" y1="75.28" x2="83.87" y2="68.88" stroke-width="2.00"/>
<path d="M 102.41 109.15 A 27.14 16.62 -116.57 0 1 64.02 89.96 A 27.14 16.62 -116.57 0 1 102.41 109.15" stroke-width="2.00"/>
<path d="M 115.20 102.75 A 27.14 16.62 -116.57 0 1 108.22 117.40" stroke-width="2.00"/>
<path d="M 83.86 68.89 A 27.14 16.62 -116.57 0 1 115.20 102.75" stroke-width="2.00"/>
<path d="M 102.41 109.15 A 27.14 16.62 -116.57 0 1 64.02 89.96 A 27.14 16.62 -116.57 0 1 102.41 109.15" stroke-width="2.00"/>
<path d="M 96.01 105.95 A 18.10 11.08 -116.57 0 1 70.42 93.16 A 18.10 11.08 -116.57 0 1 96.01 105.95" stroke-width="2.00"/>
<path d="M 108.81 47.58 A 27.14 13.57 180.00 0 0 155.14 37.99" stroke-width="2.00"/>
<path d="M 100.86 37.99 A 27.14 13.57 180.00 0 0 108.81 47.58" stroke-width="2.00"/>
<path d="M 108.81 31.91 A 27.14 13.57 180.00 0 0 147.19 12.72 A 27.14 13.57 180.00 0 0 108.81 31.91" stroke-width="2.00"/>
<line x1="155.14" y1="37.99" x2="155.14" y2="22.32" stroke-width="2.00"/>
<line x1="100.86" y1="37.99" x2="100.86" y2="22.32" stroke-width="2.00"/>
<path d="M 108.81 47.58 A 27.14 13.57 180.00 0 0 155.14 37.99" stroke-width="2.00"/>
<path d="M 100.86 37.99 A 27.14 13.57 180.00 0 0 108.81 47.58" stroke-width="2.00"/>
<path d="M 108.81 31.91 A 27.14 13.57 180.00 0 0 147.19 12.72 A 27.14 13.57 180.00 0 0 108.81 31.91" stroke-width="2.00"/>
<path d="M 108.81 31.91 A 27.14 13.57 180.00 0 0 147.19 12.72 A 27.14 13.57 180.00 0 0 108.81 31.91" stroke-width="2.00"/>
<line x1="128.00" y1="6.00" x2="134.15" y2="9.07" stroke-width="2.00"/>
<line x1="154.54" y1="19.27" x2="191.98" y2="37.99" stroke-width="2.00"/>
<line x1="191.98" y1="37.99" x2="128.00" y2="69.98" stroke-width="2.00"/>
<line x1="128.00" y1="69.98" x2="64.02" y2="37.99" stroke-width="2.00"/>
<line x1="64.02" y1="37.99" x2="101.46" y2="19.27" stroke-width="2.00"/>
<line x1="121.85" y1="9.07" x2="128.00" y2="6.00" stroke-width="2.00"/>
<line x1="191.98" y1="132.01" x2="128.00" y2="164.00" stroke-width="2.00"/>
<line x1="128.00" y1="164.00" x2="64.02" y2="132.01" stroke-width="2.00"/>
<line x1="191.98" y1="132.01" x2="191.98" y2="37.99" stroke-width="2.00"/>
<line x1="64.02" y1="132.01" x2="64.02" y2="37.99" stroke-width="2.00"/>
<line x1="128.00" y1="164.00" x2="128.00" y2="69.98" stroke-width="2.00"/>
</g>
</svg>