<svg xmlns="http://www.w3.org/2000/svg" viewBox="0 0 256 170" preserveAspectRatio="xMidYMid meet">
<defs><linearGradient id="g10" gradientUnits="userSpaceOnUse" x1="77.23" y1="24.35" x2="123.84" y2="24.35"><stop offset="0.0%" stop-color="#9cb8a8"/><stop offset="3.8%" stop-color="#a3c0b0"/><stop offset="14.6%" stop-color="#9fbbab"/><stop offset="30.9%" stop-color="#90a99b"/><stop offset="50.0%" stop-color="#788d81"/><stop offset="69.1%" stop-color="#5c6c63"/><stop offset="85.4%" stop-color="#58675f"/><stop offset="96.2%" stop-color="#58675f"/><stop offset="100.0%" stop-color="#58675f"/></linearGradient><linearGradient id="g12" gradientUnits="userSpaceOnUse" x1="132.16" y1="51.82" x2="178.77" y2="51.82"><stop offset="0.0%" stop-color="#9cb8a8"/><stop offset="3.8%" stop-color="#a3c0b0"/><stop offset="14.6%" stop-color="#9fbbab"/><stop offset="30.9%" stop-color="#90a99b"/><stop offset="50.0%" stop-color="#788d81"/><stop offset="69.1%" stop-color="#5c6c63"/><stop offset="85.4%" stop-color="#58675f"/><stop offset="96.2%" stop-color="#58675f"/><stop offset="100.0%" stop-color="#58675f"/></linearGradient></defs>
<g stroke-linejoin="round">
<path d="M 74.17 79.07 L 68.95 78.07 L 51.09 69.15 L 51.09 70.72 L 131.84 111.09 L 131.84 147.42 L 131.84 147.42 L 130.01 147.07 L 125.33 146.18 L 132.12 149.58 L 132.12 148.09 L 132.12 147.56 L 132.12 144.53 L 132.12 119.75 L 135.14 112.74 L 160.96 125.65 L 160.96 121.61 L 155.47 121.33 L 118.21 102.71 L 118.21 102.70 L 77.19 82.19 L 77.19 80.69 L 77.19 79.73 L 77.19 76.70 L 77.19 51.92 L 80.21 44.91 L 160.96 85.28 L 160.96 83.27 L 51.09 28.33 L 51.09 30.35 L 76.91 43.26 L 76.91 79.59 L 76.91 79.59 L 74.17 79.07 Z M 156.46 161.75 L 160.96 164.00 L 160.96 161.98 L 156.46 161.75 Z" fill="#88a092" fill-rule="evenodd" stroke="#88a092" stroke-width="0.8"/>
<path d="M 204.91 101.21 L 204.91 103.68 L 210.40 103.96 L 204.91 101.21 Z" fill="#d0f4e0" fill-rule="evenodd" stroke="#d0f4e0" stroke-width="0.8"/>
<path d="M 45.60 36.12 L 45.60 66.40 L 68.95 78.07 L 68.95 47.80 L 45.60 36.12 Z M 155.47 121.33 L 155.47 91.06 L 77.19 51.92 L 77.19 82.19 L 155.47 121.33 Z M 123.88 115.63 L 45.60 76.49 L 45.60 106.77 L 123.88 145.91 L 123.88 115.63 Z M 132.12 150.03 L 155.47 161.70 L 155.47 131.43 L 132.12 119.75 L 132.12 150.03 Z" fill="#88a092" fill-rule="evenodd" stroke="#88a092" stroke-width="0.8"/>
<path d="M 51.09 30.35 L 45.60 36.12 L 68.95 47.80 L 76.91 43.26 L 51.09 30.35 Z M 80.21 44.91 L 77.19 51.92 L 155.47 91.06 L 160.96 85.28 L 80.21 44.91 Z" fill="#d0f4e0" fill-rule="evenodd" stroke="#d0f4e0" stroke-width="0.8"/>
<path d="M 68.95 47.80 L 68.95 78.07 L 76.91 79.59 L 76.91 79.59 L 76.91 43.26 L 68.95 47.80 Z" fill="#607167" fill-rule="evenodd" stroke="#607167" stroke-width="0.8"/>
<path d="M 178.77 47.78 L 178.77 48.23 L 204.91 61.29 L 204.91 63.31 L 210.40 63.59 L 178.77 47.78 Z" fill="#d0f4e0" fill-rule="evenodd" stroke="#d0f4e0" stroke-width="0.8"/>
<path d="M 51.09 70.72 L 45.60 76.49 L 123.88 115.63 L 131.84 111.09 L 51.09 70.72 Z M 135.14 112.74 L 132.12 119.75 L 155.47 131.43 L 160.96 125.65 L 135.14 112.74 Z" fill="#d0f4e0" fill-rule="evenodd" stroke="#d0f4e0" stroke-width="0.8"/>
<path d="M 155.47 121.33 L 160.96 121.61 L 160.96 125.65 L 155.47 131.43 L 155.47 161.70 L 160.96 161.98 L 160.96 164.00 L 204.91 142.03 L 204.91 140.01 L 210.40 134.23 L 210.40 103.96 L 204.91 103.68 L 204.91 99.64 L 210.40 93.87 L 210.40 63.59 L 204.91 63.31 L 204.91 61.29 L 160.96 83.27 L 160.96 85.28 L 155.47 91.06 L 155.47 121.33 Z" fill="#607167" fill-rule="evenodd" stroke="#607167" stroke-width="0.8"/>
<path d="M 131.84 111.09 L 123.88 115.63 L 123.88 145.91 L 131.84 147.42 L 131.84 111.09 Z" fill="#607167" fill-rule="evenodd" stroke="#607167" stroke-width="0.8"/>
<path d="M 132.16 58.55 L 132.16 49.66 L 132.16 45.09 A 23.31 11.65 -180.00 0 1 149.88 33.78 L 123.84 20.76 L 123.84 31.08 A 23.31 11.65 -180.00 0 1 101.47 42.72 A 23.31 11.65 -180.00 0 1 77.30 32.02 A 23.31 11.65 -180.00 0 1 77.23 31.08 L 77.23 17.62 A 23.31 11.65 -180.00 0 1 77.85 14.95 L 51.09 28.33 L 160.96 83.27 L 149.41 69.79 A 23.31 11.65 -180.00 0 1 132.16 58.55 Z M 149.41 69.79 L 160.96 83.27 L 204.91 61.29 L 178.77 48.23 L 178.77 58.55 A 23.31 11.65 -180.00 0 1 156.41 70.19 A 23.31 11.65 -180.00 0 1 149.41 69.79 Z" fill="#d0f4e0" fill-rule="evenodd" stroke="#d0f4e0" stroke-width="0.8"/>
<path d="M 123.84 31.08 L 123.84 17.62 A 23.31 11.65 -180.00 0 1 100.67 29.27 A 23.31 11.65 -180.00 0 1 77.27 18.12 A 23.31 11.65 -180.00 0 1 77.23 17.62 L 77.23 31.08 A 23.31 11.65 -180.00 0 0 99.59 42.72 A 23.31 11.65 -180.00 0 0 123.76 32.02 A 23.31 11.65 -180.00 0 0 123.84 31.08 Z" fill="url(#g10)" fill-rule="evenodd" stroke="url(#g10)" stroke-width="0.8"/>
<path d="M 119.95 24.07 A 23.31 11.65 -180.00 0 0 114.84 8.42 A 23.31 11.65 -180.00 0 0 83.25 9.80 A 23.31 11.65 -180.00 0 0 83.65 25.66 A 23.31 11.65 -180.00 0 0 115.29 26.64 A 23.31 11.65 -180.00 0 0 119.95 24.07 Z" fill="#d0f4e0" fill-rule="evenodd" stroke="#d0f4e0" stroke-width="0.8"/>
<path d="M 178.77 58.55 L 178.77 45.09 A 23.31 11.65 -180.00 0 1 155.66 56.73 A 23.31 11.65 -180.00 0 1 132.20 45.59 A 23.31 11.65 -180.00 0 1 132.16 45.09 L 132.16 58.55 A 23.31 11.65 -180.00 0 0 154.53 70.19 A 23.31 11.65 -180.00 0 0 178.70 59.48 A 23.31 11.65 -180.00 0 0 178.77 58.55 Z" fill="url(#g12)" fill-rule="evenodd" stroke="url(#g12)" stroke-width="0.8"/>
<path d="M 174.88 51.53 A 23.31 11.65 -180.00 0 0 169.77 35.89 A 23.31 11.65 -180.00 0 0 138.19 37.27 A 23.31 11.65 -180.00 0 0 138.58 53.12 A 23.31 11.65 -180.00 0 0 170.22 54.11 A 23.31 11.65 -180.00 0 0 174.88 51.53 Z" fill="#d0f4e0" fill-rule="evenodd" stroke="#d0f4e0" stroke-width="0.8"/>
<path d="M 76.19 82.15 L 76.19 80.47 L 70.77 79.44 L 76.19 82.15 Z" fill="#000000" fill-rule="evenodd" stroke="#000000" stroke-width="0.8"/>
<path d="M 132.84 111.14 L 132.84 115.54 L 134.22 112.35 L 134.24 112.32 L 134.25 112.30 L 134.26 112.28 L 134.27 112.26 L 134.28 112.23 L 134.29 112.21 L 134.31 112.19 L 134.32 112.17 L 134.34 112.15 L 134.35 112.13 L 134.37 112.11 L 134.38 112.10 L 134.40 112.08 L 134.41 112.05 L 134.43 112.04 L 134.44 112.03 L 134.47 112.01 L 134.49 111.99 L 134.50 111.97 L 134.50 111.97 L 132.84 111.14 Z" fill="#000000" fill-rule="evenodd" stroke="#000000" stroke-width="0.8"/>
<path d="M 77.91 43.15 L 77.91 43.16 L 77.91 43.20 L 77.91 43.23 L 77.91 43.25 L 77.91 43.26 L 77.91 47.71 L 79.29 44.51 L 79.30 44.49 L 79.31 44.46 L 79.32 44.44 L 79.33 44.42 L 79.35 44.40 L 79.36 44.38 L 79.37 44.36 L 79.39 44.34 L 79.40 44.32 L 79.42 44.30 L 79.43 44.28 L 79.44 44.26 L 79.46 44.24 L 79.48 44.22 L 79.50 44.21 L 79.51 44.19 L 79.53 44.17 L 79.55 44.15 L 79.57 44.14 L 79.58 44.13 L 79.61 44.11 L 79.63 44.09 L 79.65 44.08 L 79.67 44.07 L 79.69 44.05 L 79.71 44.04 L 79.73 44.03 L 79.75 44.02 L 79.78 44.01 L 79.80 43.99 L 79.82 43.99 L 79.84 43.98 L 79.87 43.97 L 79.89 43.96 L 79.91 43.95 L 79.93 43.95 L 79.96 43.94 L 79.99 43.93 L 80.01 43.93 L 80.03 43.92 L 80.04 43.92 L 77.80 42.80 L 77.81 42.82 L 77.83 42.85 L 77.83 42.85 L 77.83 42.85 L 77.83 42.87 L 77.84 42.88 L 77.85 42.91 L 77.86 42.94 L 77.86 42.96 L 77.87 42.97 L 77.88 43.00 L 77.89 43.04 L 77.89 43.04 L 77.89 43.05 L 77.89 43.06 L 77.90 43.10 L 77.91 43.13 L 77.91 43.15 Z" fill="#000000" fill-rule="evenodd" stroke="#000000" stroke-width="0.8"/>
<path d="M 156.69 122.40 L 159.96 124.03 L 159.96 122.56 L 156.69 122.40 Z" fill="#000000" fill-rule="evenodd" stroke="#000000" stroke-width="0.8"/>
<path d="M 75.71 17.63 L 75.79 17.68 L 75.87 17.74 L 75.94 17.80 L 76.01 17.87 L 76.06 17.95 L 76.11 18.04 L 76.15 18.12 L 76.19 18.21 L 76.21 18.31 L 76.22 18.41 L 76.23 18.50 L 76.23 17.62 L 76.23 17.62 L 76.23 17.61 L 76.23 17.40 L 76.23 17.37 L 76.24 17.16 L 76.25 17.13 L 76.26 16.93 L 76.27 16.89 L 76.27 16.86 L 74.79 17.60 L 74.87 17.57 L 74.96 17.54 L 75.06 17.52 L 75.15 17.50 L 75.25 17.50 L 75.34 17.51 L 75.44 17.52 L 75.53 17.55 L 75.62 17.58 L 75.71 17.63 Z" fill="#000000" fill-rule="evenodd" stroke="#000000" stroke-width="0.8"/>
<path d="M 78.68 24.29 L 78.76 24.23 L 78.85 24.19 L 78.95 24.16 L 79.04 24.14 L 79.14 24.12 L 79.24 24.12 L 79.34 24.13 L 79.44 24.14 L 79.53 24.17 L 79.62 24.20 L 79.71 24.25 L 79.80 24.30 L 79.87 24.35 L 79.70 24.21 L 79.69 24.20 L 79.49 24.02 L 79.47 24.01 L 79.28 23.83 L 79.26 23.82 L 79.08 23.64 L 79.06 23.62 L 78.88 23.44 L 78.86 23.42 L 78.69 23.24 L 78.67 23.22 L 78.50 23.04 L 78.49 23.02 L 78.33 22.83 L 78.31 22.82 L 78.23 22.71 L 78.23 25.11 L 78.23 25.02 L 78.25 24.92 L 78.27 24.83 L 78.31 24.73 L 78.35 24.65 L 78.40 24.56 L 78.46 24.48 L 78.52 24.41 L 78.60 24.34 L 78.68 24.29 Z" fill="#000000" fill-rule="evenodd" stroke="#000000" stroke-width="0.8"/>
<path d="M 79.31 44.46 L 79.32 44.44 L 79.33 44.42 L 79.35 44.40 L 79.36 44.38 L 79.37 44.36 L 79.39 44.34 L 79.40 44.32 L 79.42 44.30 L 79.43 44.28 L 79.44 44.26 L 79.46 44.24 L 79.48 44.22 L 79.50 44.21 L 79.51 44.19 L 79.53 44.17 L 79.55 44.15 L 79.57 44.14 L 79.58 44.13 L 79.61 44.11 L 79.63 44.09 L 79.65 44.08 L 79.67 44.07 L 79.69 44.05 L 79.71 44.04 L 79.73 44.03 L 79.75 44.02 L 79.78 44.01 L 79.80 43.99 L 79.82 43.99 L 79.84 43.98 L 79.87 43.97 L 79.89 43.96 L 79.91 43.95 L 79.93 43.95 L 79.96 43.94 L 79.99 43.93 L 80.01 43.93 L 80.03 43.92 L 80.04 43.92 L 77.80 42.80 L 77.81 42.82 L 77.83 42.85 L 77.83 42.85 L 77.83 42.85 L 77.83 42.87 L 77.84 42.88 L 77.85 42.91 L 77.86 42.94 L 77.86 42.96 L 77.87 42.97 L 77.88 43.00 L 77.89 43.04 L 77.89 43.04 L 77.89 43.05 L 77.89 43.06 L 77.90 43.10 L 77.91 43.13 L 77.91 43.15 L 77.91 43.16 L 77.91 43.20 L 77.91 43.23 L 77.91 43.25 L 77.91 43.26 L 77.91 47.71 L 79.29 44.51 L 79.30 44.49 L 79.31 44.46 Z" fill="#000000" fill-rule="evenodd" stroke="#000000" stroke-width="0.8"/>
<path d="M 75.46 45.86 L 75.54 45.92 L 75.61 45.99 L 75.68 46.06 L 75.74 46.14 L 75.79 46.22 L 75.83 46.31 L 75.87 46.41 L 75.89 46.50 L 75.91 46.60 L 75.91 46.70 L 75.91 44.98 L 74.42 45.83 L 74.51 45.79 L 74.60 45.75 L 74.69 45.73 L 74.79 45.71 L 74.89 45.70 L 74.99 45.70 L 75.09 45.72 L 75.19 45.74 L 75.28 45.77 L 75.37 45.81 L 75.46 45.86 Z" fill="#000000" fill-rule="evenodd" stroke="#000000" stroke-width="0.8"/>
<path d="M 81.00 46.66 L 81.10 46.65 L 81.19 46.64 L 81.29 46.65 L 81.38 46.66 L 81.48 46.68 L 81.57 46.71 L 81.65 46.75 L 80.71 46.28 L 80.29 47.25 L 80.33 47.16 L 80.38 47.08 L 80.44 47.00 L 80.50 46.93 L 80.57 46.87 L 80.65 46.81 L 80.73 46.76 L 80.82 46.72 L 80.91 46.69 L 81.00 46.66 Z" fill="#000000" fill-rule="evenodd" stroke="#000000" stroke-width="0.8"/>
<path d="M 78.78 51.07 L 78.77 50.97 L 78.78 50.87 L 78.79 50.77 L 78.82 50.67 L 78.85 50.58 L 78.48 51.45 L 79.32 51.87 L 79.24 51.82 L 79.15 51.76 L 79.08 51.70 L 79.01 51.62 L 78.95 51.54 L 78.89 51.45 L 78.85 51.36 L 78.82 51.27 L 78.79 51.17 L 78.78 51.07 Z" fill="#000000" fill-rule="evenodd" stroke="#000000" stroke-width="0.8"/>
<path d="M 78.62 54.33 L 78.70 54.28 L 78.79 54.24 L 78.88 54.20 L 78.97 54.18 L 79.07 54.16 L 79.17 54.16 L 79.26 54.16 L 79.36 54.17 L 79.45 54.19 L 79.55 54.22 L 79.63 54.26 L 78.19 53.54 L 78.19 55.15 L 78.19 55.06 L 78.21 54.96 L 78.23 54.87 L 78.26 54.78 L 78.30 54.69 L 78.35 54.60 L 78.41 54.53 L 78.47 54.45 L 78.54 54.39 L 78.62 54.33 Z" fill="#000000" fill-rule="evenodd" stroke="#000000" stroke-width="0.8"/>
<path d="M 46.62 65.36 L 46.61 65.27 L 46.60 65.16 L 46.60 65.78 L 47.15 66.06 L 47.07 66.01 L 46.98 65.95 L 46.91 65.89 L 46.84 65.81 L 46.78 65.73 L 46.73 65.65 L 46.68 65.56 L 46.65 65.46 L 46.62 65.36 Z" fill="#000000" fill-rule="evenodd" stroke="#000000" stroke-width="0.8"/>
<path d="M 51.69 72.18 L 51.79 72.20 L 51.88 72.23 L 51.97 72.27 L 51.31 71.94 L 50.81 72.47 L 50.87 72.41 L 50.95 72.35 L 51.03 72.30 L 51.12 72.25 L 51.21 72.22 L 51.30 72.19 L 51.40 72.18 L 51.50 72.17 L 51.59 72.17 L 51.69 72.18 Z" fill="#000000" fill-rule="evenodd" stroke="#000000" stroke-width="0.8"/>
<path d="M 75.47 78.00 L 75.39 78.05 L 75.30 78.10 L 75.21 78.13 L 75.11 78.15 L 75.02 78.17 L 74.92 78.17 L 74.82 78.17 L 74.72 78.16 L 75.91 78.38 L 75.91 77.17 L 75.91 77.27 L 75.89 77.37 L 75.87 77.46 L 75.84 77.56 L 75.80 77.64 L 75.75 77.73 L 75.69 77.81 L 75.62 77.88 L 75.55 77.94 L 75.47 78.00 Z" fill="#000000" fill-rule="evenodd" stroke="#000000" stroke-width="0.8"/>
<path d="M 70.77 79.44 L 76.19 82.15 L 76.19 80.47 L 70.77 79.44 Z" fill="#000000" fill-rule="evenodd" stroke="#000000" stroke-width="0.8"/>
<path d="M 78.19 80.96 L 78.19 81.58 L 78.74 81.85 L 78.65 81.80 L 78.57 81.75 L 78.49 81.68 L 78.42 81.61 L 78.36 81.53 L 78.31 81.44 L 78.27 81.35 L 78.23 81.25 L 78.21 81.16 L 78.19 81.06 L 78.19 80.96 Z" fill="#000000" fill-rule="evenodd" stroke="#000000" stroke-width="0.8"/>
<path d="M 122.03 24.14 L 122.12 24.16 L 122.22 24.19 L 122.30 24.23 L 122.39 24.29 L 122.47 24.34 L 122.54 24.41 L 122.61 24.48 L 122.67 24.56 L 122.72 24.65 L 122.76 24.73 L 122.80 24.83 L 122.82 24.92 L 122.83 25.02 L 122.84 25.11 L 122.84 22.71 L 122.76 22.82 L 122.74 22.83 L 122.58 23.02 L 122.56 23.04 L 122.39 23.22 L 122.38 23.24 L 122.20 23.42 L 122.19 23.44 L 122.01 23.62 L 121.99 23.64 L 121.80 23.82 L 121.79 23.83 L 121.59 24.01 L 121.58 24.02 L 121.38 24.20 L 121.36 24.21 L 121.19 24.36 L 121.27 24.30 L 121.36 24.25 L 121.44 24.20 L 121.54 24.17 L 121.63 24.14 L 121.73 24.13 L 121.83 24.12 L 121.93 24.12 L 122.03 24.14 Z" fill="#000000" fill-rule="evenodd" stroke="#000000" stroke-width="0.8"/>
<path d="M 122.45 143.50 L 122.36 143.55 L 122.28 143.59 L 122.19 143.62 L 122.09 143.65 L 122.00 143.66 L 121.90 143.67 L 121.80 143.67 L 121.71 143.66 L 121.61 143.63 L 121.52 143.60 L 121.43 143.57 L 122.88 144.29 L 122.88 142.67 L 122.88 142.77 L 122.86 142.86 L 122.84 142.96 L 122.81 143.05 L 122.77 143.14 L 122.72 143.22 L 122.66 143.30 L 122.59 143.37 L 122.52 143.44 L 122.45 143.50 Z" fill="#000000" fill-rule="evenodd" stroke="#000000" stroke-width="0.8"/>
<path d="M 125.20 23.23 L 125.27 23.17 L 125.36 23.12 L 125.44 23.08 L 125.53 23.04 L 125.63 23.02 L 125.72 23.00 L 125.82 23.00 L 125.92 23.00 L 126.01 23.01 L 126.11 23.03 L 126.20 23.06 L 126.29 23.10 L 124.84 22.38 L 124.84 24.00 L 124.84 23.90 L 124.86 23.80 L 124.88 23.71 L 124.91 23.62 L 124.95 23.53 L 125.00 23.45 L 125.06 23.37 L 125.12 23.30 L 125.20 23.23 Z" fill="#000000" fill-rule="evenodd" stroke="#000000" stroke-width="0.8"/>
<path d="M 133.70 51.70 L 133.79 51.66 L 133.88 51.63 L 133.97 51.60 L 134.07 51.59 L 134.17 51.59 L 134.27 51.59 L 134.37 51.61 L 134.46 51.63 L 134.56 51.67 L 134.65 51.71 L 134.73 51.76 L 134.81 51.83 L 134.64 51.68 L 134.62 51.67 L 134.42 51.49 L 134.41 51.48 L 134.21 51.30 L 134.20 51.28 L 134.01 51.10 L 133.99 51.09 L 133.81 50.90 L 133.80 50.89 L 133.62 50.70 L 133.60 50.69 L 133.44 50.50 L 133.42 50.49 L 133.26 50.30 L 133.24 50.28 L 133.16 50.18 L 133.16 52.58 L 133.16 52.49 L 133.18 52.39 L 133.20 52.30 L 133.24 52.20 L 133.28 52.11 L 133.33 52.03 L 133.39 51.95 L 133.46 51.88 L 133.53 51.81 L 133.61 51.75 L 133.70 51.70 Z" fill="#000000" fill-rule="evenodd" stroke="#000000" stroke-width="0.8"/>
<path d="M 134.29 112.21 L 134.31 112.19 L 134.32 112.17 L 134.34 112.15 L 134.35 112.13 L 134.37 112.11 L 134.38 112.10 L 134.40 112.08 L 134.41 112.05 L 134.43 112.04 L 134.44 112.03 L 134.47 112.01 L 134.49 111.99 L 134.50 111.97 L 134.50 111.97 L 132.84 111.14 L 132.84 115.54 L 134.22 112.35 L 134.24 112.32 L 134.25 112.30 L 134.26 112.28 L 134.27 112.26 L 134.28 112.23 L 134.29 112.21 Z" fill="#000000" fill-rule="evenodd" stroke="#000000" stroke-width="0.8"/>
<path d="M 130.30 113.65 L 130.39 113.70 L 130.47 113.75 L 130.54 113.82 L 130.61 113.89 L 130.67 113.97 L 130.72 114.06 L 130.77 114.15 L 130.80 114.24 L 130.83 114.34 L 130.84 114.44 L 130.84 114.53 L 130.84 112.81 L 129.36 113.66 L 129.44 113.62 L 129.53 113.59 L 129.63 113.56 L 129.73 113.54 L 129.82 113.53 L 129.92 113.54 L 130.02 113.55 L 130.12 113.57 L 130.21 113.61 L 130.30 113.65 Z" fill="#000000" fill-rule="evenodd" stroke="#000000" stroke-width="0.8"/>
<path d="M 135.94 114.50 L 136.03 114.48 L 136.12 114.48 L 136.22 114.48 L 136.32 114.49 L 136.41 114.51 L 136.50 114.54 L 136.59 114.58 L 135.64 114.11 L 135.22 115.08 L 135.26 115.00 L 135.31 114.91 L 135.37 114.84 L 135.44 114.77 L 135.51 114.70 L 135.58 114.65 L 135.67 114.60 L 135.75 114.56 L 135.84 114.52 L 135.94 114.50 Z" fill="#000000" fill-rule="evenodd" stroke="#000000" stroke-width="0.8"/>
<path d="M 133.71 118.81 L 133.71 118.70 L 133.73 118.61 L 133.75 118.51 L 133.78 118.42 L 133.41 119.28 L 134.25 119.70 L 134.17 119.65 L 134.09 119.59 L 134.01 119.53 L 133.94 119.45 L 133.88 119.38 L 133.83 119.29 L 133.78 119.20 L 133.75 119.10 L 133.72 119.01 L 133.71 118.91 L 133.71 118.81 Z" fill="#000000" fill-rule="evenodd" stroke="#000000" stroke-width="0.8"/>
<path d="M 133.55 122.16 L 133.64 122.11 L 133.72 122.07 L 133.81 122.04 L 133.91 122.01 L 134.00 122.00 L 134.10 121.99 L 134.20 121.99 L 134.29 122.00 L 134.39 122.02 L 134.48 122.06 L 134.57 122.09 L 133.12 121.37 L 133.12 122.99 L 133.12 122.89 L 133.14 122.80 L 133.16 122.70 L 133.19 122.61 L 133.24 122.52 L 133.28 122.44 L 133.34 122.36 L 133.41 122.29 L 133.48 122.22 L 133.55 122.16 Z" fill="#000000" fill-rule="evenodd" stroke="#000000" stroke-width="0.8"/>
<path d="M 125.00 144.73 L 124.96 144.64 L 124.92 144.54 L 124.90 144.45 L 124.89 144.35 L 124.88 144.25 L 124.88 145.08 L 125.69 145.23 L 125.60 145.21 L 125.50 145.18 L 125.41 145.14 L 125.33 145.09 L 125.25 145.03 L 125.18 144.96 L 125.11 144.89 L 125.05 144.81 L 125.00 144.73 Z" fill="#000000" fill-rule="evenodd" stroke="#000000" stroke-width="0.8"/>
<path d="M 130.32 145.89 L 130.23 145.93 L 130.14 145.96 L 130.05 145.99 L 129.95 146.00 L 129.85 146.01 L 129.75 146.00 L 129.66 145.99 L 130.84 146.22 L 130.84 145.01 L 130.84 145.10 L 130.83 145.20 L 130.80 145.30 L 130.77 145.39 L 130.73 145.48 L 130.68 145.56 L 130.62 145.64 L 130.56 145.71 L 130.48 145.78 L 130.41 145.84 L 130.32 145.89 Z" fill="#000000" fill-rule="evenodd" stroke="#000000" stroke-width="0.8"/>
<path d="M 133.12 148.79 L 133.12 149.41 L 133.67 149.69 L 133.59 149.64 L 133.50 149.58 L 133.43 149.51 L 133.36 149.44 L 133.30 149.36 L 133.24 149.27 L 133.20 149.18 L 133.16 149.09 L 133.14 148.99 L 133.12 148.89 L 133.12 148.79 Z" fill="#000000" fill-rule="evenodd" stroke="#000000" stroke-width="0.8"/>
<path d="M 144.72 32.80 L 144.73 32.90 L 144.73 32.99 L 144.72 33.09 L 144.71 33.18 L 144.68 33.28 L 144.64 33.37 L 144.60 33.45 L 144.54 33.53 L 144.48 33.61 L 144.41 33.68 L 144.34 33.74 L 144.26 33.79 L 144.18 33.84 L 144.09 33.88 L 144.00 33.91 L 144.26 33.84 L 144.27 33.83 L 144.63 33.74 L 144.64 33.74 L 145.01 33.65 L 145.02 33.64 L 145.38 33.56 L 145.40 33.55 L 145.76 33.47 L 145.78 33.47 L 146.15 33.39 L 146.16 33.38 L 146.53 33.31 L 146.54 33.30 L 146.65 33.28 L 144.19 32.05 L 144.27 32.10 L 144.35 32.15 L 144.42 32.21 L 144.49 32.28 L 144.55 32.36 L 144.60 32.44 L 144.64 32.52 L 144.68 32.61 L 144.71 32.71 L 144.72 32.80 Z" fill="#000000" fill-rule="evenodd" stroke="#000000" stroke-width="0.8"/>
<path d="M 154.03 159.29 L 153.95 159.34 L 153.86 159.38 L 153.77 159.42 L 153.68 159.44 L 153.58 159.46 L 153.49 159.46 L 153.39 159.46 L 153.29 159.45 L 153.20 159.43 L 153.11 159.40 L 153.02 159.36 L 154.47 160.08 L 154.47 158.47 L 154.46 158.56 L 154.45 158.66 L 154.43 158.75 L 154.39 158.84 L 154.35 158.93 L 154.30 159.01 L 154.25 159.09 L 154.18 159.16 L 154.11 159.23 L 154.03 159.29 Z" fill="#000000" fill-rule="evenodd" stroke="#000000" stroke-width="0.8"/>
<path d="M 156.59 160.29 L 156.55 160.19 L 156.51 160.10 L 156.49 160.00 L 156.47 159.90 L 156.47 159.81 L 156.47 160.75 L 157.41 160.80 L 157.31 160.79 L 157.22 160.77 L 157.12 160.74 L 157.03 160.70 L 156.94 160.65 L 156.85 160.59 L 156.78 160.53 L 156.71 160.45 L 156.65 160.37 L 156.59 160.29 Z" fill="#000000" fill-rule="evenodd" stroke="#000000" stroke-width="0.8"/>
<path d="M 180.21 50.64 L 180.29 50.59 L 180.38 50.54 L 180.47 50.51 L 180.56 50.48 L 180.66 50.47 L 180.75 50.46 L 180.85 50.46 L 180.94 50.48 L 181.04 50.50 L 181.13 50.53 L 181.22 50.57 L 179.77 49.84 L 179.77 51.46 L 179.78 51.37 L 179.79 51.27 L 179.81 51.17 L 179.85 51.08 L 179.89 51.00 L 179.94 50.91 L 179.99 50.83 L 180.06 50.76 L 180.13 50.70 L 180.21 50.64 Z" fill="#000000" fill-rule="evenodd" stroke="#000000" stroke-width="0.8"/>
<path d="M 177.05 51.63 L 177.15 51.66 L 177.24 51.70 L 177.32 51.75 L 177.40 51.81 L 177.48 51.88 L 177.54 51.95 L 177.60 52.03 L 177.65 52.11 L 177.69 52.20 L 177.73 52.30 L 177.75 52.39 L 177.77 52.49 L 177.77 52.58 L 177.77 50.18 L 177.69 50.28 L 177.67 50.30 L 177.51 50.49 L 177.50 50.50 L 177.33 50.69 L 177.31 50.70 L 177.14 50.89 L 177.12 50.90 L 176.94 51.09 L 176.93 51.10 L 176.74 51.28 L 176.72 51.30 L 176.53 51.48 L 176.51 51.49 L 176.31 51.67 L 176.30 51.68 L 176.13 51.82 L 176.21 51.76 L 176.29 51.71 L 176.38 51.67 L 176.47 51.63 L 176.56 51.61 L 176.66 51.59 L 176.76 51.59 L 176.86 51.59 L 176.96 51.60 L 177.05 51.63 Z" fill="#000000" fill-rule="evenodd" stroke="#000000" stroke-width="0.8"/>
<path d="M 201.42 61.15 L 201.43 61.24 L 201.43 61.34 L 201.42 61.44 L 201.41 61.53 L 201.38 61.62 L 201.34 61.71 L 201.30 61.80 L 201.24 61.88 L 201.18 61.95 L 201.12 62.02 L 201.04 62.09 L 200.97 62.14 L 200.88 62.19 L 202.67 61.29 L 200.88 60.40 L 200.97 60.45 L 201.04 60.50 L 201.12 60.56 L 201.18 60.63 L 201.24 60.71 L 201.30 60.79 L 201.34 60.87 L 201.38 60.96 L 201.41 61.05 L 201.42 61.15 Z" fill="#000000" fill-rule="evenodd" stroke="#000000" stroke-width="0.8"/>
<path d="M 203.69 63.50 L 203.78 63.55 L 203.85 63.61 L 203.93 63.67 L 203.99 63.74 L 204.05 63.82 L 204.04 63.80 L 204.02 63.78 L 204.01 63.76 L 204.00 63.74 L 203.99 63.72 L 203.98 63.69 L 203.97 63.67 L 203.96 63.65 L 203.96 63.62 L 203.95 63.60 L 203.94 63.58 L 203.94 63.55 L 203.93 63.53 L 203.93 63.51 L 203.92 63.48 L 203.92 63.45 L 203.91 63.43 L 203.91 63.41 L 203.91 63.38 L 203.91 63.36 L 203.91 63.33 L 203.91 63.31 L 203.91 62.91 L 202.77 63.48 L 202.85 63.44 L 202.95 63.41 L 203.04 63.39 L 203.14 63.38 L 203.23 63.38 L 203.33 63.38 L 203.42 63.40 L 203.52 63.42 L 203.61 63.46 L 203.69 63.50 Z" fill="#000000" fill-rule="evenodd" stroke="#000000" stroke-width="0.8"/>
<path d="M 209.27 65.01 L 209.32 65.10 L 209.35 65.19 L 209.38 65.29 L 209.39 65.39 L 209.40 65.49 L 209.40 64.54 L 208.45 64.49 L 208.55 64.50 L 208.65 64.52 L 208.75 64.55 L 208.84 64.59 L 208.93 64.64 L 209.01 64.70 L 209.09 64.77 L 209.16 64.84 L 209.22 64.92 L 209.27 65.01 Z" fill="#000000" fill-rule="evenodd" stroke="#000000" stroke-width="0.8"/>
<path d="M 209.27 105.37 L 209.32 105.47 L 209.35 105.56 L 209.38 105.66 L 209.39 105.76 L 209.40 105.86 L 209.40 104.91 L 208.46 104.86 L 208.55 104.87 L 208.65 104.89 L 208.75 104.92 L 208.84 104.96 L 208.93 105.01 L 209.01 105.07 L 209.09 105.13 L 209.16 105.21 L 209.22 105.29 L 209.27 105.37 Z" fill="#000000" fill-rule="evenodd" stroke="#000000" stroke-width="0.8"/>
<path d="M 162.17 161.79 L 162.09 161.74 L 162.01 161.69 L 161.94 161.62 L 161.88 161.55 L 161.82 161.47 L 161.83 161.49 L 161.84 161.51 L 161.85 161.53 L 161.87 161.56 L 161.87 161.58 L 161.88 161.60 L 161.89 161.62 L 161.90 161.65 L 161.91 161.67 L 161.92 161.69 L 161.92 161.72 L 161.93 161.74 L 161.94 161.76 L 161.94 161.79 L 161.94 161.81 L 161.95 161.84 L 161.95 161.86 L 161.96 161.88 L 161.96 161.91 L 161.96 161.94 L 161.96 161.96 L 161.96 161.98 L 161.96 162.38 L 163.10 161.81 L 163.01 161.85 L 162.92 161.88 L 162.83 161.90 L 162.73 161.91 L 162.63 161.92 L 162.54 161.91 L 162.44 161.90 L 162.35 161.87 L 162.26 161.84 L 162.17 161.79 Z" fill="#000000" fill-rule="evenodd" stroke="#000000" stroke-width="0.8"/>
</g>
<defs><clipPath id="sclip"><path d="M 77.12 14.20 L 50.09 27.71 L 50.09 29.95 L 44.60 35.73 L 44.60 67.02 L 50.09 69.77 L 50.09 70.32 L 44.60 76.09 L 44.60 107.39 L 123.56 146.87 L 125.00 147.14 L 131.12 150.20 L 131.12 150.65 L 155.21 162.69 L 156.20 162.74 L 160.96 165.12 L 205.91 142.65 L 205.91 140.41 L 211.40 134.63 L 211.40 103.34 L 205.91 100.59 L 205.91 100.04 L 211.40 94.27 L 211.40 62.97 L 179.77 47.16 L 179.77 45.05 L 179.77 45.01 L 179.78 44.92 L 179.74 44.62 L 179.72 44.40 L 179.70 44.07 L 179.69 44.03 L 179.69 43.99 L 179.63 43.76 L 179.61 43.57 L 179.52 43.30 L 179.44 42.98 L 179.42 42.90 L 179.36 42.75 L 179.26 42.51 L 179.17 42.24 L 179.08 42.07 L 179.00 41.86 L 178.98 41.83 L 178.96 41.79 L 178.75 41.44 L 178.64 41.25 L 178.49 40.97 L 178.44 40.91 L 178.41 40.84 L 178.35 40.78 L 178.31 40.71 L 178.04 40.37 L 177.67 39.88 L 177.62 39.82 L 177.59 39.78 L 177.54 39.73 L 177.50 39.67 L 177.18 39.36 L 176.80 38.95 L 176.65 38.82 L 176.53 38.70 L 176.49 38.67 L 176.46 38.64 L 176.22 38.45 L 176.21 38.45 L 176.21 38.44 L 176.20 38.44 L 176.18 38.42 L 175.79 38.08 L 175.58 37.93 L 175.41 37.79 L 175.26 37.69 L 175.14 37.59 L 174.92 37.45 L 174.65 37.26 L 174.39 37.09 L 174.15 36.93 L 173.85 36.76 L 173.64 36.62 L 173.53 36.57 L 173.40 36.49 L 173.06 36.31 L 172.76 36.14 L 172.41 35.97 L 172.04 35.78 L 172.00 35.77 L 171.96 35.74 L 171.69 35.63 L 171.65 35.61 L 171.25 35.42 L 170.92 35.28 L 170.58 35.14 L 170.32 35.04 L 170.13 34.96 L 169.89 34.87 L 169.63 34.77 L 169.34 34.67 L 169.03 34.55 L 168.51 34.39 L 168.17 34.27 L 168.05 34.24 L 167.91 34.19 L 167.66 34.12 L 167.40 34.04 L 166.65 33.84 L 166.10 33.69 L 166.10 33.69 L 166.09 33.69 L 165.91 33.65 L 165.69 33.59 L 164.85 33.41 L 164.23 33.27 L 164.07 33.24 L 163.92 33.21 L 163.91 33.21 L 163.89 33.21 L 163.79 33.19 L 162.91 33.04 L 162.29 32.94 L 162.19 32.92 L 162.09 32.91 L 161.83 32.88 L 161.63 32.84 L 161.15 32.79 L 160.83 32.75 L 160.30 32.68 L 160.26 32.68 L 160.23 32.68 L 159.69 32.63 L 159.31 32.59 L 158.89 32.57 L 158.34 32.52 L 158.32 32.52 L 158.27 32.52 L 157.76 32.50 L 157.47 32.49 L 156.95 32.46 L 156.71 32.46 L 156.43 32.45 L 156.32 32.45 L 156.24 32.44 L 155.67 32.45 L 154.76 32.45 L 154.58 32.45 L 154.55 32.45 L 154.51 32.45 L 154.33 32.45 L 154.19 32.45 L 153.57 32.48 L 152.60 32.52 L 152.39 32.54 L 152.21 32.55 L 152.17 32.55 L 152.15 32.55 L 151.56 32.61 L 150.79 32.67 L 124.84 19.69 L 124.84 17.58 L 124.84 17.54 L 124.84 17.45 L 124.81 17.15 L 124.79 16.98 L 124.77 16.59 L 124.76 16.56 L 124.76 16.53 L 124.70 16.29 L 124.67 16.10 L 124.59 15.83 L 124.50 15.48 L 124.47 15.40 L 124.44 15.33 L 124.33 15.05 L 124.24 14.78 L 124.15 14.60 L 124.06 14.40 L 124.04 14.36 L 124.02 14.32 L 123.81 13.96 L 123.71 13.78 L 123.56 13.51 L 123.51 13.44 L 123.48 13.38 L 123.42 13.31 L 123.38 13.24 L 123.11 12.89 L 122.74 12.40 L 122.69 12.36 L 122.65 12.31 L 122.61 12.26 L 122.57 12.21 L 122.25 11.89 L 121.86 11.48 L 121.71 11.36 L 121.60 11.24 L 121.56 11.21 L 121.53 11.18 L 121.26 10.96 L 120.85 10.61 L 120.64 10.46 L 120.48 10.32 L 120.33 10.22 L 120.21 10.12 L 119.98 9.98 L 119.72 9.79 L 119.45 9.63 L 119.22 9.47 L 118.93 9.30 L 118.70 9.16 L 118.59 9.10 L 118.47 9.03 L 118.12 8.84 L 117.83 8.68 L 117.49 8.52 L 117.11 8.32 L 117.06 8.29 L 117.03 8.28 L 116.82 8.19 L 116.69 8.13 L 116.32 7.95 L 115.99 7.82 L 115.65 7.67 L 115.39 7.57 L 115.20 7.49 L 114.98 7.41 L 114.70 7.30 L 114.40 7.20 L 114.10 7.09 L 113.59 6.92 L 113.23 6.80 L 113.11 6.77 L 112.98 6.72 L 112.72 6.65 L 112.47 6.57 L 111.77 6.39 L 111.18 6.23 L 111.17 6.22 L 111.16 6.22 L 110.98 6.18 L 110.76 6.12 L 109.90 5.94 L 109.30 5.80 L 109.14 5.78 L 108.99 5.75 L 108.97 5.74 L 108.95 5.74 L 108.86 5.72 L 107.91 5.57 L 107.36 5.47 L 107.28 5.46 L 107.16 5.44 L 106.90 5.41 L 106.70 5.38 L 106.20 5.32 L 105.79 5.27 L 105.37 5.22 L 105.33 5.21 L 105.30 5.21 L 104.76 5.17 L 104.38 5.13 L 103.98 5.10 L 103.41 5.06 L 103.36 5.05 L 103.34 5.05 L 103.04 5.04 L 102.50 5.02 L 102.02 4.99 L 101.78 4.99 L 101.49 4.98 L 101.41 4.98 L 101.30 4.98 L 100.55 4.98 L 99.97 4.98 L 99.64 4.98 L 99.60 4.98 L 99.58 4.98 L 99.42 4.99 L 99.25 4.99 L 98.58 5.02 L 97.66 5.06 L 97.44 5.08 L 97.27 5.08 L 97.25 5.08 L 97.22 5.09 L 96.55 5.15 L 95.77 5.21 L 95.48 5.25 L 95.20 5.27 L 95.05 5.29 L 94.94 5.30 L 94.55 5.36 L 93.91 5.44 L 93.54 5.50 L 93.22 5.55 L 92.92 5.60 L 92.66 5.64 L 92.40 5.69 L 92.08 5.75 L 91.69 5.83 L 91.29 5.90 L 90.83 6.01 L 90.79 6.02 L 90.46 6.09 L 90.40 6.10 L 90.31 6.12 L 89.83 6.25 L 89.43 6.34 L 89.06 6.45 L 88.60 6.57 L 88.47 6.61 L 88.34 6.65 L 88.04 6.75 L 87.65 6.86 L 87.33 6.97 L 86.97 7.09 L 86.62 7.22 L 86.35 7.31 L 86.16 7.38 L 85.95 7.46 L 85.71 7.56 L 85.42 7.67 L 84.85 7.92 L 84.48 8.07 L 84.42 8.10 L 84.36 8.13 L 84.19 8.21 L 83.96 8.32 L 83.35 8.63 L 82.88 8.87 L 82.83 8.90 L 82.77 8.93 L 82.69 8.98 L 82.60 9.03 L 81.97 9.41 L 81.52 9.67 L 81.44 9.73 L 81.35 9.79 L 81.28 9.84 L 81.22 9.88 L 80.99 10.05 L 80.64 10.30 L 80.30 10.55 L 80.26 10.57 L 80.22 10.61 L 80.02 10.78 L 79.85 10.91 L 79.61 11.13 L 79.41 11.31 L 79.23 11.46 L 79.18 11.51 L 78.90 11.80 L 78.68 12.02 L 78.54 12.19 L 78.33 12.41 L 78.31 12.44 L 78.28 12.46 L 78.06 12.76 L 77.92 12.95 L 77.71 13.20 L 77.66 13.29 L 77.59 13.38 L 77.56 13.44 L 77.51 13.51 L 77.31 13.87 Z" clip-rule="evenodd"/></clipPath></defs>
<g stroke="black" fill="none" stroke-linecap="round" clip-path="url(#sclip)">
<path d="M 77.85 14.95 L 51.09 28.33 L 51.09 30.35 L 45.60 36.12 L 45.60 66.40 L 51.09 69.15 L 51.09 70.72 L 45.60 76.49 L 45.60 106.77 L 123.88 145.91 L 125.33 146.18 L 132.12 149.58 L 132.12 150.03 L 155.47 161.70 L 156.46 161.75 L 160.96 164.00 L 204.91 142.03 L 204.91 140.01 L 210.40 134.23 L 210.40 103.96 L 204.91 101.21 L 204.91 99.64 L 210.40 93.87 L 210.40 63.59 L 178.77 47.78 L 178.77 45.09 A 23.31 11.65 -180.00 0 0 155.67 33.45 A 23.31 11.65 -180.00 0 0 150.61 33.70 L 123.84 20.31 L 123.84 17.62 A 23.31 11.65 -180.00 0 0 100.56 5.98 A 23.31 11.65 -180.00 0 0 77.85 14.95 Z" stroke-width="2.00" stroke-linejoin="miter" stroke-miterlimit="5"/>
<line x1="178.77" y1="45.09" x2="178.77" y2="58.55" stroke-width="2.00"/>
<line x1="132.16" y1="45.09" x2="132.16" y2="58.55" stroke-width="2.00"/>
<line x1="123.84" y1="17.62" x2="123.84" y2="31.08" stroke-width="2.00"/>
<line x1="77.23" y1="17.62" x2="77.23" y2="31.08" stroke-width="2.00"/>
<line x1="123.89" y1="20.78" x2="149.83" y2="33.75" stroke-width="2.00"/>
<line x1="178.82" y1="48.25" x2="204.91" y2="61.29" stroke-width="2.00"/>
<line x1="51.09" y1="28.33" x2="77.81" y2="14.97" stroke-width="2.00"/>
<line x1="51.09" y1="28.33" x2="160.96" y2="83.27" stroke-width="2.00"/>
<line x1="160.96" y1="83.27" x2="204.91" y2="61.29" stroke-width="2.00"/>
<line x1="45.60" y1="36.13" x2="51.09" y2="30.35" stroke-width="2.00"/>
<line x1="45.60" y1="76.49" x2="51.09" y2="70.72" stroke-width="2.00"/>
<line x1="45.60" y1="36.13" x2="45.60" y2="66.40" stroke-width="2.00"/>
<line x1="45.60" y1="76.49" x2="45.60" y2="106.77" stroke-width="2.00"/>
<line x1="51.09" y1="28.33" x2="51.09" y2="30.35" stroke-width="2.00"/>
<line x1="51.09" y1="69.18" x2="51.09" y2="70.72" stroke-width="2.00"/>
<line x1="155.47" y1="161.70" x2="160.96" y2="161.98" stroke-width="2.00"/>
<line x1="155.47" y1="121.33" x2="160.96" y2="121.61" stroke-width="2.00"/>
<line x1="155.47" y1="91.06" x2="160.96" y2="85.28" stroke-width="2.00"/>
<line x1="155.47" y1="131.43" x2="160.96" y2="125.65" stroke-width="2.00"/>
<line x1="160.96" y1="164.00" x2="204.91" y2="142.03" stroke-width="2.00"/>
<line x1="160.96" y1="83.27" x2="160.96" y2="85.28" stroke-width="2.00"/>
<line x1="160.96" y1="121.61" x2="160.96" y2="125.65" stroke-width="2.00"/>
<line x1="160.96" y1="161.98" x2="160.96" y2="164.00" stroke-width="2.00"/>
<line x1="204.91" y1="61.29" x2="204.91" y2="63.31" stroke-width="2.00"/>
<line x1="204.91" y1="99.64" x2="204.91" y2="103.68" stroke-width="2.00"/>
<line x1="204.91" y1="140.01" x2="204.91" y2="142.03" stroke-width="2.00"/>
<line x1="155.47" y1="91.06" x2="155.47" y2="121.33" stroke-width="2.00"/>
<line x1="155.47" y1="131.43" x2="155.47" y2="161.70" stroke-width="2.00"/>
<line x1="210.40" y1="63.59" x2="210.40" y2="93.87" stroke-width="2.00"/>
<line x1="210.40" y1="103.96" x2="210.40" y2="134.23" stroke-width="2.00"/>
<line x1="125.41" y1="146.22" x2="132.11" y2="149.57" stroke-width="2.00"/>
<line x1="156.59" y1="161.81" x2="160.96" y2="164.00" stroke-width="2.00"/>
<line x1="204.91" y1="140.01" x2="210.40" y2="134.23" stroke-width="2.00"/>
<line x1="205.01" y1="101.26" x2="210.40" y2="103.96" stroke-width="2.00"/>
<line x1="204.91" y1="103.68" x2="210.40" y2="103.96" stroke-width="2.00"/>
<line x1="204.91" y1="99.64" x2="210.40" y2="93.87" stroke-width="2.00"/>
<line x1="123.85" y1="20.32" x2="150.51" y2="33.65" stroke-width="2.00"/>
<line x1="178.78" y1="47.78" x2="210.40" y2="63.59" stroke-width="2.00"/>
<line x1="204.91" y1="63.31" x2="210.40" y2="63.59" stroke-width="2.00"/>
<line x1="77.19" y1="51.92" x2="77.19" y2="82.19" stroke-width="2.00"/>
<line x1="45.60" y1="36.13" x2="68.95" y2="47.80" stroke-width="2.00"/>
<line x1="77.19" y1="51.92" x2="155.47" y2="91.06" stroke-width="2.00"/>
<line x1="45.60" y1="66.40" x2="68.95" y2="78.07" stroke-width="2.00"/>
<line x1="77.19" y1="82.19" x2="155.47" y2="121.33" stroke-width="2.00"/>
<line x1="68.95" y1="47.80" x2="68.95" y2="78.07" stroke-width="2.00"/>
<line x1="77.19" y1="51.92" x2="80.21" y2="44.91" stroke-width="2.00"/>
<line x1="51.09" y1="30.35" x2="76.91" y2="43.26" stroke-width="2.00"/>
<line x1="80.21" y1="44.91" x2="160.96" y2="85.28" stroke-width="2.00"/>
<line x1="68.95" y1="47.80" x2="76.91" y2="43.26" stroke-width="2.00"/>
<line x1="68.95" y1="78.07" x2="76.91" y2="79.59" stroke-width="2.00"/>
<line x1="76.91" y1="43.26" x2="76.91" y2="79.59" stroke-width="2.00"/>
<line x1="123.88" y1="115.63" x2="123.88" y2="145.91" stroke-width="2.00"/>
<line x1="45.60" y1="106.77" x2="123.88" y2="145.91" stroke-width="2.00"/>
<line x1="132.12" y1="150.03" x2="155.47" y2="161.70" stroke-width="2.00"/>
<line x1="45.60" y1="76.49" x2="123.88" y2="115.63" stroke-width="2.00"/>
<line x1="132.12" y1="119.75" x2="155.47" y2="131.43" stroke-width="2.00"/>
<line x1="132.12" y1="119.75" x2="132.12" y2="150.03" stroke-width="2.00"/>
<line x1="123.88" y1="145.91" x2="131.85" y2="147.42" stroke-width="2.00"/>
<line x1="123.88" y1="115.63" x2="131.85" y2="111.09" stroke-width="2.00"/>
<line x1="51.09" y1="70.72" x2="131.85" y2="111.09" stroke-width="2.00"/>
<line x1="135.14" y1="112.74" x2="160.96" y2="125.65" stroke-width="2.00"/>
<line x1="132.12" y1="119.75" x2="135.14" y2="112.74" stroke-width="2.00"/>
<line x1="131.85" y1="111.09" x2="131.85" y2="147.42" stroke-width="2.00"/>
<path d="M 178.77 58.55 A 23.31 11.65 -180.00 0 1 155.47 70.20 A 23.31 11.65 -180.00 0 1 132.16 58.55" stroke-width="2.00"/>
<path d="M 171.95 53.33 A 23.31 11.65 -180.00 0 0 171.95 36.85 A 23.31 11.65 -180.00 0 0 138.99 36.85 A 23.31 11.65 -180.00 0 0 138.99 53.33 A 23.31 11.65 -180.00 0 0 171.95 53.33" stroke-width="2.00"/>
<path d="M 123.84 31.08 A 23.31 11.65 -180.00 0 1 112.19 41.17 A 23.31 11.65 -180.00 0 1 88.88 41.17 A 23.31 11.65 -180.00 0 1 77.23 31.08" stroke-width="2.00"/>
<path d="M 117.01 25.86 A 23.31 11.65 -180.00 0 0 117.01 9.38 A 23.31 11.65 -180.00 0 0 84.05 9.38 A 23.31 11.65 -180.00 0 0 84.05 25.86 A 23.31 11.65 -180.00 0 0 117.01 25.86" stroke-width="2.00"/>
</g>
</svg>