<svg xmlns="http://www.w3.org/2000/svg" viewBox="0 0 256 170" preserveAspectRatio="xMidYMid meet">
<defs><linearGradient id="g10" gradientUnits="userSpaceOnUse" x1="77.23" y1="24.35" x2="123.84" y2="24.35"><stop offset="0.0%" stop-color="#9cb8a8"/><stop offset="3.8%" stop-color="#a3c0b0"/><stop offset="14.6%" stop-color="#9fbbab"/><stop offset="30.9%" stop-color="#90a99b"/><stop offset="50.0%" stop-color="#788d81"/><stop offset="69.1%" stop-color="#5c6c63"/><stop offset="85.4%" stop-color="#58675f"/><stop offset="96.2%" stop-color="#58675f"/><stop offset="100.0%" stop-color="#58675f"/></linearGradient><linearGradient id="g12" gradientUnits="userSpaceOnUse" x1="132.16" y1="51.82" x2="178.77" y2="51.82"><stop offset="0.0%" stop-color="#9cb8a8"/><stop offset="3.8%" stop-color="#a3c0b0"/><stop offset="14.6%" stop-color="#9fbbab"/><stop offset="30.9%" stop-color="#90a99b"/><stop offset="50.0%" stop-color="#788d81"/><stop offset="69.1%" stop-color="#5c6c63"/><stop offset="85.4%" stop-color="#58675f"/><stop offset="96.2%" stop-color="#58675f"/><stop offset="100.0%" stop-color="#58675f"/></linearGradient></defs>
<g stroke-linejoin="round">
<path d="M 74.17 79.07 L 68.95 78.07 L 51.09 69.15 L 51.09 70.72 L 131.84 111.09 L 131.84 147.42 L 131.84 147.42 L 130.01 147.07 L 125.33 146.18 L 132.12 149.58 L 132.12 148.09 L 132.12 147.56 L 132.12 144.53 L 132.12 119.75 L 135.14 112.74 L 160.96 125.65 L 160.96 121.61 L 155.47 121.33 L 118.21 102.71 L 118.21 102.70 L 77.19 82.19 L 77.19 80.69 L 77.19 79.73 L 77.19 76.70 L 77.19 51.92 L 80.21 44.91 L 160.96 85.28 L 160.96 83.27 L 51.09 28.33 L 51.09 30.35 L 76.91 43.26 L 76.91 79.59 L 76.91 79.59 L 74.17 79.07 Z M 156.46 161.75 L 160.96 164.00 L 160.96 161.98 L 156.46 161.75 Z" fill="#88a092" fill-rule="evenodd" stroke="#88a092" stroke-width="0.8"/>
<path d="M 204.91 101.21 L 204.91 103.68 L 210.40 103.96 L 204.91 101.21 Z" fill="#d0f4e0" fill-rule="evenodd" stroke="#d0f4e0" stroke-width="0.8"/>
<path d="M 45.60 36.12 L 45.60 66.40 L 68.95 78.07 L 68.95 47.80 L 45.60 36.12 Z M 155.47 121.33 L 155.47 91.06 L 77.19 51.92 L 77.19 82.19 L 155.47 121.33 Z M 123.88 115.63 L 45.60 76.49 L 45.60 106.77 L 123.88 145.91 L 123.88 115.63 Z M 132.12 150.03 L 155.47 161.70 L 155.47 131.43 L 132.12 119.75 L 132.12 150.03 Z" fill="#88a092" fill-rule="evenodd" stroke="#88a092" stroke-width="0.8"/>
<path d="M 51.09 30.35 L 45.60 36.12 L 68.95 47.80 L 76.91 43.26 L 51.09 30.35 Z M 80.21 44.91 L 77.19 51.92 L 155.47 91.06 L 160.96 85.28 L 80.21 44.91 Z" fill="#d0f4e0" fill-rule="evenodd" stroke="#d0f4e0" stroke-width="0.8"/>
<path d="M 68.95 47.80 L 68.95 78.07 L 76.91 79.59 L 76.91 79.59 L 76.91 43.26 L 68.95 47.80 Z" fill="#607167" fill-rule="evenodd" stroke="#607167" stroke-width="0.8"/>
<path d="M 178.77 47.78 L 178.77 48.23 L 204.91 61.29 L 204.91 63.31 L 210.40 63.59 L 178.77 47.78 Z" fill="#d0f4e0" fill-rule="evenodd" stroke="#d0f4e0" stroke-width="0.8"/>
<path d="M 51.09 70.72 L 45.60 76.49 L 123.88 115.63 L 131.84 111.09 L 51.09 70.72 Z M 135.14 112.74 L 132.12 119.75 L 155.47 131.43 L 160.96 125.65 L 135.14 112.74 Z" fill="#d0f4e0" fill-rule="evenodd" stroke="#d0f4e0" stroke-width="0.8"/>
<path d="M 155.47 121.33 L 160.96 121.61 L 160.96 125.65 L 155.47 131.43 L 155.47 161.70 L 160.96 161.98 L 160.96 164.00 L 204.91 142.03 L 204.91 140.01 L 210.40 134.23 L 210.40 103.96 L 204.91 103.68 L 204.91 99.64 L 210.40 93.87 L 210.40 63.59 L 204.91 63.31 L 204.91 61.29 L 160.96 83.27 L 160.96 85.28 L 155.47 91.06 L 155.47 121.33 Z" fill="#607167" fill-rule="evenodd" stroke="#607167" stroke-width="0.8"/>
<path d="M 131.84 111.09 L 123.88 115.63 L 123.88 145.91 L 131.84 147.42 L 131.84 111.09 Z" fill="#607167" fill-rule="evenodd" stroke="#607167" stroke-width="0.8"/>
<path d="M 132.16 58.55 L 132.16 49.66 L 132.16 45.09 A 23.31 11.65 -180.00 0 1 149.88 33.78 L 123.84 20.76 L 123.84 31.08 A 23.31 11.65 -180.00 0 1 101.47 42.72 A 23.31 11.65 -180.00 0 1 77.30 32.02 A 23.31 11.65 -180.00 0 1 77.23 31.08 L 77.23 17.62 A 23.31 11.65 -180.00 0 1 77.85 14.95 L 51.09 28.33 L 160.96 83.27 L 149.41 69.79 A 23.31 11.65 -180.00 0 1 132.16 58.55 Z M 149.41 69.79 L 160.96 83.27 L 204.91 61.29 L 178.77 48.23 L 178.77 58.55 A 23.31 11.65 -180.00 0 1 156.41 70.19 A 23.31 11.65 -180.00 0 1 149.41 69.79 Z" fill="#d0f4e0" fill-rule="evenodd" stroke="#d0f4e0" stroke-width="0.8"/>
<path d="M 123.84 31.08 L 123.84 17.62 A 23.31 11.65 -180.00 0 1 100.67 29.27 A 23.31 11.65 -180.00 0 1 77.27 18.12 A 23.31 11.65 -180.00 0 1 77.23 17.62 L 77.23 31.08 A 23.31 11.65 -180.00 0 0 99.59 42.72 A 23.31 11.65 -180.00 0 0 123.76 32.02 A 23.31 11.65 -180.00 0 0 123.84 31.08 Z" fill="url(#g10)" fill-rule="evenodd" stroke="url(#g10)" stroke-width="0.8"/>
<path d="M 119.95 24.07 A 23.31 11.65 -180.00 0 0 114.84 8.42 A 23.31 11.65 -180.00 0 0 83.25 9.80 A 23.31 11.65 -180.00 0 0 83.65 25.66 A 23.31 11.65 -180.00 0 0 115.29 26.64 A 23.31 11.65 -180.00 0 0 119.95 24.07 Z" fill="#d0f4e0" fill-rule="evenodd" stroke="#d0f4e0" stroke-width="0.8"/>
<path d="M 178.77 58.55 L 178.77 45.09 A 23.31 11.65 -180.00 0 1 155.66 56.73 A 23.31 11.65 -180.00 0 1 132.20 45.59 A 23.31 11.65 -180.00 0 1 132.16 45.09 L 132.16 58.55 A 23.31 11.65 -180.00 0 0 154.53 70.19 A 23.31 11.65 -180.00 0 0 178.70 59.48 A 23.31 11.65 -180.00 0 0 178.77 58.55 Z" fill="url(#g12)" fill-rule="evenodd" stroke="url(#g12)" stroke-width="0.8"/>
<path d="M 174.88 51.53 A 23.31 11.65 -180.00 0 0 169.77 35.89 A 23.31 11.65 -180.00 0 0 138.19 37.27 A 23.31 11.65 -180.00 0 0 138.58 53.12 A 23.31 11.65 -180.00 0 0 170.22 54.11 A 23.31 11.65 -180.00 0 0 174.88 51.53 Z" fill="#d0f4e0" fill-rule="evenodd" stroke="#d0f4e0" stroke-width="0.8"/>
<path d="M 76.19 82.15 L 76.19 80.47 L 70.77 79.44 L 76.19 82.15 Z" fill="#000000" fill-rule="evenodd" stroke="#000000" stroke-width="0.8"/>
<path d="M 132.84 111.14 L 132.84 115.54 L 134.22 112.35 L 134.24 112.32 L 134.25 112.30 L 134.26 112.28 L 134.27 112.26 L 134.28 112.23 L 134.29 112.21 L 134.31 112.19 L 134.32 112.17 L 134.34 112.15 L 134.35 112.13 L 134.37 112.11 L 134.38 112.10 L 134.40 112.08 L 134.41 112.05 L 134.43 112.04 L 134.44 112.03 L 134.47 112.01 L 134.49 111.99 L 134.50 111.97 L 134.50 111.97 L 132.84 111.14 Z" fill="#000000" fill-rule="evenodd" stroke="#000000" stroke-width="0.8"/>
<path d="M 77.91 43.15 L 77.91 43.16 L 77.91 43.20 L 77.91 43.23 L 77.91 43.25 L 77.91 43.26 L 77.91 47.71 L 79.29 44.51 L 79.30 44.49 L 79.31 44.46 L 79.32 44.44 L 79.33 44.42 L 79.35 44.40 L 79.36 44.38 L 79.37 44.36 L 79.39 44.34 L 79.40 44.32 L 79.42 44.30 L 79.43 44.28 L 79.44 44.26 L 79.46 44.24 L 79.48 44.22 L 79.50 44.21 L 79.51 44.19 L 79.53 44.17 L 79.55 44.15 L 79.57 44.14 L 79.58 44.13 L 79.61 44.11 L 79.63 44.09 L 79.65 44.08 L 79.67 44.07 L 79.69 44.05 L 79.71 44.04 L 79.73 44.03 L 79.75 44.02 L 79.78 44.01 L 79.80 43.99 L 79.82 43.99 L 79.84 43.98 L 79.87 43.97 L 79.89 43.96 L 79.91 43.95 L 79.93 43.95 L 79.96 43.94 L 79.99 43.93 L 80.01 43.93 L 80.03 43.92 L 80.04 43.92 L 77.80 42.80 L 77.81 42.82 L 77.83 42.85 L 77.83 42.85 L 77.83 42.85 L 77.83 42.87 L 77.84 42.88 L 77.85 42.91 L 77.86 42.94 L 77.86 42.96 L 77.87 42.97 L 77.88 43.00 L 77.89 43.04 L 77.89 43.04 L 77.89 43.05 L 77.89 43.06 L 77.90 43.10 L 77.91 43.13 L 77.91 43.15 Z" fill="#000000" fill-rule="evenodd" stroke="#000000" stroke-width="0.8"/>
<path d="M 156.69 122.40 L 159.96 124.03 L 159.96 122.56 L 156.69 122.40 Z" fill="#000000" fill-rule="evenodd" stroke="#000000" stroke-width="0.8"/>
</g>
<defs><clipPath id="sclip"><path d="M 77.12 14.20 L 50.09 27.71 L 50.09 29.95 L 44.60 35.73 L 44.60 67.02 L 50.09 69.77 L 50.09 70.32 L 44.60 76.09 L 44.60 107.39 L 123.56 146.87 L 125.00 147.14 L 131.12 150.20 L 131.12 150.65 L 155.21 162.69 L 156.20 162.74 L 160.96 165.12 L 205.91 142.65 L 205.91 140.41 L 211.40 134.63 L 211.40 103.34 L 205.91 100.59 L 205.91 100.04 L 211.40 94.27 L 211.40 62.97 L 179.77 47.16 L 179.77 45.05 L 179.77 45.01 L 179.78 44.92 L 179.74 44.62 L 179.72 44.40 L 179.70 44.07 L 179.69 44.03 L 179.69 43.99 L 179.63 43.76 L 179.61 43.57 L 179.52 43.30 L 179.44 42.98 L 179.42 42.90 L 179.36 42.75 L 179.26 42.51 L 179.17 42.24 L 179.08 42.07 L 179.00 41.86 L 178.98 41.83 L 178.96 41.79 L 178.75 41.44 L 178.64 41.25 L 178.49 40.97 L 178.44 40.91 L 178.41 40.84 L 178.35 40.78 L 178.31 40.71 L 178.04 40.37 L 177.67 39.88 L 177.62 39.82 L 177.59 39.78 L 177.54 39.73 L 177.50 39.67 L 177.18 39.36 L 176.80 38.95 L 176.65 38.82 L 176.53 38.70 L 176.49 38.67 L 176.46 38.64 L 176.22 38.45 L 176.21 38.45 L 176.21 38.44 L 176.20 38.44 L 176.18 38.42 L 175.79 38.08 L 175.58 37.93 L 175.41 37.79 L 175.26 37.69 L 175.14 37.59 L 174.92 37.45 L 174.65 37.26 L 174.39 37.09 L 174.15 36.93 L 173.85 36.76 L 173.64 36.62 L 173.53 36.57 L 173.40 36.49 L 173.06 36.31 L 172.76 36.14 L 172.41 35.97 L 172.04 35.78 L 172.00 35.77 L 171.96 35.74 L 171.69 35.63 L 171.65 35.61 L 171.25 35.42 L 170.92 35.28 L 170.58 35.14 L 170.32 35.04 L 170.13 34.96 L 169.89 34.87 L 169.63 34.77 L 169.34 34.67 L 169.03 34.55 L 168.51 34.39 L 168.17 34.27 L 168.05 34.24 L 167.91 34.19 L 167.66 34.12 L 167.40 34.04 L 166.65 33.84 L 166.10 33.69 L 166.10 33.69 L 166.09 33.69 L 165.91 33.65 L 165.69 33.59 L 164.85 33.41 L 164.23 33.27 L 164.07 33.24 L 163.92 33.21 L 163.91 33.21 L 163.89 33.21 L 163.79 33.19 L 162.91 33.04 L 162.29 32.94 L 162.19 32.92 L 162.09 32.91 L 161.83 32.88 L 161.63 32.84 L 161.15 32.79 L 160.83 32.75 L 160.30 32.68 L 160.26 32.68 L 160.23 32.68 L 159.69 32.63 L 159.31 32.59 L 158.89 32.57 L 158.34 32.52 L 158.32 32.52 L 158.27 32.52 L 157.76 32.50 L 157.47 32.49 L 156.95 32.46 L 156.71 32.46 L 156.43 32.45 L 156.32 32.45 L 156.24 32.44 L 155.67 32.45 L 154.76 32.45 L 154.58 32.45 L 154.55 32.45 L 154.51 32.45 L 154.33 32.45 L 154.19 32.45 L 153.57 32.48 L 152.60 32.52 L 152.39 32.54 L 152.21 32.55 L 152.17 32.55 L 152.15 32.55 L 151.56 32.61 L 150.79 32.67 L 124.84 19.69 L 124.84 17.58 L 124.84 17.54 L 124.84 17.45 L 124.81 17.15 L 124.79 16.98 L 124.77 16.59 L 124.76 16.56 L 124.76 16.53 L 124.70 16.29 L 124.67 16.10 L 124.59 15.83 L 124.50 15.48 L 124.47 15.40 L 124.44 15.33 L 124.33 15.05 L 124.24 14.78 L 124.15 14.60 L 124.06 14.40 L 124.04 14.36 L 124.02 14.32 L 123.81 13.96 L 123.71 13.78 L 123.56 13.51 L 123.51 13.44 L 123.48 13.38 L 123.42 13.31 L 123.38 13.24 L 123.11 12.89 L 122.74 12.40 L 122.69 12.36 L 122.65 12.31 L 122.61 12.26 L 122.57 12.21 L 122.25 11.89 L 121.86 11.48 L 121.71 11.36 L 121.60 11.24 L 121.56 11.21 L 121.53 11.18 L 121.26 10.96 L 120.85 10.61 L 120.64 10.46 L 120.48 10.32 L 120.33 10.22 L 120.21 10.12 L 119.98 9.98 L 119.72 9.79 L 119.45 9.63 L 119.22 9.47 L 118.93 9.30 L 118.70 9.16 L 118.59 9.10 L 118.47 9.03 L 118.12 8.84 L 117.83 8.68 L 117.49 8.52 L 117.11 8.32 L 117.06 8.29 L 117.03 8.28 L 116.82 8.19 L 116.69 8.13 L 116.32 7.95 L 115.99 7.82 L 115.65 7.67 L 115.39 7.57 L 115.20 7.49 L 114.98 7.41 L 114.70 7.30 L 114.40 7.20 L 114.10 7.09 L 113.59 6.92 L 113.23 6.80 L 113.11 6.77 L 112.98 6.72 L 112.72 6.65 L 112.47 6.57 L 111.77 6.39 L 111.18 6.23 L 111.17 6.22 L 111.16 6.22 L 110.98 6.18 L 110.76 6.12 L 109.90 5.94 L 109.30 5.80 L 109.14 5.78 L 108.99 5.75 L 108.97 5.74 L 108.95 5.74 L 108.86 5.72 L 107.91 5.57 L 107.36 5.47 L 107.28 5.46 L 107.16 5.44 L 106.90 5.41 L 106.70 5.38 L 106.20 5.32 L 105.79 5.27 L 105.37 5.22 L 105.33 5.21 L 105.30 5.21 L 104.76 5.17 L 104.38 5.13 L 103.98 5.10 L 103.41 5.06 L 103.36 5.05 L 103.34 5.05 L 103.04 5.04 L 102.50 5.02 L 102.02 4.99 L 101.78 4.99 L 101.49 4.98 L 101.41 4.98 L 101.30 4.98 L 100.55 4.98 L 99.97 4.98 L 99.64 4.98 L 99.60 4.98 L 99.58 4.98 L 99.42 4.99 L 99.25 4.99 L 98.58 5.02 L 97.66 5.06 L 97.44 5.08 L 97.27 5.08 L 97.25 5.08 L 97.22 5.09 L 96.55 5.15 L 95.77 5.21 L 95.48 5.25 L 95.20 5.27 L 95.05 5.29 L 94.94 5.30 L 94.55 5.36 L 93.91 5.44 L 93.54 5.50 L 93.22 5.55 L 92.92 5.60 L 92.66 5.64 L 92.40 5.69 L 92.08 5.75 L 91.69 5.83 L 91.29 5.90 L 90.83 6.01 L 90.79 6.02 L 90.46 6.09 L 90.40 6.10 L 90.31 6.12 L 89.83 6.25 L 89.43 6.34 L 89.06 6.45 L 88.60 6.57 L 88.47 6.61 L 88.34 6.65 L 88.04 6.75 L 87.65 6.86 L 87.33 6.97 L 86.97 7.09 L 86.62 7.22 L 86.35 7.31 L 86.16 7.38 L 85.95 7.46 L 85.71 7.56 L 85.42 7.67 L 84.85 7.92 L 84.48 8.07 L 84.42 8.10 L 84.36 8.13 L 84.19 8.21 L 83.96 8.32 L 83.35 8.63 L 82.88 8.87 L 82.83 8.90 L 82.77 8.93 L 82.69 8.98 L 82.60 9.03 L 81.97 9.41 L 81.52 9.67 L 81.44 9.73 L 81.35 9.79 L 81.28 9.84 L 81.22 9.88 L 80.99 10.05 L 80.64 10.30 L 80.30 10.55 L 80.26 10.57 L 80.22 10.61 L 80.02 10.78 L 79.85 10.91 L 79.61 11.13 L 79.41 11.31 L 79.23 11.46 L 79.18 11.51 L 78.90 11.80 L 78.68 12.02 L 78.54 12.19 L 78.33 12.41 L 78.31 12.44 L 78.28 12.46 L 78.06 12.76 L 77.92 12.95 L 77.71 13.20 L 77.66 13.29 L 77.59 13.38 L 77.56 13.44 L 77.51 13.51 L 77.31 13.87 Z" clip-rule="evenodd"/></clipPath></defs>
<g stroke="black" fill="none" stroke-linecap="round" clip-path="url(#sclip)">
<path d="M 77.85 14.95 L 51.09 28.33 L 51.09 30.35 L 45.60 36.12 L 45.60 66.40 L 51.09 69.15 L 51.09 70.72 L 45.60 76.49 L 45.60 106.77 L 123.88 145.91 L 125.33 146.18 L 132.12 149.58 L 132.12 150.03 L 155.47 161.70 L 156.46 161.75 L 160.96 164.00 L 204.91 142.03 L 204.91 140.01 L 210.40 134.23 L 210.40 103.96 L 204.91 101.21 L 204.91 99.64 L 210.40 93.87 L 210.40 63.59 L 178.77 47.78 L 178.77 45.09 A 23.31 11.65 -180.00 0 0 155.67 33.45 A 23.31 11.65 -180.00 0 0 150.61 33.70 L 123.84 20.31 L 123.84 17.62 A 23.31 11.65 -180.00 0 0 100.56 5.98 A 23.31 11.65 -180.00 0 0 77.85 14.95 Z" stroke-width="2.00" stroke-linejoin="miter" stroke-miterlimit="5"/>
<line x1="178.77" y1="45.09" x2="178.77" y2="58.55" stroke-width="2.00"/>
<line x1="132.16" y1="45.09" x2="132.16" y2="58.55" stroke-width="2.00"/>
<line x1="123.84" y1="17.62" x2="123.84" y2="31.08" stroke-width="2.00"/>
<line x1="77.23" y1="17.62" x2="77.23" y2="31.08" stroke-width="2.00"/>
<line x1="123.89" y1="20.78" x2="149.83" y2="33.75" stroke-width="2.00"/>
<line x1="178.82" y1="48.25" x2="204.91" y2="61.29" stroke-width="2.00"/>
<line x1="51.09" y1="28.33" x2="77.81" y2="14.97" stroke-width="2.00"/>
<line x1="51.09" y1="28.33" x2="160.96" y2="83.27" stroke-width="2.00"/>
<line x1="160.96" y1="83.27" x2="204.91" y2="61.29" stroke-width="2.00"/>
<line x1="45.60" y1="36.13" x2="51.09" y2="30.35" stroke-width="2.00"/>
<line x1="45.60" y1="76.49" x2="51.09" y2="70.72" stroke-width="2.00"/>
<line x1="45.60" y1="36.13" x2="45.60" y2="66.40" stroke-width="2.00"/>
<line x1="45.60" y1="76.49" x2="45.60" y2="106.77" stroke-width="2.00"/>
<line x1="51.09" y1="28.33" x2="51.09" y2="30.35" stroke-width="2.00"/>
<line x1="51.09" y1="69.18" x2="51.09" y2="70.72" stroke-width="2.00"/>
<line x1="155.47" y1="161.70" x2="160.96" y2="161.98" stroke-width="2.00"/>
<line x1="155.47" y1="121.33" x2="160.96" y2="121.61" stroke-width="2.00"/>
<line x1="155.47" y1="91.06" x2="160.96" y2="85.28" stroke-width="2.00"/>
<line x1="155.47" y1="131.43" x2="160.96" y2="125.65" stroke-width="2.00"/>
<line x1="160.96" y1="164.00" x2="204.91" y2="142.03" stroke-width="2.00"/>
<line x1="160.96" y1="83.27" x2="160.96" y2="85.28" stroke-width="2.00"/>
<line x1="160.96" y1="121.61" x2="160.96" y2="125.65" stroke-width="2.00"/>
<line x1="160.96" y1="161.98" x2="160.96" y2="164.00" stroke-width="2.00"/>
<line x1="204.91" y1="61.29" x2="204.91" y2="63.31" stroke-width="2.00"/>
<line x1="204.91" y1="99.64" x2="204.91" y2="103.68" stroke-width="2.00"/>
<line x1="204.91" y1="140.01" x2="204.91" y2="142.03" stroke-width="2.00"/>
<line x1="155.47" y1="91.06" x2="155.47" y2="121.33" stroke-width="2.00"/>
<line x1="155.47" y1="131.43" x2="155.47" y2="161.70" stroke-width="2.00"/>
<line x1="210.40" y1="63.59" x2="210.40" y2="93.87" stroke-width="2.00"/>
<line x1="210.40" y1="103.96" x2="210.40" y2="134.23" stroke-width="2.00"/>
<line x1="125.41" y1="146.22" x2="132.11" y2="149.57" stroke-width="2.00"/>
<line x1="156.59" y1="161.81" x2="160.96" y2="164.00" stroke-width="2.00"/>
<line x1="204.91" y1="140.01" x2="210.40" y2="134.23" stroke-width="2.00"/>
<line x1="205.01" y1="101.26" x2="210.40" y2="103.96" stroke-width="2.00"/>
<line x1="204.91" y1="103.68" x2="210.40" y2="103.96" stroke-width="2.00"/>
<line x1="204.91" y1="99.64" x2="210.40" y2="93.87" stroke-width="2.00"/>
<line x1="123.85" y1="20.32" x2="150.51" y2="33.65" stroke-width="2.00"/>
<line x1="178.78" y1="47.78" x2="210.40" y2="63.59" stroke-width="2.00"/>
<line x1="204.91" y1="63.31" x2="210.40" y2="63.59" stroke-width="2.00"/>
<line x1="77.19" y1="51.92" x2="77.19" y2="82.19" stroke-width="2.00"/>
<line x1="45.60" y1="36.13" x2="68.95" y2="47.80" stroke-width="2.00"/>
<line x1="77.19" y1="51.92" x2="155.47" y2="91.06" stroke-width="2.00"/>
<line x1="45.60" y1="66.40" x2="68.95" y2="78.07" stroke-width="2.00"/>
<line x1="77.19" y1="82.19" x2="155.47" y2="121.33" stroke-width="2.00"/>
<line x1="68.95" y1="47.80" x2="68.95" y2="78.07" stroke-width="2.00"/>
<line x1="77.19" y1="51.92" x2="80.21" y2="44.91" stroke-width="2.00"/>
<line x1="51.09" y1="30.35" x2="76.91" y2="43.26" stroke-width="2.00"/>
<line x1="80.21" y1="44.91" x2="160.96" y2="85.28" stroke-width="2.00"/>
<line x1="68.95" y1="47.80" x2="76.91" y2="43.26" stroke-width="2.00"/>
<line x1="68.95" y1="78.07" x2="76.91" y2="79.59" stroke-width="2.00"/>
<line x1="76.91" y1="43.26" x2="76.91" y2="79.59" stroke-width="2.00"/>
<line x1="123.88" y1="115.63" x2="123.88" y2="145.91" stroke-width="2.00"/>
<line x1="45.60" y1="106.77" x2="123.88" y2="145.91" stroke-width="2.00"/>
<line x1="132.12" y1="150.03" x2="155.47" y2="161.70" stroke-width="2.00"/>
<line x1="45.60" y1="76.49" x2="123.88" y2="115.63" stroke-width="2.00"/>
<line x1="132.12" y1="119.75" x2="155.47" y2="131.43" stroke-width="2.00"/>
<line x1="132.12" y1="119.75" x2="132.12" y2="150.03" stroke-width="2.00"/>
<line x1="123.88" y1="145.91" x2="131.85" y2="147.42" stroke-width="2.00"/>
<line x1="123.88" y1="115.63" x2="131.85" y2="111.09" stroke-width="2.00"/>
<line x1="51.09" y1="70.72" x2="131.85" y2="111.09" stroke-width="2.00"/>
<line x1="135.14" y1="112.74" x2="160.96" y2="125.65" stroke-width="2.00"/>
<line x1="132.12" y1="119.75" x2="135.14" y2="112.74" stroke-width="2.00"/>
<line x1="131.85" y1="111.09" x2="131.85" y2="147.42" stroke-width="2.00"/>
<path d="M 178.77 58.55 A 23.31 11.65 -180.00 0 1 155.47 70.20 A 23.31 11.65 -180.00 0 1 132.16 58.55" stroke-width="2.00"/>
<path d="M 171.95 53.33 A 23.31 11.65 -180.00 0 0 171.95 36.85 A 23.31 11.65 -180.00 0 0 138.99 36.85 A 23.31 11.65 -180.00 0 0 138.99 53.33 A 23.31 11.65 -180.00 0 0 171.95 53.33" stroke-width="2.00"/>
<path d="M 123.84 31.08 A 23.31 11.65 -180.00 0 1 112.19 41.17 A 23.31 11.65 -180.00 0 1 88.88 41.17 A 23.31 11.65 -180.00 0 1 77.23 31.08" stroke-width="2.00"/>
<path d="M 117.01 25.86 A 23.31 11.65 -180.00 0 0 117.01 9.38 A 23.31 11.65 -180.00 0 0 84.05 9.38 A 23.31 11.65 -180.00 0 0 84.05 25.86 A 23.31 11.65 -180.00 0 0 117.01 25.86" stroke-width="2.00"/>
</g>
</svg>