<svg xmlns="http://www.w3.org/2000/svg" viewBox="0 0 256 170" preserveAspectRatio="xMidYMid meet">
<defs><linearGradient id="g2" gradientUnits="userSpaceOnUse" x1="81.23" y1="27.42" x2="129.38" y2="27.42"><stop offset="0.0%" stop-color="#35aaba"/><stop offset="3.8%" stop-color="#37b2c3"/><stop offset="14.6%" stop-color="#36adbe"/><stop offset="30.9%" stop-color="#319dac"/><stop offset="50.0%" stop-color="#298390"/><stop offset="69.1%" stop-color="#1f646e"/><stop offset="85.4%" stop-color="#1e6069"/><stop offset="96.2%" stop-color="#1e6069"/><stop offset="100.0%" stop-color="#1e6069"/></linearGradient><linearGradient id="g4" gradientUnits="userSpaceOnUse" x1="52.73" y1="77.46" x2="67.09" y2="106.17"><stop offset="0.0%" stop-color="#1e6069"/><stop offset="3.8%" stop-color="#1e6069"/><stop offset="14.6%" stop-color="#1e6069"/><stop offset="30.9%" stop-color="#206973"/><stop offset="50.0%" stop-color="#2f98a7"/><stop offset="69.1%" stop-color="#3bbfd2"/><stop offset="85.4%" stop-color="#43d7ec"/><stop offset="96.2%" stop-color="#45ddf3"/><stop offset="100.0%" stop-color="#41d0e5"/></linearGradient><linearGradient id="g5" gradientUnits="userSpaceOnUse" x1="70.67" y1="113.35" x2="49.14" y2="70.28"><stop offset="-0.0%" stop-color="#1e6069"/><stop offset="3.8%" stop-color="#1e6069"/><stop offset="14.6%" stop-color="#1e6069"/><stop offset="30.9%" stop-color="#206973"/><stop offset="50.0%" stop-color="#2f98a7"/><stop offset="69.1%" stop-color="#3bbfd2"/><stop offset="85.4%" stop-color="#43d7ec"/><stop offset="96.2%" stop-color="#45ddf3"/><stop offset="100.0%" stop-color="#41d0e5"/></linearGradient><linearGradient id="g7" gradientUnits="userSpaceOnUse" x1="150.70" y1="160.61" x2="154.29" y2="160.84"><stop offset="0.0%" stop-color="#44dbf0"/><stop offset="13.8%" stop-color="#44ddf2"/><stop offset="27.5%" stop-color="#45def3"/><stop offset="40.9%" stop-color="#45def3"/><stop offset="53.8%" stop-color="#45ddf2"/><stop offset="66.3%" stop-color="#44dbf1"/><stop offset="78.2%" stop-color="#43d8ee"/><stop offset="89.5%" stop-color="#42d5ea"/><stop offset="100.0%" stop-color="#41d0e5"/></linearGradient><linearGradient id="g9" gradientUnits="userSpaceOnUse" x1="154.29" y1="160.84" x2="156.37" y2="156.50"><stop offset="0.0%" stop-color="#1e6069"/><stop offset="9.5%" stop-color="#1e6069"/><stop offset="20.2%" stop-color="#1e6069"/><stop offset="31.9%" stop-color="#1e6069"/><stop offset="44.4%" stop-color="#1e6069"/><stop offset="57.7%" stop-color="#1e6069"/><stop offset="71.5%" stop-color="#1e6069"/><stop offset="85.6%" stop-color="#1e6069"/><stop offset="100.0%" stop-color="#1e6069"/></linearGradient><linearGradient id="g10" gradientUnits="userSpaceOnUse" x1="109.47" y1="105.83" x2="123.83" y2="134.54"><stop offset="0.0%" stop-color="#1e6069"/><stop offset="3.8%" stop-color="#1e6069"/><stop offset="14.6%" stop-color="#1e6069"/><stop offset="30.9%" stop-color="#206973"/><stop offset="50.0%" stop-color="#2f98a7"/><stop offset="69.1%" stop-color="#3bbfd2"/><stop offset="85.4%" stop-color="#43d7ec"/><stop offset="96.2%" stop-color="#45ddf3"/><stop offset="100.0%" stop-color="#41d0e5"/></linearGradient><linearGradient id="g11" gradientUnits="userSpaceOnUse" x1="137.97" y1="55.79" x2="186.12" y2="55.79"><stop offset="0.0%" stop-color="#35aaba"/><stop offset="3.8%" stop-color="#37b2c3"/><stop offset="14.6%" stop-color="#36adbe"/><stop offset="30.9%" stop-color="#319dac"/><stop offset="50.0%" stop-color="#298390"/><stop offset="69.1%" stop-color="#1f646e"/><stop offset="85.4%" stop-color="#1e6069"/><stop offset="96.2%" stop-color="#1e6069"/><stop offset="100.0%" stop-color="#1e6069"/></linearGradient><linearGradient id="g14" gradientUnits="userSpaceOnUse" x1="127.42" y1="141.72" x2="105.88" y2="98.66"><stop offset="-0.0%" stop-color="#1e6069"/><stop offset="3.8%" stop-color="#1e6069"/><stop offset="14.6%" stop-color="#1e6069"/><stop offset="30.9%" stop-color="#206973"/><stop offset="50.0%" stop-color="#2f98a7"/><stop offset="69.1%" stop-color="#3bbfd2"/><stop offset="85.4%" stop-color="#43d7ec"/><stop offset="96.2%" stop-color="#45ddf3"/><stop offset="100.0%" stop-color="#41d0e5"/></linearGradient></defs>
<g stroke-linejoin="round">
<path d="M 37.21 102.59 A 8.02 4.91 -116.57 0 0 38.38 107.41 L 40.05 110.03 A 8.02 4.91 -116.57 0 0 42.88 112.38 L 145.02 163.45 A 8.02 4.91 -116.57 0 0 148.48 163.74 L 149.94 162.43 A 8.02 4.91 -116.57 0 0 150.70 159.34 L 150.70 124.59 L 150.70 96.79 L 37.21 40.05 L 37.21 67.84 L 37.21 86.14 L 37.21 102.59 Z M 43.65 73.03 L 45.62 72.05 L 54.82 67.45 A 24.07 14.74 -116.57 0 1 76.35 110.51 L 65.00 116.19 A 24.07 14.74 -116.57 0 1 40.92 101.00 A 24.07 14.74 -116.57 0 1 43.65 73.03 Z M 100.21 101.49 L 102.36 100.42 L 111.56 95.82 A 24.07 14.74 -116.57 0 1 135.94 111.63 A 24.07 14.74 -116.57 0 1 133.09 138.88 L 128.30 141.28 L 121.74 144.56 A 24.07 14.74 -116.57 0 1 97.67 129.37 A 24.07 14.74 -116.57 0 1 100.21 101.49 Z M 147.72 163.53 L 147.72 163.06 L 147.72 162.84 L 147.72 162.57 L 147.73 162.49 L 147.74 162.40 L 147.76 162.31 L 147.76 162.31 L 147.79 162.23 L 147.83 162.15 L 147.88 162.07 L 147.93 162.00 L 147.94 161.99 L 148.57 161.68 L 148.62 161.68 L 148.64 161.68 L 149.03 161.68 L 149.63 161.68 L 149.79 161.68 L 147.72 163.53 Z M 54.43 80.87 A 16.05 9.83 -116.57 0 0 65.38 102.77 A 16.05 9.83 -116.57 0 0 54.43 80.87 Z M 111.17 109.24 A 16.05 9.83 -116.57 0 0 111.18 114.35 L 110.84 114.35 L 110.76 114.35 L 110.67 114.36 L 110.58 114.39 L 110.50 114.42 L 110.42 114.45 L 110.34 114.50 L 110.27 114.55 L 110.21 114.61 L 110.15 114.68 L 110.10 114.75 L 110.05 114.82 L 110.01 114.90 L 109.98 114.99 L 109.96 115.07 L 109.95 115.16 L 109.94 115.25 L 109.94 116.45 L 109.95 116.54 L 109.96 116.62 L 109.98 116.71 L 110.01 116.79 L 110.05 116.87 L 110.10 116.95 L 110.15 117.02 L 110.21 117.08 L 110.27 117.14 L 110.34 117.20 L 110.42 117.24 L 110.50 117.28 L 110.58 117.31 L 110.67 117.33 L 110.76 117.34 L 110.84 117.35 L 111.82 117.35 A 16.05 9.83 -116.57 0 0 122.13 131.14 A 16.05 9.83 -116.57 0 0 111.17 109.24 Z" fill="#2e94a2" fill-rule="evenodd" stroke="#2e94a2" stroke-width="0.8"/>
<path d="M 110.84 8.77 L 105.30 6.00 L 99.79 8.76 A 24.07 12.04 -180.00 0 1 110.84 8.77 Z M 167.58 37.14 L 128.73 17.71 A 24.07 12.04 -180.00 0 1 129.38 20.47 L 129.38 34.37 A 24.07 12.04 -180.00 0 1 81.23 34.37 L 81.23 20.47 A 24.07 12.04 -180.00 0 1 81.88 17.71 L 37.21 40.05 L 150.70 96.79 L 218.79 62.74 L 185.47 46.08 A 24.07 12.04 180.00 0 1 186.12 48.84 L 186.12 58.66 L 186.12 62.74 A 24.07 12.04 -180.00 0 1 137.97 62.74 L 137.97 52.64 L 137.97 48.84 A 24.07 12.04 180.00 0 1 167.58 37.14 Z" fill="#46e2f8" fill-rule="evenodd" stroke="#46e2f8" stroke-width="0.8"/>
<path d="M 129.38 34.37 L 129.38 20.47 A 24.07 12.04 -180.00 0 1 81.23 20.47 L 81.23 34.37 A 24.07 12.04 -180.00 0 0 129.38 34.37 Z" fill="url(#g2)" fill-rule="evenodd" stroke="url(#g2)" stroke-width="0.8"/>
<path d="M 127.60 25.01 A 24.07 12.04 -180.00 0 0 82.58 16.50 A 24.07 12.04 -180.00 0 0 127.60 25.01 Z" fill="#46e2f8" fill-rule="evenodd" stroke="#46e2f8" stroke-width="0.8"/>
<path d="M 65.38 102.77 A 16.05 9.83 -116.57 0 1 54.43 80.87 A 16.05 9.83 -116.57 0 0 45.52 99.18 A 16.05 9.83 -116.57 0 0 65.38 102.77 Z" fill="url(#g4)" fill-rule="evenodd" stroke="url(#g4)" stroke-width="0.8"/>
<path d="M 54.82 67.45 L 43.47 73.12 A 24.07 14.74 -116.57 0 1 67.84 88.93 A 24.07 14.74 -116.57 0 1 65.00 116.19 L 76.35 110.51 A 24.07 14.74 -116.57 0 0 54.82 67.45 Z" fill="url(#g5)" fill-rule="evenodd" stroke="url(#g5)" stroke-width="0.8"/>
<path d="M 59.25 117.09 A 24.07 14.74 -116.57 0 0 48.41 72.15 A 24.07 14.74 -116.57 0 0 59.25 117.09 Z M 50.89 106.26 A 16.05 9.83 -116.57 0 1 58.12 83.53 A 16.05 9.83 -116.57 0 1 50.89 106.26 Z" fill="#2e94a2" fill-rule="evenodd" stroke="#2e94a2" stroke-width="0.8"/>
<path d="M 148.62 161.67 L 148.57 161.68 L 147.94 161.99 L 147.93 162.00 L 147.87 162.07 L 147.83 162.15 L 147.79 162.23 L 147.76 162.31 L 147.74 162.40 L 147.73 162.49 L 147.72 162.57 L 147.72 163.77 L 147.73 163.86 L 147.74 163.95 L 147.74 163.96 A 8.02 4.91 -116.57 0 0 148.61 163.68 L 150.72 162.62 L 150.72 162.57 L 150.72 162.49 L 150.71 162.40 L 150.68 162.31 L 150.65 162.23 L 150.62 162.15 L 150.57 162.07 L 150.52 162.00 L 150.46 161.94 L 150.39 161.88 L 150.32 161.83 L 150.25 161.78 L 150.17 161.74 L 150.08 161.71 L 150.00 161.69 L 149.91 161.68 L 149.82 161.67 L 148.62 161.67 Z" fill="url(#g7)" fill-rule="evenodd" stroke="url(#g7)" stroke-width="0.8"/>
<path d="M 150.70 96.79 L 150.70 124.59 L 162.05 118.91 L 218.79 90.54 L 218.79 62.74 L 150.70 96.79 Z" fill="#206873" fill-rule="evenodd" stroke="#206873" stroke-width="0.8"/>
<path d="M 162.05 153.66 L 150.70 159.34 A 8.02 4.91 -116.57 0 1 150.26 161.79 L 150.32 161.83 L 150.39 161.88 L 150.46 161.94 L 150.52 162.00 L 150.57 162.07 L 150.62 162.15 L 150.65 162.23 L 150.68 162.31 L 150.71 162.40 L 150.72 162.49 L 150.72 162.57 L 150.72 162.62 L 159.96 158.00 A 8.02 4.91 -116.57 0 0 162.05 153.66 Z" fill="url(#g9)" fill-rule="evenodd" stroke="url(#g9)" stroke-width="0.8"/>
<path d="M 122.13 131.14 A 16.05 9.83 -116.57 0 1 111.82 117.35 L 110.84 117.35 L 110.76 117.34 L 110.67 117.33 L 110.58 117.31 L 110.50 117.28 L 110.42 117.24 L 110.34 117.20 L 110.27 117.14 L 110.21 117.08 L 110.15 117.02 L 110.10 116.95 L 110.05 116.87 L 110.01 116.79 L 109.98 116.71 L 109.96 116.62 L 109.95 116.54 L 109.94 116.45 L 109.94 115.25 L 109.95 115.16 L 109.96 115.07 L 109.98 114.99 L 110.01 114.90 L 110.05 114.82 L 110.10 114.75 L 110.15 114.68 L 110.21 114.61 L 110.27 114.55 L 110.34 114.50 L 110.42 114.45 L 110.50 114.42 L 110.58 114.39 L 110.67 114.36 L 110.76 114.35 L 110.84 114.35 L 111.18 114.35 A 16.05 9.83 -116.57 0 1 111.17 109.24 A 16.05 9.83 -116.57 0 0 102.24 127.52 A 16.05 9.83 -116.57 0 0 122.13 131.14 Z" fill="url(#g10)" fill-rule="evenodd" stroke="url(#g10)" stroke-width="0.8"/>
<path d="M 186.12 62.74 L 186.12 48.84 A 24.07 12.04 180.00 0 1 161.75 60.88 A 24.07 12.04 180.00 0 1 137.97 48.84 L 137.97 62.74 A 24.07 12.04 -180.00 0 0 186.12 62.74 Z" fill="url(#g11)" fill-rule="evenodd" stroke="url(#g11)" stroke-width="0.8"/>
<path d="M 183.33 54.47 A 24.07 12.04 180.00 0 0 140.23 43.76 A 24.07 12.04 180.00 0 0 183.33 54.47 Z" fill="#46e2f8" fill-rule="evenodd" stroke="#46e2f8" stroke-width="0.8"/>
<path d="M 162.05 118.91 L 150.70 124.59 L 150.70 159.34 L 162.05 153.66 L 162.05 118.91 Z" fill="#206873" fill-rule="evenodd" stroke="#206873" stroke-width="0.8"/>
<path d="M 111.56 95.82 L 100.21 101.49 A 24.07 14.74 -116.57 0 1 121.74 144.56 L 133.09 138.88 A 24.07 14.74 -116.57 0 0 135.07 109.90 A 24.07 14.74 -116.57 0 0 111.56 95.82 Z" fill="url(#g14)" fill-rule="evenodd" stroke="url(#g14)" stroke-width="0.8"/>
<path d="M 114.35 145.15 A 24.07 14.74 -116.57 0 0 106.78 100.72 A 24.07 14.74 -116.57 0 0 114.35 145.15 Z M 108.73 135.53 A 16.05 9.83 -116.57 0 1 113.78 110.96 A 16.05 9.83 -116.57 0 1 108.73 135.53 Z" fill="#2e94a2" fill-rule="evenodd" stroke="#2e94a2" stroke-width="0.8"/>
</g>
<g stroke="black" fill="none" stroke-linecap="round">
<line x1="148.61" y1="163.68" x2="159.96" y2="158.00" stroke-width="2.00"/>
<line x1="129.38" y1="20.47" x2="129.38" y2="34.37" stroke-width="2.00"/>
<line x1="81.23" y1="20.47" x2="81.23" y2="34.37" stroke-width="2.00"/>
<line x1="186.12" y1="48.84" x2="186.12" y2="62.74" stroke-width="2.00"/>
<line x1="137.97" y1="48.84" x2="137.97" y2="62.74" stroke-width="2.00"/>
<line x1="100.21" y1="101.49" x2="111.56" y2="95.82" stroke-width="2.00"/>
<line x1="121.74" y1="144.56" x2="133.09" y2="138.89" stroke-width="2.00"/>
<line x1="43.47" y1="73.12" x2="54.82" y2="67.45" stroke-width="2.00"/>
<line x1="65.00" y1="116.19" x2="76.35" y2="110.51" stroke-width="2.00"/>
<line x1="162.05" y1="118.91" x2="218.79" y2="90.54" stroke-width="2.00"/>
<line x1="37.21" y1="40.05" x2="81.86" y2="17.72" stroke-width="2.00"/>
<line x1="99.84" y1="8.73" x2="105.30" y2="6.00" stroke-width="2.00"/>
<line x1="150.70" y1="96.79" x2="218.79" y2="62.74" stroke-width="2.00"/>
<line x1="105.30" y1="6.00" x2="110.76" y2="8.73" stroke-width="2.00"/>
<line x1="128.74" y1="17.72" x2="167.42" y2="37.06" stroke-width="2.00"/>
<line x1="185.56" y1="46.13" x2="218.79" y2="62.74" stroke-width="2.00"/>
<line x1="37.21" y1="40.05" x2="150.70" y2="96.79" stroke-width="2.00"/>
<line x1="37.21" y1="40.05" x2="37.21" y2="102.59" stroke-width="2.00"/>
<line x1="150.70" y1="96.79" x2="150.70" y2="159.34" stroke-width="2.00"/>
<line x1="218.79" y1="62.74" x2="218.79" y2="90.54" stroke-width="2.00"/>
<line x1="162.05" y1="118.91" x2="162.05" y2="153.66" stroke-width="2.00"/>
<line x1="42.88" y1="112.38" x2="145.02" y2="163.45" stroke-width="2.00"/>
<path d="M 42.88 112.38 A 8.02 4.91 -116.57 0 1 37.21 102.59" stroke-width="2.00"/>
<path d="M 150.70 159.34 A 8.02 4.91 -116.57 0 1 145.02 163.45" stroke-width="2.00"/>
<path d="M 162.05 153.66 A 8.02 4.91 -116.57 0 1 160.02 157.97" stroke-width="2.00"/>
<path d="M 129.38 34.40 A 24.07 12.04 -180.00 0 1 81.23 34.34" stroke-width="2.00"/>
<path d="M 122.33 28.98 A 24.07 12.04 -180.00 0 0 88.28 11.96 A 24.07 12.04 -180.00 0 0 122.33 28.98" stroke-width="2.00"/>
<path d="M 186.12 62.77 A 24.07 12.04 -180.00 0 1 137.97 62.72" stroke-width="2.00"/>
<path d="M 179.07 57.36 A 24.07 12.04 180.00 0 0 145.02 40.33 A 24.07 12.04 180.00 0 0 179.07 57.36" stroke-width="2.00"/>
<path d="M 122.02 131.09 A 16.05 9.83 -116.57 0 1 111.14 109.38" stroke-width="2.00"/>
<path d="M 111.57 95.82 A 24.07 14.74 -116.57 0 1 133.08 138.89" stroke-width="2.00"/>
<path d="M 110.98 136.93 A 16.05 9.83 -116.57 0 0 110.98 109.13 A 16.05 9.83 -116.57 0 0 110.98 136.93" stroke-width="2.00"/>
<path d="M 110.98 143.88 A 24.07 14.74 -116.57 0 0 110.98 102.18 A 24.07 14.74 -116.57 0 0 110.98 143.88" stroke-width="2.00"/>
<path d="M 65.28 102.72 A 16.05 9.83 -116.57 0 1 54.40 81.01" stroke-width="2.00"/>
<path d="M 54.82 67.44 A 24.07 14.74 -116.57 0 1 76.34 110.52" stroke-width="2.00"/>
<path d="M 54.23 108.55 A 16.05 9.83 -116.57 0 0 54.23 80.76 A 16.05 9.83 -116.57 0 0 54.23 108.55" stroke-width="2.00"/>
<path d="M 54.23 115.50 A 24.07 14.74 -116.57 0 0 54.23 73.81 A 24.07 14.74 -116.57 0 0 54.23 115.50" stroke-width="2.00"/>
</g>
</svg>