<svg xmlns="http://www.w3.org/2000/svg" viewBox="0 0 256 170" preserveAspectRatio="xMidYMid meet">
<defs><linearGradient id="g2" gradientUnits="userSpaceOnUse" x1="81.23" y1="27.42" x2="129.38" y2="27.42"><stop offset="0.0%" stop-color="#35aaba"/><stop offset="3.8%" stop-color="#37b2c3"/><stop offset="14.6%" stop-color="#36adbe"/><stop offset="30.9%" stop-color="#319dac"/><stop offset="50.0%" stop-color="#298390"/><stop offset="69.1%" stop-color="#1f646e"/><stop offset="85.4%" stop-color="#1e6069"/><stop offset="96.2%" stop-color="#1e6069"/><stop offset="100.0%" stop-color="#1e6069"/></linearGradient><linearGradient id="g4" gradientUnits="userSpaceOnUse" x1="52.73" y1="77.46" x2="67.09" y2="106.17"><stop offset="0.0%" stop-color="#1e6069"/><stop offset="3.8%" stop-color="#1e6069"/><stop offset="14.6%" stop-color="#1e6069"/><stop offset="30.9%" stop-color="#206973"/><stop offset="50.0%" stop-color="#2f98a7"/><stop offset="69.1%" stop-color="#3bbfd2"/><stop offset="85.4%" stop-color="#43d7ec"/><stop offset="96.2%" stop-color="#45ddf3"/><stop offset="100.0%" stop-color="#41d0e5"/></linearGradient><linearGradient id="g5" gradientUnits="userSpaceOnUse" x1="70.67" y1="113.35" x2="49.14" y2="70.28"><stop offset="-0.0%" stop-color="#1e6069"/><stop offset="3.8%" stop-color="#1e6069"/><stop offset="14.6%" stop-color="#1e6069"/><stop offset="30.9%" stop-color="#206973"/><stop offset="50.0%" stop-color="#2f98a7"/><stop offset="69.1%" stop-color="#3bbfd2"/><stop offset="85.4%" stop-color="#43d7ec"/><stop offset="96.2%" stop-color="#45ddf3"/><stop offset="100.0%" stop-color="#41d0e5"/></linearGradient><linearGradient id="g8" gradientUnits="userSpaceOnUse" x1="154.29" y1="160.84" x2="156.37" y2="156.50"><stop offset="0.0%" stop-color="#1e6069"/><stop offset="9.5%" stop-color="#1e6069"/><stop offset="20.2%" stop-color="#1e6069"/><stop offset="31.9%" stop-color="#1e6069"/><stop offset="44.4%" stop-color="#1e6069"/><stop offset="57.7%" stop-color="#1e6069"/><stop offset="71.5%" stop-color="#1e6069"/><stop offset="85.6%" stop-color="#1e6069"/><stop offset="100.0%" stop-color="#1e6069"/></linearGradient><linearGradient id="g9" gradientUnits="userSpaceOnUse" x1="109.47" y1="105.83" x2="123.83" y2="134.54"><stop offset="0.0%" stop-color="#1e6069"/><stop offset="3.8%" stop-color="#1e6069"/><stop offset="14.6%" stop-color="#1e6069"/><stop offset="30.9%" stop-color="#206973"/><stop offset="50.0%" stop-color="#2f98a7"/><stop offset="69.1%" stop-color="#3bbfd2"/><stop offset="85.4%" stop-color="#43d7ec"/><stop offset="96.2%" stop-color="#45ddf3"/><stop offset="100.0%" stop-color="#41d0e5"/></linearGradient><linearGradient id="g10" gradientUnits="userSpaceOnUse" x1="137.97" y1="55.79" x2="186.12" y2="55.79"><stop offset="0.0%" stop-color="#35aaba"/><stop offset="3.8%" stop-color="#37b2c3"/><stop offset="14.6%" stop-color="#36adbe"/><stop offset="30.9%" stop-color="#319dac"/><stop offset="50.0%" stop-color="#298390"/><stop offset="69.1%" stop-color="#1f646e"/><stop offset="85.4%" stop-color="#1e6069"/><stop offset="96.2%" stop-color="#1e6069"/><stop offset="100.0%" stop-color="#1e6069"/></linearGradient><linearGradient id="g12" gradientUnits="userSpaceOnUse" x1="127.42" y1="141.72" x2="105.88" y2="98.66"><stop offset="-0.0%" stop-color="#1e6069"/><stop offset="3.8%" stop-color="#1e6069"/><stop offset="14.6%" stop-color="#1e6069"/><stop offset="30.9%" stop-color="#206973"/><stop offset="50.0%" stop-color="#2f98a7"/><stop offset="69.1%" stop-color="#3bbfd2"/><stop offset="85.4%" stop-color="#43d7ec"/><stop offset="96.2%" stop-color="#45ddf3"/><stop offset="100.0%" stop-color="#41d0e5"/></linearGradient></defs>
<g stroke-linejoin="round">
<path d="M 54.43 80.87 A 16.05 9.83 -116.57 0 0 63.31 101.46 A 16.05 9.83 -116.57 0 0 65.38 102.77 A 16.05 9.83 -116.57 0 0 56.83 82.43 A 16.05 9.83 -116.57 0 0 54.43 80.87 Z M 42.88 112.38 L 145.02 163.45 A 8.02 4.91 -116.57 0 0 146.49 163.95 L 150.64 160.23 A 8.02 4.91 -116.57 0 0 150.70 159.34 L 150.70 124.59 L 150.70 96.79 L 37.21 40.05 L 37.21 67.84 L 37.21 86.14 L 37.21 102.59 A 8.02 4.91 -116.57 0 0 42.88 112.38 Z M 43.65 73.03 L 45.62 72.05 L 54.82 67.45 A 24.07 14.74 -116.57 0 1 78.32 81.53 A 24.07 14.74 -116.57 0 1 77.37 109.91 A 24.07 14.74 -116.57 0 1 76.35 110.51 L 65.00 116.19 A 24.07 14.74 -116.57 0 1 41.13 101.39 A 24.07 14.74 -116.57 0 1 42.93 73.44 A 24.07 14.74 -116.57 0 1 43.65 73.03 Z M 100.21 101.49 L 102.36 100.42 L 111.56 95.82 A 24.07 14.74 -116.57 0 1 135.07 109.90 A 24.07 14.74 -116.57 0 1 134.12 138.28 A 24.07 14.74 -116.57 0 1 133.09 138.88 L 128.30 141.28 L 121.74 144.56 A 24.07 14.74 -116.57 0 1 97.88 129.78 A 24.07 14.74 -116.57 0 1 99.66 101.81 A 24.07 14.74 -116.57 0 1 100.21 101.49 Z M 111.17 109.24 A 16.05 9.83 -116.57 0 0 111.18 114.35 L 110.84 114.35 L 110.76 114.35 L 110.67 114.36 L 110.70 114.55 L 110.70 114.56 L 110.70 114.56 L 110.74 114.82 L 110.74 114.83 L 110.78 115.08 L 110.78 115.09 L 110.79 115.09 L 110.83 115.35 L 110.83 115.36 L 110.83 115.36 L 110.88 115.62 L 110.89 115.62 L 110.89 115.63 L 110.94 115.89 L 110.94 115.90 L 110.94 115.90 L 110.99 116.14 L 111.00 116.16 L 111.06 116.42 L 111.06 116.44 L 111.12 116.68 L 111.12 116.69 L 111.13 116.69 L 111.19 116.95 L 111.19 116.96 L 111.19 116.96 L 111.26 117.22 L 111.27 117.23 L 111.30 117.35 L 111.82 117.35 A 16.05 9.83 -116.57 0 0 122.13 131.14 A 16.05 9.83 -116.57 0 0 113.57 110.80 A 16.05 9.83 -116.57 0 0 111.17 109.24 Z M 150.65 160.22 L 146.49 163.95 A 8.02 4.91 -116.57 0 0 150.65 160.22 Z" fill="#2e94a2" fill-rule="evenodd" stroke="#2e94a2" stroke-width="0.8"/>
<path d="M 110.84 8.77 L 105.30 6.00 L 99.79 8.76 A 24.07 12.04 -180.00 0 1 110.84 8.77 Z M 167.58 37.14 L 128.73 17.71 A 24.07 12.04 -180.00 0 1 129.38 20.47 L 129.38 34.37 A 24.07 12.04 -180.00 0 1 106.27 46.40 A 24.07 12.04 -180.00 0 1 81.31 35.34 A 24.07 12.04 -180.00 0 1 81.23 34.37 L 81.23 20.47 A 24.07 12.04 -180.00 0 1 81.88 17.71 L 37.21 40.05 L 150.70 96.79 L 218.79 62.74 L 185.47 46.08 A 24.07 12.04 180.00 0 1 186.12 48.84 L 186.12 58.66 L 186.12 62.74 A 24.07 12.04 -180.00 0 1 163.02 74.77 A 24.07 12.04 -180.00 0 1 138.05 63.71 A 24.07 12.04 -180.00 0 1 137.97 62.74 L 137.97 52.64 L 137.97 48.84 A 24.07 12.04 180.00 0 1 161.31 36.82 A 24.07 12.04 180.00 0 1 167.58 37.14 Z" fill="#46e2f8" fill-rule="evenodd" stroke="#46e2f8" stroke-width="0.8"/>
<path d="M 129.38 34.37 L 129.38 20.47 A 24.07 12.04 -180.00 0 1 105.48 32.50 A 24.07 12.04 -180.00 0 1 81.27 20.98 A 24.07 12.04 -180.00 0 1 81.23 20.47 L 81.23 34.37 A 24.07 12.04 -180.00 0 0 104.33 46.40 A 24.07 12.04 -180.00 0 0 129.30 35.34 A 24.07 12.04 -180.00 0 0 129.38 34.37 Z" fill="url(#g2)" fill-rule="evenodd" stroke="url(#g2)" stroke-width="0.8"/>
<path d="M 127.60 25.01 A 24.07 12.04 -180.00 0 0 116.02 9.69 A 24.07 12.04 -180.00 0 0 84.61 14.32 A 24.07 12.04 -180.00 0 0 91.49 30.33 A 24.07 12.04 -180.00 0 0 123.94 28.09 A 24.07 12.04 -180.00 0 0 127.60 25.01 Z" fill="#46e2f8" fill-rule="evenodd" stroke="#46e2f8" stroke-width="0.8"/>
<path d="M 65.38 102.77 A 16.05 9.83 -116.57 0 1 54.23 83.31 A 16.05 9.83 -116.57 0 1 54.43 80.87 A 16.05 9.83 -116.57 0 0 42.90 88.37 A 16.05 9.83 -116.57 0 0 53.32 108.04 A 16.05 9.83 -116.57 0 0 65.38 102.77 Z" fill="url(#g4)" fill-rule="evenodd" stroke="url(#g4)" stroke-width="0.8"/>
<path d="M 54.82 67.45 L 43.47 73.12 A 24.07 14.74 -116.57 0 1 67.08 87.41 A 24.07 14.74 -116.57 0 1 65.41 115.95 A 24.07 14.74 -116.57 0 1 65.00 116.19 L 76.35 110.51 A 24.07 14.74 -116.57 0 0 79.19 83.26 A 24.07 14.74 -116.57 0 0 55.91 66.99 A 24.07 14.74 -116.57 0 0 54.82 67.45 Z" fill="url(#g5)" fill-rule="evenodd" stroke="url(#g5)" stroke-width="0.8"/>
<path d="M 59.25 117.09 A 24.07 14.74 -116.57 0 0 70.83 98.31 A 24.07 14.74 -116.57 0 0 51.70 72.77 A 24.07 14.74 -116.57 0 0 37.26 87.72 A 24.07 14.74 -116.57 0 0 54.23 115.50 A 24.07 14.74 -116.57 0 0 59.25 117.09 Z M 50.89 106.26 A 16.05 9.83 -116.57 0 1 43.17 86.03 A 16.05 9.83 -116.57 0 1 55.92 81.76 A 16.05 9.83 -116.57 0 1 65.55 101.35 A 16.05 9.83 -116.57 0 1 54.23 108.55 A 16.05 9.83 -116.57 0 1 50.89 106.26 Z" fill="#2e94a2" fill-rule="evenodd" stroke="#2e94a2" stroke-width="0.8"/>
<path d="M 150.70 124.59 L 150.70 159.34 L 162.05 153.66 L 162.05 118.91 L 218.79 90.54 L 218.79 62.74 L 150.70 96.79 L 150.70 124.59 Z" fill="#206873" fill-rule="evenodd" stroke="#206873" stroke-width="0.8"/>
<path d="M 162.05 153.66 L 150.70 159.34 A 8.02 4.91 -116.57 0 1 148.61 163.68 L 159.96 158.00 A 8.02 4.91 -116.57 0 0 162.05 153.66 Z" fill="url(#g8)" fill-rule="evenodd" stroke="url(#g8)" stroke-width="0.8"/>
<path d="M 122.13 131.14 A 16.05 9.83 -116.57 0 1 111.82 117.35 L 111.30 117.35 L 111.27 117.23 L 111.26 117.22 L 111.19 116.96 L 111.19 116.96 L 111.19 116.95 L 111.13 116.69 L 111.12 116.69 L 111.12 116.68 L 111.06 116.44 L 111.06 116.42 L 111.00 116.16 L 110.99 116.14 L 110.94 115.90 L 110.94 115.90 L 110.94 115.89 L 110.89 115.63 L 110.89 115.62 L 110.88 115.62 L 110.83 115.36 L 110.83 115.36 L 110.83 115.35 L 110.79 115.09 L 110.78 115.09 L 110.78 115.08 L 110.74 114.83 L 110.74 114.82 L 110.70 114.56 L 110.70 114.56 L 110.70 114.55 L 110.67 114.36 L 110.76 114.35 L 110.84 114.35 L 111.18 114.35 A 16.05 9.83 -116.57 0 1 111.17 109.24 A 16.05 9.83 -116.57 0 0 99.65 116.75 A 16.05 9.83 -116.57 0 0 110.08 136.42 A 16.05 9.83 -116.57 0 0 122.13 131.14 Z" fill="url(#g9)" fill-rule="evenodd" stroke="url(#g9)" stroke-width="0.8"/>
<path d="M 186.12 62.74 L 186.12 48.84 A 24.07 12.04 180.00 0 1 162.23 60.87 A 24.07 12.04 180.00 0 1 138.01 49.35 A 24.07 12.04 180.00 0 1 137.97 48.84 L 137.97 62.74 A 24.07 12.04 -180.00 0 0 161.08 74.77 A 24.07 12.04 -180.00 0 0 186.04 63.71 A 24.07 12.04 -180.00 0 0 186.12 62.74 Z" fill="url(#g10)" fill-rule="evenodd" stroke="url(#g10)" stroke-width="0.8"/>
<path d="M 183.33 54.47 A 24.07 12.04 180.00 0 0 174.85 38.65 A 24.07 12.04 180.00 0 0 142.68 41.70 A 24.07 12.04 180.00 0 0 146.34 57.97 A 24.07 12.04 180.00 0 0 179.07 57.36 A 24.07 12.04 180.00 0 0 183.33 54.47 Z" fill="#46e2f8" fill-rule="evenodd" stroke="#46e2f8" stroke-width="0.8"/>
<path d="M 111.56 95.82 L 100.21 101.49 A 24.07 14.74 -116.57 0 1 123.77 115.67 A 24.07 14.74 -116.57 0 1 122.77 143.96 A 24.07 14.74 -116.57 0 1 121.74 144.56 L 133.09 138.88 A 24.07 14.74 -116.57 0 0 135.94 111.63 A 24.07 14.74 -116.57 0 0 112.66 95.36 A 24.07 14.74 -116.57 0 0 111.56 95.82 Z" fill="url(#g12)" fill-rule="evenodd" stroke="url(#g12)" stroke-width="0.8"/>
<path d="M 114.35 145.15 A 24.07 14.74 -116.57 0 0 127.87 128.88 A 24.07 14.74 -116.57 0 0 110.13 101.78 A 24.07 14.74 -116.57 0 0 93.96 114.00 A 24.07 14.74 -116.57 0 0 109.28 142.93 A 24.07 14.74 -116.57 0 0 114.35 145.15 Z M 108.73 135.53 A 16.05 9.83 -116.57 0 1 99.72 115.67 A 16.05 9.83 -116.57 0 1 111.54 109.43 A 16.05 9.83 -116.57 0 1 122.32 128.35 A 16.05 9.83 -116.57 0 1 112.11 137.42 A 16.05 9.83 -116.57 0 1 108.73 135.53 Z" fill="#2e94a2" fill-rule="evenodd" stroke="#2e94a2" stroke-width="0.8"/>
<path d="M 105.74 7.44 L 105.95 7.44 L 105.30 7.12 L 104.66 7.44 L 104.87 7.44 L 104.88 7.44 L 105.30 7.43 L 105.31 7.43 L 105.73 7.44 L 105.74 7.44 Z" fill="#000000" fill-rule="evenodd" stroke="#000000" stroke-width="0.8"/>
<path d="M 38.85 74.84 L 38.76 74.80 L 38.67 74.75 L 38.59 74.69 L 38.51 74.62 L 38.45 74.55 L 38.38 74.47 L 38.33 74.39 L 38.29 74.30 L 38.26 74.20 L 38.23 74.11 L 38.22 74.01 L 38.21 73.91 L 38.21 77.08 L 38.32 76.88 L 38.33 76.86 L 38.48 76.61 L 38.49 76.59 L 38.63 76.34 L 38.65 76.32 L 38.80 76.09 L 38.81 76.07 L 38.97 75.83 L 38.98 75.81 L 39.14 75.59 L 39.15 75.57 L 39.32 75.34 L 39.33 75.33 L 39.50 75.11 L 39.52 75.09 L 39.69 74.88 L 39.70 74.86 L 39.88 74.66 L 39.90 74.64 L 39.94 74.59 L 39.88 74.65 L 39.80 74.72 L 39.72 74.77 L 39.63 74.82 L 39.53 74.85 L 39.44 74.88 L 39.34 74.90 L 39.24 74.91 L 39.14 74.91 L 39.04 74.89 L 38.94 74.87 L 38.85 74.84 Z" fill="#000000" fill-rule="evenodd" stroke="#000000" stroke-width="0.8"/>
<path d="M 53.27 82.05 L 53.27 82.15 L 53.28 82.09 L 53.28 82.07 L 53.30 81.84 L 53.30 81.82 L 53.32 81.59 L 53.32 81.58 L 53.34 81.44 L 53.24 81.39 L 53.06 81.32 L 52.88 81.25 L 52.70 81.18 L 52.62 81.15 L 52.70 81.18 L 52.79 81.23 L 52.87 81.29 L 52.95 81.35 L 53.02 81.42 L 53.08 81.50 L 53.14 81.58 L 53.18 81.67 L 53.22 81.76 L 53.25 81.86 L 53.27 81.95 L 53.27 82.05 Z" fill="#000000" fill-rule="evenodd" stroke="#000000" stroke-width="0.8"/>
<path d="M 55.84 83.68 L 55.93 83.64 L 56.02 83.61 L 56.12 83.58 L 56.22 83.57 L 56.32 83.57 L 56.42 83.58 L 56.51 83.60 L 56.61 83.63 L 56.70 83.66 L 56.79 83.71 L 56.87 83.76 L 56.94 83.82 L 56.89 83.78 L 56.71 83.62 L 56.53 83.47 L 56.35 83.32 L 56.17 83.18 L 55.99 83.03 L 55.80 82.90 L 55.62 82.77 L 55.44 82.64 L 55.26 82.51 L 55.25 82.51 L 55.25 82.66 L 55.24 82.89 L 55.23 83.11 L 55.23 83.34 L 55.23 83.57 L 55.24 83.81 L 55.25 84.04 L 55.26 84.28 L 55.28 84.51 L 55.29 84.65 L 55.28 84.55 L 55.29 84.45 L 55.31 84.36 L 55.34 84.26 L 55.37 84.17 L 55.41 84.08 L 55.47 84.00 L 55.53 83.92 L 55.60 83.85 L 55.67 83.78 L 55.75 83.72 L 55.84 83.68 Z" fill="#000000" fill-rule="evenodd" stroke="#000000" stroke-width="0.8"/>
<path d="M 64.06 99.91 L 63.98 99.96 L 63.89 100.00 L 63.79 100.03 L 63.70 100.05 L 63.60 100.06 L 63.50 100.06 L 63.40 100.06 L 63.31 100.04 L 63.21 100.01 L 63.12 99.97 L 63.03 99.93 L 62.95 99.88 L 62.88 99.82 L 62.99 99.92 L 63.17 100.08 L 63.36 100.23 L 63.54 100.38 L 63.72 100.52 L 63.90 100.66 L 64.09 100.79 L 64.27 100.93 L 64.45 101.05 L 64.56 101.12 L 64.57 101.00 L 64.58 100.78 L 64.58 100.56 L 64.58 100.33 L 64.58 100.10 L 64.58 99.87 L 64.57 99.64 L 64.56 99.40 L 64.54 99.17 L 64.53 98.99 L 64.53 99.09 L 64.52 99.19 L 64.51 99.28 L 64.48 99.38 L 64.44 99.47 L 64.40 99.56 L 64.35 99.64 L 64.29 99.72 L 64.22 99.79 L 64.14 99.85 L 64.06 99.91 Z" fill="#000000" fill-rule="evenodd" stroke="#000000" stroke-width="0.8"/>
<path d="M 64.11 103.87 L 64.09 103.97 L 64.07 104.05 L 64.12 103.87 L 64.18 103.68 L 64.22 103.50 L 64.27 103.30 L 64.17 103.25 L 64.16 103.24 L 63.96 103.12 L 63.95 103.11 L 63.75 102.99 L 63.74 102.98 L 63.66 102.93 L 63.74 102.98 L 63.81 103.05 L 63.88 103.12 L 63.94 103.20 L 63.99 103.29 L 64.04 103.38 L 64.07 103.47 L 64.09 103.57 L 64.11 103.67 L 64.11 103.77 L 64.11 103.87 Z" fill="#000000" fill-rule="evenodd" stroke="#000000" stroke-width="0.8"/>
<path d="M 79.71 20.40 L 79.79 20.45 L 79.87 20.51 L 79.94 20.57 L 80.01 20.65 L 80.06 20.72 L 80.11 20.81 L 80.15 20.89 L 80.19 20.99 L 80.21 21.08 L 80.22 21.18 L 80.23 21.27 L 80.23 20.47 L 80.23 20.47 L 80.23 20.45 L 80.23 20.25 L 80.23 20.21 L 80.24 20.00 L 80.25 19.96 L 80.27 19.76 L 80.27 19.72 L 80.28 19.63 L 78.78 20.38 L 78.87 20.34 L 78.96 20.31 L 79.06 20.29 L 79.15 20.28 L 79.25 20.27 L 79.35 20.28 L 79.44 20.30 L 79.53 20.32 L 79.62 20.36 L 79.71 20.40 Z" fill="#000000" fill-rule="evenodd" stroke="#000000" stroke-width="0.8"/>
<path d="M 82.85 27.15 L 82.95 27.11 L 83.04 27.09 L 83.14 27.08 L 83.24 27.07 L 83.34 27.08 L 83.44 27.10 L 83.53 27.12 L 83.62 27.16 L 83.71 27.20 L 83.80 27.25 L 83.88 27.31 L 83.81 27.25 L 83.79 27.24 L 83.58 27.06 L 83.57 27.04 L 83.37 26.86 L 83.35 26.84 L 83.16 26.66 L 83.14 26.64 L 82.96 26.45 L 82.94 26.44 L 82.76 26.25 L 82.75 26.23 L 82.57 26.04 L 82.56 26.02 L 82.39 25.83 L 82.37 25.81 L 82.23 25.64 L 82.23 28.07 L 82.23 27.98 L 82.25 27.88 L 82.27 27.78 L 82.31 27.69 L 82.35 27.60 L 82.40 27.52 L 82.46 27.44 L 82.53 27.36 L 82.60 27.30 L 82.68 27.24 L 82.76 27.19 L 82.85 27.15 Z" fill="#000000" fill-rule="evenodd" stroke="#000000" stroke-width="0.8"/>
<path d="M 105.95 7.44 L 105.30 7.12 L 104.66 7.44 L 104.87 7.44 L 104.88 7.44 L 105.30 7.43 L 105.31 7.43 L 105.73 7.44 L 105.74 7.44 L 105.95 7.44 Z" fill="#000000" fill-rule="evenodd" stroke="#000000" stroke-width="0.8"/>
<path d="M 110.02 110.42 L 110.02 110.51 L 110.02 110.46 L 110.02 110.44 L 110.04 110.21 L 110.04 110.19 L 110.06 109.96 L 110.06 109.95 L 110.08 109.81 L 109.98 109.77 L 109.80 109.69 L 109.62 109.62 L 109.44 109.55 L 109.36 109.52 L 109.45 109.56 L 109.53 109.60 L 109.62 109.66 L 109.69 109.72 L 109.76 109.79 L 109.83 109.87 L 109.88 109.95 L 109.93 110.04 L 109.96 110.13 L 109.99 110.23 L 110.01 110.32 L 110.02 110.42 Z" fill="#000000" fill-rule="evenodd" stroke="#000000" stroke-width="0.8"/>
<path d="M 112.58 112.05 L 112.67 112.01 L 112.77 111.98 L 112.86 111.96 L 112.96 111.95 L 113.06 111.94 L 113.16 111.95 L 113.26 111.97 L 113.35 112.00 L 113.44 112.03 L 113.53 112.08 L 113.61 112.13 L 113.69 112.19 L 113.64 112.15 L 113.46 111.99 L 113.28 111.84 L 113.09 111.69 L 112.91 111.55 L 112.73 111.41 L 112.55 111.27 L 112.36 111.14 L 112.18 111.01 L 112.00 110.88 L 111.99 111.04 L 111.98 111.26 L 111.98 111.49 L 111.98 111.72 L 111.98 111.94 L 111.98 112.18 L 111.99 112.41 L 112.00 112.65 L 112.02 112.89 L 112.03 113.02 L 112.03 112.92 L 112.04 112.82 L 112.05 112.73 L 112.08 112.63 L 112.11 112.54 L 112.16 112.45 L 112.21 112.37 L 112.27 112.29 L 112.34 112.22 L 112.42 112.15 L 112.50 112.10 L 112.58 112.05 Z" fill="#000000" fill-rule="evenodd" stroke="#000000" stroke-width="0.8"/>
<path d="M 120.81 128.28 L 120.72 128.33 L 120.63 128.37 L 120.54 128.40 L 120.44 128.42 L 120.34 128.43 L 120.25 128.44 L 120.15 128.43 L 120.05 128.41 L 119.95 128.38 L 119.86 128.35 L 119.78 128.30 L 119.69 128.25 L 119.61 128.19 L 119.74 128.29 L 119.92 128.45 L 120.10 128.60 L 120.28 128.75 L 120.47 128.89 L 120.65 129.03 L 120.83 129.17 L 121.02 129.30 L 121.20 129.43 L 121.31 129.50 L 121.31 129.38 L 121.32 129.15 L 121.32 128.93 L 121.33 128.70 L 121.32 128.47 L 121.32 128.24 L 121.31 128.01 L 121.30 127.77 L 121.28 127.54 L 121.27 127.36 L 121.27 127.46 L 121.27 127.56 L 121.25 127.65 L 121.22 127.75 L 121.19 127.84 L 121.14 127.93 L 121.09 128.01 L 121.03 128.09 L 120.96 128.16 L 120.89 128.22 L 120.81 128.28 Z" fill="#000000" fill-rule="evenodd" stroke="#000000" stroke-width="0.8"/>
<path d="M 120.85 132.24 L 120.84 132.34 L 120.81 132.44 L 120.81 132.43 L 120.87 132.24 L 120.92 132.06 L 120.97 131.87 L 121.01 131.68 L 120.92 131.62 L 120.90 131.61 L 120.71 131.49 L 120.69 131.48 L 120.50 131.36 L 120.48 131.35 L 120.40 131.30 L 120.48 131.36 L 120.56 131.42 L 120.63 131.50 L 120.69 131.58 L 120.74 131.66 L 120.78 131.75 L 120.81 131.85 L 120.84 131.94 L 120.85 132.04 L 120.86 132.14 L 120.85 132.24 Z" fill="#000000" fill-rule="evenodd" stroke="#000000" stroke-width="0.8"/>
<path d="M 130.89 20.40 L 130.98 20.36 L 131.07 20.32 L 131.16 20.30 L 131.26 20.28 L 131.36 20.27 L 131.45 20.28 L 131.55 20.29 L 131.64 20.31 L 131.74 20.34 L 131.82 20.38 L 130.32 19.63 L 130.34 19.72 L 130.34 19.76 L 130.36 19.96 L 130.36 20.00 L 130.37 20.21 L 130.37 20.25 L 130.38 20.45 L 130.38 20.47 L 130.38 20.47 L 130.38 21.27 L 130.38 21.18 L 130.40 21.08 L 130.42 20.99 L 130.45 20.89 L 130.49 20.81 L 130.54 20.72 L 130.60 20.65 L 130.66 20.57 L 130.73 20.51 L 130.81 20.45 L 130.89 20.40 Z" fill="#000000" fill-rule="evenodd" stroke="#000000" stroke-width="0.8"/>
<path d="M 127.75 27.15 L 127.84 27.19 L 127.93 27.24 L 128.01 27.30 L 128.08 27.36 L 128.15 27.44 L 128.21 27.52 L 128.26 27.60 L 128.30 27.69 L 128.33 27.78 L 128.36 27.88 L 128.37 27.98 L 128.38 28.07 L 128.38 25.64 L 128.23 25.81 L 128.22 25.83 L 128.05 26.02 L 128.03 26.04 L 127.86 26.23 L 127.84 26.25 L 127.66 26.44 L 127.65 26.45 L 127.46 26.64 L 127.45 26.66 L 127.25 26.84 L 127.24 26.86 L 127.04 27.04 L 127.02 27.06 L 126.81 27.24 L 126.80 27.25 L 126.73 27.31 L 126.81 27.25 L 126.89 27.20 L 126.98 27.16 L 127.07 27.12 L 127.17 27.10 L 127.27 27.08 L 127.36 27.07 L 127.46 27.08 L 127.56 27.09 L 127.66 27.11 L 127.75 27.15 Z" fill="#000000" fill-rule="evenodd" stroke="#000000" stroke-width="0.8"/>
<path d="M 139.60 55.52 L 139.69 55.49 L 139.79 55.46 L 139.88 55.45 L 139.98 55.45 L 140.08 55.45 L 140.18 55.47 L 140.28 55.49 L 140.37 55.53 L 140.46 55.57 L 140.54 55.62 L 140.62 55.68 L 140.55 55.62 L 140.53 55.61 L 140.33 55.43 L 140.31 55.42 L 140.11 55.23 L 140.10 55.22 L 139.90 55.03 L 139.89 55.02 L 139.70 54.83 L 139.69 54.81 L 139.50 54.62 L 139.49 54.60 L 139.31 54.41 L 139.30 54.40 L 139.13 54.20 L 139.12 54.19 L 138.97 54.01 L 138.97 56.45 L 138.98 56.35 L 138.99 56.25 L 139.02 56.15 L 139.05 56.06 L 139.09 55.97 L 139.14 55.89 L 139.20 55.81 L 139.27 55.73 L 139.34 55.67 L 139.42 55.61 L 139.51 55.56 L 139.60 55.52 Z" fill="#000000" fill-rule="evenodd" stroke="#000000" stroke-width="0.8"/>
<path d="M 159.66 34.78 L 159.67 34.88 L 159.67 34.98 L 159.66 35.07 L 159.64 35.17 L 159.62 35.26 L 159.58 35.35 L 159.53 35.43 L 159.48 35.51 L 159.42 35.59 L 159.35 35.66 L 159.28 35.72 L 159.20 35.77 L 159.11 35.82 L 159.02 35.86 L 158.93 35.89 L 158.84 35.91 L 158.74 35.92 L 159.05 35.90 L 159.06 35.90 L 159.47 35.88 L 159.48 35.87 L 159.90 35.85 L 159.91 35.85 L 160.33 35.84 L 160.34 35.84 L 160.76 35.82 L 160.76 35.82 L 161.18 35.81 L 161.19 35.81 L 161.61 35.81 L 161.62 35.81 L 162.04 35.81 L 162.05 35.81 L 162.47 35.81 L 162.48 35.81 L 162.69 35.81 L 159.13 34.03 L 159.21 34.07 L 159.28 34.13 L 159.36 34.19 L 159.43 34.26 L 159.49 34.34 L 159.54 34.42 L 159.58 34.51 L 159.62 34.59 L 159.65 34.69 L 159.66 34.78 Z" fill="#000000" fill-rule="evenodd" stroke="#000000" stroke-width="0.8"/>
<path d="M 187.64 48.77 L 187.72 48.73 L 187.81 48.69 L 187.91 48.67 L 188.00 48.65 L 188.10 48.65 L 188.20 48.65 L 188.29 48.66 L 188.39 48.68 L 188.48 48.71 L 188.57 48.75 L 187.07 48.00 L 187.08 48.09 L 187.08 48.13 L 187.10 48.34 L 187.10 48.37 L 187.12 48.58 L 187.12 48.62 L 187.12 48.83 L 187.12 48.84 L 187.12 48.84 L 187.12 49.65 L 187.12 49.55 L 187.14 49.45 L 187.16 49.36 L 187.19 49.27 L 187.24 49.18 L 187.28 49.10 L 187.34 49.02 L 187.41 48.95 L 187.48 48.88 L 187.55 48.82 L 187.64 48.77 Z" fill="#000000" fill-rule="evenodd" stroke="#000000" stroke-width="0.8"/>
<path d="M 184.40 55.49 L 184.50 55.52 L 184.59 55.56 L 184.67 55.61 L 184.75 55.67 L 184.82 55.73 L 184.89 55.81 L 184.95 55.89 L 185.00 55.97 L 185.04 56.06 L 185.08 56.15 L 185.10 56.25 L 185.12 56.35 L 185.12 56.44 L 185.12 54.01 L 184.98 54.19 L 184.96 54.20 L 184.79 54.40 L 184.78 54.41 L 184.60 54.60 L 184.59 54.62 L 184.41 54.81 L 184.39 54.83 L 184.21 55.02 L 184.19 55.03 L 184.00 55.22 L 183.98 55.23 L 183.78 55.42 L 183.76 55.43 L 183.56 55.61 L 183.54 55.62 L 183.47 55.68 L 183.55 55.62 L 183.64 55.57 L 183.72 55.53 L 183.82 55.49 L 183.91 55.47 L 184.01 55.45 L 184.11 55.45 L 184.21 55.45 L 184.31 55.46 L 184.40 55.49 Z" fill="#000000" fill-rule="evenodd" stroke="#000000" stroke-width="0.8"/>
<path d="M 152.05 160.16 L 151.98 160.09 L 151.91 160.02 L 151.86 159.94 L 151.81 159.86 L 151.77 159.77 L 151.74 159.68 L 151.72 159.59 L 151.70 159.49 L 151.70 159.40 L 151.70 159.47 L 151.70 159.48 L 151.69 159.60 L 151.69 159.61 L 151.69 159.73 L 151.69 159.75 L 151.68 159.87 L 151.68 159.88 L 151.67 160.00 L 151.67 160.01 L 151.66 160.13 L 151.66 160.15 L 151.65 160.26 L 151.65 160.28 L 151.64 160.39 L 151.63 160.41 L 151.62 160.52 L 151.62 160.53 L 151.60 160.65 L 151.60 160.66 L 151.58 160.77 L 151.58 160.79 L 151.56 160.90 L 151.55 160.91 L 151.53 161.02 L 151.53 161.04 L 151.51 161.11 L 153.14 160.29 L 153.06 160.33 L 152.96 160.36 L 152.87 160.38 L 152.77 160.40 L 152.68 160.40 L 152.58 160.39 L 152.48 160.38 L 152.39 160.35 L 152.30 160.31 L 152.21 160.27 L 152.13 160.22 L 152.05 160.16 Z" fill="#000000" fill-rule="evenodd" stroke="#000000" stroke-width="0.8"/>
</g>
<defs><clipPath id="sclip"><path d="M 36.23 103.21 L 36.23 103.22 L 36.23 103.23 L 36.23 103.25 L 36.23 103.26 L 36.23 103.27 L 36.26 103.55 L 36.27 103.63 L 36.29 103.87 L 36.30 103.90 L 36.30 103.92 L 36.30 103.95 L 36.34 104.19 L 36.39 104.51 L 36.40 104.57 L 36.40 104.59 L 36.42 104.66 L 36.42 104.69 L 36.43 104.72 L 36.45 104.84 L 36.53 105.17 L 36.54 105.21 L 36.55 105.24 L 36.56 105.31 L 36.61 105.50 L 36.67 105.71 L 36.69 105.76 L 36.69 105.78 L 36.70 105.83 L 36.72 105.88 L 36.73 105.92 L 36.75 105.97 L 36.81 106.16 L 36.92 106.48 L 36.94 106.55 L 36.95 106.57 L 36.97 106.63 L 37.04 106.80 L 37.16 107.12 L 37.21 107.23 L 37.22 107.26 L 37.22 107.26 L 37.22 107.26 L 37.30 107.45 L 37.44 107.76 L 37.46 107.79 L 37.48 107.84 L 37.50 107.88 L 37.50 107.89 L 37.52 107.93 L 37.59 108.08 L 37.76 108.39 L 37.81 108.49 L 37.83 108.53 L 37.86 108.58 L 37.92 108.69 L 37.98 108.80 L 38.00 108.83 L 38.03 108.88 L 38.09 108.99 L 38.15 109.08 L 38.19 109.15 L 38.23 109.21 L 38.27 109.28 L 38.47 109.58 L 38.53 109.67 L 38.58 109.74 L 38.59 109.76 L 38.60 109.78 L 38.63 109.82 L 38.66 109.86 L 38.86 110.13 L 38.95 110.25 L 38.99 110.31 L 39.02 110.35 L 39.06 110.40 L 39.28 110.67 L 39.39 110.80 L 39.42 110.84 L 39.45 110.87 L 39.49 110.92 L 39.72 111.17 L 39.85 111.31 L 39.88 111.34 L 39.90 111.37 L 39.95 111.41 L 40.01 111.47 L 40.01 111.47 L 40.18 111.64 L 40.33 111.78 L 40.34 111.79 L 40.35 111.80 L 40.35 111.80 L 40.42 111.87 L 40.66 112.08 L 40.74 112.15 L 40.77 112.17 L 40.81 112.21 L 40.82 112.21 L 40.87 112.25 L 40.89 112.27 L 40.89 112.27 L 41.15 112.47 L 41.34 112.61 L 41.36 112.63 L 41.41 112.66 L 41.55 112.75 L 41.55 112.76 L 41.58 112.78 L 41.66 112.83 L 41.87 112.96 L 41.90 112.98 L 41.93 112.99 L 42.17 113.14 L 42.43 113.27 L 144.58 164.34 L 144.69 164.40 L 144.81 164.46 L 144.93 164.51 L 145.04 164.55 L 145.10 164.58 L 145.14 164.60 L 145.15 164.60 L 145.16 164.60 L 145.27 164.65 L 145.39 164.69 L 145.45 164.71 L 145.51 164.73 L 145.62 164.77 L 145.63 164.77 L 145.67 164.78 L 145.71 164.79 L 145.74 164.80 L 145.86 164.83 L 145.98 164.86 L 146.09 164.89 L 146.22 164.91 L 146.24 164.92 L 146.29 164.93 L 146.30 164.93 L 146.31 164.93 L 146.31 164.93 L 146.45 164.95 L 146.57 164.97 L 146.69 164.98 L 146.72 164.99 L 146.73 164.99 L 146.78 164.99 L 146.82 164.99 L 146.92 165.00 L 147.04 165.00 L 147.16 165.01 L 147.21 165.01 L 147.28 165.00 L 147.32 165.00 L 147.33 165.00 L 147.40 165.00 L 147.51 164.99 L 147.62 164.98 L 147.74 164.97 L 147.86 164.95 L 147.90 164.95 L 147.97 164.94 L 148.05 164.92 L 148.08 164.91 L 148.19 164.89 L 148.30 164.86 L 148.42 164.83 L 148.53 164.79 L 148.63 164.75 L 148.75 164.71 L 148.83 164.68 L 148.88 164.66 L 148.93 164.63 L 148.96 164.62 L 149.06 164.57 L 160.42 158.89 L 160.54 158.83 L 160.67 158.76 L 160.80 158.67 L 160.81 158.67 L 160.81 158.67 L 160.86 158.63 L 160.92 158.59 L 161.04 158.51 L 161.16 158.41 L 161.25 158.33 L 161.26 158.32 L 161.26 158.32 L 161.27 158.31 L 161.38 158.22 L 161.49 158.11 L 161.59 158.00 L 161.63 157.96 L 161.64 157.95 L 161.69 157.89 L 161.79 157.78 L 161.88 157.65 L 161.96 157.55 L 161.99 157.52 L 162.02 157.47 L 162.06 157.41 L 162.14 157.28 L 162.22 157.15 L 162.27 157.06 L 162.29 157.01 L 162.37 156.87 L 162.43 156.73 L 162.50 156.59 L 162.50 156.58 L 162.51 156.56 L 162.53 156.52 L 162.56 156.44 L 162.61 156.29 L 162.67 156.14 L 162.70 156.03 L 162.71 156.00 L 162.76 155.84 L 162.81 155.68 L 162.84 155.51 L 162.85 155.48 L 162.86 155.47 L 162.86 155.45 L 162.88 155.36 L 162.91 155.20 L 162.94 155.03 L 162.95 154.94 L 162.96 154.93 L 162.97 154.86 L 162.99 154.70 L 163.00 154.53 L 163.02 154.36 L 163.02 154.30 L 163.03 154.25 L 163.03 154.23 L 163.03 154.19 L 163.04 154.01 L 163.04 153.84 L 163.05 153.67 L 163.05 119.53 L 219.79 91.16 L 219.79 62.13 L 186.22 45.34 L 186.07 45.09 L 185.95 44.89 L 185.81 44.61 L 185.75 44.55 L 185.72 44.48 L 185.66 44.40 L 185.62 44.33 L 185.35 43.99 L 184.96 43.48 L 184.91 43.42 L 184.87 43.37 L 184.82 43.32 L 184.78 43.28 L 184.47 42.96 L 184.05 42.52 L 183.90 42.39 L 183.78 42.27 L 183.75 42.24 L 183.71 42.21 L 183.43 41.98 L 183.01 41.63 L 182.80 41.47 L 182.63 41.33 L 182.47 41.22 L 182.35 41.13 L 182.12 40.98 L 181.85 40.78 L 181.57 40.61 L 181.33 40.45 L 181.02 40.27 L 180.80 40.13 L 180.69 40.07 L 180.56 39.99 L 180.20 39.80 L 179.90 39.63 L 179.54 39.46 L 179.16 39.26 L 179.11 39.24 L 179.07 39.22 L 178.80 39.10 L 178.69 39.05 L 178.34 38.89 L 178.03 38.76 L 177.65 38.59 L 177.37 38.49 L 177.18 38.41 L 176.95 38.33 L 176.67 38.21 L 176.37 38.11 L 176.05 37.99 L 175.52 37.83 L 175.15 37.70 L 175.03 37.66 L 174.90 37.62 L 174.62 37.54 L 174.36 37.46 L 173.60 37.26 L 173.06 37.11 L 173.05 37.11 L 172.99 37.09 L 172.82 37.05 L 172.60 37.00 L 171.64 36.79 L 171.09 36.67 L 170.96 36.65 L 170.78 36.61 L 170.76 36.60 L 170.74 36.60 L 170.63 36.58 L 169.71 36.43 L 169.09 36.32 L 168.99 36.31 L 168.88 36.29 L 168.64 36.26 L 168.41 36.23 L 167.88 36.17 L 129.48 16.97 L 129.32 16.71 L 129.21 16.51 L 129.06 16.24 L 129.01 16.17 L 128.97 16.11 L 128.92 16.03 L 128.88 15.96 L 128.60 15.62 L 128.21 15.10 L 128.17 15.06 L 128.13 15.00 L 128.07 14.95 L 128.04 14.90 L 127.71 14.58 L 127.31 14.16 L 127.16 14.03 L 127.04 13.90 L 127.00 13.87 L 126.97 13.84 L 126.70 13.62 L 126.69 13.62 L 126.68 13.61 L 126.68 13.61 L 126.67 13.60 L 126.27 13.26 L 126.06 13.10 L 125.88 12.96 L 125.73 12.85 L 125.61 12.75 L 125.39 12.61 L 125.10 12.41 L 124.82 12.23 L 124.58 12.07 L 124.28 11.90 L 124.05 11.76 L 123.94 11.70 L 123.81 11.62 L 123.45 11.43 L 123.15 11.26 L 122.80 11.09 L 122.41 10.89 L 122.37 10.87 L 122.33 10.85 L 122.03 10.72 L 121.97 10.69 L 121.59 10.51 L 121.26 10.38 L 120.91 10.22 L 120.64 10.12 L 120.44 10.04 L 120.20 9.95 L 119.92 9.84 L 119.62 9.74 L 119.30 9.62 L 118.77 9.45 L 118.41 9.33 L 118.28 9.29 L 118.15 9.24 L 117.89 9.18 L 117.62 9.09 L 116.86 8.89 L 116.31 8.74 L 116.26 8.72 L 116.06 8.68 L 115.85 8.62 L 115.00 8.44 L 114.35 8.30 L 114.19 8.27 L 114.03 8.24 L 114.02 8.23 L 114.00 8.23 L 113.90 8.21 L 112.98 8.06 L 112.35 7.95 L 112.24 7.94 L 112.14 7.92 L 111.87 7.89 L 111.67 7.86 L 111.17 7.80 L 111.13 7.80 L 105.30 4.88 L 99.50 7.78 L 99.08 7.84 L 98.46 7.92 L 98.09 7.98 L 97.75 8.03 L 97.46 8.08 L 97.18 8.13 L 96.91 8.18 L 96.58 8.23 L 96.16 8.32 L 95.76 8.40 L 95.29 8.51 L 95.29 8.51 L 94.90 8.59 L 94.82 8.61 L 94.75 8.62 L 94.27 8.75 L 93.84 8.85 L 93.45 8.96 L 92.99 9.09 L 92.84 9.13 L 92.72 9.16 L 92.40 9.27 L 92.00 9.39 L 91.68 9.50 L 91.30 9.62 L 90.95 9.75 L 90.66 9.85 L 90.47 9.93 L 90.25 10.00 L 89.98 10.12 L 89.70 10.22 L 89.13 10.47 L 88.74 10.64 L 88.67 10.67 L 88.61 10.69 L 88.43 10.79 L 88.19 10.89 L 87.54 11.23 L 87.08 11.46 L 87.03 11.49 L 86.97 11.52 L 86.89 11.57 L 86.79 11.62 L 86.12 12.03 L 85.68 12.29 L 85.61 12.34 L 85.50 12.41 L 85.43 12.46 L 85.37 12.50 L 85.13 12.68 L 84.77 12.94 L 84.42 13.19 L 84.38 13.22 L 84.33 13.26 L 84.14 13.43 L 83.96 13.56 L 83.70 13.80 L 83.51 13.97 L 83.31 14.14 L 83.27 14.18 L 82.99 14.48 L 82.75 14.70 L 82.60 14.88 L 82.39 15.11 L 82.37 15.13 L 82.35 15.16 L 82.12 15.47 L 81.97 15.65 L 81.75 15.93 L 81.70 16.01 L 81.64 16.10 L 81.59 16.17 L 81.55 16.24 L 81.34 16.62 L 81.14 16.96 L 36.21 39.43 L 36.21 102.60 L 36.22 102.91 Z" clip-rule="evenodd"/></clipPath></defs>
<g stroke="black" fill="none" stroke-linecap="round" clip-path="url(#sclip)">
<path d="M 42.88 112.38 L 145.02 163.45 A 8.02 4.91 -116.57 0 0 148.61 163.68 L 159.96 158.00 A 8.02 4.91 -116.57 0 0 162.05 153.66 L 162.05 118.91 L 218.79 90.54 L 218.79 62.74 L 185.47 46.08 A 24.07 12.04 180.00 0 0 167.58 37.14 L 128.73 17.71 A 24.07 12.04 -180.00 0 0 110.84 8.77 L 105.30 6.00 L 99.79 8.76 A 24.07 12.04 -180.00 0 0 81.87 17.71 L 37.21 40.05 L 37.21 102.59 A 8.02 4.91 -116.57 0 0 42.88 112.38 Z" stroke-width="2.00" stroke-linejoin="miter" stroke-miterlimit="5"/>
<line x1="148.61" y1="163.68" x2="159.96" y2="158.00" stroke-width="2.00"/>
<line x1="129.38" y1="20.47" x2="129.38" y2="34.37" stroke-width="2.00"/>
<line x1="81.23" y1="20.47" x2="81.23" y2="34.37" stroke-width="2.00"/>
<line x1="186.12" y1="48.84" x2="186.12" y2="62.74" stroke-width="2.00"/>
<line x1="137.97" y1="48.84" x2="137.97" y2="62.74" stroke-width="2.00"/>
<line x1="100.21" y1="101.49" x2="111.56" y2="95.82" stroke-width="2.00"/>
<line x1="121.74" y1="144.56" x2="133.09" y2="138.89" stroke-width="2.00"/>
<line x1="43.47" y1="73.12" x2="54.82" y2="67.45" stroke-width="2.00"/>
<line x1="65.00" y1="116.19" x2="76.35" y2="110.51" stroke-width="2.00"/>
<line x1="162.05" y1="118.91" x2="218.79" y2="90.54" stroke-width="2.00"/>
<line x1="37.21" y1="40.05" x2="81.86" y2="17.72" stroke-width="2.00"/>
<line x1="99.84" y1="8.73" x2="105.30" y2="6.00" stroke-width="2.00"/>
<line x1="150.70" y1="96.79" x2="218.79" y2="62.74" stroke-width="2.00"/>
<line x1="105.30" y1="6.00" x2="110.76" y2="8.73" stroke-width="2.00"/>
<line x1="128.74" y1="17.72" x2="167.42" y2="37.06" stroke-width="2.00"/>
<line x1="185.56" y1="46.13" x2="218.79" y2="62.74" stroke-width="2.00"/>
<line x1="37.21" y1="40.05" x2="150.70" y2="96.79" stroke-width="2.00"/>
<line x1="37.21" y1="40.05" x2="37.21" y2="102.59" stroke-width="2.00"/>
<line x1="150.70" y1="96.79" x2="150.70" y2="159.34" stroke-width="2.00"/>
<line x1="218.79" y1="62.74" x2="218.79" y2="90.54" stroke-width="2.00"/>
<line x1="162.05" y1="118.91" x2="162.05" y2="153.66" stroke-width="2.00"/>
<line x1="42.88" y1="112.38" x2="145.02" y2="163.45" stroke-width="2.00"/>
<path d="M 42.88 112.38 A 8.02 4.91 -116.57 0 1 38.87 108.34 A 8.02 4.91 -116.57 0 1 37.21 102.59" stroke-width="2.00"/>
<path d="M 150.70 159.34 A 8.02 4.91 -116.57 0 1 149.04 163.42 A 8.02 4.91 -116.57 0 1 145.02 163.45" stroke-width="2.00"/>
<path d="M 162.05 153.66 A 8.02 4.91 -116.57 0 1 159.96 158.00" stroke-width="2.00"/>
<path d="M 129.38 34.37 A 24.07 12.04 -180.00 0 1 105.30 46.41 A 24.07 12.04 -180.00 0 1 81.23 34.37" stroke-width="2.00"/>
<path d="M 122.33 28.98 A 24.07 12.04 -180.00 0 0 122.33 11.96 A 24.07 12.04 -180.00 0 0 88.28 11.96 A 24.07 12.04 -180.00 0 0 88.28 28.98 A 24.07 12.04 -180.00 0 0 122.33 28.98" stroke-width="2.00"/>
<path d="M 186.12 62.74 A 24.07 12.04 -180.00 0 1 174.08 73.17 A 24.07 12.04 -180.00 0 1 150.01 73.17 A 24.07 12.04 -180.00 0 1 137.97 62.74" stroke-width="2.00"/>
<path d="M 179.07 57.36 A 24.07 12.04 180.00 0 0 179.07 40.33 A 24.07 12.04 180.00 0 0 145.02 40.33 A 24.07 12.04 180.00 0 0 145.02 57.36 A 24.07 12.04 180.00 0 0 179.07 57.36" stroke-width="2.00"/>
<path d="M 122.02 131.09 A 16.05 9.83 -116.57 0 1 113.54 121.76 A 16.05 9.83 -116.57 0 1 111.14 109.38" stroke-width="2.00"/>
<path d="M 111.56 95.82 A 24.07 14.74 -116.57 0 1 128.36 100.88 A 24.07 14.74 -116.57 0 1 139.13 122.41 A 24.07 14.74 -116.57 0 1 133.09 138.89" stroke-width="2.00"/>
<path d="M 110.98 136.93 A 16.05 9.83 -116.57 0 0 122.33 128.70 A 16.05 9.83 -116.57 0 0 110.98 109.13 A 16.05 9.83 -116.57 0 0 99.63 117.35 A 16.05 9.83 -116.57 0 0 110.98 136.93" stroke-width="2.00"/>
<path d="M 110.98 143.88 A 24.07 14.74 -116.57 0 0 128.00 131.54 A 24.07 14.74 -116.57 0 0 110.98 102.18 A 24.07 14.74 -116.57 0 0 93.95 114.52 A 24.07 14.74 -116.57 0 0 110.98 143.88" stroke-width="2.00"/>
<path d="M 65.28 102.72 A 16.05 9.83 -116.57 0 1 56.80 93.39 A 16.05 9.83 -116.57 0 1 54.40 81.01" stroke-width="2.00"/>
<path d="M 54.82 67.45 A 24.07 14.74 -116.57 0 1 71.62 72.50 A 24.07 14.74 -116.57 0 1 82.38 94.04 A 24.07 14.74 -116.57 0 1 76.35 110.51" stroke-width="2.00"/>
<path d="M 54.23 108.55 A 16.05 9.83 -116.57 0 0 65.58 100.33 A 16.05 9.83 -116.57 0 0 54.23 80.76 A 16.05 9.83 -116.57 0 0 42.88 88.98 A 16.05 9.83 -116.57 0 0 54.23 108.55" stroke-width="2.00"/>
<path d="M 54.23 115.50 A 24.07 14.74 -116.57 0 0 71.26 103.17 A 24.07 14.74 -116.57 0 0 54.23 73.81 A 24.07 14.74 -116.57 0 0 37.21 86.14 A 24.07 14.74 -116.57 0 0 54.23 115.50" stroke-width="2.00"/>
</g>
</svg>