<svg xmlns="http://www.w3.org/2000/svg" viewBox="0 0 256 170" preserveAspectRatio="xMidYMid meet">
<defs><linearGradient id="g2" gradientUnits="userSpaceOnUse" x1="81.23" y1="27.42" x2="129.38" y2="27.42"><stop offset="0.0%" stop-color="#35aaba"/><stop offset="3.8%" stop-color="#37b2c3"/><stop offset="14.6%" stop-color="#36adbe"/><stop offset="30.9%" stop-color="#319dac"/><stop offset="50.0%" stop-color="#298390"/><stop offset="69.1%" stop-color="#1f646e"/><stop offset="85.4%" stop-color="#1e6069"/><stop offset="96.2%" stop-color="#1e6069"/><stop offset="100.0%" stop-color="#1e6069"/></linearGradient><linearGradient id="g4" gradientUnits="userSpaceOnUse" x1="52.73" y1="77.46" x2="67.09" y2="106.17"><stop offset="0.0%" stop-color="#1e6069"/><stop offset="3.8%" stop-color="#1e6069"/><stop offset="14.6%" stop-color="#1e6069"/><stop offset="30.9%" stop-color="#206973"/><stop offset="50.0%" stop-color="#2f98a7"/><stop offset="69.1%" stop-color="#3bbfd2"/><stop offset="85.4%" stop-color="#43d7ec"/><stop offset="96.2%" stop-color="#45ddf3"/><stop offset="100.0%" stop-color="#41d0e5"/></linearGradient><linearGradient id="g5" gradientUnits="userSpaceOnUse" x1="70.67" y1="113.35" x2="49.14" y2="70.28"><stop offset="-0.0%" stop-color="#1e6069"/><stop offset="3.8%" stop-color="#1e6069"/><stop offset="14.6%" stop-color="#1e6069"/><stop offset="30.9%" stop-color="#206973"/><stop offset="50.0%" stop-color="#2f98a7"/><stop offset="69.1%" stop-color="#3bbfd2"/><stop offset="85.4%" stop-color="#43d7ec"/><stop offset="96.2%" stop-color="#45ddf3"/><stop offset="100.0%" stop-color="#41d0e5"/></linearGradient><linearGradient id="g8" gradientUnits="userSpaceOnUse" x1="154.29" y1="160.84" x2="156.37" y2="156.50"><stop offset="0.0%" stop-color="#1e6069"/><stop offset="9.5%" stop-color="#1e6069"/><stop offset="20.2%" stop-color="#1e6069"/><stop offset="31.9%" stop-color="#1e6069"/><stop offset="44.4%" stop-color="#1e6069"/><stop offset="57.7%" stop-color="#1e6069"/><stop offset="71.5%" stop-color="#1e6069"/><stop offset="85.6%" stop-color="#1e6069"/><stop offset="100.0%" stop-color="#1e6069"/></linearGradient><linearGradient id="g9" gradientUnits="userSpaceOnUse" x1="109.47" y1="105.83" x2="123.83" y2="134.54"><stop offset="0.0%" stop-color="#1e6069"/><stop offset="3.8%" stop-color="#1e6069"/><stop offset="14.6%" stop-color="#1e6069"/><stop offset="30.9%" stop-color="#206973"/><stop offset="50.0%" stop-color="#2f98a7"/><stop offset="69.1%" stop-color="#3bbfd2"/><stop offset="85.4%" stop-color="#43d7ec"/><stop offset="96.2%" stop-color="#45ddf3"/><stop offset="100.0%" stop-color="#41d0e5"/></linearGradient><linearGradient id="g10" gradientUnits="userSpaceOnUse" x1="137.97" y1="55.79" x2="186.12" y2="55.79"><stop offset="0.0%" stop-color="#35aaba"/><stop offset="3.8%" stop-color="#37b2c3"/><stop offset="14.6%" stop-color="#36adbe"/><stop offset="30.9%" stop-color="#319dac"/><stop offset="50.0%" stop-color="#298390"/><stop offset="69.1%" stop-color="#1f646e"/><stop offset="85.4%" stop-color="#1e6069"/><stop offset="96.2%" stop-color="#1e6069"/><stop offset="100.0%" stop-color="#1e6069"/></linearGradient><linearGradient id="g12" gradientUnits="userSpaceOnUse" x1="127.42" y1="141.72" x2="105.88" y2="98.66"><stop offset="-0.0%" stop-color="#1e6069"/><stop offset="3.8%" stop-color="#1e6069"/><stop offset="14.6%" stop-color="#1e6069"/><stop offset="30.9%" stop-color="#206973"/><stop offset="50.0%" stop-color="#2f98a7"/><stop offset="69.1%" stop-color="#3bbfd2"/><stop offset="85.4%" stop-color="#43d7ec"/><stop offset="96.2%" stop-color="#45ddf3"/><stop offset="100.0%" stop-color="#41d0e5"/></linearGradient></defs>
<g stroke-linejoin="round">
<path d="M 54.43 80.87 A 16.05 9.83 -116.57 0 0 63.31 101.46 A 16.05 9.83 -116.57 0 0 65.38 102.77 A 16.05 9.83 -116.57 0 0 56.83 82.43 A 16.05 9.83 -116.57 0 0 54.43 80.87 Z M 42.88 112.38 L 145.02 163.45 A 8.02 4.91 -116.57 0 0 146.49 163.95 L 150.64 160.23 A 8.02 4.91 -116.57 0 0 150.70 159.34 L 150.70 124.59 L 150.70 96.79 L 37.21 40.05 L 37.21 67.84 L 37.21 86.14 L 37.21 102.59 A 8.02 4.91 -116.57 0 0 42.88 112.38 Z M 43.65 73.03 L 45.62 72.05 L 54.82 67.45 A 24.07 14.74 -116.57 0 1 78.32 81.53 A 24.07 14.74 -116.57 0 1 77.37 109.91 A 24.07 14.74 -116.57 0 1 76.35 110.51 L 65.00 116.19 A 24.07 14.74 -116.57 0 1 41.13 101.39 A 24.07 14.74 -116.57 0 1 42.93 73.44 A 24.07 14.74 -116.57 0 1 43.65 73.03 Z M 100.21 101.49 L 102.36 100.42 L 111.56 95.82 A 24.07 14.74 -116.57 0 1 135.07 109.90 A 24.07 14.74 -116.57 0 1 134.12 138.28 A 24.07 14.74 -116.57 0 1 133.09 138.88 L 128.30 141.28 L 121.74 144.56 A 24.07 14.74 -116.57 0 1 97.88 129.78 A 24.07 14.74 -116.57 0 1 99.66 101.81 A 24.07 14.74 -116.57 0 1 100.21 101.49 Z M 111.17 109.24 A 16.05 9.83 -116.57 0 0 111.18 114.35 L 110.84 114.35 L 110.76 114.35 L 110.67 114.36 L 110.70 114.55 L 110.70 114.56 L 110.70 114.56 L 110.74 114.82 L 110.74 114.83 L 110.78 115.08 L 110.78 115.09 L 110.79 115.09 L 110.83 115.35 L 110.83 115.36 L 110.83 115.36 L 110.88 115.62 L 110.89 115.62 L 110.89 115.63 L 110.94 115.89 L 110.94 115.90 L 110.94 115.90 L 110.99 116.14 L 111.00 116.16 L 111.06 116.42 L 111.06 116.44 L 111.12 116.68 L 111.12 116.69 L 111.13 116.69 L 111.19 116.95 L 111.19 116.96 L 111.19 116.96 L 111.26 117.22 L 111.27 117.23 L 111.30 117.35 L 111.82 117.35 A 16.05 9.83 -116.57 0 0 122.13 131.14 A 16.05 9.83 -116.57 0 0 113.57 110.80 A 16.05 9.83 -116.57 0 0 111.17 109.24 Z M 150.65 160.22 L 146.49 163.95 A 8.02 4.91 -116.57 0 0 150.65 160.22 Z" fill="#2e94a2" fill-rule="evenodd" stroke="#2e94a2" stroke-width="0.8"/>
<path d="M 110.84 8.77 L 105.30 6.00 L 99.79 8.76 A 24.07 12.04 -180.00 0 1 110.84 8.77 Z M 167.58 37.14 L 128.73 17.71 A 24.07 12.04 -180.00 0 1 129.38 20.47 L 129.38 34.37 A 24.07 12.04 -180.00 0 1 106.27 46.40 A 24.07 12.04 -180.00 0 1 81.31 35.34 A 24.07 12.04 -180.00 0 1 81.23 34.37 L 81.23 20.47 A 24.07 12.04 -180.00 0 1 81.88 17.71 L 37.21 40.05 L 150.70 96.79 L 218.79 62.74 L 185.47 46.08 A 24.07 12.04 180.00 0 1 186.12 48.84 L 186.12 58.66 L 186.12 62.74 A 24.07 12.04 -180.00 0 1 163.02 74.77 A 24.07 12.04 -180.00 0 1 138.05 63.71 A 24.07 12.04 -180.00 0 1 137.97 62.74 L 137.97 52.64 L 137.97 48.84 A 24.07 12.04 180.00 0 1 161.31 36.82 A 24.07 12.04 180.00 0 1 167.58 37.14 Z" fill="#46e2f8" fill-rule="evenodd" stroke="#46e2f8" stroke-width="0.8"/>
<path d="M 129.38 34.37 L 129.38 20.47 A 24.07 12.04 -180.00 0 1 105.48 32.50 A 24.07 12.04 -180.00 0 1 81.27 20.98 A 24.07 12.04 -180.00 0 1 81.23 20.47 L 81.23 34.37 A 24.07 12.04 -180.00 0 0 104.33 46.40 A 24.07 12.04 -180.00 0 0 129.30 35.34 A 24.07 12.04 -180.00 0 0 129.38 34.37 Z" fill="url(#g2)" fill-rule="evenodd" stroke="url(#g2)" stroke-width="0.8"/>
<path d="M 127.60 25.01 A 24.07 12.04 -180.00 0 0 116.02 9.69 A 24.07 12.04 -180.00 0 0 84.61 14.32 A 24.07 12.04 -180.00 0 0 91.49 30.33 A 24.07 12.04 -180.00 0 0 123.94 28.09 A 24.07 12.04 -180.00 0 0 127.60 25.01 Z" fill="#46e2f8" fill-rule="evenodd" stroke="#46e2f8" stroke-width="0.8"/>
<path d="M 65.38 102.77 A 16.05 9.83 -116.57 0 1 54.23 83.31 A 16.05 9.83 -116.57 0 1 54.43 80.87 A 16.05 9.83 -116.57 0 0 42.90 88.37 A 16.05 9.83 -116.57 0 0 53.32 108.04 A 16.05 9.83 -116.57 0 0 65.38 102.77 Z" fill="url(#g4)" fill-rule="evenodd" stroke="url(#g4)" stroke-width="0.8"/>
<path d="M 54.82 67.45 L 43.47 73.12 A 24.07 14.74 -116.57 0 1 67.08 87.41 A 24.07 14.74 -116.57 0 1 65.41 115.95 A 24.07 14.74 -116.57 0 1 65.00 116.19 L 76.35 110.51 A 24.07 14.74 -116.57 0 0 79.19 83.26 A 24.07 14.74 -116.57 0 0 55.91 66.99 A 24.07 14.74 -116.57 0 0 54.82 67.45 Z" fill="url(#g5)" fill-rule="evenodd" stroke="url(#g5)" stroke-width="0.8"/>
<path d="M 59.25 117.09 A 24.07 14.74 -116.57 0 0 70.83 98.31 A 24.07 14.74 -116.57 0 0 51.70 72.77 A 24.07 14.74 -116.57 0 0 37.26 87.72 A 24.07 14.74 -116.57 0 0 54.23 115.50 A 24.07 14.74 -116.57 0 0 59.25 117.09 Z M 50.89 106.26 A 16.05 9.83 -116.57 0 1 43.17 86.03 A 16.05 9.83 -116.57 0 1 55.92 81.76 A 16.05 9.83 -116.57 0 1 65.55 101.35 A 16.05 9.83 -116.57 0 1 54.23 108.55 A 16.05 9.83 -116.57 0 1 50.89 106.26 Z" fill="#2e94a2" fill-rule="evenodd" stroke="#2e94a2" stroke-width="0.8"/>
<path d="M 150.70 124.59 L 150.70 159.34 L 162.05 153.66 L 162.05 118.91 L 218.79 90.54 L 218.79 62.74 L 150.70 96.79 L 150.70 124.59 Z" fill="#206873" fill-rule="evenodd" stroke="#206873" stroke-width="0.8"/>
<path d="M 162.05 153.66 L 150.70 159.34 A 8.02 4.91 -116.57 0 1 148.61 163.68 L 159.96 158.00 A 8.02 4.91 -116.57 0 0 162.05 153.66 Z" fill="url(#g8)" fill-rule="evenodd" stroke="url(#g8)" stroke-width="0.8"/>
<path d="M 122.13 131.14 A 16.05 9.83 -116.57 0 1 111.82 117.35 L 111.30 117.35 L 111.27 117.23 L 111.26 117.22 L 111.19 116.96 L 111.19 116.96 L 111.19 116.95 L 111.13 116.69 L 111.12 116.69 L 111.12 116.68 L 111.06 116.44 L 111.06 116.42 L 111.00 116.16 L 110.99 116.14 L 110.94 115.90 L 110.94 115.90 L 110.94 115.89 L 110.89 115.63 L 110.89 115.62 L 110.88 115.62 L 110.83 115.36 L 110.83 115.36 L 110.83 115.35 L 110.79 115.09 L 110.78 115.09 L 110.78 115.08 L 110.74 114.83 L 110.74 114.82 L 110.70 114.56 L 110.70 114.56 L 110.70 114.55 L 110.67 114.36 L 110.76 114.35 L 110.84 114.35 L 111.18 114.35 A 16.05 9.83 -116.57 0 1 111.17 109.24 A 16.05 9.83 -116.57 0 0 99.65 116.75 A 16.05 9.83 -116.57 0 0 110.08 136.42 A 16.05 9.83 -116.57 0 0 122.13 131.14 Z" fill="url(#g9)" fill-rule="evenodd" stroke="url(#g9)" stroke-width="0.8"/>
<path d="M 186.12 62.74 L 186.12 48.84 A 24.07 12.04 180.00 0 1 162.23 60.87 A 24.07 12.04 180.00 0 1 138.01 49.35 A 24.07 12.04 180.00 0 1 137.97 48.84 L 137.97 62.74 A 24.07 12.04 -180.00 0 0 161.08 74.77 A 24.07 12.04 -180.00 0 0 186.04 63.71 A 24.07 12.04 -180.00 0 0 186.12 62.74 Z" fill="url(#g10)" fill-rule="evenodd" stroke="url(#g10)" stroke-width="0.8"/>
<path d="M 183.33 54.47 A 24.07 12.04 180.00 0 0 174.85 38.65 A 24.07 12.04 180.00 0 0 142.68 41.70 A 24.07 12.04 180.00 0 0 146.34 57.97 A 24.07 12.04 180.00 0 0 179.07 57.36 A 24.07 12.04 180.00 0 0 183.33 54.47 Z" fill="#46e2f8" fill-rule="evenodd" stroke="#46e2f8" stroke-width="0.8"/>
<path d="M 111.56 95.82 L 100.21 101.49 A 24.07 14.74 -116.57 0 1 123.77 115.67 A 24.07 14.74 -116.57 0 1 122.77 143.96 A 24.07 14.74 -116.57 0 1 121.74 144.56 L 133.09 138.88 A 24.07 14.74 -116.57 0 0 135.94 111.63 A 24.07 14.74 -116.57 0 0 112.66 95.36 A 24.07 14.74 -116.57 0 0 111.56 95.82 Z" fill="url(#g12)" fill-rule="evenodd" stroke="url(#g12)" stroke-width="0.8"/>
<path d="M 114.35 145.15 A 24.07 14.74 -116.57 0 0 127.87 128.88 A 24.07 14.74 -116.57 0 0 110.13 101.78 A 24.07 14.74 -116.57 0 0 93.96 114.00 A 24.07 14.74 -116.57 0 0 109.28 142.93 A 24.07 14.74 -116.57 0 0 114.35 145.15 Z M 108.73 135.53 A 16.05 9.83 -116.57 0 1 99.72 115.67 A 16.05 9.83 -116.57 0 1 111.54 109.43 A 16.05 9.83 -116.57 0 1 122.32 128.35 A 16.05 9.83 -116.57 0 1 112.11 137.42 A 16.05 9.83 -116.57 0 1 108.73 135.53 Z" fill="#2e94a2" fill-rule="evenodd" stroke="#2e94a2" stroke-width="0.8"/>
<path d="M 105.74 7.44 L 105.95 7.44 L 105.30 7.12 L 104.66 7.44 L 104.87 7.44 L 104.88 7.44 L 105.30 7.43 L 105.31 7.43 L 105.73 7.44 L 105.74 7.44 Z" fill="#000000" fill-rule="evenodd" stroke="#000000" stroke-width="0.8"/>
</g>
<defs><clipPath id="sclip"><path d="M 36.23 103.21 L 36.23 103.22 L 36.23 103.23 L 36.23 103.25 L 36.23 103.26 L 36.23 103.27 L 36.26 103.55 L 36.27 103.63 L 36.29 103.87 L 36.30 103.90 L 36.30 103.92 L 36.30 103.95 L 36.34 104.19 L 36.39 104.51 L 36.40 104.57 L 36.40 104.59 L 36.42 104.66 L 36.42 104.69 L 36.43 104.72 L 36.45 104.84 L 36.53 105.17 L 36.54 105.21 L 36.55 105.24 L 36.56 105.31 L 36.61 105.50 L 36.67 105.71 L 36.69 105.76 L 36.69 105.78 L 36.70 105.83 L 36.72 105.88 L 36.73 105.92 L 36.75 105.97 L 36.81 106.16 L 36.92 106.48 L 36.94 106.55 L 36.95 106.57 L 36.97 106.63 L 37.04 106.80 L 37.16 107.12 L 37.21 107.23 L 37.22 107.26 L 37.22 107.26 L 37.22 107.26 L 37.30 107.45 L 37.44 107.76 L 37.46 107.79 L 37.48 107.84 L 37.50 107.88 L 37.50 107.89 L 37.52 107.93 L 37.59 108.08 L 37.76 108.39 L 37.81 108.49 L 37.83 108.53 L 37.86 108.58 L 37.92 108.69 L 37.98 108.80 L 38.00 108.83 L 38.03 108.88 L 38.09 108.99 L 38.15 109.08 L 38.19 109.15 L 38.23 109.21 L 38.27 109.28 L 38.47 109.58 L 38.53 109.67 L 38.58 109.74 L 38.59 109.76 L 38.60 109.78 L 38.63 109.82 L 38.66 109.86 L 38.86 110.13 L 38.95 110.25 L 38.99 110.31 L 39.02 110.35 L 39.06 110.40 L 39.28 110.67 L 39.39 110.80 L 39.42 110.84 L 39.45 110.87 L 39.49 110.92 L 39.72 111.17 L 39.85 111.31 L 39.88 111.34 L 39.90 111.37 L 39.95 111.41 L 40.01 111.47 L 40.01 111.47 L 40.18 111.64 L 40.33 111.78 L 40.34 111.79 L 40.35 111.80 L 40.35 111.80 L 40.42 111.87 L 40.66 112.08 L 40.74 112.15 L 40.77 112.17 L 40.81 112.21 L 40.82 112.21 L 40.87 112.25 L 40.89 112.27 L 40.89 112.27 L 41.15 112.47 L 41.34 112.61 L 41.36 112.63 L 41.41 112.66 L 41.55 112.75 L 41.55 112.76 L 41.58 112.78 L 41.66 112.83 L 41.87 112.96 L 41.90 112.98 L 41.93 112.99 L 42.17 113.14 L 42.43 113.27 L 144.58 164.34 L 144.69 164.40 L 144.81 164.46 L 144.93 164.51 L 145.04 164.55 L 145.10 164.58 L 145.14 164.60 L 145.15 164.60 L 145.16 164.60 L 145.27 164.65 L 145.39 164.69 L 145.45 164.71 L 145.51 164.73 L 145.62 164.77 L 145.63 164.77 L 145.67 164.78 L 145.71 164.79 L 145.74 164.80 L 145.86 164.83 L 145.98 164.86 L 146.09 164.89 L 146.22 164.91 L 146.24 164.92 L 146.29 164.93 L 146.30 164.93 L 146.31 164.93 L 146.31 164.93 L 146.45 164.95 L 146.57 164.97 L 146.69 164.98 L 146.72 164.99 L 146.73 164.99 L 146.78 164.99 L 146.82 164.99 L 146.92 165.00 L 147.04 165.00 L 147.16 165.01 L 147.21 165.01 L 147.28 165.00 L 147.32 165.00 L 147.33 165.00 L 147.40 165.00 L 147.51 164.99 L 147.62 164.98 L 147.74 164.97 L 147.86 164.95 L 147.90 164.95 L 147.97 164.94 L 148.05 164.92 L 148.08 164.91 L 148.19 164.89 L 148.30 164.86 L 148.42 164.83 L 148.53 164.79 L 148.63 164.75 L 148.75 164.71 L 148.83 164.68 L 148.88 164.66 L 148.93 164.63 L 148.96 164.62 L 149.06 164.57 L 160.42 158.89 L 160.54 158.83 L 160.67 158.76 L 160.80 158.67 L 160.81 158.67 L 160.81 158.67 L 160.86 158.63 L 160.92 158.59 L 161.04 158.51 L 161.16 158.41 L 161.25 158.33 L 161.26 158.32 L 161.26 158.32 L 161.27 158.31 L 161.38 158.22 L 161.49 158.11 L 161.59 158.00 L 161.63 157.96 L 161.64 157.95 L 161.69 157.89 L 161.79 157.78 L 161.88 157.65 L 161.96 157.55 L 161.99 157.52 L 162.02 157.47 L 162.06 157.41 L 162.14 157.28 L 162.22 157.15 L 162.27 157.06 L 162.29 157.01 L 162.37 156.87 L 162.43 156.73 L 162.50 156.59 L 162.50 156.58 L 162.51 156.56 L 162.53 156.52 L 162.56 156.44 L 162.61 156.29 L 162.67 156.14 L 162.70 156.03 L 162.71 156.00 L 162.76 155.84 L 162.81 155.68 L 162.84 155.51 L 162.85 155.48 L 162.86 155.47 L 162.86 155.45 L 162.88 155.36 L 162.91 155.20 L 162.94 155.03 L 162.95 154.94 L 162.96 154.93 L 162.97 154.86 L 162.99 154.70 L 163.00 154.53 L 163.02 154.36 L 163.02 154.30 L 163.03 154.25 L 163.03 154.23 L 163.03 154.19 L 163.04 154.01 L 163.04 153.84 L 163.05 153.67 L 163.05 119.53 L 219.79 91.16 L 219.79 62.13 L 186.22 45.34 L 186.07 45.09 L 185.95 44.89 L 185.81 44.61 L 185.75 44.55 L 185.72 44.48 L 185.66 44.40 L 185.62 44.33 L 185.35 43.99 L 184.96 43.48 L 184.91 43.42 L 184.87 43.37 L 184.82 43.32 L 184.78 43.28 L 184.47 42.96 L 184.05 42.52 L 183.90 42.39 L 183.78 42.27 L 183.75 42.24 L 183.71 42.21 L 183.43 41.98 L 183.01 41.63 L 182.80 41.47 L 182.63 41.33 L 182.47 41.22 L 182.35 41.13 L 182.12 40.98 L 181.85 40.78 L 181.57 40.61 L 181.33 40.45 L 181.02 40.27 L 180.80 40.13 L 180.69 40.07 L 180.56 39.99 L 180.20 39.80 L 179.90 39.63 L 179.54 39.46 L 179.16 39.26 L 179.11 39.24 L 179.07 39.22 L 178.80 39.10 L 178.69 39.05 L 178.34 38.89 L 178.03 38.76 L 177.65 38.59 L 177.37 38.49 L 177.18 38.41 L 176.95 38.33 L 176.67 38.21 L 176.37 38.11 L 176.05 37.99 L 175.52 37.83 L 175.15 37.70 L 175.03 37.66 L 174.90 37.62 L 174.62 37.54 L 174.36 37.46 L 173.60 37.26 L 173.06 37.11 L 173.05 37.11 L 172.99 37.09 L 172.82 37.05 L 172.60 37.00 L 171.64 36.79 L 171.09 36.67 L 170.96 36.65 L 170.78 36.61 L 170.76 36.60 L 170.74 36.60 L 170.63 36.58 L 169.71 36.43 L 169.09 36.32 L 168.99 36.31 L 168.88 36.29 L 168.64 36.26 L 168.41 36.23 L 167.88 36.17 L 129.48 16.97 L 129.32 16.71 L 129.21 16.51 L 129.06 16.24 L 129.01 16.17 L 128.97 16.11 L 128.92 16.03 L 128.88 15.96 L 128.60 15.62 L 128.21 15.10 L 128.17 15.06 L 128.13 15.00 L 128.07 14.95 L 128.04 14.90 L 127.71 14.58 L 127.31 14.16 L 127.16 14.03 L 127.04 13.90 L 127.00 13.87 L 126.97 13.84 L 126.70 13.62 L 126.69 13.62 L 126.68 13.61 L 126.68 13.61 L 126.67 13.60 L 126.27 13.26 L 126.06 13.10 L 125.88 12.96 L 125.73 12.85 L 125.61 12.75 L 125.39 12.61 L 125.10 12.41 L 124.82 12.23 L 124.58 12.07 L 124.28 11.90 L 124.05 11.76 L 123.94 11.70 L 123.81 11.62 L 123.45 11.43 L 123.15 11.26 L 122.80 11.09 L 122.41 10.89 L 122.37 10.87 L 122.33 10.85 L 122.03 10.72 L 121.97 10.69 L 121.59 10.51 L 121.26 10.38 L 120.91 10.22 L 120.64 10.12 L 120.44 10.04 L 120.20 9.95 L 119.92 9.84 L 119.62 9.74 L 119.30 9.62 L 118.77 9.45 L 118.41 9.33 L 118.28 9.29 L 118.15 9.24 L 117.89 9.18 L 117.62 9.09 L 116.86 8.89 L 116.31 8.74 L 116.26 8.72 L 116.06 8.68 L 115.85 8.62 L 115.00 8.44 L 114.35 8.30 L 114.19 8.27 L 114.03 8.24 L 114.02 8.23 L 114.00 8.23 L 113.90 8.21 L 112.98 8.06 L 112.35 7.95 L 112.24 7.94 L 112.14 7.92 L 111.87 7.89 L 111.67 7.86 L 111.17 7.80 L 111.13 7.80 L 105.30 4.88 L 99.50 7.78 L 99.08 7.84 L 98.46 7.92 L 98.09 7.98 L 97.75 8.03 L 97.46 8.08 L 97.18 8.13 L 96.91 8.18 L 96.58 8.23 L 96.16 8.32 L 95.76 8.40 L 95.29 8.51 L 95.29 8.51 L 94.90 8.59 L 94.82 8.61 L 94.75 8.62 L 94.27 8.75 L 93.84 8.85 L 93.45 8.96 L 92.99 9.09 L 92.84 9.13 L 92.72 9.16 L 92.40 9.27 L 92.00 9.39 L 91.68 9.50 L 91.30 9.62 L 90.95 9.75 L 90.66 9.85 L 90.47 9.93 L 90.25 10.00 L 89.98 10.12 L 89.70 10.22 L 89.13 10.47 L 88.74 10.64 L 88.67 10.67 L 88.61 10.69 L 88.43 10.79 L 88.19 10.89 L 87.54 11.23 L 87.08 11.46 L 87.03 11.49 L 86.97 11.52 L 86.89 11.57 L 86.79 11.62 L 86.12 12.03 L 85.68 12.29 L 85.61 12.34 L 85.50 12.41 L 85.43 12.46 L 85.37 12.50 L 85.13 12.68 L 84.77 12.94 L 84.42 13.19 L 84.38 13.22 L 84.33 13.26 L 84.14 13.43 L 83.96 13.56 L 83.70 13.80 L 83.51 13.97 L 83.31 14.14 L 83.27 14.18 L 82.99 14.48 L 82.75 14.70 L 82.60 14.88 L 82.39 15.11 L 82.37 15.13 L 82.35 15.16 L 82.12 15.47 L 81.97 15.65 L 81.75 15.93 L 81.70 16.01 L 81.64 16.10 L 81.59 16.17 L 81.55 16.24 L 81.34 16.62 L 81.14 16.96 L 36.21 39.43 L 36.21 102.60 L 36.22 102.91 Z" clip-rule="evenodd"/></clipPath></defs>
<g stroke="black" fill="none" stroke-linecap="round" clip-path="url(#sclip)">
<path d="M 42.88 112.38 L 145.02 163.45 A 8.02 4.91 -116.57 0 0 148.61 163.68 L 159.96 158.00 A 8.02 4.91 -116.57 0 0 162.05 153.66 L 162.05 118.91 L 218.79 90.54 L 218.79 62.74 L 185.47 46.08 A 24.07 12.04 180.00 0 0 167.58 37.14 L 128.73 17.71 A 24.07 12.04 -180.00 0 0 110.84 8.77 L 105.30 6.00 L 99.79 8.76 A 24.07 12.04 -180.00 0 0 81.87 17.71 L 37.21 40.05 L 37.21 102.59 A 8.02 4.91 -116.57 0 0 42.88 112.38 Z" stroke-width="2.00" stroke-linejoin="miter" stroke-miterlimit="5"/>
<path d="M 42.88 112.38 A 8.02 4.91 -116.57 0 1 38.87 108.34 A 8.02 4.91 -116.57 0 1 37.21 102.59" stroke-width="2.00"/>
<path d="M 150.70 159.34 A 8.02 4.91 -116.57 0 1 149.04 163.42 A 8.02 4.91 -116.57 0 1 145.02 163.45" stroke-width="2.00"/>
<path d="M 162.05 153.66 A 8.02 4.91 -116.57 0 1 159.96 158.00" stroke-width="2.00"/>
<path d="M 129.38 34.37 A 24.07 12.04 -180.00 0 1 105.30 46.41 A 24.07 12.04 -180.00 0 1 81.23 34.37" stroke-width="2.00"/>
<path d="M 122.33 28.98 A 24.07 12.04 -180.00 0 0 122.33 11.96 A 24.07 12.04 -180.00 0 0 88.28 11.96 A 24.07 12.04 -180.00 0 0 88.28 28.98 A 24.07 12.04 -180.00 0 0 122.33 28.98" stroke-width="2.00"/>
<path d="M 186.12 62.74 A 24.07 12.04 -180.00 0 1 174.08 73.17 A 24.07 12.04 -180.00 0 1 150.01 73.17 A 24.07 12.04 -180.00 0 1 137.97 62.74" stroke-width="2.00"/>
<path d="M 179.07 57.36 A 24.07 12.04 180.00 0 0 179.07 40.33 A 24.07 12.04 180.00 0 0 145.02 40.33 A 24.07 12.04 180.00 0 0 145.02 57.36 A 24.07 12.04 180.00 0 0 179.07 57.36" stroke-width="2.00"/>
<path d="M 122.02 131.09 A 16.05 9.83 -116.57 0 1 113.54 121.76 A 16.05 9.83 -116.57 0 1 111.14 109.38" stroke-width="2.00"/>
<path d="M 111.56 95.82 A 24.07 14.74 -116.57 0 1 128.36 100.88 A 24.07 14.74 -116.57 0 1 139.13 122.41 A 24.07 14.74 -116.57 0 1 133.09 138.89" stroke-width="2.00"/>
<path d="M 110.98 136.93 A 16.05 9.83 -116.57 0 0 122.33 128.70 A 16.05 9.83 -116.57 0 0 110.98 109.13 A 16.05 9.83 -116.57 0 0 99.63 117.35 A 16.05 9.83 -116.57 0 0 110.98 136.93" stroke-width="2.00"/>
<path d="M 110.98 143.88 A 24.07 14.74 -116.57 0 0 128.00 131.54 A 24.07 14.74 -116.57 0 0 110.98 102.18 A 24.07 14.74 -116.57 0 0 93.95 114.52 A 24.07 14.74 -116.57 0 0 110.98 143.88" stroke-width="2.00"/>
<path d="M 65.28 102.72 A 16.05 9.83 -116.57 0 1 56.80 93.39 A 16.05 9.83 -116.57 0 1 54.40 81.01" stroke-width="2.00"/>
<path d="M 54.82 67.45 A 24.07 14.74 -116.57 0 1 71.62 72.50 A 24.07 14.74 -116.57 0 1 82.38 94.04 A 24.07 14.74 -116.57 0 1 76.35 110.51" stroke-width="2.00"/>
<path d="M 54.23 108.55 A 16.05 9.83 -116.57 0 0 65.58 100.33 A 16.05 9.83 -116.57 0 0 54.23 80.76 A 16.05 9.83 -116.57 0 0 42.88 88.98 A 16.05 9.83 -116.57 0 0 54.23 108.55" stroke-width="2.00"/>
<path d="M 54.23 115.50 A 24.07 14.74 -116.57 0 0 71.26 103.17 A 24.07 14.74 -116.57 0 0 54.23 73.81 A 24.07 14.74 -116.57 0 0 37.21 86.14 A 24.07 14.74 -116.57 0 0 54.23 115.50" stroke-width="2.00"/>
<path d="M 162.05 153.66 L 162.05 118.91 L 218.79 90.54 L 218.79 62.74" stroke-width="2.00" stroke-linejoin="miter" stroke-miterlimit="5"/>
<path d="M 150.70 159.34 L 150.70 96.79 L 37.21 40.05 L 81.86 17.72" stroke-width="2.00" stroke-linejoin="miter" stroke-miterlimit="5"/>
<path d="M 99.84 8.73 L 105.30 6.00 L 110.76 8.73" stroke-width="2.00" stroke-linejoin="miter" stroke-miterlimit="5"/>
<path d="M 150.70 96.79 L 218.79 62.74 L 185.56 46.13" stroke-width="2.00" stroke-linejoin="miter" stroke-miterlimit="5"/>
<line x1="148.61" y1="163.68" x2="159.96" y2="158.00" stroke-width="2.00"/>
<line x1="129.38" y1="20.47" x2="129.38" y2="34.37" stroke-width="2.00"/>
<line x1="81.23" y1="20.47" x2="81.23" y2="34.37" stroke-width="2.00"/>
<line x1="186.12" y1="48.84" x2="186.12" y2="62.74" stroke-width="2.00"/>
<line x1="137.97" y1="48.84" x2="137.97" y2="62.74" stroke-width="2.00"/>
<line x1="100.21" y1="101.49" x2="111.56" y2="95.82" stroke-width="2.00"/>
<line x1="121.74" y1="144.56" x2="133.09" y2="138.89" stroke-width="2.00"/>
<line x1="43.47" y1="73.12" x2="54.82" y2="67.45" stroke-width="2.00"/>
<line x1="65.00" y1="116.19" x2="76.35" y2="110.51" stroke-width="2.00"/>
<line x1="128.74" y1="17.72" x2="167.42" y2="37.06" stroke-width="2.00"/>
<line x1="37.21" y1="40.05" x2="37.21" y2="102.59" stroke-width="2.00"/>
<line x1="42.88" y1="112.38" x2="145.02" y2="163.45" stroke-width="2.00"/>
<path d="M 39.89 41.39 L 37.21 40.05 L 37.21 43.05" stroke-width="2.00" stroke-linejoin="miter" stroke-miterlimit="5"/>
<path d="M 153.38 95.45 L 150.70 96.79 L 150.70 99.79" stroke-width="2.00" stroke-linejoin="miter" stroke-miterlimit="5"/>
<path d="M 148.02 95.45 L 150.70 96.79 L 153.38 95.45" stroke-width="2.00" stroke-linejoin="miter" stroke-miterlimit="5"/>
<path d="M 218.79 65.74 L 218.79 62.74 L 216.11 64.08" stroke-width="2.00" stroke-linejoin="miter" stroke-miterlimit="5"/>
</g>
</svg>