<svg xmlns="http://www.w3.org/2000/svg" viewBox="0 0 256 170" preserveAspectRatio="xMidYMid meet">
<defs><linearGradient id="g2" gradientUnits="userSpaceOnUse" x1="129.38" y1="27.42" x2="81.23" y2="27.42"><stop offset="0.0%" stop-color="#35aaba"/><stop offset="3.8%" stop-color="#37b2c3"/><stop offset="14.6%" stop-color="#36adbe"/><stop offset="30.9%" stop-color="#319dac"/><stop offset="50.0%" stop-color="#298390"/><stop offset="69.1%" stop-color="#1f646e"/><stop offset="85.4%" stop-color="#1e6069"/><stop offset="96.2%" stop-color="#1e6069"/><stop offset="100.0%" stop-color="#1e6069"/></linearGradient><linearGradient id="g3" gradientUnits="userSpaceOnUse" x1="81.23" y1="27.42" x2="129.38" y2="27.42"><stop offset="0.0%" stop-color="#35aaba"/><stop offset="3.8%" stop-color="#37b2c3"/><stop offset="14.6%" stop-color="#36adbe"/><stop offset="30.9%" stop-color="#319dac"/><stop offset="50.0%" stop-color="#298390"/><stop offset="69.1%" stop-color="#1f646e"/><stop offset="85.4%" stop-color="#1e6069"/><stop offset="96.2%" stop-color="#1e6069"/><stop offset="100.0%" stop-color="#1e6069"/></linearGradient><linearGradient id="g5" gradientUnits="userSpaceOnUse" x1="49.14" y1="70.28" x2="70.67" y2="113.35"><stop offset="0.0%" stop-color="#1e6069"/><stop offset="3.8%" stop-color="#1e6069"/><stop offset="14.6%" stop-color="#1e6069"/><stop offset="30.9%" stop-color="#206973"/><stop offset="50.0%" stop-color="#2f98a7"/><stop offset="69.1%" stop-color="#3bbfd2"/><stop offset="85.4%" stop-color="#43d7ec"/><stop offset="96.2%" stop-color="#45ddf3"/><stop offset="100.0%" stop-color="#41d0e5"/></linearGradient><linearGradient id="g6" gradientUnits="userSpaceOnUse" x1="52.73" y1="77.46" x2="67.09" y2="106.17"><stop offset="0.0%" stop-color="#1e6069"/><stop offset="3.8%" stop-color="#1e6069"/><stop offset="14.6%" stop-color="#1e6069"/><stop offset="30.9%" stop-color="#206973"/><stop offset="50.0%" stop-color="#2f98a7"/><stop offset="69.1%" stop-color="#3bbfd2"/><stop offset="85.4%" stop-color="#43d7ec"/><stop offset="96.2%" stop-color="#45ddf3"/><stop offset="100.0%" stop-color="#41d0e5"/></linearGradient><linearGradient id="g7" gradientUnits="userSpaceOnUse" x1="67.09" y1="106.17" x2="52.73" y2="77.46"><stop offset="-0.0%" stop-color="#1e6069"/><stop offset="3.8%" stop-color="#1e6069"/><stop offset="14.6%" stop-color="#1e6069"/><stop offset="30.9%" stop-color="#206973"/><stop offset="50.0%" stop-color="#2f98a7"/><stop offset="69.1%" stop-color="#3bbfd2"/><stop offset="85.4%" stop-color="#43d7ec"/><stop offset="96.2%" stop-color="#45ddf3"/><stop offset="100.0%" stop-color="#41d0e5"/></linearGradient><linearGradient id="g8" gradientUnits="userSpaceOnUse" x1="70.67" y1="113.35" x2="49.14" y2="70.28"><stop offset="-0.0%" stop-color="#1e6069"/><stop offset="3.8%" stop-color="#1e6069"/><stop offset="14.6%" stop-color="#1e6069"/><stop offset="30.9%" stop-color="#206973"/><stop offset="50.0%" stop-color="#2f98a7"/><stop offset="69.1%" stop-color="#3bbfd2"/><stop offset="85.4%" stop-color="#43d7ec"/><stop offset="96.2%" stop-color="#45ddf3"/><stop offset="100.0%" stop-color="#41d0e5"/></linearGradient><linearGradient id="g10" gradientUnits="userSpaceOnUse" x1="186.12" y1="55.79" x2="137.97" y2="55.79"><stop offset="0.0%" stop-color="#35aaba"/><stop offset="3.8%" stop-color="#37b2c3"/><stop offset="14.6%" stop-color="#36adbe"/><stop offset="30.9%" stop-color="#319dac"/><stop offset="50.0%" stop-color="#298390"/><stop offset="69.1%" stop-color="#1f646e"/><stop offset="85.4%" stop-color="#1e6069"/><stop offset="96.2%" stop-color="#1e6069"/><stop offset="100.0%" stop-color="#1e6069"/></linearGradient><linearGradient id="g12" gradientUnits="userSpaceOnUse" x1="154.29" y1="160.84" x2="156.37" y2="156.50"><stop offset="0.0%" stop-color="#1e6069"/><stop offset="9.5%" stop-color="#1e6069"/><stop offset="20.2%" stop-color="#1e6069"/><stop offset="31.9%" stop-color="#1e6069"/><stop offset="44.4%" stop-color="#1e6069"/><stop offset="57.7%" stop-color="#1e6069"/><stop offset="71.5%" stop-color="#1e6069"/><stop offset="85.6%" stop-color="#1e6069"/><stop offset="100.0%" stop-color="#1e6069"/></linearGradient><linearGradient id="g13" gradientUnits="userSpaceOnUse" x1="105.88" y1="98.66" x2="127.42" y2="141.72"><stop offset="0.0%" stop-color="#1e6069"/><stop offset="3.8%" stop-color="#1e6069"/><stop offset="14.6%" stop-color="#1e6069"/><stop offset="30.9%" stop-color="#206973"/><stop offset="50.0%" stop-color="#2f98a7"/><stop offset="69.1%" stop-color="#3bbfd2"/><stop offset="85.4%" stop-color="#43d7ec"/><stop offset="96.2%" stop-color="#45ddf3"/><stop offset="100.0%" stop-color="#41d0e5"/></linearGradient><linearGradient id="g14" gradientUnits="userSpaceOnUse" x1="109.47" y1="105.83" x2="123.83" y2="134.54"><stop offset="0.0%" stop-color="#1e6069"/><stop offset="3.8%" stop-color="#1e6069"/><stop offset="14.6%" stop-color="#1e6069"/><stop offset="30.9%" stop-color="#206973"/><stop offset="50.0%" stop-color="#2f98a7"/><stop offset="69.1%" stop-color="#3bbfd2"/><stop offset="85.4%" stop-color="#43d7ec"/><stop offset="96.2%" stop-color="#45ddf3"/><stop offset="100.0%" stop-color="#41d0e5"/></linearGradient><linearGradient id="g15" gradientUnits="userSpaceOnUse" x1="137.97" y1="55.79" x2="186.12" y2="55.79"><stop offset="0.0%" stop-color="#35aaba"/><stop offset="3.8%" stop-color="#37b2c3"/><stop offset="14.6%" stop-color="#36adbe"/><stop offset="30.9%" stop-color="#319dac"/><stop offset="50.0%" stop-color="#298390"/><stop offset="69.1%" stop-color="#1f646e"/><stop offset="85.4%" stop-color="#1e6069"/><stop offset="96.2%" stop-color="#1e6069"/><stop offset="100.0%" stop-color="#1e6069"/></linearGradient><linearGradient id="g18" gradientUnits="userSpaceOnUse" x1="123.83" y1="134.54" x2="109.47" y2="105.83"><stop offset="-0.0%" stop-color="#1e6069"/><stop offset="3.8%" stop-color="#1e6069"/><stop offset="14.6%" stop-color="#1e6069"/><stop offset="30.9%" stop-color="#206973"/><stop offset="50.0%" stop-color="#2f98a7"/><stop offset="69.1%" stop-color="#3bbfd2"/><stop offset="85.4%" stop-color="#43d7ec"/><stop offset="96.2%" stop-color="#45ddf3"/><stop offset="100.0%" stop-color="#41d0e5"/></linearGradient><linearGradient id="g19" gradientUnits="userSpaceOnUse" x1="127.42" y1="141.72" x2="105.88" y2="98.66"><stop offset="-0.0%" stop-color="#1e6069"/><stop offset="3.8%" stop-color="#1e6069"/><stop offset="14.6%" stop-color="#1e6069"/><stop offset="30.9%" stop-color="#206973"/><stop offset="50.0%" stop-color="#2f98a7"/><stop offset="69.1%" stop-color="#3bbfd2"/><stop offset="85.4%" stop-color="#43d7ec"/><stop offset="96.2%" stop-color="#45ddf3"/><stop offset="100.0%" stop-color="#41d0e5"/></linearGradient></defs>
<g stroke-linejoin="round">
<path d="M 37.21 102.59 L 37.26 103.53 L 37.40 104.49 L 37.64 105.47 L 37.97 106.45 L 38.38 107.41 L 40.05 110.03 L 40.71 110.77 L 41.42 111.41 L 42.14 111.95 L 42.88 112.38 L 145.02 163.45 L 145.76 163.76 L 146.49 163.95 L 147.19 164.01 L 147.86 163.94 L 148.48 163.74 L 149.94 162.43 L 150.27 161.78 L 150.50 161.04 L 150.65 160.22 L 150.70 159.34 L 150.70 124.59 L 150.70 96.79 L 37.21 40.05 L 37.21 67.84 L 37.21 86.14 Z M 37.22 85.85 L 37.22 85.63 L 37.24 85.22 L 37.27 84.49 L 37.32 83.97 L 37.34 83.62 L 37.38 83.34 L 37.43 82.91 L 37.58 82.10 L 37.64 81.72 L 37.67 81.58 L 37.70 81.40 L 38.09 79.98 L 38.09 79.97 L 38.10 79.95 L 38.15 79.81 L 38.57 78.65 L 38.66 78.47 L 38.72 78.32 L 38.88 78.02 L 39.16 77.43 L 39.37 77.09 L 39.49 76.86 L 39.64 76.65 L 39.84 76.32 L 40.22 75.84 L 40.41 75.57 L 40.51 75.47 L 40.62 75.33 L 41.41 74.54 L 41.47 74.48 L 41.48 74.47 L 41.49 74.46 L 42.44 73.72 L 42.56 73.65 L 42.65 73.58 L 42.93 73.44 L 43.47 73.12 L 43.65 73.03 L 45.62 72.05 L 54.82 67.45 L 55.91 66.99 L 57.07 66.67 L 58.28 66.50 L 59.55 66.47 L 60.85 66.59 L 62.18 66.85 L 63.53 67.26 L 64.90 67.81 L 66.27 68.49 L 67.63 69.31 L 68.99 70.25 L 70.32 71.32 L 71.62 72.50 L 72.88 73.79 L 74.09 75.18 L 75.25 76.66 L 76.35 78.21 L 77.37 79.84 L 78.32 81.53 L 79.19 83.26 L 79.97 85.03 L 80.66 86.83 L 81.24 88.64 L 81.62 90.05 L 81.73 90.45 L 82.11 92.25 L 82.39 94.04 L 82.55 95.79 L 82.61 97.49 L 82.55 99.14 L 82.39 100.73 L 82.11 102.23 L 81.73 103.66 L 81.71 103.72 L 81.24 104.98 L 80.66 106.21 L 79.97 107.32 L 79.19 108.31 L 78.32 109.18 L 77.37 109.91 L 76.35 110.51 L 65.00 116.19 L 64.67 116.33 L 63.90 116.65 L 63.86 116.66 L 63.82 116.68 L 63.60 116.73 L 62.74 116.97 L 62.54 117.00 L 62.38 117.04 L 62.06 117.06 L 61.53 117.14 L 61.12 117.15 L 60.85 117.17 L 60.60 117.16 L 60.27 117.17 L 59.57 117.10 L 59.25 117.09 L 59.13 117.06 L 58.97 117.05 L 57.64 116.78 L 57.62 116.78 L 57.61 116.78 L 57.49 116.74 L 56.28 116.38 L 56.08 116.30 L 55.93 116.25 L 55.58 116.09 L 54.92 115.83 L 54.51 115.63 L 54.23 115.50 L 53.95 115.34 L 53.55 115.14 L 52.90 114.75 L 52.54 114.55 L 52.38 114.45 L 52.18 114.33 L 50.97 113.48 L 50.86 113.40 L 50.85 113.39 L 50.83 113.38 L 49.50 112.31 L 49.34 112.17 L 49.22 112.07 L 48.88 111.75 L 48.20 111.13 L 47.87 110.79 L 47.62 110.56 L 47.34 110.26 L 46.94 109.84 L 46.40 109.23 L 46.09 108.89 L 45.94 108.70 L 45.72 108.45 L 44.83 107.32 L 44.64 107.09 L 44.61 107.04 L 44.56 106.98 L 43.79 105.89 L 43.79 105.88 L 43.47 105.42 L 43.37 105.26 L 43.29 105.16 L 43.05 104.77 L 42.44 103.80 L 42.21 103.39 L 42.05 103.12 L 41.85 102.74 L 41.49 102.11 L 41.13 101.39 L 40.92 101.00 L 40.81 100.75 L 40.62 100.38 L 40.10 99.18 L 39.93 98.82 L 39.90 98.73 L 39.84 98.60 L 39.16 96.81 L 39.12 96.68 L 39.09 96.59 L 38.97 96.23 L 38.57 95.00 L 38.47 94.61 L 38.39 94.35 L 38.28 93.92 L 38.09 93.18 L 37.95 92.53 L 37.85 92.11 L 37.79 91.80 L 37.70 91.38 L 37.54 90.30 L 37.47 89.89 L 37.46 89.78 L 37.43 89.60 L 37.27 87.85 L 37.26 87.77 L 37.26 87.72 L 37.25 87.47 L 37.21 86.14 Z M 93.98 113.59 L 94.01 112.86 L 94.06 112.34 L 94.09 111.99 L 94.13 111.71 L 94.17 111.28 L 94.33 110.45 L 94.38 110.09 L 94.41 109.97 L 94.45 109.77 L 94.83 108.35 L 94.83 108.34 L 94.84 108.32 L 94.89 108.18 L 95.32 107.02 L 95.40 106.85 L 95.46 106.69 L 95.62 106.38 L 95.90 105.80 L 96.10 105.48 L 96.23 105.23 L 96.39 105.02 L 96.59 104.69 L 96.96 104.22 L 97.16 103.94 L 97.26 103.84 L 97.37 103.70 L 98.13 102.94 L 98.21 102.85 L 98.22 102.84 L 98.23 102.83 L 99.18 102.09 L 99.31 102.02 L 99.40 101.95 L 99.66 101.81 L 100.21 101.49 L 102.36 100.42 L 111.56 95.82 L 111.89 95.68 L 112.66 95.36 L 113.81 95.04 L 115.03 94.87 L 116.29 94.84 L 117.59 94.96 L 118.92 95.22 L 120.27 95.63 L 121.64 96.18 L 123.01 96.86 L 124.38 97.68 L 125.73 98.63 L 127.06 99.69 L 128.36 100.88 L 129.62 102.17 L 130.84 103.55 L 132.00 105.03 L 133.09 106.58 L 134.12 108.21 L 135.07 109.90 L 135.94 111.63 L 136.71 113.40 L 137.12 114.48 L 137.40 115.20 L 137.99 117.01 L 138.37 118.42 L 138.47 118.82 L 138.85 120.63 L 139.13 122.41 L 139.29 124.16 L 139.35 125.86 L 139.29 127.51 L 139.13 129.10 L 138.85 130.61 L 138.47 132.03 L 137.99 133.35 L 137.40 134.58 L 136.71 135.69 L 135.94 136.68 L 135.07 137.55 L 134.12 138.28 L 133.09 138.88 L 128.30 141.28 L 121.74 144.56 L 121.42 144.70 L 120.65 145.02 L 120.60 145.03 L 120.57 145.05 L 120.35 145.10 L 119.49 145.34 L 119.27 145.37 L 119.12 145.41 L 118.82 145.43 L 118.79 145.44 L 118.28 145.51 L 117.86 145.52 L 117.59 145.54 L 117.35 145.53 L 117.01 145.54 L 116.31 145.47 L 116.00 145.46 L 115.88 145.44 L 115.71 145.42 L 114.38 145.16 L 114.36 145.15 L 114.35 145.15 L 114.24 145.11 L 113.03 144.75 L 112.83 144.67 L 112.67 144.62 L 112.32 144.47 L 111.66 144.20 L 111.26 144.00 L 110.98 143.88 L 110.69 143.72 L 110.29 143.52 L 109.64 143.13 L 109.28 142.93 L 109.13 142.82 L 108.92 142.70 L 107.72 141.85 L 107.60 141.78 L 107.59 141.76 L 107.57 141.75 L 106.24 140.69 L 106.09 140.54 L 105.96 140.44 L 105.63 140.13 L 104.94 139.50 L 104.78 139.34 L 104.60 139.15 L 104.36 138.93 L 104.11 138.65 L 103.68 138.21 L 103.15 137.61 L 102.83 137.27 L 102.67 137.06 L 102.47 136.83 L 101.62 135.75 L 101.39 135.46 L 101.35 135.40 L 101.31 135.35 L 100.54 134.26 L 100.21 133.79 L 100.11 133.64 L 100.03 133.53 L 99.80 133.14 L 99.19 132.17 L 98.96 131.77 L 98.79 131.49 L 98.58 131.10 L 98.23 130.48 L 97.88 129.78 L 97.67 129.37 L 97.55 129.11 L 97.37 128.75 L 96.85 127.56 L 96.68 127.19 L 96.64 127.10 L 96.59 126.98 L 95.90 125.18 L 95.87 125.07 L 95.83 124.96 L 95.69 124.51 L 95.32 123.37 L 95.22 123.01 L 95.13 122.72 L 95.02 122.27 L 94.83 121.56 L 94.69 120.90 L 94.59 120.48 L 94.54 120.18 L 94.45 119.75 L 94.29 118.70 L 94.21 118.27 L 94.20 118.14 L 94.17 117.97 L 94.01 116.22 L 94.01 116.16 L 94.00 116.10 L 93.99 115.77 L 93.95 114.52 L 93.96 114.23 L 93.96 114.00 L 93.98 113.61 Z M 51.36 72.69 L 50.83 72.53 L 50.35 72.43 Z M 53.09 73.30 L 52.18 72.93 L 51.91 72.85 Z M 53.46 73.44 L 55.01 74.22 L 54.92 74.17 L 53.55 73.48 Z M 56.56 75.18 L 56.28 74.98 L 55.39 74.45 Z M 59.13 84.57 L 58.18 83.60 L 57.89 83.34 L 57.18 82.72 L 56.83 82.43 L 56.13 81.91 L 55.79 81.67 L 54.98 81.17 L 54.76 81.03 L 54.43 80.87 L 54.38 81.15 L 54.33 81.65 L 54.27 82.21 L 54.23 83.31 L 54.27 84.44 L 54.38 85.61 L 54.56 86.80 L 54.82 88.00 L 55.14 89.21 L 55.53 90.42 L 55.99 91.61 L 56.51 92.79 L 57.09 93.95 L 57.72 95.07 L 58.41 96.16 L 59.13 97.20 L 59.91 98.18 L 60.72 99.11 L 61.56 99.97 L 62.42 100.75 L 63.31 101.46 L 64.21 102.09 L 65.12 102.64 L 65.38 102.77 L 65.42 102.58 L 65.55 101.38 L 65.55 101.17 L 65.58 100.12 L 65.56 99.70 L 65.51 98.81 L 65.46 98.34 L 65.34 97.38 L 65.28 96.99 L 64.99 95.62 L 64.96 95.51 L 64.62 94.25 L 64.47 93.79 L 64.14 92.86 L 63.96 92.39 L 63.58 91.46 L 63.38 91.01 L 62.77 89.77 L 62.74 89.71 L 62.74 89.70 L 62.01 88.42 L 61.77 88.05 L 61.23 87.22 L 61.21 87.19 L 61.21 87.19 L 60.91 86.77 L 60.34 86.01 L 60.04 85.63 L 59.30 84.77 Z M 107.57 100.90 L 107.09 100.80 L 108.11 101.06 Z M 108.92 101.30 L 108.65 101.22 L 109.81 101.66 Z M 110.20 101.82 L 111.76 102.59 L 111.66 102.54 L 110.29 101.85 Z M 113.03 103.36 L 112.11 102.81 L 113.31 103.55 Z M 71.22 104.10 L 71.22 104.11 L 71.22 104.38 L 71.22 104.10 Z M 71.20 104.76 L 71.01 106.54 L 71.04 106.40 L 71.20 104.82 Z M 70.92 107.03 L 70.67 108.25 L 70.76 107.91 Z M 70.52 108.81 L 70.19 109.85 L 70.38 109.33 Z M 69.89 110.66 L 69.99 110.39 L 69.61 111.23 L 69.62 111.23 Z M 114.92 111.97 L 114.63 111.71 L 113.93 111.09 L 113.57 110.80 L 112.88 110.29 L 112.53 110.04 L 111.73 109.55 L 111.50 109.41 L 111.17 109.24 L 111.12 109.52 L 111.01 110.58 L 110.98 111.68 L 111.01 112.81 L 111.12 113.98 L 111.31 115.17 L 111.56 116.37 L 111.89 117.58 L 112.28 118.79 L 112.73 119.98 L 113.25 121.17 L 113.83 122.32 L 114.46 123.45 L 115.15 124.53 L 115.88 125.57 L 116.65 126.55 L 117.46 127.48 L 118.30 128.34 L 119.17 129.12 L 120.06 129.84 L 120.96 130.47 L 121.87 131.01 L 122.13 131.14 L 122.16 130.96 L 122.29 129.76 L 122.30 129.54 L 122.32 128.49 L 122.31 128.08 L 122.25 127.18 L 122.21 126.71 L 122.08 125.75 L 122.02 125.36 L 121.74 123.99 L 121.73 123.98 L 121.72 123.91 L 121.36 122.62 L 121.22 122.18 L 120.89 121.22 L 120.71 120.76 L 120.31 119.82 L 120.12 119.39 L 119.57 118.25 L 119.47 118.06 L 119.47 118.06 L 118.76 116.81 L 118.51 116.41 L 117.96 115.57 L 117.67 115.16 L 117.09 114.39 L 116.78 113.99 L 116.05 113.14 L 115.87 112.94 Z M 127.12 137.70 L 127.26 137.19 L 126.93 138.24 Z M 126.35 139.61 L 126.36 139.61 L 126.64 139.03 L 126.74 138.75 Z M 127.96 132.82 L 127.97 132.47 L 127.97 132.47 L 127.96 132.48 Z M 127.94 133.19 L 127.95 133.12 L 127.75 134.92 L 127.78 134.77 Z M 127.42 136.61 L 127.50 136.28 L 127.67 135.38 Z" fill="#2e94a2" fill-rule="evenodd" stroke="#2e94a2" stroke-width="0.8"/>
<path d="M 102.19 8.54 L 102.40 8.52 L 104.33 8.45 L 104.38 8.45 L 104.40 8.44 L 104.56 8.45 L 106.27 8.45 L 106.58 8.46 L 106.80 8.46 L 107.27 8.48 L 108.20 8.52 L 108.79 8.57 L 109.19 8.59 L 109.57 8.63 L 110.12 8.68 L 110.84 8.77 L 105.30 6.00 L 99.79 8.76 L 100.03 8.73 L 100.49 8.68 L 101.49 8.60 L 102.01 8.55 Z M 85.67 27.42 L 86.06 27.70 L 86.20 27.79 L 85.67 27.42 Z M 87.28 28.45 L 87.63 28.64 L 86.61 28.04 Z M 89.27 29.44 L 88.17 28.91 L 88.63 29.15 Z M 91.20 30.22 L 89.80 29.67 L 90.08 29.80 Z M 91.63 30.38 L 93.27 30.90 L 93.42 30.94 L 91.56 30.35 Z M 95.40 31.44 L 93.91 31.07 L 94.98 31.35 Z M 97.46 31.84 L 96.10 31.59 L 96.77 31.73 Z M 98.61 32.03 L 99.79 32.18 L 98.23 31.97 Z M 112.00 32.03 L 112.06 32.02 L 109.94 32.28 L 110.12 32.27 Z M 102.40 32.42 L 102.52 32.43 L 100.35 32.25 L 100.49 32.27 Z M 108.20 32.42 L 109.28 32.34 L 107.74 32.44 Z M 104.33 32.50 L 104.72 32.50 L 103.01 32.45 Z M 106.27 32.50 L 106.96 32.47 L 105.48 32.50 Z M 138.05 47.88 L 138.16 47.44 L 138.20 47.20 L 138.25 47.08 L 138.28 46.91 L 138.59 46.16 L 138.64 46.02 L 138.66 46.00 L 138.67 45.96 L 139.21 45.03 L 139.28 44.94 L 139.32 44.87 L 139.50 44.65 L 139.90 44.13 L 140.10 43.91 L 140.23 43.76 L 140.43 43.56 L 140.73 43.25 L 141.13 42.90 L 141.35 42.70 L 141.51 42.58 L 141.70 42.41 L 142.47 41.85 L 142.68 41.70 L 142.73 41.66 L 142.80 41.61 L 144.03 40.86 L 144.13 40.80 L 144.20 40.77 L 144.47 40.63 L 145.37 40.16 L 145.69 40.02 L 145.89 39.92 L 146.25 39.77 L 146.82 39.52 L 147.39 39.30 L 147.75 39.16 L 148.02 39.07 L 148.37 38.94 L 149.37 38.62 L 149.75 38.50 L 149.86 38.47 L 150.01 38.42 L 151.73 37.97 L 151.82 37.95 L 151.87 37.94 L 152.17 37.88 L 153.51 37.59 L 153.87 37.53 L 154.09 37.48 L 154.55 37.42 L 155.35 37.28 L 155.96 37.21 L 156.40 37.14 L 156.77 37.11 L 157.23 37.05 L 158.24 36.97 L 158.75 36.92 L 158.93 36.91 L 159.14 36.90 L 161.08 36.82 L 161.12 36.82 L 161.15 36.82 L 161.31 36.82 L 163.02 36.82 L 163.33 36.83 L 163.55 36.83 L 164.01 36.86 L 164.95 36.90 L 165.53 36.94 L 165.93 36.97 L 166.32 37.01 L 166.86 37.05 L 167.58 37.14 L 128.73 17.71 L 128.76 17.80 L 128.84 17.94 L 128.91 18.17 L 129.06 18.54 L 129.15 18.91 L 129.22 19.12 L 129.24 19.28 L 129.30 19.50 L 129.35 20.09 L 129.38 20.32 L 129.37 20.39 L 129.38 20.47 L 129.38 34.37 L 129.30 35.34 L 129.06 36.30 L 128.68 37.25 L 128.14 38.18 L 127.45 39.09 L 126.62 39.97 L 125.65 40.80 L 124.55 41.60 L 123.32 42.35 L 121.98 43.05 L 120.53 43.70 L 118.98 44.28 L 117.34 44.80 L 115.62 45.25 L 113.84 45.63 L 112.00 45.93 L 110.12 46.17 L 108.20 46.32 L 106.27 46.40 L 104.33 46.40 L 102.40 46.32 L 100.49 46.17 L 98.61 45.93 L 96.77 45.63 L 94.98 45.25 L 93.27 44.80 L 91.63 44.28 L 90.08 43.70 L 88.63 43.05 L 87.28 42.35 L 86.06 41.60 L 84.95 40.80 L 83.99 39.97 L 83.16 39.09 L 82.47 38.18 L 81.93 37.25 L 81.54 36.30 L 81.31 35.34 L 81.23 34.37 L 81.23 20.47 L 81.25 20.20 L 81.25 20.02 L 81.28 19.82 L 81.31 19.50 L 81.41 19.07 L 81.45 18.83 L 81.50 18.70 L 81.54 18.54 L 81.84 17.82 L 81.88 17.71 L 37.21 40.05 L 150.70 96.79 L 218.79 62.74 L 185.47 46.08 L 185.50 46.16 L 185.58 46.31 L 185.66 46.54 L 185.81 46.91 L 185.90 47.28 L 185.97 47.50 L 185.99 47.65 L 186.04 47.88 L 186.09 48.47 L 186.12 48.69 L 186.11 48.76 L 186.12 48.84 L 186.12 58.66 L 186.12 62.74 L 186.04 63.71 L 185.81 64.67 L 185.42 65.62 L 184.88 66.56 L 184.19 67.46 L 183.36 68.34 L 182.39 69.18 L 181.29 69.97 L 180.07 70.73 L 178.72 71.42 L 177.27 72.07 L 175.72 72.65 L 174.08 73.17 L 172.37 73.62 L 170.58 74.00 L 168.74 74.31 L 166.86 74.54 L 164.95 74.69 L 163.02 74.77 L 161.08 74.77 L 159.14 74.69 L 157.23 74.54 L 155.35 74.31 L 153.51 74.00 L 151.73 73.62 L 150.01 73.17 L 148.37 72.65 L 146.82 72.07 L 145.37 71.42 L 144.03 70.73 L 142.80 69.97 L 141.70 69.18 L 140.73 68.34 L 139.90 67.46 L 139.21 66.56 L 138.67 65.62 L 138.28 64.67 L 138.05 63.71 L 137.97 62.74 L 137.97 52.64 L 137.97 48.84 L 137.99 48.58 L 137.99 48.39 L 138.03 48.19 Z M 124.16 27.94 L 124.55 27.70 L 124.94 27.42 L 124.93 27.42 Z M 123.32 28.45 L 123.69 28.23 L 122.65 28.80 Z M 121.98 29.15 L 122.17 29.05 L 120.55 29.79 Z M 120.53 29.80 L 120.55 29.79 L 118.77 30.45 L 118.98 30.38 Z M 117.34 30.90 L 118.19 30.63 L 116.87 31.02 Z M 116.18 31.20 L 114.83 31.52 L 115.62 31.35 Z M 114.13 31.66 L 112.44 31.96 L 113.84 31.73 Z M 142.94 56.16 L 142.42 55.79 L 142.41 55.79 L 142.80 56.08 Z M 144.39 57.01 L 143.34 56.41 L 144.03 56.83 Z M 146.00 57.81 L 144.90 57.28 L 145.37 57.53 Z M 146.56 58.05 L 146.82 58.17 L 147.94 58.59 Z M 148.30 58.72 L 148.37 58.75 L 150.01 59.27 L 150.16 59.31 Z M 152.13 59.80 L 150.68 59.45 L 151.73 59.72 Z M 152.85 59.96 L 153.51 60.10 L 154.21 60.22 Z M 181.68 55.79 L 180.91 56.31 L 181.29 56.08 L 181.68 55.79 Z M 180.43 56.60 L 179.38 57.18 L 180.07 56.83 Z M 178.35 57.69 L 178.72 57.53 L 178.92 57.42 L 178.34 57.69 L 177.39 58.12 Z M 175.51 58.82 L 175.72 58.75 L 177.27 58.17 Z M 174.93 59.00 L 173.62 59.39 L 174.08 59.27 Z M 171.59 59.88 L 172.37 59.72 L 172.91 59.58 Z M 169.18 60.33 L 170.58 60.10 L 170.87 60.04 Z M 156.54 60.55 L 154.97 60.34 L 155.35 60.41 Z M 166.68 60.65 L 166.86 60.64 L 168.74 60.41 L 168.80 60.40 Z M 157.09 60.62 L 157.23 60.64 L 159.14 60.79 L 159.26 60.80 Z M 166.02 60.71 L 164.48 60.81 L 164.95 60.79 Z M 159.75 60.82 L 161.08 60.87 L 161.46 60.87 Z M 162.23 60.87 L 163.02 60.87 L 163.70 60.84 Z" fill="#46e2f8" fill-rule="evenodd" stroke="#46e2f8" stroke-width="0.8"/>
<path d="M 129.24 19.28 L 129.35 20.09 L 129.30 19.50 Z M 129.06 18.54 L 128.91 18.17 L 129.15 18.91 Z M 128.68 17.59 L 128.33 17.00 L 128.76 17.80 Z M 128.14 16.66 L 127.45 15.75 L 127.40 15.70 L 128.18 16.73 Z M 126.62 14.88 L 126.43 14.72 L 127.18 15.47 Z M 125.65 14.04 L 125.26 13.75 L 126.04 14.38 Z M 124.55 13.24 L 123.83 12.80 L 124.82 13.44 Z M 123.32 12.49 L 121.98 11.79 L 121.94 11.77 L 123.45 12.57 Z M 120.53 11.15 L 120.27 11.05 L 121.64 11.64 Z M 118.98 10.57 L 118.46 10.40 L 119.67 10.83 Z M 117.34 10.05 L 116.48 9.82 L 117.78 10.19 Z M 115.62 9.60 L 113.84 9.22 L 115.83 9.65 Z M 112.00 8.91 L 111.73 8.88 L 113.73 9.20 Z M 110.12 8.68 L 109.57 8.63 L 111.05 8.79 Z M 108.20 8.52 L 107.27 8.48 L 108.79 8.57 Z M 106.27 8.45 L 104.56 8.45 L 106.58 8.46 Z M 104.33 8.45 L 102.40 8.52 L 102.19 8.54 L 104.38 8.45 Z M 100.49 8.68 L 100.03 8.73 L 101.49 8.60 Z M 98.61 8.91 L 97.84 9.04 L 99.21 8.84 Z M 96.77 9.22 L 95.53 9.48 L 97.09 9.16 Z M 94.98 9.60 L 93.27 10.05 L 93.12 10.09 L 95.05 9.58 Z M 91.63 10.57 L 91.28 10.70 L 92.62 10.25 Z M 90.08 11.15 L 89.53 11.39 L 90.64 10.94 Z M 88.63 11.79 L 87.75 12.25 L 88.93 11.66 Z M 87.28 12.49 L 86.06 13.24 L 85.98 13.29 L 87.39 12.44 Z M 84.95 14.04 L 84.77 14.20 L 85.72 13.48 Z M 83.99 14.88 L 83.70 15.18 L 84.37 14.54 Z M 83.16 15.75 L 82.76 16.27 L 83.36 15.54 Z M 82.47 16.66 L 81.93 17.59 L 81.92 17.62 L 82.54 16.57 Z M 81.54 18.54 L 81.50 18.70 L 81.84 17.82 Z M 81.31 19.50 L 81.28 19.82 L 81.41 19.07 Z M 81.23 20.47 L 81.27 20.98 L 81.25 20.20 Z M 85.67 27.42 L 84.94 26.89 L 84.95 26.91 L 85.67 27.42 Z M 124.94 27.42 L 125.08 27.32 L 124.93 27.42 Z M 129.37 20.39 L 129.29 21.49 L 129.30 21.44 L 129.38 20.47 Z M 125.48 27.03 L 125.65 26.91 L 126.49 26.18 Z M 126.62 26.07 L 127.45 25.19 L 127.53 25.09 L 126.60 26.09 Z M 127.77 24.78 L 128.14 24.28 L 128.28 24.05 Z M 128.50 23.67 L 128.68 23.35 L 128.84 22.95 Z M 128.99 22.58 L 129.06 22.40 L 129.24 21.70 Z M 81.31 21.44 L 81.54 22.40 L 81.54 22.41 L 81.30 21.31 Z M 81.56 22.46 L 81.93 23.35 L 82.00 23.48 Z M 82.21 23.83 L 82.47 24.28 L 82.66 24.54 Z M 82.95 24.92 L 83.16 25.19 L 83.55 25.60 Z M 83.86 25.93 L 83.99 26.07 L 84.80 26.77 Z" fill="url(#g2)" fill-rule="evenodd" stroke="url(#g2)" stroke-width="0.8"/>
<path d="M 81.31 35.34 L 81.54 36.30 L 81.93 37.25 L 82.47 38.18 L 83.16 39.09 L 83.99 39.97 L 84.95 40.80 L 86.06 41.60 L 87.28 42.35 L 88.63 43.05 L 90.08 43.70 L 91.63 44.28 L 93.27 44.80 L 94.98 45.25 L 96.77 45.63 L 98.61 45.93 L 100.49 46.17 L 102.40 46.32 L 104.33 46.40 L 106.27 46.40 L 108.20 46.32 L 110.12 46.17 L 112.00 45.93 L 113.84 45.63 L 115.62 45.25 L 117.34 44.80 L 118.98 44.28 L 120.53 43.70 L 121.98 43.05 L 123.32 42.35 L 124.55 41.60 L 125.65 40.80 L 126.62 39.97 L 127.45 39.09 L 128.14 38.18 L 128.68 37.25 L 129.06 36.30 L 129.30 35.34 L 129.38 34.37 L 129.38 20.47 L 129.30 21.44 L 129.29 21.49 L 129.28 21.52 L 129.24 21.70 L 129.06 22.40 L 128.99 22.58 L 128.96 22.71 L 128.84 22.95 L 128.68 23.35 L 128.50 23.67 L 128.39 23.88 L 128.28 24.05 L 128.14 24.28 L 127.77 24.78 L 127.60 25.01 L 127.53 25.09 L 127.45 25.19 L 126.62 26.07 L 126.60 26.09 L 126.59 26.10 L 126.49 26.18 L 125.65 26.91 L 125.48 27.03 L 125.36 27.13 L 125.08 27.32 L 124.55 27.70 L 124.16 27.94 L 123.94 28.09 L 123.69 28.23 L 123.32 28.45 L 122.65 28.80 L 122.33 28.98 L 122.17 29.05 L 121.98 29.15 L 120.55 29.79 L 120.53 29.80 L 118.98 30.38 L 118.77 30.45 L 118.61 30.50 L 118.19 30.63 L 117.34 30.90 L 116.87 31.02 L 116.55 31.11 L 116.18 31.20 L 115.62 31.35 L 114.83 31.52 L 114.38 31.62 L 114.13 31.66 L 113.84 31.73 L 112.44 31.96 L 112.11 32.02 L 112.06 32.02 L 112.00 32.03 L 110.12 32.27 L 109.94 32.28 L 109.78 32.30 L 109.28 32.34 L 108.20 32.42 L 107.74 32.44 L 107.40 32.46 L 106.96 32.47 L 106.27 32.50 L 105.48 32.50 L 105.00 32.51 L 104.72 32.50 L 104.33 32.50 L 103.01 32.45 L 102.61 32.43 L 102.52 32.43 L 102.40 32.42 L 100.49 32.27 L 100.35 32.25 L 100.24 32.24 L 99.79 32.18 L 98.61 32.03 L 98.23 31.97 L 97.92 31.93 L 97.46 31.84 L 96.77 31.73 L 96.10 31.59 L 95.67 31.50 L 95.40 31.44 L 94.98 31.35 L 93.91 31.07 L 93.53 30.97 L 93.42 30.94 L 93.27 30.90 L 91.63 30.38 L 91.56 30.35 L 91.49 30.33 L 91.20 30.22 L 90.08 29.80 L 89.80 29.67 L 89.60 29.60 L 89.27 29.44 L 88.63 29.15 L 88.17 28.91 L 87.86 28.77 L 87.63 28.64 L 87.28 28.45 L 86.61 28.04 L 86.30 27.86 L 86.20 27.79 L 86.06 27.70 L 84.95 26.91 L 84.94 26.89 L 84.92 26.88 L 84.80 26.77 L 83.99 26.07 L 83.86 25.93 L 83.74 25.83 L 83.55 25.60 L 83.16 25.19 L 82.95 24.92 L 82.78 24.73 L 82.66 24.54 L 82.47 24.28 L 82.21 23.83 L 82.05 23.59 L 82.00 23.48 L 81.93 23.35 L 81.56 22.46 L 81.54 22.41 L 81.54 22.41 L 81.54 22.40 L 81.31 21.44 L 81.30 21.31 L 81.28 21.22 L 81.27 20.98 L 81.23 20.47 L 81.23 34.37 Z" fill="url(#g3)" fill-rule="evenodd" stroke="url(#g3)" stroke-width="0.8"/>
<path d="M 125.36 27.13 L 126.59 26.10 L 127.60 25.01 L 128.39 23.88 L 128.96 22.71 L 129.28 21.52 L 129.38 20.32 L 129.22 19.12 L 128.84 17.94 L 128.22 16.78 L 127.37 15.66 L 126.30 14.58 L 125.02 13.57 L 123.55 12.62 L 121.90 11.75 L 120.08 10.97 L 118.11 10.28 L 116.02 9.69 L 113.82 9.21 L 111.53 8.85 L 109.19 8.59 L 106.80 8.46 L 104.40 8.44 L 102.01 8.55 L 99.65 8.77 L 97.35 9.11 L 95.13 9.56 L 93.01 10.12 L 91.01 10.79 L 89.15 11.55 L 87.45 12.40 L 85.93 13.32 L 84.61 14.32 L 83.48 15.38 L 82.58 16.50 L 81.90 17.65 L 81.45 18.83 L 81.25 20.02 L 81.28 21.22 L 81.54 22.41 L 82.05 23.59 L 82.78 24.73 L 83.74 25.83 L 84.92 26.88 L 86.30 27.86 L 87.86 28.77 L 89.60 29.60 L 91.49 30.33 L 93.53 30.97 L 95.67 31.50 L 97.92 31.93 L 100.24 32.24 L 102.61 32.43 L 105.00 32.51 L 107.40 32.46 L 109.78 32.30 L 112.11 32.02 L 114.38 31.62 L 116.55 31.11 L 118.61 30.50 L 120.55 29.79 L 122.33 28.98 L 123.94 28.09 Z" fill="#46e2f8" fill-rule="evenodd" stroke="#46e2f8" stroke-width="0.8"/>
<path d="M 42.93 73.44 L 43.76 73.00 L 43.47 73.12 Z M 42.44 73.72 L 41.49 74.46 L 41.48 74.47 L 42.56 73.65 Z M 40.62 75.33 L 40.51 75.47 L 41.41 74.54 Z M 39.84 76.32 L 39.64 76.65 L 40.22 75.84 Z M 39.16 77.43 L 38.88 78.02 L 39.37 77.09 Z M 38.57 78.65 L 38.15 79.81 L 38.66 78.47 Z M 38.09 79.98 L 37.70 81.40 L 37.67 81.58 L 38.09 79.97 Z M 37.43 82.91 L 37.38 83.34 L 37.58 82.10 Z M 37.27 84.49 L 37.24 85.22 L 37.32 83.97 Z M 37.21 86.14 L 37.25 87.47 L 37.22 85.85 Z M 37.27 87.85 L 37.43 89.60 L 37.46 89.78 L 37.26 87.77 Z M 37.70 91.38 L 37.79 91.80 L 37.54 90.30 Z M 38.09 93.18 L 38.28 93.92 L 37.95 92.53 Z M 38.57 95.00 L 38.97 96.23 L 38.47 94.61 Z M 39.16 96.81 L 39.84 98.60 L 39.90 98.73 L 39.12 96.68 Z M 40.62 100.38 L 40.81 100.75 L 40.10 99.18 Z M 41.49 102.11 L 41.85 102.74 L 41.13 101.39 Z M 42.44 103.80 L 43.05 104.77 L 42.21 103.39 Z M 43.47 105.42 L 44.56 106.98 L 44.61 107.04 L 43.37 105.26 Z M 45.72 108.45 L 45.94 108.70 L 44.83 107.32 Z M 46.94 109.84 L 47.34 110.26 L 46.40 109.23 Z M 48.20 111.13 L 48.88 111.75 L 47.87 110.79 Z M 49.50 112.31 L 50.83 113.38 L 50.85 113.39 L 49.34 112.17 Z M 52.18 114.33 L 52.38 114.45 L 50.97 113.48 Z M 53.55 115.14 L 53.95 115.34 L 52.90 114.75 Z M 54.92 115.83 L 55.58 116.09 L 54.51 115.63 Z M 56.28 116.38 L 57.49 116.74 L 56.08 116.30 Z M 57.64 116.78 L 58.97 117.05 L 59.13 117.06 L 57.62 116.78 Z M 60.27 117.17 L 60.60 117.16 L 59.57 117.10 Z M 61.53 117.14 L 62.06 117.06 L 61.12 117.15 Z M 62.74 116.97 L 63.60 116.73 L 62.54 117.00 Z M 63.90 116.65 L 65.00 116.19 L 65.10 116.13 L 63.86 116.66 Z M 69.61 111.23 L 69.52 111.43 L 69.62 111.23 Z M 66.03 115.59 L 66.25 115.41 L 65.41 115.95 Z M 66.97 114.85 L 67.32 114.51 L 66.63 115.12 Z M 67.84 113.98 L 68.36 113.32 L 67.67 114.16 Z M 69.31 111.88 L 69.34 111.81 L 68.57 113.06 L 68.62 112.99 Z M 49.50 72.26 L 48.73 72.19 L 49.81 72.32 Z M 46.94 72.17 L 46.88 72.18 L 48.32 72.15 L 48.20 72.14 Z M 45.72 72.34 L 45.51 72.40 L 46.66 72.21 Z M 44.56 72.66 L 44.20 72.81 L 45.08 72.52 Z M 49.83 105.26 L 49.99 105.41 L 49.65 105.07 Z M 49.01 104.36 L 48.70 104.02 L 48.81 104.15 Z M 47.97 103.10 L 47.82 102.91 L 47.84 102.94 Z M 47.00 101.74 L 46.76 101.36 L 46.94 101.66 Z M 46.23 100.50 L 45.96 100.02 L 46.11 100.30 Z M 45.52 99.18 L 45.27 98.69 L 45.36 98.89 Z M 44.81 97.67 L 44.68 97.38 L 44.70 97.43 Z M 44.16 96.00 L 44.05 95.69 L 44.13 95.95 Z M 43.73 94.64 L 43.60 94.17 L 43.67 94.45 Z M 43.37 93.21 L 43.28 92.77 L 43.31 92.96 Z M 43.10 91.73 L 43.05 91.41 L 43.06 91.48 Z M 42.92 90.07 L 42.91 89.85 L 42.92 90.03 Z M 42.89 88.78 L 42.90 88.37 L 42.89 88.64 Z M 42.96 87.54 L 43.00 87.10 L 42.97 87.30 Z M 43.13 86.28 L 43.19 85.94 L 43.17 86.03 Z M 43.47 84.86 L 43.50 84.78 L 43.48 84.85 Z M 43.85 83.86 L 43.99 83.58 L 43.89 83.77 Z M 44.32 82.94 L 44.50 82.66 L 44.41 82.79 Z M 44.90 82.10 L 45.08 81.87 L 45.02 81.93 Z M 45.67 81.26 L 45.73 81.20 L 45.72 81.20 Z M 46.45 80.65 L 46.70 80.51 L 46.51 80.61 Z M 60.65 109.32 L 60.47 109.37 L 60.63 109.34 Z M 59.76 109.55 L 59.46 109.59 L 59.66 109.58 Z M 58.82 109.65 L 58.48 109.66 L 58.64 109.67 Z M 57.80 109.62 L 57.50 109.59 L 57.58 109.61 Z M 56.49 109.41 L 56.40 109.38 L 56.48 109.40 Z M 55.46 109.08 L 55.13 108.95 L 55.36 109.05 Z M 54.42 108.64 L 54.06 108.45 L 54.23 108.55 Z M 53.32 108.04 L 53.01 107.85 L 53.10 107.92 Z M 50.97 106.33 L 50.67 106.06 L 50.89 106.26 Z" fill="url(#g5)" fill-rule="evenodd" stroke="url(#g5)" stroke-width="0.8"/>
<path d="M 46.45 80.65 L 45.73 81.20 L 45.67 81.26 L 45.08 81.87 L 44.90 82.10 L 44.50 82.66 L 44.32 82.94 L 43.99 83.58 L 43.85 83.86 L 43.50 84.78 L 43.47 84.86 L 43.19 85.94 L 43.13 86.28 L 43.00 87.10 L 42.96 87.54 L 42.90 88.37 L 42.89 88.78 L 42.91 89.85 L 42.92 90.07 L 43.05 91.41 L 43.10 91.73 L 43.28 92.77 L 43.37 93.21 L 43.60 94.17 L 43.73 94.64 L 44.05 95.69 L 44.16 96.00 L 44.68 97.38 L 44.81 97.67 L 45.27 98.69 L 45.52 99.18 L 45.96 100.02 L 46.23 100.50 L 46.76 101.36 L 47.00 101.74 L 47.82 102.91 L 47.97 103.10 L 48.70 104.02 L 49.01 104.36 L 49.65 105.07 L 49.99 105.41 L 50.67 106.06 L 50.97 106.33 L 51.97 107.14 L 52.07 107.21 L 53.01 107.85 L 53.32 108.04 L 54.06 108.45 L 54.42 108.64 L 55.13 108.95 L 55.46 109.08 L 56.40 109.38 L 56.49 109.41 L 57.50 109.59 L 57.80 109.62 L 58.48 109.66 L 58.82 109.65 L 59.46 109.59 L 59.76 109.55 L 60.47 109.37 L 60.65 109.32 L 61.47 108.97 L 61.69 108.85 L 62.25 108.49 L 62.49 108.30 L 62.96 107.88 L 63.19 107.66 L 63.65 107.11 L 63.79 106.92 L 64.31 106.08 L 64.41 105.87 L 64.74 105.13 L 64.86 104.80 L 65.09 104.09 L 65.19 103.71 L 65.36 102.89 L 65.38 102.77 L 65.12 102.64 L 64.21 102.09 L 63.31 101.46 L 62.42 100.75 L 61.56 99.97 L 60.72 99.11 L 59.91 98.18 L 59.13 97.20 L 58.41 96.16 L 57.72 95.07 L 57.09 93.95 L 56.51 92.79 L 55.99 91.61 L 55.53 90.42 L 55.14 89.21 L 54.82 88.00 L 54.56 86.80 L 54.38 85.61 L 54.27 84.44 L 54.23 83.31 L 54.27 82.21 L 54.38 81.15 L 54.43 80.87 L 53.71 80.51 L 53.48 80.42 L 52.68 80.12 L 52.33 80.01 L 51.64 79.84 L 51.28 79.77 L 50.58 79.68 L 50.29 79.65 L 49.34 79.67 L 49.16 79.69 L 48.43 79.82 L 48.12 79.90 L 47.55 80.09 L 47.25 80.22 L 46.70 80.51 Z" fill="url(#g6)" fill-rule="evenodd" stroke="url(#g6)" stroke-width="0.8"/>
<path d="M 47.55 80.09 L 47.38 80.15 L 47.25 80.22 Z M 48.43 79.82 L 48.31 79.84 L 48.12 79.90 Z M 49.34 79.67 L 49.31 79.67 L 49.16 79.69 Z M 50.58 79.68 L 50.35 79.65 L 50.29 79.65 Z M 51.64 79.84 L 51.43 79.78 L 51.28 79.77 Z M 52.68 80.12 L 52.54 80.06 L 52.33 80.01 Z M 53.71 80.51 L 53.67 80.49 L 53.48 80.42 Z M 54.98 81.17 L 54.80 81.06 L 54.76 81.03 Z M 56.13 81.91 L 55.92 81.76 L 55.79 81.67 Z M 57.18 82.72 L 57.03 82.59 L 56.83 82.43 Z M 58.18 83.60 L 58.12 83.53 L 57.89 83.34 Z M 59.30 84.77 L 59.16 84.59 L 59.13 84.57 Z M 60.34 86.01 L 60.15 85.75 L 60.04 85.63 Z M 61.23 87.22 L 61.09 87.00 L 60.91 86.77 Z M 62.01 88.42 L 61.95 88.33 L 61.77 88.05 Z M 63.58 91.46 L 63.45 91.15 L 63.38 91.01 Z M 64.14 92.86 L 64.06 92.62 L 63.96 92.39 Z M 64.62 94.25 L 64.58 94.11 L 64.47 93.79 Z M 64.99 95.62 L 64.99 95.61 L 64.96 95.51 Z M 65.34 97.38 L 65.30 97.09 L 65.28 96.99 Z M 65.51 98.81 L 65.49 98.56 L 65.46 98.34 Z M 65.58 100.12 L 65.58 99.98 L 65.56 99.70 Z M 65.55 101.38 L 65.55 101.35 L 65.55 101.17 Z M 65.36 102.89 L 65.41 102.66 L 65.42 102.58 Z M 65.09 104.09 L 65.16 103.88 L 65.19 103.71 Z M 64.74 105.13 L 64.80 105.02 L 64.86 104.80 Z M 64.31 106.08 L 64.33 106.05 L 64.41 105.87 Z M 63.65 107.11 L 63.77 106.96 L 63.79 106.92 Z M 62.96 107.88 L 63.11 107.76 L 63.19 107.66 Z M 62.25 108.49 L 62.36 108.42 L 62.49 108.30 Z M 61.47 108.97 L 61.53 108.95 L 61.69 108.85 Z M 71.22 104.10 L 71.26 103.17 L 71.25 102.87 L 71.22 104.11 Z M 71.22 102.21 L 71.20 101.46 L 71.15 100.88 Z M 71.08 100.19 L 71.04 99.71 L 70.88 98.72 Z M 70.80 98.16 L 70.76 97.93 L 70.38 96.13 L 70.38 96.11 Z M 70.32 95.89 L 69.89 94.31 L 69.81 94.05 Z M 69.58 93.36 L 69.31 92.50 L 69.11 91.97 Z M 68.83 91.24 L 68.62 90.70 L 68.24 89.85 Z M 67.96 89.20 L 67.84 88.93 L 67.08 87.41 Z M 66.98 87.22 L 66.97 87.20 L 66.03 85.51 L 65.90 85.32 Z M 65.54 84.75 L 65.00 83.89 L 64.71 83.48 Z M 64.26 82.84 L 63.90 82.33 L 63.40 81.69 Z M 62.94 81.11 L 62.74 80.86 L 61.79 79.76 Z M 61.59 79.53 L 61.53 79.47 L 60.27 78.18 L 60.15 78.07 Z M 59.72 77.68 L 58.97 77.00 L 58.66 76.75 Z M 58.12 76.31 L 57.64 75.93 L 57.10 75.56 Z" fill="url(#g7)" fill-rule="evenodd" stroke="url(#g7)" stroke-width="0.8"/>
<path d="M 78.32 109.18 L 79.19 108.31 L 79.97 107.32 L 80.66 106.21 L 81.24 104.98 L 81.73 103.66 L 82.11 102.23 L 82.39 100.73 L 82.55 99.14 L 82.61 97.49 L 82.55 95.79 L 82.39 94.04 L 82.11 92.25 L 81.73 90.45 L 81.24 88.64 L 80.66 86.83 L 79.97 85.03 L 79.19 83.26 L 78.32 81.53 L 77.37 79.84 L 76.35 78.21 L 75.25 76.66 L 74.09 75.18 L 72.88 73.79 L 71.62 72.50 L 70.32 71.32 L 68.99 70.25 L 67.63 69.31 L 66.27 68.49 L 64.90 67.81 L 63.53 67.26 L 62.18 66.85 L 60.85 66.59 L 59.55 66.47 L 58.28 66.50 L 57.07 66.67 L 55.91 66.99 L 54.82 67.45 L 43.47 73.12 L 43.76 73.00 L 43.95 72.90 L 44.20 72.81 L 44.56 72.66 L 45.08 72.52 L 45.36 72.43 L 45.51 72.40 L 45.72 72.34 L 46.66 72.21 L 46.85 72.18 L 46.88 72.18 L 46.94 72.17 L 48.20 72.14 L 48.32 72.15 L 48.41 72.15 L 48.73 72.19 L 49.50 72.26 L 49.81 72.32 L 50.03 72.35 L 50.35 72.43 L 50.83 72.53 L 51.36 72.69 L 51.70 72.77 L 51.91 72.85 L 52.18 72.93 L 53.09 73.30 L 53.38 73.41 L 53.46 73.44 L 53.55 73.48 L 54.92 74.17 L 55.01 74.22 L 55.08 74.26 L 55.39 74.45 L 56.28 74.98 L 56.56 75.18 L 56.77 75.31 L 57.10 75.56 L 57.64 75.93 L 58.12 76.31 L 58.43 76.55 L 58.66 76.75 L 58.97 77.00 L 59.72 77.68 L 60.05 77.97 L 60.15 78.07 L 60.27 78.18 L 61.53 79.47 L 61.59 79.53 L 61.62 79.56 L 61.79 79.76 L 62.74 80.86 L 62.94 81.11 L 63.11 81.30 L 63.40 81.69 L 63.90 82.33 L 64.26 82.84 L 64.51 83.17 L 64.71 83.48 L 65.00 83.89 L 65.54 84.75 L 65.81 85.16 L 65.90 85.32 L 66.03 85.51 L 66.97 87.20 L 66.98 87.22 L 67.00 87.24 L 67.08 87.41 L 67.84 88.93 L 67.96 89.20 L 68.06 89.39 L 68.24 89.85 L 68.62 90.70 L 68.83 91.24 L 68.98 91.60 L 69.11 91.97 L 69.31 92.50 L 69.58 93.36 L 69.75 93.84 L 69.81 94.05 L 69.89 94.31 L 70.32 95.89 L 70.37 96.08 L 70.38 96.11 L 70.38 96.13 L 70.76 97.93 L 70.80 98.16 L 70.83 98.31 L 70.88 98.72 L 71.04 99.71 L 71.08 100.19 L 71.12 100.51 L 71.15 100.88 L 71.20 101.46 L 71.22 102.21 L 71.25 102.64 L 71.25 102.87 L 71.26 103.17 L 71.22 104.38 L 71.21 104.70 L 71.20 104.76 L 71.20 104.82 L 71.04 106.40 L 71.01 106.54 L 71.00 106.66 L 70.92 107.03 L 70.76 107.91 L 70.67 108.25 L 70.62 108.50 L 70.52 108.81 L 70.38 109.33 L 70.19 109.85 L 70.08 110.19 L 69.99 110.39 L 69.89 110.66 L 69.52 111.43 L 69.38 111.74 L 69.34 111.81 L 69.31 111.88 L 68.62 112.99 L 68.57 113.06 L 68.53 113.12 L 68.36 113.32 L 67.84 113.98 L 67.67 114.16 L 67.54 114.31 L 67.32 114.51 L 66.97 114.85 L 66.63 115.12 L 66.42 115.31 L 66.25 115.41 L 66.03 115.59 L 65.41 115.95 L 65.17 116.10 L 65.10 116.13 L 65.00 116.19 L 76.35 110.51 L 77.37 109.91 Z" fill="url(#g8)" fill-rule="evenodd" stroke="url(#g8)" stroke-width="0.8"/>
<path d="M 57.61 116.78 L 59.25 117.09 L 60.85 117.17 L 62.38 117.04 L 63.82 116.68 L 65.17 116.10 L 66.42 115.31 L 67.54 114.31 L 68.53 113.12 L 69.38 111.74 L 70.08 110.19 L 70.62 108.50 L 71.00 106.66 L 71.21 104.70 L 71.25 102.64 L 71.12 100.51 L 70.83 98.31 L 70.37 96.08 L 69.75 93.84 L 68.98 91.60 L 68.06 89.39 L 67.00 87.24 L 65.81 85.16 L 64.51 83.17 L 63.11 81.30 L 61.62 79.56 L 60.05 77.97 L 58.43 76.55 L 56.77 75.31 L 55.08 74.26 L 53.38 73.41 L 51.70 72.77 L 50.03 72.35 L 48.41 72.15 L 46.85 72.18 L 45.36 72.43 L 43.95 72.90 L 42.65 73.58 L 41.47 74.48 L 40.41 75.57 L 39.49 76.86 L 38.72 78.32 L 38.10 79.95 L 37.64 81.72 L 37.34 83.62 L 37.22 85.63 L 37.26 87.72 L 37.47 89.89 L 37.85 92.11 L 38.39 94.35 L 39.09 96.59 L 39.93 98.82 L 40.92 101.00 L 42.05 103.12 L 43.29 105.16 L 44.64 107.09 L 46.09 108.89 L 47.62 110.56 L 49.22 112.07 L 50.86 113.40 L 52.54 114.55 L 54.23 115.50 L 55.93 116.25 Z M 51.98 107.15 L 50.89 106.26 L 49.83 105.26 L 48.81 104.15 L 47.84 102.94 L 46.94 101.66 L 46.11 100.30 L 45.36 98.89 L 44.70 97.43 L 44.13 95.95 L 43.67 94.45 L 43.31 92.96 L 43.06 91.48 L 42.92 90.03 L 42.89 88.64 L 42.97 87.30 L 43.17 86.03 L 43.48 84.85 L 43.89 83.77 L 44.41 82.79 L 45.02 81.93 L 45.72 81.20 L 46.51 80.61 L 47.38 80.15 L 48.31 79.84 L 49.31 79.67 L 50.35 79.65 L 51.43 79.78 L 52.54 80.06 L 53.67 80.49 L 54.80 81.06 L 55.92 81.76 L 57.03 82.59 L 58.12 83.53 L 59.16 84.59 L 60.15 85.75 L 61.09 87.00 L 61.95 88.33 L 62.74 89.71 L 63.45 91.15 L 64.06 92.62 L 64.58 94.11 L 64.99 95.61 L 65.30 97.09 L 65.49 98.56 L 65.58 99.98 L 65.55 101.35 L 65.41 102.66 L 65.16 103.88 L 64.80 105.02 L 64.33 106.05 L 63.77 106.96 L 63.11 107.76 L 62.36 108.42 L 61.53 108.95 L 60.63 109.34 L 59.66 109.58 L 58.64 109.67 L 57.58 109.61 L 56.48 109.40 L 55.36 109.05 L 54.23 108.55 L 53.10 107.92 Z" fill="#2e94a2" fill-rule="evenodd" stroke="#2e94a2" stroke-width="0.8"/>
<path d="M 185.99 47.65 L 186.09 48.47 L 186.04 47.88 Z M 185.81 46.91 L 185.66 46.54 L 185.90 47.28 Z M 185.42 45.96 L 185.08 45.37 L 185.50 46.16 Z M 184.88 45.03 L 184.19 44.13 L 184.14 44.07 L 184.92 45.10 Z M 183.36 43.25 L 183.17 43.08 L 183.93 43.85 Z M 182.39 42.41 L 182.00 42.13 L 182.79 42.75 Z M 181.29 41.61 L 180.58 41.18 L 181.56 41.81 Z M 180.07 40.86 L 178.72 40.16 L 178.68 40.14 L 180.19 40.94 Z M 177.27 39.52 L 177.00 39.42 L 178.40 40.02 Z M 175.72 38.94 L 175.20 38.77 L 176.44 39.21 Z M 174.08 38.42 L 173.19 38.19 L 174.52 38.56 Z M 172.37 37.97 L 170.58 37.59 L 172.59 38.03 Z M 168.74 37.28 L 168.50 37.25 L 170.47 37.57 Z M 166.86 37.05 L 166.32 37.01 L 167.75 37.16 Z M 164.95 36.90 L 164.01 36.86 L 165.53 36.94 Z M 163.02 36.82 L 161.31 36.82 L 163.33 36.83 Z M 161.08 36.82 L 159.14 36.90 L 158.93 36.91 L 161.12 36.82 Z M 157.23 37.05 L 156.77 37.11 L 158.24 36.97 Z M 155.35 37.28 L 154.55 37.42 L 155.96 37.21 Z M 153.51 37.59 L 152.17 37.88 L 153.87 37.53 Z M 151.73 37.97 L 150.01 38.42 L 149.86 38.47 L 151.82 37.95 Z M 148.37 38.94 L 148.02 39.07 L 149.37 38.62 Z M 146.82 39.52 L 146.25 39.77 L 147.39 39.30 Z M 145.37 40.16 L 144.47 40.63 L 145.69 40.02 Z M 144.03 40.86 L 142.80 41.61 L 142.73 41.66 L 144.13 40.80 Z M 141.70 42.41 L 141.51 42.58 L 142.47 41.85 Z M 140.73 43.25 L 140.43 43.56 L 141.13 42.90 Z M 139.90 44.13 L 139.50 44.65 L 140.10 43.91 Z M 139.21 45.03 L 138.67 45.96 L 138.66 46.00 L 139.28 44.94 Z M 138.28 46.91 L 138.25 47.08 L 138.59 46.16 Z M 138.05 47.88 L 138.03 48.19 L 138.16 47.44 Z M 137.97 48.84 L 138.01 49.35 L 137.99 48.58 Z M 142.42 55.79 L 141.68 55.26 L 141.70 55.28 L 142.41 55.79 Z M 181.68 55.79 L 181.81 55.70 L 181.68 55.79 Z M 186.11 48.76 L 186.03 49.86 L 186.04 49.81 L 186.12 48.84 Z M 182.39 55.28 L 183.20 54.58 L 182.22 55.40 Z M 184.28 53.46 L 183.35 54.45 L 183.36 54.44 L 184.19 53.56 Z M 184.88 52.66 L 185.02 52.42 L 184.50 53.16 Z M 185.42 51.73 L 185.59 51.32 L 185.24 52.04 Z M 185.81 50.77 L 185.98 50.07 L 185.74 50.95 Z M 138.05 49.81 L 138.28 50.77 L 138.04 49.69 Z M 138.67 51.73 L 138.75 51.86 L 138.32 50.87 Z M 139.21 52.66 L 139.41 52.92 L 138.94 52.20 Z M 139.90 53.56 L 140.30 53.98 L 139.69 53.28 Z M 140.73 54.44 L 141.54 55.14 L 140.60 54.30 Z" fill="url(#g10)" fill-rule="evenodd" stroke="url(#g10)" stroke-width="0.8"/>
<path d="M 150.70 96.79 L 150.70 124.59 L 162.05 118.91 L 218.79 90.54 L 218.79 62.74 Z" fill="#206873" fill-rule="evenodd" stroke="#206873" stroke-width="0.8"/>
<path d="M 160.16 157.90 L 160.25 157.84 L 160.34 157.77 L 160.44 157.71 L 160.53 157.64 L 160.61 157.56 L 160.70 157.49 L 160.78 157.41 L 160.86 157.32 L 160.94 157.24 L 161.01 157.15 L 161.09 157.05 L 161.16 156.96 L 161.22 156.86 L 161.29 156.75 L 161.35 156.65 L 161.41 156.54 L 161.47 156.43 L 161.53 156.31 L 161.58 156.19 L 161.63 156.07 L 161.68 155.95 L 161.72 155.82 L 161.76 155.69 L 161.80 155.56 L 161.84 155.43 L 161.87 155.29 L 161.90 155.16 L 161.93 155.01 L 161.95 154.87 L 161.97 154.73 L 161.99 154.58 L 162.01 154.43 L 162.02 154.28 L 162.03 154.13 L 162.04 153.97 L 162.04 153.82 L 162.05 153.66 L 150.70 159.34 L 150.70 159.49 L 150.69 159.65 L 150.68 159.80 L 150.67 159.96 L 150.66 160.11 L 150.65 160.22 L 150.65 160.22 L 150.65 160.22 L 150.65 160.25 L 150.63 160.40 L 150.60 160.55 L 150.58 160.69 L 150.55 160.83 L 150.52 160.97 L 150.50 161.04 L 150.50 161.04 L 150.50 161.04 L 150.49 161.10 L 150.45 161.24 L 150.41 161.37 L 150.37 161.50 L 150.33 161.62 L 150.28 161.75 L 150.27 161.77 L 150.27 161.78 L 150.26 161.79 L 150.23 161.87 L 150.18 161.98 L 150.12 162.10 L 150.06 162.21 L 150.00 162.32 L 149.94 162.43 L 149.94 162.43 L 149.94 162.43 L 149.94 162.43 L 149.88 162.53 L 149.81 162.63 L 149.74 162.73 L 149.66 162.82 L 149.59 162.91 L 149.53 162.98 L 149.53 162.98 L 149.52 162.99 L 149.51 163.00 L 149.43 163.08 L 149.35 163.16 L 149.26 163.24 L 149.18 163.31 L 149.09 163.38 L 149.04 163.42 L 149.03 163.42 L 149.03 163.42 L 149.00 163.45 L 148.90 163.51 L 148.81 163.57 L 148.71 163.63 L 148.61 163.68 L 159.96 158.00 L 160.06 157.95 Z" fill="url(#g12)" fill-rule="evenodd" stroke="url(#g12)" stroke-width="0.8"/>
<path d="M 99.66 101.81 L 100.50 101.37 L 100.21 101.49 Z M 99.18 102.09 L 98.23 102.83 L 98.22 102.84 L 99.31 102.02 Z M 97.37 103.70 L 97.26 103.84 L 98.13 102.94 Z M 96.59 104.69 L 96.39 105.02 L 96.96 104.22 Z M 95.90 105.80 L 95.62 106.38 L 96.10 105.48 Z M 95.32 107.02 L 94.89 108.18 L 95.40 106.85 Z M 94.83 108.35 L 94.45 109.77 L 94.41 109.97 L 94.83 108.34 Z M 94.17 111.28 L 94.13 111.71 L 94.33 110.45 Z M 94.01 112.86 L 93.98 113.59 L 94.06 112.34 Z M 93.95 114.52 L 93.99 115.77 L 93.96 114.23 Z M 94.01 116.22 L 94.17 117.97 L 94.20 118.14 L 94.01 116.16 Z M 94.45 119.75 L 94.54 120.18 L 94.29 118.70 Z M 94.83 121.56 L 95.02 122.27 L 94.69 120.90 Z M 95.32 123.37 L 95.69 124.51 L 95.22 123.01 Z M 95.90 125.18 L 96.59 126.98 L 96.64 127.10 L 95.87 125.07 Z M 97.37 128.75 L 97.55 129.11 L 96.85 127.56 Z M 98.23 130.48 L 98.58 131.10 L 97.88 129.78 Z M 99.19 132.17 L 99.80 133.14 L 98.96 131.77 Z M 100.21 133.79 L 101.31 135.35 L 101.35 135.40 L 100.11 133.64 Z M 102.47 136.83 L 102.67 137.06 L 101.62 135.75 Z M 103.68 138.21 L 104.11 138.65 L 103.15 137.61 Z M 104.94 139.50 L 105.63 140.13 L 104.60 139.15 Z M 106.24 140.69 L 107.57 141.75 L 107.59 141.76 L 106.09 140.54 Z M 108.92 142.70 L 109.13 142.82 L 107.72 141.85 Z M 110.29 143.52 L 110.69 143.72 L 109.64 143.13 Z M 111.66 144.20 L 112.32 144.47 L 111.26 144.00 Z M 113.03 144.75 L 114.24 145.11 L 112.83 144.67 Z M 114.38 145.16 L 115.71 145.42 L 115.88 145.44 L 114.36 145.15 Z M 117.01 145.54 L 117.35 145.53 L 116.31 145.47 Z M 118.28 145.51 L 118.82 145.43 L 117.86 145.52 Z M 119.49 145.34 L 120.35 145.10 L 119.27 145.37 Z M 120.65 145.02 L 121.74 144.56 L 121.84 144.50 L 120.60 145.03 Z M 126.35 139.61 L 126.25 139.85 L 126.36 139.61 Z M 122.17 144.31 L 122.77 143.96 L 123.00 143.78 Z M 123.37 143.49 L 123.72 143.22 L 124.07 142.87 Z M 124.40 142.54 L 124.59 142.36 L 125.11 141.69 Z M 126.05 140.25 L 126.09 140.17 L 125.31 141.43 L 125.36 141.36 Z M 106.55 100.69 L 106.24 100.63 L 105.47 100.56 Z M 103.68 100.54 L 103.64 100.55 L 105.06 100.53 L 104.94 100.51 Z M 103.36 100.59 L 102.47 100.72 L 102.26 100.77 Z M 101.82 100.89 L 101.31 101.03 L 100.94 101.19 Z M 100.59 112.24 L 100.74 111.94 L 100.63 112.14 Z M 101.07 111.32 L 101.25 111.03 L 101.15 111.16 Z M 101.64 110.48 L 101.83 110.24 L 101.76 110.31 Z M 102.41 109.63 L 102.48 109.57 L 102.47 109.58 Z M 103.20 109.02 L 103.44 108.88 L 103.26 108.98 Z M 117.39 137.70 L 117.25 137.74 L 117.37 137.71 Z M 116.50 137.92 L 116.20 137.97 L 116.40 137.95 Z M 115.56 138.02 L 115.22 138.03 L 115.39 138.04 Z M 114.54 137.99 L 114.24 137.97 L 114.32 137.98 Z M 113.24 137.78 L 113.14 137.75 L 113.23 137.78 Z M 112.21 137.45 L 111.88 137.32 L 112.11 137.42 Z M 111.17 137.01 L 110.79 136.82 L 110.98 136.93 Z M 110.08 136.42 L 109.75 136.22 L 109.85 136.29 Z M 107.71 134.70 L 107.42 134.43 L 107.63 134.64 Z M 106.73 133.78 L 106.39 133.44 L 106.57 133.63 Z M 105.77 132.76 L 105.44 132.38 L 105.55 132.52 Z M 104.71 131.48 L 104.56 131.28 L 104.58 131.31 Z M 103.74 130.11 L 103.51 129.75 L 103.68 130.03 Z M 102.96 128.85 L 102.72 128.42 L 102.85 128.67 Z M 102.24 127.52 L 102.03 127.09 L 102.10 127.26 Z M 101.54 126.02 L 101.42 125.75 L 101.44 125.80 Z M 100.90 124.38 L 100.81 124.08 L 100.88 124.32 Z M 100.47 122.99 L 100.35 122.55 L 100.41 122.82 Z M 100.12 121.61 L 100.02 121.12 L 100.05 121.33 Z M 99.85 120.12 L 99.79 119.78 L 99.80 119.85 Z M 99.66 118.44 L 99.66 118.22 L 99.66 118.41 Z M 99.64 117.15 L 99.65 116.75 L 99.63 117.01 Z M 99.70 115.91 L 99.75 115.48 L 99.72 115.67 Z M 99.87 114.65 L 99.94 114.32 L 99.91 114.40 Z" fill="url(#g13)" fill-rule="evenodd" stroke="url(#g13)" stroke-width="0.8"/>
<path d="M 103.20 109.02 L 102.48 109.57 L 102.41 109.63 L 101.83 110.24 L 101.64 110.48 L 101.25 111.03 L 101.07 111.32 L 100.74 111.94 L 100.59 112.24 L 100.25 113.15 L 100.22 113.23 L 99.94 114.32 L 99.87 114.65 L 99.75 115.48 L 99.70 115.91 L 99.65 116.75 L 99.64 117.15 L 99.66 118.22 L 99.66 118.44 L 99.79 119.78 L 99.85 120.12 L 100.02 121.12 L 100.12 121.61 L 100.35 122.55 L 100.47 122.99 L 100.81 124.08 L 100.90 124.38 L 101.42 125.75 L 101.54 126.02 L 102.03 127.09 L 102.24 127.52 L 102.72 128.42 L 102.96 128.85 L 103.51 129.75 L 103.74 130.11 L 104.56 131.28 L 104.71 131.48 L 105.44 132.38 L 105.77 132.76 L 106.39 133.44 L 106.73 133.78 L 107.42 134.43 L 107.71 134.70 L 108.72 135.52 L 108.81 135.59 L 109.75 136.22 L 110.08 136.42 L 110.79 136.82 L 111.17 137.01 L 111.88 137.32 L 112.21 137.45 L 113.14 137.75 L 113.24 137.78 L 114.24 137.97 L 114.54 137.99 L 115.22 138.03 L 115.56 138.02 L 116.20 137.97 L 116.50 137.92 L 117.25 137.74 L 117.39 137.70 L 118.22 137.35 L 118.44 137.22 L 118.99 136.86 L 119.24 136.67 L 119.71 136.26 L 119.93 136.03 L 120.40 135.47 L 120.53 135.30 L 121.05 134.46 L 121.16 134.24 L 121.49 133.51 L 121.61 133.18 L 121.84 132.46 L 121.93 132.09 L 122.11 131.25 L 122.13 131.14 L 121.87 131.01 L 120.96 130.47 L 120.06 129.84 L 119.17 129.12 L 118.30 128.34 L 117.46 127.48 L 116.65 126.55 L 115.88 125.57 L 115.15 124.53 L 114.46 123.45 L 113.83 122.32 L 113.25 121.17 L 112.73 119.98 L 112.28 118.79 L 111.89 117.58 L 111.56 116.37 L 111.31 115.17 L 111.12 113.98 L 111.01 112.81 L 110.98 111.68 L 111.01 110.58 L 111.12 109.52 L 111.17 109.24 L 110.45 108.88 L 110.22 108.79 L 109.42 108.49 L 109.08 108.38 L 108.37 108.21 L 108.03 108.14 L 107.29 108.05 L 107.04 108.03 L 106.08 108.04 L 105.92 108.06 L 105.16 108.19 L 104.88 108.27 L 104.29 108.47 L 103.99 108.59 L 103.44 108.88 Z" fill="url(#g14)" fill-rule="evenodd" stroke="url(#g14)" stroke-width="0.8"/>
<path d="M 138.05 63.71 L 138.28 64.67 L 138.67 65.62 L 139.21 66.56 L 139.90 67.46 L 140.73 68.34 L 141.70 69.18 L 142.80 69.97 L 144.03 70.73 L 145.37 71.42 L 146.82 72.07 L 148.37 72.65 L 150.01 73.17 L 151.73 73.62 L 153.51 74.00 L 155.35 74.31 L 157.23 74.54 L 159.14 74.69 L 161.08 74.77 L 163.02 74.77 L 164.95 74.69 L 166.86 74.54 L 168.74 74.31 L 170.58 74.00 L 172.37 73.62 L 174.08 73.17 L 175.72 72.65 L 177.27 72.07 L 178.72 71.42 L 180.07 70.73 L 181.29 69.97 L 182.39 69.18 L 183.36 68.34 L 184.19 67.46 L 184.88 66.56 L 185.42 65.62 L 185.81 64.67 L 186.04 63.71 L 186.12 62.74 L 186.12 48.84 L 186.04 49.81 L 186.03 49.86 L 186.03 49.89 L 185.98 50.07 L 185.81 50.77 L 185.74 50.95 L 185.70 51.08 L 185.59 51.32 L 185.42 51.73 L 185.24 52.04 L 185.14 52.25 L 185.02 52.42 L 184.88 52.66 L 184.50 53.16 L 184.34 53.38 L 184.28 53.46 L 184.19 53.56 L 183.36 54.44 L 183.35 54.45 L 183.33 54.47 L 183.20 54.58 L 182.39 55.28 L 182.22 55.40 L 182.10 55.50 L 181.81 55.70 L 181.29 56.08 L 180.91 56.31 L 180.68 56.47 L 180.43 56.60 L 180.07 56.83 L 179.38 57.18 L 179.07 57.36 L 178.92 57.42 L 178.72 57.53 L 177.39 58.12 L 177.29 58.16 L 177.28 58.17 L 177.27 58.17 L 175.72 58.75 L 175.51 58.82 L 175.36 58.87 L 174.93 59.00 L 174.08 59.27 L 173.62 59.39 L 173.29 59.49 L 172.91 59.58 L 172.37 59.72 L 171.59 59.88 L 171.12 59.99 L 170.87 60.04 L 170.58 60.10 L 169.18 60.33 L 168.85 60.39 L 168.80 60.40 L 168.74 60.41 L 166.86 60.64 L 166.68 60.65 L 166.52 60.67 L 166.02 60.71 L 164.95 60.79 L 164.48 60.81 L 164.14 60.84 L 163.70 60.84 L 163.02 60.87 L 162.23 60.87 L 161.75 60.88 L 161.46 60.87 L 161.08 60.87 L 159.75 60.82 L 159.35 60.81 L 159.26 60.80 L 159.14 60.79 L 157.23 60.64 L 157.09 60.62 L 156.98 60.61 L 156.54 60.55 L 155.35 60.41 L 154.97 60.34 L 154.66 60.30 L 154.21 60.22 L 153.51 60.10 L 152.85 59.96 L 152.42 59.88 L 152.13 59.80 L 151.73 59.72 L 150.68 59.45 L 150.27 59.34 L 150.16 59.31 L 150.01 59.27 L 148.37 58.75 L 148.30 58.72 L 148.24 58.70 L 147.94 58.59 L 146.82 58.17 L 146.56 58.05 L 146.34 57.97 L 146.00 57.81 L 145.37 57.53 L 144.90 57.28 L 144.60 57.14 L 144.39 57.01 L 144.03 56.83 L 143.34 56.41 L 143.04 56.23 L 142.94 56.16 L 142.80 56.08 L 141.70 55.28 L 141.68 55.26 L 141.66 55.25 L 141.54 55.14 L 140.73 54.44 L 140.60 54.30 L 140.49 54.20 L 140.30 53.98 L 139.90 53.56 L 139.69 53.28 L 139.53 53.10 L 139.41 52.92 L 139.21 52.66 L 138.94 52.20 L 138.79 51.96 L 138.75 51.86 L 138.67 51.73 L 138.32 50.87 L 138.29 50.79 L 138.28 50.78 L 138.28 50.77 L 138.05 49.81 L 138.04 49.69 L 138.02 49.59 L 138.01 49.35 L 137.97 48.84 L 137.97 62.74 Z" fill="url(#g15)" fill-rule="evenodd" stroke="url(#g15)" stroke-width="0.8"/>
<path d="M 182.10 55.50 L 183.33 54.47 L 184.34 53.38 L 185.14 52.25 L 185.70 51.08 L 186.03 49.89 L 186.12 48.69 L 185.97 47.50 L 185.58 46.31 L 184.96 45.15 L 184.11 44.03 L 183.04 42.96 L 181.77 41.94 L 180.29 40.99 L 178.64 40.12 L 176.82 39.34 L 174.85 38.65 L 172.76 38.06 L 170.56 37.59 L 168.28 37.22 L 165.93 36.97 L 163.55 36.83 L 161.15 36.82 L 158.75 36.92 L 156.40 37.14 L 154.09 37.48 L 151.87 37.94 L 149.75 38.50 L 147.75 39.16 L 145.89 39.92 L 144.20 40.77 L 142.68 41.70 L 141.35 42.70 L 140.23 43.76 L 139.32 44.87 L 138.64 46.02 L 138.20 47.20 L 137.99 48.39 L 138.02 49.59 L 138.29 50.79 L 138.79 51.96 L 139.53 53.10 L 140.49 54.20 L 141.66 55.25 L 143.04 56.23 L 144.60 57.14 L 146.34 57.97 L 148.24 58.70 L 150.27 59.34 L 152.42 59.88 L 154.66 60.30 L 156.98 60.61 L 159.35 60.81 L 161.75 60.88 L 164.14 60.84 L 166.52 60.67 L 168.85 60.39 L 171.12 59.99 L 173.29 59.49 L 175.36 58.87 L 177.29 58.16 L 179.07 57.36 L 180.68 56.47 Z" fill="#46e2f8" fill-rule="evenodd" stroke="#46e2f8" stroke-width="0.8"/>
<path d="M 162.05 118.91 L 150.70 124.59 L 150.70 159.34 L 162.05 153.66 Z" fill="#206873" fill-rule="evenodd" stroke="#206873" stroke-width="0.8"/>
<path d="M 104.29 108.47 L 104.12 108.52 L 103.99 108.59 Z M 105.16 108.19 L 105.06 108.21 L 104.88 108.27 Z M 106.08 108.04 L 106.05 108.04 L 105.92 108.06 Z M 107.29 108.05 L 107.09 108.03 L 107.04 108.03 Z M 108.37 108.21 L 108.18 108.16 L 108.03 108.14 Z M 109.42 108.49 L 109.28 108.44 L 109.08 108.38 Z M 110.45 108.88 L 110.41 108.86 L 110.22 108.79 Z M 111.73 109.55 L 111.54 109.43 L 111.50 109.41 Z M 112.88 110.29 L 112.67 110.13 L 112.53 110.04 Z M 113.93 111.09 L 113.78 110.96 L 113.57 110.80 Z M 114.92 111.97 L 114.86 111.91 L 114.63 111.71 Z M 116.05 113.14 L 115.90 112.97 L 115.87 112.94 Z M 117.09 114.39 L 116.89 114.12 L 116.78 113.99 Z M 117.96 115.57 L 117.83 115.37 L 117.67 115.16 Z M 118.76 116.81 L 118.70 116.70 L 118.51 116.41 Z M 119.57 118.25 L 119.49 118.08 L 119.47 118.06 Z M 120.31 119.82 L 120.19 119.52 L 120.12 119.39 Z M 120.89 121.22 L 120.81 120.99 L 120.71 120.76 Z M 121.36 122.62 L 121.32 122.48 L 121.22 122.18 Z M 122.08 125.75 L 122.04 125.47 L 122.02 125.36 Z M 122.25 127.18 L 122.24 126.93 L 122.21 126.71 Z M 122.32 128.49 L 122.32 128.35 L 122.31 128.08 Z M 122.29 129.76 L 122.29 129.72 L 122.30 129.54 Z M 122.11 131.25 L 122.15 131.03 L 122.16 130.96 Z M 121.84 132.46 L 121.90 132.25 L 121.93 132.09 Z M 121.49 133.51 L 121.54 133.39 L 121.61 133.18 Z M 121.05 134.46 L 121.08 134.42 L 121.16 134.24 Z M 120.40 135.47 L 120.51 135.33 L 120.53 135.30 Z M 119.71 136.26 L 119.85 136.13 L 119.93 136.03 Z M 118.99 136.86 L 119.10 136.79 L 119.24 136.67 Z M 118.22 137.35 L 118.27 137.32 L 118.44 137.22 Z M 127.97 132.47 L 128.00 131.54 L 127.99 131.24 L 127.96 132.48 Z M 127.89 129.25 L 127.97 130.58 L 127.94 129.83 Z M 127.63 127.12 L 127.83 128.56 L 127.78 128.08 Z M 127.12 124.48 L 127.54 126.52 L 127.50 126.30 L 127.12 124.50 Z M 126.55 122.42 L 127.06 124.27 L 126.64 122.69 Z M 125.84 120.33 L 126.33 121.74 L 126.05 120.87 Z M 124.99 118.22 L 125.57 119.63 L 125.36 119.08 Z M 123.77 115.67 L 124.70 117.57 L 124.59 117.31 Z M 122.65 113.69 L 123.74 115.61 L 123.72 115.57 L 122.77 113.89 Z M 121.45 111.85 L 122.29 113.12 L 121.74 112.26 Z M 120.13 110.05 L 121.01 111.22 L 120.65 110.70 Z M 118.60 108.21 L 119.69 109.49 L 119.49 109.23 Z M 116.90 106.44 L 118.32 107.89 L 118.27 107.84 L 117.01 106.55 Z M 115.39 105.11 L 116.47 106.06 L 115.71 105.37 Z M 113.83 103.92 L 114.88 104.70 L 114.38 104.30 Z" fill="url(#g18)" fill-rule="evenodd" stroke="url(#g18)" stroke-width="0.8"/>
<path d="M 135.07 137.55 L 135.94 136.68 L 136.71 135.69 L 137.40 134.58 L 137.99 133.35 L 138.47 132.03 L 138.85 130.61 L 139.13 129.10 L 139.29 127.51 L 139.35 125.86 L 139.29 124.16 L 139.13 122.41 L 138.85 120.63 L 138.47 118.82 L 137.99 117.01 L 137.40 115.20 L 136.71 113.40 L 135.94 111.63 L 135.07 109.90 L 134.12 108.21 L 133.09 106.58 L 132.00 105.03 L 130.84 103.55 L 129.62 102.17 L 128.36 100.88 L 127.06 99.69 L 125.73 98.63 L 124.38 97.68 L 123.01 96.86 L 121.64 96.18 L 120.27 95.63 L 118.92 95.22 L 117.59 94.96 L 116.29 94.84 L 115.03 94.87 L 113.81 95.04 L 112.66 95.36 L 111.56 95.82 L 100.21 101.49 L 100.50 101.37 L 100.70 101.27 L 100.94 101.19 L 101.31 101.03 L 101.82 100.89 L 102.10 100.80 L 102.26 100.77 L 102.47 100.72 L 103.36 100.59 L 103.59 100.55 L 103.64 100.55 L 103.68 100.54 L 104.94 100.51 L 105.06 100.53 L 105.16 100.52 L 105.47 100.56 L 106.24 100.63 L 106.55 100.69 L 106.78 100.72 L 107.09 100.80 L 107.57 100.90 L 108.11 101.06 L 108.44 101.14 L 108.65 101.22 L 108.92 101.30 L 109.81 101.66 L 110.13 101.78 L 110.20 101.82 L 110.29 101.85 L 111.66 102.54 L 111.76 102.59 L 111.83 102.63 L 112.11 102.81 L 113.03 103.36 L 113.31 103.55 L 113.51 103.68 L 113.83 103.92 L 114.38 104.30 L 114.88 104.70 L 115.18 104.92 L 115.39 105.11 L 115.71 105.37 L 116.47 106.06 L 116.80 106.35 L 116.90 106.44 L 117.01 106.55 L 118.27 107.84 L 118.32 107.89 L 118.36 107.94 L 118.60 108.21 L 119.49 109.23 L 119.69 109.49 L 119.85 109.67 L 120.13 110.05 L 120.65 110.70 L 121.01 111.22 L 121.26 111.55 L 121.45 111.85 L 121.74 112.26 L 122.29 113.12 L 122.56 113.53 L 122.65 113.69 L 122.77 113.89 L 123.72 115.57 L 123.74 115.61 L 123.74 115.61 L 123.77 115.67 L 124.59 117.31 L 124.70 117.57 L 124.80 117.77 L 124.99 118.22 L 125.36 119.08 L 125.57 119.63 L 125.72 119.97 L 125.84 120.33 L 126.05 120.87 L 126.33 121.74 L 126.49 122.21 L 126.55 122.42 L 126.64 122.69 L 127.06 124.27 L 127.11 124.45 L 127.12 124.48 L 127.12 124.50 L 127.50 126.30 L 127.54 126.52 L 127.57 126.69 L 127.63 127.12 L 127.78 128.08 L 127.83 128.56 L 127.87 128.88 L 127.89 129.25 L 127.94 129.83 L 127.97 130.58 L 128.00 131.02 L 127.99 131.24 L 128.00 131.54 L 127.96 132.82 L 127.95 133.07 L 127.95 133.12 L 127.94 133.19 L 127.78 134.77 L 127.75 134.92 L 127.74 135.03 L 127.67 135.38 L 127.50 136.28 L 127.42 136.61 L 127.36 136.87 L 127.26 137.19 L 127.12 137.70 L 126.93 138.24 L 126.82 138.57 L 126.74 138.75 L 126.64 139.03 L 126.25 139.85 L 126.12 140.11 L 126.09 140.17 L 126.05 140.25 L 125.36 141.36 L 125.31 141.43 L 125.28 141.49 L 125.11 141.69 L 124.59 142.36 L 124.40 142.54 L 124.29 142.68 L 124.07 142.87 L 123.72 143.22 L 123.37 143.49 L 123.16 143.68 L 123.00 143.78 L 122.77 143.96 L 122.17 144.31 L 121.92 144.47 L 121.84 144.50 L 121.74 144.56 L 133.09 138.88 L 134.12 138.28 Z" fill="url(#g19)" fill-rule="evenodd" stroke="url(#g19)" stroke-width="0.8"/>
<path d="M 112.67 144.62 L 114.35 145.15 L 116.00 145.46 L 117.59 145.54 L 119.12 145.41 L 120.57 145.05 L 121.92 144.47 L 123.16 143.68 L 124.29 142.68 L 125.28 141.49 L 126.12 140.11 L 126.82 138.57 L 127.36 136.87 L 127.74 135.03 L 127.95 133.07 L 128.00 131.02 L 127.87 128.88 L 127.57 126.69 L 127.11 124.45 L 126.49 122.21 L 125.72 119.97 L 124.80 117.77 L 123.74 115.61 L 122.56 113.53 L 121.26 111.55 L 119.85 109.67 L 118.36 107.94 L 116.80 106.35 L 115.18 104.92 L 113.51 103.68 L 111.83 102.63 L 110.13 101.78 L 108.44 101.14 L 106.78 100.72 L 105.16 100.52 L 103.59 100.55 L 102.10 100.80 L 100.70 101.27 L 99.40 101.95 L 98.21 102.85 L 97.16 103.94 L 96.23 105.23 L 95.46 106.69 L 94.84 108.32 L 94.38 110.09 L 94.09 111.99 L 93.96 114.00 L 94.00 116.10 L 94.21 118.27 L 94.59 120.48 L 95.13 122.72 L 95.83 124.96 L 96.68 127.19 L 97.67 129.37 L 98.79 131.49 L 100.03 133.53 L 101.39 135.46 L 102.83 137.27 L 104.36 138.93 L 105.96 140.44 L 107.60 141.78 L 109.28 142.93 L 110.98 143.88 Z M 109.85 136.29 L 108.73 135.53 L 107.63 134.64 L 106.57 133.63 L 105.55 132.52 L 104.58 131.31 L 103.68 130.03 L 102.85 128.67 L 102.10 127.26 L 101.44 125.80 L 100.88 124.32 L 100.41 122.82 L 100.05 121.33 L 99.80 119.85 L 99.66 118.41 L 99.63 117.01 L 99.72 115.67 L 99.91 114.40 L 100.22 113.22 L 100.63 112.14 L 101.15 111.16 L 101.76 110.31 L 102.47 109.58 L 103.26 108.98 L 104.12 108.52 L 105.06 108.21 L 106.05 108.04 L 107.09 108.03 L 108.18 108.16 L 109.28 108.44 L 110.41 108.86 L 111.54 109.43 L 112.67 110.13 L 113.78 110.96 L 114.86 111.91 L 115.90 112.97 L 116.89 114.12 L 117.83 115.37 L 118.70 116.70 L 119.49 118.08 L 120.19 119.52 L 120.81 120.99 L 121.32 122.48 L 121.73 123.98 L 122.04 125.47 L 122.24 126.93 L 122.32 128.35 L 122.29 129.72 L 122.15 131.03 L 121.90 132.25 L 121.54 133.39 L 121.08 134.42 L 120.51 135.33 L 119.85 136.13 L 119.10 136.79 L 118.27 137.32 L 117.37 137.71 L 116.40 137.95 L 115.39 138.04 L 114.32 137.98 L 113.23 137.78 L 112.11 137.42 L 110.98 136.93 Z" fill="#2e94a2" fill-rule="evenodd" stroke="#2e94a2" stroke-width="0.8"/>
</g>
<g stroke="black" fill="none" stroke-linecap="round">
<path d="M 37.21 102.59 A 8.02 4.91 -116.57 0 0 42.88 112.38" stroke-width="2.00"/>
<line x1="148.61" y1="163.68" x2="159.96" y2="158.00" stroke-width="2.00"/>
<path d="M 145.02 163.45 A 8.02 4.91 -116.57 0 0 150.70 159.34" stroke-width="2.00"/>
<path d="M 160.02 157.97 A 8.02 4.91 -116.57 0 0 162.05 153.66" stroke-width="2.00"/>
<path d="M 122.33 42.88 A 24.07 12.04 -180.00 0 0 129.38 34.40" stroke-width="2.00"/>
<path d="M 81.23 34.34 A 24.07 12.04 -180.00 0 0 122.33 42.88" stroke-width="2.00"/>
<path d="M 122.33 28.98 A 24.07 12.04 -180.00 0 0 88.28 11.96 A 24.07 12.04 -180.00 0 0 122.33 28.98" stroke-width="2.00"/>
<line x1="129.38" y1="34.37" x2="129.38" y2="20.47" stroke-width="2.00"/>
<line x1="81.23" y1="34.37" x2="81.23" y2="20.47" stroke-width="2.00"/>
<path d="M 122.33 42.88 A 24.07 12.04 -180.00 0 0 129.38 34.40" stroke-width="2.00"/>
<path d="M 81.23 34.34 A 24.07 12.04 -180.00 0 0 122.33 42.88" stroke-width="2.00"/>
<path d="M 122.33 28.98 A 24.07 12.04 -180.00 0 0 88.28 11.96 A 24.07 12.04 -180.00 0 0 122.33 28.98" stroke-width="2.00"/>
<path d="M 122.33 28.98 A 24.07 12.04 -180.00 0 0 88.28 11.96 A 24.07 12.04 -180.00 0 0 122.33 28.98" stroke-width="2.00"/>
<path d="M 179.07 71.26 A 24.07 12.04 -180.00 0 0 186.12 62.77" stroke-width="2.00"/>
<path d="M 137.97 62.72 A 24.07 12.04 -180.00 0 0 179.07 71.26" stroke-width="2.00"/>
<path d="M 179.07 57.36 A 24.07 12.04 180.00 0 0 145.02 40.33 A 24.07 12.04 180.00 0 0 179.07 57.36" stroke-width="2.00"/>
<line x1="186.12" y1="62.74" x2="186.12" y2="48.84" stroke-width="2.00"/>
<line x1="137.97" y1="62.74" x2="137.97" y2="48.84" stroke-width="2.00"/>
<path d="M 179.07 71.26 A 24.07 12.04 -180.00 0 0 186.12 62.77" stroke-width="2.00"/>
<path d="M 137.97 62.72 A 24.07 12.04 -180.00 0 0 179.07 71.26" stroke-width="2.00"/>
<path d="M 179.07 57.36 A 24.07 12.04 180.00 0 0 145.02 40.33 A 24.07 12.04 180.00 0 0 179.07 57.36" stroke-width="2.00"/>
<path d="M 179.07 57.36 A 24.07 12.04 180.00 0 0 145.02 40.33 A 24.07 12.04 180.00 0 0 179.07 57.36" stroke-width="2.00"/>
<path d="M 111.14 109.38 A 16.05 9.83 -116.57 0 0 122.02 131.09" stroke-width="2.00"/>
<path d="M 133.08 138.89 A 24.07 14.74 -116.57 0 0 111.57 95.82" stroke-width="2.00"/>
<path d="M 110.98 136.93 A 16.05 9.83 -116.57 0 0 110.98 109.13 A 16.05 9.83 -116.57 0 0 110.98 136.93" stroke-width="2.00"/>
<path d="M 110.98 143.88 A 24.07 14.74 -116.57 0 0 110.98 102.18 A 24.07 14.74 -116.57 0 0 110.98 143.88" stroke-width="2.00"/>
<path d="M 110.98 136.93 A 16.05 9.83 -116.57 0 0 110.98 109.13 A 16.05 9.83 -116.57 0 0 110.98 136.93" stroke-width="2.00"/>
<path d="M 111.14 109.38 A 16.05 9.83 -116.57 0 0 122.02 131.09" stroke-width="2.00"/>
<line x1="100.21" y1="101.49" x2="111.56" y2="95.82" stroke-width="2.00"/>
<line x1="121.74" y1="144.56" x2="133.09" y2="138.89" stroke-width="2.00"/>
<path d="M 110.98 143.88 A 24.07 14.74 -116.57 0 0 110.98 102.18 A 24.07 14.74 -116.57 0 0 110.98 143.88" stroke-width="2.00"/>
<path d="M 133.08 138.89 A 24.07 14.74 -116.57 0 0 111.57 95.82" stroke-width="2.00"/>
<path d="M 110.98 143.88 A 24.07 14.74 -116.57 0 0 110.98 102.18 A 24.07 14.74 -116.57 0 0 110.98 143.88" stroke-width="2.00"/>
<path d="M 110.98 136.93 A 16.05 9.83 -116.57 0 0 110.98 109.13 A 16.05 9.83 -116.57 0 0 110.98 136.93" stroke-width="2.00"/>
<path d="M 54.40 81.01 A 16.05 9.83 -116.57 0 0 65.28 102.72" stroke-width="2.00"/>
<path d="M 76.34 110.52 A 24.07 14.74 -116.57 0 0 54.82 67.44" stroke-width="2.00"/>
<path d="M 54.23 108.55 A 16.05 9.83 -116.57 0 0 54.23 80.76 A 16.05 9.83 -116.57 0 0 54.23 108.55" stroke-width="2.00"/>
<path d="M 54.23 115.50 A 24.07 14.74 -116.57 0 0 54.23 73.81 A 24.07 14.74 -116.57 0 0 54.23 115.50" stroke-width="2.00"/>
<path d="M 54.23 108.55 A 16.05 9.83 -116.57 0 0 54.23 80.76 A 16.05 9.83 -116.57 0 0 54.23 108.55" stroke-width="2.00"/>
<path d="M 54.40 81.01 A 16.05 9.83 -116.57 0 0 65.28 102.72" stroke-width="2.00"/>
<line x1="43.47" y1="73.12" x2="54.82" y2="67.45" stroke-width="2.00"/>
<line x1="65.00" y1="116.19" x2="76.35" y2="110.51" stroke-width="2.00"/>
<path d="M 54.23 115.50 A 24.07 14.74 -116.57 0 0 54.23 73.81 A 24.07 14.74 -116.57 0 0 54.23 115.50" stroke-width="2.00"/>
<path d="M 76.34 110.52 A 24.07 14.74 -116.57 0 0 54.82 67.44" stroke-width="2.00"/>
<path d="M 54.23 115.50 A 24.07 14.74 -116.57 0 0 54.23 73.81 A 24.07 14.74 -116.57 0 0 54.23 115.50" stroke-width="2.00"/>
<path d="M 54.23 108.55 A 16.05 9.83 -116.57 0 0 54.23 80.76 A 16.05 9.83 -116.57 0 0 54.23 108.55" stroke-width="2.00"/>
<line x1="162.05" y1="118.91" x2="218.79" y2="90.54" stroke-width="2.00"/>
<line x1="37.21" y1="40.05" x2="81.86" y2="17.72" stroke-width="2.00"/>
<line x1="99.84" y1="8.73" x2="105.30" y2="6.00" stroke-width="2.00"/>
<line x1="218.79" y1="62.74" x2="150.70" y2="96.79" stroke-width="2.00"/>
<line x1="105.30" y1="6.00" x2="110.76" y2="8.73" stroke-width="2.00"/>
<line x1="128.74" y1="17.72" x2="167.42" y2="37.06" stroke-width="2.00"/>
<line x1="185.56" y1="46.13" x2="218.79" y2="62.74" stroke-width="2.00"/>
<line x1="37.21" y1="40.05" x2="150.70" y2="96.79" stroke-width="2.00"/>
<line x1="37.21" y1="67.84" x2="37.21" y2="40.05" stroke-width="2.00"/>
<line x1="150.70" y1="124.59" x2="150.70" y2="96.79" stroke-width="2.00"/>
<line x1="218.79" y1="62.74" x2="218.79" y2="90.54" stroke-width="2.00"/>
<line x1="162.05" y1="118.91" x2="162.05" y2="153.66" stroke-width="2.00"/>
<line x1="150.70" y1="124.59" x2="150.70" y2="159.34" stroke-width="2.00"/>
<line x1="37.21" y1="67.84" x2="37.21" y2="102.59" stroke-width="2.00"/>
<line x1="145.02" y1="163.45" x2="42.88" y2="112.38" stroke-width="2.00"/>
</g>
</svg>