<svg xmlns="http://www.w3.org/2000/svg" viewBox="0 0 256 170" preserveAspectRatio="xMidYMid meet">
<defs><linearGradient id="g3" gradientUnits="userSpaceOnUse" x1="92.13" y1="86.57" x2="113.14" y2="76.06"><stop offset="0.0%" stop-color="#565656"/><stop offset="9.5%" stop-color="#565656"/><stop offset="20.0%" stop-color="#565656"/><stop offset="31.6%" stop-color="#565656"/><stop offset="44.0%" stop-color="#565656"/><stop offset="57.2%" stop-color="#565656"/><stop offset="71.0%" stop-color="#565656"/><stop offset="85.3%" stop-color="#565656"/><stop offset="100.0%" stop-color="#5a5a5a"/></linearGradient><linearGradient id="g4" gradientUnits="userSpaceOnUse" x1="142.86" y1="76.06" x2="163.87" y2="86.57"><stop offset="0.0%" stop-color="#8d8d8d"/><stop offset="14.7%" stop-color="#929292"/><stop offset="29.0%" stop-color="#969696"/><stop offset="42.8%" stop-color="#999999"/><stop offset="56.0%" stop-color="#9c9c9c"/><stop offset="68.4%" stop-color="#9e9e9e"/><stop offset="80.0%" stop-color="#a0a0a0"/><stop offset="90.5%" stop-color="#a0a0a0"/><stop offset="100.0%" stop-color="#a0a0a0"/></linearGradient><linearGradient id="g5" gradientUnits="userSpaceOnUse" x1="166.82" y1="75.32" x2="89.18" y2="75.32"><stop offset="0.0%" stop-color="#999999"/><stop offset="3.8%" stop-color="#a0a0a0"/><stop offset="14.6%" stop-color="#9c9c9c"/><stop offset="30.9%" stop-color="#8d8d8d"/><stop offset="50.0%" stop-color="#767676"/><stop offset="69.1%" stop-color="#5a5a5a"/><stop offset="85.4%" stop-color="#565656"/><stop offset="96.2%" stop-color="#565656"/><stop offset="100.0%" stop-color="#565656"/></linearGradient><linearGradient id="g7" gradientUnits="userSpaceOnUse" x1="160.35" y1="60.38" x2="95.65" y2="60.38"><stop offset="0.0%" stop-color="#999999"/><stop offset="3.8%" stop-color="#a0a0a0"/><stop offset="14.6%" stop-color="#9c9c9c"/><stop offset="30.9%" stop-color="#8d8d8d"/><stop offset="50.0%" stop-color="#767676"/><stop offset="69.1%" stop-color="#5a5a5a"/><stop offset="85.4%" stop-color="#565656"/><stop offset="96.2%" stop-color="#565656"/><stop offset="100.0%" stop-color="#565656"/></linearGradient><linearGradient id="g10" gradientUnits="userSpaceOnUse" x1="84.87" y1="64.11" x2="171.13" y2="64.11"><stop offset="0.0%" stop-color="#999999"/><stop offset="3.8%" stop-color="#a0a0a0"/><stop offset="14.6%" stop-color="#9c9c9c"/><stop offset="30.9%" stop-color="#8d8d8d"/><stop offset="50.0%" stop-color="#767676"/><stop offset="69.1%" stop-color="#5a5a5a"/><stop offset="85.4%" stop-color="#565656"/><stop offset="96.2%" stop-color="#565656"/><stop offset="100.0%" stop-color="#565656"/></linearGradient></defs>
<g stroke-linejoin="round">
<path d="M 6.00 71.58 L 128.00 132.58 L 250.00 71.58 L 128.00 10.58 L 6.00 71.58 Z M 84.88 61.67 L 84.89 61.61 L 84.91 61.56 L 84.94 61.50 L 84.97 61.45 L 85.00 61.41 L 85.04 61.36 L 85.09 61.32 L 85.13 61.29 L 85.18 61.26 L 85.24 61.23 L 85.29 61.21 L 85.35 61.20 L 85.41 61.19 L 85.47 61.19 L 85.53 61.19 L 85.58 61.20 L 85.64 61.21 L 85.70 61.23 L 85.75 61.26 L 85.80 61.29 L 85.85 61.33 A 43.13 21.57 180.00 0 0 86.26 62.04 A 43.13 21.57 180.00 0 1 87.61 49.12 L 88.12 48.49 L 88.68 47.80 A 43.13 21.57 180.00 0 1 143.27 36.47 A 43.13 21.57 180.00 0 1 170.30 52.51 L 170.44 52.93 L 170.73 53.83 A 43.13 21.57 180.00 0 1 170.90 54.51 L 170.97 55.11 L 171.08 55.97 A 43.13 21.57 180.00 0 1 169.56 62.36 A 43.13 21.57 180.00 0 0 170.15 61.33 L 170.20 61.29 L 170.25 61.26 L 170.30 61.23 L 170.36 61.21 L 170.41 61.20 L 170.47 61.19 L 170.53 61.19 L 170.59 61.19 L 170.65 61.20 L 170.71 61.21 L 170.76 61.23 L 170.82 61.26 L 170.87 61.29 L 170.91 61.32 L 170.96 61.36 L 171.00 61.41 L 171.03 61.45 L 171.06 61.50 L 171.09 61.56 L 171.11 61.61 L 171.12 61.67 L 171.13 61.73 L 171.13 61.79 L 171.13 62.65 L 171.13 62.82 L 171.13 63.44 L 171.13 64.61 L 171.13 66.42 L 171.13 68.83 L 171.13 71.58 L 166.72 67.34 A 40.33 20.17 -180.00 0 1 139.35 92.33 A 40.33 20.17 -180.00 0 1 138.44 92.46 A 43.13 21.57 180.00 0 1 117.56 92.46 A 40.33 20.17 -180.00 0 1 89.00 67.84 A 40.33 20.17 -180.00 0 1 89.28 67.34 L 84.87 71.58 L 84.87 68.83 L 84.87 66.42 L 84.87 64.61 L 84.87 63.44 L 84.87 62.82 L 84.87 62.65 L 84.87 61.79 L 84.87 61.73 L 84.88 61.67 Z" fill="#cccccc" fill-rule="evenodd" stroke="#cccccc" stroke-width="0.8"/>
<path d="M 113.14 70.99 A 32.35 16.18 180.00 0 0 115.97 71.64 L 115.97 68.31 L 113.28 68.58 A 38.82 19.41 180.00 0 0 113.14 68.61 L 113.14 70.99 Z" fill="#5e5e5e" fill-rule="evenodd" stroke="#5e5e5e" stroke-width="0.8"/>
<path d="M 142.72 68.58 L 140.03 68.31 L 140.03 71.65 A 32.35 16.18 180.00 0 0 142.86 71.00 L 142.86 68.61 A 38.82 19.41 180.00 0 0 142.72 68.58 Z" fill="#858585" fill-rule="evenodd" stroke="#858585" stroke-width="0.8"/>
<path d="M 113.14 68.61 A 38.82 19.41 180.00 0 0 108.83 69.65 A 32.35 16.18 180.00 0 0 113.14 70.99 L 113.14 68.61 Z" fill="url(#g3)" fill-rule="evenodd" stroke="url(#g3)" stroke-width="0.8"/>
<path d="M 142.86 68.61 L 142.86 71.00 A 32.35 16.18 180.00 0 0 147.16 69.65 A 38.82 19.41 180.00 0 0 142.86 68.61 Z" fill="url(#g4)" fill-rule="evenodd" stroke="url(#g4)" stroke-width="0.8"/>
<path d="M 114.67 68.44 L 114.65 68.31 A 38.82 19.41 180.00 0 1 141.34 68.31 L 141.33 68.44 L 142.72 68.58 A 38.82 19.41 180.00 0 1 147.16 69.65 A 32.35 16.18 180.00 0 0 159.44 60.36 A 32.35 16.18 -180.00 0 0 120.85 48.35 A 32.35 16.18 -180.00 0 0 96.55 60.35 A 32.35 16.18 180.00 0 0 108.83 69.65 A 38.82 19.41 180.00 0 1 113.28 68.58 L 114.67 68.44 Z" fill="url(#g5)" fill-rule="evenodd" stroke="url(#g5)" stroke-width="0.8"/>
<path d="M 250.00 71.58 L 128.00 132.58 L 128.00 158.73 L 250.00 97.73 L 250.00 71.58 Z" fill="#5e5e5e" fill-rule="evenodd" stroke="#5e5e5e" stroke-width="0.8"/>
<path d="M 96.55 60.35 A 32.35 16.18 -180.00 0 1 134.47 48.26 A 32.35 16.18 -180.00 0 1 159.45 60.34 A 32.35 16.18 180.00 0 0 135.70 40.95 A 32.35 16.18 180.00 0 0 97.41 51.40 A 32.35 16.18 180.00 0 0 96.55 60.35 Z" fill="url(#g7)" fill-rule="evenodd" stroke="url(#g7)" stroke-width="0.8"/>
<path d="M 156.75 66.18 A 34.51 17.25 -180.00 0 0 149.18 43.02 A 34.51 17.25 -180.00 0 0 102.41 45.06 A 34.51 17.25 -180.00 0 0 103.00 68.53 A 34.51 17.25 -180.00 0 0 149.85 70.00 A 34.51 17.25 -180.00 0 0 156.75 66.18 Z M 145.89 70.12 A 32.35 16.18 180.00 0 1 102.46 66.57 A 32.35 16.18 180.00 0 1 106.29 44.65 A 32.35 16.18 180.00 0 1 150.30 44.92 A 32.35 16.18 180.00 0 1 153.04 66.88 A 32.35 16.18 180.00 0 1 145.89 70.12 Z" fill="#cccccc" fill-rule="evenodd" stroke="#cccccc" stroke-width="0.8"/>
<path d="M 6.00 71.58 L 6.00 97.73 L 128.00 158.73 L 128.00 132.58 L 6.00 71.58 Z" fill="#858585" fill-rule="evenodd" stroke="#858585" stroke-width="0.8"/>
<path d="M 117.56 92.46 A 43.13 21.57 180.00 0 0 125.64 93.11 L 125.64 93.11 A 43.13 21.57 180.00 0 0 127.01 93.14 L 127.01 93.13 A 43.13 21.57 180.00 0 0 128.99 93.13 L 128.99 93.14 A 43.13 21.57 180.00 0 0 130.36 93.11 L 130.36 93.11 A 43.13 21.57 180.00 0 0 138.44 92.46 A 40.33 20.17 -180.00 0 0 166.99 67.83 A 40.33 20.17 -180.00 0 0 166.80 67.42 L 171.13 71.58 L 171.13 61.79 L 171.13 61.73 L 171.12 61.67 L 171.11 61.61 L 171.09 61.56 L 171.06 61.50 L 171.03 61.45 L 171.00 61.41 L 170.96 61.36 L 170.91 61.32 L 170.87 61.29 L 170.82 61.26 L 170.76 61.23 L 170.71 61.21 L 170.65 61.20 L 170.59 61.19 L 170.53 61.19 L 170.47 61.19 L 170.42 61.20 L 170.36 61.21 L 170.30 61.23 L 170.25 61.26 L 170.12 61.34 A 43.13 21.57 180.00 0 1 166.25 66.60 A 40.33 20.17 -180.00 0 0 159.48 60.38 L 166.10 66.75 A 43.13 21.57 180.00 0 1 109.51 76.13 A 43.13 21.57 180.00 0 1 89.90 66.75 L 96.52 60.38 A 40.33 20.17 -180.00 0 0 89.75 66.60 A 43.13 21.57 180.00 0 1 85.85 61.33 L 85.80 61.29 L 85.75 61.26 L 85.70 61.23 L 85.64 61.21 L 85.58 61.20 L 85.53 61.19 L 85.47 61.19 L 85.41 61.19 L 85.35 61.20 L 85.29 61.21 L 85.24 61.23 L 85.18 61.26 L 85.13 61.29 L 85.09 61.32 L 85.04 61.36 L 85.00 61.41 L 84.97 61.45 L 84.94 61.50 L 84.91 61.56 L 84.89 61.61 L 84.88 61.67 L 84.87 61.73 L 84.87 61.79 L 84.87 71.58 L 89.20 67.42 A 40.33 20.17 -180.00 0 0 116.64 92.33 A 40.33 20.17 -180.00 0 0 117.56 92.46 Z" fill="url(#g10)" fill-rule="evenodd" stroke="url(#g10)" stroke-width="0.8"/>
<path d="M 163.94 68.57 A 43.13 21.57 180.00 0 0 154.47 39.61 A 43.13 21.57 180.00 0 0 96.02 42.17 A 43.13 21.57 180.00 0 0 96.75 71.51 A 43.13 21.57 180.00 0 0 155.31 73.33 A 43.13 21.57 180.00 0 0 163.94 68.57 Z M 147.08 71.02 A 34.51 17.25 -180.00 0 1 100.75 67.23 A 34.51 17.25 -180.00 0 1 104.85 43.85 A 34.51 17.25 -180.00 0 1 151.78 44.14 A 34.51 17.25 -180.00 0 1 154.71 67.57 A 34.51 17.25 -180.00 0 1 147.08 71.02 Z" fill="#cccccc" fill-rule="evenodd" stroke="#cccccc" stroke-width="0.8"/>
<path d="M 114.81 69.49 L 114.78 69.58 L 114.73 69.66 L 114.67 69.74 L 114.61 69.82 L 114.54 69.88 L 114.47 69.94 L 114.39 70.00 L 114.30 70.04 L 114.21 70.08 L 114.12 70.11 L 114.02 70.12 L 113.93 70.13 L 113.83 70.13 L 113.73 70.12 L 113.64 70.10 L 114.06 70.21 L 114.56 70.33 L 114.97 70.42 L 114.97 68.90 L 114.95 68.88 L 114.88 68.81 L 114.82 68.74 L 114.76 68.66 L 114.80 68.74 L 114.83 68.83 L 114.86 68.92 L 114.87 69.02 L 114.88 69.11 L 114.88 69.21 L 114.87 69.30 L 114.84 69.40 L 114.81 69.49 Z" fill="#000000" fill-rule="evenodd" stroke="#000000" stroke-width="0.8"/>
<path d="M 117.52 70.39 L 117.49 70.29 L 117.47 70.19 L 117.47 70.09 L 117.47 70.00 L 117.48 69.90 L 117.50 69.80 L 117.54 69.70 L 117.58 69.61 L 117.63 69.53 L 117.69 69.45 L 117.75 69.37 L 117.83 69.31 L 117.90 69.25 L 117.99 69.19 L 118.08 69.15 L 118.17 69.12 L 118.27 69.09 L 118.37 69.08 L 116.97 69.22 L 116.97 70.83 L 117.11 70.86 L 117.64 70.95 L 118.16 71.04 L 118.30 71.06 L 118.21 71.04 L 118.12 71.01 L 118.03 70.97 L 117.94 70.92 L 117.86 70.87 L 117.78 70.80 L 117.71 70.73 L 117.65 70.65 L 117.60 70.57 L 117.55 70.48 L 117.52 70.39 Z" fill="#000000" fill-rule="evenodd" stroke="#000000" stroke-width="0.8"/>
<path d="M 138.42 69.61 L 138.46 69.70 L 138.50 69.80 L 138.52 69.90 L 138.53 70.00 L 138.53 70.09 L 138.53 70.19 L 138.51 70.29 L 138.48 70.39 L 138.45 70.48 L 138.40 70.57 L 138.35 70.65 L 138.29 70.73 L 138.22 70.80 L 138.14 70.87 L 138.06 70.92 L 137.97 70.97 L 137.88 71.01 L 137.79 71.04 L 137.70 71.06 L 137.84 71.04 L 138.36 70.95 L 138.88 70.86 L 139.03 70.83 L 139.03 69.22 L 137.63 69.08 L 137.73 69.09 L 137.83 69.12 L 137.92 69.15 L 138.01 69.19 L 138.10 69.25 L 138.18 69.31 L 138.25 69.37 L 138.31 69.45 L 138.37 69.53 L 138.42 69.61 Z" fill="#000000" fill-rule="evenodd" stroke="#000000" stroke-width="0.8"/>
<path d="M 141.53 69.94 L 141.46 69.88 L 141.39 69.82 L 141.33 69.74 L 141.27 69.66 L 141.22 69.58 L 141.19 69.49 L 141.16 69.40 L 141.13 69.30 L 141.12 69.21 L 141.12 69.11 L 141.13 69.02 L 141.14 68.92 L 141.17 68.83 L 141.20 68.74 L 141.24 68.66 L 141.18 68.74 L 141.12 68.81 L 141.05 68.88 L 141.03 68.90 L 141.03 70.42 L 141.44 70.33 L 141.94 70.21 L 142.36 70.10 L 142.27 70.12 L 142.17 70.13 L 142.07 70.13 L 141.98 70.12 L 141.88 70.11 L 141.79 70.08 L 141.70 70.04 L 141.61 70.00 L 141.53 69.94 Z" fill="#000000" fill-rule="evenodd" stroke="#000000" stroke-width="0.8"/>
</g>
<defs><clipPath id="sclip"><path d="M 11.10 102.08 L 128.00 160.53 L 244.90 102.08 L 244.90 101.40 L 251.00 98.35 L 251.00 70.97 L 128.00 9.46 L 5.00 70.97 L 5.00 98.35 L 11.10 101.40 Z" clip-rule="evenodd"/></clipPath></defs>
<g stroke="black" fill="none" stroke-linecap="round" clip-path="url(#sclip)">
<path d="M 12.10 101.47 L 128.00 159.42 L 243.90 101.47 L 243.90 100.78 L 250.00 97.73 L 250.00 71.58 L 128.00 10.58 L 6.00 71.58 L 6.00 97.73 L 12.10 100.78 L 12.10 101.47 Z" stroke-width="2.00" stroke-linejoin="miter" stroke-miterlimit="5"/>
<path d="M 115.61 68.13 A 38.82 19.41 -180.00 0 1 140.39 68.13" stroke-width="2.00"/>
<path d="M 96.52 60.38 A 32.35 16.18 -180.00 0 1 128.00 47.94 A 32.35 16.18 -180.00 0 1 159.48 60.38" stroke-width="2.00"/>
<path d="M 150.88 68.08 A 32.35 16.18 180.00 0 0 150.88 45.20 A 32.35 16.18 180.00 0 0 105.12 45.20 A 32.35 16.18 180.00 0 0 105.12 68.08 A 32.35 16.18 180.00 0 0 150.88 68.08" stroke-width="2.00"/>
<path d="M 158.50 71.89 A 43.13 21.57 180.00 0 0 158.50 41.39 A 43.13 21.57 180.00 0 0 97.50 41.39 A 43.13 21.57 180.00 0 0 97.50 71.89 A 43.13 21.57 180.00 0 0 158.50 71.89" stroke-width="2.00"/>
<path d="M 96.52 60.38 A 40.33 20.17 -180.00 0 0 100.55 87.76 A 40.33 20.17 -180.00 0 0 155.45 87.76 A 40.33 20.17 -180.00 0 0 159.48 60.38" stroke-width="2.00"/>
<path d="M 128.00 132.58 L 6.00 71.58 L 128.00 10.58 L 250.00 71.58 L 128.00 132.58 L 128.00 158.73 L 250.00 97.73 L 250.00 71.58" stroke-width="2.00" stroke-linejoin="miter" stroke-miterlimit="1.5"/>
<path d="M 6.00 71.58 L 6.00 97.73 L 128.00 158.73" stroke-width="2.00" stroke-linejoin="miter" stroke-miterlimit="1.5"/>
<path d="M 12.10 101.47 L 128.00 159.42 L 243.90 101.47" stroke-width="2.00" stroke-linejoin="miter" stroke-miterlimit="1.5"/>
<path d="M 140.03 71.63 L 140.03 68.31 L 128.00 67.12 L 115.97 68.31 L 115.97 71.63" stroke-width="2.00" stroke-linejoin="miter" stroke-miterlimit="1.5"/>
<line x1="171.13" y1="56.64" x2="171.13" y2="71.58" stroke-width="2.00"/>
<line x1="84.87" y1="56.64" x2="84.87" y2="71.58" stroke-width="2.00"/>
<path d="M 250.00 74.58 L 250.00 71.58 L 247.32 72.92" stroke-width="2.00" stroke-linejoin="miter" stroke-miterlimit="1.5"/>
<path d="M 8.68 72.92 L 6.00 71.58 L 6.00 74.58" stroke-width="2.00" stroke-linejoin="miter" stroke-miterlimit="1.5"/>
<path d="M 128.00 135.58 L 128.00 132.58 L 125.32 131.24" stroke-width="2.00" stroke-linejoin="miter" stroke-miterlimit="1.5"/>
<path d="M 125.32 131.24 L 128.00 132.58 L 130.68 131.24" stroke-width="2.00" stroke-linejoin="miter" stroke-miterlimit="1.5"/>
<path d="M 125.32 157.39 L 128.00 158.73 L 128.00 155.73" stroke-width="2.00" stroke-linejoin="miter" stroke-miterlimit="1.5"/>
</g>
</svg>